solid ASCII
  facet normal 8.382836e-01 -5.452344e-01 0.000000e+00
    outer loop
      vertex   2.603541e-02 3.033008e-02 1.600000e-02
      vertex   2.583416e-02 3.002067e-02 1.600000e-02
      vertex   2.603541e-02 3.033008e-02 8.000000e-03
    endloop
  endfacet
  facet normal 8.382836e-01 -5.452344e-01 0.000000e+00
    outer loop
      vertex   2.603541e-02 3.033008e-02 8.000000e-03
      vertex   2.583416e-02 3.002067e-02 1.600000e-02
      vertex   2.583416e-02 3.002067e-02 8.000000e-03
    endloop
  endfacet
  facet normal 8.714425e-01 -4.904977e-01 0.000000e+00
    outer loop
      vertex   2.583416e-02 3.002067e-02 8.000000e-03
      vertex   2.583416e-02 3.002067e-02 1.600000e-02
      vertex   2.565399e-02 2.970056e-02 1.600000e-02
    endloop
  endfacet
  facet normal 8.714425e-01 -4.904977e-01 0.000000e+00
    outer loop
      vertex   2.583416e-02 3.002067e-02 8.000000e-03
      vertex   2.565399e-02 2.970056e-02 1.600000e-02
      vertex   2.565399e-02 2.970056e-02 8.000000e-03
    endloop
  endfacet
  facet normal 9.159278e-01 -4.013431e-01 0.000000e+00
    outer loop
      vertex   2.565399e-02 2.970056e-02 8.000000e-03
      vertex   2.565399e-02 2.970056e-02 1.600000e-02
      vertex   2.550645e-02 2.936386e-02 1.600000e-02
    endloop
  endfacet
  facet normal 9.159278e-01 -4.013431e-01 0.000000e+00
    outer loop
      vertex   2.565399e-02 2.970056e-02 8.000000e-03
      vertex   2.550645e-02 2.936386e-02 1.600000e-02
      vertex   2.550645e-02 2.936386e-02 8.000000e-03
    endloop
  endfacet
  facet normal 9.369769e-01 -3.493912e-01 0.000000e+00
    outer loop
      vertex   2.550645e-02 2.936386e-02 8.000000e-03
      vertex   2.550645e-02 2.936386e-02 1.600000e-02
      vertex   2.537740e-02 2.901777e-02 1.600000e-02
    endloop
  endfacet
  facet normal 9.369769e-01 -3.493912e-01 0.000000e+00
    outer loop
      vertex   2.550645e-02 2.936386e-02 8.000000e-03
      vertex   2.537740e-02 2.901777e-02 1.600000e-02
      vertex   2.537740e-02 2.901777e-02 8.000000e-03
    endloop
  endfacet
  facet normal 5.652086e-01 -8.249480e-01 0.000000e+00
    outer loop
      vertex   2.682354e-02 3.106245e-02 1.600000e-02
      vertex   2.659953e-02 3.090897e-02 1.600000e-02
      vertex   2.682354e-02 3.106245e-02 8.000000e-03
    endloop
  endfacet
  facet normal 5.652086e-01 -8.249480e-01 0.000000e+00
    outer loop
      vertex   2.682354e-02 3.106245e-02 8.000000e-03
      vertex   2.659953e-02 3.090897e-02 1.600000e-02
      vertex   2.659953e-02 3.090897e-02 8.000000e-03
    endloop
  endfacet
  facet normal 6.342311e-01 -7.731435e-01 0.000000e+00
    outer loop
      vertex   2.659953e-02 3.090897e-02 8.000000e-03
      vertex   2.659953e-02 3.090897e-02 1.600000e-02
      vertex   2.639130e-02 3.073815e-02 1.600000e-02
    endloop
  endfacet
  facet normal 6.342311e-01 -7.731435e-01 0.000000e+00
    outer loop
      vertex   2.659953e-02 3.090897e-02 8.000000e-03
      vertex   2.639130e-02 3.073815e-02 1.600000e-02
      vertex   2.639130e-02 3.073815e-02 8.000000e-03
    endloop
  endfacet
  facet normal 7.295109e-01 -6.839691e-01 0.000000e+00
    outer loop
      vertex   2.639130e-02 3.073815e-02 8.000000e-03
      vertex   2.639130e-02 3.073815e-02 1.600000e-02
      vertex   2.620677e-02 3.054134e-02 1.600000e-02
    endloop
  endfacet
  facet normal 7.295109e-01 -6.839691e-01 0.000000e+00
    outer loop
      vertex   2.639130e-02 3.073815e-02 8.000000e-03
      vertex   2.620677e-02 3.054134e-02 1.600000e-02
      vertex   2.620677e-02 3.054134e-02 8.000000e-03
    endloop
  endfacet
  facet normal 7.766236e-01 -6.299649e-01 0.000000e+00
    outer loop
      vertex   2.620677e-02 3.054134e-02 8.000000e-03
      vertex   2.620677e-02 3.054134e-02 1.600000e-02
      vertex   2.603541e-02 3.033008e-02 1.600000e-02
    endloop
  endfacet
  facet normal 7.766236e-01 -6.299649e-01 0.000000e+00
    outer loop
      vertex   2.620677e-02 3.054134e-02 8.000000e-03
      vertex   2.603541e-02 3.033008e-02 1.600000e-02
      vertex   2.603541e-02 3.033008e-02 8.000000e-03
    endloop
  endfacet
  facet normal 6.835052e-02 -9.976614e-01 0.000000e+00
    outer loop
      vertex   2.770461e-02 3.127807e-02 1.600000e-02
      vertex   2.747492e-02 3.126233e-02 1.600000e-02
      vertex   2.770461e-02 3.127807e-02 8.000000e-03
    endloop
  endfacet
  facet normal 6.835052e-02 -9.976614e-01 0.000000e+00
    outer loop
      vertex   2.770461e-02 3.127807e-02 8.000000e-03
      vertex   2.747492e-02 3.126233e-02 1.600000e-02
      vertex   2.747492e-02 3.126233e-02 8.000000e-03
    endloop
  endfacet
  facet normal 1.595391e-01 -9.871916e-01 0.000000e+00
    outer loop
      vertex   2.747492e-02 3.126233e-02 8.000000e-03
      vertex   2.747492e-02 3.126233e-02 1.600000e-02
      vertex   2.725030e-02 3.122603e-02 1.600000e-02
    endloop
  endfacet
  facet normal 1.595391e-01 -9.871916e-01 0.000000e+00
    outer loop
      vertex   2.747492e-02 3.126233e-02 8.000000e-03
      vertex   2.725030e-02 3.122603e-02 1.600000e-02
      vertex   2.725030e-02 3.122603e-02 8.000000e-03
    endloop
  endfacet
  facet normal 3.128500e-01 -9.498026e-01 0.000000e+00
    outer loop
      vertex   2.725030e-02 3.122603e-02 8.000000e-03
      vertex   2.725030e-02 3.122603e-02 1.600000e-02
      vertex   2.703429e-02 3.115488e-02 1.600000e-02
    endloop
  endfacet
  facet normal 3.128500e-01 -9.498026e-01 0.000000e+00
    outer loop
      vertex   2.725030e-02 3.122603e-02 8.000000e-03
      vertex   2.703429e-02 3.115488e-02 1.600000e-02
      vertex   2.703429e-02 3.115488e-02 8.000000e-03
    endloop
  endfacet
  facet normal 4.016641e-01 -9.157871e-01 0.000000e+00
    outer loop
      vertex   2.703429e-02 3.115488e-02 8.000000e-03
      vertex   2.703429e-02 3.115488e-02 1.600000e-02
      vertex   2.682354e-02 3.106245e-02 1.600000e-02
    endloop
  endfacet
  facet normal 4.016641e-01 -9.157871e-01 0.000000e+00
    outer loop
      vertex   2.703429e-02 3.115488e-02 8.000000e-03
      vertex   2.682354e-02 3.106245e-02 1.600000e-02
      vertex   2.682354e-02 3.106245e-02 8.000000e-03
    endloop
  endfacet
  facet normal -6.411479e-01 -7.674173e-01 -0.000000e+00
    outer loop
      vertex   2.893886e-02 3.075017e-02 1.600000e-02
      vertex   2.867010e-02 3.097471e-02 1.600000e-02
      vertex   2.893886e-02 3.075017e-02 8.000000e-03
    endloop
  endfacet
  facet normal -6.411479e-01 -7.674173e-01 0.000000e+00
    outer loop
      vertex   2.893886e-02 3.075017e-02 8.000000e-03
      vertex   2.867010e-02 3.097471e-02 1.600000e-02
      vertex   2.867010e-02 3.097471e-02 8.000000e-03
    endloop
  endfacet
  facet normal -5.130946e-01 -8.583321e-01 0.000000e+00
    outer loop
      vertex   2.867010e-02 3.097471e-02 8.000000e-03
      vertex   2.867010e-02 3.097471e-02 1.600000e-02
      vertex   2.837949e-02 3.114843e-02 1.600000e-02
    endloop
  endfacet
  facet normal -5.130946e-01 -8.583321e-01 0.000000e+00
    outer loop
      vertex   2.867010e-02 3.097471e-02 8.000000e-03
      vertex   2.837949e-02 3.114843e-02 1.600000e-02
      vertex   2.837949e-02 3.114843e-02 8.000000e-03
    endloop
  endfacet
  facet normal -2.649914e-01 -9.642508e-01 0.000000e+00
    outer loop
      vertex   2.837949e-02 3.114843e-02 8.000000e-03
      vertex   2.837949e-02 3.114843e-02 1.600000e-02
      vertex   2.805278e-02 3.123821e-02 1.600000e-02
    endloop
  endfacet
  facet normal -2.649914e-01 -9.642508e-01 0.000000e+00
    outer loop
      vertex   2.837949e-02 3.114843e-02 8.000000e-03
      vertex   2.805278e-02 3.123821e-02 1.600000e-02
      vertex   2.805278e-02 3.123821e-02 8.000000e-03
    endloop
  endfacet
  facet normal -1.137289e-01 -9.935118e-01 0.000000e+00
    outer loop
      vertex   2.805278e-02 3.123821e-02 8.000000e-03
      vertex   2.805278e-02 3.123821e-02 1.600000e-02
      vertex   2.770461e-02 3.127807e-02 1.600000e-02
    endloop
  endfacet
  facet normal -1.137289e-01 -9.935118e-01 0.000000e+00
    outer loop
      vertex   2.805278e-02 3.123821e-02 8.000000e-03
      vertex   2.770461e-02 3.127807e-02 1.600000e-02
      vertex   2.770461e-02 3.127807e-02 8.000000e-03
    endloop
  endfacet
  facet normal -9.976253e-01 -6.887492e-02 -0.000000e+00
    outer loop
      vertex   2.942958e-02 2.928544e-02 1.600000e-02
      vertex   2.940200e-02 2.968497e-02 1.600000e-02
      vertex   2.942958e-02 2.928544e-02 8.000000e-03
    endloop
  endfacet
  facet normal -9.976253e-01 -6.887492e-02 0.000000e+00
    outer loop
      vertex   2.942958e-02 2.928544e-02 8.000000e-03
      vertex   2.940200e-02 2.968497e-02 1.600000e-02
      vertex   2.940200e-02 2.968497e-02 8.000000e-03
    endloop
  endfacet
  facet normal -9.803299e-01 -1.973659e-01 0.000000e+00
    outer loop
      vertex   2.940200e-02 2.968497e-02 8.000000e-03
      vertex   2.940200e-02 2.968497e-02 1.600000e-02
      vertex   2.932505e-02 3.006719e-02 1.600000e-02
    endloop
  endfacet
  facet normal -9.803299e-01 -1.973659e-01 0.000000e+00
    outer loop
      vertex   2.940200e-02 2.968497e-02 8.000000e-03
      vertex   2.932505e-02 3.006719e-02 1.600000e-02
      vertex   2.932505e-02 3.006719e-02 8.000000e-03
    endloop
  endfacet
  facet normal -9.056300e-01 -4.240687e-01 0.000000e+00
    outer loop
      vertex   2.932505e-02 3.006719e-02 8.000000e-03
      vertex   2.932505e-02 3.006719e-02 1.600000e-02
      vertex   2.916046e-02 3.041868e-02 1.600000e-02
    endloop
  endfacet
  facet normal -9.056300e-01 -4.240687e-01 0.000000e+00
    outer loop
      vertex   2.932505e-02 3.006719e-02 8.000000e-03
      vertex   2.916046e-02 3.041868e-02 1.600000e-02
      vertex   2.916046e-02 3.041868e-02 8.000000e-03
    endloop
  endfacet
  facet normal -8.313482e-01 -5.557519e-01 0.000000e+00
    outer loop
      vertex   2.916046e-02 3.041868e-02 8.000000e-03
      vertex   2.916046e-02 3.041868e-02 1.600000e-02
      vertex   2.893886e-02 3.075017e-02 1.600000e-02
    endloop
  endfacet
  facet normal -8.313482e-01 -5.557519e-01 0.000000e+00
    outer loop
      vertex   2.916046e-02 3.041868e-02 8.000000e-03
      vertex   2.893886e-02 3.075017e-02 1.600000e-02
      vertex   2.893886e-02 3.075017e-02 8.000000e-03
    endloop
  endfacet
  facet normal -8.553253e-01 5.180913e-01 0.000000e+00
    outer loop
      vertex   2.843326e-02 2.616266e-02 1.600000e-02
      vertex   2.886920e-02 2.688234e-02 1.600000e-02
      vertex   2.843326e-02 2.616266e-02 8.000000e-03
    endloop
  endfacet
  facet normal -8.553253e-01 5.180913e-01 0.000000e+00
    outer loop
      vertex   2.843326e-02 2.616266e-02 8.000000e-03
      vertex   2.886920e-02 2.688234e-02 1.600000e-02
      vertex   2.886920e-02 2.688234e-02 8.000000e-03
    endloop
  endfacet
  facet normal -8.945342e-01 4.469994e-01 0.000000e+00
    outer loop
      vertex   2.886920e-02 2.688234e-02 8.000000e-03
      vertex   2.886920e-02 2.688234e-02 1.600000e-02
      vertex   2.905436e-02 2.725290e-02 1.600000e-02
    endloop
  endfacet
  facet normal -8.945342e-01 4.469994e-01 0.000000e+00
    outer loop
      vertex   2.886920e-02 2.688234e-02 8.000000e-03
      vertex   2.905436e-02 2.725290e-02 1.600000e-02
      vertex   2.905436e-02 2.725290e-02 8.000000e-03
    endloop
  endfacet
  facet normal -9.346787e-01 3.554937e-01 0.000000e+00
    outer loop
      vertex   2.905436e-02 2.725290e-02 8.000000e-03
      vertex   2.905436e-02 2.725290e-02 1.600000e-02
      vertex   2.920018e-02 2.763630e-02 1.600000e-02
    endloop
  endfacet
  facet normal -9.346787e-01 3.554937e-01 0.000000e+00
    outer loop
      vertex   2.905436e-02 2.725290e-02 8.000000e-03
      vertex   2.920018e-02 2.763630e-02 1.600000e-02
      vertex   2.920018e-02 2.763630e-02 8.000000e-03
    endloop
  endfacet
  facet normal -9.700216e-01 2.430187e-01 0.000000e+00
    outer loop
      vertex   2.920018e-02 2.763630e-02 8.000000e-03
      vertex   2.920018e-02 2.763630e-02 1.600000e-02
      vertex   2.930000e-02 2.803472e-02 1.600000e-02
    endloop
  endfacet
  facet normal -9.700216e-01 2.430187e-01 0.000000e+00
    outer loop
      vertex   2.920018e-02 2.763630e-02 8.000000e-03
      vertex   2.930000e-02 2.803472e-02 1.600000e-02
      vertex   2.930000e-02 2.803472e-02 8.000000e-03
    endloop
  endfacet
  facet normal -9.882656e-01 1.527452e-01 0.000000e+00
    outer loop
      vertex   2.930000e-02 2.803472e-02 8.000000e-03
      vertex   2.930000e-02 2.803472e-02 1.600000e-02
      vertex   2.936341e-02 2.844502e-02 1.600000e-02
    endloop
  endfacet
  facet normal -9.882656e-01 1.527452e-01 0.000000e+00
    outer loop
      vertex   2.930000e-02 2.803472e-02 8.000000e-03
      vertex   2.936341e-02 2.844502e-02 1.600000e-02
      vertex   2.936341e-02 2.844502e-02 8.000000e-03
    endloop
  endfacet
  facet normal -9.969151e-01 7.848738e-02 0.000000e+00
    outer loop
      vertex   2.936341e-02 2.844502e-02 8.000000e-03
      vertex   2.936341e-02 2.844502e-02 1.600000e-02
      vertex   2.942958e-02 2.928544e-02 1.600000e-02
    endloop
  endfacet
  facet normal -9.969151e-01 7.848738e-02 0.000000e+00
    outer loop
      vertex   2.936341e-02 2.844502e-02 8.000000e-03
      vertex   2.942958e-02 2.928544e-02 1.600000e-02
      vertex   2.942958e-02 2.928544e-02 8.000000e-03
    endloop
  endfacet
  facet normal -1.931877e-01 9.811618e-01 0.000000e+00
    outer loop
      vertex   2.677521e-02 2.521095e-02 1.600000e-02
      vertex   2.726712e-02 2.530780e-02 1.600000e-02
      vertex   2.677521e-02 2.521095e-02 8.000000e-03
    endloop
  endfacet
  facet normal -1.931877e-01 9.811618e-01 0.000000e+00
    outer loop
      vertex   2.677521e-02 2.521095e-02 8.000000e-03
      vertex   2.726712e-02 2.530780e-02 1.600000e-02
      vertex   2.726712e-02 2.530780e-02 8.000000e-03
    endloop
  endfacet
  facet normal -3.041201e-01 9.526337e-01 0.000000e+00
    outer loop
      vertex   2.726712e-02 2.530780e-02 8.000000e-03
      vertex   2.726712e-02 2.530780e-02 1.600000e-02
      vertex   2.749902e-02 2.538184e-02 1.600000e-02
    endloop
  endfacet
  facet normal -3.041201e-01 9.526337e-01 0.000000e+00
    outer loop
      vertex   2.726712e-02 2.530780e-02 8.000000e-03
      vertex   2.749902e-02 2.538184e-02 1.600000e-02
      vertex   2.749902e-02 2.538184e-02 8.000000e-03
    endloop
  endfacet
  facet normal -4.374985e-01 8.992191e-01 0.000000e+00
    outer loop
      vertex   2.749902e-02 2.538184e-02 8.000000e-03
      vertex   2.749902e-02 2.538184e-02 1.600000e-02
      vertex   2.771413e-02 2.548649e-02 1.600000e-02
    endloop
  endfacet
  facet normal -4.374985e-01 8.992191e-01 0.000000e+00
    outer loop
      vertex   2.749902e-02 2.538184e-02 8.000000e-03
      vertex   2.771413e-02 2.548649e-02 1.600000e-02
      vertex   2.771413e-02 2.548649e-02 8.000000e-03
    endloop
  endfacet
  facet normal -5.761716e-01 8.173288e-01 0.000000e+00
    outer loop
      vertex   2.771413e-02 2.548649e-02 8.000000e-03
      vertex   2.771413e-02 2.548649e-02 1.600000e-02
      vertex   2.791065e-02 2.562503e-02 1.600000e-02
    endloop
  endfacet
  facet normal -5.761716e-01 8.173288e-01 0.000000e+00
    outer loop
      vertex   2.771413e-02 2.548649e-02 8.000000e-03
      vertex   2.791065e-02 2.562503e-02 1.600000e-02
      vertex   2.791065e-02 2.562503e-02 8.000000e-03
    endloop
  endfacet
  facet normal -6.705969e-01 7.418220e-01 0.000000e+00
    outer loop
      vertex   2.791065e-02 2.562503e-02 8.000000e-03
      vertex   2.791065e-02 2.562503e-02 1.600000e-02
      vertex   2.809282e-02 2.578971e-02 1.600000e-02
    endloop
  endfacet
  facet normal -6.705969e-01 7.418220e-01 0.000000e+00
    outer loop
      vertex   2.791065e-02 2.562503e-02 8.000000e-03
      vertex   2.809282e-02 2.578971e-02 1.600000e-02
      vertex   2.809282e-02 2.578971e-02 8.000000e-03
    endloop
  endfacet
  facet normal -7.385599e-01 6.741879e-01 0.000000e+00
    outer loop
      vertex   2.809282e-02 2.578971e-02 8.000000e-03
      vertex   2.809282e-02 2.578971e-02 1.600000e-02
      vertex   2.843326e-02 2.616266e-02 1.600000e-02
    endloop
  endfacet
  facet normal -7.385599e-01 6.741879e-01 0.000000e+00
    outer loop
      vertex   2.809282e-02 2.578971e-02 8.000000e-03
      vertex   2.843326e-02 2.616266e-02 1.600000e-02
      vertex   2.843326e-02 2.616266e-02 8.000000e-03
    endloop
  endfacet
  facet normal 5.322973e-01 8.465575e-01 0.000000e+00
    outer loop
      vertex   2.583094e-02 2.552695e-02 1.600000e-02
      vertex   2.604760e-02 2.539072e-02 1.600000e-02
      vertex   2.583094e-02 2.552695e-02 8.000000e-03
    endloop
  endfacet
  facet normal 5.322973e-01 8.465575e-01 0.000000e+00
    outer loop
      vertex   2.583094e-02 2.552695e-02 8.000000e-03
      vertex   2.604760e-02 2.539072e-02 1.600000e-02
      vertex   2.604760e-02 2.539072e-02 8.000000e-03
    endloop
  endfacet
  facet normal 4.174200e-01 9.087137e-01 -0.000000e+00
    outer loop
      vertex   2.604760e-02 2.539072e-02 8.000000e-03
      vertex   2.604760e-02 2.539072e-02 1.600000e-02
      vertex   2.627503e-02 2.528625e-02 1.600000e-02
    endloop
  endfacet
  facet normal 4.174200e-01 9.087137e-01 0.000000e+00
    outer loop
      vertex   2.604760e-02 2.539072e-02 8.000000e-03
      vertex   2.627503e-02 2.528625e-02 1.600000e-02
      vertex   2.627503e-02 2.528625e-02 8.000000e-03
    endloop
  endfacet
  facet normal 2.107396e-01 9.775422e-01 -0.000000e+00
    outer loop
      vertex   2.627503e-02 2.528625e-02 8.000000e-03
      vertex   2.627503e-02 2.528625e-02 1.600000e-02
      vertex   2.651998e-02 2.523344e-02 1.600000e-02
    endloop
  endfacet
  facet normal 2.107396e-01 9.775422e-01 0.000000e+00
    outer loop
      vertex   2.627503e-02 2.528625e-02 8.000000e-03
      vertex   2.651998e-02 2.523344e-02 1.600000e-02
      vertex   2.651998e-02 2.523344e-02 8.000000e-03
    endloop
  endfacet
  facet normal 8.778314e-02 9.961396e-01 -0.000000e+00
    outer loop
      vertex   2.651998e-02 2.523344e-02 8.000000e-03
      vertex   2.651998e-02 2.523344e-02 1.600000e-02
      vertex   2.677521e-02 2.521095e-02 1.600000e-02
    endloop
  endfacet
  facet normal 8.778314e-02 9.961396e-01 0.000000e+00
    outer loop
      vertex   2.651998e-02 2.523344e-02 8.000000e-03
      vertex   2.677521e-02 2.521095e-02 1.600000e-02
      vertex   2.677521e-02 2.521095e-02 8.000000e-03
    endloop
  endfacet
  facet normal 9.143257e-01 4.049796e-01 0.000000e+00
    outer loop
      vertex   2.527330e-02 2.631879e-02 1.600000e-02
      vertex   2.537328e-02 2.609307e-02 1.600000e-02
      vertex   2.527330e-02 2.631879e-02 8.000000e-03
    endloop
  endfacet
  facet normal 9.143257e-01 4.049796e-01 0.000000e+00
    outer loop
      vertex   2.527330e-02 2.631879e-02 8.000000e-03
      vertex   2.537328e-02 2.609307e-02 1.600000e-02
      vertex   2.537328e-02 2.609307e-02 8.000000e-03
    endloop
  endfacet
  facet normal 8.661494e-01 4.997851e-01 -0.000000e+00
    outer loop
      vertex   2.537328e-02 2.609307e-02 8.000000e-03
      vertex   2.537328e-02 2.609307e-02 1.600000e-02
      vertex   2.549478e-02 2.588250e-02 1.600000e-02
    endloop
  endfacet
  facet normal 8.661494e-01 4.997851e-01 0.000000e+00
    outer loop
      vertex   2.537328e-02 2.609307e-02 8.000000e-03
      vertex   2.549478e-02 2.588250e-02 1.600000e-02
      vertex   2.549478e-02 2.588250e-02 8.000000e-03
    endloop
  endfacet
  facet normal 7.623438e-01 6.471722e-01 -0.000000e+00
    outer loop
      vertex   2.549478e-02 2.588250e-02 8.000000e-03
      vertex   2.549478e-02 2.588250e-02 1.600000e-02
      vertex   2.565212e-02 2.569716e-02 1.600000e-02
    endloop
  endfacet
  facet normal 7.623438e-01 6.471722e-01 0.000000e+00
    outer loop
      vertex   2.549478e-02 2.588250e-02 8.000000e-03
      vertex   2.565212e-02 2.569716e-02 1.600000e-02
      vertex   2.565212e-02 2.569716e-02 8.000000e-03
    endloop
  endfacet
  facet normal 6.894701e-01 7.243141e-01 -0.000000e+00
    outer loop
      vertex   2.565212e-02 2.569716e-02 8.000000e-03
      vertex   2.565212e-02 2.569716e-02 1.600000e-02
      vertex   2.583094e-02 2.552695e-02 1.600000e-02
    endloop
  endfacet
  facet normal 6.894701e-01 7.243141e-01 0.000000e+00
    outer loop
      vertex   2.565212e-02 2.569716e-02 8.000000e-03
      vertex   2.583094e-02 2.552695e-02 1.600000e-02
      vertex   2.583094e-02 2.552695e-02 8.000000e-03
    endloop
  endfacet
  facet normal 9.998044e-01 1.977880e-02 0.000000e+00
    outer loop
      vertex   2.510973e-02 2.761995e-02 1.600000e-02
      vertex   2.511626e-02 2.729000e-02 1.600000e-02
      vertex   2.510973e-02 2.761995e-02 8.000000e-03
    endloop
  endfacet
  facet normal 9.998044e-01 1.977880e-02 0.000000e+00
    outer loop
      vertex   2.510973e-02 2.761995e-02 8.000000e-03
      vertex   2.511626e-02 2.729000e-02 1.600000e-02
      vertex   2.511626e-02 2.729000e-02 8.000000e-03
    endloop
  endfacet
  facet normal 9.973684e-01 7.249976e-02 -0.000000e+00
    outer loop
      vertex   2.511626e-02 2.729000e-02 8.000000e-03
      vertex   2.511626e-02 2.729000e-02 1.600000e-02
      vertex   2.514007e-02 2.696239e-02 1.600000e-02
    endloop
  endfacet
  facet normal 9.973684e-01 7.249976e-02 0.000000e+00
    outer loop
      vertex   2.511626e-02 2.729000e-02 8.000000e-03
      vertex   2.514007e-02 2.696239e-02 1.600000e-02
      vertex   2.514007e-02 2.696239e-02 8.000000e-03
    endloop
  endfacet
  facet normal 9.855401e-01 1.694421e-01 -0.000000e+00
    outer loop
      vertex   2.514007e-02 2.696239e-02 8.000000e-03
      vertex   2.514007e-02 2.696239e-02 1.600000e-02
      vertex   2.519565e-02 2.663909e-02 1.600000e-02
    endloop
  endfacet
  facet normal 9.855401e-01 1.694421e-01 0.000000e+00
    outer loop
      vertex   2.514007e-02 2.696239e-02 8.000000e-03
      vertex   2.519565e-02 2.663909e-02 1.600000e-02
      vertex   2.519565e-02 2.663909e-02 8.000000e-03
    endloop
  endfacet
  facet normal 9.718499e-01 2.356009e-01 -0.000000e+00
    outer loop
      vertex   2.519565e-02 2.663909e-02 8.000000e-03
      vertex   2.519565e-02 2.663909e-02 1.600000e-02
      vertex   2.527330e-02 2.631879e-02 1.600000e-02
    endloop
  endfacet
  facet normal 9.718499e-01 2.356009e-01 0.000000e+00
    outer loop
      vertex   2.519565e-02 2.663909e-02 8.000000e-03
      vertex   2.527330e-02 2.631879e-02 1.600000e-02
      vertex   2.527330e-02 2.631879e-02 8.000000e-03
    endloop
  endfacet
  facet normal 9.564148e-01 -2.920116e-01 0.000000e+00
    outer loop
      vertex   2.537740e-02 2.901777e-02 1.600000e-02
      vertex   2.527282e-02 2.867526e-02 1.600000e-02
      vertex   2.537740e-02 2.901777e-02 8.000000e-03
    endloop
  endfacet
  facet normal 9.564148e-01 -2.920116e-01 0.000000e+00
    outer loop
      vertex   2.537740e-02 2.901777e-02 8.000000e-03
      vertex   2.527282e-02 2.867526e-02 1.600000e-02
      vertex   2.527282e-02 2.867526e-02 8.000000e-03
    endloop
  endfacet
  facet normal 9.710299e-01 -2.389578e-01 0.000000e+00
    outer loop
      vertex   2.527282e-02 2.867526e-02 8.000000e-03
      vertex   2.527282e-02 2.867526e-02 1.600000e-02
      vertex   2.518766e-02 2.832918e-02 1.600000e-02
    endloop
  endfacet
  facet normal 9.710299e-01 -2.389578e-01 0.000000e+00
    outer loop
      vertex   2.527282e-02 2.867526e-02 8.000000e-03
      vertex   2.518766e-02 2.832918e-02 1.600000e-02
      vertex   2.518766e-02 2.832918e-02 8.000000e-03
    endloop
  endfacet
  facet normal 9.899222e-01 -1.416121e-01 0.000000e+00
    outer loop
      vertex   2.518766e-02 2.832918e-02 8.000000e-03
      vertex   2.518766e-02 2.832918e-02 1.600000e-02
      vertex   2.513723e-02 2.797668e-02 1.600000e-02
    endloop
  endfacet
  facet normal 9.899222e-01 -1.416121e-01 0.000000e+00
    outer loop
      vertex   2.518766e-02 2.832918e-02 8.000000e-03
      vertex   2.513723e-02 2.797668e-02 1.600000e-02
      vertex   2.513723e-02 2.797668e-02 8.000000e-03
    endloop
  endfacet
  facet normal 9.970416e-01 -7.686401e-02 0.000000e+00
    outer loop
      vertex   2.513723e-02 2.797668e-02 8.000000e-03
      vertex   2.513723e-02 2.797668e-02 1.600000e-02
      vertex   2.510973e-02 2.761995e-02 1.600000e-02
    endloop
  endfacet
  facet normal 9.970416e-01 -7.686401e-02 0.000000e+00
    outer loop
      vertex   2.513723e-02 2.797668e-02 8.000000e-03
      vertex   2.510973e-02 2.761995e-02 1.600000e-02
      vertex   2.510973e-02 2.761995e-02 8.000000e-03
    endloop
  endfacet
  facet normal -0.000000e+00 -1.000000e+00 -0.000000e+00
    outer loop
      vertex   2.980134e-02 2.431129e-02 1.600000e-02
      vertex   2.855966e-02 2.431129e-02 1.600000e-02
      vertex   2.980134e-02 2.431129e-02 8.000000e-03
    endloop
  endfacet
  facet normal 0.000000e+00 -1.000000e+00 0.000000e+00
    outer loop
      vertex   2.980134e-02 2.431129e-02 8.000000e-03
      vertex   2.855966e-02 2.431129e-02 1.600000e-02
      vertex   2.855966e-02 2.431129e-02 8.000000e-03
    endloop
  endfacet
  facet normal 9.789026e-01 -2.043276e-01 0.000000e+00
    outer loop
      vertex   3.207651e-02 3.521129e-02 1.600000e-02
      vertex   2.980134e-02 2.431129e-02 1.600000e-02
      vertex   3.207651e-02 3.521129e-02 8.000000e-03
    endloop
  endfacet
  facet normal 9.789026e-01 -2.043276e-01 0.000000e+00
    outer loop
      vertex   3.207651e-02 3.521129e-02 8.000000e-03
      vertex   2.980134e-02 2.431129e-02 1.600000e-02
      vertex   2.980134e-02 2.431129e-02 8.000000e-03
    endloop
  endfacet
  facet normal -0.000000e+00 1.000000e+00 0.000000e+00
    outer loop
      vertex   3.073817e-02 3.521129e-02 1.600000e-02
      vertex   3.207651e-02 3.521129e-02 1.600000e-02
      vertex   3.073817e-02 3.521129e-02 8.000000e-03
    endloop
  endfacet
  facet normal 0.000000e+00 1.000000e+00 0.000000e+00
    outer loop
      vertex   3.073817e-02 3.521129e-02 8.000000e-03
      vertex   3.207651e-02 3.521129e-02 1.600000e-02
      vertex   3.207651e-02 3.521129e-02 8.000000e-03
    endloop
  endfacet
  facet normal -9.786224e-01 2.056651e-01 0.000000e+00
    outer loop
      vertex   2.984595e-02 3.096579e-02 1.600000e-02
      vertex   3.073817e-02 3.521129e-02 1.600000e-02
      vertex   2.984595e-02 3.096579e-02 8.000000e-03
    endloop
  endfacet
  facet normal -9.786224e-01 2.056651e-01 0.000000e+00
    outer loop
      vertex   2.984595e-02 3.096579e-02 8.000000e-03
      vertex   3.073817e-02 3.521129e-02 1.600000e-02
      vertex   3.073817e-02 3.521129e-02 8.000000e-03
    endloop
  endfacet
  facet normal 1.717958e-01 9.851326e-01 0.000000e+00
    outer loop
      vertex   2.762283e-02 3.238591e-02 1.600000e-02
      vertex   2.832456e-02 3.226354e-02 1.600000e-02
      vertex   2.762283e-02 3.238591e-02 8.000000e-03
    endloop
  endfacet
  facet normal 1.717958e-01 9.851326e-01 0.000000e+00
    outer loop
      vertex   2.762283e-02 3.238591e-02 8.000000e-03
      vertex   2.832456e-02 3.226354e-02 1.600000e-02
      vertex   2.832456e-02 3.226354e-02 8.000000e-03
    endloop
  endfacet
  facet normal 2.981285e-01 9.545258e-01 -0.000000e+00
    outer loop
      vertex   2.832456e-02 3.226354e-02 8.000000e-03
      vertex   2.832456e-02 3.226354e-02 1.600000e-02
      vertex   2.865004e-02 3.216188e-02 1.600000e-02
    endloop
  endfacet
  facet normal 2.981285e-01 9.545258e-01 0.000000e+00
    outer loop
      vertex   2.832456e-02 3.226354e-02 8.000000e-03
      vertex   2.865004e-02 3.216188e-02 1.600000e-02
      vertex   2.865004e-02 3.216188e-02 8.000000e-03
    endloop
  endfacet
  facet normal 4.537404e-01 8.911339e-01 -0.000000e+00
    outer loop
      vertex   2.865004e-02 3.216188e-02 8.000000e-03
      vertex   2.865004e-02 3.216188e-02 1.600000e-02
      vertex   2.894505e-02 3.201167e-02 1.600000e-02
    endloop
  endfacet
  facet normal 4.537404e-01 8.911339e-01 0.000000e+00
    outer loop
      vertex   2.865004e-02 3.216188e-02 8.000000e-03
      vertex   2.894505e-02 3.201167e-02 1.600000e-02
      vertex   2.894505e-02 3.201167e-02 8.000000e-03
    endloop
  endfacet
  facet normal 6.259990e-01 7.798238e-01 -0.000000e+00
    outer loop
      vertex   2.894505e-02 3.201167e-02 8.000000e-03
      vertex   2.894505e-02 3.201167e-02 1.600000e-02
      vertex   2.920393e-02 3.180385e-02 1.600000e-02
    endloop
  endfacet
  facet normal 6.259990e-01 7.798238e-01 0.000000e+00
    outer loop
      vertex   2.894505e-02 3.201167e-02 8.000000e-03
      vertex   2.920393e-02 3.180385e-02 1.600000e-02
      vertex   2.920393e-02 3.180385e-02 8.000000e-03
    endloop
  endfacet
  facet normal 7.409546e-01 6.715551e-01 -0.000000e+00
    outer loop
      vertex   2.920393e-02 3.180385e-02 8.000000e-03
      vertex   2.920393e-02 3.180385e-02 1.600000e-02
      vertex   2.943397e-02 3.155005e-02 1.600000e-02
    endloop
  endfacet
  facet normal 7.409546e-01 6.715551e-01 0.000000e+00
    outer loop
      vertex   2.920393e-02 3.180385e-02 8.000000e-03
      vertex   2.943397e-02 3.155005e-02 1.600000e-02
      vertex   2.943397e-02 3.155005e-02 8.000000e-03
    endloop
  endfacet
  facet normal 8.172535e-01 5.762783e-01 -0.000000e+00
    outer loop
      vertex   2.943397e-02 3.155005e-02 8.000000e-03
      vertex   2.943397e-02 3.155005e-02 1.600000e-02
      vertex   2.984595e-02 3.096579e-02 1.600000e-02
    endloop
  endfacet
  facet normal 8.172535e-01 5.762783e-01 0.000000e+00
    outer loop
      vertex   2.943397e-02 3.155005e-02 8.000000e-03
      vertex   2.984595e-02 3.096579e-02 1.600000e-02
      vertex   2.984595e-02 3.096579e-02 8.000000e-03
    endloop
  endfacet
  facet normal -5.003771e-01 8.658076e-01 0.000000e+00
    outer loop
      vertex   2.584210e-02 3.179110e-02 1.600000e-02
      vertex   2.625750e-02 3.203117e-02 1.600000e-02
      vertex   2.584210e-02 3.179110e-02 8.000000e-03
    endloop
  endfacet
  facet normal -5.003771e-01 8.658076e-01 0.000000e+00
    outer loop
      vertex   2.584210e-02 3.179110e-02 8.000000e-03
      vertex   2.625750e-02 3.203117e-02 1.600000e-02
      vertex   2.625750e-02 3.203117e-02 8.000000e-03
    endloop
  endfacet
  facet normal -4.066315e-01 9.135923e-01 0.000000e+00
    outer loop
      vertex   2.625750e-02 3.203117e-02 8.000000e-03
      vertex   2.625750e-02 3.203117e-02 1.600000e-02
      vertex   2.668860e-02 3.222305e-02 1.600000e-02
    endloop
  endfacet
  facet normal -4.066315e-01 9.135923e-01 0.000000e+00
    outer loop
      vertex   2.625750e-02 3.203117e-02 8.000000e-03
      vertex   2.668860e-02 3.222305e-02 1.600000e-02
      vertex   2.668860e-02 3.222305e-02 8.000000e-03
    endloop
  endfacet
  facet normal -2.292052e-01 9.733781e-01 0.000000e+00
    outer loop
      vertex   2.668860e-02 3.222305e-02 8.000000e-03
      vertex   2.668860e-02 3.222305e-02 1.600000e-02
      vertex   2.714707e-02 3.233101e-02 1.600000e-02
    endloop
  endfacet
  facet normal -2.292052e-01 9.733781e-01 0.000000e+00
    outer loop
      vertex   2.668860e-02 3.222305e-02 8.000000e-03
      vertex   2.714707e-02 3.233101e-02 1.600000e-02
      vertex   2.714707e-02 3.233101e-02 8.000000e-03
    endloop
  endfacet
  facet normal -1.146458e-01 9.934064e-01 0.000000e+00
    outer loop
      vertex   2.714707e-02 3.233101e-02 8.000000e-03
      vertex   2.714707e-02 3.233101e-02 1.600000e-02
      vertex   2.762283e-02 3.238591e-02 1.600000e-02
    endloop
  endfacet
  facet normal -1.146458e-01 9.934064e-01 0.000000e+00
    outer loop
      vertex   2.714707e-02 3.233101e-02 8.000000e-03
      vertex   2.762283e-02 3.238591e-02 1.600000e-02
      vertex   2.762283e-02 3.238591e-02 8.000000e-03
    endloop
  endfacet
  facet normal -8.704172e-01 4.923148e-01 0.000000e+00
    outer loop
      vertex   2.436249e-02 3.000293e-02 1.600000e-02
      vertex   2.465305e-02 3.051665e-02 1.600000e-02
      vertex   2.436249e-02 3.000293e-02 8.000000e-03
    endloop
  endfacet
  facet normal -8.704172e-01 4.923148e-01 0.000000e+00
    outer loop
      vertex   2.436249e-02 3.000293e-02 8.000000e-03
      vertex   2.465305e-02 3.051665e-02 1.600000e-02
      vertex   2.465305e-02 3.051665e-02 8.000000e-03
    endloop
  endfacet
  facet normal -8.216339e-01 5.700155e-01 0.000000e+00
    outer loop
      vertex   2.465305e-02 3.051665e-02 8.000000e-03
      vertex   2.465305e-02 3.051665e-02 1.600000e-02
      vertex   2.498520e-02 3.099541e-02 1.600000e-02
    endloop
  endfacet
  facet normal -8.216339e-01 5.700155e-01 0.000000e+00
    outer loop
      vertex   2.465305e-02 3.051665e-02 8.000000e-03
      vertex   2.498520e-02 3.099541e-02 1.600000e-02
      vertex   2.498520e-02 3.099541e-02 8.000000e-03
    endloop
  endfacet
  facet normal -7.176092e-01 6.964460e-01 0.000000e+00
    outer loop
      vertex   2.498520e-02 3.099541e-02 8.000000e-03
      vertex   2.498520e-02 3.099541e-02 1.600000e-02
      vertex   2.539033e-02 3.141285e-02 1.600000e-02
    endloop
  endfacet
  facet normal -7.176092e-01 6.964460e-01 0.000000e+00
    outer loop
      vertex   2.498520e-02 3.099541e-02 8.000000e-03
      vertex   2.539033e-02 3.141285e-02 1.600000e-02
      vertex   2.539033e-02 3.141285e-02 8.000000e-03
    endloop
  endfacet
  facet normal -6.419591e-01 7.667389e-01 0.000000e+00
    outer loop
      vertex   2.539033e-02 3.141285e-02 8.000000e-03
      vertex   2.539033e-02 3.141285e-02 1.600000e-02
      vertex   2.584210e-02 3.179110e-02 1.600000e-02
    endloop
  endfacet
  facet normal -6.419591e-01 7.667389e-01 0.000000e+00
    outer loop
      vertex   2.539033e-02 3.141285e-02 8.000000e-03
      vertex   2.584210e-02 3.179110e-02 1.600000e-02
      vertex   2.584210e-02 3.179110e-02 8.000000e-03
    endloop
  endfacet
  facet normal -9.980668e-01 6.215022e-02 0.000000e+00
    outer loop
      vertex   2.377139e-02 2.736716e-02 1.600000e-02
      vertex   2.381391e-02 2.804997e-02 1.600000e-02
      vertex   2.377139e-02 2.736716e-02 8.000000e-03
    endloop
  endfacet
  facet normal -9.980668e-01 6.215022e-02 0.000000e+00
    outer loop
      vertex   2.377139e-02 2.736716e-02 8.000000e-03
      vertex   2.381391e-02 2.804997e-02 1.600000e-02
      vertex   2.381391e-02 2.804997e-02 8.000000e-03
    endloop
  endfacet
  facet normal -9.892401e-01 1.463011e-01 0.000000e+00
    outer loop
      vertex   2.381391e-02 2.804997e-02 8.000000e-03
      vertex   2.381391e-02 2.804997e-02 1.600000e-02
      vertex   2.391300e-02 2.871996e-02 1.600000e-02
    endloop
  endfacet
  facet normal -9.892401e-01 1.463011e-01 0.000000e+00
    outer loop
      vertex   2.381391e-02 2.804997e-02 8.000000e-03
      vertex   2.391300e-02 2.871996e-02 1.600000e-02
      vertex   2.391300e-02 2.871996e-02 8.000000e-03
    endloop
  endfacet
  facet normal -9.574954e-01 2.884486e-01 0.000000e+00
    outer loop
      vertex   2.391300e-02 2.871996e-02 8.000000e-03
      vertex   2.391300e-02 2.871996e-02 1.600000e-02
      vertex   2.410826e-02 2.936813e-02 1.600000e-02
    endloop
  endfacet
  facet normal -9.574954e-01 2.884486e-01 0.000000e+00
    outer loop
      vertex   2.391300e-02 2.871996e-02 8.000000e-03
      vertex   2.410826e-02 2.936813e-02 1.600000e-02
      vertex   2.410826e-02 2.936813e-02 8.000000e-03
    endloop
  endfacet
  facet normal -9.283212e-01 3.717793e-01 0.000000e+00
    outer loop
      vertex   2.410826e-02 2.936813e-02 8.000000e-03
      vertex   2.410826e-02 2.936813e-02 1.600000e-02
      vertex   2.436249e-02 3.000293e-02 1.600000e-02
    endloop
  endfacet
  facet normal -9.283212e-01 3.717793e-01 0.000000e+00
    outer loop
      vertex   2.410826e-02 2.936813e-02 8.000000e-03
      vertex   2.436249e-02 3.000293e-02 1.600000e-02
      vertex   2.436249e-02 3.000293e-02 8.000000e-03
    endloop
  endfacet
  facet normal -8.470055e-01 -5.315842e-01 -0.000000e+00
    outer loop
      vertex   2.451863e-02 2.496187e-02 1.600000e-02
      vertex   2.417395e-02 2.551107e-02 1.600000e-02
      vertex   2.451863e-02 2.496187e-02 8.000000e-03
    endloop
  endfacet
  facet normal -8.470055e-01 -5.315842e-01 0.000000e+00
    outer loop
      vertex   2.451863e-02 2.496187e-02 8.000000e-03
      vertex   2.417395e-02 2.551107e-02 1.600000e-02
      vertex   2.417395e-02 2.551107e-02 8.000000e-03
    endloop
  endfacet
  facet normal -8.928375e-01 -4.503789e-01 0.000000e+00
    outer loop
      vertex   2.417395e-02 2.551107e-02 8.000000e-03
      vertex   2.417395e-02 2.551107e-02 1.600000e-02
      vertex   2.403061e-02 2.579524e-02 1.600000e-02
    endloop
  endfacet
  facet normal -8.928375e-01 -4.503789e-01 0.000000e+00
    outer loop
      vertex   2.417395e-02 2.551107e-02 8.000000e-03
      vertex   2.403061e-02 2.579524e-02 1.600000e-02
      vertex   2.403061e-02 2.579524e-02 8.000000e-03
    endloop
  endfacet
  facet normal -9.385073e-01 -3.452594e-01 0.000000e+00
    outer loop
      vertex   2.403061e-02 2.579524e-02 8.000000e-03
      vertex   2.403061e-02 2.579524e-02 1.600000e-02
      vertex   2.392186e-02 2.609084e-02 1.600000e-02
    endloop
  endfacet
  facet normal -9.385073e-01 -3.452594e-01 0.000000e+00
    outer loop
      vertex   2.403061e-02 2.579524e-02 8.000000e-03
      vertex   2.392186e-02 2.609084e-02 1.600000e-02
      vertex   2.392186e-02 2.609084e-02 8.000000e-03
    endloop
  endfacet
  facet normal -9.742989e-01 -2.252590e-01 0.000000e+00
    outer loop
      vertex   2.392186e-02 2.609084e-02 8.000000e-03
      vertex   2.392186e-02 2.609084e-02 1.600000e-02
      vertex   2.385065e-02 2.639883e-02 1.600000e-02
    endloop
  endfacet
  facet normal -9.742989e-01 -2.252590e-01 0.000000e+00
    outer loop
      vertex   2.392186e-02 2.609084e-02 8.000000e-03
      vertex   2.385065e-02 2.639883e-02 1.600000e-02
      vertex   2.385065e-02 2.639883e-02 8.000000e-03
    endloop
  endfacet
  facet normal -9.911939e-01 -1.324183e-01 0.000000e+00
    outer loop
      vertex   2.385065e-02 2.639883e-02 8.000000e-03
      vertex   2.385065e-02 2.639883e-02 1.600000e-02
      vertex   2.380824e-02 2.671632e-02 1.600000e-02
    endloop
  endfacet
  facet normal -9.911939e-01 -1.324183e-01 0.000000e+00
    outer loop
      vertex   2.385065e-02 2.639883e-02 8.000000e-03
      vertex   2.380824e-02 2.671632e-02 1.600000e-02
      vertex   2.380824e-02 2.671632e-02 8.000000e-03
    endloop
  endfacet
  facet normal -9.984014e-01 -5.652161e-02 0.000000e+00
    outer loop
      vertex   2.380824e-02 2.671632e-02 8.000000e-03
      vertex   2.380824e-02 2.671632e-02 1.600000e-02
      vertex   2.377139e-02 2.736716e-02 1.600000e-02
    endloop
  endfacet
  facet normal -9.984014e-01 -5.652161e-02 0.000000e+00
    outer loop
      vertex   2.380824e-02 2.671632e-02 8.000000e-03
      vertex   2.377139e-02 2.736716e-02 1.600000e-02
      vertex   2.377139e-02 2.736716e-02 8.000000e-03
    endloop
  endfacet
  facet normal -1.203316e-01 -9.927338e-01 -0.000000e+00
    outer loop
      vertex   2.638858e-02 2.413285e-02 1.600000e-02
      vertex   2.585768e-02 2.419720e-02 1.600000e-02
      vertex   2.638858e-02 2.413285e-02 8.000000e-03
    endloop
  endfacet
  facet normal -1.203316e-01 -9.927338e-01 0.000000e+00
    outer loop
      vertex   2.638858e-02 2.413285e-02 8.000000e-03
      vertex   2.585768e-02 2.419720e-02 1.600000e-02
      vertex   2.585768e-02 2.419720e-02 8.000000e-03
    endloop
  endfacet
  facet normal -2.166184e-01 -9.762563e-01 0.000000e+00
    outer loop
      vertex   2.585768e-02 2.419720e-02 8.000000e-03
      vertex   2.585768e-02 2.419720e-02 1.600000e-02
      vertex   2.560302e-02 2.425370e-02 1.600000e-02
    endloop
  endfacet
  facet normal -2.166184e-01 -9.762563e-01 0.000000e+00
    outer loop
      vertex   2.585768e-02 2.419720e-02 8.000000e-03
      vertex   2.560302e-02 2.425370e-02 1.600000e-02
      vertex   2.560302e-02 2.425370e-02 8.000000e-03
    endloop
  endfacet
  facet normal -3.341838e-01 -9.425079e-01 0.000000e+00
    outer loop
      vertex   2.560302e-02 2.425370e-02 8.000000e-03
      vertex   2.560302e-02 2.425370e-02 1.600000e-02
      vertex   2.536132e-02 2.433940e-02 1.600000e-02
    endloop
  endfacet
  facet normal -3.341838e-01 -9.425079e-01 0.000000e+00
    outer loop
      vertex   2.560302e-02 2.425370e-02 8.000000e-03
      vertex   2.536132e-02 2.433940e-02 1.600000e-02
      vertex   2.536132e-02 2.433940e-02 8.000000e-03
    endloop
  endfacet
  facet normal -4.736044e-01 -8.807377e-01 0.000000e+00
    outer loop
      vertex   2.536132e-02 2.433940e-02 8.000000e-03
      vertex   2.536132e-02 2.433940e-02 1.600000e-02
      vertex   2.513548e-02 2.446084e-02 1.600000e-02
    endloop
  endfacet
  facet normal -4.736044e-01 -8.807377e-01 0.000000e+00
    outer loop
      vertex   2.536132e-02 2.433940e-02 8.000000e-03
      vertex   2.513548e-02 2.446084e-02 1.600000e-02
      vertex   2.513548e-02 2.446084e-02 8.000000e-03
    endloop
  endfacet
  facet normal -5.779514e-01 -8.160712e-01 0.000000e+00
    outer loop
      vertex   2.513548e-02 2.446084e-02 8.000000e-03
      vertex   2.513548e-02 2.446084e-02 1.600000e-02
      vertex   2.492264e-02 2.461158e-02 1.600000e-02
    endloop
  endfacet
  facet normal -5.779514e-01 -8.160712e-01 0.000000e+00
    outer loop
      vertex   2.513548e-02 2.446084e-02 8.000000e-03
      vertex   2.492264e-02 2.461158e-02 1.600000e-02
      vertex   2.492264e-02 2.461158e-02 8.000000e-03
    endloop
  endfacet
  facet normal -6.550902e-01 -7.555507e-01 0.000000e+00
    outer loop
      vertex   2.492264e-02 2.461158e-02 8.000000e-03
      vertex   2.492264e-02 2.461158e-02 1.600000e-02
      vertex   2.451863e-02 2.496187e-02 1.600000e-02
    endloop
  endfacet
  facet normal -6.550902e-01 -7.555507e-01 0.000000e+00
    outer loop
      vertex   2.492264e-02 2.461158e-02 8.000000e-03
      vertex   2.451863e-02 2.496187e-02 1.600000e-02
      vertex   2.451863e-02 2.496187e-02 8.000000e-03
    endloop
  endfacet
  facet normal 7.101007e-01 -7.041001e-01 0.000000e+00
    outer loop
      vertex   2.879759e-02 2.545631e-02 1.600000e-02
      vertex   2.828993e-02 2.494433e-02 1.600000e-02
      vertex   2.879759e-02 2.545631e-02 8.000000e-03
    endloop
  endfacet
  facet normal 7.101007e-01 -7.041001e-01 0.000000e+00
    outer loop
      vertex   2.879759e-02 2.545631e-02 8.000000e-03
      vertex   2.828993e-02 2.494433e-02 1.600000e-02
      vertex   2.828993e-02 2.494433e-02 8.000000e-03
    endloop
  endfacet
  facet normal 6.450124e-01 -7.641721e-01 0.000000e+00
    outer loop
      vertex   2.828993e-02 2.494433e-02 8.000000e-03
      vertex   2.828993e-02 2.494433e-02 1.600000e-02
      vertex   2.802097e-02 2.471731e-02 1.600000e-02
    endloop
  endfacet
  facet normal 6.450124e-01 -7.641721e-01 0.000000e+00
    outer loop
      vertex   2.828993e-02 2.494433e-02 8.000000e-03
      vertex   2.802097e-02 2.471731e-02 1.600000e-02
      vertex   2.802097e-02 2.471731e-02 8.000000e-03
    endloop
  endfacet
  facet normal 5.563874e-01 -8.309230e-01 0.000000e+00
    outer loop
      vertex   2.802097e-02 2.471731e-02 8.000000e-03
      vertex   2.802097e-02 2.471731e-02 1.600000e-02
      vertex   2.773386e-02 2.452505e-02 1.600000e-02
    endloop
  endfacet
  facet normal 5.563874e-01 -8.309230e-01 0.000000e+00
    outer loop
      vertex   2.802097e-02 2.471731e-02 8.000000e-03
      vertex   2.773386e-02 2.452505e-02 1.600000e-02
      vertex   2.773386e-02 2.452505e-02 8.000000e-03
    endloop
  endfacet
  facet normal 4.273858e-01 -9.040693e-01 0.000000e+00
    outer loop
      vertex   2.773386e-02 2.452505e-02 8.000000e-03
      vertex   2.773386e-02 2.452505e-02 1.600000e-02
      vertex   2.742306e-02 2.437813e-02 1.600000e-02
    endloop
  endfacet
  facet normal 4.273858e-01 -9.040693e-01 0.000000e+00
    outer loop
      vertex   2.773386e-02 2.452505e-02 8.000000e-03
      vertex   2.742306e-02 2.437813e-02 1.600000e-02
      vertex   2.742306e-02 2.437813e-02 8.000000e-03
    endloop
  endfacet
  facet normal 3.013295e-01 -9.535201e-01 0.000000e+00
    outer loop
      vertex   2.742306e-02 2.437813e-02 8.000000e-03
      vertex   2.742306e-02 2.437813e-02 1.600000e-02
      vertex   2.709043e-02 2.427302e-02 1.600000e-02
    endloop
  endfacet
  facet normal 3.013295e-01 -9.535201e-01 0.000000e+00
    outer loop
      vertex   2.742306e-02 2.437813e-02 8.000000e-03
      vertex   2.709043e-02 2.427302e-02 1.600000e-02
      vertex   2.709043e-02 2.427302e-02 8.000000e-03
    endloop
  endfacet
  facet normal 1.958464e-01 -9.806346e-01 0.000000e+00
    outer loop
      vertex   2.709043e-02 2.427302e-02 8.000000e-03
      vertex   2.709043e-02 2.427302e-02 1.600000e-02
      vertex   2.638858e-02 2.413285e-02 1.600000e-02
    endloop
  endfacet
  facet normal 1.958464e-01 -9.806346e-01 0.000000e+00
    outer loop
      vertex   2.709043e-02 2.427302e-02 8.000000e-03
      vertex   2.638858e-02 2.413285e-02 1.600000e-02
      vertex   2.638858e-02 2.413285e-02 8.000000e-03
    endloop
  endfacet
  facet normal -9.790863e-01 2.034456e-01 0.000000e+00
    outer loop
      vertex   2.855966e-02 2.431129e-02 1.600000e-02
      vertex   2.879759e-02 2.545631e-02 1.600000e-02
      vertex   2.855966e-02 2.431129e-02 8.000000e-03
    endloop
  endfacet
  facet normal -9.790863e-01 2.034456e-01 0.000000e+00
    outer loop
      vertex   2.855966e-02 2.431129e-02 8.000000e-03
      vertex   2.879759e-02 2.545631e-02 1.600000e-02
      vertex   2.879759e-02 2.545631e-02 8.000000e-03
    endloop
  endfacet
  facet normal 0.000000e+00 0.000000e+00 1.000000e+00
    outer loop
      vertex   2.855966e-02 2.431129e-02 1.600000e-02
      vertex   2.980134e-02 2.431129e-02 1.600000e-02
      vertex   2.879759e-02 2.545631e-02 1.600000e-02
    endloop
  endfacet
  facet normal -0.000000e+00 0.000000e+00 1.000000e+00
    outer loop
      vertex   2.879759e-02 2.545631e-02 1.600000e-02
      vertex   2.980134e-02 2.431129e-02 1.600000e-02
      vertex   2.886920e-02 2.688234e-02 1.600000e-02
    endloop
  endfacet
  facet normal 0.000000e+00 -0.000000e+00 1.000000e+00
    outer loop
      vertex   2.879759e-02 2.545631e-02 1.600000e-02
      vertex   2.886920e-02 2.688234e-02 1.600000e-02
      vertex   2.843326e-02 2.616266e-02 1.600000e-02
    endloop
  endfacet
  facet normal 0.000000e+00 0.000000e+00 1.000000e+00
    outer loop
      vertex   3.207651e-02 3.521129e-02 1.600000e-02
      vertex   2.984595e-02 3.096579e-02 1.600000e-02
      vertex   2.980134e-02 2.431129e-02 1.600000e-02
    endloop
  endfacet
  facet normal 0.000000e+00 -0.000000e+00 1.000000e+00
    outer loop
      vertex   2.980134e-02 2.431129e-02 1.600000e-02
      vertex   2.984595e-02 3.096579e-02 1.600000e-02
      vertex   2.936341e-02 2.844502e-02 1.600000e-02
    endloop
  endfacet
  facet normal 0.000000e+00 0.000000e+00 1.000000e+00
    outer loop
      vertex   2.980134e-02 2.431129e-02 1.600000e-02
      vertex   2.936341e-02 2.844502e-02 1.600000e-02
      vertex   2.930000e-02 2.803472e-02 1.600000e-02
    endloop
  endfacet
  facet normal 0.000000e+00 0.000000e+00 1.000000e+00
    outer loop
      vertex   3.207651e-02 3.521129e-02 1.600000e-02
      vertex   3.073817e-02 3.521129e-02 1.600000e-02
      vertex   2.984595e-02 3.096579e-02 1.600000e-02
    endloop
  endfacet
  facet normal 0.000000e+00 0.000000e+00 1.000000e+00
    outer loop
      vertex   2.943397e-02 3.155005e-02 1.600000e-02
      vertex   2.916046e-02 3.041868e-02 1.600000e-02
      vertex   2.984595e-02 3.096579e-02 1.600000e-02
    endloop
  endfacet
  facet normal 0.000000e+00 0.000000e+00 1.000000e+00
    outer loop
      vertex   2.984595e-02 3.096579e-02 1.600000e-02
      vertex   2.916046e-02 3.041868e-02 1.600000e-02
      vertex   2.932505e-02 3.006719e-02 1.600000e-02
    endloop
  endfacet
  facet normal 0.000000e+00 0.000000e+00 1.000000e+00
    outer loop
      vertex   2.984595e-02 3.096579e-02 1.600000e-02
      vertex   2.932505e-02 3.006719e-02 1.600000e-02
      vertex   2.940200e-02 2.968497e-02 1.600000e-02
    endloop
  endfacet
  facet normal 0.000000e+00 -0.000000e+00 1.000000e+00
    outer loop
      vertex   2.916046e-02 3.041868e-02 1.600000e-02
      vertex   2.943397e-02 3.155005e-02 1.600000e-02
      vertex   2.893886e-02 3.075017e-02 1.600000e-02
    endloop
  endfacet
  facet normal 0.000000e+00 0.000000e+00 1.000000e+00
    outer loop
      vertex   2.893886e-02 3.075017e-02 1.600000e-02
      vertex   2.943397e-02 3.155005e-02 1.600000e-02
      vertex   2.920393e-02 3.180385e-02 1.600000e-02
    endloop
  endfacet
  facet normal 0.000000e+00 -0.000000e+00 1.000000e+00
    outer loop
      vertex   2.893886e-02 3.075017e-02 1.600000e-02
      vertex   2.920393e-02 3.180385e-02 1.600000e-02
      vertex   2.867010e-02 3.097471e-02 1.600000e-02
    endloop
  endfacet
  facet normal 0.000000e+00 0.000000e+00 1.000000e+00
    outer loop
      vertex   2.867010e-02 3.097471e-02 1.600000e-02
      vertex   2.920393e-02 3.180385e-02 1.600000e-02
      vertex   2.894505e-02 3.201167e-02 1.600000e-02
    endloop
  endfacet
  facet normal 0.000000e+00 -0.000000e+00 1.000000e+00
    outer loop
      vertex   2.867010e-02 3.097471e-02 1.600000e-02
      vertex   2.894505e-02 3.201167e-02 1.600000e-02
      vertex   2.837949e-02 3.114843e-02 1.600000e-02
    endloop
  endfacet
  facet normal 0.000000e+00 0.000000e+00 1.000000e+00
    outer loop
      vertex   2.837949e-02 3.114843e-02 1.600000e-02
      vertex   2.894505e-02 3.201167e-02 1.600000e-02
      vertex   2.865004e-02 3.216188e-02 1.600000e-02
    endloop
  endfacet
  facet normal 0.000000e+00 -0.000000e+00 1.000000e+00
    outer loop
      vertex   2.837949e-02 3.114843e-02 1.600000e-02
      vertex   2.865004e-02 3.216188e-02 1.600000e-02
      vertex   2.832456e-02 3.226354e-02 1.600000e-02
    endloop
  endfacet
  facet normal 0.000000e+00 0.000000e+00 1.000000e+00
    outer loop
      vertex   2.837949e-02 3.114843e-02 1.600000e-02
      vertex   2.832456e-02 3.226354e-02 1.600000e-02
      vertex   2.805278e-02 3.123821e-02 1.600000e-02
    endloop
  endfacet
  facet normal 0.000000e+00 -0.000000e+00 1.000000e+00
    outer loop
      vertex   2.805278e-02 3.123821e-02 1.600000e-02
      vertex   2.832456e-02 3.226354e-02 1.600000e-02
      vertex   2.762283e-02 3.238591e-02 1.600000e-02
    endloop
  endfacet
  facet normal 0.000000e+00 0.000000e+00 1.000000e+00
    outer loop
      vertex   2.805278e-02 3.123821e-02 1.600000e-02
      vertex   2.762283e-02 3.238591e-02 1.600000e-02
      vertex   2.770461e-02 3.127807e-02 1.600000e-02
    endloop
  endfacet
  facet normal 0.000000e+00 0.000000e+00 1.000000e+00
    outer loop
      vertex   2.770461e-02 3.127807e-02 1.600000e-02
      vertex   2.762283e-02 3.238591e-02 1.600000e-02
      vertex   2.747492e-02 3.126233e-02 1.600000e-02
    endloop
  endfacet
  facet normal 0.000000e+00 -0.000000e+00 1.000000e+00
    outer loop
      vertex   2.747492e-02 3.126233e-02 1.600000e-02
      vertex   2.762283e-02 3.238591e-02 1.600000e-02
      vertex   2.714707e-02 3.233101e-02 1.600000e-02
    endloop
  endfacet
  facet normal 0.000000e+00 0.000000e+00 1.000000e+00
    outer loop
      vertex   2.747492e-02 3.126233e-02 1.600000e-02
      vertex   2.714707e-02 3.233101e-02 1.600000e-02
      vertex   2.725030e-02 3.122603e-02 1.600000e-02
    endloop
  endfacet
  facet normal 0.000000e+00 0.000000e+00 1.000000e+00
    outer loop
      vertex   2.725030e-02 3.122603e-02 1.600000e-02
      vertex   2.714707e-02 3.233101e-02 1.600000e-02
      vertex   2.703429e-02 3.115488e-02 1.600000e-02
    endloop
  endfacet
  facet normal 0.000000e+00 -0.000000e+00 1.000000e+00
    outer loop
      vertex   2.703429e-02 3.115488e-02 1.600000e-02
      vertex   2.714707e-02 3.233101e-02 1.600000e-02
      vertex   2.668860e-02 3.222305e-02 1.600000e-02
    endloop
  endfacet
  facet normal 0.000000e+00 0.000000e+00 1.000000e+00
    outer loop
      vertex   2.703429e-02 3.115488e-02 1.600000e-02
      vertex   2.668860e-02 3.222305e-02 1.600000e-02
      vertex   2.682354e-02 3.106245e-02 1.600000e-02
    endloop
  endfacet
  facet normal 0.000000e+00 0.000000e+00 1.000000e+00
    outer loop
      vertex   2.682354e-02 3.106245e-02 1.600000e-02
      vertex   2.668860e-02 3.222305e-02 1.600000e-02
      vertex   2.625750e-02 3.203117e-02 1.600000e-02
    endloop
  endfacet
  facet normal 0.000000e+00 0.000000e+00 1.000000e+00
    outer loop
      vertex   2.682354e-02 3.106245e-02 1.600000e-02
      vertex   2.625750e-02 3.203117e-02 1.600000e-02
      vertex   2.659953e-02 3.090897e-02 1.600000e-02
    endloop
  endfacet
  facet normal 1.332944e-14 4.062606e-15 1.000000e+00
    outer loop
      vertex   2.659953e-02 3.090897e-02 1.600000e-02
      vertex   2.625750e-02 3.203117e-02 1.600000e-02
      vertex   2.639130e-02 3.073815e-02 1.600000e-02
    endloop
  endfacet
  facet normal -1.463207e-15 2.531802e-15 1.000000e+00
    outer loop
      vertex   2.639130e-02 3.073815e-02 1.600000e-02
      vertex   2.625750e-02 3.203117e-02 1.600000e-02
      vertex   2.584210e-02 3.179110e-02 1.600000e-02
    endloop
  endfacet
  facet normal 9.822796e-15 8.418475e-15 1.000000e+00
    outer loop
      vertex   2.639130e-02 3.073815e-02 1.600000e-02
      vertex   2.584210e-02 3.179110e-02 1.600000e-02
      vertex   2.620677e-02 3.054134e-02 1.600000e-02
    endloop
  endfacet
  facet normal -3.735899e-15 4.462058e-15 1.000000e+00
    outer loop
      vertex   2.620677e-02 3.054134e-02 1.600000e-02
      vertex   2.584210e-02 3.179110e-02 1.600000e-02
      vertex   2.539033e-02 3.141285e-02 1.600000e-02
    endloop
  endfacet
  facet normal -2.334556e-14 -1.390862e-14 1.000000e+00
    outer loop
      vertex   2.620677e-02 3.054134e-02 1.600000e-02
      vertex   2.539033e-02 3.141285e-02 1.600000e-02
      vertex   2.603541e-02 3.033008e-02 1.600000e-02
    endloop
  endfacet
  facet normal 0.000000e+00 0.000000e+00 1.000000e+00
    outer loop
      vertex   2.603541e-02 3.033008e-02 1.600000e-02
      vertex   2.539033e-02 3.141285e-02 1.600000e-02
      vertex   2.583416e-02 3.002067e-02 1.600000e-02
    endloop
  endfacet
  facet normal 0.000000e+00 0.000000e+00 1.000000e+00
    outer loop
      vertex   2.583416e-02 3.002067e-02 1.600000e-02
      vertex   2.539033e-02 3.141285e-02 1.600000e-02
      vertex   2.498520e-02 3.099541e-02 1.600000e-02
    endloop
  endfacet
  facet normal 0.000000e+00 0.000000e+00 1.000000e+00
    outer loop
      vertex   2.583416e-02 3.002067e-02 1.600000e-02
      vertex   2.498520e-02 3.099541e-02 1.600000e-02
      vertex   2.565399e-02 2.970056e-02 1.600000e-02
    endloop
  endfacet
  facet normal 0.000000e+00 0.000000e+00 1.000000e+00
    outer loop
      vertex   2.565399e-02 2.970056e-02 1.600000e-02
      vertex   2.498520e-02 3.099541e-02 1.600000e-02
      vertex   2.465305e-02 3.051665e-02 1.600000e-02
    endloop
  endfacet
  facet normal 0.000000e+00 0.000000e+00 1.000000e+00
    outer loop
      vertex   2.565399e-02 2.970056e-02 1.600000e-02
      vertex   2.465305e-02 3.051665e-02 1.600000e-02
      vertex   2.550645e-02 2.936386e-02 1.600000e-02
    endloop
  endfacet
  facet normal 0.000000e+00 0.000000e+00 1.000000e+00
    outer loop
      vertex   2.550645e-02 2.936386e-02 1.600000e-02
      vertex   2.465305e-02 3.051665e-02 1.600000e-02
      vertex   2.436249e-02 3.000293e-02 1.600000e-02
    endloop
  endfacet
  facet normal 0.000000e+00 0.000000e+00 1.000000e+00
    outer loop
      vertex   2.550645e-02 2.936386e-02 1.600000e-02
      vertex   2.436249e-02 3.000293e-02 1.600000e-02
      vertex   2.537740e-02 2.901777e-02 1.600000e-02
    endloop
  endfacet
  facet normal 0.000000e+00 0.000000e+00 1.000000e+00
    outer loop
      vertex   2.537740e-02 2.901777e-02 1.600000e-02
      vertex   2.436249e-02 3.000293e-02 1.600000e-02
      vertex   2.410826e-02 2.936813e-02 1.600000e-02
    endloop
  endfacet
  facet normal 0.000000e+00 0.000000e+00 1.000000e+00
    outer loop
      vertex   2.537740e-02 2.901777e-02 1.600000e-02
      vertex   2.410826e-02 2.936813e-02 1.600000e-02
      vertex   2.527282e-02 2.867526e-02 1.600000e-02
    endloop
  endfacet
  facet normal 0.000000e+00 0.000000e+00 1.000000e+00
    outer loop
      vertex   2.527282e-02 2.867526e-02 1.600000e-02
      vertex   2.410826e-02 2.936813e-02 1.600000e-02
      vertex   2.518766e-02 2.832918e-02 1.600000e-02
    endloop
  endfacet
  facet normal 0.000000e+00 0.000000e+00 1.000000e+00
    outer loop
      vertex   2.518766e-02 2.832918e-02 1.600000e-02
      vertex   2.410826e-02 2.936813e-02 1.600000e-02
      vertex   2.391300e-02 2.871996e-02 1.600000e-02
    endloop
  endfacet
  facet normal 0.000000e+00 0.000000e+00 1.000000e+00
    outer loop
      vertex   2.518766e-02 2.832918e-02 1.600000e-02
      vertex   2.391300e-02 2.871996e-02 1.600000e-02
      vertex   2.513723e-02 2.797668e-02 1.600000e-02
    endloop
  endfacet
  facet normal 0.000000e+00 0.000000e+00 1.000000e+00
    outer loop
      vertex   2.513723e-02 2.797668e-02 1.600000e-02
      vertex   2.391300e-02 2.871996e-02 1.600000e-02
      vertex   2.381391e-02 2.804997e-02 1.600000e-02
    endloop
  endfacet
  facet normal 0.000000e+00 0.000000e+00 1.000000e+00
    outer loop
      vertex   2.513723e-02 2.797668e-02 1.600000e-02
      vertex   2.381391e-02 2.804997e-02 1.600000e-02
      vertex   2.510973e-02 2.761995e-02 1.600000e-02
    endloop
  endfacet
  facet normal 0.000000e+00 0.000000e+00 1.000000e+00
    outer loop
      vertex   2.510973e-02 2.761995e-02 1.600000e-02
      vertex   2.381391e-02 2.804997e-02 1.600000e-02
      vertex   2.377139e-02 2.736716e-02 1.600000e-02
    endloop
  endfacet
  facet normal 0.000000e+00 0.000000e+00 1.000000e+00
    outer loop
      vertex   2.510973e-02 2.761995e-02 1.600000e-02
      vertex   2.377139e-02 2.736716e-02 1.600000e-02
      vertex   2.511626e-02 2.729000e-02 1.600000e-02
    endloop
  endfacet
  facet normal 0.000000e+00 0.000000e+00 1.000000e+00
    outer loop
      vertex   2.511626e-02 2.729000e-02 1.600000e-02
      vertex   2.377139e-02 2.736716e-02 1.600000e-02
      vertex   2.380824e-02 2.671632e-02 1.600000e-02
    endloop
  endfacet
  facet normal 0.000000e+00 0.000000e+00 1.000000e+00
    outer loop
      vertex   2.511626e-02 2.729000e-02 1.600000e-02
      vertex   2.380824e-02 2.671632e-02 1.600000e-02
      vertex   2.514007e-02 2.696239e-02 1.600000e-02
    endloop
  endfacet
  facet normal 0.000000e+00 0.000000e+00 1.000000e+00
    outer loop
      vertex   2.514007e-02 2.696239e-02 1.600000e-02
      vertex   2.380824e-02 2.671632e-02 1.600000e-02
      vertex   2.385065e-02 2.639883e-02 1.600000e-02
    endloop
  endfacet
  facet normal 0.000000e+00 0.000000e+00 1.000000e+00
    outer loop
      vertex   2.514007e-02 2.696239e-02 1.600000e-02
      vertex   2.385065e-02 2.639883e-02 1.600000e-02
      vertex   2.519565e-02 2.663909e-02 1.600000e-02
    endloop
  endfacet
  facet normal 0.000000e+00 0.000000e+00 1.000000e+00
    outer loop
      vertex   2.519565e-02 2.663909e-02 1.600000e-02
      vertex   2.385065e-02 2.639883e-02 1.600000e-02
      vertex   2.392186e-02 2.609084e-02 1.600000e-02
    endloop
  endfacet
  facet normal 0.000000e+00 0.000000e+00 1.000000e+00
    outer loop
      vertex   2.519565e-02 2.663909e-02 1.600000e-02
      vertex   2.392186e-02 2.609084e-02 1.600000e-02
      vertex   2.403061e-02 2.579524e-02 1.600000e-02
    endloop
  endfacet
  facet normal 0.000000e+00 0.000000e+00 1.000000e+00
    outer loop
      vertex   2.519565e-02 2.663909e-02 1.600000e-02
      vertex   2.403061e-02 2.579524e-02 1.600000e-02
      vertex   2.527330e-02 2.631879e-02 1.600000e-02
    endloop
  endfacet
  facet normal 0.000000e+00 0.000000e+00 1.000000e+00
    outer loop
      vertex   2.527330e-02 2.631879e-02 1.600000e-02
      vertex   2.403061e-02 2.579524e-02 1.600000e-02
      vertex   2.417395e-02 2.551107e-02 1.600000e-02
    endloop
  endfacet
  facet normal 0.000000e+00 0.000000e+00 1.000000e+00
    outer loop
      vertex   2.527330e-02 2.631879e-02 1.600000e-02
      vertex   2.417395e-02 2.551107e-02 1.600000e-02
      vertex   2.537328e-02 2.609307e-02 1.600000e-02
    endloop
  endfacet
  facet normal 0.000000e+00 0.000000e+00 1.000000e+00
    outer loop
      vertex   2.537328e-02 2.609307e-02 1.600000e-02
      vertex   2.417395e-02 2.551107e-02 1.600000e-02
      vertex   2.451863e-02 2.496187e-02 1.600000e-02
    endloop
  endfacet
  facet normal 0.000000e+00 0.000000e+00 1.000000e+00
    outer loop
      vertex   2.537328e-02 2.609307e-02 1.600000e-02
      vertex   2.451863e-02 2.496187e-02 1.600000e-02
      vertex   2.549478e-02 2.588250e-02 1.600000e-02
    endloop
  endfacet
  facet normal 0.000000e+00 0.000000e+00 1.000000e+00
    outer loop
      vertex   2.549478e-02 2.588250e-02 1.600000e-02
      vertex   2.451863e-02 2.496187e-02 1.600000e-02
      vertex   2.492264e-02 2.461158e-02 1.600000e-02
    endloop
  endfacet
  facet normal 0.000000e+00 0.000000e+00 1.000000e+00
    outer loop
      vertex   2.549478e-02 2.588250e-02 1.600000e-02
      vertex   2.492264e-02 2.461158e-02 1.600000e-02
      vertex   2.565212e-02 2.569716e-02 1.600000e-02
    endloop
  endfacet
  facet normal 0.000000e+00 0.000000e+00 1.000000e+00
    outer loop
      vertex   2.565212e-02 2.569716e-02 1.600000e-02
      vertex   2.492264e-02 2.461158e-02 1.600000e-02
      vertex   2.513548e-02 2.446084e-02 1.600000e-02
    endloop
  endfacet
  facet normal 0.000000e+00 0.000000e+00 1.000000e+00
    outer loop
      vertex   2.565212e-02 2.569716e-02 1.600000e-02
      vertex   2.513548e-02 2.446084e-02 1.600000e-02
      vertex   2.583094e-02 2.552695e-02 1.600000e-02
    endloop
  endfacet
  facet normal 0.000000e+00 0.000000e+00 1.000000e+00
    outer loop
      vertex   2.583094e-02 2.552695e-02 1.600000e-02
      vertex   2.513548e-02 2.446084e-02 1.600000e-02
      vertex   2.536132e-02 2.433940e-02 1.600000e-02
    endloop
  endfacet
  facet normal 0.000000e+00 0.000000e+00 1.000000e+00
    outer loop
      vertex   2.583094e-02 2.552695e-02 1.600000e-02
      vertex   2.536132e-02 2.433940e-02 1.600000e-02
      vertex   2.560302e-02 2.425370e-02 1.600000e-02
    endloop
  endfacet
  facet normal 0.000000e+00 0.000000e+00 1.000000e+00
    outer loop
      vertex   2.583094e-02 2.552695e-02 1.600000e-02
      vertex   2.560302e-02 2.425370e-02 1.600000e-02
      vertex   2.604760e-02 2.539072e-02 1.600000e-02
    endloop
  endfacet
  facet normal 0.000000e+00 0.000000e+00 1.000000e+00
    outer loop
      vertex   2.604760e-02 2.539072e-02 1.600000e-02
      vertex   2.560302e-02 2.425370e-02 1.600000e-02
      vertex   2.585768e-02 2.419720e-02 1.600000e-02
    endloop
  endfacet
  facet normal 0.000000e+00 0.000000e+00 1.000000e+00
    outer loop
      vertex   2.604760e-02 2.539072e-02 1.600000e-02
      vertex   2.585768e-02 2.419720e-02 1.600000e-02
      vertex   2.627503e-02 2.528625e-02 1.600000e-02
    endloop
  endfacet
  facet normal 0.000000e+00 0.000000e+00 1.000000e+00
    outer loop
      vertex   2.627503e-02 2.528625e-02 1.600000e-02
      vertex   2.585768e-02 2.419720e-02 1.600000e-02
      vertex   2.638858e-02 2.413285e-02 1.600000e-02
    endloop
  endfacet
  facet normal 0.000000e+00 0.000000e+00 1.000000e+00
    outer loop
      vertex   2.627503e-02 2.528625e-02 1.600000e-02
      vertex   2.638858e-02 2.413285e-02 1.600000e-02
      vertex   2.651998e-02 2.523344e-02 1.600000e-02
    endloop
  endfacet
  facet normal 0.000000e+00 0.000000e+00 1.000000e+00
    outer loop
      vertex   2.651998e-02 2.523344e-02 1.600000e-02
      vertex   2.638858e-02 2.413285e-02 1.600000e-02
      vertex   2.677521e-02 2.521095e-02 1.600000e-02
    endloop
  endfacet
  facet normal 0.000000e+00 0.000000e+00 1.000000e+00
    outer loop
      vertex   2.677521e-02 2.521095e-02 1.600000e-02
      vertex   2.638858e-02 2.413285e-02 1.600000e-02
      vertex   2.709043e-02 2.427302e-02 1.600000e-02
    endloop
  endfacet
  facet normal -0.000000e+00 0.000000e+00 1.000000e+00
    outer loop
      vertex   2.677521e-02 2.521095e-02 1.600000e-02
      vertex   2.709043e-02 2.427302e-02 1.600000e-02
      vertex   2.726712e-02 2.530780e-02 1.600000e-02
    endloop
  endfacet
  facet normal 0.000000e+00 0.000000e+00 1.000000e+00
    outer loop
      vertex   2.726712e-02 2.530780e-02 1.600000e-02
      vertex   2.709043e-02 2.427302e-02 1.600000e-02
      vertex   2.742306e-02 2.437813e-02 1.600000e-02
    endloop
  endfacet
  facet normal -0.000000e+00 0.000000e+00 1.000000e+00
    outer loop
      vertex   2.726712e-02 2.530780e-02 1.600000e-02
      vertex   2.742306e-02 2.437813e-02 1.600000e-02
      vertex   2.749902e-02 2.538184e-02 1.600000e-02
    endloop
  endfacet
  facet normal 0.000000e+00 0.000000e+00 1.000000e+00
    outer loop
      vertex   2.749902e-02 2.538184e-02 1.600000e-02
      vertex   2.742306e-02 2.437813e-02 1.600000e-02
      vertex   2.773386e-02 2.452505e-02 1.600000e-02
    endloop
  endfacet
  facet normal -0.000000e+00 0.000000e+00 1.000000e+00
    outer loop
      vertex   2.749902e-02 2.538184e-02 1.600000e-02
      vertex   2.773386e-02 2.452505e-02 1.600000e-02
      vertex   2.771413e-02 2.548649e-02 1.600000e-02
    endloop
  endfacet
  facet normal 0.000000e+00 0.000000e+00 1.000000e+00
    outer loop
      vertex   2.771413e-02 2.548649e-02 1.600000e-02
      vertex   2.773386e-02 2.452505e-02 1.600000e-02
      vertex   2.802097e-02 2.471731e-02 1.600000e-02
    endloop
  endfacet
  facet normal -0.000000e+00 0.000000e+00 1.000000e+00
    outer loop
      vertex   2.771413e-02 2.548649e-02 1.600000e-02
      vertex   2.802097e-02 2.471731e-02 1.600000e-02
      vertex   2.791065e-02 2.562503e-02 1.600000e-02
    endloop
  endfacet
  facet normal 0.000000e+00 0.000000e+00 1.000000e+00
    outer loop
      vertex   2.791065e-02 2.562503e-02 1.600000e-02
      vertex   2.802097e-02 2.471731e-02 1.600000e-02
      vertex   2.828993e-02 2.494433e-02 1.600000e-02
    endloop
  endfacet
  facet normal -0.000000e+00 0.000000e+00 1.000000e+00
    outer loop
      vertex   2.791065e-02 2.562503e-02 1.600000e-02
      vertex   2.828993e-02 2.494433e-02 1.600000e-02
      vertex   2.809282e-02 2.578971e-02 1.600000e-02
    endloop
  endfacet
  facet normal 0.000000e+00 0.000000e+00 1.000000e+00
    outer loop
      vertex   2.809282e-02 2.578971e-02 1.600000e-02
      vertex   2.828993e-02 2.494433e-02 1.600000e-02
      vertex   2.879759e-02 2.545631e-02 1.600000e-02
    endloop
  endfacet
  facet normal -0.000000e+00 0.000000e+00 1.000000e+00
    outer loop
      vertex   2.809282e-02 2.578971e-02 1.600000e-02
      vertex   2.879759e-02 2.545631e-02 1.600000e-02
      vertex   2.843326e-02 2.616266e-02 1.600000e-02
    endloop
  endfacet
  facet normal -0.000000e+00 0.000000e+00 1.000000e+00
    outer loop
      vertex   2.940200e-02 2.968497e-02 1.600000e-02
      vertex   2.942958e-02 2.928544e-02 1.600000e-02
      vertex   2.984595e-02 3.096579e-02 1.600000e-02
    endloop
  endfacet
  facet normal 0.000000e+00 0.000000e+00 1.000000e+00
    outer loop
      vertex   2.984595e-02 3.096579e-02 1.600000e-02
      vertex   2.942958e-02 2.928544e-02 1.600000e-02
      vertex   2.936341e-02 2.844502e-02 1.600000e-02
    endloop
  endfacet
  facet normal 0.000000e+00 0.000000e+00 1.000000e+00
    outer loop
      vertex   2.930000e-02 2.803472e-02 1.600000e-02
      vertex   2.920018e-02 2.763630e-02 1.600000e-02
      vertex   2.980134e-02 2.431129e-02 1.600000e-02
    endloop
  endfacet
  facet normal 0.000000e+00 0.000000e+00 1.000000e+00
    outer loop
      vertex   2.980134e-02 2.431129e-02 1.600000e-02
      vertex   2.920018e-02 2.763630e-02 1.600000e-02
      vertex   2.905436e-02 2.725290e-02 1.600000e-02
    endloop
  endfacet
  facet normal 0.000000e+00 0.000000e+00 1.000000e+00
    outer loop
      vertex   2.980134e-02 2.431129e-02 1.600000e-02
      vertex   2.905436e-02 2.725290e-02 1.600000e-02
      vertex   2.886920e-02 2.688234e-02 1.600000e-02
    endloop
  endfacet
  facet normal 0.000000e+00 0.000000e+00 -1.000000e+00
    outer loop
      vertex   2.855966e-02 2.431129e-02 8.000000e-03
      vertex   2.879759e-02 2.545631e-02 8.000000e-03
      vertex   2.980134e-02 2.431129e-02 8.000000e-03
    endloop
  endfacet
  facet normal 0.000000e+00 0.000000e+00 -1.000000e+00
    outer loop
      vertex   2.980134e-02 2.431129e-02 8.000000e-03
      vertex   2.879759e-02 2.545631e-02 8.000000e-03
      vertex   2.886920e-02 2.688234e-02 8.000000e-03
    endloop
  endfacet
  facet normal 0.000000e+00 0.000000e+00 -1.000000e+00
    outer loop
      vertex   2.980134e-02 2.431129e-02 8.000000e-03
      vertex   2.886920e-02 2.688234e-02 8.000000e-03
      vertex   2.905436e-02 2.725290e-02 8.000000e-03
    endloop
  endfacet
  facet normal 0.000000e+00 0.000000e+00 -1.000000e+00
    outer loop
      vertex   2.828993e-02 2.494433e-02 8.000000e-03
      vertex   2.809282e-02 2.578971e-02 8.000000e-03
      vertex   2.879759e-02 2.545631e-02 8.000000e-03
    endloop
  endfacet
  facet normal 0.000000e+00 0.000000e+00 -1.000000e+00
    outer loop
      vertex   2.879759e-02 2.545631e-02 8.000000e-03
      vertex   2.809282e-02 2.578971e-02 8.000000e-03
      vertex   2.843326e-02 2.616266e-02 8.000000e-03
    endloop
  endfacet
  facet normal 0.000000e+00 0.000000e+00 -1.000000e+00
    outer loop
      vertex   2.879759e-02 2.545631e-02 8.000000e-03
      vertex   2.843326e-02 2.616266e-02 8.000000e-03
      vertex   2.886920e-02 2.688234e-02 8.000000e-03
    endloop
  endfacet
  facet normal 0.000000e+00 -0.000000e+00 -1.000000e+00
    outer loop
      vertex   2.809282e-02 2.578971e-02 8.000000e-03
      vertex   2.828993e-02 2.494433e-02 8.000000e-03
      vertex   2.791065e-02 2.562503e-02 8.000000e-03
    endloop
  endfacet
  facet normal 0.000000e+00 0.000000e+00 -1.000000e+00
    outer loop
      vertex   2.791065e-02 2.562503e-02 8.000000e-03
      vertex   2.828993e-02 2.494433e-02 8.000000e-03
      vertex   2.802097e-02 2.471731e-02 8.000000e-03
    endloop
  endfacet
  facet normal 0.000000e+00 -0.000000e+00 -1.000000e+00
    outer loop
      vertex   2.791065e-02 2.562503e-02 8.000000e-03
      vertex   2.802097e-02 2.471731e-02 8.000000e-03
      vertex   2.771413e-02 2.548649e-02 8.000000e-03
    endloop
  endfacet
  facet normal 0.000000e+00 0.000000e+00 -1.000000e+00
    outer loop
      vertex   2.771413e-02 2.548649e-02 8.000000e-03
      vertex   2.802097e-02 2.471731e-02 8.000000e-03
      vertex   2.773386e-02 2.452505e-02 8.000000e-03
    endloop
  endfacet
  facet normal 0.000000e+00 -0.000000e+00 -1.000000e+00
    outer loop
      vertex   2.771413e-02 2.548649e-02 8.000000e-03
      vertex   2.773386e-02 2.452505e-02 8.000000e-03
      vertex   2.749902e-02 2.538184e-02 8.000000e-03
    endloop
  endfacet
  facet normal 0.000000e+00 -0.000000e+00 -1.000000e+00
    outer loop
      vertex   2.749902e-02 2.538184e-02 8.000000e-03
      vertex   2.773386e-02 2.452505e-02 8.000000e-03
      vertex   2.742306e-02 2.437813e-02 8.000000e-03
    endloop
  endfacet
  facet normal 0.000000e+00 0.000000e+00 -1.000000e+00
    outer loop
      vertex   2.749902e-02 2.538184e-02 8.000000e-03
      vertex   2.742306e-02 2.437813e-02 8.000000e-03
      vertex   2.726712e-02 2.530780e-02 8.000000e-03
    endloop
  endfacet
  facet normal 0.000000e+00 -0.000000e+00 -1.000000e+00
    outer loop
      vertex   2.726712e-02 2.530780e-02 8.000000e-03
      vertex   2.742306e-02 2.437813e-02 8.000000e-03
      vertex   2.709043e-02 2.427302e-02 8.000000e-03
    endloop
  endfacet
  facet normal 0.000000e+00 0.000000e+00 -1.000000e+00
    outer loop
      vertex   2.726712e-02 2.530780e-02 8.000000e-03
      vertex   2.709043e-02 2.427302e-02 8.000000e-03
      vertex   2.677521e-02 2.521095e-02 8.000000e-03
    endloop
  endfacet
  facet normal 0.000000e+00 -0.000000e+00 -1.000000e+00
    outer loop
      vertex   2.677521e-02 2.521095e-02 8.000000e-03
      vertex   2.709043e-02 2.427302e-02 8.000000e-03
      vertex   2.638858e-02 2.413285e-02 8.000000e-03
    endloop
  endfacet
  facet normal -0.000000e+00 0.000000e+00 -1.000000e+00
    outer loop
      vertex   2.677521e-02 2.521095e-02 8.000000e-03
      vertex   2.638858e-02 2.413285e-02 8.000000e-03
      vertex   2.651998e-02 2.523344e-02 8.000000e-03
    endloop
  endfacet
  facet normal -0.000000e+00 0.000000e+00 -1.000000e+00
    outer loop
      vertex   2.651998e-02 2.523344e-02 8.000000e-03
      vertex   2.638858e-02 2.413285e-02 8.000000e-03
      vertex   2.627503e-02 2.528625e-02 8.000000e-03
    endloop
  endfacet
  facet normal 0.000000e+00 -0.000000e+00 -1.000000e+00
    outer loop
      vertex   2.627503e-02 2.528625e-02 8.000000e-03
      vertex   2.638858e-02 2.413285e-02 8.000000e-03
      vertex   2.585768e-02 2.419720e-02 8.000000e-03
    endloop
  endfacet
  facet normal -0.000000e+00 0.000000e+00 -1.000000e+00
    outer loop
      vertex   2.627503e-02 2.528625e-02 8.000000e-03
      vertex   2.585768e-02 2.419720e-02 8.000000e-03
      vertex   2.604760e-02 2.539072e-02 8.000000e-03
    endloop
  endfacet
  facet normal 0.000000e+00 0.000000e+00 -1.000000e+00
    outer loop
      vertex   2.604760e-02 2.539072e-02 8.000000e-03
      vertex   2.585768e-02 2.419720e-02 8.000000e-03
      vertex   2.560302e-02 2.425370e-02 8.000000e-03
    endloop
  endfacet
  facet normal -0.000000e+00 0.000000e+00 -1.000000e+00
    outer loop
      vertex   2.604760e-02 2.539072e-02 8.000000e-03
      vertex   2.560302e-02 2.425370e-02 8.000000e-03
      vertex   2.583094e-02 2.552695e-02 8.000000e-03
    endloop
  endfacet
  facet normal 0.000000e+00 0.000000e+00 -1.000000e+00
    outer loop
      vertex   2.583094e-02 2.552695e-02 8.000000e-03
      vertex   2.560302e-02 2.425370e-02 8.000000e-03
      vertex   2.536132e-02 2.433940e-02 8.000000e-03
    endloop
  endfacet
  facet normal 0.000000e+00 0.000000e+00 -1.000000e+00
    outer loop
      vertex   2.583094e-02 2.552695e-02 8.000000e-03
      vertex   2.536132e-02 2.433940e-02 8.000000e-03
      vertex   2.513548e-02 2.446084e-02 8.000000e-03
    endloop
  endfacet
  facet normal -0.000000e+00 0.000000e+00 -1.000000e+00
    outer loop
      vertex   2.583094e-02 2.552695e-02 8.000000e-03
      vertex   2.513548e-02 2.446084e-02 8.000000e-03
      vertex   2.565212e-02 2.569716e-02 8.000000e-03
    endloop
  endfacet
  facet normal 0.000000e+00 0.000000e+00 -1.000000e+00
    outer loop
      vertex   2.565212e-02 2.569716e-02 8.000000e-03
      vertex   2.513548e-02 2.446084e-02 8.000000e-03
      vertex   2.492264e-02 2.461158e-02 8.000000e-03
    endloop
  endfacet
  facet normal -0.000000e+00 0.000000e+00 -1.000000e+00
    outer loop
      vertex   2.565212e-02 2.569716e-02 8.000000e-03
      vertex   2.492264e-02 2.461158e-02 8.000000e-03
      vertex   2.549478e-02 2.588250e-02 8.000000e-03
    endloop
  endfacet
  facet normal 0.000000e+00 0.000000e+00 -1.000000e+00
    outer loop
      vertex   2.549478e-02 2.588250e-02 8.000000e-03
      vertex   2.492264e-02 2.461158e-02 8.000000e-03
      vertex   2.451863e-02 2.496187e-02 8.000000e-03
    endloop
  endfacet
  facet normal -0.000000e+00 0.000000e+00 -1.000000e+00
    outer loop
      vertex   2.549478e-02 2.588250e-02 8.000000e-03
      vertex   2.451863e-02 2.496187e-02 8.000000e-03
      vertex   2.537328e-02 2.609307e-02 8.000000e-03
    endloop
  endfacet
  facet normal 0.000000e+00 0.000000e+00 -1.000000e+00
    outer loop
      vertex   2.537328e-02 2.609307e-02 8.000000e-03
      vertex   2.451863e-02 2.496187e-02 8.000000e-03
      vertex   2.417395e-02 2.551107e-02 8.000000e-03
    endloop
  endfacet
  facet normal -0.000000e+00 0.000000e+00 -1.000000e+00
    outer loop
      vertex   2.537328e-02 2.609307e-02 8.000000e-03
      vertex   2.417395e-02 2.551107e-02 8.000000e-03
      vertex   2.527330e-02 2.631879e-02 8.000000e-03
    endloop
  endfacet
  facet normal 0.000000e+00 0.000000e+00 -1.000000e+00
    outer loop
      vertex   2.527330e-02 2.631879e-02 8.000000e-03
      vertex   2.417395e-02 2.551107e-02 8.000000e-03
      vertex   2.403061e-02 2.579524e-02 8.000000e-03
    endloop
  endfacet
  facet normal -0.000000e+00 0.000000e+00 -1.000000e+00
    outer loop
      vertex   2.527330e-02 2.631879e-02 8.000000e-03
      vertex   2.403061e-02 2.579524e-02 8.000000e-03
      vertex   2.519565e-02 2.663909e-02 8.000000e-03
    endloop
  endfacet
  facet normal 0.000000e+00 0.000000e+00 -1.000000e+00
    outer loop
      vertex   2.519565e-02 2.663909e-02 8.000000e-03
      vertex   2.403061e-02 2.579524e-02 8.000000e-03
      vertex   2.392186e-02 2.609084e-02 8.000000e-03
    endloop
  endfacet
  facet normal 0.000000e+00 0.000000e+00 -1.000000e+00
    outer loop
      vertex   2.519565e-02 2.663909e-02 8.000000e-03
      vertex   2.392186e-02 2.609084e-02 8.000000e-03
      vertex   2.385065e-02 2.639883e-02 8.000000e-03
    endloop
  endfacet
  facet normal -0.000000e+00 0.000000e+00 -1.000000e+00
    outer loop
      vertex   2.519565e-02 2.663909e-02 8.000000e-03
      vertex   2.385065e-02 2.639883e-02 8.000000e-03
      vertex   2.514007e-02 2.696239e-02 8.000000e-03
    endloop
  endfacet
  facet normal 0.000000e+00 0.000000e+00 -1.000000e+00
    outer loop
      vertex   2.514007e-02 2.696239e-02 8.000000e-03
      vertex   2.385065e-02 2.639883e-02 8.000000e-03
      vertex   2.380824e-02 2.671632e-02 8.000000e-03
    endloop
  endfacet
  facet normal -0.000000e+00 0.000000e+00 -1.000000e+00
    outer loop
      vertex   2.514007e-02 2.696239e-02 8.000000e-03
      vertex   2.380824e-02 2.671632e-02 8.000000e-03
      vertex   2.511626e-02 2.729000e-02 8.000000e-03
    endloop
  endfacet
  facet normal -0.000000e+00 0.000000e+00 -1.000000e+00
    outer loop
      vertex   2.511626e-02 2.729000e-02 8.000000e-03
      vertex   2.380824e-02 2.671632e-02 8.000000e-03
      vertex   2.377139e-02 2.736716e-02 8.000000e-03
    endloop
  endfacet
  facet normal 0.000000e+00 0.000000e+00 -1.000000e+00
    outer loop
      vertex   2.511626e-02 2.729000e-02 8.000000e-03
      vertex   2.377139e-02 2.736716e-02 8.000000e-03
      vertex   2.510973e-02 2.761995e-02 8.000000e-03
    endloop
  endfacet
  facet normal -0.000000e+00 0.000000e+00 -1.000000e+00
    outer loop
      vertex   2.510973e-02 2.761995e-02 8.000000e-03
      vertex   2.377139e-02 2.736716e-02 8.000000e-03
      vertex   2.381391e-02 2.804997e-02 8.000000e-03
    endloop
  endfacet
  facet normal 0.000000e+00 0.000000e+00 -1.000000e+00
    outer loop
      vertex   2.510973e-02 2.761995e-02 8.000000e-03
      vertex   2.381391e-02 2.804997e-02 8.000000e-03
      vertex   2.513723e-02 2.797668e-02 8.000000e-03
    endloop
  endfacet
  facet normal 0.000000e+00 0.000000e+00 -1.000000e+00
    outer loop
      vertex   2.513723e-02 2.797668e-02 8.000000e-03
      vertex   2.381391e-02 2.804997e-02 8.000000e-03
      vertex   2.391300e-02 2.871996e-02 8.000000e-03
    endloop
  endfacet
  facet normal 0.000000e+00 0.000000e+00 -1.000000e+00
    outer loop
      vertex   2.513723e-02 2.797668e-02 8.000000e-03
      vertex   2.391300e-02 2.871996e-02 8.000000e-03
      vertex   2.518766e-02 2.832918e-02 8.000000e-03
    endloop
  endfacet
  facet normal 0.000000e+00 0.000000e+00 -1.000000e+00
    outer loop
      vertex   2.518766e-02 2.832918e-02 8.000000e-03
      vertex   2.391300e-02 2.871996e-02 8.000000e-03
      vertex   2.410826e-02 2.936813e-02 8.000000e-03
    endloop
  endfacet
  facet normal 0.000000e+00 0.000000e+00 -1.000000e+00
    outer loop
      vertex   2.518766e-02 2.832918e-02 8.000000e-03
      vertex   2.410826e-02 2.936813e-02 8.000000e-03
      vertex   2.527282e-02 2.867526e-02 8.000000e-03
    endloop
  endfacet
  facet normal 0.000000e+00 0.000000e+00 -1.000000e+00
    outer loop
      vertex   2.527282e-02 2.867526e-02 8.000000e-03
      vertex   2.410826e-02 2.936813e-02 8.000000e-03
      vertex   2.537740e-02 2.901777e-02 8.000000e-03
    endloop
  endfacet
  facet normal 0.000000e+00 0.000000e+00 -1.000000e+00
    outer loop
      vertex   2.537740e-02 2.901777e-02 8.000000e-03
      vertex   2.410826e-02 2.936813e-02 8.000000e-03
      vertex   2.436249e-02 3.000293e-02 8.000000e-03
    endloop
  endfacet
  facet normal 0.000000e+00 0.000000e+00 -1.000000e+00
    outer loop
      vertex   2.537740e-02 2.901777e-02 8.000000e-03
      vertex   2.436249e-02 3.000293e-02 8.000000e-03
      vertex   2.550645e-02 2.936386e-02 8.000000e-03
    endloop
  endfacet
  facet normal 0.000000e+00 0.000000e+00 -1.000000e+00
    outer loop
      vertex   2.550645e-02 2.936386e-02 8.000000e-03
      vertex   2.436249e-02 3.000293e-02 8.000000e-03
      vertex   2.465305e-02 3.051665e-02 8.000000e-03
    endloop
  endfacet
  facet normal 0.000000e+00 0.000000e+00 -1.000000e+00
    outer loop
      vertex   2.550645e-02 2.936386e-02 8.000000e-03
      vertex   2.465305e-02 3.051665e-02 8.000000e-03
      vertex   2.565399e-02 2.970056e-02 8.000000e-03
    endloop
  endfacet
  facet normal 0.000000e+00 0.000000e+00 -1.000000e+00
    outer loop
      vertex   2.565399e-02 2.970056e-02 8.000000e-03
      vertex   2.465305e-02 3.051665e-02 8.000000e-03
      vertex   2.498520e-02 3.099541e-02 8.000000e-03
    endloop
  endfacet
  facet normal 0.000000e+00 0.000000e+00 -1.000000e+00
    outer loop
      vertex   2.565399e-02 2.970056e-02 8.000000e-03
      vertex   2.498520e-02 3.099541e-02 8.000000e-03
      vertex   2.583416e-02 3.002067e-02 8.000000e-03
    endloop
  endfacet
  facet normal 0.000000e+00 0.000000e+00 -1.000000e+00
    outer loop
      vertex   2.583416e-02 3.002067e-02 8.000000e-03
      vertex   2.498520e-02 3.099541e-02 8.000000e-03
      vertex   2.539033e-02 3.141285e-02 8.000000e-03
    endloop
  endfacet
  facet normal 0.000000e+00 0.000000e+00 -1.000000e+00
    outer loop
      vertex   2.583416e-02 3.002067e-02 8.000000e-03
      vertex   2.539033e-02 3.141285e-02 8.000000e-03
      vertex   2.603541e-02 3.033008e-02 8.000000e-03
    endloop
  endfacet
  facet normal 1.167278e-14 6.954310e-15 -1.000000e+00
    outer loop
      vertex   2.603541e-02 3.033008e-02 8.000000e-03
      vertex   2.539033e-02 3.141285e-02 8.000000e-03
      vertex   2.620677e-02 3.054134e-02 8.000000e-03
    endloop
  endfacet
  facet normal 1.867949e-15 -2.231029e-15 -1.000000e+00
    outer loop
      vertex   2.620677e-02 3.054134e-02 8.000000e-03
      vertex   2.539033e-02 3.141285e-02 8.000000e-03
      vertex   2.584210e-02 3.179110e-02 8.000000e-03
    endloop
  endfacet
  facet normal -4.911398e-15 -4.209238e-15 -1.000000e+00
    outer loop
      vertex   2.620677e-02 3.054134e-02 8.000000e-03
      vertex   2.584210e-02 3.179110e-02 8.000000e-03
      vertex   2.639130e-02 3.073815e-02 8.000000e-03
    endloop
  endfacet
  facet normal 7.316035e-16 -1.265901e-15 -1.000000e+00
    outer loop
      vertex   2.639130e-02 3.073815e-02 8.000000e-03
      vertex   2.584210e-02 3.179110e-02 8.000000e-03
      vertex   2.625750e-02 3.203117e-02 8.000000e-03
    endloop
  endfacet
  facet normal -6.664718e-15 -2.031303e-15 -1.000000e+00
    outer loop
      vertex   2.639130e-02 3.073815e-02 8.000000e-03
      vertex   2.625750e-02 3.203117e-02 8.000000e-03
      vertex   2.659953e-02 3.090897e-02 8.000000e-03
    endloop
  endfacet
  facet normal 0.000000e+00 0.000000e+00 -1.000000e+00
    outer loop
      vertex   2.659953e-02 3.090897e-02 8.000000e-03
      vertex   2.625750e-02 3.203117e-02 8.000000e-03
      vertex   2.682354e-02 3.106245e-02 8.000000e-03
    endloop
  endfacet
  facet normal 0.000000e+00 0.000000e+00 -1.000000e+00
    outer loop
      vertex   2.682354e-02 3.106245e-02 8.000000e-03
      vertex   2.625750e-02 3.203117e-02 8.000000e-03
      vertex   2.668860e-02 3.222305e-02 8.000000e-03
    endloop
  endfacet
  facet normal 0.000000e+00 0.000000e+00 -1.000000e+00
    outer loop
      vertex   2.682354e-02 3.106245e-02 8.000000e-03
      vertex   2.668860e-02 3.222305e-02 8.000000e-03
      vertex   2.703429e-02 3.115488e-02 8.000000e-03
    endloop
  endfacet
  facet normal 0.000000e+00 0.000000e+00 -1.000000e+00
    outer loop
      vertex   2.703429e-02 3.115488e-02 8.000000e-03
      vertex   2.668860e-02 3.222305e-02 8.000000e-03
      vertex   2.714707e-02 3.233101e-02 8.000000e-03
    endloop
  endfacet
  facet normal 0.000000e+00 0.000000e+00 -1.000000e+00
    outer loop
      vertex   2.703429e-02 3.115488e-02 8.000000e-03
      vertex   2.714707e-02 3.233101e-02 8.000000e-03
      vertex   2.725030e-02 3.122603e-02 8.000000e-03
    endloop
  endfacet
  facet normal 0.000000e+00 0.000000e+00 -1.000000e+00
    outer loop
      vertex   2.725030e-02 3.122603e-02 8.000000e-03
      vertex   2.714707e-02 3.233101e-02 8.000000e-03
      vertex   2.747492e-02 3.126233e-02 8.000000e-03
    endloop
  endfacet
  facet normal 0.000000e+00 0.000000e+00 -1.000000e+00
    outer loop
      vertex   2.747492e-02 3.126233e-02 8.000000e-03
      vertex   2.714707e-02 3.233101e-02 8.000000e-03
      vertex   2.762283e-02 3.238591e-02 8.000000e-03
    endloop
  endfacet
  facet normal 0.000000e+00 0.000000e+00 -1.000000e+00
    outer loop
      vertex   2.747492e-02 3.126233e-02 8.000000e-03
      vertex   2.762283e-02 3.238591e-02 8.000000e-03
      vertex   2.770461e-02 3.127807e-02 8.000000e-03
    endloop
  endfacet
  facet normal 0.000000e+00 0.000000e+00 -1.000000e+00
    outer loop
      vertex   2.770461e-02 3.127807e-02 8.000000e-03
      vertex   2.762283e-02 3.238591e-02 8.000000e-03
      vertex   2.805278e-02 3.123821e-02 8.000000e-03
    endloop
  endfacet
  facet normal 0.000000e+00 0.000000e+00 -1.000000e+00
    outer loop
      vertex   2.805278e-02 3.123821e-02 8.000000e-03
      vertex   2.762283e-02 3.238591e-02 8.000000e-03
      vertex   2.832456e-02 3.226354e-02 8.000000e-03
    endloop
  endfacet
  facet normal 0.000000e+00 0.000000e+00 -1.000000e+00
    outer loop
      vertex   2.805278e-02 3.123821e-02 8.000000e-03
      vertex   2.832456e-02 3.226354e-02 8.000000e-03
      vertex   2.837949e-02 3.114843e-02 8.000000e-03
    endloop
  endfacet
  facet normal 0.000000e+00 0.000000e+00 -1.000000e+00
    outer loop
      vertex   2.837949e-02 3.114843e-02 8.000000e-03
      vertex   2.832456e-02 3.226354e-02 8.000000e-03
      vertex   2.865004e-02 3.216188e-02 8.000000e-03
    endloop
  endfacet
  facet normal 0.000000e+00 0.000000e+00 -1.000000e+00
    outer loop
      vertex   2.837949e-02 3.114843e-02 8.000000e-03
      vertex   2.865004e-02 3.216188e-02 8.000000e-03
      vertex   2.894505e-02 3.201167e-02 8.000000e-03
    endloop
  endfacet
  facet normal 0.000000e+00 0.000000e+00 -1.000000e+00
    outer loop
      vertex   2.837949e-02 3.114843e-02 8.000000e-03
      vertex   2.894505e-02 3.201167e-02 8.000000e-03
      vertex   2.867010e-02 3.097471e-02 8.000000e-03
    endloop
  endfacet
  facet normal 0.000000e+00 0.000000e+00 -1.000000e+00
    outer loop
      vertex   2.867010e-02 3.097471e-02 8.000000e-03
      vertex   2.894505e-02 3.201167e-02 8.000000e-03
      vertex   2.920393e-02 3.180385e-02 8.000000e-03
    endloop
  endfacet
  facet normal 0.000000e+00 0.000000e+00 -1.000000e+00
    outer loop
      vertex   2.867010e-02 3.097471e-02 8.000000e-03
      vertex   2.920393e-02 3.180385e-02 8.000000e-03
      vertex   2.893886e-02 3.075017e-02 8.000000e-03
    endloop
  endfacet
  facet normal 0.000000e+00 0.000000e+00 -1.000000e+00
    outer loop
      vertex   2.893886e-02 3.075017e-02 8.000000e-03
      vertex   2.920393e-02 3.180385e-02 8.000000e-03
      vertex   2.943397e-02 3.155005e-02 8.000000e-03
    endloop
  endfacet
  facet normal 0.000000e+00 0.000000e+00 -1.000000e+00
    outer loop
      vertex   2.893886e-02 3.075017e-02 8.000000e-03
      vertex   2.943397e-02 3.155005e-02 8.000000e-03
      vertex   2.916046e-02 3.041868e-02 8.000000e-03
    endloop
  endfacet
  facet normal 0.000000e+00 0.000000e+00 -1.000000e+00
    outer loop
      vertex   2.916046e-02 3.041868e-02 8.000000e-03
      vertex   2.943397e-02 3.155005e-02 8.000000e-03
      vertex   2.984595e-02 3.096579e-02 8.000000e-03
    endloop
  endfacet
  facet normal 0.000000e+00 0.000000e+00 -1.000000e+00
    outer loop
      vertex   2.916046e-02 3.041868e-02 8.000000e-03
      vertex   2.984595e-02 3.096579e-02 8.000000e-03
      vertex   2.932505e-02 3.006719e-02 8.000000e-03
    endloop
  endfacet
  facet normal 0.000000e+00 0.000000e+00 -1.000000e+00
    outer loop
      vertex   2.932505e-02 3.006719e-02 8.000000e-03
      vertex   2.984595e-02 3.096579e-02 8.000000e-03
      vertex   2.940200e-02 2.968497e-02 8.000000e-03
    endloop
  endfacet
  facet normal 0.000000e+00 0.000000e+00 -1.000000e+00
    outer loop
      vertex   2.940200e-02 2.968497e-02 8.000000e-03
      vertex   2.984595e-02 3.096579e-02 8.000000e-03
      vertex   2.942958e-02 2.928544e-02 8.000000e-03
    endloop
  endfacet
  facet normal 0.000000e+00 -0.000000e+00 -1.000000e+00
    outer loop
      vertex   2.942958e-02 2.928544e-02 8.000000e-03
      vertex   2.984595e-02 3.096579e-02 8.000000e-03
      vertex   2.936341e-02 2.844502e-02 8.000000e-03
    endloop
  endfacet
  facet normal 0.000000e+00 0.000000e+00 -1.000000e+00
    outer loop
      vertex   2.936341e-02 2.844502e-02 8.000000e-03
      vertex   2.984595e-02 3.096579e-02 8.000000e-03
      vertex   2.980134e-02 2.431129e-02 8.000000e-03
    endloop
  endfacet
  facet normal 0.000000e+00 -0.000000e+00 -1.000000e+00
    outer loop
      vertex   2.936341e-02 2.844502e-02 8.000000e-03
      vertex   2.980134e-02 2.431129e-02 8.000000e-03
      vertex   2.930000e-02 2.803472e-02 8.000000e-03
    endloop
  endfacet
  facet normal 0.000000e+00 -0.000000e+00 -1.000000e+00
    outer loop
      vertex   2.930000e-02 2.803472e-02 8.000000e-03
      vertex   2.980134e-02 2.431129e-02 8.000000e-03
      vertex   2.920018e-02 2.763630e-02 8.000000e-03
    endloop
  endfacet
  facet normal 0.000000e+00 -0.000000e+00 -1.000000e+00
    outer loop
      vertex   2.920018e-02 2.763630e-02 8.000000e-03
      vertex   2.980134e-02 2.431129e-02 8.000000e-03
      vertex   2.905436e-02 2.725290e-02 8.000000e-03
    endloop
  endfacet
  facet normal 0.000000e+00 -0.000000e+00 -1.000000e+00
    outer loop
      vertex   3.073817e-02 3.521129e-02 8.000000e-03
      vertex   3.207651e-02 3.521129e-02 8.000000e-03
      vertex   2.984595e-02 3.096579e-02 8.000000e-03
    endloop
  endfacet
  facet normal 0.000000e+00 -0.000000e+00 -1.000000e+00
    outer loop
      vertex   2.984595e-02 3.096579e-02 8.000000e-03
      vertex   3.207651e-02 3.521129e-02 8.000000e-03
      vertex   2.980134e-02 2.431129e-02 8.000000e-03
    endloop
  endfacet
endsolid
