solid ASCII
  facet normal 5.148507e-01 -8.572798e-01 0.000000e+00
    outer loop
      vertex   7.516665e-02 2.153053e-02 1.600000e-02
      vertex   7.486584e-02 2.134987e-02 1.600000e-02
      vertex   7.516665e-02 2.153053e-02 8.000000e-03
    endloop
  endfacet
  facet normal 5.148507e-01 -8.572798e-01 0.000000e+00
    outer loop
      vertex   7.516665e-02 2.153053e-02 8.000000e-03
      vertex   7.486584e-02 2.134987e-02 1.600000e-02
      vertex   7.486584e-02 2.134987e-02 8.000000e-03
    endloop
  endfacet
  facet normal 4.058859e-01 -9.139238e-01 0.000000e+00
    outer loop
      vertex   7.486584e-02 2.134987e-02 8.000000e-03
      vertex   7.486584e-02 2.134987e-02 1.600000e-02
      vertex   7.455157e-02 2.121030e-02 1.600000e-02
    endloop
  endfacet
  facet normal 4.058859e-01 -9.139238e-01 0.000000e+00
    outer loop
      vertex   7.486584e-02 2.134987e-02 8.000000e-03
      vertex   7.455157e-02 2.121030e-02 1.600000e-02
      vertex   7.455157e-02 2.121030e-02 8.000000e-03
    endloop
  endfacet
  facet normal 2.089180e-01 -9.779332e-01 0.000000e+00
    outer loop
      vertex   7.455157e-02 2.121030e-02 8.000000e-03
      vertex   7.455157e-02 2.121030e-02 1.600000e-02
      vertex   7.421511e-02 2.113842e-02 1.600000e-02
    endloop
  endfacet
  facet normal 2.089180e-01 -9.779332e-01 0.000000e+00
    outer loop
      vertex   7.455157e-02 2.121030e-02 8.000000e-03
      vertex   7.421511e-02 2.113842e-02 1.600000e-02
      vertex   7.421511e-02 2.113842e-02 8.000000e-03
    endloop
  endfacet
  facet normal 9.030690e-02 -9.959140e-01 0.000000e+00
    outer loop
      vertex   7.421511e-02 2.113842e-02 8.000000e-03
      vertex   7.421511e-02 2.113842e-02 1.600000e-02
      vertex   7.386549e-02 2.110672e-02 1.600000e-02
    endloop
  endfacet
  facet normal 9.030690e-02 -9.959140e-01 0.000000e+00
    outer loop
      vertex   7.421511e-02 2.113842e-02 8.000000e-03
      vertex   7.386549e-02 2.110672e-02 1.600000e-02
      vertex   7.386549e-02 2.110672e-02 8.000000e-03
    endloop
  endfacet
  facet normal 8.687374e-01 -4.952731e-01 0.000000e+00
    outer loop
      vertex   7.646037e-02 2.326293e-02 1.600000e-02
      vertex   7.619001e-02 2.278871e-02 1.600000e-02
      vertex   7.646037e-02 2.326293e-02 8.000000e-03
    endloop
  endfacet
  facet normal 8.687374e-01 -4.952731e-01 0.000000e+00
    outer loop
      vertex   7.646037e-02 2.326293e-02 8.000000e-03
      vertex   7.619001e-02 2.278871e-02 1.600000e-02
      vertex   7.619001e-02 2.278871e-02 8.000000e-03
    endloop
  endfacet
  facet normal 8.376792e-01 -5.461625e-01 0.000000e+00
    outer loop
      vertex   7.619001e-02 2.278871e-02 8.000000e-03
      vertex   7.619001e-02 2.278871e-02 1.600000e-02
      vertex   7.589386e-02 2.233448e-02 1.600000e-02
    endloop
  endfacet
  facet normal 8.376792e-01 -5.461625e-01 0.000000e+00
    outer loop
      vertex   7.619001e-02 2.278871e-02 8.000000e-03
      vertex   7.589386e-02 2.233448e-02 1.600000e-02
      vertex   7.589386e-02 2.233448e-02 8.000000e-03
    endloop
  endfacet
  facet normal 7.698551e-01 -6.382188e-01 0.000000e+00
    outer loop
      vertex   7.589386e-02 2.233448e-02 8.000000e-03
      vertex   7.589386e-02 2.233448e-02 1.600000e-02
      vertex   7.554874e-02 2.191818e-02 1.600000e-02
    endloop
  endfacet
  facet normal 7.698551e-01 -6.382188e-01 0.000000e+00
    outer loop
      vertex   7.589386e-02 2.233448e-02 8.000000e-03
      vertex   7.554874e-02 2.191818e-02 1.600000e-02
      vertex   7.554874e-02 2.191818e-02 8.000000e-03
    endloop
  endfacet
  facet normal 7.121976e-01 -7.019790e-01 0.000000e+00
    outer loop
      vertex   7.554874e-02 2.191818e-02 8.000000e-03
      vertex   7.554874e-02 2.191818e-02 1.600000e-02
      vertex   7.516665e-02 2.153053e-02 1.600000e-02
    endloop
  endfacet
  facet normal 7.121976e-01 -7.019790e-01 0.000000e+00
    outer loop
      vertex   7.554874e-02 2.191818e-02 8.000000e-03
      vertex   7.516665e-02 2.153053e-02 1.600000e-02
      vertex   7.516665e-02 2.153053e-02 8.000000e-03
    endloop
  endfacet
  facet normal 8.714787e-01 -4.904334e-01 0.000000e+00
    outer loop
      vertex   8.149400e-02 3.220747e-02 1.600000e-02
      vertex   7.646037e-02 2.326293e-02 1.600000e-02
      vertex   8.149400e-02 3.220747e-02 8.000000e-03
    endloop
  endfacet
  facet normal 8.714787e-01 -4.904334e-01 0.000000e+00
    outer loop
      vertex   8.149400e-02 3.220747e-02 8.000000e-03
      vertex   7.646037e-02 2.326293e-02 1.600000e-02
      vertex   7.646037e-02 2.326293e-02 8.000000e-03
    endloop
  endfacet
  facet normal -0.000000e+00 1.000000e+00 0.000000e+00
    outer loop
      vertex   8.008875e-02 3.220747e-02 1.600000e-02
      vertex   8.149400e-02 3.220747e-02 1.600000e-02
      vertex   8.008875e-02 3.220747e-02 8.000000e-03
    endloop
  endfacet
  facet normal 0.000000e+00 1.000000e+00 0.000000e+00
    outer loop
      vertex   8.008875e-02 3.220747e-02 8.000000e-03
      vertex   8.149400e-02 3.220747e-02 1.600000e-02
      vertex   8.149400e-02 3.220747e-02 8.000000e-03
    endloop
  endfacet
  facet normal -8.741573e-01 4.856429e-01 0.000000e+00
    outer loop
      vertex   7.655703e-02 2.585038e-02 1.600000e-02
      vertex   8.008875e-02 3.220747e-02 1.600000e-02
      vertex   7.655703e-02 2.585038e-02 8.000000e-03
    endloop
  endfacet
  facet normal -8.741573e-01 4.856429e-01 0.000000e+00
    outer loop
      vertex   7.655703e-02 2.585038e-02 8.000000e-03
      vertex   8.008875e-02 3.220747e-02 1.600000e-02
      vertex   8.008875e-02 3.220747e-02 8.000000e-03
    endloop
  endfacet
  facet normal 9.897781e-01 1.426160e-01 0.000000e+00
    outer loop
      vertex   7.625219e-02 2.821477e-02 1.600000e-02
      vertex   7.633719e-02 2.762481e-02 1.600000e-02
      vertex   7.625219e-02 2.821477e-02 8.000000e-03
    endloop
  endfacet
  facet normal 9.897781e-01 1.426160e-01 0.000000e+00
    outer loop
      vertex   7.625219e-02 2.821477e-02 8.000000e-03
      vertex   7.633719e-02 2.762481e-02 1.600000e-02
      vertex   7.633719e-02 2.762481e-02 8.000000e-03
    endloop
  endfacet
  facet normal 9.909019e-01 1.345860e-01 -0.000000e+00
    outer loop
      vertex   7.633719e-02 2.762481e-02 8.000000e-03
      vertex   7.633719e-02 2.762481e-02 1.600000e-02
      vertex   7.641741e-02 2.703422e-02 1.600000e-02
    endloop
  endfacet
  facet normal 9.909019e-01 1.345860e-01 0.000000e+00
    outer loop
      vertex   7.633719e-02 2.762481e-02 8.000000e-03
      vertex   7.641741e-02 2.703422e-02 1.600000e-02
      vertex   7.641741e-02 2.703422e-02 8.000000e-03
    endloop
  endfacet
  facet normal 9.926326e-01 1.211632e-01 -0.000000e+00
    outer loop
      vertex   7.641741e-02 2.703422e-02 8.000000e-03
      vertex   7.641741e-02 2.703422e-02 1.600000e-02
      vertex   7.648962e-02 2.644261e-02 1.600000e-02
    endloop
  endfacet
  facet normal 9.926326e-01 1.211632e-01 0.000000e+00
    outer loop
      vertex   7.641741e-02 2.703422e-02 8.000000e-03
      vertex   7.648962e-02 2.644261e-02 1.600000e-02
      vertex   7.648962e-02 2.644261e-02 8.000000e-03
    endloop
  endfacet
  facet normal 9.935849e-01 1.130883e-01 -0.000000e+00
    outer loop
      vertex   7.648962e-02 2.644261e-02 8.000000e-03
      vertex   7.648962e-02 2.644261e-02 1.600000e-02
      vertex   7.655703e-02 2.585038e-02 1.600000e-02
    endloop
  endfacet
  facet normal 9.935849e-01 1.130883e-01 0.000000e+00
    outer loop
      vertex   7.648962e-02 2.644261e-02 8.000000e-03
      vertex   7.655703e-02 2.585038e-02 1.600000e-02
      vertex   7.655703e-02 2.585038e-02 8.000000e-03
    endloop
  endfacet
  facet normal 9.890844e-01 1.473498e-01 0.000000e+00
    outer loop
      vertex   7.565737e-02 3.220747e-02 1.600000e-02
      vertex   7.625219e-02 2.821477e-02 1.600000e-02
      vertex   7.565737e-02 3.220747e-02 8.000000e-03
    endloop
  endfacet
  facet normal 9.890844e-01 1.473498e-01 0.000000e+00
    outer loop
      vertex   7.565737e-02 3.220747e-02 8.000000e-03
      vertex   7.625219e-02 2.821477e-02 1.600000e-02
      vertex   7.625219e-02 2.821477e-02 8.000000e-03
    endloop
  endfacet
  facet normal -0.000000e+00 1.000000e+00 0.000000e+00
    outer loop
      vertex   7.433390e-02 3.220747e-02 1.600000e-02
      vertex   7.565737e-02 3.220747e-02 1.600000e-02
      vertex   7.433390e-02 3.220747e-02 8.000000e-03
    endloop
  endfacet
  facet normal 0.000000e+00 1.000000e+00 0.000000e+00
    outer loop
      vertex   7.433390e-02 3.220747e-02 8.000000e-03
      vertex   7.565737e-02 3.220747e-02 1.600000e-02
      vertex   7.565737e-02 3.220747e-02 8.000000e-03
    endloop
  endfacet
  facet normal -9.864690e-01 -1.639481e-01 -0.000000e+00
    outer loop
      vertex   7.564993e-02 2.428899e-02 1.600000e-02
      vertex   7.433390e-02 3.220747e-02 1.600000e-02
      vertex   7.564993e-02 2.428899e-02 8.000000e-03
    endloop
  endfacet
  facet normal -9.864690e-01 -1.639481e-01 0.000000e+00
    outer loop
      vertex   7.564993e-02 2.428899e-02 8.000000e-03
      vertex   7.433390e-02 3.220747e-02 1.600000e-02
      vertex   7.433390e-02 3.220747e-02 8.000000e-03
    endloop
  endfacet
  facet normal -8.733666e-01 4.870635e-01 0.000000e+00
    outer loop
      vertex   7.521869e-02 2.351572e-02 1.600000e-02
      vertex   7.564993e-02 2.428899e-02 1.600000e-02
      vertex   7.521869e-02 2.351572e-02 8.000000e-03
    endloop
  endfacet
  facet normal -8.733666e-01 4.870635e-01 0.000000e+00
    outer loop
      vertex   7.521869e-02 2.351572e-02 8.000000e-03
      vertex   7.564993e-02 2.428899e-02 1.600000e-02
      vertex   7.564993e-02 2.428899e-02 8.000000e-03
    endloop
  endfacet
  facet normal -7.003316e-01 7.138176e-01 0.000000e+00
    outer loop
      vertex   7.450491e-02 2.259376e-02 1.600000e-02
      vertex   7.471449e-02 2.279938e-02 1.600000e-02
      vertex   7.450491e-02 2.259376e-02 8.000000e-03
    endloop
  endfacet
  facet normal -7.003316e-01 7.138176e-01 0.000000e+00
    outer loop
      vertex   7.450491e-02 2.259376e-02 8.000000e-03
      vertex   7.471449e-02 2.279938e-02 1.600000e-02
      vertex   7.471449e-02 2.279938e-02 8.000000e-03
    endloop
  endfacet
  facet normal -7.577153e-01 6.525853e-01 0.000000e+00
    outer loop
      vertex   7.471449e-02 2.279938e-02 8.000000e-03
      vertex   7.471449e-02 2.279938e-02 1.600000e-02
      vertex   7.490482e-02 2.302037e-02 1.600000e-02
    endloop
  endfacet
  facet normal -7.577153e-01 6.525853e-01 0.000000e+00
    outer loop
      vertex   7.471449e-02 2.279938e-02 8.000000e-03
      vertex   7.490482e-02 2.302037e-02 1.600000e-02
      vertex   7.490482e-02 2.302037e-02 8.000000e-03
    endloop
  endfacet
  facet normal -8.279364e-01 5.608221e-01 0.000000e+00
    outer loop
      vertex   7.490482e-02 2.302037e-02 8.000000e-03
      vertex   7.490482e-02 2.302037e-02 1.600000e-02
      vertex   7.506879e-02 2.326243e-02 1.600000e-02
    endloop
  endfacet
  facet normal -8.279364e-01 5.608221e-01 0.000000e+00
    outer loop
      vertex   7.490482e-02 2.302037e-02 8.000000e-03
      vertex   7.506879e-02 2.326243e-02 1.600000e-02
      vertex   7.506879e-02 2.326243e-02 8.000000e-03
    endloop
  endfacet
  facet normal -8.605764e-01 5.093213e-01 0.000000e+00
    outer loop
      vertex   7.506879e-02 2.326243e-02 8.000000e-03
      vertex   7.506879e-02 2.326243e-02 1.600000e-02
      vertex   7.521869e-02 2.351572e-02 1.600000e-02
    endloop
  endfacet
  facet normal -8.605764e-01 5.093213e-01 0.000000e+00
    outer loop
      vertex   7.506879e-02 2.326243e-02 8.000000e-03
      vertex   7.521869e-02 2.351572e-02 1.600000e-02
      vertex   7.521869e-02 2.351572e-02 8.000000e-03
    endloop
  endfacet
  facet normal -5.973018e-02 9.982146e-01 0.000000e+00
    outer loop
      vertex   7.384318e-02 2.240788e-02 8.000000e-03
      vertex   7.384318e-02 2.240788e-02 1.600000e-02
      vertex   7.401916e-02 2.241841e-02 1.200000e-02
    endloop
  endfacet
  facet normal -5.973018e-02 9.982146e-01 0.000000e+00
    outer loop
      vertex   7.401916e-02 2.241841e-02 1.200000e-02
      vertex   7.384318e-02 2.240788e-02 1.600000e-02
      vertex   7.401916e-02 2.241841e-02 1.600000e-02
    endloop
  endfacet
  facet normal -1.688287e-01 9.856454e-01 0.000000e+00
    outer loop
      vertex   7.401916e-02 2.241841e-02 1.200000e-02
      vertex   7.401916e-02 2.241841e-02 1.600000e-02
      vertex   7.418965e-02 2.244761e-02 1.600000e-02
    endloop
  endfacet
  facet normal -1.688287e-01 9.856454e-01 8.547724e-16
    outer loop
      vertex   7.401916e-02 2.241841e-02 1.200000e-02
      vertex   7.418965e-02 2.244761e-02 1.600000e-02
      vertex   7.418965e-02 2.244761e-02 1.200000e-02
    endloop
  endfacet
  facet normal -3.613968e-01 9.324121e-01 8.087386e-16
    outer loop
      vertex   7.418965e-02 2.244761e-02 1.200000e-02
      vertex   7.418965e-02 2.244761e-02 1.600000e-02
      vertex   7.435044e-02 2.250993e-02 1.600000e-02
    endloop
  endfacet
  facet normal -3.613968e-01 9.324121e-01 8.082872e-16
    outer loop
      vertex   7.418965e-02 2.244761e-02 1.200000e-02
      vertex   7.435044e-02 2.250993e-02 1.600000e-02
      vertex   7.435044e-02 2.250993e-02 1.200000e-02
    endloop
  endfacet
  facet normal -4.769494e-01 8.789308e-01 7.623509e-16
    outer loop
      vertex   7.435044e-02 2.250993e-02 1.200000e-02
      vertex   7.435044e-02 2.250993e-02 1.600000e-02
      vertex   7.450491e-02 2.259376e-02 1.600000e-02
    endloop
  endfacet
  facet normal -4.769494e-01 8.789308e-01 0.000000e+00
    outer loop
      vertex   7.435044e-02 2.250993e-02 1.200000e-02
      vertex   7.450491e-02 2.259376e-02 1.600000e-02
      vertex   7.450491e-02 2.259376e-02 8.000000e-03
    endloop
  endfacet
  facet normal -4.769494e-01 8.789308e-01 -7.624481e-16
    outer loop
      vertex   7.450491e-02 2.259376e-02 8.000000e-03
      vertex   7.435044e-02 2.250993e-02 8.000000e-03
      vertex   7.435044e-02 2.250993e-02 1.200000e-02
    endloop
  endfacet
  facet normal -3.613968e-01 9.324121e-01 -8.087386e-16
    outer loop
      vertex   7.435044e-02 2.250993e-02 1.200000e-02
      vertex   7.435044e-02 2.250993e-02 8.000000e-03
      vertex   7.418965e-02 2.244761e-02 8.000000e-03
    endloop
  endfacet
  facet normal -3.613968e-01 9.324121e-01 -8.106856e-16
    outer loop
      vertex   7.435044e-02 2.250993e-02 1.200000e-02
      vertex   7.418965e-02 2.244761e-02 8.000000e-03
      vertex   7.418965e-02 2.244761e-02 1.200000e-02
    endloop
  endfacet
  facet normal -1.688287e-01 9.856454e-01 -8.549111e-16
    outer loop
      vertex   7.418965e-02 2.244761e-02 1.200000e-02
      vertex   7.418965e-02 2.244761e-02 8.000000e-03
      vertex   7.401916e-02 2.241841e-02 8.000000e-03
    endloop
  endfacet
  facet normal -1.688287e-01 9.856454e-01 0.000000e+00
    outer loop
      vertex   7.418965e-02 2.244761e-02 1.200000e-02
      vertex   7.401916e-02 2.241841e-02 8.000000e-03
      vertex   7.401916e-02 2.241841e-02 1.200000e-02
    endloop
  endfacet
  facet normal -5.973018e-02 9.982146e-01 0.000000e+00
    outer loop
      vertex   7.401916e-02 2.241841e-02 1.200000e-02
      vertex   7.401916e-02 2.241841e-02 8.000000e-03
      vertex   7.384318e-02 2.240788e-02 8.000000e-03
    endloop
  endfacet
  facet normal 2.386160e-01 9.711140e-01 0.000000e+00
    outer loop
      vertex   7.303274e-02 2.252684e-02 1.600000e-02
      vertex   7.323254e-02 2.247775e-02 1.600000e-02
      vertex   7.303274e-02 2.252684e-02 8.000000e-03
    endloop
  endfacet
  facet normal 2.386160e-01 9.711140e-01 0.000000e+00
    outer loop
      vertex   7.303274e-02 2.252684e-02 8.000000e-03
      vertex   7.323254e-02 2.247775e-02 1.600000e-02
      vertex   7.323254e-02 2.247775e-02 8.000000e-03
    endloop
  endfacet
  facet normal 1.888619e-01 9.820037e-01 -0.000000e+00
    outer loop
      vertex   7.323254e-02 2.247775e-02 8.000000e-03
      vertex   7.323254e-02 2.247775e-02 1.600000e-02
      vertex   7.343385e-02 2.243903e-02 1.600000e-02
    endloop
  endfacet
  facet normal 1.888619e-01 9.820037e-01 0.000000e+00
    outer loop
      vertex   7.323254e-02 2.247775e-02 8.000000e-03
      vertex   7.343385e-02 2.243903e-02 1.600000e-02
      vertex   7.343385e-02 2.243903e-02 8.000000e-03
    endloop
  endfacet
  facet normal 1.025579e-01 9.947270e-01 -0.000000e+00
    outer loop
      vertex   7.343385e-02 2.243903e-02 8.000000e-03
      vertex   7.343385e-02 2.243903e-02 1.600000e-02
      vertex   7.363773e-02 2.241801e-02 1.600000e-02
    endloop
  endfacet
  facet normal 1.025579e-01 9.947270e-01 0.000000e+00
    outer loop
      vertex   7.343385e-02 2.243903e-02 8.000000e-03
      vertex   7.363773e-02 2.241801e-02 1.600000e-02
      vertex   7.363773e-02 2.241801e-02 8.000000e-03
    endloop
  endfacet
  facet normal 4.926490e-02 9.987857e-01 -0.000000e+00
    outer loop
      vertex   7.363773e-02 2.241801e-02 8.000000e-03
      vertex   7.363773e-02 2.241801e-02 1.600000e-02
      vertex   7.384318e-02 2.240788e-02 1.600000e-02
    endloop
  endfacet
  facet normal 4.926490e-02 9.987857e-01 0.000000e+00
    outer loop
      vertex   7.363773e-02 2.241801e-02 8.000000e-03
      vertex   7.384318e-02 2.240788e-02 1.600000e-02
      vertex   7.384318e-02 2.240788e-02 8.000000e-03
    endloop
  endfacet
  facet normal -9.979131e-01 6.457069e-02 0.000000e+00
    outer loop
      vertex   7.295096e-02 2.126286e-02 1.600000e-02
      vertex   7.303274e-02 2.252684e-02 1.600000e-02
      vertex   7.295096e-02 2.126286e-02 8.000000e-03
    endloop
  endfacet
  facet normal -9.979131e-01 6.457069e-02 0.000000e+00
    outer loop
      vertex   7.295096e-02 2.126286e-02 8.000000e-03
      vertex   7.303274e-02 2.252684e-02 1.600000e-02
      vertex   7.303274e-02 2.252684e-02 8.000000e-03
    endloop
  endfacet
  facet normal -5.269118e-02 -9.986109e-01 -0.000000e+00
    outer loop
      vertex   7.386549e-02 2.110672e-02 1.600000e-02
      vertex   7.363230e-02 2.111902e-02 1.600000e-02
      vertex   7.386549e-02 2.110672e-02 8.000000e-03
    endloop
  endfacet
  facet normal -5.269118e-02 -9.986109e-01 0.000000e+00
    outer loop
      vertex   7.386549e-02 2.110672e-02 8.000000e-03
      vertex   7.363230e-02 2.111902e-02 1.600000e-02
      vertex   7.363230e-02 2.111902e-02 8.000000e-03
    endloop
  endfacet
  facet normal -1.158540e-01 -9.932663e-01 0.000000e+00
    outer loop
      vertex   7.363230e-02 2.111902e-02 8.000000e-03
      vertex   7.363230e-02 2.111902e-02 1.600000e-02
      vertex   7.340160e-02 2.114593e-02 1.600000e-02
    endloop
  endfacet
  facet normal -1.158540e-01 -9.932663e-01 0.000000e+00
    outer loop
      vertex   7.363230e-02 2.111902e-02 8.000000e-03
      vertex   7.340160e-02 2.114593e-02 1.600000e-02
      vertex   7.340160e-02 2.114593e-02 8.000000e-03
    endloop
  endfacet
  facet normal -2.204048e-01 -9.754085e-01 0.000000e+00
    outer loop
      vertex   7.340160e-02 2.114593e-02 8.000000e-03
      vertex   7.340160e-02 2.114593e-02 1.600000e-02
      vertex   7.317504e-02 2.119713e-02 1.600000e-02
    endloop
  endfacet
  facet normal -2.204048e-01 -9.754085e-01 0.000000e+00
    outer loop
      vertex   7.340160e-02 2.114593e-02 8.000000e-03
      vertex   7.317504e-02 2.119713e-02 1.600000e-02
      vertex   7.317504e-02 2.119713e-02 8.000000e-03
    endloop
  endfacet
  facet normal -2.814782e-01 -9.595676e-01 0.000000e+00
    outer loop
      vertex   7.317504e-02 2.119713e-02 8.000000e-03
      vertex   7.317504e-02 2.119713e-02 1.600000e-02
      vertex   7.295096e-02 2.126286e-02 1.600000e-02
    endloop
  endfacet
  facet normal -2.814782e-01 -9.595676e-01 0.000000e+00
    outer loop
      vertex   7.317504e-02 2.119713e-02 8.000000e-03
      vertex   7.295096e-02 2.126286e-02 1.600000e-02
      vertex   7.295096e-02 2.126286e-02 8.000000e-03
    endloop
  endfacet
  facet normal 0.000000e+00 0.000000e+00 1.000000e+00
    outer loop
      vertex   7.303274e-02 2.252684e-02 1.600000e-02
      vertex   7.295096e-02 2.126286e-02 1.600000e-02
      vertex   7.323254e-02 2.247775e-02 1.600000e-02
    endloop
  endfacet
  facet normal 0.000000e+00 0.000000e+00 1.000000e+00
    outer loop
      vertex   7.323254e-02 2.247775e-02 1.600000e-02
      vertex   7.295096e-02 2.126286e-02 1.600000e-02
      vertex   7.317504e-02 2.119713e-02 1.600000e-02
    endloop
  endfacet
  facet normal 0.000000e+00 0.000000e+00 1.000000e+00
    outer loop
      vertex   7.323254e-02 2.247775e-02 1.600000e-02
      vertex   7.317504e-02 2.119713e-02 1.600000e-02
      vertex   7.343385e-02 2.243903e-02 1.600000e-02
    endloop
  endfacet
  facet normal 0.000000e+00 0.000000e+00 1.000000e+00
    outer loop
      vertex   7.343385e-02 2.243903e-02 1.600000e-02
      vertex   7.317504e-02 2.119713e-02 1.600000e-02
      vertex   7.340160e-02 2.114593e-02 1.600000e-02
    endloop
  endfacet
  facet normal 0.000000e+00 0.000000e+00 1.000000e+00
    outer loop
      vertex   7.343385e-02 2.243903e-02 1.600000e-02
      vertex   7.340160e-02 2.114593e-02 1.600000e-02
      vertex   7.363773e-02 2.241801e-02 1.600000e-02
    endloop
  endfacet
  facet normal 0.000000e+00 0.000000e+00 1.000000e+00
    outer loop
      vertex   7.363773e-02 2.241801e-02 1.600000e-02
      vertex   7.340160e-02 2.114593e-02 1.600000e-02
      vertex   7.363230e-02 2.111902e-02 1.600000e-02
    endloop
  endfacet
  facet normal 0.000000e+00 0.000000e+00 1.000000e+00
    outer loop
      vertex   7.363773e-02 2.241801e-02 1.600000e-02
      vertex   7.363230e-02 2.111902e-02 1.600000e-02
      vertex   7.384318e-02 2.240788e-02 1.600000e-02
    endloop
  endfacet
  facet normal 0.000000e+00 0.000000e+00 1.000000e+00
    outer loop
      vertex   7.384318e-02 2.240788e-02 1.600000e-02
      vertex   7.363230e-02 2.111902e-02 1.600000e-02
      vertex   7.386549e-02 2.110672e-02 1.600000e-02
    endloop
  endfacet
  facet normal -0.000000e+00 0.000000e+00 1.000000e+00
    outer loop
      vertex   7.384318e-02 2.240788e-02 1.600000e-02
      vertex   7.386549e-02 2.110672e-02 1.600000e-02
      vertex   7.401916e-02 2.241841e-02 1.600000e-02
    endloop
  endfacet
  facet normal 0.000000e+00 0.000000e+00 1.000000e+00
    outer loop
      vertex   7.401916e-02 2.241841e-02 1.600000e-02
      vertex   7.386549e-02 2.110672e-02 1.600000e-02
      vertex   7.421511e-02 2.113842e-02 1.600000e-02
    endloop
  endfacet
  facet normal -0.000000e+00 0.000000e+00 1.000000e+00
    outer loop
      vertex   7.401916e-02 2.241841e-02 1.600000e-02
      vertex   7.421511e-02 2.113842e-02 1.600000e-02
      vertex   7.418965e-02 2.244761e-02 1.600000e-02
    endloop
  endfacet
  facet normal 0.000000e+00 0.000000e+00 1.000000e+00
    outer loop
      vertex   7.418965e-02 2.244761e-02 1.600000e-02
      vertex   7.421511e-02 2.113842e-02 1.600000e-02
      vertex   7.455157e-02 2.121030e-02 1.600000e-02
    endloop
  endfacet
  facet normal -0.000000e+00 0.000000e+00 1.000000e+00
    outer loop
      vertex   7.418965e-02 2.244761e-02 1.600000e-02
      vertex   7.455157e-02 2.121030e-02 1.600000e-02
      vertex   7.435044e-02 2.250993e-02 1.600000e-02
    endloop
  endfacet
  facet normal 0.000000e+00 0.000000e+00 1.000000e+00
    outer loop
      vertex   7.435044e-02 2.250993e-02 1.600000e-02
      vertex   7.455157e-02 2.121030e-02 1.600000e-02
      vertex   7.486584e-02 2.134987e-02 1.600000e-02
    endloop
  endfacet
  facet normal -0.000000e+00 0.000000e+00 1.000000e+00
    outer loop
      vertex   7.435044e-02 2.250993e-02 1.600000e-02
      vertex   7.486584e-02 2.134987e-02 1.600000e-02
      vertex   7.450491e-02 2.259376e-02 1.600000e-02
    endloop
  endfacet
  facet normal 0.000000e+00 0.000000e+00 1.000000e+00
    outer loop
      vertex   7.450491e-02 2.259376e-02 1.600000e-02
      vertex   7.486584e-02 2.134987e-02 1.600000e-02
      vertex   7.516665e-02 2.153053e-02 1.600000e-02
    endloop
  endfacet
  facet normal -0.000000e+00 0.000000e+00 1.000000e+00
    outer loop
      vertex   7.450491e-02 2.259376e-02 1.600000e-02
      vertex   7.516665e-02 2.153053e-02 1.600000e-02
      vertex   7.471449e-02 2.279938e-02 1.600000e-02
    endloop
  endfacet
  facet normal 0.000000e+00 0.000000e+00 1.000000e+00
    outer loop
      vertex   7.471449e-02 2.279938e-02 1.600000e-02
      vertex   7.516665e-02 2.153053e-02 1.600000e-02
      vertex   7.554874e-02 2.191818e-02 1.600000e-02
    endloop
  endfacet
  facet normal -0.000000e+00 0.000000e+00 1.000000e+00
    outer loop
      vertex   7.471449e-02 2.279938e-02 1.600000e-02
      vertex   7.554874e-02 2.191818e-02 1.600000e-02
      vertex   7.490482e-02 2.302037e-02 1.600000e-02
    endloop
  endfacet
  facet normal 0.000000e+00 0.000000e+00 1.000000e+00
    outer loop
      vertex   7.490482e-02 2.302037e-02 1.600000e-02
      vertex   7.554874e-02 2.191818e-02 1.600000e-02
      vertex   7.589386e-02 2.233448e-02 1.600000e-02
    endloop
  endfacet
  facet normal -0.000000e+00 0.000000e+00 1.000000e+00
    outer loop
      vertex   7.490482e-02 2.302037e-02 1.600000e-02
      vertex   7.589386e-02 2.233448e-02 1.600000e-02
      vertex   7.506879e-02 2.326243e-02 1.600000e-02
    endloop
  endfacet
  facet normal -0.000000e+00 0.000000e+00 1.000000e+00
    outer loop
      vertex   7.506879e-02 2.326243e-02 1.600000e-02
      vertex   7.589386e-02 2.233448e-02 1.600000e-02
      vertex   7.521869e-02 2.351572e-02 1.600000e-02
    endloop
  endfacet
  facet normal 0.000000e+00 0.000000e+00 1.000000e+00
    outer loop
      vertex   7.521869e-02 2.351572e-02 1.600000e-02
      vertex   7.589386e-02 2.233448e-02 1.600000e-02
      vertex   7.619001e-02 2.278871e-02 1.600000e-02
    endloop
  endfacet
  facet normal 0.000000e+00 0.000000e+00 1.000000e+00
    outer loop
      vertex   7.521869e-02 2.351572e-02 1.600000e-02
      vertex   7.619001e-02 2.278871e-02 1.600000e-02
      vertex   7.646037e-02 2.326293e-02 1.600000e-02
    endloop
  endfacet
  facet normal 0.000000e+00 0.000000e+00 1.000000e+00
    outer loop
      vertex   8.149400e-02 3.220747e-02 1.600000e-02
      vertex   7.655703e-02 2.585038e-02 1.600000e-02
      vertex   7.646037e-02 2.326293e-02 1.600000e-02
    endloop
  endfacet
  facet normal 0.000000e+00 -0.000000e+00 1.000000e+00
    outer loop
      vertex   7.646037e-02 2.326293e-02 1.600000e-02
      vertex   7.655703e-02 2.585038e-02 1.600000e-02
      vertex   7.564993e-02 2.428899e-02 1.600000e-02
    endloop
  endfacet
  facet normal 0.000000e+00 0.000000e+00 1.000000e+00
    outer loop
      vertex   7.646037e-02 2.326293e-02 1.600000e-02
      vertex   7.564993e-02 2.428899e-02 1.600000e-02
      vertex   7.521869e-02 2.351572e-02 1.600000e-02
    endloop
  endfacet
  facet normal 0.000000e+00 0.000000e+00 1.000000e+00
    outer loop
      vertex   8.149400e-02 3.220747e-02 1.600000e-02
      vertex   8.008875e-02 3.220747e-02 1.600000e-02
      vertex   7.655703e-02 2.585038e-02 1.600000e-02
    endloop
  endfacet
  facet normal 0.000000e+00 0.000000e+00 1.000000e+00
    outer loop
      vertex   7.655703e-02 2.585038e-02 1.600000e-02
      vertex   7.648962e-02 2.644261e-02 1.600000e-02
      vertex   7.564993e-02 2.428899e-02 1.600000e-02
    endloop
  endfacet
  facet normal 0.000000e+00 0.000000e+00 1.000000e+00
    outer loop
      vertex   7.564993e-02 2.428899e-02 1.600000e-02
      vertex   7.648962e-02 2.644261e-02 1.600000e-02
      vertex   7.641741e-02 2.703422e-02 1.600000e-02
    endloop
  endfacet
  facet normal 0.000000e+00 0.000000e+00 1.000000e+00
    outer loop
      vertex   7.564993e-02 2.428899e-02 1.600000e-02
      vertex   7.641741e-02 2.703422e-02 1.600000e-02
      vertex   7.633719e-02 2.762481e-02 1.600000e-02
    endloop
  endfacet
  facet normal 0.000000e+00 0.000000e+00 1.000000e+00
    outer loop
      vertex   7.633719e-02 2.762481e-02 1.600000e-02
      vertex   7.625219e-02 2.821477e-02 1.600000e-02
      vertex   7.564993e-02 2.428899e-02 1.600000e-02
    endloop
  endfacet
  facet normal 0.000000e+00 -0.000000e+00 1.000000e+00
    outer loop
      vertex   7.564993e-02 2.428899e-02 1.600000e-02
      vertex   7.625219e-02 2.821477e-02 1.600000e-02
      vertex   7.433390e-02 3.220747e-02 1.600000e-02
    endloop
  endfacet
  facet normal -0.000000e+00 0.000000e+00 1.000000e+00
    outer loop
      vertex   7.433390e-02 3.220747e-02 1.600000e-02
      vertex   7.625219e-02 2.821477e-02 1.600000e-02
      vertex   7.565737e-02 3.220747e-02 1.600000e-02
    endloop
  endfacet
  facet normal 0.000000e+00 0.000000e+00 -1.000000e+00
    outer loop
      vertex   7.363230e-02 2.111902e-02 8.000000e-03
      vertex   7.384318e-02 2.240788e-02 8.000000e-03
      vertex   7.386549e-02 2.110672e-02 8.000000e-03
    endloop
  endfacet
  facet normal 0.000000e+00 0.000000e+00 -1.000000e+00
    outer loop
      vertex   7.386549e-02 2.110672e-02 8.000000e-03
      vertex   7.384318e-02 2.240788e-02 8.000000e-03
      vertex   7.401916e-02 2.241841e-02 8.000000e-03
    endloop
  endfacet
  facet normal 0.000000e+00 0.000000e+00 -1.000000e+00
    outer loop
      vertex   7.386549e-02 2.110672e-02 8.000000e-03
      vertex   7.401916e-02 2.241841e-02 8.000000e-03
      vertex   7.421511e-02 2.113842e-02 8.000000e-03
    endloop
  endfacet
  facet normal 0.000000e+00 0.000000e+00 -1.000000e+00
    outer loop
      vertex   7.421511e-02 2.113842e-02 8.000000e-03
      vertex   7.401916e-02 2.241841e-02 8.000000e-03
      vertex   7.418965e-02 2.244761e-02 8.000000e-03
    endloop
  endfacet
  facet normal 0.000000e+00 0.000000e+00 -1.000000e+00
    outer loop
      vertex   7.421511e-02 2.113842e-02 8.000000e-03
      vertex   7.418965e-02 2.244761e-02 8.000000e-03
      vertex   7.455157e-02 2.121030e-02 8.000000e-03
    endloop
  endfacet
  facet normal 0.000000e+00 0.000000e+00 -1.000000e+00
    outer loop
      vertex   7.455157e-02 2.121030e-02 8.000000e-03
      vertex   7.418965e-02 2.244761e-02 8.000000e-03
      vertex   7.435044e-02 2.250993e-02 8.000000e-03
    endloop
  endfacet
  facet normal 0.000000e+00 0.000000e+00 -1.000000e+00
    outer loop
      vertex   7.455157e-02 2.121030e-02 8.000000e-03
      vertex   7.435044e-02 2.250993e-02 8.000000e-03
      vertex   7.486584e-02 2.134987e-02 8.000000e-03
    endloop
  endfacet
  facet normal 0.000000e+00 0.000000e+00 -1.000000e+00
    outer loop
      vertex   7.486584e-02 2.134987e-02 8.000000e-03
      vertex   7.435044e-02 2.250993e-02 8.000000e-03
      vertex   7.450491e-02 2.259376e-02 8.000000e-03
    endloop
  endfacet
  facet normal 0.000000e+00 0.000000e+00 -1.000000e+00
    outer loop
      vertex   7.486584e-02 2.134987e-02 8.000000e-03
      vertex   7.450491e-02 2.259376e-02 8.000000e-03
      vertex   7.516665e-02 2.153053e-02 8.000000e-03
    endloop
  endfacet
  facet normal 0.000000e+00 0.000000e+00 -1.000000e+00
    outer loop
      vertex   7.516665e-02 2.153053e-02 8.000000e-03
      vertex   7.450491e-02 2.259376e-02 8.000000e-03
      vertex   7.471449e-02 2.279938e-02 8.000000e-03
    endloop
  endfacet
  facet normal 0.000000e+00 0.000000e+00 -1.000000e+00
    outer loop
      vertex   7.516665e-02 2.153053e-02 8.000000e-03
      vertex   7.471449e-02 2.279938e-02 8.000000e-03
      vertex   7.554874e-02 2.191818e-02 8.000000e-03
    endloop
  endfacet
  facet normal 0.000000e+00 0.000000e+00 -1.000000e+00
    outer loop
      vertex   7.554874e-02 2.191818e-02 8.000000e-03
      vertex   7.471449e-02 2.279938e-02 8.000000e-03
      vertex   7.490482e-02 2.302037e-02 8.000000e-03
    endloop
  endfacet
  facet normal 0.000000e+00 0.000000e+00 -1.000000e+00
    outer loop
      vertex   7.554874e-02 2.191818e-02 8.000000e-03
      vertex   7.490482e-02 2.302037e-02 8.000000e-03
      vertex   7.589386e-02 2.233448e-02 8.000000e-03
    endloop
  endfacet
  facet normal 0.000000e+00 0.000000e+00 -1.000000e+00
    outer loop
      vertex   7.589386e-02 2.233448e-02 8.000000e-03
      vertex   7.490482e-02 2.302037e-02 8.000000e-03
      vertex   7.506879e-02 2.326243e-02 8.000000e-03
    endloop
  endfacet
  facet normal 0.000000e+00 0.000000e+00 -1.000000e+00
    outer loop
      vertex   7.589386e-02 2.233448e-02 8.000000e-03
      vertex   7.506879e-02 2.326243e-02 8.000000e-03
      vertex   7.521869e-02 2.351572e-02 8.000000e-03
    endloop
  endfacet
  facet normal -0.000000e+00 0.000000e+00 -1.000000e+00
    outer loop
      vertex   7.384318e-02 2.240788e-02 8.000000e-03
      vertex   7.363230e-02 2.111902e-02 8.000000e-03
      vertex   7.363773e-02 2.241801e-02 8.000000e-03
    endloop
  endfacet
  facet normal 0.000000e+00 0.000000e+00 -1.000000e+00
    outer loop
      vertex   7.363773e-02 2.241801e-02 8.000000e-03
      vertex   7.363230e-02 2.111902e-02 8.000000e-03
      vertex   7.340160e-02 2.114593e-02 8.000000e-03
    endloop
  endfacet
  facet normal -0.000000e+00 0.000000e+00 -1.000000e+00
    outer loop
      vertex   7.363773e-02 2.241801e-02 8.000000e-03
      vertex   7.340160e-02 2.114593e-02 8.000000e-03
      vertex   7.343385e-02 2.243903e-02 8.000000e-03
    endloop
  endfacet
  facet normal 0.000000e+00 0.000000e+00 -1.000000e+00
    outer loop
      vertex   7.343385e-02 2.243903e-02 8.000000e-03
      vertex   7.340160e-02 2.114593e-02 8.000000e-03
      vertex   7.317504e-02 2.119713e-02 8.000000e-03
    endloop
  endfacet
  facet normal -0.000000e+00 0.000000e+00 -1.000000e+00
    outer loop
      vertex   7.343385e-02 2.243903e-02 8.000000e-03
      vertex   7.317504e-02 2.119713e-02 8.000000e-03
      vertex   7.323254e-02 2.247775e-02 8.000000e-03
    endloop
  endfacet
  facet normal 0.000000e+00 0.000000e+00 -1.000000e+00
    outer loop
      vertex   7.323254e-02 2.247775e-02 8.000000e-03
      vertex   7.317504e-02 2.119713e-02 8.000000e-03
      vertex   7.295096e-02 2.126286e-02 8.000000e-03
    endloop
  endfacet
  facet normal -0.000000e+00 0.000000e+00 -1.000000e+00
    outer loop
      vertex   7.323254e-02 2.247775e-02 8.000000e-03
      vertex   7.295096e-02 2.126286e-02 8.000000e-03
      vertex   7.303274e-02 2.252684e-02 8.000000e-03
    endloop
  endfacet
  facet normal 0.000000e+00 -0.000000e+00 -1.000000e+00
    outer loop
      vertex   7.564993e-02 2.428899e-02 8.000000e-03
      vertex   7.646037e-02 2.326293e-02 8.000000e-03
      vertex   7.521869e-02 2.351572e-02 8.000000e-03
    endloop
  endfacet
  facet normal 0.000000e+00 0.000000e+00 -1.000000e+00
    outer loop
      vertex   7.521869e-02 2.351572e-02 8.000000e-03
      vertex   7.646037e-02 2.326293e-02 8.000000e-03
      vertex   7.619001e-02 2.278871e-02 8.000000e-03
    endloop
  endfacet
  facet normal 0.000000e+00 0.000000e+00 -1.000000e+00
    outer loop
      vertex   7.521869e-02 2.351572e-02 8.000000e-03
      vertex   7.619001e-02 2.278871e-02 8.000000e-03
      vertex   7.589386e-02 2.233448e-02 8.000000e-03
    endloop
  endfacet
  facet normal 0.000000e+00 0.000000e+00 -1.000000e+00
    outer loop
      vertex   7.433390e-02 3.220747e-02 8.000000e-03
      vertex   7.625219e-02 2.821477e-02 8.000000e-03
      vertex   7.564993e-02 2.428899e-02 8.000000e-03
    endloop
  endfacet
  facet normal 0.000000e+00 0.000000e+00 -1.000000e+00
    outer loop
      vertex   7.564993e-02 2.428899e-02 8.000000e-03
      vertex   7.625219e-02 2.821477e-02 8.000000e-03
      vertex   7.633719e-02 2.762481e-02 8.000000e-03
    endloop
  endfacet
  facet normal 0.000000e+00 0.000000e+00 -1.000000e+00
    outer loop
      vertex   7.564993e-02 2.428899e-02 8.000000e-03
      vertex   7.633719e-02 2.762481e-02 8.000000e-03
      vertex   7.641741e-02 2.703422e-02 8.000000e-03
    endloop
  endfacet
  facet normal 0.000000e+00 0.000000e+00 -1.000000e+00
    outer loop
      vertex   7.433390e-02 3.220747e-02 8.000000e-03
      vertex   7.565737e-02 3.220747e-02 8.000000e-03
      vertex   7.625219e-02 2.821477e-02 8.000000e-03
    endloop
  endfacet
  facet normal 0.000000e+00 -0.000000e+00 -1.000000e+00
    outer loop
      vertex   7.641741e-02 2.703422e-02 8.000000e-03
      vertex   7.648962e-02 2.644261e-02 8.000000e-03
      vertex   7.564993e-02 2.428899e-02 8.000000e-03
    endloop
  endfacet
  facet normal 0.000000e+00 0.000000e+00 -1.000000e+00
    outer loop
      vertex   7.564993e-02 2.428899e-02 8.000000e-03
      vertex   7.648962e-02 2.644261e-02 8.000000e-03
      vertex   7.655703e-02 2.585038e-02 8.000000e-03
    endloop
  endfacet
  facet normal 0.000000e+00 0.000000e+00 -1.000000e+00
    outer loop
      vertex   7.564993e-02 2.428899e-02 8.000000e-03
      vertex   7.655703e-02 2.585038e-02 8.000000e-03
      vertex   7.646037e-02 2.326293e-02 8.000000e-03
    endloop
  endfacet
  facet normal 0.000000e+00 0.000000e+00 -1.000000e+00
    outer loop
      vertex   7.646037e-02 2.326293e-02 8.000000e-03
      vertex   7.655703e-02 2.585038e-02 8.000000e-03
      vertex   8.149400e-02 3.220747e-02 8.000000e-03
    endloop
  endfacet
  facet normal -0.000000e+00 0.000000e+00 -1.000000e+00
    outer loop
      vertex   8.149400e-02 3.220747e-02 8.000000e-03
      vertex   7.655703e-02 2.585038e-02 8.000000e-03
      vertex   8.008875e-02 3.220747e-02 8.000000e-03
    endloop
  endfacet
endsolid
