solid ASCII
  facet normal 1.000000e+00 0.000000e+00 0.000000e+00
    outer loop
      vertex   5.608731e-03 2.000000e-02 1.600000e-02
      vertex   5.608731e-03 1.540000e-02 1.600000e-02
      vertex   5.608731e-03 2.000000e-02 8.000000e-03
    endloop
  endfacet
  facet normal 1.000000e+00 0.000000e+00 0.000000e+00
    outer loop
      vertex   5.608731e-03 2.000000e-02 8.000000e-03
      vertex   5.608731e-03 1.540000e-02 1.600000e-02
      vertex   5.608731e-03 1.540000e-02 8.000000e-03
    endloop
  endfacet
  facet normal -0.000000e+00 1.000000e+00 0.000000e+00
    outer loop
      vertex   5.000000e-03 2.000000e-02 1.600000e-02
      vertex   5.608731e-03 2.000000e-02 1.600000e-02
      vertex   5.000000e-03 2.000000e-02 8.000000e-03
    endloop
  endfacet
  facet normal 0.000000e+00 1.000000e+00 0.000000e+00
    outer loop
      vertex   5.000000e-03 2.000000e-02 8.000000e-03
      vertex   5.608731e-03 2.000000e-02 1.600000e-02
      vertex   5.608731e-03 2.000000e-02 8.000000e-03
    endloop
  endfacet
  facet normal -1.000000e+00 0.000000e+00 0.000000e+00
    outer loop
      vertex   5.000000e-03 1.540000e-02 1.600000e-02
      vertex   5.000000e-03 2.000000e-02 1.600000e-02
      vertex   5.000000e-03 1.540000e-02 8.000000e-03
    endloop
  endfacet
  facet normal -1.000000e+00 0.000000e+00 0.000000e+00
    outer loop
      vertex   5.000000e-03 1.540000e-02 8.000000e-03
      vertex   5.000000e-03 2.000000e-02 1.600000e-02
      vertex   5.000000e-03 2.000000e-02 8.000000e-03
    endloop
  endfacet
  facet normal -0.000000e+00 -1.000000e+00 -0.000000e+00
    outer loop
      vertex   5.608731e-03 1.540000e-02 1.600000e-02
      vertex   5.000000e-03 1.540000e-02 1.600000e-02
      vertex   5.608731e-03 1.540000e-02 8.000000e-03
    endloop
  endfacet
  facet normal 0.000000e+00 -1.000000e+00 0.000000e+00
    outer loop
      vertex   5.608731e-03 1.540000e-02 8.000000e-03
      vertex   5.000000e-03 1.540000e-02 1.600000e-02
      vertex   5.000000e-03 1.540000e-02 8.000000e-03
    endloop
  endfacet
  facet normal 0.000000e+00 0.000000e+00 1.000000e+00
    outer loop
      vertex   5.000000e-03 1.540000e-02 1.600000e-02
      vertex   5.608731e-03 1.540000e-02 1.600000e-02
      vertex   5.000000e-03 2.000000e-02 1.600000e-02
    endloop
  endfacet
  facet normal -0.000000e+00 0.000000e+00 1.000000e+00
    outer loop
      vertex   5.000000e-03 2.000000e-02 1.600000e-02
      vertex   5.608731e-03 1.540000e-02 1.600000e-02
      vertex   5.608731e-03 2.000000e-02 1.600000e-02
    endloop
  endfacet
  facet normal 0.000000e+00 0.000000e+00 -1.000000e+00
    outer loop
      vertex   5.608731e-03 1.540000e-02 8.000000e-03
      vertex   5.000000e-03 1.540000e-02 8.000000e-03
      vertex   5.608731e-03 2.000000e-02 8.000000e-03
    endloop
  endfacet
  facet normal -0.000000e+00 0.000000e+00 -1.000000e+00
    outer loop
      vertex   5.608731e-03 2.000000e-02 8.000000e-03
      vertex   5.000000e-03 1.540000e-02 8.000000e-03
      vertex   5.000000e-03 2.000000e-02 8.000000e-03
    endloop
  endfacet
endsolid
