solid ASCII
  facet normal 1.000000e+00 0.000000e+00 0.000000e+00
    outer loop
      vertex   1.813672e-02 1.734857e-02 1.600000e-02
      vertex   1.813672e-02 1.678063e-02 1.600000e-02
      vertex   1.813672e-02 1.734857e-02 8.000000e-03
    endloop
  endfacet
  facet normal 1.000000e+00 0.000000e+00 0.000000e+00
    outer loop
      vertex   1.813672e-02 1.734857e-02 8.000000e-03
      vertex   1.813672e-02 1.678063e-02 1.600000e-02
      vertex   1.813672e-02 1.678063e-02 8.000000e-03
    endloop
  endfacet
  facet normal -0.000000e+00 1.000000e+00 0.000000e+00
    outer loop
      vertex   1.640152e-02 1.734857e-02 1.600000e-02
      vertex   1.813672e-02 1.734857e-02 1.600000e-02
      vertex   1.640152e-02 1.734857e-02 8.000000e-03
    endloop
  endfacet
  facet normal 0.000000e+00 1.000000e+00 0.000000e+00
    outer loop
      vertex   1.640152e-02 1.734857e-02 8.000000e-03
      vertex   1.813672e-02 1.734857e-02 1.600000e-02
      vertex   1.813672e-02 1.734857e-02 8.000000e-03
    endloop
  endfacet
  facet normal -1.000000e+00 0.000000e+00 0.000000e+00
    outer loop
      vertex   1.640152e-02 1.678063e-02 1.600000e-02
      vertex   1.640152e-02 1.734857e-02 1.600000e-02
      vertex   1.640152e-02 1.678063e-02 8.000000e-03
    endloop
  endfacet
  facet normal -1.000000e+00 0.000000e+00 0.000000e+00
    outer loop
      vertex   1.640152e-02 1.678063e-02 8.000000e-03
      vertex   1.640152e-02 1.734857e-02 1.600000e-02
      vertex   1.640152e-02 1.734857e-02 8.000000e-03
    endloop
  endfacet
  facet normal -0.000000e+00 -1.000000e+00 -0.000000e+00
    outer loop
      vertex   1.813672e-02 1.678063e-02 1.600000e-02
      vertex   1.640152e-02 1.678063e-02 1.600000e-02
      vertex   1.813672e-02 1.678063e-02 8.000000e-03
    endloop
  endfacet
  facet normal 0.000000e+00 -1.000000e+00 0.000000e+00
    outer loop
      vertex   1.813672e-02 1.678063e-02 8.000000e-03
      vertex   1.640152e-02 1.678063e-02 1.600000e-02
      vertex   1.640152e-02 1.678063e-02 8.000000e-03
    endloop
  endfacet
  facet normal 0.000000e+00 0.000000e+00 1.000000e+00
    outer loop
      vertex   1.640152e-02 1.678063e-02 1.600000e-02
      vertex   1.813672e-02 1.678063e-02 1.600000e-02
      vertex   1.640152e-02 1.734857e-02 1.600000e-02
    endloop
  endfacet
  facet normal -0.000000e+00 0.000000e+00 1.000000e+00
    outer loop
      vertex   1.640152e-02 1.734857e-02 1.600000e-02
      vertex   1.813672e-02 1.678063e-02 1.600000e-02
      vertex   1.813672e-02 1.734857e-02 1.600000e-02
    endloop
  endfacet
  facet normal 0.000000e+00 0.000000e+00 -1.000000e+00
    outer loop
      vertex   1.813672e-02 1.678063e-02 8.000000e-03
      vertex   1.640152e-02 1.678063e-02 8.000000e-03
      vertex   1.813672e-02 1.734857e-02 8.000000e-03
    endloop
  endfacet
  facet normal -0.000000e+00 0.000000e+00 -1.000000e+00
    outer loop
      vertex   1.813672e-02 1.734857e-02 8.000000e-03
      vertex   1.640152e-02 1.678063e-02 8.000000e-03
      vertex   1.640152e-02 1.734857e-02 8.000000e-03
    endloop
  endfacet
endsolid
