solid ASCII
  facet normal 1.057802e-01 -9.943895e-01 0.000000e+00
    outer loop
      vertex   2.344898e-02 4.918699e-02 8.000000e-03
      vertex   2.344898e-02 4.918699e-02 1.600000e-02
      vertex   2.327103e-02 4.916806e-02 1.200000e-02
    endloop
  endfacet
  facet normal 1.057802e-01 -9.943895e-01 0.000000e+00
    outer loop
      vertex   2.327103e-02 4.916806e-02 1.200000e-02
      vertex   2.344898e-02 4.918699e-02 1.600000e-02
      vertex   2.327103e-02 4.916806e-02 1.600000e-02
    endloop
  endfacet
  facet normal 2.482701e-01 -9.686908e-01 0.000000e+00
    outer loop
      vertex   2.327103e-02 4.916806e-02 1.200000e-02
      vertex   2.327103e-02 4.916806e-02 1.600000e-02
      vertex   2.310277e-02 4.912494e-02 1.600000e-02
    endloop
  endfacet
  facet normal 2.482701e-01 -9.686908e-01 1.895416e-15
    outer loop
      vertex   2.327103e-02 4.916806e-02 1.200000e-02
      vertex   2.310277e-02 4.912494e-02 1.600000e-02
      vertex   2.310277e-02 4.912494e-02 1.200000e-02
    endloop
  endfacet
  facet normal 4.837694e-01 -8.751955e-01 1.937825e-15
    outer loop
      vertex   2.310277e-02 4.912494e-02 1.200000e-02
      vertex   2.310277e-02 4.912494e-02 1.600000e-02
      vertex   2.295090e-02 4.904099e-02 1.600000e-02
    endloop
  endfacet
  facet normal 4.837694e-01 -8.751955e-01 4.194672e-16
    outer loop
      vertex   2.310277e-02 4.912494e-02 1.200000e-02
      vertex   2.295090e-02 4.904099e-02 1.600000e-02
      vertex   2.295090e-02 4.904099e-02 1.200000e-02
    endloop
  endfacet
  facet normal 6.083120e-01 -7.936980e-01 5.276266e-16
    outer loop
      vertex   2.295090e-02 4.904099e-02 1.200000e-02
      vertex   2.295090e-02 4.904099e-02 1.600000e-02
      vertex   2.280898e-02 4.893222e-02 1.600000e-02
    endloop
  endfacet
  facet normal 6.083120e-01 -7.936980e-01 0.000000e+00
    outer loop
      vertex   2.295090e-02 4.904099e-02 1.200000e-02
      vertex   2.280898e-02 4.893222e-02 1.600000e-02
      vertex   2.280898e-02 4.893222e-02 8.000000e-03
    endloop
  endfacet
  facet normal 6.083120e-01 -7.936980e-01 -5.273716e-16
    outer loop
      vertex   2.280898e-02 4.893222e-02 8.000000e-03
      vertex   2.295090e-02 4.904099e-02 8.000000e-03
      vertex   2.295090e-02 4.904099e-02 1.200000e-02
    endloop
  endfacet
  facet normal 4.837694e-01 -8.751955e-01 -4.196031e-16
    outer loop
      vertex   2.295090e-02 4.904099e-02 1.200000e-02
      vertex   2.295090e-02 4.904099e-02 8.000000e-03
      vertex   2.310277e-02 4.912494e-02 8.000000e-03
    endloop
  endfacet
  facet normal 4.837694e-01 -8.751955e-01 -1.937652e-15
    outer loop
      vertex   2.295090e-02 4.904099e-02 1.200000e-02
      vertex   2.310277e-02 4.912494e-02 8.000000e-03
      vertex   2.310277e-02 4.912494e-02 1.200000e-02
    endloop
  endfacet
  facet normal 2.482701e-01 -9.686908e-01 -1.895751e-15
    outer loop
      vertex   2.310277e-02 4.912494e-02 1.200000e-02
      vertex   2.310277e-02 4.912494e-02 8.000000e-03
      vertex   2.327103e-02 4.916806e-02 8.000000e-03
    endloop
  endfacet
  facet normal 2.482701e-01 -9.686908e-01 0.000000e+00
    outer loop
      vertex   2.310277e-02 4.912494e-02 1.200000e-02
      vertex   2.327103e-02 4.916806e-02 8.000000e-03
      vertex   2.327103e-02 4.916806e-02 1.200000e-02
    endloop
  endfacet
  facet normal 1.057802e-01 -9.943895e-01 0.000000e+00
    outer loop
      vertex   2.327103e-02 4.916806e-02 1.200000e-02
      vertex   2.327103e-02 4.916806e-02 8.000000e-03
      vertex   2.344898e-02 4.918699e-02 8.000000e-03
    endloop
  endfacet
  facet normal -6.814774e-01 -7.318391e-01 -0.000000e+00
    outer loop
      vertex   2.413350e-02 4.886776e-02 1.600000e-02
      vertex   2.398828e-02 4.900298e-02 1.600000e-02
      vertex   2.413350e-02 4.886776e-02 8.000000e-03
    endloop
  endfacet
  facet normal -6.814774e-01 -7.318391e-01 0.000000e+00
    outer loop
      vertex   2.413350e-02 4.886776e-02 8.000000e-03
      vertex   2.398828e-02 4.900298e-02 1.600000e-02
      vertex   2.398828e-02 4.900298e-02 8.000000e-03
    endloop
  endfacet
  facet normal -5.497461e-01 -8.353318e-01 0.000000e+00
    outer loop
      vertex   2.398828e-02 4.900298e-02 8.000000e-03
      vertex   2.398828e-02 4.900298e-02 1.600000e-02
      vertex   2.382889e-02 4.910788e-02 1.600000e-02
    endloop
  endfacet
  facet normal -5.497461e-01 -8.353318e-01 0.000000e+00
    outer loop
      vertex   2.398828e-02 4.900298e-02 8.000000e-03
      vertex   2.382889e-02 4.910788e-02 1.600000e-02
      vertex   2.382889e-02 4.910788e-02 8.000000e-03
    endloop
  endfacet
  facet normal -2.859459e-01 -9.582458e-01 0.000000e+00
    outer loop
      vertex   2.382889e-02 4.910788e-02 8.000000e-03
      vertex   2.382889e-02 4.910788e-02 1.600000e-02
      vertex   2.364596e-02 4.916247e-02 1.600000e-02
    endloop
  endfacet
  facet normal -2.859459e-01 -9.582458e-01 0.000000e+00
    outer loop
      vertex   2.382889e-02 4.910788e-02 8.000000e-03
      vertex   2.364596e-02 4.916247e-02 1.600000e-02
      vertex   2.364596e-02 4.916247e-02 8.000000e-03
    endloop
  endfacet
  facet normal -1.235588e-01 -9.923373e-01 0.000000e+00
    outer loop
      vertex   2.364596e-02 4.916247e-02 8.000000e-03
      vertex   2.364596e-02 4.916247e-02 1.600000e-02
      vertex   2.344898e-02 4.918699e-02 1.600000e-02
    endloop
  endfacet
  facet normal -1.235588e-01 -9.923373e-01 0.000000e+00
    outer loop
      vertex   2.364596e-02 4.916247e-02 8.000000e-03
      vertex   2.344898e-02 4.918699e-02 1.600000e-02
      vertex   2.344898e-02 4.918699e-02 8.000000e-03
    endloop
  endfacet
  facet normal -9.917074e-01 -1.285159e-01 0.000000e+00
    outer loop
      vertex   2.434223e-02 4.825077e-02 8.000000e-03
      vertex   2.434223e-02 4.825077e-02 1.600000e-02
      vertex   2.432082e-02 4.841602e-02 1.200000e-02
    endloop
  endfacet
  facet normal -9.917074e-01 -1.285159e-01 -1.720338e-15
    outer loop
      vertex   2.432082e-02 4.841602e-02 1.200000e-02
      vertex   2.434223e-02 4.825077e-02 1.600000e-02
      vertex   2.432082e-02 4.841602e-02 1.600000e-02
    endloop
  endfacet
  facet normal -9.742131e-01 -2.256297e-01 -1.689990e-15
    outer loop
      vertex   2.432082e-02 4.841602e-02 1.200000e-02
      vertex   2.432082e-02 4.841602e-02 1.600000e-02
      vertex   2.428383e-02 4.857570e-02 1.600000e-02
    endloop
  endfacet
  facet normal -9.742131e-01 -2.256297e-01 -3.911133e-16
    outer loop
      vertex   2.432082e-02 4.841602e-02 1.200000e-02
      vertex   2.428383e-02 4.857570e-02 1.600000e-02
      vertex   2.428383e-02 4.857570e-02 1.200000e-02
    endloop
  endfacet
  facet normal -9.161411e-01 -4.008560e-01 -6.953742e-16
    outer loop
      vertex   2.428383e-02 4.857570e-02 1.200000e-02
      vertex   2.428383e-02 4.857570e-02 1.600000e-02
      vertex   2.421841e-02 4.872521e-02 1.600000e-02
    endloop
  endfacet
  facet normal -9.161411e-01 -4.008560e-01 -6.943884e-16
    outer loop
      vertex   2.428383e-02 4.857570e-02 1.200000e-02
      vertex   2.421841e-02 4.872521e-02 1.600000e-02
      vertex   2.421841e-02 4.872521e-02 1.200000e-02
    endloop
  endfacet
  facet normal -8.591114e-01 -5.117887e-01 -8.878118e-16
    outer loop
      vertex   2.421841e-02 4.872521e-02 1.200000e-02
      vertex   2.421841e-02 4.872521e-02 1.600000e-02
      vertex   2.413350e-02 4.886776e-02 1.600000e-02
    endloop
  endfacet
  facet normal -8.591114e-01 -5.117887e-01 0.000000e+00
    outer loop
      vertex   2.421841e-02 4.872521e-02 1.200000e-02
      vertex   2.413350e-02 4.886776e-02 1.600000e-02
      vertex   2.413350e-02 4.886776e-02 8.000000e-03
    endloop
  endfacet
  facet normal -8.591114e-01 -5.117887e-01 8.874092e-16
    outer loop
      vertex   2.413350e-02 4.886776e-02 8.000000e-03
      vertex   2.421841e-02 4.872521e-02 8.000000e-03
      vertex   2.421841e-02 4.872521e-02 1.200000e-02
    endloop
  endfacet
  facet normal -9.161411e-01 -4.008560e-01 6.953742e-16
    outer loop
      vertex   2.421841e-02 4.872521e-02 1.200000e-02
      vertex   2.421841e-02 4.872521e-02 8.000000e-03
      vertex   2.428383e-02 4.857570e-02 8.000000e-03
    endloop
  endfacet
  facet normal -9.161411e-01 -4.008560e-01 6.969226e-16
    outer loop
      vertex   2.421841e-02 4.872521e-02 1.200000e-02
      vertex   2.428383e-02 4.857570e-02 8.000000e-03
      vertex   2.428383e-02 4.857570e-02 1.200000e-02
    endloop
  endfacet
  facet normal -9.742131e-01 -2.256297e-01 3.914051e-16
    outer loop
      vertex   2.428383e-02 4.857570e-02 1.200000e-02
      vertex   2.428383e-02 4.857570e-02 8.000000e-03
      vertex   2.432082e-02 4.841602e-02 8.000000e-03
    endloop
  endfacet
  facet normal -9.742131e-01 -2.256297e-01 1.689357e-15
    outer loop
      vertex   2.428383e-02 4.857570e-02 1.200000e-02
      vertex   2.432082e-02 4.841602e-02 8.000000e-03
      vertex   2.432082e-02 4.841602e-02 1.200000e-02
    endloop
  endfacet
  facet normal -9.917074e-01 -1.285159e-01 1.720338e-15
    outer loop
      vertex   2.432082e-02 4.841602e-02 1.200000e-02
      vertex   2.432082e-02 4.841602e-02 8.000000e-03
      vertex   2.434223e-02 4.825077e-02 8.000000e-03
    endloop
  endfacet
  facet normal -0.000000e+00 1.000000e+00 0.000000e+00
    outer loop
      vertex   2.252197e-02 4.825077e-02 1.600000e-02
      vertex   2.434223e-02 4.825077e-02 1.600000e-02
      vertex   2.252197e-02 4.825077e-02 8.000000e-03
    endloop
  endfacet
  facet normal 0.000000e+00 1.000000e+00 0.000000e+00
    outer loop
      vertex   2.252197e-02 4.825077e-02 8.000000e-03
      vertex   2.434223e-02 4.825077e-02 1.600000e-02
      vertex   2.434223e-02 4.825077e-02 8.000000e-03
    endloop
  endfacet
  facet normal 7.914931e-01 -6.111781e-01 0.000000e+00
    outer loop
      vertex   2.280898e-02 4.893222e-02 8.000000e-03
      vertex   2.280898e-02 4.893222e-02 1.600000e-02
      vertex   2.269236e-02 4.878120e-02 1.200000e-02
    endloop
  endfacet
  facet normal 7.914931e-01 -6.111781e-01 1.373022e-15
    outer loop
      vertex   2.269236e-02 4.878120e-02 1.200000e-02
      vertex   2.280898e-02 4.893222e-02 1.600000e-02
      vertex   2.269236e-02 4.878120e-02 1.600000e-02
    endloop
  endfacet
  facet normal 8.710629e-01 -4.911715e-01 1.511053e-15
    outer loop
      vertex   2.269236e-02 4.878120e-02 1.200000e-02
      vertex   2.269236e-02 4.878120e-02 1.600000e-02
      vertex   2.260106e-02 4.861927e-02 1.600000e-02
    endloop
  endfacet
  facet normal 8.710629e-01 -4.911715e-01 9.789233e-17
    outer loop
      vertex   2.269236e-02 4.878120e-02 1.200000e-02
      vertex   2.260106e-02 4.861927e-02 1.600000e-02
      vertex   2.260106e-02 4.861927e-02 1.200000e-02
    endloop
  endfacet
  facet normal 9.616687e-01 -2.742140e-01 -3.584291e-16
    outer loop
      vertex   2.260106e-02 4.861927e-02 1.200000e-02
      vertex   2.260106e-02 4.861927e-02 1.600000e-02
      vertex   2.254994e-02 4.844001e-02 1.600000e-02
    endloop
  endfacet
  facet normal 9.616687e-01 -2.742140e-01 -1.550922e-15
    outer loop
      vertex   2.260106e-02 4.861927e-02 1.200000e-02
      vertex   2.254994e-02 4.844001e-02 1.600000e-02
      vertex   2.254994e-02 4.844001e-02 1.200000e-02
    endloop
  endfacet
  facet normal 9.892537e-01 -1.462089e-01 -2.066859e-15
    outer loop
      vertex   2.254994e-02 4.844001e-02 1.200000e-02
      vertex   2.254994e-02 4.844001e-02 1.600000e-02
      vertex   2.252197e-02 4.825077e-02 1.600000e-02
    endloop
  endfacet
  facet normal 9.892537e-01 -1.462089e-01 0.000000e+00
    outer loop
      vertex   2.254994e-02 4.844001e-02 1.200000e-02
      vertex   2.252197e-02 4.825077e-02 1.600000e-02
      vertex   2.252197e-02 4.825077e-02 8.000000e-03
    endloop
  endfacet
  facet normal 9.892537e-01 -1.462089e-01 2.066914e-15
    outer loop
      vertex   2.252197e-02 4.825077e-02 8.000000e-03
      vertex   2.254994e-02 4.844001e-02 8.000000e-03
      vertex   2.254994e-02 4.844001e-02 1.200000e-02
    endloop
  endfacet
  facet normal 9.616687e-01 -2.742140e-01 1.550973e-15
    outer loop
      vertex   2.254994e-02 4.844001e-02 1.200000e-02
      vertex   2.254994e-02 4.844001e-02 8.000000e-03
      vertex   2.260106e-02 4.861927e-02 8.000000e-03
    endloop
  endfacet
  facet normal 9.616687e-01 -2.742140e-01 3.594412e-16
    outer loop
      vertex   2.254994e-02 4.844001e-02 1.200000e-02
      vertex   2.260106e-02 4.861927e-02 8.000000e-03
      vertex   2.260106e-02 4.861927e-02 1.200000e-02
    endloop
  endfacet
  facet normal 8.710629e-01 -4.911715e-01 -9.652000e-17
    outer loop
      vertex   2.260106e-02 4.861927e-02 1.200000e-02
      vertex   2.260106e-02 4.861927e-02 8.000000e-03
      vertex   2.269236e-02 4.878120e-02 8.000000e-03
    endloop
  endfacet
  facet normal 8.710629e-01 -4.911715e-01 -1.510657e-15
    outer loop
      vertex   2.260106e-02 4.861927e-02 1.200000e-02
      vertex   2.269236e-02 4.878120e-02 8.000000e-03
      vertex   2.269236e-02 4.878120e-02 1.200000e-02
    endloop
  endfacet
  facet normal 7.914931e-01 -6.111781e-01 -1.373022e-15
    outer loop
      vertex   2.269236e-02 4.878120e-02 1.200000e-02
      vertex   2.269236e-02 4.878120e-02 8.000000e-03
      vertex   2.280898e-02 4.893222e-02 8.000000e-03
    endloop
  endfacet
  facet normal -7.782336e-02 9.969672e-01 0.000000e+00
    outer loop
      vertex   2.347661e-02 4.668836e-02 8.000000e-03
      vertex   2.347661e-02 4.668836e-02 1.600000e-02
      vertex   2.361542e-02 4.669919e-02 1.200000e-02
    endloop
  endfacet
  facet normal -7.782336e-02 9.969672e-01 -1.729462e-15
    outer loop
      vertex   2.361542e-02 4.669919e-02 1.200000e-02
      vertex   2.347661e-02 4.668836e-02 1.600000e-02
      vertex   2.361542e-02 4.669919e-02 1.600000e-02
    endloop
  endfacet
  facet normal -1.927472e-01 9.812484e-01 -1.702195e-15
    outer loop
      vertex   2.361542e-02 4.669919e-02 1.200000e-02
      vertex   2.361542e-02 4.669919e-02 1.600000e-02
      vertex   2.374938e-02 4.672551e-02 1.600000e-02
    endloop
  endfacet
  facet normal -1.927472e-01 9.812484e-01 0.000000e+00
    outer loop
      vertex   2.361542e-02 4.669919e-02 1.200000e-02
      vertex   2.374938e-02 4.672551e-02 1.600000e-02
      vertex   2.374938e-02 4.672551e-02 1.200000e-02
    endloop
  endfacet
  facet normal -3.884707e-01 9.214611e-01 0.000000e+00
    outer loop
      vertex   2.374938e-02 4.672551e-02 1.200000e-02
      vertex   2.374938e-02 4.672551e-02 1.600000e-02
      vertex   2.387497e-02 4.677845e-02 1.600000e-02
    endloop
  endfacet
  facet normal -3.884707e-01 9.214611e-01 -3.198258e-15
    outer loop
      vertex   2.374938e-02 4.672551e-02 1.200000e-02
      vertex   2.387497e-02 4.677845e-02 1.600000e-02
      vertex   2.387497e-02 4.677845e-02 1.200000e-02
    endloop
  endfacet
  facet normal -5.000597e-01 8.659909e-01 -3.004510e-15
    outer loop
      vertex   2.387497e-02 4.677845e-02 1.200000e-02
      vertex   2.387497e-02 4.677845e-02 1.600000e-02
      vertex   2.399537e-02 4.684798e-02 1.600000e-02
    endloop
  endfacet
  facet normal -5.000597e-01 8.659909e-01 0.000000e+00
    outer loop
      vertex   2.387497e-02 4.677845e-02 1.200000e-02
      vertex   2.399537e-02 4.684798e-02 1.600000e-02
      vertex   2.399537e-02 4.684798e-02 8.000000e-03
    endloop
  endfacet
  facet normal -5.000597e-01 8.659909e-01 3.001716e-15
    outer loop
      vertex   2.399537e-02 4.684798e-02 8.000000e-03
      vertex   2.387497e-02 4.677845e-02 8.000000e-03
      vertex   2.387497e-02 4.677845e-02 1.200000e-02
    endloop
  endfacet
  facet normal -3.884707e-01 9.214611e-01 3.196960e-15
    outer loop
      vertex   2.387497e-02 4.677845e-02 1.200000e-02
      vertex   2.387497e-02 4.677845e-02 8.000000e-03
      vertex   2.374938e-02 4.672551e-02 8.000000e-03
    endloop
  endfacet
  facet normal -3.884707e-01 9.214611e-01 0.000000e+00
    outer loop
      vertex   2.387497e-02 4.677845e-02 1.200000e-02
      vertex   2.374938e-02 4.672551e-02 8.000000e-03
      vertex   2.374938e-02 4.672551e-02 1.200000e-02
    endloop
  endfacet
  facet normal -1.927472e-01 9.812484e-01 0.000000e+00
    outer loop
      vertex   2.374938e-02 4.672551e-02 1.200000e-02
      vertex   2.374938e-02 4.672551e-02 8.000000e-03
      vertex   2.361542e-02 4.669919e-02 8.000000e-03
    endloop
  endfacet
  facet normal -1.927472e-01 9.812484e-01 1.702643e-15
    outer loop
      vertex   2.374938e-02 4.672551e-02 1.200000e-02
      vertex   2.361542e-02 4.669919e-02 8.000000e-03
      vertex   2.361542e-02 4.669919e-02 1.200000e-02
    endloop
  endfacet
  facet normal -7.782336e-02 9.969672e-01 1.729462e-15
    outer loop
      vertex   2.361542e-02 4.669919e-02 1.200000e-02
      vertex   2.361542e-02 4.669919e-02 8.000000e-03
      vertex   2.347661e-02 4.668836e-02 8.000000e-03
    endloop
  endfacet
  facet normal 6.312128e-01 7.756097e-01 -0.000000e+00
    outer loop
      vertex   2.279516e-02 4.697383e-02 8.000000e-03
      vertex   2.279516e-02 4.697383e-02 1.600000e-02
      vertex   2.294442e-02 4.685236e-02 1.200000e-02
    endloop
  endfacet
  facet normal 6.312128e-01 7.756097e-01 -1.345468e-15
    outer loop
      vertex   2.294442e-02 4.685236e-02 1.200000e-02
      vertex   2.279516e-02 4.697383e-02 1.600000e-02
      vertex   2.294442e-02 4.685236e-02 1.600000e-02
    endloop
  endfacet
  facet normal 5.043847e-01 8.634790e-01 -1.497897e-15
    outer loop
      vertex   2.294442e-02 4.685236e-02 1.200000e-02
      vertex   2.294442e-02 4.685236e-02 1.600000e-02
      vertex   2.310527e-02 4.675840e-02 1.600000e-02
    endloop
  endfacet
  facet normal 5.043847e-01 8.634790e-01 1.936096e-15
    outer loop
      vertex   2.294442e-02 4.685236e-02 1.200000e-02
      vertex   2.310527e-02 4.675840e-02 1.600000e-02
      vertex   2.310527e-02 4.675840e-02 1.200000e-02
    endloop
  endfacet
  facet normal 2.603297e-01 9.655198e-01 1.900710e-15
    outer loop
      vertex   2.310527e-02 4.675840e-02 1.200000e-02
      vertex   2.310527e-02 4.675840e-02 1.600000e-02
      vertex   2.328525e-02 4.670987e-02 1.600000e-02
    endloop
  endfacet
  facet normal 2.603297e-01 9.655198e-01 2.263090e-16
    outer loop
      vertex   2.310527e-02 4.675840e-02 1.200000e-02
      vertex   2.328525e-02 4.670987e-02 1.600000e-02
      vertex   2.328525e-02 4.670987e-02 1.200000e-02
    endloop
  endfacet
  facet normal 1.117427e-01 9.937372e-01 9.692135e-17
    outer loop
      vertex   2.328525e-02 4.670987e-02 1.200000e-02
      vertex   2.328525e-02 4.670987e-02 1.600000e-02
      vertex   2.347661e-02 4.668836e-02 1.600000e-02
    endloop
  endfacet
  facet normal 1.117427e-01 9.937372e-01 0.000000e+00
    outer loop
      vertex   2.328525e-02 4.670987e-02 1.200000e-02
      vertex   2.347661e-02 4.668836e-02 1.600000e-02
      vertex   2.347661e-02 4.668836e-02 8.000000e-03
    endloop
  endfacet
  facet normal 1.117427e-01 9.937372e-01 -9.772415e-17
    outer loop
      vertex   2.347661e-02 4.668836e-02 8.000000e-03
      vertex   2.328525e-02 4.670987e-02 8.000000e-03
      vertex   2.328525e-02 4.670987e-02 1.200000e-02
    endloop
  endfacet
  facet normal 2.603297e-01 9.655198e-01 -2.258000e-16
    outer loop
      vertex   2.328525e-02 4.670987e-02 1.200000e-02
      vertex   2.328525e-02 4.670987e-02 8.000000e-03
      vertex   2.310527e-02 4.675840e-02 8.000000e-03
    endloop
  endfacet
  facet normal 2.603297e-01 9.655198e-01 -1.901439e-15
    outer loop
      vertex   2.328525e-02 4.670987e-02 1.200000e-02
      vertex   2.310527e-02 4.675840e-02 8.000000e-03
      vertex   2.310527e-02 4.675840e-02 1.200000e-02
    endloop
  endfacet
  facet normal 5.043847e-01 8.634790e-01 -1.935381e-15
    outer loop
      vertex   2.310527e-02 4.675840e-02 1.200000e-02
      vertex   2.310527e-02 4.675840e-02 8.000000e-03
      vertex   2.294442e-02 4.685236e-02 8.000000e-03
    endloop
  endfacet
  facet normal 5.043847e-01 8.634790e-01 1.496478e-15
    outer loop
      vertex   2.310527e-02 4.675840e-02 1.200000e-02
      vertex   2.294442e-02 4.685236e-02 8.000000e-03
      vertex   2.294442e-02 4.685236e-02 1.200000e-02
    endloop
  endfacet
  facet normal 6.312128e-01 7.756097e-01 1.345468e-15
    outer loop
      vertex   2.294442e-02 4.685236e-02 1.200000e-02
      vertex   2.294442e-02 4.685236e-02 8.000000e-03
      vertex   2.279516e-02 4.697383e-02 8.000000e-03
    endloop
  endfacet
  facet normal 9.932009e-01 1.164129e-01 0.000000e+00
    outer loop
      vertex   2.249128e-02 4.779647e-02 1.600000e-02
      vertex   2.251763e-02 4.757162e-02 1.600000e-02
      vertex   2.249128e-02 4.779647e-02 8.000000e-03
    endloop
  endfacet
  facet normal 9.932009e-01 1.164129e-01 0.000000e+00
    outer loop
      vertex   2.249128e-02 4.779647e-02 8.000000e-03
      vertex   2.251763e-02 4.757162e-02 1.600000e-02
      vertex   2.251763e-02 4.757162e-02 8.000000e-03
    endloop
  endfacet
  facet normal 9.720460e-01 2.347905e-01 -0.000000e+00
    outer loop
      vertex   2.251763e-02 4.757162e-02 8.000000e-03
      vertex   2.251763e-02 4.757162e-02 1.600000e-02
      vertex   2.256955e-02 4.735666e-02 1.600000e-02
    endloop
  endfacet
  facet normal 9.720460e-01 2.347905e-01 0.000000e+00
    outer loop
      vertex   2.251763e-02 4.757162e-02 8.000000e-03
      vertex   2.256955e-02 4.735666e-02 1.600000e-02
      vertex   2.256955e-02 4.735666e-02 8.000000e-03
    endloop
  endfacet
  facet normal 8.961106e-01 4.438308e-01 -0.000000e+00
    outer loop
      vertex   2.256955e-02 4.735666e-02 8.000000e-03
      vertex   2.256955e-02 4.735666e-02 1.600000e-02
      vertex   2.266725e-02 4.715940e-02 1.600000e-02
    endloop
  endfacet
  facet normal 8.961106e-01 4.438308e-01 0.000000e+00
    outer loop
      vertex   2.256955e-02 4.735666e-02 8.000000e-03
      vertex   2.266725e-02 4.715940e-02 1.600000e-02
      vertex   2.266725e-02 4.715940e-02 8.000000e-03
    endloop
  endfacet
  facet normal 8.233592e-01 5.675206e-01 -0.000000e+00
    outer loop
      vertex   2.266725e-02 4.715940e-02 8.000000e-03
      vertex   2.266725e-02 4.715940e-02 1.600000e-02
      vertex   2.279516e-02 4.697383e-02 1.600000e-02
    endloop
  endfacet
  facet normal 8.233592e-01 5.675206e-01 0.000000e+00
    outer loop
      vertex   2.266725e-02 4.715940e-02 8.000000e-03
      vertex   2.279516e-02 4.697383e-02 1.600000e-02
      vertex   2.279516e-02 4.697383e-02 8.000000e-03
    endloop
  endfacet
  facet normal -0.000000e+00 -1.000000e+00 -0.000000e+00
    outer loop
      vertex   2.492238e-02 4.779647e-02 1.600000e-02
      vertex   2.249128e-02 4.779647e-02 1.600000e-02
      vertex   2.492238e-02 4.779647e-02 8.000000e-03
    endloop
  endfacet
  facet normal 0.000000e+00 -1.000000e+00 0.000000e+00
    outer loop
      vertex   2.492238e-02 4.779647e-02 8.000000e-03
      vertex   2.249128e-02 4.779647e-02 1.600000e-02
      vertex   2.249128e-02 4.779647e-02 8.000000e-03
    endloop
  endfacet
  facet normal 9.999438e-01 -1.060022e-02 -3.469252e-15
    outer loop
      vertex   2.492506e-02 4.790697e-02 1.600000e-02
      vertex   2.492506e-02 4.790697e-02 1.500000e-02
      vertex   2.492545e-02 4.794381e-02 1.600000e-02
    endloop
  endfacet
  facet normal 9.999438e-01 -1.060022e-02 0.000000e+00
    outer loop
      vertex   2.492545e-02 4.794381e-02 1.600000e-02
      vertex   2.492506e-02 4.790697e-02 1.500000e-02
      vertex   2.492506e-02 4.790697e-02 1.400000e-02
    endloop
  endfacet
  facet normal 9.999438e-01 -1.060022e-02 0.000000e+00
    outer loop
      vertex   2.492545e-02 4.794381e-02 1.600000e-02
      vertex   2.492506e-02 4.790697e-02 1.400000e-02
      vertex   2.492506e-02 4.790697e-02 1.300000e-02
    endloop
  endfacet
  facet normal 9.998562e-01 -1.696095e-02 0.000000e+00
    outer loop
      vertex   2.492506e-02 4.790697e-02 1.300000e-02
      vertex   2.492506e-02 4.790697e-02 1.400000e-02
      vertex   2.492444e-02 4.787013e-02 1.400000e-02
    endloop
  endfacet
  facet normal 9.998562e-01 -1.696095e-02 0.000000e+00
    outer loop
      vertex   2.492506e-02 4.790697e-02 1.300000e-02
      vertex   2.492444e-02 4.787013e-02 1.400000e-02
      vertex   2.492444e-02 4.787013e-02 1.300000e-02
    endloop
  endfacet
  facet normal 9.996723e-01 -2.559812e-02 0.000000e+00
    outer loop
      vertex   2.492444e-02 4.787013e-02 1.300000e-02
      vertex   2.492444e-02 4.787013e-02 1.400000e-02
      vertex   2.492349e-02 4.783330e-02 1.400000e-02
    endloop
  endfacet
  facet normal 9.996723e-01 -2.559812e-02 0.000000e+00
    outer loop
      vertex   2.492444e-02 4.787013e-02 1.300000e-02
      vertex   2.492349e-02 4.783330e-02 1.400000e-02
      vertex   2.492349e-02 4.783330e-02 1.300000e-02
    endloop
  endfacet
  facet normal 9.995443e-01 -3.018742e-02 0.000000e+00
    outer loop
      vertex   2.492349e-02 4.783330e-02 1.300000e-02
      vertex   2.492349e-02 4.783330e-02 1.400000e-02
      vertex   2.492238e-02 4.779647e-02 1.600000e-02
    endloop
  endfacet
  facet normal 9.995443e-01 -3.018742e-02 0.000000e+00
    outer loop
      vertex   2.492349e-02 4.783330e-02 1.300000e-02
      vertex   2.492238e-02 4.779647e-02 1.600000e-02
      vertex   2.492349e-02 4.783330e-02 1.200000e-02
    endloop
  endfacet
  facet normal 9.995443e-01 -3.018742e-02 0.000000e+00
    outer loop
      vertex   2.492349e-02 4.783330e-02 1.200000e-02
      vertex   2.492238e-02 4.779647e-02 1.600000e-02
      vertex   2.492238e-02 4.779647e-02 8.000000e-03
    endloop
  endfacet
  facet normal 9.995443e-01 -3.018742e-02 0.000000e+00
    outer loop
      vertex   2.492349e-02 4.783330e-02 1.200000e-02
      vertex   2.492238e-02 4.779647e-02 8.000000e-03
      vertex   2.492349e-02 4.783330e-02 1.100000e-02
    endloop
  endfacet
  facet normal 9.995443e-01 -3.018742e-02 0.000000e+00
    outer loop
      vertex   2.492349e-02 4.783330e-02 1.100000e-02
      vertex   2.492238e-02 4.779647e-02 8.000000e-03
      vertex   2.492349e-02 4.783330e-02 1.000000e-02
    endloop
  endfacet
  facet normal 9.996723e-01 -2.559812e-02 0.000000e+00
    outer loop
      vertex   2.492349e-02 4.783330e-02 1.100000e-02
      vertex   2.492349e-02 4.783330e-02 1.000000e-02
      vertex   2.492444e-02 4.787013e-02 1.000000e-02
    endloop
  endfacet
  facet normal 9.996723e-01 -2.559812e-02 0.000000e+00
    outer loop
      vertex   2.492444e-02 4.787013e-02 1.000000e-02
      vertex   2.492349e-02 4.783330e-02 1.000000e-02
      vertex   2.492444e-02 4.787013e-02 9.000000e-03
    endloop
  endfacet
  facet normal 9.998562e-01 -1.696095e-02 0.000000e+00
    outer loop
      vertex   2.492444e-02 4.787013e-02 1.000000e-02
      vertex   2.492444e-02 4.787013e-02 9.000000e-03
      vertex   2.492506e-02 4.790697e-02 9.000000e-03
    endloop
  endfacet
  facet normal 9.998562e-01 -1.696095e-02 3.468948e-15
    outer loop
      vertex   2.492506e-02 4.790697e-02 9.000000e-03
      vertex   2.492444e-02 4.787013e-02 9.000000e-03
      vertex   2.492506e-02 4.790697e-02 8.000000e-03
    endloop
  endfacet
  facet normal 9.999438e-01 -1.060022e-02 3.469252e-15
    outer loop
      vertex   2.492506e-02 4.790697e-02 9.000000e-03
      vertex   2.492506e-02 4.790697e-02 8.000000e-03
      vertex   2.492545e-02 4.794381e-02 8.000000e-03
    endloop
  endfacet
  facet normal 9.998562e-01 -1.696095e-02 -3.468948e-15
    outer loop
      vertex   2.492506e-02 4.790697e-02 1.600000e-02
      vertex   2.492444e-02 4.787013e-02 1.600000e-02
      vertex   2.492506e-02 4.790697e-02 1.500000e-02
    endloop
  endfacet
  facet normal 9.998562e-01 -1.696095e-02 -3.468929e-15
    outer loop
      vertex   2.492506e-02 4.790697e-02 1.500000e-02
      vertex   2.492444e-02 4.787013e-02 1.600000e-02
      vertex   2.492444e-02 4.787013e-02 1.500000e-02
    endloop
  endfacet
  facet normal 9.998562e-01 -1.696095e-02 0.000000e+00
    outer loop
      vertex   2.492506e-02 4.790697e-02 1.500000e-02
      vertex   2.492444e-02 4.787013e-02 1.500000e-02
      vertex   2.492506e-02 4.790697e-02 1.400000e-02
    endloop
  endfacet
  facet normal 9.998562e-01 -1.696095e-02 0.000000e+00
    outer loop
      vertex   2.492506e-02 4.790697e-02 1.400000e-02
      vertex   2.492444e-02 4.787013e-02 1.500000e-02
      vertex   2.492444e-02 4.787013e-02 1.400000e-02
    endloop
  endfacet
  facet normal 9.996723e-01 -2.559812e-02 -3.468310e-15
    outer loop
      vertex   2.492444e-02 4.787013e-02 1.600000e-02
      vertex   2.492349e-02 4.783330e-02 1.600000e-02
      vertex   2.492444e-02 4.787013e-02 1.500000e-02
    endloop
  endfacet
  facet normal 9.996723e-01 -2.559812e-02 -3.551844e-16
    outer loop
      vertex   2.492444e-02 4.787013e-02 1.500000e-02
      vertex   2.492349e-02 4.783330e-02 1.600000e-02
      vertex   2.492349e-02 4.783330e-02 1.500000e-02
    endloop
  endfacet
  facet normal 9.996723e-01 -2.559812e-02 0.000000e+00
    outer loop
      vertex   2.492444e-02 4.787013e-02 1.500000e-02
      vertex   2.492349e-02 4.783330e-02 1.500000e-02
      vertex   2.492444e-02 4.787013e-02 1.400000e-02
    endloop
  endfacet
  facet normal 9.996723e-01 -2.559812e-02 0.000000e+00
    outer loop
      vertex   2.492444e-02 4.787013e-02 1.400000e-02
      vertex   2.492349e-02 4.783330e-02 1.500000e-02
      vertex   2.492349e-02 4.783330e-02 1.400000e-02
    endloop
  endfacet
  facet normal 9.995443e-01 -3.018742e-02 -4.189347e-16
    outer loop
      vertex   2.492349e-02 4.783330e-02 1.600000e-02
      vertex   2.492238e-02 4.779647e-02 1.600000e-02
      vertex   2.492349e-02 4.783330e-02 1.500000e-02
    endloop
  endfacet
  facet normal 9.995443e-01 -3.018742e-02 0.000000e+00
    outer loop
      vertex   2.492349e-02 4.783330e-02 1.500000e-02
      vertex   2.492238e-02 4.779647e-02 1.600000e-02
      vertex   2.492349e-02 4.783330e-02 1.400000e-02
    endloop
  endfacet
  facet normal 9.995443e-01 -3.018742e-02 0.000000e+00
    outer loop
      vertex   2.492349e-02 4.783330e-02 1.000000e-02
      vertex   2.492238e-02 4.779647e-02 8.000000e-03
      vertex   2.492349e-02 4.783330e-02 9.000000e-03
    endloop
  endfacet
  facet normal 9.995443e-01 -3.018742e-02 4.189347e-16
    outer loop
      vertex   2.492349e-02 4.783330e-02 9.000000e-03
      vertex   2.492238e-02 4.779647e-02 8.000000e-03
      vertex   2.492349e-02 4.783330e-02 8.000000e-03
    endloop
  endfacet
  facet normal 9.996723e-01 -2.559812e-02 3.552453e-16
    outer loop
      vertex   2.492349e-02 4.783330e-02 9.000000e-03
      vertex   2.492349e-02 4.783330e-02 8.000000e-03
      vertex   2.492444e-02 4.787013e-02 8.000000e-03
    endloop
  endfacet
  facet normal 9.996723e-01 -2.559812e-02 3.468354e-15
    outer loop
      vertex   2.492349e-02 4.783330e-02 9.000000e-03
      vertex   2.492444e-02 4.787013e-02 8.000000e-03
      vertex   2.492444e-02 4.787013e-02 9.000000e-03
    endloop
  endfacet
  facet normal 9.998562e-01 -1.696095e-02 3.468948e-15
    outer loop
      vertex   2.492444e-02 4.787013e-02 9.000000e-03
      vertex   2.492444e-02 4.787013e-02 8.000000e-03
      vertex   2.492506e-02 4.790697e-02 8.000000e-03
    endloop
  endfacet
  facet normal 9.999438e-01 -1.060022e-02 0.000000e+00
    outer loop
      vertex   2.492545e-02 4.794381e-02 1.600000e-02
      vertex   2.492506e-02 4.790697e-02 1.200000e-02
      vertex   2.492545e-02 4.794381e-02 8.000000e-03
    endloop
  endfacet
  facet normal 9.999438e-01 -1.060022e-02 0.000000e+00
    outer loop
      vertex   2.492545e-02 4.794381e-02 8.000000e-03
      vertex   2.492506e-02 4.790697e-02 1.200000e-02
      vertex   2.492506e-02 4.790697e-02 1.100000e-02
    endloop
  endfacet
  facet normal 9.999438e-01 -1.060022e-02 0.000000e+00
    outer loop
      vertex   2.492545e-02 4.794381e-02 8.000000e-03
      vertex   2.492506e-02 4.790697e-02 1.100000e-02
      vertex   2.492506e-02 4.790697e-02 1.000000e-02
    endloop
  endfacet
  facet normal 9.998562e-01 -1.696095e-02 0.000000e+00
    outer loop
      vertex   2.492506e-02 4.790697e-02 1.000000e-02
      vertex   2.492506e-02 4.790697e-02 1.100000e-02
      vertex   2.492444e-02 4.787013e-02 1.100000e-02
    endloop
  endfacet
  facet normal 9.998562e-01 -1.696095e-02 0.000000e+00
    outer loop
      vertex   2.492506e-02 4.790697e-02 1.000000e-02
      vertex   2.492444e-02 4.787013e-02 1.100000e-02
      vertex   2.492444e-02 4.787013e-02 1.000000e-02
    endloop
  endfacet
  facet normal 9.996723e-01 -2.559812e-02 0.000000e+00
    outer loop
      vertex   2.492444e-02 4.787013e-02 1.000000e-02
      vertex   2.492444e-02 4.787013e-02 1.100000e-02
      vertex   2.492349e-02 4.783330e-02 1.100000e-02
    endloop
  endfacet
  facet normal 9.996723e-01 -2.559812e-02 0.000000e+00
    outer loop
      vertex   2.492444e-02 4.787013e-02 9.000000e-03
      vertex   2.492349e-02 4.783330e-02 1.000000e-02
      vertex   2.492349e-02 4.783330e-02 9.000000e-03
    endloop
  endfacet
  facet normal 9.999438e-01 -1.060022e-02 0.000000e+00
    outer loop
      vertex   2.492506e-02 4.790697e-02 1.200000e-02
      vertex   2.492545e-02 4.794381e-02 1.600000e-02
      vertex   2.492506e-02 4.790697e-02 1.300000e-02
    endloop
  endfacet
  facet normal 9.998562e-01 -1.696095e-02 0.000000e+00
    outer loop
      vertex   2.492506e-02 4.790697e-02 1.000000e-02
      vertex   2.492444e-02 4.787013e-02 1.000000e-02
      vertex   2.492506e-02 4.790697e-02 9.000000e-03
    endloop
  endfacet
  facet normal 9.998562e-01 -1.696095e-02 0.000000e+00
    outer loop
      vertex   2.492506e-02 4.790697e-02 1.200000e-02
      vertex   2.492506e-02 4.790697e-02 1.300000e-02
      vertex   2.492444e-02 4.787013e-02 1.300000e-02
    endloop
  endfacet
  facet normal 9.996723e-01 -2.559812e-02 0.000000e+00
    outer loop
      vertex   2.492444e-02 4.787013e-02 1.300000e-02
      vertex   2.492349e-02 4.783330e-02 1.300000e-02
      vertex   2.492444e-02 4.787013e-02 1.200000e-02
    endloop
  endfacet
  facet normal 9.996723e-01 -2.559812e-02 0.000000e+00
    outer loop
      vertex   2.492444e-02 4.787013e-02 1.200000e-02
      vertex   2.492349e-02 4.783330e-02 1.300000e-02
      vertex   2.492349e-02 4.783330e-02 1.200000e-02
    endloop
  endfacet
  facet normal 9.996723e-01 -2.559812e-02 0.000000e+00
    outer loop
      vertex   2.492444e-02 4.787013e-02 1.200000e-02
      vertex   2.492349e-02 4.783330e-02 1.200000e-02
      vertex   2.492444e-02 4.787013e-02 1.100000e-02
    endloop
  endfacet
  facet normal 9.996723e-01 -2.559812e-02 0.000000e+00
    outer loop
      vertex   2.492444e-02 4.787013e-02 1.100000e-02
      vertex   2.492349e-02 4.783330e-02 1.200000e-02
      vertex   2.492349e-02 4.783330e-02 1.100000e-02
    endloop
  endfacet
  facet normal 9.999438e-01 -1.060022e-02 0.000000e+00
    outer loop
      vertex   2.492506e-02 4.790697e-02 9.000000e-03
      vertex   2.492545e-02 4.794381e-02 8.000000e-03
      vertex   2.492506e-02 4.790697e-02 1.000000e-02
    endloop
  endfacet
  facet normal 9.998562e-01 -1.696095e-02 0.000000e+00
    outer loop
      vertex   2.492506e-02 4.790697e-02 1.100000e-02
      vertex   2.492506e-02 4.790697e-02 1.200000e-02
      vertex   2.492444e-02 4.787013e-02 1.200000e-02
    endloop
  endfacet
  facet normal 9.998562e-01 -1.696095e-02 0.000000e+00
    outer loop
      vertex   2.492444e-02 4.787013e-02 1.200000e-02
      vertex   2.492506e-02 4.790697e-02 1.200000e-02
      vertex   2.492444e-02 4.787013e-02 1.300000e-02
    endloop
  endfacet
  facet normal 9.998562e-01 -1.696095e-02 0.000000e+00
    outer loop
      vertex   2.492506e-02 4.790697e-02 1.100000e-02
      vertex   2.492444e-02 4.787013e-02 1.200000e-02
      vertex   2.492444e-02 4.787013e-02 1.100000e-02
    endloop
  endfacet
  facet normal 8.333493e-01 5.527468e-01 0.000000e+00
    outer loop
      vertex   2.451106e-02 4.919620e-02 1.600000e-02
      vertex   2.469922e-02 4.891251e-02 1.600000e-02
      vertex   2.451106e-02 4.919620e-02 8.000000e-03
    endloop
  endfacet
  facet normal 8.333493e-01 5.527468e-01 0.000000e+00
    outer loop
      vertex   2.451106e-02 4.919620e-02 8.000000e-03
      vertex   2.469922e-02 4.891251e-02 1.600000e-02
      vertex   2.469922e-02 4.891251e-02 8.000000e-03
    endloop
  endfacet
  facet normal 9.074864e-01 4.200814e-01 -0.000000e+00
    outer loop
      vertex   2.469922e-02 4.891251e-02 8.000000e-03
      vertex   2.469922e-02 4.891251e-02 1.600000e-02
      vertex   2.483843e-02 4.861180e-02 1.600000e-02
    endloop
  endfacet
  facet normal 9.074864e-01 4.200814e-01 0.000000e+00
    outer loop
      vertex   2.469922e-02 4.891251e-02 8.000000e-03
      vertex   2.483843e-02 4.861180e-02 1.600000e-02
      vertex   2.483843e-02 4.861180e-02 8.000000e-03
    endloop
  endfacet
  facet normal 9.810796e-01 1.936050e-01 -0.000000e+00
    outer loop
      vertex   2.483843e-02 4.861180e-02 8.000000e-03
      vertex   2.483843e-02 4.861180e-02 1.600000e-02
      vertex   2.490290e-02 4.828509e-02 1.600000e-02
    endloop
  endfacet
  facet normal 9.810796e-01 1.936050e-01 0.000000e+00
    outer loop
      vertex   2.483843e-02 4.861180e-02 8.000000e-03
      vertex   2.490290e-02 4.828509e-02 1.600000e-02
      vertex   2.490290e-02 4.828509e-02 8.000000e-03
    endloop
  endfacet
  facet normal 9.978238e-01 6.593621e-02 -0.000000e+00
    outer loop
      vertex   2.490290e-02 4.828509e-02 8.000000e-03
      vertex   2.490290e-02 4.828509e-02 1.600000e-02
      vertex   2.492545e-02 4.794381e-02 1.600000e-02
    endloop
  endfacet
  facet normal 9.978238e-01 6.593621e-02 0.000000e+00
    outer loop
      vertex   2.490290e-02 4.828509e-02 8.000000e-03
      vertex   2.492545e-02 4.794381e-02 1.600000e-02
      vertex   2.492545e-02 4.794381e-02 8.000000e-03
    endloop
  endfacet
  facet normal 1.060399e-01 9.943619e-01 0.000000e+00
    outer loop
      vertex   2.344284e-02 4.964129e-02 1.600000e-02
      vertex   2.374333e-02 4.960925e-02 1.600000e-02
      vertex   2.344284e-02 4.964129e-02 8.000000e-03
    endloop
  endfacet
  facet normal 1.060399e-01 9.943619e-01 0.000000e+00
    outer loop
      vertex   2.344284e-02 4.964129e-02 8.000000e-03
      vertex   2.374333e-02 4.960925e-02 1.600000e-02
      vertex   2.374333e-02 4.960925e-02 8.000000e-03
    endloop
  endfacet
  facet normal 2.554005e-01 9.668354e-01 -0.000000e+00
    outer loop
      vertex   2.374333e-02 4.960925e-02 8.000000e-03
      vertex   2.374333e-02 4.960925e-02 1.600000e-02
      vertex   2.402584e-02 4.953462e-02 1.600000e-02
    endloop
  endfacet
  facet normal 2.554005e-01 9.668354e-01 0.000000e+00
    outer loop
      vertex   2.374333e-02 4.960925e-02 8.000000e-03
      vertex   2.402584e-02 4.953462e-02 1.600000e-02
      vertex   2.402584e-02 4.953462e-02 8.000000e-03
    endloop
  endfacet
  facet normal 5.039726e-01 8.637196e-01 -0.000000e+00
    outer loop
      vertex   2.402584e-02 4.953462e-02 8.000000e-03
      vertex   2.402584e-02 4.953462e-02 1.600000e-02
      vertex   2.427781e-02 4.938760e-02 1.600000e-02
    endloop
  endfacet
  facet normal 5.039726e-01 8.637196e-01 0.000000e+00
    outer loop
      vertex   2.402584e-02 4.953462e-02 8.000000e-03
      vertex   2.427781e-02 4.938760e-02 1.600000e-02
      vertex   2.427781e-02 4.938760e-02 8.000000e-03
    endloop
  endfacet
  facet normal 6.343378e-01 7.730560e-01 -0.000000e+00
    outer loop
      vertex   2.427781e-02 4.938760e-02 8.000000e-03
      vertex   2.427781e-02 4.938760e-02 1.600000e-02
      vertex   2.451106e-02 4.919620e-02 1.600000e-02
    endloop
  endfacet
  facet normal 6.343378e-01 7.730560e-01 0.000000e+00
    outer loop
      vertex   2.427781e-02 4.938760e-02 8.000000e-03
      vertex   2.451106e-02 4.919620e-02 1.600000e-02
      vertex   2.451106e-02 4.919620e-02 8.000000e-03
    endloop
  endfacet
  facet normal -6.321108e-01 7.748780e-01 0.000000e+00
    outer loop
      vertex   2.234394e-02 4.918699e-02 1.600000e-02
      vertex   2.258412e-02 4.938292e-02 1.600000e-02
      vertex   2.234394e-02 4.918699e-02 8.000000e-03
    endloop
  endfacet
  facet normal -6.321108e-01 7.748780e-01 0.000000e+00
    outer loop
      vertex   2.234394e-02 4.918699e-02 8.000000e-03
      vertex   2.258412e-02 4.938292e-02 1.600000e-02
      vertex   2.258412e-02 4.938292e-02 8.000000e-03
    endloop
  endfacet
  facet normal -5.011799e-01 8.653431e-01 0.000000e+00
    outer loop
      vertex   2.258412e-02 4.938292e-02 8.000000e-03
      vertex   2.258412e-02 4.938292e-02 1.600000e-02
      vertex   2.284348e-02 4.953314e-02 1.600000e-02
    endloop
  endfacet
  facet normal -5.011799e-01 8.653431e-01 0.000000e+00
    outer loop
      vertex   2.258412e-02 4.938292e-02 8.000000e-03
      vertex   2.284348e-02 4.953314e-02 1.600000e-02
      vertex   2.284348e-02 4.953314e-02 8.000000e-03
    endloop
  endfacet
  facet normal -2.526869e-01 9.675481e-01 0.000000e+00
    outer loop
      vertex   2.284348e-02 4.953314e-02 8.000000e-03
      vertex   2.284348e-02 4.953314e-02 1.600000e-02
      vertex   2.313402e-02 4.960901e-02 1.600000e-02
    endloop
  endfacet
  facet normal -2.526869e-01 9.675481e-01 0.000000e+00
    outer loop
      vertex   2.284348e-02 4.953314e-02 8.000000e-03
      vertex   2.313402e-02 4.960901e-02 1.600000e-02
      vertex   2.313402e-02 4.960901e-02 8.000000e-03
    endloop
  endfacet
  facet normal -1.039467e-01 9.945829e-01 0.000000e+00
    outer loop
      vertex   2.313402e-02 4.960901e-02 8.000000e-03
      vertex   2.313402e-02 4.960901e-02 1.600000e-02
      vertex   2.344284e-02 4.964129e-02 1.600000e-02
    endloop
  endfacet
  facet normal -1.039467e-01 9.945829e-01 0.000000e+00
    outer loop
      vertex   2.313402e-02 4.960901e-02 8.000000e-03
      vertex   2.344284e-02 4.964129e-02 1.600000e-02
      vertex   2.344284e-02 4.964129e-02 8.000000e-03
    endloop
  endfacet
  facet normal -9.977986e-01 6.631737e-02 0.000000e+00
    outer loop
      vertex   2.192033e-02 4.791005e-02 1.600000e-02
      vertex   2.194347e-02 4.825813e-02 1.600000e-02
      vertex   2.192033e-02 4.791005e-02 8.000000e-03
    endloop
  endfacet
  facet normal -9.977986e-01 6.631737e-02 0.000000e+00
    outer loop
      vertex   2.192033e-02 4.791005e-02 8.000000e-03
      vertex   2.194347e-02 4.825813e-02 1.600000e-02
      vertex   2.194347e-02 4.825813e-02 8.000000e-03
    endloop
  endfacet
  facet normal -9.809587e-01 1.942167e-01 0.000000e+00
    outer loop
      vertex   2.194347e-02 4.825813e-02 8.000000e-03
      vertex   2.194347e-02 4.825813e-02 1.600000e-02
      vertex   2.200943e-02 4.859128e-02 1.600000e-02
    endloop
  endfacet
  facet normal -9.809587e-01 1.942167e-01 0.000000e+00
    outer loop
      vertex   2.194347e-02 4.825813e-02 8.000000e-03
      vertex   2.200943e-02 4.859128e-02 1.600000e-02
      vertex   2.200943e-02 4.859128e-02 8.000000e-03
    endloop
  endfacet
  facet normal -9.070753e-01 4.209684e-01 0.000000e+00
    outer loop
      vertex   2.200943e-02 4.859128e-02 8.000000e-03
      vertex   2.200943e-02 4.859128e-02 1.600000e-02
      vertex   2.215170e-02 4.889784e-02 1.600000e-02
    endloop
  endfacet
  facet normal -9.070753e-01 4.209684e-01 0.000000e+00
    outer loop
      vertex   2.200943e-02 4.859128e-02 8.000000e-03
      vertex   2.215170e-02 4.889784e-02 1.600000e-02
      vertex   2.215170e-02 4.889784e-02 8.000000e-03
    endloop
  endfacet
  facet normal -8.327582e-01 5.536369e-01 0.000000e+00
    outer loop
      vertex   2.215170e-02 4.889784e-02 8.000000e-03
      vertex   2.215170e-02 4.889784e-02 1.600000e-02
      vertex   2.234394e-02 4.918699e-02 1.600000e-02
    endloop
  endfacet
  facet normal -8.327582e-01 5.536369e-01 0.000000e+00
    outer loop
      vertex   2.215170e-02 4.889784e-02 8.000000e-03
      vertex   2.234394e-02 4.918699e-02 1.600000e-02
      vertex   2.234394e-02 4.918699e-02 8.000000e-03
    endloop
  endfacet
  facet normal -8.268978e-01 -5.623522e-01 -0.000000e+00
    outer loop
      vertex   2.233933e-02 4.667454e-02 1.600000e-02
      vertex   2.214978e-02 4.695327e-02 1.600000e-02
      vertex   2.233933e-02 4.667454e-02 8.000000e-03
    endloop
  endfacet
  facet normal -8.268978e-01 -5.623522e-01 0.000000e+00
    outer loop
      vertex   2.233933e-02 4.667454e-02 8.000000e-03
      vertex   2.214978e-02 4.695327e-02 1.600000e-02
      vertex   2.214978e-02 4.695327e-02 8.000000e-03
    endloop
  endfacet
  facet normal -9.033469e-01 -4.289106e-01 0.000000e+00
    outer loop
      vertex   2.214978e-02 4.695327e-02 8.000000e-03
      vertex   2.214978e-02 4.695327e-02 1.600000e-02
      vertex   2.200917e-02 4.724940e-02 1.600000e-02
    endloop
  endfacet
  facet normal -9.033469e-01 -4.289106e-01 0.000000e+00
    outer loop
      vertex   2.214978e-02 4.695327e-02 8.000000e-03
      vertex   2.200917e-02 4.724940e-02 1.600000e-02
      vertex   2.200917e-02 4.724940e-02 8.000000e-03
    endloop
  endfacet
  facet normal -9.800103e-01 -1.989467e-01 0.000000e+00
    outer loop
      vertex   2.200917e-02 4.724940e-02 8.000000e-03
      vertex   2.200917e-02 4.724940e-02 1.600000e-02
      vertex   2.194364e-02 4.757222e-02 1.600000e-02
    endloop
  endfacet
  facet normal -9.800103e-01 -1.989467e-01 0.000000e+00
    outer loop
      vertex   2.200917e-02 4.724940e-02 8.000000e-03
      vertex   2.194364e-02 4.757222e-02 1.600000e-02
      vertex   2.194364e-02 4.757222e-02 8.000000e-03
    endloop
  endfacet
  facet normal -9.976291e-01 -6.882060e-02 0.000000e+00
    outer loop
      vertex   2.194364e-02 4.757222e-02 8.000000e-03
      vertex   2.194364e-02 4.757222e-02 1.600000e-02
      vertex   2.192033e-02 4.791005e-02 1.600000e-02
    endloop
  endfacet
  facet normal -9.976291e-01 -6.882060e-02 0.000000e+00
    outer loop
      vertex   2.194364e-02 4.757222e-02 8.000000e-03
      vertex   2.192033e-02 4.791005e-02 1.600000e-02
      vertex   2.192033e-02 4.791005e-02 8.000000e-03
    endloop
  endfacet
  facet normal -8.927944e-02 -9.960066e-01 -0.000000e+00
    outer loop
      vertex   2.347354e-02 4.623406e-02 1.600000e-02
      vertex   2.315731e-02 4.626241e-02 1.600000e-02
      vertex   2.347354e-02 4.623406e-02 8.000000e-03
    endloop
  endfacet
  facet normal -8.927944e-02 -9.960066e-01 0.000000e+00
    outer loop
      vertex   2.347354e-02 4.623406e-02 8.000000e-03
      vertex   2.315731e-02 4.626241e-02 1.600000e-02
      vertex   2.315731e-02 4.626241e-02 8.000000e-03
    endloop
  endfacet
  facet normal -2.327276e-01 -9.725420e-01 0.000000e+00
    outer loop
      vertex   2.315731e-02 4.626241e-02 8.000000e-03
      vertex   2.315731e-02 4.626241e-02 1.600000e-02
      vertex   2.285834e-02 4.633395e-02 1.600000e-02
    endloop
  endfacet
  facet normal -2.327276e-01 -9.725420e-01 0.000000e+00
    outer loop
      vertex   2.315731e-02 4.626241e-02 8.000000e-03
      vertex   2.285834e-02 4.633395e-02 1.600000e-02
      vertex   2.285834e-02 4.633395e-02 8.000000e-03
    endloop
  endfacet
  facet normal -4.786560e-01 -8.780025e-01 0.000000e+00
    outer loop
      vertex   2.285834e-02 4.633395e-02 8.000000e-03
      vertex   2.285834e-02 4.633395e-02 1.600000e-02
      vertex   2.258937e-02 4.648058e-02 1.600000e-02
    endloop
  endfacet
  facet normal -4.786560e-01 -8.780025e-01 0.000000e+00
    outer loop
      vertex   2.285834e-02 4.633395e-02 8.000000e-03
      vertex   2.258937e-02 4.648058e-02 1.600000e-02
      vertex   2.258937e-02 4.648058e-02 8.000000e-03
    endloop
  endfacet
  facet normal -6.129315e-01 -7.901361e-01 0.000000e+00
    outer loop
      vertex   2.258937e-02 4.648058e-02 8.000000e-03
      vertex   2.258937e-02 4.648058e-02 1.600000e-02
      vertex   2.233933e-02 4.667454e-02 1.600000e-02
    endloop
  endfacet
  facet normal -6.129315e-01 -7.901361e-01 0.000000e+00
    outer loop
      vertex   2.258937e-02 4.648058e-02 8.000000e-03
      vertex   2.233933e-02 4.667454e-02 1.600000e-02
      vertex   2.233933e-02 4.667454e-02 8.000000e-03
    endloop
  endfacet
  facet normal 4.937114e-01 -8.696258e-01 0.000000e+00
    outer loop
      vertex   2.440669e-02 4.651032e-02 1.600000e-02
      vertex   2.418995e-02 4.638727e-02 1.600000e-02
      vertex   2.440669e-02 4.651032e-02 8.000000e-03
    endloop
  endfacet
  facet normal 4.937114e-01 -8.696258e-01 0.000000e+00
    outer loop
      vertex   2.440669e-02 4.651032e-02 8.000000e-03
      vertex   2.418995e-02 4.638727e-02 1.600000e-02
      vertex   2.418995e-02 4.638727e-02 8.000000e-03
    endloop
  endfacet
  facet normal 3.777922e-01 -9.258904e-01 0.000000e+00
    outer loop
      vertex   2.418995e-02 4.638727e-02 8.000000e-03
      vertex   2.418995e-02 4.638727e-02 1.600000e-02
      vertex   2.396378e-02 4.629499e-02 1.600000e-02
    endloop
  endfacet
  facet normal 3.777922e-01 -9.258904e-01 0.000000e+00
    outer loop
      vertex   2.418995e-02 4.638727e-02 8.000000e-03
      vertex   2.396378e-02 4.629499e-02 1.600000e-02
      vertex   2.396378e-02 4.629499e-02 8.000000e-03
    endloop
  endfacet
  facet normal 1.803286e-01 -9.836064e-01 0.000000e+00
    outer loop
      vertex   2.396378e-02 4.629499e-02 8.000000e-03
      vertex   2.396378e-02 4.629499e-02 1.600000e-02
      vertex   2.372286e-02 4.625082e-02 1.600000e-02
    endloop
  endfacet
  facet normal 1.803286e-01 -9.836064e-01 0.000000e+00
    outer loop
      vertex   2.396378e-02 4.629499e-02 8.000000e-03
      vertex   2.372286e-02 4.625082e-02 1.600000e-02
      vertex   2.372286e-02 4.625082e-02 8.000000e-03
    endloop
  endfacet
  facet normal 6.706837e-02 -9.977484e-01 0.000000e+00
    outer loop
      vertex   2.372286e-02 4.625082e-02 8.000000e-03
      vertex   2.372286e-02 4.625082e-02 1.600000e-02
      vertex   2.347354e-02 4.623406e-02 1.600000e-02
    endloop
  endfacet
  facet normal 6.706837e-02 -9.977484e-01 0.000000e+00
    outer loop
      vertex   2.372286e-02 4.625082e-02 8.000000e-03
      vertex   2.347354e-02 4.623406e-02 1.600000e-02
      vertex   2.347354e-02 4.623406e-02 8.000000e-03
    endloop
  endfacet
  facet normal 9.413292e-01 -3.374898e-01 0.000000e+00
    outer loop
      vertex   2.490703e-02 4.728692e-02 1.600000e-02
      vertex   2.482691e-02 4.706344e-02 1.600000e-02
      vertex   2.490703e-02 4.728692e-02 8.000000e-03
    endloop
  endfacet
  facet normal 9.413292e-01 -3.374898e-01 0.000000e+00
    outer loop
      vertex   2.490703e-02 4.728692e-02 8.000000e-03
      vertex   2.482691e-02 4.706344e-02 1.600000e-02
      vertex   2.482691e-02 4.706344e-02 8.000000e-03
    endloop
  endfacet
  facet normal 8.941762e-01 -4.477152e-01 0.000000e+00
    outer loop
      vertex   2.482691e-02 4.706344e-02 8.000000e-03
      vertex   2.482691e-02 4.706344e-02 1.600000e-02
      vertex   2.472283e-02 4.685558e-02 1.600000e-02
    endloop
  endfacet
  facet normal 8.941762e-01 -4.477152e-01 0.000000e+00
    outer loop
      vertex   2.482691e-02 4.706344e-02 8.000000e-03
      vertex   2.472283e-02 4.685558e-02 1.600000e-02
      vertex   2.472283e-02 4.685558e-02 8.000000e-03
    endloop
  endfacet
  facet normal 7.798605e-01 -6.259533e-01 0.000000e+00
    outer loop
      vertex   2.472283e-02 4.685558e-02 8.000000e-03
      vertex   2.472283e-02 4.685558e-02 1.600000e-02
      vertex   2.457757e-02 4.667460e-02 1.600000e-02
    endloop
  endfacet
  facet normal 7.798605e-01 -6.259533e-01 0.000000e+00
    outer loop
      vertex   2.472283e-02 4.685558e-02 8.000000e-03
      vertex   2.457757e-02 4.667460e-02 1.600000e-02
      vertex   2.457757e-02 4.667460e-02 8.000000e-03
    endloop
  endfacet
  facet normal 6.930549e-01 -7.208848e-01 0.000000e+00
    outer loop
      vertex   2.457757e-02 4.667460e-02 8.000000e-03
      vertex   2.457757e-02 4.667460e-02 1.600000e-02
      vertex   2.440669e-02 4.651032e-02 1.600000e-02
    endloop
  endfacet
  facet normal 6.930549e-01 -7.208848e-01 0.000000e+00
    outer loop
      vertex   2.457757e-02 4.667460e-02 8.000000e-03
      vertex   2.440669e-02 4.651032e-02 1.600000e-02
      vertex   2.440669e-02 4.651032e-02 8.000000e-03
    endloop
  endfacet
  facet normal 1.227207e-01 9.924412e-01 0.000000e+00
    outer loop
      vertex   2.433609e-02 4.735752e-02 1.600000e-02
      vertex   2.490703e-02 4.728692e-02 1.600000e-02
      vertex   2.433609e-02 4.735752e-02 8.000000e-03
    endloop
  endfacet
  facet normal 1.227207e-01 9.924412e-01 0.000000e+00
    outer loop
      vertex   2.433609e-02 4.735752e-02 8.000000e-03
      vertex   2.490703e-02 4.728692e-02 1.600000e-02
      vertex   2.490703e-02 4.728692e-02 8.000000e-03
    endloop
  endfacet
  facet normal -7.004017e-01 7.137489e-01 0.000000e+00
    outer loop
      vertex   2.399537e-02 4.684798e-02 8.000000e-03
      vertex   2.399537e-02 4.684798e-02 1.600000e-02
      vertex   2.410680e-02 4.695732e-02 1.200000e-02
    endloop
  endfacet
  facet normal -7.004017e-01 7.137489e-01 0.000000e+00
    outer loop
      vertex   2.410680e-02 4.695732e-02 1.200000e-02
      vertex   2.399537e-02 4.684798e-02 1.600000e-02
      vertex   2.410680e-02 4.695732e-02 1.600000e-02
    endloop
  endfacet
  facet normal -7.801192e-01 6.256309e-01 0.000000e+00
    outer loop
      vertex   2.410680e-02 4.695732e-02 1.200000e-02
      vertex   2.410680e-02 4.695732e-02 1.600000e-02
      vertex   2.420292e-02 4.707718e-02 1.600000e-02
    endloop
  endfacet
  facet normal -7.801192e-01 6.256309e-01 -1.087494e-15
    outer loop
      vertex   2.410680e-02 4.695732e-02 1.200000e-02
      vertex   2.420292e-02 4.707718e-02 1.600000e-02
      vertex   2.420292e-02 4.707718e-02 1.200000e-02
    endloop
  endfacet
  facet normal -8.806610e-01 4.737469e-01 -8.218199e-16
    outer loop
      vertex   2.420292e-02 4.707718e-02 1.200000e-02
      vertex   2.420292e-02 4.707718e-02 1.600000e-02
      vertex   2.427595e-02 4.721293e-02 1.600000e-02
    endloop
  endfacet
  facet normal -8.806610e-01 4.737469e-01 -7.647187e-16
    outer loop
      vertex   2.420292e-02 4.707718e-02 1.200000e-02
      vertex   2.427595e-02 4.721293e-02 1.600000e-02
      vertex   2.427595e-02 4.721293e-02 1.200000e-02
    endloop
  endfacet
  facet normal -9.233123e-01 3.840500e-01 -8.008457e-16
    outer loop
      vertex   2.427595e-02 4.721293e-02 1.200000e-02
      vertex   2.427595e-02 4.721293e-02 1.600000e-02
      vertex   2.433609e-02 4.735752e-02 1.600000e-02
    endloop
  endfacet
  facet normal -9.233123e-01 3.840500e-01 0.000000e+00
    outer loop
      vertex   2.427595e-02 4.721293e-02 1.200000e-02
      vertex   2.433609e-02 4.735752e-02 1.600000e-02
      vertex   2.433609e-02 4.735752e-02 8.000000e-03
    endloop
  endfacet
  facet normal -9.233123e-01 3.840500e-01 8.002070e-16
    outer loop
      vertex   2.433609e-02 4.735752e-02 8.000000e-03
      vertex   2.427595e-02 4.721293e-02 8.000000e-03
      vertex   2.427595e-02 4.721293e-02 1.200000e-02
    endloop
  endfacet
  facet normal -8.806610e-01 4.737469e-01 7.638517e-16
    outer loop
      vertex   2.427595e-02 4.721293e-02 1.200000e-02
      vertex   2.427595e-02 4.721293e-02 8.000000e-03
      vertex   2.420292e-02 4.707718e-02 8.000000e-03
    endloop
  endfacet
  facet normal -8.806610e-01 4.737469e-01 8.210664e-16
    outer loop
      vertex   2.427595e-02 4.721293e-02 1.200000e-02
      vertex   2.420292e-02 4.707718e-02 8.000000e-03
      vertex   2.420292e-02 4.707718e-02 1.200000e-02
    endloop
  endfacet
  facet normal -7.801192e-01 6.256309e-01 1.085297e-15
    outer loop
      vertex   2.420292e-02 4.707718e-02 1.200000e-02
      vertex   2.420292e-02 4.707718e-02 8.000000e-03
      vertex   2.410680e-02 4.695732e-02 8.000000e-03
    endloop
  endfacet
  facet normal -7.801192e-01 6.256309e-01 0.000000e+00
    outer loop
      vertex   2.420292e-02 4.707718e-02 1.200000e-02
      vertex   2.410680e-02 4.695732e-02 8.000000e-03
      vertex   2.410680e-02 4.695732e-02 1.200000e-02
    endloop
  endfacet
  facet normal -7.004017e-01 7.137489e-01 0.000000e+00
    outer loop
      vertex   2.410680e-02 4.695732e-02 1.200000e-02
      vertex   2.410680e-02 4.695732e-02 8.000000e-03
      vertex   2.399537e-02 4.684798e-02 8.000000e-03
    endloop
  endfacet
  facet normal 0.000000e+00 0.000000e+00 1.000000e+00
    outer loop
      vertex   2.490703e-02 4.728692e-02 1.600000e-02
      vertex   2.433609e-02 4.735752e-02 1.600000e-02
      vertex   2.482691e-02 4.706344e-02 1.600000e-02
    endloop
  endfacet
  facet normal 0.000000e+00 0.000000e+00 1.000000e+00
    outer loop
      vertex   2.482691e-02 4.706344e-02 1.600000e-02
      vertex   2.433609e-02 4.735752e-02 1.600000e-02
      vertex   2.427595e-02 4.721293e-02 1.600000e-02
    endloop
  endfacet
  facet normal 0.000000e+00 0.000000e+00 1.000000e+00
    outer loop
      vertex   2.482691e-02 4.706344e-02 1.600000e-02
      vertex   2.427595e-02 4.721293e-02 1.600000e-02
      vertex   2.472283e-02 4.685558e-02 1.600000e-02
    endloop
  endfacet
  facet normal 0.000000e+00 0.000000e+00 1.000000e+00
    outer loop
      vertex   2.472283e-02 4.685558e-02 1.600000e-02
      vertex   2.427595e-02 4.721293e-02 1.600000e-02
      vertex   2.420292e-02 4.707718e-02 1.600000e-02
    endloop
  endfacet
  facet normal 0.000000e+00 0.000000e+00 1.000000e+00
    outer loop
      vertex   2.472283e-02 4.685558e-02 1.600000e-02
      vertex   2.420292e-02 4.707718e-02 1.600000e-02
      vertex   2.457757e-02 4.667460e-02 1.600000e-02
    endloop
  endfacet
  facet normal 0.000000e+00 0.000000e+00 1.000000e+00
    outer loop
      vertex   2.457757e-02 4.667460e-02 1.600000e-02
      vertex   2.420292e-02 4.707718e-02 1.600000e-02
      vertex   2.410680e-02 4.695732e-02 1.600000e-02
    endloop
  endfacet
  facet normal 0.000000e+00 0.000000e+00 1.000000e+00
    outer loop
      vertex   2.457757e-02 4.667460e-02 1.600000e-02
      vertex   2.410680e-02 4.695732e-02 1.600000e-02
      vertex   2.440669e-02 4.651032e-02 1.600000e-02
    endloop
  endfacet
  facet normal 0.000000e+00 0.000000e+00 1.000000e+00
    outer loop
      vertex   2.440669e-02 4.651032e-02 1.600000e-02
      vertex   2.410680e-02 4.695732e-02 1.600000e-02
      vertex   2.399537e-02 4.684798e-02 1.600000e-02
    endloop
  endfacet
  facet normal 0.000000e+00 0.000000e+00 1.000000e+00
    outer loop
      vertex   2.440669e-02 4.651032e-02 1.600000e-02
      vertex   2.399537e-02 4.684798e-02 1.600000e-02
      vertex   2.418995e-02 4.638727e-02 1.600000e-02
    endloop
  endfacet
  facet normal 0.000000e+00 0.000000e+00 1.000000e+00
    outer loop
      vertex   2.418995e-02 4.638727e-02 1.600000e-02
      vertex   2.399537e-02 4.684798e-02 1.600000e-02
      vertex   2.387497e-02 4.677845e-02 1.600000e-02
    endloop
  endfacet
  facet normal 0.000000e+00 0.000000e+00 1.000000e+00
    outer loop
      vertex   2.418995e-02 4.638727e-02 1.600000e-02
      vertex   2.387497e-02 4.677845e-02 1.600000e-02
      vertex   2.396378e-02 4.629499e-02 1.600000e-02
    endloop
  endfacet
  facet normal 0.000000e+00 0.000000e+00 1.000000e+00
    outer loop
      vertex   2.396378e-02 4.629499e-02 1.600000e-02
      vertex   2.387497e-02 4.677845e-02 1.600000e-02
      vertex   2.374938e-02 4.672551e-02 1.600000e-02
    endloop
  endfacet
  facet normal 0.000000e+00 0.000000e+00 1.000000e+00
    outer loop
      vertex   2.396378e-02 4.629499e-02 1.600000e-02
      vertex   2.374938e-02 4.672551e-02 1.600000e-02
      vertex   2.372286e-02 4.625082e-02 1.600000e-02
    endloop
  endfacet
  facet normal 0.000000e+00 -0.000000e+00 1.000000e+00
    outer loop
      vertex   2.372286e-02 4.625082e-02 1.600000e-02
      vertex   2.374938e-02 4.672551e-02 1.600000e-02
      vertex   2.361542e-02 4.669919e-02 1.600000e-02
    endloop
  endfacet
  facet normal 0.000000e+00 0.000000e+00 1.000000e+00
    outer loop
      vertex   2.372286e-02 4.625082e-02 1.600000e-02
      vertex   2.361542e-02 4.669919e-02 1.600000e-02
      vertex   2.347354e-02 4.623406e-02 1.600000e-02
    endloop
  endfacet
  facet normal 0.000000e+00 0.000000e+00 1.000000e+00
    outer loop
      vertex   2.347354e-02 4.623406e-02 1.600000e-02
      vertex   2.361542e-02 4.669919e-02 1.600000e-02
      vertex   2.347661e-02 4.668836e-02 1.600000e-02
    endloop
  endfacet
  facet normal 0.000000e+00 -0.000000e+00 1.000000e+00
    outer loop
      vertex   2.347354e-02 4.623406e-02 1.600000e-02
      vertex   2.347661e-02 4.668836e-02 1.600000e-02
      vertex   2.328525e-02 4.670987e-02 1.600000e-02
    endloop
  endfacet
  facet normal 0.000000e+00 0.000000e+00 1.000000e+00
    outer loop
      vertex   2.347354e-02 4.623406e-02 1.600000e-02
      vertex   2.328525e-02 4.670987e-02 1.600000e-02
      vertex   2.315731e-02 4.626241e-02 1.600000e-02
    endloop
  endfacet
  facet normal 0.000000e+00 -0.000000e+00 1.000000e+00
    outer loop
      vertex   2.315731e-02 4.626241e-02 1.600000e-02
      vertex   2.328525e-02 4.670987e-02 1.600000e-02
      vertex   2.310527e-02 4.675840e-02 1.600000e-02
    endloop
  endfacet
  facet normal 0.000000e+00 0.000000e+00 1.000000e+00
    outer loop
      vertex   2.315731e-02 4.626241e-02 1.600000e-02
      vertex   2.310527e-02 4.675840e-02 1.600000e-02
      vertex   2.285834e-02 4.633395e-02 1.600000e-02
    endloop
  endfacet
  facet normal 0.000000e+00 0.000000e+00 1.000000e+00
    outer loop
      vertex   2.285834e-02 4.633395e-02 1.600000e-02
      vertex   2.310527e-02 4.675840e-02 1.600000e-02
      vertex   2.294442e-02 4.685236e-02 1.600000e-02
    endloop
  endfacet
  facet normal 0.000000e+00 -0.000000e+00 1.000000e+00
    outer loop
      vertex   2.285834e-02 4.633395e-02 1.600000e-02
      vertex   2.294442e-02 4.685236e-02 1.600000e-02
      vertex   2.258937e-02 4.648058e-02 1.600000e-02
    endloop
  endfacet
  facet normal 0.000000e+00 0.000000e+00 1.000000e+00
    outer loop
      vertex   2.258937e-02 4.648058e-02 1.600000e-02
      vertex   2.294442e-02 4.685236e-02 1.600000e-02
      vertex   2.279516e-02 4.697383e-02 1.600000e-02
    endloop
  endfacet
  facet normal 0.000000e+00 -0.000000e+00 1.000000e+00
    outer loop
      vertex   2.258937e-02 4.648058e-02 1.600000e-02
      vertex   2.279516e-02 4.697383e-02 1.600000e-02
      vertex   2.233933e-02 4.667454e-02 1.600000e-02
    endloop
  endfacet
  facet normal 0.000000e+00 0.000000e+00 1.000000e+00
    outer loop
      vertex   2.233933e-02 4.667454e-02 1.600000e-02
      vertex   2.279516e-02 4.697383e-02 1.600000e-02
      vertex   2.266725e-02 4.715940e-02 1.600000e-02
    endloop
  endfacet
  facet normal 0.000000e+00 -0.000000e+00 1.000000e+00
    outer loop
      vertex   2.233933e-02 4.667454e-02 1.600000e-02
      vertex   2.266725e-02 4.715940e-02 1.600000e-02
      vertex   2.214978e-02 4.695327e-02 1.600000e-02
    endloop
  endfacet
  facet normal 0.000000e+00 0.000000e+00 1.000000e+00
    outer loop
      vertex   2.214978e-02 4.695327e-02 1.600000e-02
      vertex   2.266725e-02 4.715940e-02 1.600000e-02
      vertex   2.256955e-02 4.735666e-02 1.600000e-02
    endloop
  endfacet
  facet normal 0.000000e+00 -0.000000e+00 1.000000e+00
    outer loop
      vertex   2.214978e-02 4.695327e-02 1.600000e-02
      vertex   2.256955e-02 4.735666e-02 1.600000e-02
      vertex   2.200917e-02 4.724940e-02 1.600000e-02
    endloop
  endfacet
  facet normal 0.000000e+00 0.000000e+00 1.000000e+00
    outer loop
      vertex   2.200917e-02 4.724940e-02 1.600000e-02
      vertex   2.256955e-02 4.735666e-02 1.600000e-02
      vertex   2.251763e-02 4.757162e-02 1.600000e-02
    endloop
  endfacet
  facet normal 0.000000e+00 -0.000000e+00 1.000000e+00
    outer loop
      vertex   2.200917e-02 4.724940e-02 1.600000e-02
      vertex   2.251763e-02 4.757162e-02 1.600000e-02
      vertex   2.194364e-02 4.757222e-02 1.600000e-02
    endloop
  endfacet
  facet normal -0.000000e+00 0.000000e+00 1.000000e+00
    outer loop
      vertex   2.194364e-02 4.757222e-02 1.600000e-02
      vertex   2.251763e-02 4.757162e-02 1.600000e-02
      vertex   2.249128e-02 4.779647e-02 1.600000e-02
    endloop
  endfacet
  facet normal 0.000000e+00 -0.000000e+00 1.000000e+00
    outer loop
      vertex   2.194364e-02 4.757222e-02 1.600000e-02
      vertex   2.249128e-02 4.779647e-02 1.600000e-02
      vertex   2.192033e-02 4.791005e-02 1.600000e-02
    endloop
  endfacet
  facet normal -0.000000e+00 0.000000e+00 1.000000e+00
    outer loop
      vertex   2.192033e-02 4.791005e-02 1.600000e-02
      vertex   2.249128e-02 4.779647e-02 1.600000e-02
      vertex   2.252197e-02 4.825077e-02 1.600000e-02
    endloop
  endfacet
  facet normal 0.000000e+00 0.000000e+00 1.000000e+00
    outer loop
      vertex   2.192033e-02 4.791005e-02 1.600000e-02
      vertex   2.252197e-02 4.825077e-02 1.600000e-02
      vertex   2.194347e-02 4.825813e-02 1.600000e-02
    endloop
  endfacet
  facet normal -0.000000e+00 0.000000e+00 1.000000e+00
    outer loop
      vertex   2.194347e-02 4.825813e-02 1.600000e-02
      vertex   2.252197e-02 4.825077e-02 1.600000e-02
      vertex   2.200943e-02 4.859128e-02 1.600000e-02
    endloop
  endfacet
  facet normal -2.218187e-14 -3.338870e-14 1.000000e+00
    outer loop
      vertex   2.200943e-02 4.859128e-02 1.600000e-02
      vertex   2.252197e-02 4.825077e-02 1.600000e-02
      vertex   2.254994e-02 4.844001e-02 1.600000e-02
    endloop
  endfacet
  facet normal -1.136192e-14 5.273000e-15 1.000000e+00
    outer loop
      vertex   2.200943e-02 4.859128e-02 1.600000e-02
      vertex   2.254994e-02 4.844001e-02 1.600000e-02
      vertex   2.215170e-02 4.889784e-02 1.600000e-02
    endloop
  endfacet
  facet normal 2.039208e-14 3.289390e-14 1.000000e+00
    outer loop
      vertex   2.215170e-02 4.889784e-02 1.600000e-02
      vertex   2.254994e-02 4.844001e-02 1.600000e-02
      vertex   2.260106e-02 4.861927e-02 1.600000e-02
    endloop
  endfacet
  facet normal 0.000000e+00 0.000000e+00 1.000000e+00
    outer loop
      vertex   2.215170e-02 4.889784e-02 1.600000e-02
      vertex   2.260106e-02 4.861927e-02 1.600000e-02
      vertex   2.269236e-02 4.878120e-02 1.600000e-02
    endloop
  endfacet
  facet normal -0.000000e+00 0.000000e+00 1.000000e+00
    outer loop
      vertex   2.252197e-02 4.825077e-02 1.600000e-02
      vertex   2.249128e-02 4.779647e-02 1.600000e-02
      vertex   2.434223e-02 4.825077e-02 1.600000e-02
    endloop
  endfacet
  facet normal 0.000000e+00 0.000000e+00 1.000000e+00
    outer loop
      vertex   2.434223e-02 4.825077e-02 1.600000e-02
      vertex   2.249128e-02 4.779647e-02 1.600000e-02
      vertex   2.492238e-02 4.779647e-02 1.600000e-02
    endloop
  endfacet
  facet normal 0.000000e+00 0.000000e+00 1.000000e+00
    outer loop
      vertex   2.434223e-02 4.825077e-02 1.600000e-02
      vertex   2.492238e-02 4.779647e-02 1.600000e-02
      vertex   2.492349e-02 4.783330e-02 1.600000e-02
    endloop
  endfacet
  facet normal 0.000000e+00 -0.000000e+00 1.000000e+00
    outer loop
      vertex   2.492349e-02 4.783330e-02 1.600000e-02
      vertex   2.492444e-02 4.787013e-02 1.600000e-02
      vertex   2.434223e-02 4.825077e-02 1.600000e-02
    endloop
  endfacet
  facet normal 0.000000e+00 0.000000e+00 1.000000e+00
    outer loop
      vertex   2.434223e-02 4.825077e-02 1.600000e-02
      vertex   2.492444e-02 4.787013e-02 1.600000e-02
      vertex   2.492506e-02 4.790697e-02 1.600000e-02
    endloop
  endfacet
  facet normal 0.000000e+00 0.000000e+00 1.000000e+00
    outer loop
      vertex   2.434223e-02 4.825077e-02 1.600000e-02
      vertex   2.492506e-02 4.790697e-02 1.600000e-02
      vertex   2.492545e-02 4.794381e-02 1.600000e-02
    endloop
  endfacet
  facet normal 0.000000e+00 0.000000e+00 1.000000e+00
    outer loop
      vertex   2.492545e-02 4.794381e-02 1.600000e-02
      vertex   2.490290e-02 4.828509e-02 1.600000e-02
      vertex   2.434223e-02 4.825077e-02 1.600000e-02
    endloop
  endfacet
  facet normal 0.000000e+00 -0.000000e+00 1.000000e+00
    outer loop
      vertex   2.434223e-02 4.825077e-02 1.600000e-02
      vertex   2.490290e-02 4.828509e-02 1.600000e-02
      vertex   2.432082e-02 4.841602e-02 1.600000e-02
    endloop
  endfacet
  facet normal -0.000000e+00 0.000000e+00 1.000000e+00
    outer loop
      vertex   2.432082e-02 4.841602e-02 1.600000e-02
      vertex   2.490290e-02 4.828509e-02 1.600000e-02
      vertex   2.483843e-02 4.861180e-02 1.600000e-02
    endloop
  endfacet
  facet normal 0.000000e+00 -0.000000e+00 1.000000e+00
    outer loop
      vertex   2.432082e-02 4.841602e-02 1.600000e-02
      vertex   2.483843e-02 4.861180e-02 1.600000e-02
      vertex   2.428383e-02 4.857570e-02 1.600000e-02
    endloop
  endfacet
  facet normal 0.000000e+00 0.000000e+00 1.000000e+00
    outer loop
      vertex   2.428383e-02 4.857570e-02 1.600000e-02
      vertex   2.483843e-02 4.861180e-02 1.600000e-02
      vertex   2.469922e-02 4.891251e-02 1.600000e-02
    endloop
  endfacet
  facet normal 0.000000e+00 -0.000000e+00 1.000000e+00
    outer loop
      vertex   2.428383e-02 4.857570e-02 1.600000e-02
      vertex   2.469922e-02 4.891251e-02 1.600000e-02
      vertex   2.421841e-02 4.872521e-02 1.600000e-02
    endloop
  endfacet
  facet normal 0.000000e+00 0.000000e+00 1.000000e+00
    outer loop
      vertex   2.421841e-02 4.872521e-02 1.600000e-02
      vertex   2.469922e-02 4.891251e-02 1.600000e-02
      vertex   2.451106e-02 4.919620e-02 1.600000e-02
    endloop
  endfacet
  facet normal 0.000000e+00 -0.000000e+00 1.000000e+00
    outer loop
      vertex   2.421841e-02 4.872521e-02 1.600000e-02
      vertex   2.451106e-02 4.919620e-02 1.600000e-02
      vertex   2.413350e-02 4.886776e-02 1.600000e-02
    endloop
  endfacet
  facet normal 0.000000e+00 0.000000e+00 1.000000e+00
    outer loop
      vertex   2.413350e-02 4.886776e-02 1.600000e-02
      vertex   2.451106e-02 4.919620e-02 1.600000e-02
      vertex   2.427781e-02 4.938760e-02 1.600000e-02
    endloop
  endfacet
  facet normal 0.000000e+00 -0.000000e+00 1.000000e+00
    outer loop
      vertex   2.413350e-02 4.886776e-02 1.600000e-02
      vertex   2.427781e-02 4.938760e-02 1.600000e-02
      vertex   2.398828e-02 4.900298e-02 1.600000e-02
    endloop
  endfacet
  facet normal 0.000000e+00 0.000000e+00 1.000000e+00
    outer loop
      vertex   2.398828e-02 4.900298e-02 1.600000e-02
      vertex   2.427781e-02 4.938760e-02 1.600000e-02
      vertex   2.402584e-02 4.953462e-02 1.600000e-02
    endloop
  endfacet
  facet normal 0.000000e+00 -0.000000e+00 1.000000e+00
    outer loop
      vertex   2.398828e-02 4.900298e-02 1.600000e-02
      vertex   2.402584e-02 4.953462e-02 1.600000e-02
      vertex   2.382889e-02 4.910788e-02 1.600000e-02
    endloop
  endfacet
  facet normal 0.000000e+00 -0.000000e+00 1.000000e+00
    outer loop
      vertex   2.382889e-02 4.910788e-02 1.600000e-02
      vertex   2.402584e-02 4.953462e-02 1.600000e-02
      vertex   2.374333e-02 4.960925e-02 1.600000e-02
    endloop
  endfacet
  facet normal 0.000000e+00 0.000000e+00 1.000000e+00
    outer loop
      vertex   2.382889e-02 4.910788e-02 1.600000e-02
      vertex   2.374333e-02 4.960925e-02 1.600000e-02
      vertex   2.364596e-02 4.916247e-02 1.600000e-02
    endloop
  endfacet
  facet normal 0.000000e+00 -0.000000e+00 1.000000e+00
    outer loop
      vertex   2.364596e-02 4.916247e-02 1.600000e-02
      vertex   2.374333e-02 4.960925e-02 1.600000e-02
      vertex   2.344284e-02 4.964129e-02 1.600000e-02
    endloop
  endfacet
  facet normal 0.000000e+00 0.000000e+00 1.000000e+00
    outer loop
      vertex   2.364596e-02 4.916247e-02 1.600000e-02
      vertex   2.344284e-02 4.964129e-02 1.600000e-02
      vertex   2.344898e-02 4.918699e-02 1.600000e-02
    endloop
  endfacet
  facet normal 0.000000e+00 0.000000e+00 1.000000e+00
    outer loop
      vertex   2.344898e-02 4.918699e-02 1.600000e-02
      vertex   2.344284e-02 4.964129e-02 1.600000e-02
      vertex   2.327103e-02 4.916806e-02 1.600000e-02
    endloop
  endfacet
  facet normal 2.335475e-14 -8.479569e-15 1.000000e+00
    outer loop
      vertex   2.327103e-02 4.916806e-02 1.600000e-02
      vertex   2.344284e-02 4.964129e-02 1.600000e-02
      vertex   2.313402e-02 4.960901e-02 1.600000e-02
    endloop
  endfacet
  facet normal 3.735615e-15 -1.457548e-14 1.000000e+00
    outer loop
      vertex   2.327103e-02 4.916806e-02 1.600000e-02
      vertex   2.313402e-02 4.960901e-02 1.600000e-02
      vertex   2.310277e-02 4.912494e-02 1.600000e-02
    endloop
  endfacet
  facet normal -2.048455e-14 -1.301220e-14 1.000000e+00
    outer loop
      vertex   2.310277e-02 4.912494e-02 1.600000e-02
      vertex   2.313402e-02 4.960901e-02 1.600000e-02
      vertex   2.284348e-02 4.953314e-02 1.600000e-02
    endloop
  endfacet
  facet normal 0.000000e+00 0.000000e+00 1.000000e+00
    outer loop
      vertex   2.310277e-02 4.912494e-02 1.600000e-02
      vertex   2.284348e-02 4.953314e-02 1.600000e-02
      vertex   2.295090e-02 4.904099e-02 1.600000e-02
    endloop
  endfacet
  facet normal 0.000000e+00 0.000000e+00 1.000000e+00
    outer loop
      vertex   2.295090e-02 4.904099e-02 1.600000e-02
      vertex   2.284348e-02 4.953314e-02 1.600000e-02
      vertex   2.258412e-02 4.938292e-02 1.600000e-02
    endloop
  endfacet
  facet normal 0.000000e+00 0.000000e+00 1.000000e+00
    outer loop
      vertex   2.295090e-02 4.904099e-02 1.600000e-02
      vertex   2.258412e-02 4.938292e-02 1.600000e-02
      vertex   2.280898e-02 4.893222e-02 1.600000e-02
    endloop
  endfacet
  facet normal 0.000000e+00 0.000000e+00 1.000000e+00
    outer loop
      vertex   2.280898e-02 4.893222e-02 1.600000e-02
      vertex   2.258412e-02 4.938292e-02 1.600000e-02
      vertex   2.234394e-02 4.918699e-02 1.600000e-02
    endloop
  endfacet
  facet normal 0.000000e+00 0.000000e+00 1.000000e+00
    outer loop
      vertex   2.280898e-02 4.893222e-02 1.600000e-02
      vertex   2.234394e-02 4.918699e-02 1.600000e-02
      vertex   2.269236e-02 4.878120e-02 1.600000e-02
    endloop
  endfacet
  facet normal 0.000000e+00 0.000000e+00 1.000000e+00
    outer loop
      vertex   2.269236e-02 4.878120e-02 1.600000e-02
      vertex   2.234394e-02 4.918699e-02 1.600000e-02
      vertex   2.215170e-02 4.889784e-02 1.600000e-02
    endloop
  endfacet
  facet normal 0.000000e+00 -0.000000e+00 -1.000000e+00
    outer loop
      vertex   2.410680e-02 4.695732e-02 8.000000e-03
      vertex   2.440669e-02 4.651032e-02 8.000000e-03
      vertex   2.399537e-02 4.684798e-02 8.000000e-03
    endloop
  endfacet
  facet normal 0.000000e+00 0.000000e+00 -1.000000e+00
    outer loop
      vertex   2.399537e-02 4.684798e-02 8.000000e-03
      vertex   2.440669e-02 4.651032e-02 8.000000e-03
      vertex   2.418995e-02 4.638727e-02 8.000000e-03
    endloop
  endfacet
  facet normal 0.000000e+00 -0.000000e+00 -1.000000e+00
    outer loop
      vertex   2.399537e-02 4.684798e-02 8.000000e-03
      vertex   2.418995e-02 4.638727e-02 8.000000e-03
      vertex   2.387497e-02 4.677845e-02 8.000000e-03
    endloop
  endfacet
  facet normal 0.000000e+00 0.000000e+00 -1.000000e+00
    outer loop
      vertex   2.387497e-02 4.677845e-02 8.000000e-03
      vertex   2.418995e-02 4.638727e-02 8.000000e-03
      vertex   2.396378e-02 4.629499e-02 8.000000e-03
    endloop
  endfacet
  facet normal 0.000000e+00 -0.000000e+00 -1.000000e+00
    outer loop
      vertex   2.387497e-02 4.677845e-02 8.000000e-03
      vertex   2.396378e-02 4.629499e-02 8.000000e-03
      vertex   2.374938e-02 4.672551e-02 8.000000e-03
    endloop
  endfacet
  facet normal 0.000000e+00 -0.000000e+00 -1.000000e+00
    outer loop
      vertex   2.374938e-02 4.672551e-02 8.000000e-03
      vertex   2.396378e-02 4.629499e-02 8.000000e-03
      vertex   2.372286e-02 4.625082e-02 8.000000e-03
    endloop
  endfacet
  facet normal 0.000000e+00 0.000000e+00 -1.000000e+00
    outer loop
      vertex   2.374938e-02 4.672551e-02 8.000000e-03
      vertex   2.372286e-02 4.625082e-02 8.000000e-03
      vertex   2.361542e-02 4.669919e-02 8.000000e-03
    endloop
  endfacet
  facet normal 0.000000e+00 -0.000000e+00 -1.000000e+00
    outer loop
      vertex   2.361542e-02 4.669919e-02 8.000000e-03
      vertex   2.372286e-02 4.625082e-02 8.000000e-03
      vertex   2.347354e-02 4.623406e-02 8.000000e-03
    endloop
  endfacet
  facet normal 0.000000e+00 0.000000e+00 -1.000000e+00
    outer loop
      vertex   2.361542e-02 4.669919e-02 8.000000e-03
      vertex   2.347354e-02 4.623406e-02 8.000000e-03
      vertex   2.347661e-02 4.668836e-02 8.000000e-03
    endloop
  endfacet
  facet normal -0.000000e+00 0.000000e+00 -1.000000e+00
    outer loop
      vertex   2.347661e-02 4.668836e-02 8.000000e-03
      vertex   2.347354e-02 4.623406e-02 8.000000e-03
      vertex   2.328525e-02 4.670987e-02 8.000000e-03
    endloop
  endfacet
  facet normal 0.000000e+00 -0.000000e+00 -1.000000e+00
    outer loop
      vertex   2.328525e-02 4.670987e-02 8.000000e-03
      vertex   2.347354e-02 4.623406e-02 8.000000e-03
      vertex   2.315731e-02 4.626241e-02 8.000000e-03
    endloop
  endfacet
  facet normal -0.000000e+00 0.000000e+00 -1.000000e+00
    outer loop
      vertex   2.328525e-02 4.670987e-02 8.000000e-03
      vertex   2.315731e-02 4.626241e-02 8.000000e-03
      vertex   2.310527e-02 4.675840e-02 8.000000e-03
    endloop
  endfacet
  facet normal 0.000000e+00 -0.000000e+00 -1.000000e+00
    outer loop
      vertex   2.310527e-02 4.675840e-02 8.000000e-03
      vertex   2.315731e-02 4.626241e-02 8.000000e-03
      vertex   2.285834e-02 4.633395e-02 8.000000e-03
    endloop
  endfacet
  facet normal -0.000000e+00 0.000000e+00 -1.000000e+00
    outer loop
      vertex   2.310527e-02 4.675840e-02 8.000000e-03
      vertex   2.285834e-02 4.633395e-02 8.000000e-03
      vertex   2.294442e-02 4.685236e-02 8.000000e-03
    endloop
  endfacet
  facet normal 0.000000e+00 0.000000e+00 -1.000000e+00
    outer loop
      vertex   2.294442e-02 4.685236e-02 8.000000e-03
      vertex   2.285834e-02 4.633395e-02 8.000000e-03
      vertex   2.258937e-02 4.648058e-02 8.000000e-03
    endloop
  endfacet
  facet normal -0.000000e+00 0.000000e+00 -1.000000e+00
    outer loop
      vertex   2.294442e-02 4.685236e-02 8.000000e-03
      vertex   2.258937e-02 4.648058e-02 8.000000e-03
      vertex   2.279516e-02 4.697383e-02 8.000000e-03
    endloop
  endfacet
  facet normal 0.000000e+00 0.000000e+00 -1.000000e+00
    outer loop
      vertex   2.279516e-02 4.697383e-02 8.000000e-03
      vertex   2.258937e-02 4.648058e-02 8.000000e-03
      vertex   2.233933e-02 4.667454e-02 8.000000e-03
    endloop
  endfacet
  facet normal -0.000000e+00 0.000000e+00 -1.000000e+00
    outer loop
      vertex   2.279516e-02 4.697383e-02 8.000000e-03
      vertex   2.233933e-02 4.667454e-02 8.000000e-03
      vertex   2.266725e-02 4.715940e-02 8.000000e-03
    endloop
  endfacet
  facet normal 0.000000e+00 0.000000e+00 -1.000000e+00
    outer loop
      vertex   2.266725e-02 4.715940e-02 8.000000e-03
      vertex   2.233933e-02 4.667454e-02 8.000000e-03
      vertex   2.214978e-02 4.695327e-02 8.000000e-03
    endloop
  endfacet
  facet normal -0.000000e+00 0.000000e+00 -1.000000e+00
    outer loop
      vertex   2.266725e-02 4.715940e-02 8.000000e-03
      vertex   2.214978e-02 4.695327e-02 8.000000e-03
      vertex   2.256955e-02 4.735666e-02 8.000000e-03
    endloop
  endfacet
  facet normal 0.000000e+00 0.000000e+00 -1.000000e+00
    outer loop
      vertex   2.256955e-02 4.735666e-02 8.000000e-03
      vertex   2.214978e-02 4.695327e-02 8.000000e-03
      vertex   2.200917e-02 4.724940e-02 8.000000e-03
    endloop
  endfacet
  facet normal -0.000000e+00 0.000000e+00 -1.000000e+00
    outer loop
      vertex   2.256955e-02 4.735666e-02 8.000000e-03
      vertex   2.200917e-02 4.724940e-02 8.000000e-03
      vertex   2.251763e-02 4.757162e-02 8.000000e-03
    endloop
  endfacet
  facet normal -0.000000e+00 0.000000e+00 -1.000000e+00
    outer loop
      vertex   2.251763e-02 4.757162e-02 8.000000e-03
      vertex   2.200917e-02 4.724940e-02 8.000000e-03
      vertex   2.194364e-02 4.757222e-02 8.000000e-03
    endloop
  endfacet
  facet normal 0.000000e+00 0.000000e+00 -1.000000e+00
    outer loop
      vertex   2.251763e-02 4.757162e-02 8.000000e-03
      vertex   2.194364e-02 4.757222e-02 8.000000e-03
      vertex   2.249128e-02 4.779647e-02 8.000000e-03
    endloop
  endfacet
  facet normal -0.000000e+00 0.000000e+00 -1.000000e+00
    outer loop
      vertex   2.249128e-02 4.779647e-02 8.000000e-03
      vertex   2.194364e-02 4.757222e-02 8.000000e-03
      vertex   2.192033e-02 4.791005e-02 8.000000e-03
    endloop
  endfacet
  facet normal 0.000000e+00 0.000000e+00 -1.000000e+00
    outer loop
      vertex   2.249128e-02 4.779647e-02 8.000000e-03
      vertex   2.192033e-02 4.791005e-02 8.000000e-03
      vertex   2.252197e-02 4.825077e-02 8.000000e-03
    endloop
  endfacet
  facet normal -0.000000e+00 0.000000e+00 -1.000000e+00
    outer loop
      vertex   2.252197e-02 4.825077e-02 8.000000e-03
      vertex   2.192033e-02 4.791005e-02 8.000000e-03
      vertex   2.194347e-02 4.825813e-02 8.000000e-03
    endloop
  endfacet
  facet normal 0.000000e+00 0.000000e+00 -1.000000e+00
    outer loop
      vertex   2.252197e-02 4.825077e-02 8.000000e-03
      vertex   2.194347e-02 4.825813e-02 8.000000e-03
      vertex   2.200943e-02 4.859128e-02 8.000000e-03
    endloop
  endfacet
  facet normal 0.000000e+00 0.000000e+00 -1.000000e+00
    outer loop
      vertex   2.440669e-02 4.651032e-02 8.000000e-03
      vertex   2.410680e-02 4.695732e-02 8.000000e-03
      vertex   2.457757e-02 4.667460e-02 8.000000e-03
    endloop
  endfacet
  facet normal 0.000000e+00 0.000000e+00 -1.000000e+00
    outer loop
      vertex   2.457757e-02 4.667460e-02 8.000000e-03
      vertex   2.410680e-02 4.695732e-02 8.000000e-03
      vertex   2.420292e-02 4.707718e-02 8.000000e-03
    endloop
  endfacet
  facet normal 0.000000e+00 0.000000e+00 -1.000000e+00
    outer loop
      vertex   2.457757e-02 4.667460e-02 8.000000e-03
      vertex   2.420292e-02 4.707718e-02 8.000000e-03
      vertex   2.472283e-02 4.685558e-02 8.000000e-03
    endloop
  endfacet
  facet normal 0.000000e+00 0.000000e+00 -1.000000e+00
    outer loop
      vertex   2.472283e-02 4.685558e-02 8.000000e-03
      vertex   2.420292e-02 4.707718e-02 8.000000e-03
      vertex   2.427595e-02 4.721293e-02 8.000000e-03
    endloop
  endfacet
  facet normal 0.000000e+00 0.000000e+00 -1.000000e+00
    outer loop
      vertex   2.472283e-02 4.685558e-02 8.000000e-03
      vertex   2.427595e-02 4.721293e-02 8.000000e-03
      vertex   2.482691e-02 4.706344e-02 8.000000e-03
    endloop
  endfacet
  facet normal 0.000000e+00 0.000000e+00 -1.000000e+00
    outer loop
      vertex   2.482691e-02 4.706344e-02 8.000000e-03
      vertex   2.427595e-02 4.721293e-02 8.000000e-03
      vertex   2.433609e-02 4.735752e-02 8.000000e-03
    endloop
  endfacet
  facet normal 0.000000e+00 0.000000e+00 -1.000000e+00
    outer loop
      vertex   2.482691e-02 4.706344e-02 8.000000e-03
      vertex   2.433609e-02 4.735752e-02 8.000000e-03
      vertex   2.490703e-02 4.728692e-02 8.000000e-03
    endloop
  endfacet
  facet normal 1.109094e-14 1.669435e-14 -1.000000e+00
    outer loop
      vertex   2.252197e-02 4.825077e-02 8.000000e-03
      vertex   2.200943e-02 4.859128e-02 8.000000e-03
      vertex   2.254994e-02 4.844001e-02 8.000000e-03
    endloop
  endfacet
  facet normal 5.680959e-15 -2.636500e-15 -1.000000e+00
    outer loop
      vertex   2.254994e-02 4.844001e-02 8.000000e-03
      vertex   2.200943e-02 4.859128e-02 8.000000e-03
      vertex   2.215170e-02 4.889784e-02 8.000000e-03
    endloop
  endfacet
  facet normal -1.019604e-14 -1.644695e-14 -1.000000e+00
    outer loop
      vertex   2.254994e-02 4.844001e-02 8.000000e-03
      vertex   2.215170e-02 4.889784e-02 8.000000e-03
      vertex   2.260106e-02 4.861927e-02 8.000000e-03
    endloop
  endfacet
  facet normal 0.000000e+00 0.000000e+00 -1.000000e+00
    outer loop
      vertex   2.260106e-02 4.861927e-02 8.000000e-03
      vertex   2.215170e-02 4.889784e-02 8.000000e-03
      vertex   2.269236e-02 4.878120e-02 8.000000e-03
    endloop
  endfacet
  facet normal 0.000000e+00 0.000000e+00 -1.000000e+00
    outer loop
      vertex   2.269236e-02 4.878120e-02 8.000000e-03
      vertex   2.215170e-02 4.889784e-02 8.000000e-03
      vertex   2.234394e-02 4.918699e-02 8.000000e-03
    endloop
  endfacet
  facet normal 0.000000e+00 0.000000e+00 -1.000000e+00
    outer loop
      vertex   2.269236e-02 4.878120e-02 8.000000e-03
      vertex   2.234394e-02 4.918699e-02 8.000000e-03
      vertex   2.280898e-02 4.893222e-02 8.000000e-03
    endloop
  endfacet
  facet normal 0.000000e+00 0.000000e+00 -1.000000e+00
    outer loop
      vertex   2.280898e-02 4.893222e-02 8.000000e-03
      vertex   2.234394e-02 4.918699e-02 8.000000e-03
      vertex   2.258412e-02 4.938292e-02 8.000000e-03
    endloop
  endfacet
  facet normal 0.000000e+00 0.000000e+00 -1.000000e+00
    outer loop
      vertex   2.280898e-02 4.893222e-02 8.000000e-03
      vertex   2.258412e-02 4.938292e-02 8.000000e-03
      vertex   2.295090e-02 4.904099e-02 8.000000e-03
    endloop
  endfacet
  facet normal 0.000000e+00 0.000000e+00 -1.000000e+00
    outer loop
      vertex   2.295090e-02 4.904099e-02 8.000000e-03
      vertex   2.258412e-02 4.938292e-02 8.000000e-03
      vertex   2.284348e-02 4.953314e-02 8.000000e-03
    endloop
  endfacet
  facet normal 0.000000e+00 0.000000e+00 -1.000000e+00
    outer loop
      vertex   2.295090e-02 4.904099e-02 8.000000e-03
      vertex   2.284348e-02 4.953314e-02 8.000000e-03
      vertex   2.310277e-02 4.912494e-02 8.000000e-03
    endloop
  endfacet
  facet normal 1.024228e-14 6.506102e-15 -1.000000e+00
    outer loop
      vertex   2.310277e-02 4.912494e-02 8.000000e-03
      vertex   2.284348e-02 4.953314e-02 8.000000e-03
      vertex   2.313402e-02 4.960901e-02 8.000000e-03
    endloop
  endfacet
  facet normal -1.867808e-15 7.287740e-15 -1.000000e+00
    outer loop
      vertex   2.310277e-02 4.912494e-02 8.000000e-03
      vertex   2.313402e-02 4.960901e-02 8.000000e-03
      vertex   2.327103e-02 4.916806e-02 8.000000e-03
    endloop
  endfacet
  facet normal -1.167737e-14 4.239784e-15 -1.000000e+00
    outer loop
      vertex   2.327103e-02 4.916806e-02 8.000000e-03
      vertex   2.313402e-02 4.960901e-02 8.000000e-03
      vertex   2.344284e-02 4.964129e-02 8.000000e-03
    endloop
  endfacet
  facet normal 0.000000e+00 0.000000e+00 -1.000000e+00
    outer loop
      vertex   2.327103e-02 4.916806e-02 8.000000e-03
      vertex   2.344284e-02 4.964129e-02 8.000000e-03
      vertex   2.344898e-02 4.918699e-02 8.000000e-03
    endloop
  endfacet
  facet normal 0.000000e+00 0.000000e+00 -1.000000e+00
    outer loop
      vertex   2.344898e-02 4.918699e-02 8.000000e-03
      vertex   2.344284e-02 4.964129e-02 8.000000e-03
      vertex   2.364596e-02 4.916247e-02 8.000000e-03
    endloop
  endfacet
  facet normal 0.000000e+00 0.000000e+00 -1.000000e+00
    outer loop
      vertex   2.364596e-02 4.916247e-02 8.000000e-03
      vertex   2.344284e-02 4.964129e-02 8.000000e-03
      vertex   2.374333e-02 4.960925e-02 8.000000e-03
    endloop
  endfacet
  facet normal 0.000000e+00 0.000000e+00 -1.000000e+00
    outer loop
      vertex   2.364596e-02 4.916247e-02 8.000000e-03
      vertex   2.374333e-02 4.960925e-02 8.000000e-03
      vertex   2.382889e-02 4.910788e-02 8.000000e-03
    endloop
  endfacet
  facet normal 0.000000e+00 0.000000e+00 -1.000000e+00
    outer loop
      vertex   2.382889e-02 4.910788e-02 8.000000e-03
      vertex   2.374333e-02 4.960925e-02 8.000000e-03
      vertex   2.402584e-02 4.953462e-02 8.000000e-03
    endloop
  endfacet
  facet normal 0.000000e+00 0.000000e+00 -1.000000e+00
    outer loop
      vertex   2.382889e-02 4.910788e-02 8.000000e-03
      vertex   2.402584e-02 4.953462e-02 8.000000e-03
      vertex   2.398828e-02 4.900298e-02 8.000000e-03
    endloop
  endfacet
  facet normal 0.000000e+00 0.000000e+00 -1.000000e+00
    outer loop
      vertex   2.398828e-02 4.900298e-02 8.000000e-03
      vertex   2.402584e-02 4.953462e-02 8.000000e-03
      vertex   2.427781e-02 4.938760e-02 8.000000e-03
    endloop
  endfacet
  facet normal 0.000000e+00 0.000000e+00 -1.000000e+00
    outer loop
      vertex   2.398828e-02 4.900298e-02 8.000000e-03
      vertex   2.427781e-02 4.938760e-02 8.000000e-03
      vertex   2.413350e-02 4.886776e-02 8.000000e-03
    endloop
  endfacet
  facet normal 0.000000e+00 0.000000e+00 -1.000000e+00
    outer loop
      vertex   2.413350e-02 4.886776e-02 8.000000e-03
      vertex   2.427781e-02 4.938760e-02 8.000000e-03
      vertex   2.451106e-02 4.919620e-02 8.000000e-03
    endloop
  endfacet
  facet normal 0.000000e+00 0.000000e+00 -1.000000e+00
    outer loop
      vertex   2.413350e-02 4.886776e-02 8.000000e-03
      vertex   2.451106e-02 4.919620e-02 8.000000e-03
      vertex   2.421841e-02 4.872521e-02 8.000000e-03
    endloop
  endfacet
  facet normal 0.000000e+00 0.000000e+00 -1.000000e+00
    outer loop
      vertex   2.421841e-02 4.872521e-02 8.000000e-03
      vertex   2.451106e-02 4.919620e-02 8.000000e-03
      vertex   2.469922e-02 4.891251e-02 8.000000e-03
    endloop
  endfacet
  facet normal 0.000000e+00 0.000000e+00 -1.000000e+00
    outer loop
      vertex   2.421841e-02 4.872521e-02 8.000000e-03
      vertex   2.469922e-02 4.891251e-02 8.000000e-03
      vertex   2.428383e-02 4.857570e-02 8.000000e-03
    endloop
  endfacet
  facet normal 0.000000e+00 0.000000e+00 -1.000000e+00
    outer loop
      vertex   2.428383e-02 4.857570e-02 8.000000e-03
      vertex   2.469922e-02 4.891251e-02 8.000000e-03
      vertex   2.483843e-02 4.861180e-02 8.000000e-03
    endloop
  endfacet
  facet normal 0.000000e+00 0.000000e+00 -1.000000e+00
    outer loop
      vertex   2.428383e-02 4.857570e-02 8.000000e-03
      vertex   2.483843e-02 4.861180e-02 8.000000e-03
      vertex   2.432082e-02 4.841602e-02 8.000000e-03
    endloop
  endfacet
  facet normal 0.000000e+00 0.000000e+00 -1.000000e+00
    outer loop
      vertex   2.432082e-02 4.841602e-02 8.000000e-03
      vertex   2.483843e-02 4.861180e-02 8.000000e-03
      vertex   2.490290e-02 4.828509e-02 8.000000e-03
    endloop
  endfacet
  facet normal 0.000000e+00 0.000000e+00 -1.000000e+00
    outer loop
      vertex   2.432082e-02 4.841602e-02 8.000000e-03
      vertex   2.490290e-02 4.828509e-02 8.000000e-03
      vertex   2.434223e-02 4.825077e-02 8.000000e-03
    endloop
  endfacet
  facet normal 0.000000e+00 0.000000e+00 -1.000000e+00
    outer loop
      vertex   2.434223e-02 4.825077e-02 8.000000e-03
      vertex   2.490290e-02 4.828509e-02 8.000000e-03
      vertex   2.492545e-02 4.794381e-02 8.000000e-03
    endloop
  endfacet
  facet normal 0.000000e+00 0.000000e+00 -1.000000e+00
    outer loop
      vertex   2.434223e-02 4.825077e-02 8.000000e-03
      vertex   2.492545e-02 4.794381e-02 8.000000e-03
      vertex   2.492506e-02 4.790697e-02 8.000000e-03
    endloop
  endfacet
  facet normal -0.000000e+00 0.000000e+00 -1.000000e+00
    outer loop
      vertex   2.492506e-02 4.790697e-02 8.000000e-03
      vertex   2.492444e-02 4.787013e-02 8.000000e-03
      vertex   2.434223e-02 4.825077e-02 8.000000e-03
    endloop
  endfacet
  facet normal 0.000000e+00 0.000000e+00 -1.000000e+00
    outer loop
      vertex   2.434223e-02 4.825077e-02 8.000000e-03
      vertex   2.492444e-02 4.787013e-02 8.000000e-03
      vertex   2.492349e-02 4.783330e-02 8.000000e-03
    endloop
  endfacet
  facet normal 0.000000e+00 0.000000e+00 -1.000000e+00
    outer loop
      vertex   2.434223e-02 4.825077e-02 8.000000e-03
      vertex   2.492349e-02 4.783330e-02 8.000000e-03
      vertex   2.492238e-02 4.779647e-02 8.000000e-03
    endloop
  endfacet
  facet normal 0.000000e+00 0.000000e+00 -1.000000e+00
    outer loop
      vertex   2.492238e-02 4.779647e-02 8.000000e-03
      vertex   2.249128e-02 4.779647e-02 8.000000e-03
      vertex   2.434223e-02 4.825077e-02 8.000000e-03
    endloop
  endfacet
  facet normal -0.000000e+00 0.000000e+00 -1.000000e+00
    outer loop
      vertex   2.434223e-02 4.825077e-02 8.000000e-03
      vertex   2.249128e-02 4.779647e-02 8.000000e-03
      vertex   2.252197e-02 4.825077e-02 8.000000e-03
    endloop
  endfacet
endsolid
