solid ASCII
  facet normal 1.057811e-01 -9.943894e-01 0.000000e+00
    outer loop
      vertex   3.604170e-02 4.918699e-02 8.000000e-03
      vertex   3.604170e-02 4.918699e-02 1.600000e-02
      vertex   3.586374e-02 4.916806e-02 1.200000e-02
    endloop
  endfacet
  facet normal 1.057811e-01 -9.943894e-01 -3.266480e-15
    outer loop
      vertex   3.586374e-02 4.916806e-02 1.200000e-02
      vertex   3.604170e-02 4.918699e-02 1.600000e-02
      vertex   3.586374e-02 4.916806e-02 1.600000e-02
    endloop
  endfacet
  facet normal 2.482711e-01 -9.686906e-01 -2.930139e-15
    outer loop
      vertex   3.586374e-02 4.916806e-02 1.200000e-02
      vertex   3.586374e-02 4.916806e-02 1.600000e-02
      vertex   3.569549e-02 4.912494e-02 1.600000e-02
    endloop
  endfacet
  facet normal 2.482711e-01 -9.686906e-01 -2.930042e-15
    outer loop
      vertex   3.586374e-02 4.916806e-02 1.200000e-02
      vertex   3.569549e-02 4.912494e-02 1.600000e-02
      vertex   3.569549e-02 4.912494e-02 1.200000e-02
    endloop
  endfacet
  facet normal 4.837699e-01 -8.751952e-01 -2.197236e-15
    outer loop
      vertex   3.569549e-02 4.912494e-02 1.200000e-02
      vertex   3.569549e-02 4.912494e-02 1.600000e-02
      vertex   3.554361e-02 4.904099e-02 1.600000e-02
    endloop
  endfacet
  facet normal 4.837699e-01 -8.751952e-01 3.036375e-15
    outer loop
      vertex   3.569549e-02 4.912494e-02 1.200000e-02
      vertex   3.554361e-02 4.904099e-02 1.600000e-02
      vertex   3.554361e-02 4.904099e-02 1.200000e-02
    endloop
  endfacet
  facet normal 6.083121e-01 -7.936979e-01 2.753693e-15
    outer loop
      vertex   3.554361e-02 4.904099e-02 1.200000e-02
      vertex   3.554361e-02 4.904099e-02 1.600000e-02
      vertex   3.540169e-02 4.893222e-02 1.600000e-02
    endloop
  endfacet
  facet normal 6.083121e-01 -7.936979e-01 0.000000e+00
    outer loop
      vertex   3.554361e-02 4.904099e-02 1.200000e-02
      vertex   3.540169e-02 4.893222e-02 1.600000e-02
      vertex   3.540169e-02 4.893222e-02 8.000000e-03
    endloop
  endfacet
  facet normal 6.083121e-01 -7.936979e-01 -2.752514e-15
    outer loop
      vertex   3.540169e-02 4.893222e-02 8.000000e-03
      vertex   3.554361e-02 4.904099e-02 8.000000e-03
      vertex   3.554361e-02 4.904099e-02 1.200000e-02
    endloop
  endfacet
  facet normal 4.837699e-01 -8.751952e-01 -3.036443e-15
    outer loop
      vertex   3.554361e-02 4.904099e-02 1.200000e-02
      vertex   3.554361e-02 4.904099e-02 8.000000e-03
      vertex   3.569549e-02 4.912494e-02 8.000000e-03
    endloop
  endfacet
  facet normal 4.837699e-01 -8.751952e-01 2.197440e-15
    outer loop
      vertex   3.554361e-02 4.904099e-02 1.200000e-02
      vertex   3.569549e-02 4.912494e-02 8.000000e-03
      vertex   3.569549e-02 4.912494e-02 1.200000e-02
    endloop
  endfacet
  facet normal 2.482711e-01 -9.686906e-01 2.930139e-15
    outer loop
      vertex   3.569549e-02 4.912494e-02 1.200000e-02
      vertex   3.569549e-02 4.912494e-02 8.000000e-03
      vertex   3.586374e-02 4.916806e-02 8.000000e-03
    endloop
  endfacet
  facet normal 2.482711e-01 -9.686906e-01 2.930042e-15
    outer loop
      vertex   3.569549e-02 4.912494e-02 1.200000e-02
      vertex   3.586374e-02 4.916806e-02 8.000000e-03
      vertex   3.586374e-02 4.916806e-02 1.200000e-02
    endloop
  endfacet
  facet normal 1.057811e-01 -9.943894e-01 3.266480e-15
    outer loop
      vertex   3.586374e-02 4.916806e-02 1.200000e-02
      vertex   3.586374e-02 4.916806e-02 8.000000e-03
      vertex   3.604170e-02 4.918699e-02 8.000000e-03
    endloop
  endfacet
  facet normal -6.814759e-01 -7.318405e-01 -0.000000e+00
    outer loop
      vertex   3.672621e-02 4.886776e-02 1.600000e-02
      vertex   3.658100e-02 4.900298e-02 1.600000e-02
      vertex   3.672621e-02 4.886776e-02 8.000000e-03
    endloop
  endfacet
  facet normal -6.814759e-01 -7.318405e-01 0.000000e+00
    outer loop
      vertex   3.672621e-02 4.886776e-02 8.000000e-03
      vertex   3.658100e-02 4.900298e-02 1.600000e-02
      vertex   3.658100e-02 4.900298e-02 8.000000e-03
    endloop
  endfacet
  facet normal -5.497451e-01 -8.353324e-01 0.000000e+00
    outer loop
      vertex   3.658100e-02 4.900298e-02 8.000000e-03
      vertex   3.658100e-02 4.900298e-02 1.600000e-02
      vertex   3.642160e-02 4.910788e-02 1.600000e-02
    endloop
  endfacet
  facet normal -5.497451e-01 -8.353324e-01 0.000000e+00
    outer loop
      vertex   3.658100e-02 4.900298e-02 8.000000e-03
      vertex   3.642160e-02 4.910788e-02 1.600000e-02
      vertex   3.642160e-02 4.910788e-02 8.000000e-03
    endloop
  endfacet
  facet normal -2.859459e-01 -9.582458e-01 0.000000e+00
    outer loop
      vertex   3.642160e-02 4.910788e-02 8.000000e-03
      vertex   3.642160e-02 4.910788e-02 1.600000e-02
      vertex   3.623868e-02 4.916247e-02 1.600000e-02
    endloop
  endfacet
  facet normal -2.859459e-01 -9.582458e-01 0.000000e+00
    outer loop
      vertex   3.642160e-02 4.910788e-02 8.000000e-03
      vertex   3.623868e-02 4.916247e-02 1.600000e-02
      vertex   3.623868e-02 4.916247e-02 8.000000e-03
    endloop
  endfacet
  facet normal -1.235592e-01 -9.923372e-01 0.000000e+00
    outer loop
      vertex   3.623868e-02 4.916247e-02 8.000000e-03
      vertex   3.623868e-02 4.916247e-02 1.600000e-02
      vertex   3.604170e-02 4.918699e-02 1.600000e-02
    endloop
  endfacet
  facet normal -1.235592e-01 -9.923372e-01 0.000000e+00
    outer loop
      vertex   3.623868e-02 4.916247e-02 8.000000e-03
      vertex   3.604170e-02 4.918699e-02 1.600000e-02
      vertex   3.604170e-02 4.918699e-02 8.000000e-03
    endloop
  endfacet
  facet normal -9.917074e-01 -1.285166e-01 0.000000e+00
    outer loop
      vertex   3.693494e-02 4.825077e-02 8.000000e-03
      vertex   3.693494e-02 4.825077e-02 1.600000e-02
      vertex   3.691353e-02 4.841602e-02 1.200000e-02
    endloop
  endfacet
  facet normal -9.917074e-01 -1.285166e-01 -1.720338e-15
    outer loop
      vertex   3.691353e-02 4.841602e-02 1.200000e-02
      vertex   3.693494e-02 4.825077e-02 1.600000e-02
      vertex   3.691353e-02 4.841602e-02 1.600000e-02
    endloop
  endfacet
  facet normal -9.742133e-01 -2.256291e-01 -1.689991e-15
    outer loop
      vertex   3.691353e-02 4.841602e-02 1.200000e-02
      vertex   3.691353e-02 4.841602e-02 1.600000e-02
      vertex   3.687655e-02 4.857570e-02 1.600000e-02
    endloop
  endfacet
  facet normal -9.742133e-01 -2.256291e-01 0.000000e+00
    outer loop
      vertex   3.691353e-02 4.841602e-02 1.200000e-02
      vertex   3.687655e-02 4.857570e-02 1.600000e-02
      vertex   3.687655e-02 4.857570e-02 1.200000e-02
    endloop
  endfacet
  facet normal -9.161422e-01 -4.008533e-01 0.000000e+00
    outer loop
      vertex   3.687655e-02 4.857570e-02 1.200000e-02
      vertex   3.687655e-02 4.857570e-02 1.600000e-02
      vertex   3.681113e-02 4.872521e-02 1.600000e-02
    endloop
  endfacet
  facet normal -9.161422e-01 -4.008533e-01 -8.945958e-16
    outer loop
      vertex   3.687655e-02 4.857570e-02 1.200000e-02
      vertex   3.681113e-02 4.872521e-02 1.600000e-02
      vertex   3.681113e-02 4.872521e-02 1.200000e-02
    endloop
  endfacet
  facet normal -8.591135e-01 -5.117851e-01 -6.025188e-16
    outer loop
      vertex   3.681113e-02 4.872521e-02 1.200000e-02
      vertex   3.681113e-02 4.872521e-02 1.600000e-02
      vertex   3.672621e-02 4.886776e-02 1.600000e-02
    endloop
  endfacet
  facet normal -8.591135e-01 -5.117851e-01 0.000000e+00
    outer loop
      vertex   3.681113e-02 4.872521e-02 1.200000e-02
      vertex   3.672621e-02 4.886776e-02 1.600000e-02
      vertex   3.672621e-02 4.886776e-02 8.000000e-03
    endloop
  endfacet
  facet normal -8.591135e-01 -5.117851e-01 6.032395e-16
    outer loop
      vertex   3.672621e-02 4.886776e-02 8.000000e-03
      vertex   3.681113e-02 4.872521e-02 8.000000e-03
      vertex   3.681113e-02 4.872521e-02 1.200000e-02
    endloop
  endfacet
  facet normal -9.161422e-01 -4.008533e-01 8.938838e-16
    outer loop
      vertex   3.681113e-02 4.872521e-02 1.200000e-02
      vertex   3.681113e-02 4.872521e-02 8.000000e-03
      vertex   3.687655e-02 4.857570e-02 8.000000e-03
    endloop
  endfacet
  facet normal -9.161422e-01 -4.008533e-01 0.000000e+00
    outer loop
      vertex   3.681113e-02 4.872521e-02 1.200000e-02
      vertex   3.687655e-02 4.857570e-02 8.000000e-03
      vertex   3.687655e-02 4.857570e-02 1.200000e-02
    endloop
  endfacet
  facet normal -9.742133e-01 -2.256291e-01 -0.000000e+00
    outer loop
      vertex   3.687655e-02 4.857570e-02 1.200000e-02
      vertex   3.687655e-02 4.857570e-02 8.000000e-03
      vertex   3.691353e-02 4.841602e-02 8.000000e-03
    endloop
  endfacet
  facet normal -9.742133e-01 -2.256291e-01 1.689358e-15
    outer loop
      vertex   3.687655e-02 4.857570e-02 1.200000e-02
      vertex   3.691353e-02 4.841602e-02 8.000000e-03
      vertex   3.691353e-02 4.841602e-02 1.200000e-02
    endloop
  endfacet
  facet normal -9.917074e-01 -1.285166e-01 1.720338e-15
    outer loop
      vertex   3.691353e-02 4.841602e-02 1.200000e-02
      vertex   3.691353e-02 4.841602e-02 8.000000e-03
      vertex   3.693494e-02 4.825077e-02 8.000000e-03
    endloop
  endfacet
  facet normal -0.000000e+00 1.000000e+00 0.000000e+00
    outer loop
      vertex   3.511468e-02 4.825077e-02 1.600000e-02
      vertex   3.693494e-02 4.825077e-02 1.600000e-02
      vertex   3.511468e-02 4.825077e-02 8.000000e-03
    endloop
  endfacet
  facet normal 0.000000e+00 1.000000e+00 0.000000e+00
    outer loop
      vertex   3.511468e-02 4.825077e-02 8.000000e-03
      vertex   3.693494e-02 4.825077e-02 1.600000e-02
      vertex   3.693494e-02 4.825077e-02 8.000000e-03
    endloop
  endfacet
  facet normal 7.914911e-01 -6.111807e-01 0.000000e+00
    outer loop
      vertex   3.540169e-02 4.893222e-02 8.000000e-03
      vertex   3.540169e-02 4.893222e-02 1.600000e-02
      vertex   3.528508e-02 4.878120e-02 1.200000e-02
    endloop
  endfacet
  facet normal 7.914911e-01 -6.111807e-01 3.127886e-16
    outer loop
      vertex   3.528508e-02 4.878120e-02 1.200000e-02
      vertex   3.540169e-02 4.893222e-02 1.600000e-02
      vertex   3.528508e-02 4.878120e-02 1.600000e-02
    endloop
  endfacet
  facet normal 8.710617e-01 -4.911736e-01 6.590009e-16
    outer loop
      vertex   3.528508e-02 4.878120e-02 1.200000e-02
      vertex   3.528508e-02 4.878120e-02 1.600000e-02
      vertex   3.519377e-02 4.861927e-02 1.600000e-02
    endloop
  endfacet
  facet normal 8.710617e-01 -4.911736e-01 0.000000e+00
    outer loop
      vertex   3.528508e-02 4.878120e-02 1.200000e-02
      vertex   3.519377e-02 4.861927e-02 1.600000e-02
      vertex   3.519377e-02 4.861927e-02 1.200000e-02
    endloop
  endfacet
  facet normal 9.616685e-01 -2.742147e-01 0.000000e+00
    outer loop
      vertex   3.519377e-02 4.861927e-02 1.200000e-02
      vertex   3.519377e-02 4.861927e-02 1.600000e-02
      vertex   3.514265e-02 4.844001e-02 1.600000e-02
    endloop
  endfacet
  facet normal 9.616685e-01 -2.742147e-01 0.000000e+00
    outer loop
      vertex   3.519377e-02 4.861927e-02 1.200000e-02
      vertex   3.514265e-02 4.844001e-02 1.600000e-02
      vertex   3.514265e-02 4.844001e-02 1.200000e-02
    endloop
  endfacet
  facet normal 9.892538e-01 -1.462085e-01 0.000000e+00
    outer loop
      vertex   3.514265e-02 4.844001e-02 1.200000e-02
      vertex   3.514265e-02 4.844001e-02 1.600000e-02
      vertex   3.511468e-02 4.825077e-02 1.600000e-02
    endloop
  endfacet
  facet normal 9.892538e-01 -1.462085e-01 0.000000e+00
    outer loop
      vertex   3.514265e-02 4.844001e-02 1.200000e-02
      vertex   3.511468e-02 4.825077e-02 1.600000e-02
      vertex   3.511468e-02 4.825077e-02 8.000000e-03
    endloop
  endfacet
  facet normal 9.892538e-01 -1.462085e-01 0.000000e+00
    outer loop
      vertex   3.511468e-02 4.825077e-02 8.000000e-03
      vertex   3.514265e-02 4.844001e-02 8.000000e-03
      vertex   3.514265e-02 4.844001e-02 1.200000e-02
    endloop
  endfacet
  facet normal 9.616685e-01 -2.742147e-01 0.000000e+00
    outer loop
      vertex   3.514265e-02 4.844001e-02 1.200000e-02
      vertex   3.514265e-02 4.844001e-02 8.000000e-03
      vertex   3.519377e-02 4.861927e-02 8.000000e-03
    endloop
  endfacet
  facet normal 9.616685e-01 -2.742147e-01 0.000000e+00
    outer loop
      vertex   3.514265e-02 4.844001e-02 1.200000e-02
      vertex   3.519377e-02 4.861927e-02 8.000000e-03
      vertex   3.519377e-02 4.861927e-02 1.200000e-02
    endloop
  endfacet
  facet normal 8.710617e-01 -4.911736e-01 0.000000e+00
    outer loop
      vertex   3.519377e-02 4.861927e-02 1.200000e-02
      vertex   3.519377e-02 4.861927e-02 8.000000e-03
      vertex   3.528508e-02 4.878120e-02 8.000000e-03
    endloop
  endfacet
  facet normal 8.710617e-01 -4.911736e-01 -6.585479e-16
    outer loop
      vertex   3.519377e-02 4.861927e-02 1.200000e-02
      vertex   3.528508e-02 4.878120e-02 8.000000e-03
      vertex   3.528508e-02 4.878120e-02 1.200000e-02
    endloop
  endfacet
  facet normal 7.914911e-01 -6.111807e-01 -3.127886e-16
    outer loop
      vertex   3.528508e-02 4.878120e-02 1.200000e-02
      vertex   3.528508e-02 4.878120e-02 8.000000e-03
      vertex   3.540169e-02 4.893222e-02 8.000000e-03
    endloop
  endfacet
  facet normal -7.782570e-02 9.969670e-01 0.000000e+00
    outer loop
      vertex   3.606932e-02 4.668836e-02 8.000000e-03
      vertex   3.606932e-02 4.668836e-02 1.600000e-02
      vertex   3.620813e-02 4.669919e-02 1.200000e-02
    endloop
  endfacet
  facet normal -7.782570e-02 9.969670e-01 -3.323918e-15
    outer loop
      vertex   3.620813e-02 4.669919e-02 1.200000e-02
      vertex   3.606932e-02 4.668836e-02 1.600000e-02
      vertex   3.620813e-02 4.669919e-02 1.600000e-02
    endloop
  endfacet
  facet normal -1.927492e-01 9.812481e-01 -3.070022e-15
    outer loop
      vertex   3.620813e-02 4.669919e-02 1.200000e-02
      vertex   3.620813e-02 4.669919e-02 1.600000e-02
      vertex   3.634209e-02 4.672551e-02 1.600000e-02
    endloop
  endfacet
  facet normal -1.927492e-01 9.812481e-01 0.000000e+00
    outer loop
      vertex   3.620813e-02 4.669919e-02 1.200000e-02
      vertex   3.634209e-02 4.672551e-02 1.600000e-02
      vertex   3.634209e-02 4.672551e-02 1.200000e-02
    endloop
  endfacet
  facet normal -3.884708e-01 9.214610e-01 0.000000e+00
    outer loop
      vertex   3.634209e-02 4.672551e-02 1.200000e-02
      vertex   3.634209e-02 4.672551e-02 1.600000e-02
      vertex   3.646769e-02 4.677846e-02 1.600000e-02
    endloop
  endfacet
  facet normal -3.884708e-01 9.214610e-01 6.736382e-16
    outer loop
      vertex   3.634209e-02 4.672551e-02 1.200000e-02
      vertex   3.646769e-02 4.677846e-02 1.600000e-02
      vertex   3.646769e-02 4.677846e-02 1.200000e-02
    endloop
  endfacet
  facet normal -5.000580e-01 8.659919e-01 8.674624e-16
    outer loop
      vertex   3.646769e-02 4.677846e-02 1.200000e-02
      vertex   3.646769e-02 4.677846e-02 1.600000e-02
      vertex   3.658808e-02 4.684798e-02 1.600000e-02
    endloop
  endfacet
  facet normal -5.000580e-01 8.659919e-01 0.000000e+00
    outer loop
      vertex   3.646769e-02 4.677846e-02 1.200000e-02
      vertex   3.658808e-02 4.684798e-02 1.600000e-02
      vertex   3.658808e-02 4.684798e-02 8.000000e-03
    endloop
  endfacet
  facet normal -5.000580e-01 8.659919e-01 -8.686852e-16
    outer loop
      vertex   3.658808e-02 4.684798e-02 8.000000e-03
      vertex   3.646769e-02 4.677846e-02 8.000000e-03
      vertex   3.646769e-02 4.677846e-02 1.200000e-02
    endloop
  endfacet
  facet normal -3.884708e-01 9.214610e-01 -6.738894e-16
    outer loop
      vertex   3.646769e-02 4.677846e-02 1.200000e-02
      vertex   3.646769e-02 4.677846e-02 8.000000e-03
      vertex   3.634209e-02 4.672551e-02 8.000000e-03
    endloop
  endfacet
  facet normal -3.884708e-01 9.214610e-01 0.000000e+00
    outer loop
      vertex   3.646769e-02 4.677846e-02 1.200000e-02
      vertex   3.634209e-02 4.672551e-02 8.000000e-03
      vertex   3.634209e-02 4.672551e-02 1.200000e-02
    endloop
  endfacet
  facet normal -1.927492e-01 9.812481e-01 0.000000e+00
    outer loop
      vertex   3.634209e-02 4.672551e-02 1.200000e-02
      vertex   3.634209e-02 4.672551e-02 8.000000e-03
      vertex   3.620813e-02 4.669919e-02 8.000000e-03
    endloop
  endfacet
  facet normal -1.927492e-01 9.812481e-01 3.069764e-15
    outer loop
      vertex   3.634209e-02 4.672551e-02 1.200000e-02
      vertex   3.620813e-02 4.669919e-02 8.000000e-03
      vertex   3.620813e-02 4.669919e-02 1.200000e-02
    endloop
  endfacet
  facet normal -7.782570e-02 9.969670e-01 3.323918e-15
    outer loop
      vertex   3.620813e-02 4.669919e-02 1.200000e-02
      vertex   3.620813e-02 4.669919e-02 8.000000e-03
      vertex   3.606932e-02 4.668836e-02 8.000000e-03
    endloop
  endfacet
  facet normal 6.312128e-01 7.756097e-01 -0.000000e+00
    outer loop
      vertex   3.538788e-02 4.697383e-02 8.000000e-03
      vertex   3.538788e-02 4.697383e-02 1.600000e-02
      vertex   3.553713e-02 4.685236e-02 1.200000e-02
    endloop
  endfacet
  facet normal 6.312128e-01 7.756097e-01 -1.345468e-15
    outer loop
      vertex   3.553713e-02 4.685236e-02 1.200000e-02
      vertex   3.538788e-02 4.697383e-02 1.600000e-02
      vertex   3.553713e-02 4.685236e-02 1.600000e-02
    endloop
  endfacet
  facet normal 5.043847e-01 8.634790e-01 -1.497897e-15
    outer loop
      vertex   3.553713e-02 4.685236e-02 1.200000e-02
      vertex   3.553713e-02 4.685236e-02 1.600000e-02
      vertex   3.569798e-02 4.675840e-02 1.600000e-02
    endloop
  endfacet
  facet normal 5.043847e-01 8.634790e-01 1.496478e-15
    outer loop
      vertex   3.553713e-02 4.685236e-02 1.200000e-02
      vertex   3.569798e-02 4.675840e-02 1.600000e-02
      vertex   3.569798e-02 4.675840e-02 1.200000e-02
    endloop
  endfacet
  facet normal 2.603297e-01 9.655198e-01 1.674910e-15
    outer loop
      vertex   3.569798e-02 4.675840e-02 1.200000e-02
      vertex   3.569798e-02 4.675840e-02 1.600000e-02
      vertex   3.587796e-02 4.670987e-02 1.600000e-02
    endloop
  endfacet
  facet normal 2.603297e-01 9.655198e-01 0.000000e+00
    outer loop
      vertex   3.569798e-02 4.675840e-02 1.200000e-02
      vertex   3.587796e-02 4.670987e-02 1.600000e-02
      vertex   3.587796e-02 4.670987e-02 1.200000e-02
    endloop
  endfacet
  facet normal 1.117427e-01 9.937372e-01 -0.000000e+00
    outer loop
      vertex   3.587796e-02 4.670987e-02 1.200000e-02
      vertex   3.587796e-02 4.670987e-02 1.600000e-02
      vertex   3.606932e-02 4.668836e-02 1.600000e-02
    endloop
  endfacet
  facet normal 1.117427e-01 9.937372e-01 0.000000e+00
    outer loop
      vertex   3.587796e-02 4.670987e-02 1.200000e-02
      vertex   3.606932e-02 4.668836e-02 1.600000e-02
      vertex   3.606932e-02 4.668836e-02 8.000000e-03
    endloop
  endfacet
  facet normal 1.117427e-01 9.937372e-01 0.000000e+00
    outer loop
      vertex   3.606932e-02 4.668836e-02 8.000000e-03
      vertex   3.587796e-02 4.670987e-02 8.000000e-03
      vertex   3.587796e-02 4.670987e-02 1.200000e-02
    endloop
  endfacet
  facet normal 2.603297e-01 9.655198e-01 0.000000e+00
    outer loop
      vertex   3.587796e-02 4.670987e-02 1.200000e-02
      vertex   3.587796e-02 4.670987e-02 8.000000e-03
      vertex   3.569798e-02 4.675840e-02 8.000000e-03
    endloop
  endfacet
  facet normal 2.603297e-01 9.655198e-01 -1.675130e-15
    outer loop
      vertex   3.587796e-02 4.670987e-02 1.200000e-02
      vertex   3.569798e-02 4.675840e-02 8.000000e-03
      vertex   3.569798e-02 4.675840e-02 1.200000e-02
    endloop
  endfacet
  facet normal 5.043847e-01 8.634790e-01 -1.497897e-15
    outer loop
      vertex   3.569798e-02 4.675840e-02 1.200000e-02
      vertex   3.569798e-02 4.675840e-02 8.000000e-03
      vertex   3.553713e-02 4.685236e-02 8.000000e-03
    endloop
  endfacet
  facet normal 5.043847e-01 8.634790e-01 1.496478e-15
    outer loop
      vertex   3.569798e-02 4.675840e-02 1.200000e-02
      vertex   3.553713e-02 4.685236e-02 8.000000e-03
      vertex   3.553713e-02 4.685236e-02 1.200000e-02
    endloop
  endfacet
  facet normal 6.312128e-01 7.756097e-01 1.345468e-15
    outer loop
      vertex   3.553713e-02 4.685236e-02 1.200000e-02
      vertex   3.553713e-02 4.685236e-02 8.000000e-03
      vertex   3.538788e-02 4.697383e-02 8.000000e-03
    endloop
  endfacet
  facet normal 9.932001e-01 1.164194e-01 0.000000e+00
    outer loop
      vertex   3.508399e-02 4.779647e-02 1.600000e-02
      vertex   3.511034e-02 4.757162e-02 1.600000e-02
      vertex   3.508399e-02 4.779647e-02 8.000000e-03
    endloop
  endfacet
  facet normal 9.932001e-01 1.164194e-01 0.000000e+00
    outer loop
      vertex   3.508399e-02 4.779647e-02 8.000000e-03
      vertex   3.511034e-02 4.757162e-02 1.600000e-02
      vertex   3.511034e-02 4.757162e-02 8.000000e-03
    endloop
  endfacet
  facet normal 9.720452e-01 2.347936e-01 -0.000000e+00
    outer loop
      vertex   3.511034e-02 4.757162e-02 8.000000e-03
      vertex   3.511034e-02 4.757162e-02 1.600000e-02
      vertex   3.516227e-02 4.735666e-02 1.600000e-02
    endloop
  endfacet
  facet normal 9.720452e-01 2.347936e-01 0.000000e+00
    outer loop
      vertex   3.511034e-02 4.757162e-02 8.000000e-03
      vertex   3.516227e-02 4.735666e-02 1.600000e-02
      vertex   3.516227e-02 4.735666e-02 8.000000e-03
    endloop
  endfacet
  facet normal 8.961120e-01 4.438280e-01 -0.000000e+00
    outer loop
      vertex   3.516227e-02 4.735666e-02 8.000000e-03
      vertex   3.516227e-02 4.735666e-02 1.600000e-02
      vertex   3.525997e-02 4.715940e-02 1.600000e-02
    endloop
  endfacet
  facet normal 8.961120e-01 4.438280e-01 0.000000e+00
    outer loop
      vertex   3.516227e-02 4.735666e-02 8.000000e-03
      vertex   3.525997e-02 4.715940e-02 1.600000e-02
      vertex   3.525997e-02 4.715940e-02 8.000000e-03
    endloop
  endfacet
  facet normal 8.233629e-01 5.675152e-01 -0.000000e+00
    outer loop
      vertex   3.525997e-02 4.715940e-02 8.000000e-03
      vertex   3.525997e-02 4.715940e-02 1.600000e-02
      vertex   3.538788e-02 4.697383e-02 1.600000e-02
    endloop
  endfacet
  facet normal 8.233629e-01 5.675152e-01 0.000000e+00
    outer loop
      vertex   3.525997e-02 4.715940e-02 8.000000e-03
      vertex   3.538788e-02 4.697383e-02 1.600000e-02
      vertex   3.538788e-02 4.697383e-02 8.000000e-03
    endloop
  endfacet
  facet normal -0.000000e+00 -1.000000e+00 -0.000000e+00
    outer loop
      vertex   3.751509e-02 4.779647e-02 1.600000e-02
      vertex   3.508399e-02 4.779647e-02 1.600000e-02
      vertex   3.751509e-02 4.779647e-02 8.000000e-03
    endloop
  endfacet
  facet normal 0.000000e+00 -1.000000e+00 0.000000e+00
    outer loop
      vertex   3.751509e-02 4.779647e-02 8.000000e-03
      vertex   3.508399e-02 4.779647e-02 1.600000e-02
      vertex   3.508399e-02 4.779647e-02 8.000000e-03
    endloop
  endfacet
  facet normal 9.999438e-01 -1.060022e-02 -6.938504e-15
    outer loop
      vertex   3.751777e-02 4.790697e-02 1.600000e-02
      vertex   3.751777e-02 4.790697e-02 1.500000e-02
      vertex   3.751816e-02 4.794381e-02 1.600000e-02
    endloop
  endfacet
  facet normal 9.999438e-01 -1.060022e-02 0.000000e+00
    outer loop
      vertex   3.751816e-02 4.794381e-02 1.600000e-02
      vertex   3.751777e-02 4.790697e-02 1.500000e-02
      vertex   3.751777e-02 4.790697e-02 1.400000e-02
    endloop
  endfacet
  facet normal 9.999438e-01 -1.060022e-02 0.000000e+00
    outer loop
      vertex   3.751816e-02 4.794381e-02 1.600000e-02
      vertex   3.751777e-02 4.790697e-02 1.400000e-02
      vertex   3.751777e-02 4.790697e-02 1.300000e-02
    endloop
  endfacet
  facet normal 9.998562e-01 -1.696095e-02 0.000000e+00
    outer loop
      vertex   3.751777e-02 4.790697e-02 1.300000e-02
      vertex   3.751777e-02 4.790697e-02 1.400000e-02
      vertex   3.751715e-02 4.787013e-02 1.400000e-02
    endloop
  endfacet
  facet normal 9.998562e-01 -1.696095e-02 0.000000e+00
    outer loop
      vertex   3.751777e-02 4.790697e-02 1.300000e-02
      vertex   3.751715e-02 4.787013e-02 1.400000e-02
      vertex   3.751715e-02 4.787013e-02 1.300000e-02
    endloop
  endfacet
  facet normal 9.996723e-01 -2.559812e-02 0.000000e+00
    outer loop
      vertex   3.751715e-02 4.787013e-02 1.300000e-02
      vertex   3.751715e-02 4.787013e-02 1.400000e-02
      vertex   3.751620e-02 4.783330e-02 1.400000e-02
    endloop
  endfacet
  facet normal 9.996723e-01 -2.559812e-02 0.000000e+00
    outer loop
      vertex   3.751715e-02 4.787013e-02 1.300000e-02
      vertex   3.751620e-02 4.783330e-02 1.400000e-02
      vertex   3.751620e-02 4.783330e-02 1.300000e-02
    endloop
  endfacet
  facet normal 9.995443e-01 -3.018742e-02 0.000000e+00
    outer loop
      vertex   3.751620e-02 4.783330e-02 1.300000e-02
      vertex   3.751620e-02 4.783330e-02 1.400000e-02
      vertex   3.751509e-02 4.779647e-02 1.600000e-02
    endloop
  endfacet
  facet normal 9.995443e-01 -3.018742e-02 0.000000e+00
    outer loop
      vertex   3.751620e-02 4.783330e-02 1.300000e-02
      vertex   3.751509e-02 4.779647e-02 1.600000e-02
      vertex   3.751620e-02 4.783330e-02 1.200000e-02
    endloop
  endfacet
  facet normal 9.995443e-01 -3.018742e-02 0.000000e+00
    outer loop
      vertex   3.751620e-02 4.783330e-02 1.200000e-02
      vertex   3.751509e-02 4.779647e-02 1.600000e-02
      vertex   3.751509e-02 4.779647e-02 8.000000e-03
    endloop
  endfacet
  facet normal 9.995443e-01 -3.018742e-02 0.000000e+00
    outer loop
      vertex   3.751620e-02 4.783330e-02 1.200000e-02
      vertex   3.751509e-02 4.779647e-02 8.000000e-03
      vertex   3.751620e-02 4.783330e-02 1.100000e-02
    endloop
  endfacet
  facet normal 9.995443e-01 -3.018742e-02 0.000000e+00
    outer loop
      vertex   3.751620e-02 4.783330e-02 1.100000e-02
      vertex   3.751509e-02 4.779647e-02 8.000000e-03
      vertex   3.751620e-02 4.783330e-02 1.000000e-02
    endloop
  endfacet
  facet normal 9.996723e-01 -2.559812e-02 0.000000e+00
    outer loop
      vertex   3.751620e-02 4.783330e-02 1.100000e-02
      vertex   3.751620e-02 4.783330e-02 1.000000e-02
      vertex   3.751715e-02 4.787013e-02 1.000000e-02
    endloop
  endfacet
  facet normal 9.996723e-01 -2.559812e-02 0.000000e+00
    outer loop
      vertex   3.751715e-02 4.787013e-02 1.000000e-02
      vertex   3.751620e-02 4.783330e-02 1.000000e-02
      vertex   3.751715e-02 4.787013e-02 9.000000e-03
    endloop
  endfacet
  facet normal 9.998562e-01 -1.696095e-02 0.000000e+00
    outer loop
      vertex   3.751715e-02 4.787013e-02 1.000000e-02
      vertex   3.751715e-02 4.787013e-02 9.000000e-03
      vertex   3.751777e-02 4.790697e-02 9.000000e-03
    endloop
  endfacet
  facet normal 9.998562e-01 -1.696095e-02 6.937896e-15
    outer loop
      vertex   3.751777e-02 4.790697e-02 9.000000e-03
      vertex   3.751715e-02 4.787013e-02 9.000000e-03
      vertex   3.751777e-02 4.790697e-02 8.000000e-03
    endloop
  endfacet
  facet normal 9.999438e-01 -1.060022e-02 6.938504e-15
    outer loop
      vertex   3.751777e-02 4.790697e-02 9.000000e-03
      vertex   3.751777e-02 4.790697e-02 8.000000e-03
      vertex   3.751816e-02 4.794381e-02 8.000000e-03
    endloop
  endfacet
  facet normal 9.998562e-01 -1.696095e-02 -6.937896e-15
    outer loop
      vertex   3.751777e-02 4.790697e-02 1.600000e-02
      vertex   3.751715e-02 4.787013e-02 1.600000e-02
      vertex   3.751777e-02 4.790697e-02 1.500000e-02
    endloop
  endfacet
  facet normal 9.998562e-01 -1.696095e-02 0.000000e+00
    outer loop
      vertex   3.751777e-02 4.790697e-02 1.500000e-02
      vertex   3.751715e-02 4.787013e-02 1.600000e-02
      vertex   3.751715e-02 4.787013e-02 1.500000e-02
    endloop
  endfacet
  facet normal 9.998562e-01 -1.696095e-02 0.000000e+00
    outer loop
      vertex   3.751777e-02 4.790697e-02 1.500000e-02
      vertex   3.751715e-02 4.787013e-02 1.500000e-02
      vertex   3.751777e-02 4.790697e-02 1.400000e-02
    endloop
  endfacet
  facet normal 9.998562e-01 -1.696095e-02 0.000000e+00
    outer loop
      vertex   3.751777e-02 4.790697e-02 1.400000e-02
      vertex   3.751715e-02 4.787013e-02 1.500000e-02
      vertex   3.751715e-02 4.787013e-02 1.400000e-02
    endloop
  endfacet
  facet normal 9.996723e-01 -2.559812e-02 0.000000e+00
    outer loop
      vertex   3.751715e-02 4.787013e-02 1.600000e-02
      vertex   3.751620e-02 4.783330e-02 1.600000e-02
      vertex   3.751715e-02 4.787013e-02 1.500000e-02
    endloop
  endfacet
  facet normal 9.996723e-01 -2.559812e-02 -3.553598e-16
    outer loop
      vertex   3.751715e-02 4.787013e-02 1.500000e-02
      vertex   3.751620e-02 4.783330e-02 1.600000e-02
      vertex   3.751620e-02 4.783330e-02 1.500000e-02
    endloop
  endfacet
  facet normal 9.996723e-01 -2.559812e-02 0.000000e+00
    outer loop
      vertex   3.751715e-02 4.787013e-02 1.500000e-02
      vertex   3.751620e-02 4.783330e-02 1.500000e-02
      vertex   3.751715e-02 4.787013e-02 1.400000e-02
    endloop
  endfacet
  facet normal 9.996723e-01 -2.559812e-02 0.000000e+00
    outer loop
      vertex   3.751715e-02 4.787013e-02 1.400000e-02
      vertex   3.751620e-02 4.783330e-02 1.500000e-02
      vertex   3.751620e-02 4.783330e-02 1.400000e-02
    endloop
  endfacet
  facet normal 9.995443e-01 -3.018742e-02 -4.189347e-16
    outer loop
      vertex   3.751620e-02 4.783330e-02 1.600000e-02
      vertex   3.751509e-02 4.779647e-02 1.600000e-02
      vertex   3.751620e-02 4.783330e-02 1.500000e-02
    endloop
  endfacet
  facet normal 9.995443e-01 -3.018742e-02 0.000000e+00
    outer loop
      vertex   3.751620e-02 4.783330e-02 1.500000e-02
      vertex   3.751509e-02 4.779647e-02 1.600000e-02
      vertex   3.751620e-02 4.783330e-02 1.400000e-02
    endloop
  endfacet
  facet normal 9.995443e-01 -3.018742e-02 0.000000e+00
    outer loop
      vertex   3.751620e-02 4.783330e-02 1.000000e-02
      vertex   3.751509e-02 4.779647e-02 8.000000e-03
      vertex   3.751620e-02 4.783330e-02 9.000000e-03
    endloop
  endfacet
  facet normal 9.995443e-01 -3.018742e-02 4.189347e-16
    outer loop
      vertex   3.751620e-02 4.783330e-02 9.000000e-03
      vertex   3.751509e-02 4.779647e-02 8.000000e-03
      vertex   3.751620e-02 4.783330e-02 8.000000e-03
    endloop
  endfacet
  facet normal 9.996723e-01 -2.559812e-02 3.552453e-16
    outer loop
      vertex   3.751620e-02 4.783330e-02 9.000000e-03
      vertex   3.751620e-02 4.783330e-02 8.000000e-03
      vertex   3.751715e-02 4.787013e-02 8.000000e-03
    endloop
  endfacet
  facet normal 9.996723e-01 -2.559812e-02 0.000000e+00
    outer loop
      vertex   3.751620e-02 4.783330e-02 9.000000e-03
      vertex   3.751715e-02 4.787013e-02 8.000000e-03
      vertex   3.751715e-02 4.787013e-02 9.000000e-03
    endloop
  endfacet
  facet normal 9.998562e-01 -1.696095e-02 0.000000e+00
    outer loop
      vertex   3.751715e-02 4.787013e-02 9.000000e-03
      vertex   3.751715e-02 4.787013e-02 8.000000e-03
      vertex   3.751777e-02 4.790697e-02 8.000000e-03
    endloop
  endfacet
  facet normal 9.999438e-01 -1.060022e-02 0.000000e+00
    outer loop
      vertex   3.751816e-02 4.794381e-02 1.600000e-02
      vertex   3.751777e-02 4.790697e-02 1.200000e-02
      vertex   3.751816e-02 4.794381e-02 8.000000e-03
    endloop
  endfacet
  facet normal 9.999438e-01 -1.060022e-02 0.000000e+00
    outer loop
      vertex   3.751816e-02 4.794381e-02 8.000000e-03
      vertex   3.751777e-02 4.790697e-02 1.200000e-02
      vertex   3.751777e-02 4.790697e-02 1.100000e-02
    endloop
  endfacet
  facet normal 9.999438e-01 -1.060022e-02 0.000000e+00
    outer loop
      vertex   3.751816e-02 4.794381e-02 8.000000e-03
      vertex   3.751777e-02 4.790697e-02 1.100000e-02
      vertex   3.751777e-02 4.790697e-02 1.000000e-02
    endloop
  endfacet
  facet normal 9.998562e-01 -1.696095e-02 0.000000e+00
    outer loop
      vertex   3.751777e-02 4.790697e-02 1.000000e-02
      vertex   3.751777e-02 4.790697e-02 1.100000e-02
      vertex   3.751715e-02 4.787013e-02 1.100000e-02
    endloop
  endfacet
  facet normal 9.998562e-01 -1.696095e-02 0.000000e+00
    outer loop
      vertex   3.751777e-02 4.790697e-02 1.000000e-02
      vertex   3.751715e-02 4.787013e-02 1.100000e-02
      vertex   3.751715e-02 4.787013e-02 1.000000e-02
    endloop
  endfacet
  facet normal 9.996723e-01 -2.559812e-02 0.000000e+00
    outer loop
      vertex   3.751715e-02 4.787013e-02 1.000000e-02
      vertex   3.751715e-02 4.787013e-02 1.100000e-02
      vertex   3.751620e-02 4.783330e-02 1.100000e-02
    endloop
  endfacet
  facet normal 9.996723e-01 -2.559812e-02 0.000000e+00
    outer loop
      vertex   3.751715e-02 4.787013e-02 9.000000e-03
      vertex   3.751620e-02 4.783330e-02 1.000000e-02
      vertex   3.751620e-02 4.783330e-02 9.000000e-03
    endloop
  endfacet
  facet normal 9.999438e-01 -1.060022e-02 0.000000e+00
    outer loop
      vertex   3.751777e-02 4.790697e-02 1.200000e-02
      vertex   3.751816e-02 4.794381e-02 1.600000e-02
      vertex   3.751777e-02 4.790697e-02 1.300000e-02
    endloop
  endfacet
  facet normal 9.998562e-01 -1.696095e-02 0.000000e+00
    outer loop
      vertex   3.751777e-02 4.790697e-02 1.000000e-02
      vertex   3.751715e-02 4.787013e-02 1.000000e-02
      vertex   3.751777e-02 4.790697e-02 9.000000e-03
    endloop
  endfacet
  facet normal 9.998562e-01 -1.696095e-02 0.000000e+00
    outer loop
      vertex   3.751777e-02 4.790697e-02 1.200000e-02
      vertex   3.751777e-02 4.790697e-02 1.300000e-02
      vertex   3.751715e-02 4.787013e-02 1.300000e-02
    endloop
  endfacet
  facet normal 9.996723e-01 -2.559812e-02 0.000000e+00
    outer loop
      vertex   3.751715e-02 4.787013e-02 1.300000e-02
      vertex   3.751620e-02 4.783330e-02 1.300000e-02
      vertex   3.751715e-02 4.787013e-02 1.200000e-02
    endloop
  endfacet
  facet normal 9.996723e-01 -2.559812e-02 0.000000e+00
    outer loop
      vertex   3.751715e-02 4.787013e-02 1.200000e-02
      vertex   3.751620e-02 4.783330e-02 1.300000e-02
      vertex   3.751620e-02 4.783330e-02 1.200000e-02
    endloop
  endfacet
  facet normal 9.996723e-01 -2.559812e-02 0.000000e+00
    outer loop
      vertex   3.751715e-02 4.787013e-02 1.200000e-02
      vertex   3.751620e-02 4.783330e-02 1.200000e-02
      vertex   3.751715e-02 4.787013e-02 1.100000e-02
    endloop
  endfacet
  facet normal 9.996723e-01 -2.559812e-02 0.000000e+00
    outer loop
      vertex   3.751715e-02 4.787013e-02 1.100000e-02
      vertex   3.751620e-02 4.783330e-02 1.200000e-02
      vertex   3.751620e-02 4.783330e-02 1.100000e-02
    endloop
  endfacet
  facet normal 9.999438e-01 -1.060022e-02 0.000000e+00
    outer loop
      vertex   3.751777e-02 4.790697e-02 9.000000e-03
      vertex   3.751816e-02 4.794381e-02 8.000000e-03
      vertex   3.751777e-02 4.790697e-02 1.000000e-02
    endloop
  endfacet
  facet normal 9.998562e-01 -1.696095e-02 0.000000e+00
    outer loop
      vertex   3.751777e-02 4.790697e-02 1.100000e-02
      vertex   3.751777e-02 4.790697e-02 1.200000e-02
      vertex   3.751715e-02 4.787013e-02 1.200000e-02
    endloop
  endfacet
  facet normal 9.998562e-01 -1.696095e-02 0.000000e+00
    outer loop
      vertex   3.751715e-02 4.787013e-02 1.200000e-02
      vertex   3.751777e-02 4.790697e-02 1.200000e-02
      vertex   3.751715e-02 4.787013e-02 1.300000e-02
    endloop
  endfacet
  facet normal 9.998562e-01 -1.696095e-02 0.000000e+00
    outer loop
      vertex   3.751777e-02 4.790697e-02 1.100000e-02
      vertex   3.751715e-02 4.787013e-02 1.200000e-02
      vertex   3.751715e-02 4.787013e-02 1.100000e-02
    endloop
  endfacet
  facet normal 8.333493e-01 5.527468e-01 0.000000e+00
    outer loop
      vertex   3.710377e-02 4.919620e-02 1.600000e-02
      vertex   3.729194e-02 4.891251e-02 1.600000e-02
      vertex   3.710377e-02 4.919620e-02 8.000000e-03
    endloop
  endfacet
  facet normal 8.333493e-01 5.527468e-01 0.000000e+00
    outer loop
      vertex   3.710377e-02 4.919620e-02 8.000000e-03
      vertex   3.729194e-02 4.891251e-02 1.600000e-02
      vertex   3.729194e-02 4.891251e-02 8.000000e-03
    endloop
  endfacet
  facet normal 9.074864e-01 4.200814e-01 -0.000000e+00
    outer loop
      vertex   3.729194e-02 4.891251e-02 8.000000e-03
      vertex   3.729194e-02 4.891251e-02 1.600000e-02
      vertex   3.743114e-02 4.861180e-02 1.600000e-02
    endloop
  endfacet
  facet normal 9.074864e-01 4.200814e-01 0.000000e+00
    outer loop
      vertex   3.729194e-02 4.891251e-02 8.000000e-03
      vertex   3.743114e-02 4.861180e-02 1.600000e-02
      vertex   3.743114e-02 4.861180e-02 8.000000e-03
    endloop
  endfacet
  facet normal 9.810796e-01 1.936050e-01 -0.000000e+00
    outer loop
      vertex   3.743114e-02 4.861180e-02 8.000000e-03
      vertex   3.743114e-02 4.861180e-02 1.600000e-02
      vertex   3.749561e-02 4.828509e-02 1.600000e-02
    endloop
  endfacet
  facet normal 9.810796e-01 1.936050e-01 0.000000e+00
    outer loop
      vertex   3.743114e-02 4.861180e-02 8.000000e-03
      vertex   3.749561e-02 4.828509e-02 1.600000e-02
      vertex   3.749561e-02 4.828509e-02 8.000000e-03
    endloop
  endfacet
  facet normal 9.978238e-01 6.593621e-02 -0.000000e+00
    outer loop
      vertex   3.749561e-02 4.828509e-02 8.000000e-03
      vertex   3.749561e-02 4.828509e-02 1.600000e-02
      vertex   3.751816e-02 4.794381e-02 1.600000e-02
    endloop
  endfacet
  facet normal 9.978238e-01 6.593621e-02 0.000000e+00
    outer loop
      vertex   3.749561e-02 4.828509e-02 8.000000e-03
      vertex   3.751816e-02 4.794381e-02 1.600000e-02
      vertex   3.751816e-02 4.794381e-02 8.000000e-03
    endloop
  endfacet
  facet normal 1.060399e-01 9.943619e-01 0.000000e+00
    outer loop
      vertex   3.603556e-02 4.964129e-02 1.600000e-02
      vertex   3.633604e-02 4.960925e-02 1.600000e-02
      vertex   3.603556e-02 4.964129e-02 8.000000e-03
    endloop
  endfacet
  facet normal 1.060399e-01 9.943619e-01 0.000000e+00
    outer loop
      vertex   3.603556e-02 4.964129e-02 8.000000e-03
      vertex   3.633604e-02 4.960925e-02 1.600000e-02
      vertex   3.633604e-02 4.960925e-02 8.000000e-03
    endloop
  endfacet
  facet normal 2.554005e-01 9.668354e-01 -0.000000e+00
    outer loop
      vertex   3.633604e-02 4.960925e-02 8.000000e-03
      vertex   3.633604e-02 4.960925e-02 1.600000e-02
      vertex   3.661855e-02 4.953462e-02 1.600000e-02
    endloop
  endfacet
  facet normal 2.554005e-01 9.668354e-01 0.000000e+00
    outer loop
      vertex   3.633604e-02 4.960925e-02 8.000000e-03
      vertex   3.661855e-02 4.953462e-02 1.600000e-02
      vertex   3.661855e-02 4.953462e-02 8.000000e-03
    endloop
  endfacet
  facet normal 5.039726e-01 8.637196e-01 -0.000000e+00
    outer loop
      vertex   3.661855e-02 4.953462e-02 8.000000e-03
      vertex   3.661855e-02 4.953462e-02 1.600000e-02
      vertex   3.687052e-02 4.938760e-02 1.600000e-02
    endloop
  endfacet
  facet normal 5.039726e-01 8.637196e-01 0.000000e+00
    outer loop
      vertex   3.661855e-02 4.953462e-02 8.000000e-03
      vertex   3.687052e-02 4.938760e-02 1.600000e-02
      vertex   3.687052e-02 4.938760e-02 8.000000e-03
    endloop
  endfacet
  facet normal 6.343378e-01 7.730560e-01 -0.000000e+00
    outer loop
      vertex   3.687052e-02 4.938760e-02 8.000000e-03
      vertex   3.687052e-02 4.938760e-02 1.600000e-02
      vertex   3.710377e-02 4.919620e-02 1.600000e-02
    endloop
  endfacet
  facet normal 6.343378e-01 7.730560e-01 0.000000e+00
    outer loop
      vertex   3.687052e-02 4.938760e-02 8.000000e-03
      vertex   3.710377e-02 4.919620e-02 1.600000e-02
      vertex   3.710377e-02 4.919620e-02 8.000000e-03
    endloop
  endfacet
  facet normal -6.321099e-01 7.748788e-01 0.000000e+00
    outer loop
      vertex   3.493665e-02 4.918699e-02 1.600000e-02
      vertex   3.517683e-02 4.938292e-02 1.600000e-02
      vertex   3.493665e-02 4.918699e-02 8.000000e-03
    endloop
  endfacet
  facet normal -6.321099e-01 7.748788e-01 0.000000e+00
    outer loop
      vertex   3.493665e-02 4.918699e-02 8.000000e-03
      vertex   3.517683e-02 4.938292e-02 1.600000e-02
      vertex   3.517683e-02 4.938292e-02 8.000000e-03
    endloop
  endfacet
  facet normal -5.011793e-01 8.653435e-01 0.000000e+00
    outer loop
      vertex   3.517683e-02 4.938292e-02 8.000000e-03
      vertex   3.517683e-02 4.938292e-02 1.600000e-02
      vertex   3.543619e-02 4.953314e-02 1.600000e-02
    endloop
  endfacet
  facet normal -5.011793e-01 8.653435e-01 0.000000e+00
    outer loop
      vertex   3.517683e-02 4.938292e-02 8.000000e-03
      vertex   3.543619e-02 4.953314e-02 1.600000e-02
      vertex   3.543619e-02 4.953314e-02 8.000000e-03
    endloop
  endfacet
  facet normal -2.526870e-01 9.675481e-01 0.000000e+00
    outer loop
      vertex   3.543619e-02 4.953314e-02 8.000000e-03
      vertex   3.543619e-02 4.953314e-02 1.600000e-02
      vertex   3.572673e-02 4.960901e-02 1.600000e-02
    endloop
  endfacet
  facet normal -2.526870e-01 9.675481e-01 0.000000e+00
    outer loop
      vertex   3.543619e-02 4.953314e-02 8.000000e-03
      vertex   3.572673e-02 4.960901e-02 1.600000e-02
      vertex   3.572673e-02 4.960901e-02 8.000000e-03
    endloop
  endfacet
  facet normal -1.039469e-01 9.945828e-01 0.000000e+00
    outer loop
      vertex   3.572673e-02 4.960901e-02 8.000000e-03
      vertex   3.572673e-02 4.960901e-02 1.600000e-02
      vertex   3.603556e-02 4.964129e-02 1.600000e-02
    endloop
  endfacet
  facet normal -1.039469e-01 9.945828e-01 0.000000e+00
    outer loop
      vertex   3.572673e-02 4.960901e-02 8.000000e-03
      vertex   3.603556e-02 4.964129e-02 1.600000e-02
      vertex   3.603556e-02 4.964129e-02 8.000000e-03
    endloop
  endfacet
  facet normal -9.977984e-01 6.631976e-02 0.000000e+00
    outer loop
      vertex   3.451305e-02 4.791005e-02 1.600000e-02
      vertex   3.453618e-02 4.825813e-02 1.600000e-02
      vertex   3.451305e-02 4.791005e-02 8.000000e-03
    endloop
  endfacet
  facet normal -9.977984e-01 6.631976e-02 0.000000e+00
    outer loop
      vertex   3.451305e-02 4.791005e-02 8.000000e-03
      vertex   3.453618e-02 4.825813e-02 1.600000e-02
      vertex   3.453618e-02 4.825813e-02 8.000000e-03
    endloop
  endfacet
  facet normal -9.809585e-01 1.942174e-01 0.000000e+00
    outer loop
      vertex   3.453618e-02 4.825813e-02 8.000000e-03
      vertex   3.453618e-02 4.825813e-02 1.600000e-02
      vertex   3.460214e-02 4.859128e-02 1.600000e-02
    endloop
  endfacet
  facet normal -9.809585e-01 1.942174e-01 0.000000e+00
    outer loop
      vertex   3.453618e-02 4.825813e-02 8.000000e-03
      vertex   3.460214e-02 4.859128e-02 1.600000e-02
      vertex   3.460214e-02 4.859128e-02 8.000000e-03
    endloop
  endfacet
  facet normal -9.070763e-01 4.209662e-01 0.000000e+00
    outer loop
      vertex   3.460214e-02 4.859128e-02 8.000000e-03
      vertex   3.460214e-02 4.859128e-02 1.600000e-02
      vertex   3.474441e-02 4.889784e-02 1.600000e-02
    endloop
  endfacet
  facet normal -9.070763e-01 4.209662e-01 0.000000e+00
    outer loop
      vertex   3.460214e-02 4.859128e-02 8.000000e-03
      vertex   3.474441e-02 4.889784e-02 1.600000e-02
      vertex   3.474441e-02 4.889784e-02 8.000000e-03
    endloop
  endfacet
  facet normal -8.327604e-01 5.536335e-01 0.000000e+00
    outer loop
      vertex   3.474441e-02 4.889784e-02 8.000000e-03
      vertex   3.474441e-02 4.889784e-02 1.600000e-02
      vertex   3.493665e-02 4.918699e-02 1.600000e-02
    endloop
  endfacet
  facet normal -8.327604e-01 5.536335e-01 0.000000e+00
    outer loop
      vertex   3.474441e-02 4.889784e-02 8.000000e-03
      vertex   3.493665e-02 4.918699e-02 1.600000e-02
      vertex   3.493665e-02 4.918699e-02 8.000000e-03
    endloop
  endfacet
  facet normal -8.268978e-01 -5.623522e-01 -0.000000e+00
    outer loop
      vertex   3.493204e-02 4.667454e-02 1.600000e-02
      vertex   3.474249e-02 4.695327e-02 1.600000e-02
      vertex   3.493204e-02 4.667454e-02 8.000000e-03
    endloop
  endfacet
  facet normal -8.268978e-01 -5.623522e-01 0.000000e+00
    outer loop
      vertex   3.493204e-02 4.667454e-02 8.000000e-03
      vertex   3.474249e-02 4.695327e-02 1.600000e-02
      vertex   3.474249e-02 4.695327e-02 8.000000e-03
    endloop
  endfacet
  facet normal -9.033469e-01 -4.289106e-01 0.000000e+00
    outer loop
      vertex   3.474249e-02 4.695327e-02 8.000000e-03
      vertex   3.474249e-02 4.695327e-02 1.600000e-02
      vertex   3.460188e-02 4.724940e-02 1.600000e-02
    endloop
  endfacet
  facet normal -9.033469e-01 -4.289106e-01 0.000000e+00
    outer loop
      vertex   3.474249e-02 4.695327e-02 8.000000e-03
      vertex   3.460188e-02 4.724940e-02 1.600000e-02
      vertex   3.460188e-02 4.724940e-02 8.000000e-03
    endloop
  endfacet
  facet normal -9.800103e-01 -1.989467e-01 0.000000e+00
    outer loop
      vertex   3.460188e-02 4.724940e-02 8.000000e-03
      vertex   3.460188e-02 4.724940e-02 1.600000e-02
      vertex   3.453635e-02 4.757222e-02 1.600000e-02
    endloop
  endfacet
  facet normal -9.800103e-01 -1.989467e-01 0.000000e+00
    outer loop
      vertex   3.460188e-02 4.724940e-02 8.000000e-03
      vertex   3.453635e-02 4.757222e-02 1.600000e-02
      vertex   3.453635e-02 4.757222e-02 8.000000e-03
    endloop
  endfacet
  facet normal -9.976291e-01 -6.882060e-02 0.000000e+00
    outer loop
      vertex   3.453635e-02 4.757222e-02 8.000000e-03
      vertex   3.453635e-02 4.757222e-02 1.600000e-02
      vertex   3.451305e-02 4.791005e-02 1.600000e-02
    endloop
  endfacet
  facet normal -9.976291e-01 -6.882060e-02 0.000000e+00
    outer loop
      vertex   3.453635e-02 4.757222e-02 8.000000e-03
      vertex   3.451305e-02 4.791005e-02 1.600000e-02
      vertex   3.451305e-02 4.791005e-02 8.000000e-03
    endloop
  endfacet
  facet normal -8.927792e-02 -9.960068e-01 -0.000000e+00
    outer loop
      vertex   3.606625e-02 4.623406e-02 1.600000e-02
      vertex   3.575002e-02 4.626241e-02 1.600000e-02
      vertex   3.606625e-02 4.623406e-02 8.000000e-03
    endloop
  endfacet
  facet normal -8.927792e-02 -9.960068e-01 0.000000e+00
    outer loop
      vertex   3.606625e-02 4.623406e-02 8.000000e-03
      vertex   3.575002e-02 4.626241e-02 1.600000e-02
      vertex   3.575002e-02 4.626241e-02 8.000000e-03
    endloop
  endfacet
  facet normal -2.327265e-01 -9.725422e-01 0.000000e+00
    outer loop
      vertex   3.575002e-02 4.626241e-02 8.000000e-03
      vertex   3.575002e-02 4.626241e-02 1.600000e-02
      vertex   3.545105e-02 4.633395e-02 1.600000e-02
    endloop
  endfacet
  facet normal -2.327265e-01 -9.725422e-01 0.000000e+00
    outer loop
      vertex   3.575002e-02 4.626241e-02 8.000000e-03
      vertex   3.545105e-02 4.633395e-02 1.600000e-02
      vertex   3.545105e-02 4.633395e-02 8.000000e-03
    endloop
  endfacet
  facet normal -4.786565e-01 -8.780022e-01 0.000000e+00
    outer loop
      vertex   3.545105e-02 4.633395e-02 8.000000e-03
      vertex   3.545105e-02 4.633395e-02 1.600000e-02
      vertex   3.518209e-02 4.648058e-02 1.600000e-02
    endloop
  endfacet
  facet normal -4.786565e-01 -8.780022e-01 0.000000e+00
    outer loop
      vertex   3.545105e-02 4.633395e-02 8.000000e-03
      vertex   3.518209e-02 4.648058e-02 1.600000e-02
      vertex   3.518209e-02 4.648058e-02 8.000000e-03
    endloop
  endfacet
  facet normal -6.129333e-01 -7.901347e-01 0.000000e+00
    outer loop
      vertex   3.518209e-02 4.648058e-02 8.000000e-03
      vertex   3.518209e-02 4.648058e-02 1.600000e-02
      vertex   3.493204e-02 4.667454e-02 1.600000e-02
    endloop
  endfacet
  facet normal -6.129333e-01 -7.901347e-01 0.000000e+00
    outer loop
      vertex   3.518209e-02 4.648058e-02 8.000000e-03
      vertex   3.493204e-02 4.667454e-02 1.600000e-02
      vertex   3.493204e-02 4.667454e-02 8.000000e-03
    endloop
  endfacet
  facet normal 4.937114e-01 -8.696258e-01 0.000000e+00
    outer loop
      vertex   3.699940e-02 4.651032e-02 1.600000e-02
      vertex   3.678266e-02 4.638727e-02 1.600000e-02
      vertex   3.699940e-02 4.651032e-02 8.000000e-03
    endloop
  endfacet
  facet normal 4.937114e-01 -8.696258e-01 0.000000e+00
    outer loop
      vertex   3.699940e-02 4.651032e-02 8.000000e-03
      vertex   3.678266e-02 4.638727e-02 1.600000e-02
      vertex   3.678266e-02 4.638727e-02 8.000000e-03
    endloop
  endfacet
  facet normal 3.777922e-01 -9.258904e-01 0.000000e+00
    outer loop
      vertex   3.678266e-02 4.638727e-02 8.000000e-03
      vertex   3.678266e-02 4.638727e-02 1.600000e-02
      vertex   3.655649e-02 4.629499e-02 1.600000e-02
    endloop
  endfacet
  facet normal 3.777922e-01 -9.258904e-01 0.000000e+00
    outer loop
      vertex   3.678266e-02 4.638727e-02 8.000000e-03
      vertex   3.655649e-02 4.629499e-02 1.600000e-02
      vertex   3.655649e-02 4.629499e-02 8.000000e-03
    endloop
  endfacet
  facet normal 1.803286e-01 -9.836064e-01 0.000000e+00
    outer loop
      vertex   3.655649e-02 4.629499e-02 8.000000e-03
      vertex   3.655649e-02 4.629499e-02 1.600000e-02
      vertex   3.631557e-02 4.625082e-02 1.600000e-02
    endloop
  endfacet
  facet normal 1.803286e-01 -9.836064e-01 0.000000e+00
    outer loop
      vertex   3.655649e-02 4.629499e-02 8.000000e-03
      vertex   3.631557e-02 4.625082e-02 1.600000e-02
      vertex   3.631557e-02 4.625082e-02 8.000000e-03
    endloop
  endfacet
  facet normal 6.706837e-02 -9.977484e-01 0.000000e+00
    outer loop
      vertex   3.631557e-02 4.625082e-02 8.000000e-03
      vertex   3.631557e-02 4.625082e-02 1.600000e-02
      vertex   3.606625e-02 4.623406e-02 1.600000e-02
    endloop
  endfacet
  facet normal 6.706837e-02 -9.977484e-01 0.000000e+00
    outer loop
      vertex   3.631557e-02 4.625082e-02 8.000000e-03
      vertex   3.606625e-02 4.623406e-02 1.600000e-02
      vertex   3.606625e-02 4.623406e-02 8.000000e-03
    endloop
  endfacet
  facet normal 9.413292e-01 -3.374898e-01 0.000000e+00
    outer loop
      vertex   3.749974e-02 4.728692e-02 1.600000e-02
      vertex   3.741962e-02 4.706344e-02 1.600000e-02
      vertex   3.749974e-02 4.728692e-02 8.000000e-03
    endloop
  endfacet
  facet normal 9.413292e-01 -3.374898e-01 0.000000e+00
    outer loop
      vertex   3.749974e-02 4.728692e-02 8.000000e-03
      vertex   3.741962e-02 4.706344e-02 1.600000e-02
      vertex   3.741962e-02 4.706344e-02 8.000000e-03
    endloop
  endfacet
  facet normal 8.941762e-01 -4.477152e-01 0.000000e+00
    outer loop
      vertex   3.741962e-02 4.706344e-02 8.000000e-03
      vertex   3.741962e-02 4.706344e-02 1.600000e-02
      vertex   3.731555e-02 4.685558e-02 1.600000e-02
    endloop
  endfacet
  facet normal 8.941762e-01 -4.477152e-01 0.000000e+00
    outer loop
      vertex   3.741962e-02 4.706344e-02 8.000000e-03
      vertex   3.731555e-02 4.685558e-02 1.600000e-02
      vertex   3.731555e-02 4.685558e-02 8.000000e-03
    endloop
  endfacet
  facet normal 7.798605e-01 -6.259533e-01 0.000000e+00
    outer loop
      vertex   3.731555e-02 4.685558e-02 8.000000e-03
      vertex   3.731555e-02 4.685558e-02 1.600000e-02
      vertex   3.717028e-02 4.667460e-02 1.600000e-02
    endloop
  endfacet
  facet normal 7.798605e-01 -6.259533e-01 0.000000e+00
    outer loop
      vertex   3.731555e-02 4.685558e-02 8.000000e-03
      vertex   3.717028e-02 4.667460e-02 1.600000e-02
      vertex   3.717028e-02 4.667460e-02 8.000000e-03
    endloop
  endfacet
  facet normal 6.930549e-01 -7.208848e-01 0.000000e+00
    outer loop
      vertex   3.717028e-02 4.667460e-02 8.000000e-03
      vertex   3.717028e-02 4.667460e-02 1.600000e-02
      vertex   3.699940e-02 4.651032e-02 1.600000e-02
    endloop
  endfacet
  facet normal 6.930549e-01 -7.208848e-01 0.000000e+00
    outer loop
      vertex   3.717028e-02 4.667460e-02 8.000000e-03
      vertex   3.699940e-02 4.651032e-02 1.600000e-02
      vertex   3.699940e-02 4.651032e-02 8.000000e-03
    endloop
  endfacet
  facet normal 1.227207e-01 9.924412e-01 0.000000e+00
    outer loop
      vertex   3.692880e-02 4.735752e-02 1.600000e-02
      vertex   3.749974e-02 4.728692e-02 1.600000e-02
      vertex   3.692880e-02 4.735752e-02 8.000000e-03
    endloop
  endfacet
  facet normal 1.227207e-01 9.924412e-01 0.000000e+00
    outer loop
      vertex   3.692880e-02 4.735752e-02 8.000000e-03
      vertex   3.749974e-02 4.728692e-02 1.600000e-02
      vertex   3.749974e-02 4.728692e-02 8.000000e-03
    endloop
  endfacet
  facet normal -7.003990e-01 7.137515e-01 0.000000e+00
    outer loop
      vertex   3.658808e-02 4.684798e-02 8.000000e-03
      vertex   3.658808e-02 4.684798e-02 1.600000e-02
      vertex   3.669951e-02 4.695732e-02 1.200000e-02
    endloop
  endfacet
  facet normal -7.003990e-01 7.137515e-01 0.000000e+00
    outer loop
      vertex   3.669951e-02 4.695732e-02 1.200000e-02
      vertex   3.658808e-02 4.684798e-02 1.600000e-02
      vertex   3.669951e-02 4.695732e-02 1.600000e-02
    endloop
  endfacet
  facet normal -7.801175e-01 6.256330e-01 0.000000e+00
    outer loop
      vertex   3.669951e-02 4.695732e-02 1.200000e-02
      vertex   3.669951e-02 4.695732e-02 1.600000e-02
      vertex   3.679564e-02 4.707718e-02 1.600000e-02
    endloop
  endfacet
  facet normal -7.801175e-01 6.256330e-01 0.000000e+00
    outer loop
      vertex   3.669951e-02 4.695732e-02 1.200000e-02
      vertex   3.679564e-02 4.707718e-02 1.600000e-02
      vertex   3.679564e-02 4.707718e-02 1.200000e-02
    endloop
  endfacet
  facet normal -8.806607e-01 4.737475e-01 0.000000e+00
    outer loop
      vertex   3.679564e-02 4.707718e-02 1.200000e-02
      vertex   3.679564e-02 4.707718e-02 1.600000e-02
      vertex   3.686866e-02 4.721293e-02 1.600000e-02
    endloop
  endfacet
  facet normal -8.806607e-01 4.737475e-01 -7.056869e-16
    outer loop
      vertex   3.679564e-02 4.707718e-02 1.200000e-02
      vertex   3.686866e-02 4.721293e-02 1.600000e-02
      vertex   3.686866e-02 4.721293e-02 1.200000e-02
    endloop
  endfacet
  facet normal -9.233125e-01 3.840496e-01 -9.354720e-16
    outer loop
      vertex   3.686866e-02 4.721293e-02 1.200000e-02
      vertex   3.686866e-02 4.721293e-02 1.600000e-02
      vertex   3.692880e-02 4.735752e-02 1.600000e-02
    endloop
  endfacet
  facet normal -9.233125e-01 3.840496e-01 0.000000e+00
    outer loop
      vertex   3.686866e-02 4.721293e-02 1.200000e-02
      vertex   3.692880e-02 4.735752e-02 1.600000e-02
      vertex   3.692880e-02 4.735752e-02 8.000000e-03
    endloop
  endfacet
  facet normal -9.233125e-01 3.840496e-01 9.348939e-16
    outer loop
      vertex   3.692880e-02 4.735752e-02 8.000000e-03
      vertex   3.686866e-02 4.721293e-02 8.000000e-03
      vertex   3.686866e-02 4.721293e-02 1.200000e-02
    endloop
  endfacet
  facet normal -8.806607e-01 4.737475e-01 7.058819e-16
    outer loop
      vertex   3.686866e-02 4.721293e-02 1.200000e-02
      vertex   3.686866e-02 4.721293e-02 8.000000e-03
      vertex   3.679564e-02 4.707718e-02 8.000000e-03
    endloop
  endfacet
  facet normal -8.806607e-01 4.737475e-01 0.000000e+00
    outer loop
      vertex   3.686866e-02 4.721293e-02 1.200000e-02
      vertex   3.679564e-02 4.707718e-02 8.000000e-03
      vertex   3.679564e-02 4.707718e-02 1.200000e-02
    endloop
  endfacet
  facet normal -7.801175e-01 6.256330e-01 0.000000e+00
    outer loop
      vertex   3.679564e-02 4.707718e-02 1.200000e-02
      vertex   3.679564e-02 4.707718e-02 8.000000e-03
      vertex   3.669951e-02 4.695732e-02 8.000000e-03
    endloop
  endfacet
  facet normal -7.801175e-01 6.256330e-01 0.000000e+00
    outer loop
      vertex   3.679564e-02 4.707718e-02 1.200000e-02
      vertex   3.669951e-02 4.695732e-02 8.000000e-03
      vertex   3.669951e-02 4.695732e-02 1.200000e-02
    endloop
  endfacet
  facet normal -7.003990e-01 7.137515e-01 0.000000e+00
    outer loop
      vertex   3.669951e-02 4.695732e-02 1.200000e-02
      vertex   3.669951e-02 4.695732e-02 8.000000e-03
      vertex   3.658808e-02 4.684798e-02 8.000000e-03
    endloop
  endfacet
  facet normal 0.000000e+00 0.000000e+00 1.000000e+00
    outer loop
      vertex   3.749974e-02 4.728692e-02 1.600000e-02
      vertex   3.692880e-02 4.735752e-02 1.600000e-02
      vertex   3.741962e-02 4.706344e-02 1.600000e-02
    endloop
  endfacet
  facet normal 0.000000e+00 0.000000e+00 1.000000e+00
    outer loop
      vertex   3.741962e-02 4.706344e-02 1.600000e-02
      vertex   3.692880e-02 4.735752e-02 1.600000e-02
      vertex   3.686866e-02 4.721293e-02 1.600000e-02
    endloop
  endfacet
  facet normal 0.000000e+00 0.000000e+00 1.000000e+00
    outer loop
      vertex   3.741962e-02 4.706344e-02 1.600000e-02
      vertex   3.686866e-02 4.721293e-02 1.600000e-02
      vertex   3.731555e-02 4.685558e-02 1.600000e-02
    endloop
  endfacet
  facet normal 0.000000e+00 0.000000e+00 1.000000e+00
    outer loop
      vertex   3.731555e-02 4.685558e-02 1.600000e-02
      vertex   3.686866e-02 4.721293e-02 1.600000e-02
      vertex   3.679564e-02 4.707718e-02 1.600000e-02
    endloop
  endfacet
  facet normal 0.000000e+00 0.000000e+00 1.000000e+00
    outer loop
      vertex   3.731555e-02 4.685558e-02 1.600000e-02
      vertex   3.679564e-02 4.707718e-02 1.600000e-02
      vertex   3.717028e-02 4.667460e-02 1.600000e-02
    endloop
  endfacet
  facet normal 0.000000e+00 0.000000e+00 1.000000e+00
    outer loop
      vertex   3.717028e-02 4.667460e-02 1.600000e-02
      vertex   3.679564e-02 4.707718e-02 1.600000e-02
      vertex   3.669951e-02 4.695732e-02 1.600000e-02
    endloop
  endfacet
  facet normal 0.000000e+00 0.000000e+00 1.000000e+00
    outer loop
      vertex   3.717028e-02 4.667460e-02 1.600000e-02
      vertex   3.669951e-02 4.695732e-02 1.600000e-02
      vertex   3.699940e-02 4.651032e-02 1.600000e-02
    endloop
  endfacet
  facet normal 0.000000e+00 0.000000e+00 1.000000e+00
    outer loop
      vertex   3.699940e-02 4.651032e-02 1.600000e-02
      vertex   3.669951e-02 4.695732e-02 1.600000e-02
      vertex   3.658808e-02 4.684798e-02 1.600000e-02
    endloop
  endfacet
  facet normal 0.000000e+00 0.000000e+00 1.000000e+00
    outer loop
      vertex   3.699940e-02 4.651032e-02 1.600000e-02
      vertex   3.658808e-02 4.684798e-02 1.600000e-02
      vertex   3.678266e-02 4.638727e-02 1.600000e-02
    endloop
  endfacet
  facet normal 0.000000e+00 0.000000e+00 1.000000e+00
    outer loop
      vertex   3.678266e-02 4.638727e-02 1.600000e-02
      vertex   3.658808e-02 4.684798e-02 1.600000e-02
      vertex   3.646769e-02 4.677846e-02 1.600000e-02
    endloop
  endfacet
  facet normal 0.000000e+00 0.000000e+00 1.000000e+00
    outer loop
      vertex   3.678266e-02 4.638727e-02 1.600000e-02
      vertex   3.646769e-02 4.677846e-02 1.600000e-02
      vertex   3.655649e-02 4.629499e-02 1.600000e-02
    endloop
  endfacet
  facet normal 0.000000e+00 0.000000e+00 1.000000e+00
    outer loop
      vertex   3.655649e-02 4.629499e-02 1.600000e-02
      vertex   3.646769e-02 4.677846e-02 1.600000e-02
      vertex   3.634209e-02 4.672551e-02 1.600000e-02
    endloop
  endfacet
  facet normal 0.000000e+00 0.000000e+00 1.000000e+00
    outer loop
      vertex   3.655649e-02 4.629499e-02 1.600000e-02
      vertex   3.634209e-02 4.672551e-02 1.600000e-02
      vertex   3.631557e-02 4.625082e-02 1.600000e-02
    endloop
  endfacet
  facet normal 0.000000e+00 -0.000000e+00 1.000000e+00
    outer loop
      vertex   3.631557e-02 4.625082e-02 1.600000e-02
      vertex   3.634209e-02 4.672551e-02 1.600000e-02
      vertex   3.620813e-02 4.669919e-02 1.600000e-02
    endloop
  endfacet
  facet normal 0.000000e+00 0.000000e+00 1.000000e+00
    outer loop
      vertex   3.631557e-02 4.625082e-02 1.600000e-02
      vertex   3.620813e-02 4.669919e-02 1.600000e-02
      vertex   3.606625e-02 4.623406e-02 1.600000e-02
    endloop
  endfacet
  facet normal 0.000000e+00 0.000000e+00 1.000000e+00
    outer loop
      vertex   3.606625e-02 4.623406e-02 1.600000e-02
      vertex   3.620813e-02 4.669919e-02 1.600000e-02
      vertex   3.606932e-02 4.668836e-02 1.600000e-02
    endloop
  endfacet
  facet normal 0.000000e+00 -0.000000e+00 1.000000e+00
    outer loop
      vertex   3.606625e-02 4.623406e-02 1.600000e-02
      vertex   3.606932e-02 4.668836e-02 1.600000e-02
      vertex   3.587796e-02 4.670987e-02 1.600000e-02
    endloop
  endfacet
  facet normal 0.000000e+00 0.000000e+00 1.000000e+00
    outer loop
      vertex   3.606625e-02 4.623406e-02 1.600000e-02
      vertex   3.587796e-02 4.670987e-02 1.600000e-02
      vertex   3.575002e-02 4.626241e-02 1.600000e-02
    endloop
  endfacet
  facet normal 0.000000e+00 -0.000000e+00 1.000000e+00
    outer loop
      vertex   3.575002e-02 4.626241e-02 1.600000e-02
      vertex   3.587796e-02 4.670987e-02 1.600000e-02
      vertex   3.569798e-02 4.675840e-02 1.600000e-02
    endloop
  endfacet
  facet normal 0.000000e+00 0.000000e+00 1.000000e+00
    outer loop
      vertex   3.575002e-02 4.626241e-02 1.600000e-02
      vertex   3.569798e-02 4.675840e-02 1.600000e-02
      vertex   3.545105e-02 4.633395e-02 1.600000e-02
    endloop
  endfacet
  facet normal 0.000000e+00 0.000000e+00 1.000000e+00
    outer loop
      vertex   3.545105e-02 4.633395e-02 1.600000e-02
      vertex   3.569798e-02 4.675840e-02 1.600000e-02
      vertex   3.553713e-02 4.685236e-02 1.600000e-02
    endloop
  endfacet
  facet normal 0.000000e+00 -0.000000e+00 1.000000e+00
    outer loop
      vertex   3.545105e-02 4.633395e-02 1.600000e-02
      vertex   3.553713e-02 4.685236e-02 1.600000e-02
      vertex   3.518209e-02 4.648058e-02 1.600000e-02
    endloop
  endfacet
  facet normal 0.000000e+00 0.000000e+00 1.000000e+00
    outer loop
      vertex   3.518209e-02 4.648058e-02 1.600000e-02
      vertex   3.553713e-02 4.685236e-02 1.600000e-02
      vertex   3.538788e-02 4.697383e-02 1.600000e-02
    endloop
  endfacet
  facet normal 0.000000e+00 -0.000000e+00 1.000000e+00
    outer loop
      vertex   3.518209e-02 4.648058e-02 1.600000e-02
      vertex   3.538788e-02 4.697383e-02 1.600000e-02
      vertex   3.493204e-02 4.667454e-02 1.600000e-02
    endloop
  endfacet
  facet normal 0.000000e+00 0.000000e+00 1.000000e+00
    outer loop
      vertex   3.493204e-02 4.667454e-02 1.600000e-02
      vertex   3.538788e-02 4.697383e-02 1.600000e-02
      vertex   3.525997e-02 4.715940e-02 1.600000e-02
    endloop
  endfacet
  facet normal 0.000000e+00 -0.000000e+00 1.000000e+00
    outer loop
      vertex   3.493204e-02 4.667454e-02 1.600000e-02
      vertex   3.525997e-02 4.715940e-02 1.600000e-02
      vertex   3.474249e-02 4.695327e-02 1.600000e-02
    endloop
  endfacet
  facet normal 0.000000e+00 0.000000e+00 1.000000e+00
    outer loop
      vertex   3.474249e-02 4.695327e-02 1.600000e-02
      vertex   3.525997e-02 4.715940e-02 1.600000e-02
      vertex   3.516227e-02 4.735666e-02 1.600000e-02
    endloop
  endfacet
  facet normal 0.000000e+00 -0.000000e+00 1.000000e+00
    outer loop
      vertex   3.474249e-02 4.695327e-02 1.600000e-02
      vertex   3.516227e-02 4.735666e-02 1.600000e-02
      vertex   3.460188e-02 4.724940e-02 1.600000e-02
    endloop
  endfacet
  facet normal 0.000000e+00 0.000000e+00 1.000000e+00
    outer loop
      vertex   3.460188e-02 4.724940e-02 1.600000e-02
      vertex   3.516227e-02 4.735666e-02 1.600000e-02
      vertex   3.511034e-02 4.757162e-02 1.600000e-02
    endloop
  endfacet
  facet normal 0.000000e+00 -0.000000e+00 1.000000e+00
    outer loop
      vertex   3.460188e-02 4.724940e-02 1.600000e-02
      vertex   3.511034e-02 4.757162e-02 1.600000e-02
      vertex   3.453635e-02 4.757222e-02 1.600000e-02
    endloop
  endfacet
  facet normal -0.000000e+00 0.000000e+00 1.000000e+00
    outer loop
      vertex   3.453635e-02 4.757222e-02 1.600000e-02
      vertex   3.511034e-02 4.757162e-02 1.600000e-02
      vertex   3.508399e-02 4.779647e-02 1.600000e-02
    endloop
  endfacet
  facet normal 0.000000e+00 -0.000000e+00 1.000000e+00
    outer loop
      vertex   3.453635e-02 4.757222e-02 1.600000e-02
      vertex   3.508399e-02 4.779647e-02 1.600000e-02
      vertex   3.451305e-02 4.791005e-02 1.600000e-02
    endloop
  endfacet
  facet normal -0.000000e+00 0.000000e+00 1.000000e+00
    outer loop
      vertex   3.451305e-02 4.791005e-02 1.600000e-02
      vertex   3.508399e-02 4.779647e-02 1.600000e-02
      vertex   3.511468e-02 4.825077e-02 1.600000e-02
    endloop
  endfacet
  facet normal 0.000000e+00 0.000000e+00 1.000000e+00
    outer loop
      vertex   3.451305e-02 4.791005e-02 1.600000e-02
      vertex   3.511468e-02 4.825077e-02 1.600000e-02
      vertex   3.453618e-02 4.825813e-02 1.600000e-02
    endloop
  endfacet
  facet normal -0.000000e+00 0.000000e+00 1.000000e+00
    outer loop
      vertex   3.453618e-02 4.825813e-02 1.600000e-02
      vertex   3.511468e-02 4.825077e-02 1.600000e-02
      vertex   3.460214e-02 4.859128e-02 1.600000e-02
    endloop
  endfacet
  facet normal 0.000000e+00 0.000000e+00 1.000000e+00
    outer loop
      vertex   3.460214e-02 4.859128e-02 1.600000e-02
      vertex   3.511468e-02 4.825077e-02 1.600000e-02
      vertex   3.514265e-02 4.844001e-02 1.600000e-02
    endloop
  endfacet
  facet normal -0.000000e+00 0.000000e+00 1.000000e+00
    outer loop
      vertex   3.460214e-02 4.859128e-02 1.600000e-02
      vertex   3.514265e-02 4.844001e-02 1.600000e-02
      vertex   3.474441e-02 4.889784e-02 1.600000e-02
    endloop
  endfacet
  facet normal -1.675716e-14 -1.457606e-14 1.000000e+00
    outer loop
      vertex   3.474441e-02 4.889784e-02 1.600000e-02
      vertex   3.514265e-02 4.844001e-02 1.600000e-02
      vertex   3.519377e-02 4.861927e-02 1.600000e-02
    endloop
  endfacet
  facet normal 4.121011e-15 1.910203e-14 1.000000e+00
    outer loop
      vertex   3.474441e-02 4.889784e-02 1.600000e-02
      vertex   3.519377e-02 4.861927e-02 1.600000e-02
      vertex   3.528508e-02 4.878120e-02 1.600000e-02
    endloop
  endfacet
  facet normal -0.000000e+00 0.000000e+00 1.000000e+00
    outer loop
      vertex   3.511468e-02 4.825077e-02 1.600000e-02
      vertex   3.508399e-02 4.779647e-02 1.600000e-02
      vertex   3.693494e-02 4.825077e-02 1.600000e-02
    endloop
  endfacet
  facet normal 0.000000e+00 0.000000e+00 1.000000e+00
    outer loop
      vertex   3.693494e-02 4.825077e-02 1.600000e-02
      vertex   3.508399e-02 4.779647e-02 1.600000e-02
      vertex   3.751509e-02 4.779647e-02 1.600000e-02
    endloop
  endfacet
  facet normal 0.000000e+00 0.000000e+00 1.000000e+00
    outer loop
      vertex   3.693494e-02 4.825077e-02 1.600000e-02
      vertex   3.751509e-02 4.779647e-02 1.600000e-02
      vertex   3.751620e-02 4.783330e-02 1.600000e-02
    endloop
  endfacet
  facet normal 0.000000e+00 -0.000000e+00 1.000000e+00
    outer loop
      vertex   3.751620e-02 4.783330e-02 1.600000e-02
      vertex   3.751715e-02 4.787013e-02 1.600000e-02
      vertex   3.693494e-02 4.825077e-02 1.600000e-02
    endloop
  endfacet
  facet normal 0.000000e+00 0.000000e+00 1.000000e+00
    outer loop
      vertex   3.693494e-02 4.825077e-02 1.600000e-02
      vertex   3.751715e-02 4.787013e-02 1.600000e-02
      vertex   3.751777e-02 4.790697e-02 1.600000e-02
    endloop
  endfacet
  facet normal 0.000000e+00 0.000000e+00 1.000000e+00
    outer loop
      vertex   3.693494e-02 4.825077e-02 1.600000e-02
      vertex   3.751777e-02 4.790697e-02 1.600000e-02
      vertex   3.751816e-02 4.794381e-02 1.600000e-02
    endloop
  endfacet
  facet normal 0.000000e+00 0.000000e+00 1.000000e+00
    outer loop
      vertex   3.751816e-02 4.794381e-02 1.600000e-02
      vertex   3.749561e-02 4.828509e-02 1.600000e-02
      vertex   3.693494e-02 4.825077e-02 1.600000e-02
    endloop
  endfacet
  facet normal 0.000000e+00 -0.000000e+00 1.000000e+00
    outer loop
      vertex   3.693494e-02 4.825077e-02 1.600000e-02
      vertex   3.749561e-02 4.828509e-02 1.600000e-02
      vertex   3.691353e-02 4.841602e-02 1.600000e-02
    endloop
  endfacet
  facet normal -0.000000e+00 0.000000e+00 1.000000e+00
    outer loop
      vertex   3.691353e-02 4.841602e-02 1.600000e-02
      vertex   3.749561e-02 4.828509e-02 1.600000e-02
      vertex   3.743114e-02 4.861180e-02 1.600000e-02
    endloop
  endfacet
  facet normal 0.000000e+00 -0.000000e+00 1.000000e+00
    outer loop
      vertex   3.691353e-02 4.841602e-02 1.600000e-02
      vertex   3.743114e-02 4.861180e-02 1.600000e-02
      vertex   3.687655e-02 4.857570e-02 1.600000e-02
    endloop
  endfacet
  facet normal 0.000000e+00 0.000000e+00 1.000000e+00
    outer loop
      vertex   3.687655e-02 4.857570e-02 1.600000e-02
      vertex   3.743114e-02 4.861180e-02 1.600000e-02
      vertex   3.729194e-02 4.891251e-02 1.600000e-02
    endloop
  endfacet
  facet normal 0.000000e+00 -0.000000e+00 1.000000e+00
    outer loop
      vertex   3.687655e-02 4.857570e-02 1.600000e-02
      vertex   3.729194e-02 4.891251e-02 1.600000e-02
      vertex   3.681113e-02 4.872521e-02 1.600000e-02
    endloop
  endfacet
  facet normal 0.000000e+00 0.000000e+00 1.000000e+00
    outer loop
      vertex   3.681113e-02 4.872521e-02 1.600000e-02
      vertex   3.729194e-02 4.891251e-02 1.600000e-02
      vertex   3.710377e-02 4.919620e-02 1.600000e-02
    endloop
  endfacet
  facet normal 0.000000e+00 -0.000000e+00 1.000000e+00
    outer loop
      vertex   3.681113e-02 4.872521e-02 1.600000e-02
      vertex   3.710377e-02 4.919620e-02 1.600000e-02
      vertex   3.672621e-02 4.886776e-02 1.600000e-02
    endloop
  endfacet
  facet normal 0.000000e+00 0.000000e+00 1.000000e+00
    outer loop
      vertex   3.672621e-02 4.886776e-02 1.600000e-02
      vertex   3.710377e-02 4.919620e-02 1.600000e-02
      vertex   3.687052e-02 4.938760e-02 1.600000e-02
    endloop
  endfacet
  facet normal 0.000000e+00 -0.000000e+00 1.000000e+00
    outer loop
      vertex   3.672621e-02 4.886776e-02 1.600000e-02
      vertex   3.687052e-02 4.938760e-02 1.600000e-02
      vertex   3.658100e-02 4.900298e-02 1.600000e-02
    endloop
  endfacet
  facet normal 0.000000e+00 0.000000e+00 1.000000e+00
    outer loop
      vertex   3.658100e-02 4.900298e-02 1.600000e-02
      vertex   3.687052e-02 4.938760e-02 1.600000e-02
      vertex   3.661855e-02 4.953462e-02 1.600000e-02
    endloop
  endfacet
  facet normal 2.079927e-14 -1.469304e-15 1.000000e+00
    outer loop
      vertex   3.658100e-02 4.900298e-02 1.600000e-02
      vertex   3.661855e-02 4.953462e-02 1.600000e-02
      vertex   3.642160e-02 4.910788e-02 1.600000e-02
    endloop
  endfacet
  facet normal 1.914292e-15 7.246679e-15 1.000000e+00
    outer loop
      vertex   3.642160e-02 4.910788e-02 1.600000e-02
      vertex   3.661855e-02 4.953462e-02 1.600000e-02
      vertex   3.633604e-02 4.960925e-02 1.600000e-02
    endloop
  endfacet
  facet normal -1.780854e-14 3.880825e-15 1.000000e+00
    outer loop
      vertex   3.642160e-02 4.910788e-02 1.600000e-02
      vertex   3.633604e-02 4.960925e-02 1.600000e-02
      vertex   3.623868e-02 4.916247e-02 1.600000e-02
    endloop
  endfacet
  facet normal 0.000000e+00 -0.000000e+00 1.000000e+00
    outer loop
      vertex   3.623868e-02 4.916247e-02 1.600000e-02
      vertex   3.633604e-02 4.960925e-02 1.600000e-02
      vertex   3.603556e-02 4.964129e-02 1.600000e-02
    endloop
  endfacet
  facet normal 0.000000e+00 0.000000e+00 1.000000e+00
    outer loop
      vertex   3.623868e-02 4.916247e-02 1.600000e-02
      vertex   3.603556e-02 4.964129e-02 1.600000e-02
      vertex   3.604170e-02 4.918699e-02 1.600000e-02
    endloop
  endfacet
  facet normal 0.000000e+00 0.000000e+00 1.000000e+00
    outer loop
      vertex   3.604170e-02 4.918699e-02 1.600000e-02
      vertex   3.603556e-02 4.964129e-02 1.600000e-02
      vertex   3.586374e-02 4.916806e-02 1.600000e-02
    endloop
  endfacet
  facet normal 0.000000e+00 -0.000000e+00 1.000000e+00
    outer loop
      vertex   3.586374e-02 4.916806e-02 1.600000e-02
      vertex   3.603556e-02 4.964129e-02 1.600000e-02
      vertex   3.572673e-02 4.960901e-02 1.600000e-02
    endloop
  endfacet
  facet normal 0.000000e+00 0.000000e+00 1.000000e+00
    outer loop
      vertex   3.586374e-02 4.916806e-02 1.600000e-02
      vertex   3.572673e-02 4.960901e-02 1.600000e-02
      vertex   3.569549e-02 4.912494e-02 1.600000e-02
    endloop
  endfacet
  facet normal 0.000000e+00 -0.000000e+00 1.000000e+00
    outer loop
      vertex   3.569549e-02 4.912494e-02 1.600000e-02
      vertex   3.572673e-02 4.960901e-02 1.600000e-02
      vertex   3.543619e-02 4.953314e-02 1.600000e-02
    endloop
  endfacet
  facet normal 0.000000e+00 0.000000e+00 1.000000e+00
    outer loop
      vertex   3.569549e-02 4.912494e-02 1.600000e-02
      vertex   3.543619e-02 4.953314e-02 1.600000e-02
      vertex   3.554361e-02 4.904099e-02 1.600000e-02
    endloop
  endfacet
  facet normal 0.000000e+00 0.000000e+00 1.000000e+00
    outer loop
      vertex   3.554361e-02 4.904099e-02 1.600000e-02
      vertex   3.543619e-02 4.953314e-02 1.600000e-02
      vertex   3.517683e-02 4.938292e-02 1.600000e-02
    endloop
  endfacet
  facet normal 0.000000e+00 0.000000e+00 1.000000e+00
    outer loop
      vertex   3.554361e-02 4.904099e-02 1.600000e-02
      vertex   3.517683e-02 4.938292e-02 1.600000e-02
      vertex   3.540169e-02 4.893222e-02 1.600000e-02
    endloop
  endfacet
  facet normal 0.000000e+00 0.000000e+00 1.000000e+00
    outer loop
      vertex   3.540169e-02 4.893222e-02 1.600000e-02
      vertex   3.517683e-02 4.938292e-02 1.600000e-02
      vertex   3.493665e-02 4.918699e-02 1.600000e-02
    endloop
  endfacet
  facet normal 0.000000e+00 0.000000e+00 1.000000e+00
    outer loop
      vertex   3.540169e-02 4.893222e-02 1.600000e-02
      vertex   3.493665e-02 4.918699e-02 1.600000e-02
      vertex   3.528508e-02 4.878120e-02 1.600000e-02
    endloop
  endfacet
  facet normal 0.000000e+00 0.000000e+00 1.000000e+00
    outer loop
      vertex   3.528508e-02 4.878120e-02 1.600000e-02
      vertex   3.493665e-02 4.918699e-02 1.600000e-02
      vertex   3.474441e-02 4.889784e-02 1.600000e-02
    endloop
  endfacet
  facet normal 0.000000e+00 -0.000000e+00 -1.000000e+00
    outer loop
      vertex   3.669951e-02 4.695732e-02 8.000000e-03
      vertex   3.699940e-02 4.651032e-02 8.000000e-03
      vertex   3.658808e-02 4.684798e-02 8.000000e-03
    endloop
  endfacet
  facet normal 0.000000e+00 0.000000e+00 -1.000000e+00
    outer loop
      vertex   3.658808e-02 4.684798e-02 8.000000e-03
      vertex   3.699940e-02 4.651032e-02 8.000000e-03
      vertex   3.678266e-02 4.638727e-02 8.000000e-03
    endloop
  endfacet
  facet normal 0.000000e+00 -0.000000e+00 -1.000000e+00
    outer loop
      vertex   3.658808e-02 4.684798e-02 8.000000e-03
      vertex   3.678266e-02 4.638727e-02 8.000000e-03
      vertex   3.646769e-02 4.677846e-02 8.000000e-03
    endloop
  endfacet
  facet normal 0.000000e+00 0.000000e+00 -1.000000e+00
    outer loop
      vertex   3.646769e-02 4.677846e-02 8.000000e-03
      vertex   3.678266e-02 4.638727e-02 8.000000e-03
      vertex   3.655649e-02 4.629499e-02 8.000000e-03
    endloop
  endfacet
  facet normal 0.000000e+00 -0.000000e+00 -1.000000e+00
    outer loop
      vertex   3.646769e-02 4.677846e-02 8.000000e-03
      vertex   3.655649e-02 4.629499e-02 8.000000e-03
      vertex   3.634209e-02 4.672551e-02 8.000000e-03
    endloop
  endfacet
  facet normal 0.000000e+00 -0.000000e+00 -1.000000e+00
    outer loop
      vertex   3.634209e-02 4.672551e-02 8.000000e-03
      vertex   3.655649e-02 4.629499e-02 8.000000e-03
      vertex   3.631557e-02 4.625082e-02 8.000000e-03
    endloop
  endfacet
  facet normal 0.000000e+00 0.000000e+00 -1.000000e+00
    outer loop
      vertex   3.634209e-02 4.672551e-02 8.000000e-03
      vertex   3.631557e-02 4.625082e-02 8.000000e-03
      vertex   3.620813e-02 4.669919e-02 8.000000e-03
    endloop
  endfacet
  facet normal 0.000000e+00 -0.000000e+00 -1.000000e+00
    outer loop
      vertex   3.620813e-02 4.669919e-02 8.000000e-03
      vertex   3.631557e-02 4.625082e-02 8.000000e-03
      vertex   3.606625e-02 4.623406e-02 8.000000e-03
    endloop
  endfacet
  facet normal 0.000000e+00 0.000000e+00 -1.000000e+00
    outer loop
      vertex   3.620813e-02 4.669919e-02 8.000000e-03
      vertex   3.606625e-02 4.623406e-02 8.000000e-03
      vertex   3.606932e-02 4.668836e-02 8.000000e-03
    endloop
  endfacet
  facet normal -0.000000e+00 0.000000e+00 -1.000000e+00
    outer loop
      vertex   3.606932e-02 4.668836e-02 8.000000e-03
      vertex   3.606625e-02 4.623406e-02 8.000000e-03
      vertex   3.587796e-02 4.670987e-02 8.000000e-03
    endloop
  endfacet
  facet normal 0.000000e+00 -0.000000e+00 -1.000000e+00
    outer loop
      vertex   3.587796e-02 4.670987e-02 8.000000e-03
      vertex   3.606625e-02 4.623406e-02 8.000000e-03
      vertex   3.575002e-02 4.626241e-02 8.000000e-03
    endloop
  endfacet
  facet normal -0.000000e+00 0.000000e+00 -1.000000e+00
    outer loop
      vertex   3.587796e-02 4.670987e-02 8.000000e-03
      vertex   3.575002e-02 4.626241e-02 8.000000e-03
      vertex   3.569798e-02 4.675840e-02 8.000000e-03
    endloop
  endfacet
  facet normal 0.000000e+00 -0.000000e+00 -1.000000e+00
    outer loop
      vertex   3.569798e-02 4.675840e-02 8.000000e-03
      vertex   3.575002e-02 4.626241e-02 8.000000e-03
      vertex   3.545105e-02 4.633395e-02 8.000000e-03
    endloop
  endfacet
  facet normal -0.000000e+00 0.000000e+00 -1.000000e+00
    outer loop
      vertex   3.569798e-02 4.675840e-02 8.000000e-03
      vertex   3.545105e-02 4.633395e-02 8.000000e-03
      vertex   3.553713e-02 4.685236e-02 8.000000e-03
    endloop
  endfacet
  facet normal 0.000000e+00 0.000000e+00 -1.000000e+00
    outer loop
      vertex   3.553713e-02 4.685236e-02 8.000000e-03
      vertex   3.545105e-02 4.633395e-02 8.000000e-03
      vertex   3.518209e-02 4.648058e-02 8.000000e-03
    endloop
  endfacet
  facet normal -0.000000e+00 0.000000e+00 -1.000000e+00
    outer loop
      vertex   3.553713e-02 4.685236e-02 8.000000e-03
      vertex   3.518209e-02 4.648058e-02 8.000000e-03
      vertex   3.538788e-02 4.697383e-02 8.000000e-03
    endloop
  endfacet
  facet normal 0.000000e+00 0.000000e+00 -1.000000e+00
    outer loop
      vertex   3.538788e-02 4.697383e-02 8.000000e-03
      vertex   3.518209e-02 4.648058e-02 8.000000e-03
      vertex   3.493204e-02 4.667454e-02 8.000000e-03
    endloop
  endfacet
  facet normal -0.000000e+00 0.000000e+00 -1.000000e+00
    outer loop
      vertex   3.538788e-02 4.697383e-02 8.000000e-03
      vertex   3.493204e-02 4.667454e-02 8.000000e-03
      vertex   3.525997e-02 4.715940e-02 8.000000e-03
    endloop
  endfacet
  facet normal 0.000000e+00 0.000000e+00 -1.000000e+00
    outer loop
      vertex   3.525997e-02 4.715940e-02 8.000000e-03
      vertex   3.493204e-02 4.667454e-02 8.000000e-03
      vertex   3.474249e-02 4.695327e-02 8.000000e-03
    endloop
  endfacet
  facet normal -0.000000e+00 0.000000e+00 -1.000000e+00
    outer loop
      vertex   3.525997e-02 4.715940e-02 8.000000e-03
      vertex   3.474249e-02 4.695327e-02 8.000000e-03
      vertex   3.516227e-02 4.735666e-02 8.000000e-03
    endloop
  endfacet
  facet normal 0.000000e+00 0.000000e+00 -1.000000e+00
    outer loop
      vertex   3.516227e-02 4.735666e-02 8.000000e-03
      vertex   3.474249e-02 4.695327e-02 8.000000e-03
      vertex   3.460188e-02 4.724940e-02 8.000000e-03
    endloop
  endfacet
  facet normal -0.000000e+00 0.000000e+00 -1.000000e+00
    outer loop
      vertex   3.516227e-02 4.735666e-02 8.000000e-03
      vertex   3.460188e-02 4.724940e-02 8.000000e-03
      vertex   3.511034e-02 4.757162e-02 8.000000e-03
    endloop
  endfacet
  facet normal -0.000000e+00 0.000000e+00 -1.000000e+00
    outer loop
      vertex   3.511034e-02 4.757162e-02 8.000000e-03
      vertex   3.460188e-02 4.724940e-02 8.000000e-03
      vertex   3.453635e-02 4.757222e-02 8.000000e-03
    endloop
  endfacet
  facet normal 0.000000e+00 0.000000e+00 -1.000000e+00
    outer loop
      vertex   3.511034e-02 4.757162e-02 8.000000e-03
      vertex   3.453635e-02 4.757222e-02 8.000000e-03
      vertex   3.508399e-02 4.779647e-02 8.000000e-03
    endloop
  endfacet
  facet normal -0.000000e+00 0.000000e+00 -1.000000e+00
    outer loop
      vertex   3.508399e-02 4.779647e-02 8.000000e-03
      vertex   3.453635e-02 4.757222e-02 8.000000e-03
      vertex   3.451305e-02 4.791005e-02 8.000000e-03
    endloop
  endfacet
  facet normal 0.000000e+00 0.000000e+00 -1.000000e+00
    outer loop
      vertex   3.508399e-02 4.779647e-02 8.000000e-03
      vertex   3.451305e-02 4.791005e-02 8.000000e-03
      vertex   3.511468e-02 4.825077e-02 8.000000e-03
    endloop
  endfacet
  facet normal -0.000000e+00 0.000000e+00 -1.000000e+00
    outer loop
      vertex   3.511468e-02 4.825077e-02 8.000000e-03
      vertex   3.451305e-02 4.791005e-02 8.000000e-03
      vertex   3.453618e-02 4.825813e-02 8.000000e-03
    endloop
  endfacet
  facet normal 0.000000e+00 0.000000e+00 -1.000000e+00
    outer loop
      vertex   3.511468e-02 4.825077e-02 8.000000e-03
      vertex   3.453618e-02 4.825813e-02 8.000000e-03
      vertex   3.460214e-02 4.859128e-02 8.000000e-03
    endloop
  endfacet
  facet normal 0.000000e+00 0.000000e+00 -1.000000e+00
    outer loop
      vertex   3.699940e-02 4.651032e-02 8.000000e-03
      vertex   3.669951e-02 4.695732e-02 8.000000e-03
      vertex   3.717028e-02 4.667460e-02 8.000000e-03
    endloop
  endfacet
  facet normal 0.000000e+00 0.000000e+00 -1.000000e+00
    outer loop
      vertex   3.717028e-02 4.667460e-02 8.000000e-03
      vertex   3.669951e-02 4.695732e-02 8.000000e-03
      vertex   3.679564e-02 4.707718e-02 8.000000e-03
    endloop
  endfacet
  facet normal 0.000000e+00 0.000000e+00 -1.000000e+00
    outer loop
      vertex   3.717028e-02 4.667460e-02 8.000000e-03
      vertex   3.679564e-02 4.707718e-02 8.000000e-03
      vertex   3.731555e-02 4.685558e-02 8.000000e-03
    endloop
  endfacet
  facet normal 0.000000e+00 0.000000e+00 -1.000000e+00
    outer loop
      vertex   3.731555e-02 4.685558e-02 8.000000e-03
      vertex   3.679564e-02 4.707718e-02 8.000000e-03
      vertex   3.686866e-02 4.721293e-02 8.000000e-03
    endloop
  endfacet
  facet normal 0.000000e+00 0.000000e+00 -1.000000e+00
    outer loop
      vertex   3.731555e-02 4.685558e-02 8.000000e-03
      vertex   3.686866e-02 4.721293e-02 8.000000e-03
      vertex   3.741962e-02 4.706344e-02 8.000000e-03
    endloop
  endfacet
  facet normal 0.000000e+00 0.000000e+00 -1.000000e+00
    outer loop
      vertex   3.741962e-02 4.706344e-02 8.000000e-03
      vertex   3.686866e-02 4.721293e-02 8.000000e-03
      vertex   3.692880e-02 4.735752e-02 8.000000e-03
    endloop
  endfacet
  facet normal 0.000000e+00 0.000000e+00 -1.000000e+00
    outer loop
      vertex   3.741962e-02 4.706344e-02 8.000000e-03
      vertex   3.692880e-02 4.735752e-02 8.000000e-03
      vertex   3.749974e-02 4.728692e-02 8.000000e-03
    endloop
  endfacet
  facet normal 0.000000e+00 0.000000e+00 -1.000000e+00
    outer loop
      vertex   3.511468e-02 4.825077e-02 8.000000e-03
      vertex   3.460214e-02 4.859128e-02 8.000000e-03
      vertex   3.514265e-02 4.844001e-02 8.000000e-03
    endloop
  endfacet
  facet normal 0.000000e+00 0.000000e+00 -1.000000e+00
    outer loop
      vertex   3.514265e-02 4.844001e-02 8.000000e-03
      vertex   3.460214e-02 4.859128e-02 8.000000e-03
      vertex   3.474441e-02 4.889784e-02 8.000000e-03
    endloop
  endfacet
  facet normal 8.378581e-15 7.288032e-15 -1.000000e+00
    outer loop
      vertex   3.514265e-02 4.844001e-02 8.000000e-03
      vertex   3.474441e-02 4.889784e-02 8.000000e-03
      vertex   3.519377e-02 4.861927e-02 8.000000e-03
    endloop
  endfacet
  facet normal -2.060506e-15 -9.551014e-15 -1.000000e+00
    outer loop
      vertex   3.519377e-02 4.861927e-02 8.000000e-03
      vertex   3.474441e-02 4.889784e-02 8.000000e-03
      vertex   3.528508e-02 4.878120e-02 8.000000e-03
    endloop
  endfacet
  facet normal 0.000000e+00 0.000000e+00 -1.000000e+00
    outer loop
      vertex   3.528508e-02 4.878120e-02 8.000000e-03
      vertex   3.474441e-02 4.889784e-02 8.000000e-03
      vertex   3.493665e-02 4.918699e-02 8.000000e-03
    endloop
  endfacet
  facet normal 0.000000e+00 0.000000e+00 -1.000000e+00
    outer loop
      vertex   3.528508e-02 4.878120e-02 8.000000e-03
      vertex   3.493665e-02 4.918699e-02 8.000000e-03
      vertex   3.540169e-02 4.893222e-02 8.000000e-03
    endloop
  endfacet
  facet normal 0.000000e+00 0.000000e+00 -1.000000e+00
    outer loop
      vertex   3.540169e-02 4.893222e-02 8.000000e-03
      vertex   3.493665e-02 4.918699e-02 8.000000e-03
      vertex   3.517683e-02 4.938292e-02 8.000000e-03
    endloop
  endfacet
  facet normal 0.000000e+00 0.000000e+00 -1.000000e+00
    outer loop
      vertex   3.540169e-02 4.893222e-02 8.000000e-03
      vertex   3.517683e-02 4.938292e-02 8.000000e-03
      vertex   3.554361e-02 4.904099e-02 8.000000e-03
    endloop
  endfacet
  facet normal 0.000000e+00 0.000000e+00 -1.000000e+00
    outer loop
      vertex   3.554361e-02 4.904099e-02 8.000000e-03
      vertex   3.517683e-02 4.938292e-02 8.000000e-03
      vertex   3.543619e-02 4.953314e-02 8.000000e-03
    endloop
  endfacet
  facet normal 0.000000e+00 0.000000e+00 -1.000000e+00
    outer loop
      vertex   3.554361e-02 4.904099e-02 8.000000e-03
      vertex   3.543619e-02 4.953314e-02 8.000000e-03
      vertex   3.569549e-02 4.912494e-02 8.000000e-03
    endloop
  endfacet
  facet normal 0.000000e+00 0.000000e+00 -1.000000e+00
    outer loop
      vertex   3.569549e-02 4.912494e-02 8.000000e-03
      vertex   3.543619e-02 4.953314e-02 8.000000e-03
      vertex   3.572673e-02 4.960901e-02 8.000000e-03
    endloop
  endfacet
  facet normal 0.000000e+00 0.000000e+00 -1.000000e+00
    outer loop
      vertex   3.569549e-02 4.912494e-02 8.000000e-03
      vertex   3.572673e-02 4.960901e-02 8.000000e-03
      vertex   3.586374e-02 4.916806e-02 8.000000e-03
    endloop
  endfacet
  facet normal 0.000000e+00 0.000000e+00 -1.000000e+00
    outer loop
      vertex   3.586374e-02 4.916806e-02 8.000000e-03
      vertex   3.572673e-02 4.960901e-02 8.000000e-03
      vertex   3.603556e-02 4.964129e-02 8.000000e-03
    endloop
  endfacet
  facet normal 0.000000e+00 0.000000e+00 -1.000000e+00
    outer loop
      vertex   3.586374e-02 4.916806e-02 8.000000e-03
      vertex   3.603556e-02 4.964129e-02 8.000000e-03
      vertex   3.604170e-02 4.918699e-02 8.000000e-03
    endloop
  endfacet
  facet normal 0.000000e+00 0.000000e+00 -1.000000e+00
    outer loop
      vertex   3.604170e-02 4.918699e-02 8.000000e-03
      vertex   3.603556e-02 4.964129e-02 8.000000e-03
      vertex   3.623868e-02 4.916247e-02 8.000000e-03
    endloop
  endfacet
  facet normal 0.000000e+00 0.000000e+00 -1.000000e+00
    outer loop
      vertex   3.623868e-02 4.916247e-02 8.000000e-03
      vertex   3.603556e-02 4.964129e-02 8.000000e-03
      vertex   3.633604e-02 4.960925e-02 8.000000e-03
    endloop
  endfacet
  facet normal 8.904271e-15 -1.940413e-15 -1.000000e+00
    outer loop
      vertex   3.623868e-02 4.916247e-02 8.000000e-03
      vertex   3.633604e-02 4.960925e-02 8.000000e-03
      vertex   3.642160e-02 4.910788e-02 8.000000e-03
    endloop
  endfacet
  facet normal -9.571459e-16 -3.623339e-15 -1.000000e+00
    outer loop
      vertex   3.642160e-02 4.910788e-02 8.000000e-03
      vertex   3.633604e-02 4.960925e-02 8.000000e-03
      vertex   3.661855e-02 4.953462e-02 8.000000e-03
    endloop
  endfacet
  facet normal -1.039964e-14 7.346522e-16 -1.000000e+00
    outer loop
      vertex   3.642160e-02 4.910788e-02 8.000000e-03
      vertex   3.661855e-02 4.953462e-02 8.000000e-03
      vertex   3.658100e-02 4.900298e-02 8.000000e-03
    endloop
  endfacet
  facet normal 0.000000e+00 0.000000e+00 -1.000000e+00
    outer loop
      vertex   3.658100e-02 4.900298e-02 8.000000e-03
      vertex   3.661855e-02 4.953462e-02 8.000000e-03
      vertex   3.687052e-02 4.938760e-02 8.000000e-03
    endloop
  endfacet
  facet normal 0.000000e+00 0.000000e+00 -1.000000e+00
    outer loop
      vertex   3.658100e-02 4.900298e-02 8.000000e-03
      vertex   3.687052e-02 4.938760e-02 8.000000e-03
      vertex   3.672621e-02 4.886776e-02 8.000000e-03
    endloop
  endfacet
  facet normal 0.000000e+00 0.000000e+00 -1.000000e+00
    outer loop
      vertex   3.672621e-02 4.886776e-02 8.000000e-03
      vertex   3.687052e-02 4.938760e-02 8.000000e-03
      vertex   3.710377e-02 4.919620e-02 8.000000e-03
    endloop
  endfacet
  facet normal 0.000000e+00 0.000000e+00 -1.000000e+00
    outer loop
      vertex   3.672621e-02 4.886776e-02 8.000000e-03
      vertex   3.710377e-02 4.919620e-02 8.000000e-03
      vertex   3.681113e-02 4.872521e-02 8.000000e-03
    endloop
  endfacet
  facet normal 0.000000e+00 0.000000e+00 -1.000000e+00
    outer loop
      vertex   3.681113e-02 4.872521e-02 8.000000e-03
      vertex   3.710377e-02 4.919620e-02 8.000000e-03
      vertex   3.729194e-02 4.891251e-02 8.000000e-03
    endloop
  endfacet
  facet normal 0.000000e+00 0.000000e+00 -1.000000e+00
    outer loop
      vertex   3.681113e-02 4.872521e-02 8.000000e-03
      vertex   3.729194e-02 4.891251e-02 8.000000e-03
      vertex   3.687655e-02 4.857570e-02 8.000000e-03
    endloop
  endfacet
  facet normal 0.000000e+00 0.000000e+00 -1.000000e+00
    outer loop
      vertex   3.687655e-02 4.857570e-02 8.000000e-03
      vertex   3.729194e-02 4.891251e-02 8.000000e-03
      vertex   3.743114e-02 4.861180e-02 8.000000e-03
    endloop
  endfacet
  facet normal 0.000000e+00 0.000000e+00 -1.000000e+00
    outer loop
      vertex   3.687655e-02 4.857570e-02 8.000000e-03
      vertex   3.743114e-02 4.861180e-02 8.000000e-03
      vertex   3.691353e-02 4.841602e-02 8.000000e-03
    endloop
  endfacet
  facet normal 0.000000e+00 0.000000e+00 -1.000000e+00
    outer loop
      vertex   3.691353e-02 4.841602e-02 8.000000e-03
      vertex   3.743114e-02 4.861180e-02 8.000000e-03
      vertex   3.749561e-02 4.828509e-02 8.000000e-03
    endloop
  endfacet
  facet normal 0.000000e+00 0.000000e+00 -1.000000e+00
    outer loop
      vertex   3.691353e-02 4.841602e-02 8.000000e-03
      vertex   3.749561e-02 4.828509e-02 8.000000e-03
      vertex   3.693494e-02 4.825077e-02 8.000000e-03
    endloop
  endfacet
  facet normal 0.000000e+00 0.000000e+00 -1.000000e+00
    outer loop
      vertex   3.693494e-02 4.825077e-02 8.000000e-03
      vertex   3.749561e-02 4.828509e-02 8.000000e-03
      vertex   3.751816e-02 4.794381e-02 8.000000e-03
    endloop
  endfacet
  facet normal 0.000000e+00 0.000000e+00 -1.000000e+00
    outer loop
      vertex   3.693494e-02 4.825077e-02 8.000000e-03
      vertex   3.751816e-02 4.794381e-02 8.000000e-03
      vertex   3.751777e-02 4.790697e-02 8.000000e-03
    endloop
  endfacet
  facet normal -0.000000e+00 0.000000e+00 -1.000000e+00
    outer loop
      vertex   3.751777e-02 4.790697e-02 8.000000e-03
      vertex   3.751715e-02 4.787013e-02 8.000000e-03
      vertex   3.693494e-02 4.825077e-02 8.000000e-03
    endloop
  endfacet
  facet normal 0.000000e+00 0.000000e+00 -1.000000e+00
    outer loop
      vertex   3.693494e-02 4.825077e-02 8.000000e-03
      vertex   3.751715e-02 4.787013e-02 8.000000e-03
      vertex   3.751620e-02 4.783330e-02 8.000000e-03
    endloop
  endfacet
  facet normal 0.000000e+00 0.000000e+00 -1.000000e+00
    outer loop
      vertex   3.693494e-02 4.825077e-02 8.000000e-03
      vertex   3.751620e-02 4.783330e-02 8.000000e-03
      vertex   3.751509e-02 4.779647e-02 8.000000e-03
    endloop
  endfacet
  facet normal 0.000000e+00 0.000000e+00 -1.000000e+00
    outer loop
      vertex   3.751509e-02 4.779647e-02 8.000000e-03
      vertex   3.508399e-02 4.779647e-02 8.000000e-03
      vertex   3.693494e-02 4.825077e-02 8.000000e-03
    endloop
  endfacet
  facet normal -0.000000e+00 0.000000e+00 -1.000000e+00
    outer loop
      vertex   3.693494e-02 4.825077e-02 8.000000e-03
      vertex   3.508399e-02 4.779647e-02 8.000000e-03
      vertex   3.511468e-02 4.825077e-02 8.000000e-03
    endloop
  endfacet
endsolid
