solid ASCII
  facet normal 3.857509e-01 9.226030e-01 5.805140e-15
    outer loop
      vertex   2.117537e-02 4.680147e-02 1.600000e-02
      vertex   2.117537e-02 4.680147e-02 1.466667e-02
      vertex   2.113021e-02 4.682035e-02 1.600000e-02
    endloop
  endfacet
  facet normal 3.857509e-01 9.226030e-01 0.000000e+00
    outer loop
      vertex   2.113021e-02 4.682035e-02 1.600000e-02
      vertex   2.117537e-02 4.680147e-02 1.466667e-02
      vertex   2.117537e-02 4.680147e-02 1.333333e-02
    endloop
  endfacet
  facet normal 3.857509e-01 9.226030e-01 0.000000e+00
    outer loop
      vertex   2.113021e-02 4.682035e-02 1.600000e-02
      vertex   2.117537e-02 4.680147e-02 1.333333e-02
      vertex   2.117537e-02 4.680147e-02 1.200000e-02
    endloop
  endfacet
  facet normal 2.804210e-01 9.598771e-01 -0.000000e+00
    outer loop
      vertex   2.117537e-02 4.680147e-02 1.200000e-02
      vertex   2.117537e-02 4.680147e-02 1.333333e-02
      vertex   2.122175e-02 4.678792e-02 1.333333e-02
    endloop
  endfacet
  facet normal 2.804210e-01 9.598771e-01 0.000000e+00
    outer loop
      vertex   2.117537e-02 4.680147e-02 1.200000e-02
      vertex   2.122175e-02 4.678792e-02 1.333333e-02
      vertex   2.122175e-02 4.678792e-02 1.200000e-02
    endloop
  endfacet
  facet normal 1.203934e-01 9.927263e-01 -0.000000e+00
    outer loop
      vertex   2.122175e-02 4.678792e-02 1.200000e-02
      vertex   2.122175e-02 4.678792e-02 1.333333e-02
      vertex   2.126989e-02 4.678208e-02 1.333333e-02
    endloop
  endfacet
  facet normal 1.203934e-01 9.927263e-01 0.000000e+00
    outer loop
      vertex   2.122175e-02 4.678792e-02 1.200000e-02
      vertex   2.126989e-02 4.678208e-02 1.333333e-02
      vertex   2.126989e-02 4.678208e-02 1.200000e-02
    endloop
  endfacet
  facet normal 3.326290e-02 9.994466e-01 -0.000000e+00
    outer loop
      vertex   2.126989e-02 4.678208e-02 1.200000e-02
      vertex   2.126989e-02 4.678208e-02 1.333333e-02
      vertex   2.131899e-02 4.678044e-02 1.600000e-02
    endloop
  endfacet
  facet normal 3.326290e-02 9.994466e-01 0.000000e+00
    outer loop
      vertex   2.126989e-02 4.678208e-02 1.200000e-02
      vertex   2.131899e-02 4.678044e-02 1.600000e-02
      vertex   2.131899e-02 4.678044e-02 8.000000e-03
    endloop
  endfacet
  facet normal 2.804210e-01 9.598771e-01 5.725043e-15
    outer loop
      vertex   2.117537e-02 4.680147e-02 1.600000e-02
      vertex   2.122175e-02 4.678792e-02 1.600000e-02
      vertex   2.117537e-02 4.680147e-02 1.466667e-02
    endloop
  endfacet
  facet normal 2.804210e-01 9.598771e-01 7.286535e-16
    outer loop
      vertex   2.117537e-02 4.680147e-02 1.466667e-02
      vertex   2.122175e-02 4.678792e-02 1.600000e-02
      vertex   2.122175e-02 4.678792e-02 1.466667e-02
    endloop
  endfacet
  facet normal 2.804210e-01 9.598771e-01 0.000000e+00
    outer loop
      vertex   2.117537e-02 4.680147e-02 1.466667e-02
      vertex   2.122175e-02 4.678792e-02 1.466667e-02
      vertex   2.117537e-02 4.680147e-02 1.333333e-02
    endloop
  endfacet
  facet normal 2.804210e-01 9.598771e-01 0.000000e+00
    outer loop
      vertex   2.117537e-02 4.680147e-02 1.333333e-02
      vertex   2.122175e-02 4.678792e-02 1.466667e-02
      vertex   2.122175e-02 4.678792e-02 1.333333e-02
    endloop
  endfacet
  facet normal 1.203934e-01 9.927263e-01 3.132738e-16
    outer loop
      vertex   2.122175e-02 4.678792e-02 1.600000e-02
      vertex   2.126989e-02 4.678208e-02 1.600000e-02
      vertex   2.122175e-02 4.678792e-02 1.466667e-02
    endloop
  endfacet
  facet normal 1.203934e-01 9.927263e-01 -5.166217e-15
    outer loop
      vertex   2.122175e-02 4.678792e-02 1.466667e-02
      vertex   2.126989e-02 4.678208e-02 1.600000e-02
      vertex   2.126989e-02 4.678208e-02 1.466667e-02
    endloop
  endfacet
  facet normal 1.203934e-01 9.927263e-01 0.000000e+00
    outer loop
      vertex   2.122175e-02 4.678792e-02 1.466667e-02
      vertex   2.126989e-02 4.678208e-02 1.466667e-02
      vertex   2.122175e-02 4.678792e-02 1.333333e-02
    endloop
  endfacet
  facet normal 1.203934e-01 9.927263e-01 0.000000e+00
    outer loop
      vertex   2.122175e-02 4.678792e-02 1.333333e-02
      vertex   2.126989e-02 4.678208e-02 1.466667e-02
      vertex   2.126989e-02 4.678208e-02 1.333333e-02
    endloop
  endfacet
  facet normal 3.326290e-02 9.994466e-01 -5.201291e-15
    outer loop
      vertex   2.126989e-02 4.678208e-02 1.600000e-02
      vertex   2.131899e-02 4.678044e-02 1.600000e-02
      vertex   2.126989e-02 4.678208e-02 1.466667e-02
    endloop
  endfacet
  facet normal 3.326290e-02 9.994466e-01 0.000000e+00
    outer loop
      vertex   2.126989e-02 4.678208e-02 1.466667e-02
      vertex   2.131899e-02 4.678044e-02 1.600000e-02
      vertex   2.126989e-02 4.678208e-02 1.333333e-02
    endloop
  endfacet
  facet normal 3.326290e-02 9.994466e-01 5.201291e-15
    outer loop
      vertex   2.126989e-02 4.678208e-02 8.000000e-03
      vertex   2.126989e-02 4.678208e-02 9.333333e-03
      vertex   2.131899e-02 4.678044e-02 8.000000e-03
    endloop
  endfacet
  facet normal 3.326290e-02 9.994466e-01 0.000000e+00
    outer loop
      vertex   2.131899e-02 4.678044e-02 8.000000e-03
      vertex   2.126989e-02 4.678208e-02 9.333333e-03
      vertex   2.126989e-02 4.678208e-02 1.066667e-02
    endloop
  endfacet
  facet normal 3.326290e-02 9.994466e-01 0.000000e+00
    outer loop
      vertex   2.131899e-02 4.678044e-02 8.000000e-03
      vertex   2.126989e-02 4.678208e-02 1.066667e-02
      vertex   2.126989e-02 4.678208e-02 1.200000e-02
    endloop
  endfacet
  facet normal 1.203934e-01 9.927263e-01 0.000000e+00
    outer loop
      vertex   2.126989e-02 4.678208e-02 1.200000e-02
      vertex   2.126989e-02 4.678208e-02 1.066667e-02
      vertex   2.122175e-02 4.678792e-02 1.066667e-02
    endloop
  endfacet
  facet normal 1.203934e-01 9.927263e-01 0.000000e+00
    outer loop
      vertex   2.126989e-02 4.678208e-02 1.200000e-02
      vertex   2.122175e-02 4.678792e-02 1.066667e-02
      vertex   2.122175e-02 4.678792e-02 1.200000e-02
    endloop
  endfacet
  facet normal 2.804210e-01 9.598771e-01 0.000000e+00
    outer loop
      vertex   2.122175e-02 4.678792e-02 1.200000e-02
      vertex   2.122175e-02 4.678792e-02 1.066667e-02
      vertex   2.117537e-02 4.680147e-02 1.066667e-02
    endloop
  endfacet
  facet normal 2.804210e-01 9.598771e-01 0.000000e+00
    outer loop
      vertex   2.122175e-02 4.678792e-02 1.200000e-02
      vertex   2.117537e-02 4.680147e-02 1.066667e-02
      vertex   2.117537e-02 4.680147e-02 1.200000e-02
    endloop
  endfacet
  facet normal 3.857509e-01 9.226030e-01 0.000000e+00
    outer loop
      vertex   2.117537e-02 4.680147e-02 1.200000e-02
      vertex   2.117537e-02 4.680147e-02 1.066667e-02
      vertex   2.113021e-02 4.682035e-02 8.000000e-03
    endloop
  endfacet
  facet normal 3.857509e-01 9.226030e-01 0.000000e+00
    outer loop
      vertex   2.117537e-02 4.680147e-02 1.200000e-02
      vertex   2.113021e-02 4.682035e-02 8.000000e-03
      vertex   2.113021e-02 4.682035e-02 1.600000e-02
    endloop
  endfacet
  facet normal 1.203934e-01 9.927263e-01 5.166317e-15
    outer loop
      vertex   2.126989e-02 4.678208e-02 8.000000e-03
      vertex   2.122175e-02 4.678792e-02 8.000000e-03
      vertex   2.126989e-02 4.678208e-02 9.333333e-03
    endloop
  endfacet
  facet normal 1.203934e-01 9.927263e-01 -3.134433e-16
    outer loop
      vertex   2.126989e-02 4.678208e-02 9.333333e-03
      vertex   2.122175e-02 4.678792e-02 8.000000e-03
      vertex   2.122175e-02 4.678792e-02 9.333333e-03
    endloop
  endfacet
  facet normal 1.203934e-01 9.927263e-01 -0.000000e+00
    outer loop
      vertex   2.126989e-02 4.678208e-02 9.333333e-03
      vertex   2.122175e-02 4.678792e-02 9.333333e-03
      vertex   2.126989e-02 4.678208e-02 1.066667e-02
    endloop
  endfacet
  facet normal 1.203934e-01 9.927263e-01 0.000000e+00
    outer loop
      vertex   2.126989e-02 4.678208e-02 1.066667e-02
      vertex   2.122175e-02 4.678792e-02 9.333333e-03
      vertex   2.122175e-02 4.678792e-02 1.066667e-02
    endloop
  endfacet
  facet normal 2.804210e-01 9.598771e-01 -7.296794e-16
    outer loop
      vertex   2.122175e-02 4.678792e-02 8.000000e-03
      vertex   2.117537e-02 4.680147e-02 8.000000e-03
      vertex   2.122175e-02 4.678792e-02 9.333333e-03
    endloop
  endfacet
  facet normal 2.804210e-01 9.598771e-01 -5.724906e-15
    outer loop
      vertex   2.122175e-02 4.678792e-02 9.333333e-03
      vertex   2.117537e-02 4.680147e-02 8.000000e-03
      vertex   2.117537e-02 4.680147e-02 9.333333e-03
    endloop
  endfacet
  facet normal 2.804210e-01 9.598771e-01 -0.000000e+00
    outer loop
      vertex   2.122175e-02 4.678792e-02 9.333333e-03
      vertex   2.117537e-02 4.680147e-02 9.333333e-03
      vertex   2.122175e-02 4.678792e-02 1.066667e-02
    endloop
  endfacet
  facet normal 2.804210e-01 9.598771e-01 0.000000e+00
    outer loop
      vertex   2.122175e-02 4.678792e-02 1.066667e-02
      vertex   2.117537e-02 4.680147e-02 9.333333e-03
      vertex   2.117537e-02 4.680147e-02 1.066667e-02
    endloop
  endfacet
  facet normal 3.857509e-01 9.226030e-01 -5.805140e-15
    outer loop
      vertex   2.117537e-02 4.680147e-02 8.000000e-03
      vertex   2.113021e-02 4.682035e-02 8.000000e-03
      vertex   2.117537e-02 4.680147e-02 9.333333e-03
    endloop
  endfacet
  facet normal 3.857509e-01 9.226030e-01 -0.000000e+00
    outer loop
      vertex   2.117537e-02 4.680147e-02 9.333333e-03
      vertex   2.113021e-02 4.682035e-02 8.000000e-03
      vertex   2.117537e-02 4.680147e-02 1.066667e-02
    endloop
  endfacet
  facet normal 8.739041e-01 4.860985e-01 -9.777935e-15
    outer loop
      vertex   2.105291e-02 4.689569e-02 1.600000e-02
      vertex   2.105291e-02 4.689569e-02 1.500000e-02
      vertex   2.103506e-02 4.692778e-02 1.600000e-02
    endloop
  endfacet
  facet normal 8.739041e-01 4.860985e-01 0.000000e+00
    outer loop
      vertex   2.103506e-02 4.692778e-02 1.600000e-02
      vertex   2.105291e-02 4.689569e-02 1.500000e-02
      vertex   2.105291e-02 4.689569e-02 1.400000e-02
    endloop
  endfacet
  facet normal 8.739041e-01 4.860985e-01 0.000000e+00
    outer loop
      vertex   2.103506e-02 4.692778e-02 1.600000e-02
      vertex   2.105291e-02 4.689569e-02 1.400000e-02
      vertex   2.105291e-02 4.689569e-02 1.300000e-02
    endloop
  endfacet
  facet normal 8.103721e-01 5.859156e-01 -0.000000e+00
    outer loop
      vertex   2.105291e-02 4.689569e-02 1.300000e-02
      vertex   2.105291e-02 4.689569e-02 1.400000e-02
      vertex   2.107403e-02 4.686648e-02 1.400000e-02
    endloop
  endfacet
  facet normal 8.103721e-01 5.859156e-01 0.000000e+00
    outer loop
      vertex   2.105291e-02 4.689569e-02 1.300000e-02
      vertex   2.107403e-02 4.686648e-02 1.400000e-02
      vertex   2.107403e-02 4.686648e-02 1.300000e-02
    endloop
  endfacet
  facet normal 6.784225e-01 7.346720e-01 -0.000000e+00
    outer loop
      vertex   2.107403e-02 4.686648e-02 1.300000e-02
      vertex   2.107403e-02 4.686648e-02 1.400000e-02
      vertex   2.110053e-02 4.684201e-02 1.400000e-02
    endloop
  endfacet
  facet normal 6.784225e-01 7.346720e-01 0.000000e+00
    outer loop
      vertex   2.107403e-02 4.686648e-02 1.300000e-02
      vertex   2.110053e-02 4.684201e-02 1.400000e-02
      vertex   2.110053e-02 4.684201e-02 1.300000e-02
    endloop
  endfacet
  facet normal 5.894138e-01 8.078313e-01 -0.000000e+00
    outer loop
      vertex   2.110053e-02 4.684201e-02 1.300000e-02
      vertex   2.110053e-02 4.684201e-02 1.400000e-02
      vertex   2.113021e-02 4.682035e-02 1.600000e-02
    endloop
  endfacet
  facet normal 5.894138e-01 8.078313e-01 0.000000e+00
    outer loop
      vertex   2.110053e-02 4.684201e-02 1.300000e-02
      vertex   2.113021e-02 4.682035e-02 1.600000e-02
      vertex   2.110053e-02 4.684201e-02 1.200000e-02
    endloop
  endfacet
  facet normal 5.894138e-01 8.078313e-01 0.000000e+00
    outer loop
      vertex   2.110053e-02 4.684201e-02 1.200000e-02
      vertex   2.113021e-02 4.682035e-02 1.600000e-02
      vertex   2.113021e-02 4.682035e-02 8.000000e-03
    endloop
  endfacet
  facet normal 5.894138e-01 8.078313e-01 0.000000e+00
    outer loop
      vertex   2.110053e-02 4.684201e-02 1.200000e-02
      vertex   2.113021e-02 4.682035e-02 8.000000e-03
      vertex   2.110053e-02 4.684201e-02 1.100000e-02
    endloop
  endfacet
  facet normal 5.894138e-01 8.078313e-01 0.000000e+00
    outer loop
      vertex   2.110053e-02 4.684201e-02 1.100000e-02
      vertex   2.113021e-02 4.682035e-02 8.000000e-03
      vertex   2.110053e-02 4.684201e-02 1.000000e-02
    endloop
  endfacet
  facet normal 6.784225e-01 7.346720e-01 0.000000e+00
    outer loop
      vertex   2.110053e-02 4.684201e-02 1.100000e-02
      vertex   2.110053e-02 4.684201e-02 1.000000e-02
      vertex   2.107403e-02 4.686648e-02 1.000000e-02
    endloop
  endfacet
  facet normal 6.784225e-01 7.346720e-01 0.000000e+00
    outer loop
      vertex   2.107403e-02 4.686648e-02 1.000000e-02
      vertex   2.110053e-02 4.684201e-02 1.000000e-02
      vertex   2.107403e-02 4.686648e-02 9.000000e-03
    endloop
  endfacet
  facet normal 8.103721e-01 5.859156e-01 0.000000e+00
    outer loop
      vertex   2.107403e-02 4.686648e-02 1.000000e-02
      vertex   2.107403e-02 4.686648e-02 9.000000e-03
      vertex   2.105291e-02 4.689569e-02 9.000000e-03
    endloop
  endfacet
  facet normal 8.103721e-01 5.859156e-01 1.094276e-14
    outer loop
      vertex   2.105291e-02 4.689569e-02 9.000000e-03
      vertex   2.107403e-02 4.686648e-02 9.000000e-03
      vertex   2.105291e-02 4.689569e-02 8.000000e-03
    endloop
  endfacet
  facet normal 8.739041e-01 4.860985e-01 9.777935e-15
    outer loop
      vertex   2.105291e-02 4.689569e-02 9.000000e-03
      vertex   2.105291e-02 4.689569e-02 8.000000e-03
      vertex   2.103506e-02 4.692778e-02 8.000000e-03
    endloop
  endfacet
  facet normal 8.103721e-01 5.859156e-01 -1.094276e-14
    outer loop
      vertex   2.105291e-02 4.689569e-02 1.600000e-02
      vertex   2.107403e-02 4.686648e-02 1.600000e-02
      vertex   2.105291e-02 4.689569e-02 1.500000e-02
    endloop
  endfacet
  facet normal 8.103721e-01 5.859156e-01 0.000000e+00
    outer loop
      vertex   2.105291e-02 4.689569e-02 1.500000e-02
      vertex   2.107403e-02 4.686648e-02 1.600000e-02
      vertex   2.107403e-02 4.686648e-02 1.500000e-02
    endloop
  endfacet
  facet normal 8.103721e-01 5.859156e-01 0.000000e+00
    outer loop
      vertex   2.105291e-02 4.689569e-02 1.500000e-02
      vertex   2.107403e-02 4.686648e-02 1.500000e-02
      vertex   2.105291e-02 4.689569e-02 1.400000e-02
    endloop
  endfacet
  facet normal 8.103721e-01 5.859156e-01 0.000000e+00
    outer loop
      vertex   2.105291e-02 4.689569e-02 1.400000e-02
      vertex   2.107403e-02 4.686648e-02 1.500000e-02
      vertex   2.107403e-02 4.686648e-02 1.400000e-02
    endloop
  endfacet
  facet normal 6.784225e-01 7.346720e-01 0.000000e+00
    outer loop
      vertex   2.107403e-02 4.686648e-02 1.600000e-02
      vertex   2.110053e-02 4.684201e-02 1.600000e-02
      vertex   2.107403e-02 4.686648e-02 1.500000e-02
    endloop
  endfacet
  facet normal 6.784225e-01 7.346720e-01 -4.707193e-15
    outer loop
      vertex   2.107403e-02 4.686648e-02 1.500000e-02
      vertex   2.110053e-02 4.684201e-02 1.600000e-02
      vertex   2.110053e-02 4.684201e-02 1.500000e-02
    endloop
  endfacet
  facet normal 6.784225e-01 7.346720e-01 0.000000e+00
    outer loop
      vertex   2.107403e-02 4.686648e-02 1.500000e-02
      vertex   2.110053e-02 4.684201e-02 1.500000e-02
      vertex   2.107403e-02 4.686648e-02 1.400000e-02
    endloop
  endfacet
  facet normal 6.784225e-01 7.346720e-01 0.000000e+00
    outer loop
      vertex   2.107403e-02 4.686648e-02 1.400000e-02
      vertex   2.110053e-02 4.684201e-02 1.500000e-02
      vertex   2.110053e-02 4.684201e-02 1.400000e-02
    endloop
  endfacet
  facet normal 5.894138e-01 8.078313e-01 -4.089880e-15
    outer loop
      vertex   2.110053e-02 4.684201e-02 1.600000e-02
      vertex   2.113021e-02 4.682035e-02 1.600000e-02
      vertex   2.110053e-02 4.684201e-02 1.500000e-02
    endloop
  endfacet
  facet normal 5.894138e-01 8.078313e-01 0.000000e+00
    outer loop
      vertex   2.110053e-02 4.684201e-02 1.500000e-02
      vertex   2.113021e-02 4.682035e-02 1.600000e-02
      vertex   2.110053e-02 4.684201e-02 1.400000e-02
    endloop
  endfacet
  facet normal 5.894138e-01 8.078313e-01 0.000000e+00
    outer loop
      vertex   2.110053e-02 4.684201e-02 1.000000e-02
      vertex   2.113021e-02 4.682035e-02 8.000000e-03
      vertex   2.110053e-02 4.684201e-02 9.000000e-03
    endloop
  endfacet
  facet normal 5.894138e-01 8.078313e-01 4.089880e-15
    outer loop
      vertex   2.110053e-02 4.684201e-02 9.000000e-03
      vertex   2.113021e-02 4.682035e-02 8.000000e-03
      vertex   2.110053e-02 4.684201e-02 8.000000e-03
    endloop
  endfacet
  facet normal 6.784225e-01 7.346720e-01 4.707502e-15
    outer loop
      vertex   2.110053e-02 4.684201e-02 9.000000e-03
      vertex   2.110053e-02 4.684201e-02 8.000000e-03
      vertex   2.107403e-02 4.686648e-02 8.000000e-03
    endloop
  endfacet
  facet normal 6.784225e-01 7.346720e-01 0.000000e+00
    outer loop
      vertex   2.110053e-02 4.684201e-02 9.000000e-03
      vertex   2.107403e-02 4.686648e-02 8.000000e-03
      vertex   2.107403e-02 4.686648e-02 9.000000e-03
    endloop
  endfacet
  facet normal 8.103721e-01 5.859156e-01 0.000000e+00
    outer loop
      vertex   2.107403e-02 4.686648e-02 9.000000e-03
      vertex   2.107403e-02 4.686648e-02 8.000000e-03
      vertex   2.105291e-02 4.689569e-02 8.000000e-03
    endloop
  endfacet
  facet normal 8.739041e-01 4.860985e-01 0.000000e+00
    outer loop
      vertex   2.103506e-02 4.692778e-02 1.600000e-02
      vertex   2.105291e-02 4.689569e-02 1.200000e-02
      vertex   2.103506e-02 4.692778e-02 8.000000e-03
    endloop
  endfacet
  facet normal 8.739041e-01 4.860985e-01 0.000000e+00
    outer loop
      vertex   2.103506e-02 4.692778e-02 8.000000e-03
      vertex   2.105291e-02 4.689569e-02 1.200000e-02
      vertex   2.105291e-02 4.689569e-02 1.100000e-02
    endloop
  endfacet
  facet normal 8.739041e-01 4.860985e-01 0.000000e+00
    outer loop
      vertex   2.103506e-02 4.692778e-02 8.000000e-03
      vertex   2.105291e-02 4.689569e-02 1.100000e-02
      vertex   2.105291e-02 4.689569e-02 1.000000e-02
    endloop
  endfacet
  facet normal 8.103721e-01 5.859156e-01 -0.000000e+00
    outer loop
      vertex   2.105291e-02 4.689569e-02 1.000000e-02
      vertex   2.105291e-02 4.689569e-02 1.100000e-02
      vertex   2.107403e-02 4.686648e-02 1.100000e-02
    endloop
  endfacet
  facet normal 8.103721e-01 5.859156e-01 0.000000e+00
    outer loop
      vertex   2.105291e-02 4.689569e-02 1.000000e-02
      vertex   2.107403e-02 4.686648e-02 1.100000e-02
      vertex   2.107403e-02 4.686648e-02 1.000000e-02
    endloop
  endfacet
  facet normal 6.784225e-01 7.346720e-01 -0.000000e+00
    outer loop
      vertex   2.107403e-02 4.686648e-02 1.000000e-02
      vertex   2.107403e-02 4.686648e-02 1.100000e-02
      vertex   2.110053e-02 4.684201e-02 1.100000e-02
    endloop
  endfacet
  facet normal 6.784225e-01 7.346720e-01 0.000000e+00
    outer loop
      vertex   2.107403e-02 4.686648e-02 9.000000e-03
      vertex   2.110053e-02 4.684201e-02 1.000000e-02
      vertex   2.110053e-02 4.684201e-02 9.000000e-03
    endloop
  endfacet
  facet normal 8.739041e-01 4.860985e-01 -0.000000e+00
    outer loop
      vertex   2.105291e-02 4.689569e-02 1.200000e-02
      vertex   2.103506e-02 4.692778e-02 1.600000e-02
      vertex   2.105291e-02 4.689569e-02 1.300000e-02
    endloop
  endfacet
  facet normal 8.103721e-01 5.859156e-01 0.000000e+00
    outer loop
      vertex   2.105291e-02 4.689569e-02 1.000000e-02
      vertex   2.107403e-02 4.686648e-02 1.000000e-02
      vertex   2.105291e-02 4.689569e-02 9.000000e-03
    endloop
  endfacet
  facet normal 8.103721e-01 5.859156e-01 -0.000000e+00
    outer loop
      vertex   2.105291e-02 4.689569e-02 1.200000e-02
      vertex   2.105291e-02 4.689569e-02 1.300000e-02
      vertex   2.107403e-02 4.686648e-02 1.300000e-02
    endloop
  endfacet
  facet normal 6.784225e-01 7.346720e-01 0.000000e+00
    outer loop
      vertex   2.107403e-02 4.686648e-02 1.300000e-02
      vertex   2.110053e-02 4.684201e-02 1.300000e-02
      vertex   2.107403e-02 4.686648e-02 1.200000e-02
    endloop
  endfacet
  facet normal 6.784225e-01 7.346720e-01 0.000000e+00
    outer loop
      vertex   2.107403e-02 4.686648e-02 1.200000e-02
      vertex   2.110053e-02 4.684201e-02 1.300000e-02
      vertex   2.110053e-02 4.684201e-02 1.200000e-02
    endloop
  endfacet
  facet normal 6.784225e-01 7.346720e-01 0.000000e+00
    outer loop
      vertex   2.107403e-02 4.686648e-02 1.200000e-02
      vertex   2.110053e-02 4.684201e-02 1.200000e-02
      vertex   2.107403e-02 4.686648e-02 1.100000e-02
    endloop
  endfacet
  facet normal 6.784225e-01 7.346720e-01 0.000000e+00
    outer loop
      vertex   2.107403e-02 4.686648e-02 1.100000e-02
      vertex   2.110053e-02 4.684201e-02 1.200000e-02
      vertex   2.110053e-02 4.684201e-02 1.100000e-02
    endloop
  endfacet
  facet normal 8.739041e-01 4.860985e-01 -0.000000e+00
    outer loop
      vertex   2.105291e-02 4.689569e-02 9.000000e-03
      vertex   2.103506e-02 4.692778e-02 8.000000e-03
      vertex   2.105291e-02 4.689569e-02 1.000000e-02
    endloop
  endfacet
  facet normal 8.103721e-01 5.859156e-01 -0.000000e+00
    outer loop
      vertex   2.105291e-02 4.689569e-02 1.100000e-02
      vertex   2.105291e-02 4.689569e-02 1.200000e-02
      vertex   2.107403e-02 4.686648e-02 1.200000e-02
    endloop
  endfacet
  facet normal 8.103721e-01 5.859156e-01 -0.000000e+00
    outer loop
      vertex   2.107403e-02 4.686648e-02 1.200000e-02
      vertex   2.105291e-02 4.689569e-02 1.200000e-02
      vertex   2.107403e-02 4.686648e-02 1.300000e-02
    endloop
  endfacet
  facet normal 8.103721e-01 5.859156e-01 0.000000e+00
    outer loop
      vertex   2.105291e-02 4.689569e-02 1.100000e-02
      vertex   2.107403e-02 4.686648e-02 1.200000e-02
      vertex   2.107403e-02 4.686648e-02 1.100000e-02
    endloop
  endfacet
  facet normal 9.999885e-01 -4.791942e-03 1.734704e-15
    outer loop
      vertex   2.100553e-02 4.715480e-02 1.600000e-02
      vertex   2.100553e-02 4.715480e-02 1.400000e-02
      vertex   2.100589e-02 4.723167e-02 1.600000e-02
    endloop
  endfacet
  facet normal 9.999885e-01 -4.791942e-03 0.000000e+00
    outer loop
      vertex   2.100589e-02 4.723167e-02 1.600000e-02
      vertex   2.100553e-02 4.715480e-02 1.400000e-02
      vertex   2.100553e-02 4.715480e-02 1.200000e-02
    endloop
  endfacet
  facet normal 9.999885e-01 -4.791942e-03 0.000000e+00
    outer loop
      vertex   2.100589e-02 4.723167e-02 1.600000e-02
      vertex   2.100553e-02 4.715480e-02 1.200000e-02
      vertex   2.100589e-02 4.723167e-02 8.000000e-03
    endloop
  endfacet
  facet normal 9.999885e-01 -4.791942e-03 0.000000e+00
    outer loop
      vertex   2.100589e-02 4.723167e-02 8.000000e-03
      vertex   2.100553e-02 4.715480e-02 1.200000e-02
      vertex   2.100553e-02 4.715480e-02 1.000000e-02
    endloop
  endfacet
  facet normal 9.999885e-01 -4.791942e-03 -1.734703e-15
    outer loop
      vertex   2.100589e-02 4.723167e-02 8.000000e-03
      vertex   2.100553e-02 4.715480e-02 1.000000e-02
      vertex   2.100553e-02 4.715480e-02 8.000000e-03
    endloop
  endfacet
  facet normal 9.991230e-01 4.187129e-02 -1.733202e-15
    outer loop
      vertex   2.100553e-02 4.715480e-02 8.000000e-03
      vertex   2.100553e-02 4.715480e-02 1.000000e-02
      vertex   2.100873e-02 4.707835e-02 1.000000e-02
    endloop
  endfacet
  facet normal 9.991230e-01 4.187129e-02 0.000000e+00
    outer loop
      vertex   2.100553e-02 4.715480e-02 8.000000e-03
      vertex   2.100873e-02 4.707835e-02 1.000000e-02
      vertex   2.100873e-02 4.707835e-02 8.000000e-03
    endloop
  endfacet
  facet normal 9.910483e-01 1.335041e-01 -0.000000e+00
    outer loop
      vertex   2.100873e-02 4.707835e-02 8.000000e-03
      vertex   2.100873e-02 4.707835e-02 1.000000e-02
      vertex   2.101892e-02 4.700272e-02 1.000000e-02
    endloop
  endfacet
  facet normal 9.910483e-01 1.335041e-01 0.000000e+00
    outer loop
      vertex   2.100873e-02 4.707835e-02 8.000000e-03
      vertex   2.101892e-02 4.700272e-02 1.000000e-02
      vertex   2.101892e-02 4.700272e-02 8.000000e-03
    endloop
  endfacet
  facet normal 9.775869e-01 2.105323e-01 -0.000000e+00
    outer loop
      vertex   2.101892e-02 4.700272e-02 8.000000e-03
      vertex   2.101892e-02 4.700272e-02 1.000000e-02
      vertex   2.103506e-02 4.692778e-02 8.000000e-03
    endloop
  endfacet
  facet normal 9.775869e-01 2.105323e-01 0.000000e+00
    outer loop
      vertex   2.103506e-02 4.692778e-02 8.000000e-03
      vertex   2.101892e-02 4.700272e-02 1.000000e-02
      vertex   2.101892e-02 4.700272e-02 1.200000e-02
    endloop
  endfacet
  facet normal 9.775869e-01 2.105323e-01 -0.000000e+00
    outer loop
      vertex   2.103506e-02 4.692778e-02 8.000000e-03
      vertex   2.101892e-02 4.700272e-02 1.200000e-02
      vertex   2.103506e-02 4.692778e-02 1.600000e-02
    endloop
  endfacet
  facet normal 9.775869e-01 2.105323e-01 0.000000e+00
    outer loop
      vertex   2.103506e-02 4.692778e-02 1.600000e-02
      vertex   2.101892e-02 4.700272e-02 1.200000e-02
      vertex   2.101892e-02 4.700272e-02 1.400000e-02
    endloop
  endfacet
  facet normal 9.775869e-01 2.105323e-01 0.000000e+00
    outer loop
      vertex   2.103506e-02 4.692778e-02 1.600000e-02
      vertex   2.101892e-02 4.700272e-02 1.400000e-02
      vertex   2.101892e-02 4.700272e-02 1.600000e-02
    endloop
  endfacet
  facet normal 9.910483e-01 1.335041e-01 0.000000e+00
    outer loop
      vertex   2.101892e-02 4.700272e-02 1.600000e-02
      vertex   2.101892e-02 4.700272e-02 1.400000e-02
      vertex   2.100873e-02 4.707835e-02 1.400000e-02
    endloop
  endfacet
  facet normal 9.910483e-01 1.335041e-01 0.000000e+00
    outer loop
      vertex   2.101892e-02 4.700272e-02 1.600000e-02
      vertex   2.100873e-02 4.707835e-02 1.400000e-02
      vertex   2.100873e-02 4.707835e-02 1.600000e-02
    endloop
  endfacet
  facet normal 9.991230e-01 4.187129e-02 0.000000e+00
    outer loop
      vertex   2.100873e-02 4.707835e-02 1.600000e-02
      vertex   2.100873e-02 4.707835e-02 1.400000e-02
      vertex   2.100553e-02 4.715480e-02 1.400000e-02
    endloop
  endfacet
  facet normal 9.991230e-01 4.187129e-02 1.732977e-15
    outer loop
      vertex   2.100873e-02 4.707835e-02 1.600000e-02
      vertex   2.100553e-02 4.715480e-02 1.400000e-02
      vertex   2.100553e-02 4.715480e-02 1.600000e-02
    endloop
  endfacet
  facet normal 9.991230e-01 4.187129e-02 -0.000000e+00
    outer loop
      vertex   2.100553e-02 4.715480e-02 1.200000e-02
      vertex   2.100553e-02 4.715480e-02 1.400000e-02
      vertex   2.100873e-02 4.707835e-02 1.400000e-02
    endloop
  endfacet
  facet normal 9.910483e-01 1.335041e-01 0.000000e+00
    outer loop
      vertex   2.100873e-02 4.707835e-02 1.400000e-02
      vertex   2.101892e-02 4.700272e-02 1.400000e-02
      vertex   2.100873e-02 4.707835e-02 1.200000e-02
    endloop
  endfacet
  facet normal 9.910483e-01 1.335041e-01 0.000000e+00
    outer loop
      vertex   2.100873e-02 4.707835e-02 1.200000e-02
      vertex   2.101892e-02 4.700272e-02 1.400000e-02
      vertex   2.101892e-02 4.700272e-02 1.200000e-02
    endloop
  endfacet
  facet normal 9.910483e-01 1.335041e-01 0.000000e+00
    outer loop
      vertex   2.100873e-02 4.707835e-02 1.200000e-02
      vertex   2.101892e-02 4.700272e-02 1.200000e-02
      vertex   2.100873e-02 4.707835e-02 1.000000e-02
    endloop
  endfacet
  facet normal 9.910483e-01 1.335041e-01 0.000000e+00
    outer loop
      vertex   2.100873e-02 4.707835e-02 1.000000e-02
      vertex   2.101892e-02 4.700272e-02 1.200000e-02
      vertex   2.101892e-02 4.700272e-02 1.000000e-02
    endloop
  endfacet
  facet normal 9.991230e-01 4.187129e-02 0.000000e+00
    outer loop
      vertex   2.100873e-02 4.707835e-02 1.200000e-02
      vertex   2.100873e-02 4.707835e-02 1.000000e-02
      vertex   2.100553e-02 4.715480e-02 1.000000e-02
    endloop
  endfacet
  facet normal 9.991230e-01 4.187129e-02 -0.000000e+00
    outer loop
      vertex   2.100553e-02 4.715480e-02 1.000000e-02
      vertex   2.100553e-02 4.715480e-02 1.200000e-02
      vertex   2.100873e-02 4.707835e-02 1.200000e-02
    endloop
  endfacet
  facet normal 9.991230e-01 4.187129e-02 -0.000000e+00
    outer loop
      vertex   2.100873e-02 4.707835e-02 1.200000e-02
      vertex   2.100553e-02 4.715480e-02 1.200000e-02
      vertex   2.100873e-02 4.707835e-02 1.400000e-02
    endloop
  endfacet
  facet normal 1.000000e+00 0.000000e+00 0.000000e+00
    outer loop
      vertex   2.100589e-02 4.913788e-02 1.600000e-02
      vertex   2.100589e-02 4.723167e-02 1.600000e-02
      vertex   2.100589e-02 4.913788e-02 8.000000e-03
    endloop
  endfacet
  facet normal 1.000000e+00 0.000000e+00 0.000000e+00
    outer loop
      vertex   2.100589e-02 4.913788e-02 8.000000e-03
      vertex   2.100589e-02 4.723167e-02 1.600000e-02
      vertex   2.100589e-02 4.723167e-02 8.000000e-03
    endloop
  endfacet
  facet normal -0.000000e+00 -1.000000e+00 -0.000000e+00
    outer loop
      vertex   2.156149e-02 4.913788e-02 1.600000e-02
      vertex   2.100589e-02 4.913788e-02 1.600000e-02
      vertex   2.156149e-02 4.913788e-02 8.000000e-03
    endloop
  endfacet
  facet normal 0.000000e+00 -1.000000e+00 0.000000e+00
    outer loop
      vertex   2.156149e-02 4.913788e-02 8.000000e-03
      vertex   2.100589e-02 4.913788e-02 1.600000e-02
      vertex   2.100589e-02 4.913788e-02 8.000000e-03
    endloop
  endfacet
  facet normal 1.000000e+00 0.000000e+00 0.000000e+00
    outer loop
      vertex   2.156149e-02 4.956762e-02 1.600000e-02
      vertex   2.156149e-02 4.913788e-02 1.600000e-02
      vertex   2.156149e-02 4.956762e-02 8.000000e-03
    endloop
  endfacet
  facet normal 1.000000e+00 0.000000e+00 0.000000e+00
    outer loop
      vertex   2.156149e-02 4.956762e-02 8.000000e-03
      vertex   2.156149e-02 4.913788e-02 1.600000e-02
      vertex   2.156149e-02 4.913788e-02 8.000000e-03
    endloop
  endfacet
  facet normal -0.000000e+00 1.000000e+00 0.000000e+00
    outer loop
      vertex   2.100589e-02 4.956762e-02 1.600000e-02
      vertex   2.156149e-02 4.956762e-02 1.600000e-02
      vertex   2.100589e-02 4.956762e-02 8.000000e-03
    endloop
  endfacet
  facet normal 0.000000e+00 1.000000e+00 0.000000e+00
    outer loop
      vertex   2.100589e-02 4.956762e-02 8.000000e-03
      vertex   2.156149e-02 4.956762e-02 1.600000e-02
      vertex   2.156149e-02 4.956762e-02 8.000000e-03
    endloop
  endfacet
  facet normal 1.000000e+00 0.000000e+00 0.000000e+00
    outer loop
      vertex   2.100589e-02 5.070643e-02 1.600000e-02
      vertex   2.100589e-02 4.956762e-02 1.600000e-02
      vertex   2.100589e-02 5.070643e-02 8.000000e-03
    endloop
  endfacet
  facet normal 1.000000e+00 0.000000e+00 0.000000e+00
    outer loop
      vertex   2.100589e-02 5.070643e-02 8.000000e-03
      vertex   2.100589e-02 4.956762e-02 1.600000e-02
      vertex   2.100589e-02 4.956762e-02 8.000000e-03
    endloop
  endfacet
  facet normal -5.166044e-01 8.562242e-01 0.000000e+00
    outer loop
      vertex   2.045644e-02 5.037492e-02 1.600000e-02
      vertex   2.100589e-02 5.070643e-02 1.600000e-02
      vertex   2.045644e-02 5.037492e-02 8.000000e-03
    endloop
  endfacet
  facet normal -5.166044e-01 8.562242e-01 0.000000e+00
    outer loop
      vertex   2.045644e-02 5.037492e-02 8.000000e-03
      vertex   2.100589e-02 5.070643e-02 1.600000e-02
      vertex   2.100589e-02 5.070643e-02 8.000000e-03
    endloop
  endfacet
  facet normal -1.000000e+00 0.000000e+00 0.000000e+00
    outer loop
      vertex   2.045644e-02 4.956762e-02 1.600000e-02
      vertex   2.045644e-02 5.037492e-02 1.600000e-02
      vertex   2.045644e-02 4.956762e-02 8.000000e-03
    endloop
  endfacet
  facet normal -1.000000e+00 0.000000e+00 0.000000e+00
    outer loop
      vertex   2.045644e-02 4.956762e-02 8.000000e-03
      vertex   2.045644e-02 5.037492e-02 1.600000e-02
      vertex   2.045644e-02 5.037492e-02 8.000000e-03
    endloop
  endfacet
  facet normal -0.000000e+00 1.000000e+00 0.000000e+00
    outer loop
      vertex   2.005126e-02 4.956762e-02 1.600000e-02
      vertex   2.045644e-02 4.956762e-02 1.600000e-02
      vertex   2.005126e-02 4.956762e-02 8.000000e-03
    endloop
  endfacet
  facet normal 0.000000e+00 1.000000e+00 0.000000e+00
    outer loop
      vertex   2.005126e-02 4.956762e-02 8.000000e-03
      vertex   2.045644e-02 4.956762e-02 1.600000e-02
      vertex   2.045644e-02 4.956762e-02 8.000000e-03
    endloop
  endfacet
  facet normal -1.000000e+00 0.000000e+00 0.000000e+00
    outer loop
      vertex   2.005126e-02 4.913788e-02 1.600000e-02
      vertex   2.005126e-02 4.956762e-02 1.600000e-02
      vertex   2.005126e-02 4.913788e-02 8.000000e-03
    endloop
  endfacet
  facet normal -1.000000e+00 0.000000e+00 0.000000e+00
    outer loop
      vertex   2.005126e-02 4.913788e-02 8.000000e-03
      vertex   2.005126e-02 4.956762e-02 1.600000e-02
      vertex   2.005126e-02 4.956762e-02 8.000000e-03
    endloop
  endfacet
  facet normal -0.000000e+00 -1.000000e+00 -0.000000e+00
    outer loop
      vertex   2.045644e-02 4.913788e-02 1.600000e-02
      vertex   2.005126e-02 4.913788e-02 1.600000e-02
      vertex   2.045644e-02 4.913788e-02 8.000000e-03
    endloop
  endfacet
  facet normal 0.000000e+00 -1.000000e+00 0.000000e+00
    outer loop
      vertex   2.045644e-02 4.913788e-02 8.000000e-03
      vertex   2.005126e-02 4.913788e-02 1.600000e-02
      vertex   2.005126e-02 4.913788e-02 8.000000e-03
    endloop
  endfacet
  facet normal -1.000000e+00 0.000000e+00 0.000000e+00
    outer loop
      vertex   2.045644e-02 4.726237e-02 1.600000e-02
      vertex   2.045644e-02 4.913788e-02 1.600000e-02
      vertex   2.045644e-02 4.726237e-02 8.000000e-03
    endloop
  endfacet
  facet normal -1.000000e+00 0.000000e+00 0.000000e+00
    outer loop
      vertex   2.045644e-02 4.726237e-02 8.000000e-03
      vertex   2.045644e-02 4.913788e-02 1.600000e-02
      vertex   2.045644e-02 4.913788e-02 8.000000e-03
    endloop
  endfacet
  facet normal -9.748877e-01 -2.226970e-01 0.000000e+00
    outer loop
      vertex   2.052397e-02 4.661008e-02 8.000000e-03
      vertex   2.052397e-02 4.661008e-02 1.600000e-02
      vertex   2.048728e-02 4.677068e-02 1.200000e-02
    endloop
  endfacet
  facet normal -9.748877e-01 -2.226970e-01 -3.863177e-16
    outer loop
      vertex   2.048728e-02 4.677068e-02 1.200000e-02
      vertex   2.052397e-02 4.661008e-02 1.600000e-02
      vertex   2.048728e-02 4.677068e-02 1.600000e-02
    endloop
  endfacet
  facet normal -9.896432e-01 -1.435489e-01 -2.490176e-16
    outer loop
      vertex   2.048728e-02 4.677068e-02 1.200000e-02
      vertex   2.048728e-02 4.677068e-02 1.600000e-02
      vertex   2.046375e-02 4.693292e-02 1.600000e-02
    endloop
  endfacet
  facet normal -9.896432e-01 -1.435489e-01 8.577642e-16
    outer loop
      vertex   2.048728e-02 4.677068e-02 1.200000e-02
      vertex   2.046375e-02 4.693292e-02 1.600000e-02
      vertex   2.046375e-02 4.693292e-02 1.200000e-02
    endloop
  endfacet
  facet normal -9.988971e-01 -4.695398e-02 8.664051e-16
    outer loop
      vertex   2.046375e-02 4.693292e-02 1.200000e-02
      vertex   2.046375e-02 4.693292e-02 1.600000e-02
      vertex   2.045603e-02 4.709714e-02 1.600000e-02
    endloop
  endfacet
  facet normal -9.988971e-01 -4.695398e-02 1.732759e-15
    outer loop
      vertex   2.046375e-02 4.693292e-02 1.200000e-02
      vertex   2.045603e-02 4.709714e-02 1.600000e-02
      vertex   2.045603e-02 4.709714e-02 1.200000e-02
    endloop
  endfacet
  facet normal -9.999970e-01 2.465886e-03 1.734718e-15
    outer loop
      vertex   2.045603e-02 4.709714e-02 1.200000e-02
      vertex   2.045603e-02 4.709714e-02 1.600000e-02
      vertex   2.045644e-02 4.726237e-02 1.600000e-02
    endloop
  endfacet
  facet normal -9.999970e-01 2.465886e-03 0.000000e+00
    outer loop
      vertex   2.045603e-02 4.709714e-02 1.200000e-02
      vertex   2.045644e-02 4.726237e-02 1.600000e-02
      vertex   2.045644e-02 4.726237e-02 8.000000e-03
    endloop
  endfacet
  facet normal -9.999970e-01 2.465886e-03 -1.734709e-15
    outer loop
      vertex   2.045644e-02 4.726237e-02 8.000000e-03
      vertex   2.045603e-02 4.709714e-02 8.000000e-03
      vertex   2.045603e-02 4.709714e-02 1.200000e-02
    endloop
  endfacet
  facet normal -9.988971e-01 -4.695398e-02 -1.732810e-15
    outer loop
      vertex   2.045603e-02 4.709714e-02 1.200000e-02
      vertex   2.045603e-02 4.709714e-02 8.000000e-03
      vertex   2.046375e-02 4.693292e-02 8.000000e-03
    endloop
  endfacet
  facet normal -9.988971e-01 -4.695398e-02 -8.663793e-16
    outer loop
      vertex   2.045603e-02 4.709714e-02 1.200000e-02
      vertex   2.046375e-02 4.693292e-02 8.000000e-03
      vertex   2.046375e-02 4.693292e-02 1.200000e-02
    endloop
  endfacet
  facet normal -9.896432e-01 -1.435489e-01 -8.583787e-16
    outer loop
      vertex   2.046375e-02 4.693292e-02 1.200000e-02
      vertex   2.046375e-02 4.693292e-02 8.000000e-03
      vertex   2.048728e-02 4.677068e-02 8.000000e-03
    endloop
  endfacet
  facet normal -9.896432e-01 -1.435489e-01 2.484993e-16
    outer loop
      vertex   2.046375e-02 4.693292e-02 1.200000e-02
      vertex   2.048728e-02 4.677068e-02 8.000000e-03
      vertex   2.048728e-02 4.677068e-02 1.200000e-02
    endloop
  endfacet
  facet normal -9.748877e-01 -2.226970e-01 3.863177e-16
    outer loop
      vertex   2.048728e-02 4.677068e-02 1.200000e-02
      vertex   2.048728e-02 4.677068e-02 8.000000e-03
      vertex   2.052397e-02 4.661008e-02 8.000000e-03
    endloop
  endfacet
  facet normal -5.643320e-01 -8.255479e-01 -2.882366e-15
    outer loop
      vertex   2.068482e-02 4.640943e-02 1.600000e-02
      vertex   2.068482e-02 4.640943e-02 1.333333e-02
      vertex   2.075726e-02 4.635991e-02 1.600000e-02
    endloop
  endfacet
  facet normal -5.643320e-01 -8.255479e-01 0.000000e+00
    outer loop
      vertex   2.075726e-02 4.635991e-02 1.600000e-02
      vertex   2.068482e-02 4.640943e-02 1.333333e-02
      vertex   2.068482e-02 4.640943e-02 1.066667e-02
    endloop
  endfacet
  facet normal -5.643320e-01 -8.255479e-01 -0.000000e+00
    outer loop
      vertex   2.075726e-02 4.635991e-02 1.600000e-02
      vertex   2.068482e-02 4.640943e-02 1.066667e-02
      vertex   2.075726e-02 4.635991e-02 8.000000e-03
    endloop
  endfacet
  facet normal -5.643320e-01 -8.255479e-01 2.882794e-15
    outer loop
      vertex   2.075726e-02 4.635991e-02 8.000000e-03
      vertex   2.068482e-02 4.640943e-02 1.066667e-02
      vertex   2.068482e-02 4.640943e-02 8.000000e-03
    endloop
  endfacet
  facet normal -6.562394e-01 -7.545527e-01 2.817206e-15
    outer loop
      vertex   2.068482e-02 4.640943e-02 8.000000e-03
      vertex   2.068482e-02 4.640943e-02 1.066667e-02
      vertex   2.061990e-02 4.646589e-02 1.066667e-02
    endloop
  endfacet
  facet normal -6.562394e-01 -7.545527e-01 -1.108677e-15
    outer loop
      vertex   2.068482e-02 4.640943e-02 8.000000e-03
      vertex   2.061990e-02 4.646589e-02 1.066667e-02
      vertex   2.061990e-02 4.646589e-02 8.000000e-03
    endloop
  endfacet
  facet normal -7.961228e-01 -6.051351e-01 -5.388235e-16
    outer loop
      vertex   2.061990e-02 4.646589e-02 8.000000e-03
      vertex   2.061990e-02 4.646589e-02 1.066667e-02
      vertex   2.056792e-02 4.653428e-02 1.066667e-02
    endloop
  endfacet
  facet normal -7.961228e-01 -6.051351e-01 0.000000e+00
    outer loop
      vertex   2.061990e-02 4.646589e-02 8.000000e-03
      vertex   2.056792e-02 4.653428e-02 1.066667e-02
      vertex   2.056792e-02 4.653428e-02 8.000000e-03
    endloop
  endfacet
  facet normal -8.651263e-01 -5.015541e-01 0.000000e+00
    outer loop
      vertex   2.056792e-02 4.653428e-02 8.000000e-03
      vertex   2.056792e-02 4.653428e-02 1.066667e-02
      vertex   2.052397e-02 4.661008e-02 8.000000e-03
    endloop
  endfacet
  facet normal -8.651263e-01 -5.015541e-01 0.000000e+00
    outer loop
      vertex   2.052397e-02 4.661008e-02 8.000000e-03
      vertex   2.056792e-02 4.653428e-02 1.066667e-02
      vertex   2.056792e-02 4.653428e-02 1.333333e-02
    endloop
  endfacet
  facet normal -8.651263e-01 -5.015541e-01 0.000000e+00
    outer loop
      vertex   2.052397e-02 4.661008e-02 8.000000e-03
      vertex   2.056792e-02 4.653428e-02 1.333333e-02
      vertex   2.052397e-02 4.661008e-02 1.600000e-02
    endloop
  endfacet
  facet normal -8.651263e-01 -5.015541e-01 0.000000e+00
    outer loop
      vertex   2.052397e-02 4.661008e-02 1.600000e-02
      vertex   2.056792e-02 4.653428e-02 1.333333e-02
      vertex   2.056792e-02 4.653428e-02 1.600000e-02
    endloop
  endfacet
  facet normal -7.961228e-01 -6.051351e-01 -0.000000e+00
    outer loop
      vertex   2.056792e-02 4.653428e-02 1.600000e-02
      vertex   2.056792e-02 4.653428e-02 1.333333e-02
      vertex   2.061990e-02 4.646589e-02 1.333333e-02
    endloop
  endfacet
  facet normal -7.961228e-01 -6.051351e-01 5.380320e-16
    outer loop
      vertex   2.056792e-02 4.653428e-02 1.600000e-02
      vertex   2.061990e-02 4.646589e-02 1.333333e-02
      vertex   2.061990e-02 4.646589e-02 1.600000e-02
    endloop
  endfacet
  facet normal -6.562394e-01 -7.545527e-01 1.109615e-15
    outer loop
      vertex   2.061990e-02 4.646589e-02 1.600000e-02
      vertex   2.061990e-02 4.646589e-02 1.333333e-02
      vertex   2.068482e-02 4.640943e-02 1.333333e-02
    endloop
  endfacet
  facet normal -6.562394e-01 -7.545527e-01 -2.817661e-15
    outer loop
      vertex   2.061990e-02 4.646589e-02 1.600000e-02
      vertex   2.068482e-02 4.640943e-02 1.333333e-02
      vertex   2.068482e-02 4.640943e-02 1.600000e-02
    endloop
  endfacet
  facet normal -6.562394e-01 -7.545527e-01 0.000000e+00
    outer loop
      vertex   2.068482e-02 4.640943e-02 1.066667e-02
      vertex   2.068482e-02 4.640943e-02 1.333333e-02
      vertex   2.061990e-02 4.646589e-02 1.333333e-02
    endloop
  endfacet
  facet normal -7.961228e-01 -6.051351e-01 0.000000e+00
    outer loop
      vertex   2.056792e-02 4.653428e-02 1.066667e-02
      vertex   2.061990e-02 4.646589e-02 1.066667e-02
      vertex   2.056792e-02 4.653428e-02 1.333333e-02
    endloop
  endfacet
  facet normal -7.961228e-01 -6.051351e-01 0.000000e+00
    outer loop
      vertex   2.056792e-02 4.653428e-02 1.333333e-02
      vertex   2.061990e-02 4.646589e-02 1.066667e-02
      vertex   2.061990e-02 4.646589e-02 1.333333e-02
    endloop
  endfacet
  facet normal -6.562394e-01 -7.545527e-01 0.000000e+00
    outer loop
      vertex   2.061990e-02 4.646589e-02 1.066667e-02
      vertex   2.068482e-02 4.640943e-02 1.066667e-02
      vertex   2.061990e-02 4.646589e-02 1.333333e-02
    endloop
  endfacet
  facet normal -3.303788e-02 -9.994541e-01 0.000000e+00
    outer loop
      vertex   2.122383e-02 4.626476e-02 8.000000e-03
      vertex   2.122383e-02 4.626476e-02 1.600000e-02
      vertex   2.110284e-02 4.626875e-02 1.200000e-02
    endloop
  endfacet
  facet normal -3.303788e-02 -9.994541e-01 2.865579e-17
    outer loop
      vertex   2.110284e-02 4.626875e-02 1.200000e-02
      vertex   2.122383e-02 4.626476e-02 1.600000e-02
      vertex   2.110284e-02 4.626875e-02 1.600000e-02
    endloop
  endfacet
  facet normal -1.169795e-01 -9.931343e-01 1.014635e-16
    outer loop
      vertex   2.110284e-02 4.626875e-02 1.200000e-02
      vertex   2.110284e-02 4.626875e-02 1.600000e-02
      vertex   2.098405e-02 4.628275e-02 1.600000e-02
    endloop
  endfacet
  facet normal -1.169795e-01 -9.931343e-01 1.824334e-15
    outer loop
      vertex   2.110284e-02 4.626875e-02 1.200000e-02
      vertex   2.098405e-02 4.628275e-02 1.600000e-02
      vertex   2.098405e-02 4.628275e-02 1.200000e-02
    endloop
  endfacet
  facet normal -2.707715e-01 -9.626437e-01 1.904777e-15
    outer loop
      vertex   2.098405e-02 4.628275e-02 1.200000e-02
      vertex   2.098405e-02 4.628275e-02 1.600000e-02
      vertex   2.086927e-02 4.631503e-02 1.600000e-02
    endloop
  endfacet
  facet normal -2.707715e-01 -9.626437e-01 0.000000e+00
    outer loop
      vertex   2.098405e-02 4.628275e-02 1.200000e-02
      vertex   2.086927e-02 4.631503e-02 1.600000e-02
      vertex   2.086927e-02 4.631503e-02 1.200000e-02
    endloop
  endfacet
  facet normal -3.719290e-01 -9.282612e-01 0.000000e+00
    outer loop
      vertex   2.086927e-02 4.631503e-02 1.200000e-02
      vertex   2.086927e-02 4.631503e-02 1.600000e-02
      vertex   2.075726e-02 4.635991e-02 1.600000e-02
    endloop
  endfacet
  facet normal -3.719290e-01 -9.282612e-01 0.000000e+00
    outer loop
      vertex   2.086927e-02 4.631503e-02 1.200000e-02
      vertex   2.075726e-02 4.635991e-02 1.600000e-02
      vertex   2.075726e-02 4.635991e-02 8.000000e-03
    endloop
  endfacet
  facet normal -3.719290e-01 -9.282612e-01 0.000000e+00
    outer loop
      vertex   2.075726e-02 4.635991e-02 8.000000e-03
      vertex   2.086927e-02 4.631503e-02 8.000000e-03
      vertex   2.086927e-02 4.631503e-02 1.200000e-02
    endloop
  endfacet
  facet normal -2.707715e-01 -9.626437e-01 -0.000000e+00
    outer loop
      vertex   2.086927e-02 4.631503e-02 1.200000e-02
      vertex   2.086927e-02 4.631503e-02 8.000000e-03
      vertex   2.098405e-02 4.628275e-02 8.000000e-03
    endloop
  endfacet
  facet normal -2.707715e-01 -9.626437e-01 -1.905226e-15
    outer loop
      vertex   2.086927e-02 4.631503e-02 1.200000e-02
      vertex   2.098405e-02 4.628275e-02 8.000000e-03
      vertex   2.098405e-02 4.628275e-02 1.200000e-02
    endloop
  endfacet
  facet normal -1.169795e-01 -9.931343e-01 -1.824277e-15
    outer loop
      vertex   2.098405e-02 4.628275e-02 1.200000e-02
      vertex   2.098405e-02 4.628275e-02 8.000000e-03
      vertex   2.110284e-02 4.626875e-02 8.000000e-03
    endloop
  endfacet
  facet normal -1.169795e-01 -9.931343e-01 -1.015680e-16
    outer loop
      vertex   2.098405e-02 4.628275e-02 1.200000e-02
      vertex   2.110284e-02 4.626875e-02 8.000000e-03
      vertex   2.110284e-02 4.626875e-02 1.200000e-02
    endloop
  endfacet
  facet normal -3.303788e-02 -9.994541e-01 -2.865579e-17
    outer loop
      vertex   2.110284e-02 4.626875e-02 1.200000e-02
      vertex   2.110284e-02 4.626875e-02 8.000000e-03
      vertex   2.122383e-02 4.626476e-02 8.000000e-03
    endloop
  endfacet
  facet normal 1.853210e-01 -9.826780e-01 0.000000e+00
    outer loop
      vertex   2.153776e-02 4.629434e-02 1.600000e-02
      vertex   2.153776e-02 4.629434e-02 1.333333e-02
      vertex   2.164130e-02 4.631387e-02 1.600000e-02
    endloop
  endfacet
  facet normal 1.853210e-01 -9.826780e-01 0.000000e+00
    outer loop
      vertex   2.164130e-02 4.631387e-02 1.600000e-02
      vertex   2.153776e-02 4.629434e-02 1.333333e-02
      vertex   2.153776e-02 4.629434e-02 1.066667e-02
    endloop
  endfacet
  facet normal 1.853210e-01 -9.826780e-01 0.000000e+00
    outer loop
      vertex   2.164130e-02 4.631387e-02 1.600000e-02
      vertex   2.153776e-02 4.629434e-02 1.066667e-02
      vertex   2.164130e-02 4.631387e-02 8.000000e-03
    endloop
  endfacet
  facet normal 1.853210e-01 -9.826780e-01 0.000000e+00
    outer loop
      vertex   2.164130e-02 4.631387e-02 8.000000e-03
      vertex   2.153776e-02 4.629434e-02 1.066667e-02
      vertex   2.153776e-02 4.629434e-02 8.000000e-03
    endloop
  endfacet
  facet normal 1.497296e-01 -9.887270e-01 0.000000e+00
    outer loop
      vertex   2.153776e-02 4.629434e-02 8.000000e-03
      vertex   2.153776e-02 4.629434e-02 1.066667e-02
      vertex   2.143379e-02 4.627860e-02 1.066667e-02
    endloop
  endfacet
  facet normal 1.497296e-01 -9.887270e-01 0.000000e+00
    outer loop
      vertex   2.153776e-02 4.629434e-02 8.000000e-03
      vertex   2.143379e-02 4.627860e-02 1.066667e-02
      vertex   2.143379e-02 4.627860e-02 8.000000e-03
    endloop
  endfacet
  facet normal 8.629785e-02 -9.962694e-01 0.000000e+00
    outer loop
      vertex   2.143379e-02 4.627860e-02 8.000000e-03
      vertex   2.143379e-02 4.627860e-02 1.066667e-02
      vertex   2.132906e-02 4.626953e-02 1.066667e-02
    endloop
  endfacet
  facet normal 8.629785e-02 -9.962694e-01 2.480084e-15
    outer loop
      vertex   2.143379e-02 4.627860e-02 8.000000e-03
      vertex   2.132906e-02 4.626953e-02 1.066667e-02
      vertex   2.132906e-02 4.626953e-02 8.000000e-03
    endloop
  endfacet
  facet normal 4.529450e-02 -9.989737e-01 2.540485e-15
    outer loop
      vertex   2.132906e-02 4.626953e-02 8.000000e-03
      vertex   2.132906e-02 4.626953e-02 1.066667e-02
      vertex   2.122383e-02 4.626476e-02 8.000000e-03
    endloop
  endfacet
  facet normal 4.529450e-02 -9.989737e-01 0.000000e+00
    outer loop
      vertex   2.122383e-02 4.626476e-02 8.000000e-03
      vertex   2.132906e-02 4.626953e-02 1.066667e-02
      vertex   2.132906e-02 4.626953e-02 1.333333e-02
    endloop
  endfacet
  facet normal 4.529450e-02 -9.989737e-01 0.000000e+00
    outer loop
      vertex   2.122383e-02 4.626476e-02 8.000000e-03
      vertex   2.132906e-02 4.626953e-02 1.333333e-02
      vertex   2.122383e-02 4.626476e-02 1.600000e-02
    endloop
  endfacet
  facet normal 4.529450e-02 -9.989737e-01 -2.540356e-15
    outer loop
      vertex   2.122383e-02 4.626476e-02 1.600000e-02
      vertex   2.132906e-02 4.626953e-02 1.333333e-02
      vertex   2.132906e-02 4.626953e-02 1.600000e-02
    endloop
  endfacet
  facet normal 8.629785e-02 -9.962694e-01 -2.480101e-15
    outer loop
      vertex   2.132906e-02 4.626953e-02 1.600000e-02
      vertex   2.132906e-02 4.626953e-02 1.333333e-02
      vertex   2.143379e-02 4.627860e-02 1.333333e-02
    endloop
  endfacet
  facet normal 8.629785e-02 -9.962694e-01 0.000000e+00
    outer loop
      vertex   2.132906e-02 4.626953e-02 1.600000e-02
      vertex   2.143379e-02 4.627860e-02 1.333333e-02
      vertex   2.143379e-02 4.627860e-02 1.600000e-02
    endloop
  endfacet
  facet normal 1.497296e-01 -9.887270e-01 0.000000e+00
    outer loop
      vertex   2.143379e-02 4.627860e-02 1.600000e-02
      vertex   2.143379e-02 4.627860e-02 1.333333e-02
      vertex   2.153776e-02 4.629434e-02 1.333333e-02
    endloop
  endfacet
  facet normal 1.497296e-01 -9.887270e-01 0.000000e+00
    outer loop
      vertex   2.143379e-02 4.627860e-02 1.600000e-02
      vertex   2.153776e-02 4.629434e-02 1.333333e-02
      vertex   2.153776e-02 4.629434e-02 1.600000e-02
    endloop
  endfacet
  facet normal 1.497296e-01 -9.887270e-01 0.000000e+00
    outer loop
      vertex   2.153776e-02 4.629434e-02 1.066667e-02
      vertex   2.153776e-02 4.629434e-02 1.333333e-02
      vertex   2.143379e-02 4.627860e-02 1.333333e-02
    endloop
  endfacet
  facet normal 8.629785e-02 -9.962694e-01 0.000000e+00
    outer loop
      vertex   2.132906e-02 4.626953e-02 1.066667e-02
      vertex   2.143379e-02 4.627860e-02 1.066667e-02
      vertex   2.132906e-02 4.626953e-02 1.333333e-02
    endloop
  endfacet
  facet normal 8.629785e-02 -9.962694e-01 0.000000e+00
    outer loop
      vertex   2.132906e-02 4.626953e-02 1.333333e-02
      vertex   2.143379e-02 4.627860e-02 1.066667e-02
      vertex   2.143379e-02 4.627860e-02 1.333333e-02
    endloop
  endfacet
  facet normal 1.497296e-01 -9.887270e-01 0.000000e+00
    outer loop
      vertex   2.143379e-02 4.627860e-02 1.066667e-02
      vertex   2.153776e-02 4.629434e-02 1.066667e-02
      vertex   2.143379e-02 4.627860e-02 1.333333e-02
    endloop
  endfacet
  facet normal 9.868924e-01 1.613796e-01 0.000000e+00
    outer loop
      vertex   2.156149e-02 4.680193e-02 1.600000e-02
      vertex   2.164130e-02 4.631387e-02 1.600000e-02
      vertex   2.156149e-02 4.680193e-02 8.000000e-03
    endloop
  endfacet
  facet normal 9.868924e-01 1.613796e-01 0.000000e+00
    outer loop
      vertex   2.156149e-02 4.680193e-02 8.000000e-03
      vertex   2.164130e-02 4.631387e-02 1.600000e-02
      vertex   2.164130e-02 4.631387e-02 8.000000e-03
    endloop
  endfacet
  facet normal -4.028712e-02 9.991881e-01 -4.158570e-15
    outer loop
      vertex   2.137986e-02 4.678290e-02 1.600000e-02
      vertex   2.137986e-02 4.678290e-02 1.440000e-02
      vertex   2.131899e-02 4.678044e-02 1.600000e-02
    endloop
  endfacet
  facet normal -4.028712e-02 9.991881e-01 0.000000e+00
    outer loop
      vertex   2.131899e-02 4.678044e-02 1.600000e-02
      vertex   2.137986e-02 4.678290e-02 1.440000e-02
      vertex   2.137986e-02 4.678290e-02 1.280000e-02
    endloop
  endfacet
  facet normal -4.028712e-02 9.991881e-01 0.000000e+00
    outer loop
      vertex   2.131899e-02 4.678044e-02 1.600000e-02
      vertex   2.137986e-02 4.678290e-02 1.280000e-02
      vertex   2.137986e-02 4.678290e-02 1.120000e-02
    endloop
  endfacet
  facet normal -6.908215e-02 9.976110e-01 0.000000e+00
    outer loop
      vertex   2.137986e-02 4.678290e-02 1.120000e-02
      vertex   2.137986e-02 4.678290e-02 1.280000e-02
      vertex   2.144058e-02 4.678710e-02 1.280000e-02
    endloop
  endfacet
  facet normal -6.908215e-02 9.976110e-01 0.000000e+00
    outer loop
      vertex   2.137986e-02 4.678290e-02 1.120000e-02
      vertex   2.144058e-02 4.678710e-02 1.280000e-02
      vertex   2.144058e-02 4.678710e-02 1.120000e-02
    endloop
  endfacet
  facet normal -1.104969e-01 9.938765e-01 0.000000e+00
    outer loop
      vertex   2.144058e-02 4.678710e-02 1.120000e-02
      vertex   2.144058e-02 4.678710e-02 1.280000e-02
      vertex   2.150109e-02 4.679383e-02 1.280000e-02
    endloop
  endfacet
  facet normal -1.104969e-01 9.938765e-01 0.000000e+00
    outer loop
      vertex   2.144058e-02 4.678710e-02 1.120000e-02
      vertex   2.150109e-02 4.679383e-02 1.280000e-02
      vertex   2.150109e-02 4.679383e-02 1.120000e-02
    endloop
  endfacet
  facet normal -1.329351e-01 9.911247e-01 0.000000e+00
    outer loop
      vertex   2.150109e-02 4.679383e-02 1.120000e-02
      vertex   2.150109e-02 4.679383e-02 1.280000e-02
      vertex   2.156149e-02 4.680193e-02 8.000000e-03
    endloop
  endfacet
  facet normal -1.329351e-01 9.911247e-01 0.000000e+00
    outer loop
      vertex   2.150109e-02 4.679383e-02 1.120000e-02
      vertex   2.156149e-02 4.680193e-02 8.000000e-03
      vertex   2.150109e-02 4.679383e-02 9.600000e-03
    endloop
  endfacet
  facet normal -1.329351e-01 9.911247e-01 8.020123e-15
    outer loop
      vertex   2.150109e-02 4.679383e-02 9.600000e-03
      vertex   2.156149e-02 4.680193e-02 8.000000e-03
      vertex   2.150109e-02 4.679383e-02 8.000000e-03
    endloop
  endfacet
  facet normal -1.104969e-01 9.938765e-01 8.141300e-15
    outer loop
      vertex   2.150109e-02 4.679383e-02 9.600000e-03
      vertex   2.150109e-02 4.679383e-02 8.000000e-03
      vertex   2.144058e-02 4.678710e-02 8.000000e-03
    endloop
  endfacet
  facet normal -6.908215e-02 9.976110e-01 -4.026852e-15
    outer loop
      vertex   2.137986e-02 4.678290e-02 1.600000e-02
      vertex   2.144058e-02 4.678710e-02 1.600000e-02
      vertex   2.137986e-02 4.678290e-02 1.440000e-02
    endloop
  endfacet
  facet normal -6.908215e-02 9.976110e-01 1.496993e-16
    outer loop
      vertex   2.137986e-02 4.678290e-02 1.440000e-02
      vertex   2.144058e-02 4.678710e-02 1.600000e-02
      vertex   2.144058e-02 4.678710e-02 1.440000e-02
    endloop
  endfacet
  facet normal -6.908215e-02 9.976110e-01 0.000000e+00
    outer loop
      vertex   2.137986e-02 4.678290e-02 1.440000e-02
      vertex   2.144058e-02 4.678710e-02 1.440000e-02
      vertex   2.137986e-02 4.678290e-02 1.280000e-02
    endloop
  endfacet
  facet normal -6.908215e-02 9.976110e-01 0.000000e+00
    outer loop
      vertex   2.137986e-02 4.678290e-02 1.280000e-02
      vertex   2.144058e-02 4.678710e-02 1.440000e-02
      vertex   2.144058e-02 4.678710e-02 1.280000e-02
    endloop
  endfacet
  facet normal -1.104969e-01 9.938765e-01 2.396020e-16
    outer loop
      vertex   2.144058e-02 4.678710e-02 1.600000e-02
      vertex   2.150109e-02 4.679383e-02 1.600000e-02
      vertex   2.144058e-02 4.678710e-02 1.440000e-02
    endloop
  endfacet
  facet normal -1.104969e-01 9.938765e-01 -8.141280e-15
    outer loop
      vertex   2.144058e-02 4.678710e-02 1.440000e-02
      vertex   2.150109e-02 4.679383e-02 1.600000e-02
      vertex   2.150109e-02 4.679383e-02 1.440000e-02
    endloop
  endfacet
  facet normal -1.104969e-01 9.938765e-01 0.000000e+00
    outer loop
      vertex   2.144058e-02 4.678710e-02 1.440000e-02
      vertex   2.150109e-02 4.679383e-02 1.440000e-02
      vertex   2.144058e-02 4.678710e-02 1.280000e-02
    endloop
  endfacet
  facet normal -1.104969e-01 9.938765e-01 0.000000e+00
    outer loop
      vertex   2.144058e-02 4.678710e-02 1.280000e-02
      vertex   2.150109e-02 4.679383e-02 1.440000e-02
      vertex   2.150109e-02 4.679383e-02 1.280000e-02
    endloop
  endfacet
  facet normal -1.329351e-01 9.911247e-01 -8.020123e-15
    outer loop
      vertex   2.150109e-02 4.679383e-02 1.600000e-02
      vertex   2.156149e-02 4.680193e-02 1.600000e-02
      vertex   2.150109e-02 4.679383e-02 1.440000e-02
    endloop
  endfacet
  facet normal -1.329351e-01 9.911247e-01 0.000000e+00
    outer loop
      vertex   2.150109e-02 4.679383e-02 1.440000e-02
      vertex   2.156149e-02 4.680193e-02 1.600000e-02
      vertex   2.150109e-02 4.679383e-02 1.280000e-02
    endloop
  endfacet
  facet normal -1.329351e-01 9.911247e-01 0.000000e+00
    outer loop
      vertex   2.156149e-02 4.680193e-02 1.600000e-02
      vertex   2.156149e-02 4.680193e-02 8.000000e-03
      vertex   2.150109e-02 4.679383e-02 1.280000e-02
    endloop
  endfacet
  facet normal -1.104969e-01 9.938765e-01 -2.398865e-16
    outer loop
      vertex   2.150109e-02 4.679383e-02 9.600000e-03
      vertex   2.144058e-02 4.678710e-02 8.000000e-03
      vertex   2.144058e-02 4.678710e-02 9.600000e-03
    endloop
  endfacet
  facet normal -6.908215e-02 9.976110e-01 -1.497980e-16
    outer loop
      vertex   2.144058e-02 4.678710e-02 9.600000e-03
      vertex   2.144058e-02 4.678710e-02 8.000000e-03
      vertex   2.137986e-02 4.678290e-02 8.000000e-03
    endloop
  endfacet
  facet normal -6.908215e-02 9.976110e-01 4.026487e-15
    outer loop
      vertex   2.144058e-02 4.678710e-02 9.600000e-03
      vertex   2.137986e-02 4.678290e-02 8.000000e-03
      vertex   2.137986e-02 4.678290e-02 9.600000e-03
    endloop
  endfacet
  facet normal -4.028712e-02 9.991881e-01 4.158570e-15
    outer loop
      vertex   2.137986e-02 4.678290e-02 9.600000e-03
      vertex   2.137986e-02 4.678290e-02 8.000000e-03
      vertex   2.131899e-02 4.678044e-02 8.000000e-03
    endloop
  endfacet
  facet normal -4.028712e-02 9.991881e-01 0.000000e+00
    outer loop
      vertex   2.137986e-02 4.678290e-02 9.600000e-03
      vertex   2.131899e-02 4.678044e-02 8.000000e-03
      vertex   2.137986e-02 4.678290e-02 1.120000e-02
    endloop
  endfacet
  facet normal -4.028712e-02 9.991881e-01 0.000000e+00
    outer loop
      vertex   2.137986e-02 4.678290e-02 1.120000e-02
      vertex   2.131899e-02 4.678044e-02 8.000000e-03
      vertex   2.131899e-02 4.678044e-02 1.600000e-02
    endloop
  endfacet
  facet normal -1.104969e-01 9.938765e-01 0.000000e+00
    outer loop
      vertex   2.150109e-02 4.679383e-02 1.120000e-02
      vertex   2.150109e-02 4.679383e-02 9.600000e-03
      vertex   2.144058e-02 4.678710e-02 9.600000e-03
    endloop
  endfacet
  facet normal -6.908215e-02 9.976110e-01 0.000000e+00
    outer loop
      vertex   2.137986e-02 4.678290e-02 1.120000e-02
      vertex   2.144058e-02 4.678710e-02 1.120000e-02
      vertex   2.137986e-02 4.678290e-02 9.600000e-03
    endloop
  endfacet
  facet normal -6.908215e-02 9.976110e-01 0.000000e+00
    outer loop
      vertex   2.137986e-02 4.678290e-02 9.600000e-03
      vertex   2.144058e-02 4.678710e-02 1.120000e-02
      vertex   2.144058e-02 4.678710e-02 9.600000e-03
    endloop
  endfacet
  facet normal -1.104969e-01 9.938765e-01 0.000000e+00
    outer loop
      vertex   2.144058e-02 4.678710e-02 1.120000e-02
      vertex   2.150109e-02 4.679383e-02 1.120000e-02
      vertex   2.144058e-02 4.678710e-02 9.600000e-03
    endloop
  endfacet
  facet normal 0.000000e+00 0.000000e+00 1.000000e+00
    outer loop
      vertex   2.164130e-02 4.631387e-02 1.600000e-02
      vertex   2.156149e-02 4.680193e-02 1.600000e-02
      vertex   2.153776e-02 4.629434e-02 1.600000e-02
    endloop
  endfacet
  facet normal 1.156189e-13 -5.404782e-15 1.000000e+00
    outer loop
      vertex   2.153776e-02 4.629434e-02 1.600000e-02
      vertex   2.156149e-02 4.680193e-02 1.600000e-02
      vertex   2.150109e-02 4.679383e-02 1.600000e-02
    endloop
  endfacet
  facet normal 2.080632e-15 -1.373928e-14 1.000000e+00
    outer loop
      vertex   2.153776e-02 4.629434e-02 1.600000e-02
      vertex   2.150109e-02 4.679383e-02 1.600000e-02
      vertex   2.143379e-02 4.627860e-02 1.600000e-02
    endloop
  endfacet
  facet normal -1.148445e-13 1.534375e-15 1.000000e+00
    outer loop
      vertex   2.143379e-02 4.627860e-02 1.600000e-02
      vertex   2.150109e-02 4.679383e-02 1.600000e-02
      vertex   2.144058e-02 4.678710e-02 1.600000e-02
    endloop
  endfacet
  facet normal 0.000000e+00 -0.000000e+00 1.000000e+00
    outer loop
      vertex   2.143379e-02 4.627860e-02 1.600000e-02
      vertex   2.144058e-02 4.678710e-02 1.600000e-02
      vertex   2.137986e-02 4.678290e-02 1.600000e-02
    endloop
  endfacet
  facet normal 0.000000e+00 0.000000e+00 1.000000e+00
    outer loop
      vertex   2.143379e-02 4.627860e-02 1.600000e-02
      vertex   2.137986e-02 4.678290e-02 1.600000e-02
      vertex   2.132906e-02 4.626953e-02 1.600000e-02
    endloop
  endfacet
  facet normal 0.000000e+00 -0.000000e+00 1.000000e+00
    outer loop
      vertex   2.132906e-02 4.626953e-02 1.600000e-02
      vertex   2.137986e-02 4.678290e-02 1.600000e-02
      vertex   2.131899e-02 4.678044e-02 1.600000e-02
    endloop
  endfacet
  facet normal 0.000000e+00 0.000000e+00 1.000000e+00
    outer loop
      vertex   2.132906e-02 4.626953e-02 1.600000e-02
      vertex   2.131899e-02 4.678044e-02 1.600000e-02
      vertex   2.126989e-02 4.678208e-02 1.600000e-02
    endloop
  endfacet
  facet normal 0.000000e+00 0.000000e+00 1.000000e+00
    outer loop
      vertex   2.132906e-02 4.626953e-02 1.600000e-02
      vertex   2.126989e-02 4.678208e-02 1.600000e-02
      vertex   2.122383e-02 4.626476e-02 1.600000e-02
    endloop
  endfacet
  facet normal 0.000000e+00 -0.000000e+00 1.000000e+00
    outer loop
      vertex   2.122383e-02 4.626476e-02 1.600000e-02
      vertex   2.126989e-02 4.678208e-02 1.600000e-02
      vertex   2.122175e-02 4.678792e-02 1.600000e-02
    endloop
  endfacet
  facet normal 0.000000e+00 0.000000e+00 1.000000e+00
    outer loop
      vertex   2.122383e-02 4.626476e-02 1.600000e-02
      vertex   2.122175e-02 4.678792e-02 1.600000e-02
      vertex   2.117537e-02 4.680147e-02 1.600000e-02
    endloop
  endfacet
  facet normal 0.000000e+00 0.000000e+00 1.000000e+00
    outer loop
      vertex   2.122383e-02 4.626476e-02 1.600000e-02
      vertex   2.117537e-02 4.680147e-02 1.600000e-02
      vertex   2.110284e-02 4.626875e-02 1.600000e-02
    endloop
  endfacet
  facet normal 0.000000e+00 0.000000e+00 1.000000e+00
    outer loop
      vertex   2.110284e-02 4.626875e-02 1.600000e-02
      vertex   2.117537e-02 4.680147e-02 1.600000e-02
      vertex   2.113021e-02 4.682035e-02 1.600000e-02
    endloop
  endfacet
  facet normal 0.000000e+00 -0.000000e+00 1.000000e+00
    outer loop
      vertex   2.110284e-02 4.626875e-02 1.600000e-02
      vertex   2.113021e-02 4.682035e-02 1.600000e-02
      vertex   2.110053e-02 4.684201e-02 1.600000e-02
    endloop
  endfacet
  facet normal 1.314223e-13 5.311451e-16 1.000000e+00
    outer loop
      vertex   2.110053e-02 4.684201e-02 1.600000e-02
      vertex   2.107403e-02 4.686648e-02 1.600000e-02
      vertex   2.110284e-02 4.626875e-02 1.600000e-02
    endloop
  endfacet
  facet normal 2.868443e-14 -4.421634e-15 1.000000e+00
    outer loop
      vertex   2.110284e-02 4.626875e-02 1.600000e-02
      vertex   2.107403e-02 4.686648e-02 1.600000e-02
      vertex   2.098405e-02 4.628275e-02 1.600000e-02
    endloop
  endfacet
  facet normal -1.353978e-13 2.087123e-14 1.000000e+00
    outer loop
      vertex   2.098405e-02 4.628275e-02 1.600000e-02
      vertex   2.107403e-02 4.686648e-02 1.600000e-02
      vertex   2.105291e-02 4.689569e-02 1.600000e-02
    endloop
  endfacet
  facet normal 8.466185e-15 4.709212e-15 1.000000e+00
    outer loop
      vertex   2.098405e-02 4.628275e-02 1.600000e-02
      vertex   2.105291e-02 4.689569e-02 1.600000e-02
      vertex   2.103506e-02 4.692778e-02 1.600000e-02
    endloop
  endfacet
  facet normal -2.808971e-14 7.599890e-15 1.000000e+00
    outer loop
      vertex   2.098405e-02 4.628275e-02 1.600000e-02
      vertex   2.103506e-02 4.692778e-02 1.600000e-02
      vertex   2.086927e-02 4.631503e-02 1.600000e-02
    endloop
  endfacet
  facet normal 0.000000e+00 0.000000e+00 1.000000e+00
    outer loop
      vertex   2.086927e-02 4.631503e-02 1.600000e-02
      vertex   2.103506e-02 4.692778e-02 1.600000e-02
      vertex   2.101892e-02 4.700272e-02 1.600000e-02
    endloop
  endfacet
  facet normal 0.000000e+00 -0.000000e+00 1.000000e+00
    outer loop
      vertex   2.086927e-02 4.631503e-02 1.600000e-02
      vertex   2.101892e-02 4.700272e-02 1.600000e-02
      vertex   2.075726e-02 4.635991e-02 1.600000e-02
    endloop
  endfacet
  facet normal 8.467289e-14 -3.446701e-14 1.000000e+00
    outer loop
      vertex   2.075726e-02 4.635991e-02 1.600000e-02
      vertex   2.101892e-02 4.700272e-02 1.600000e-02
      vertex   2.100873e-02 4.707835e-02 1.600000e-02
    endloop
  endfacet
  facet normal -2.663782e-15 -3.896783e-15 1.000000e+00
    outer loop
      vertex   2.075726e-02 4.635991e-02 1.600000e-02
      vertex   2.100873e-02 4.707835e-02 1.600000e-02
      vertex   2.068482e-02 4.640943e-02 1.600000e-02
    endloop
  endfacet
  facet normal -9.610839e-14 4.135247e-14 1.000000e+00
    outer loop
      vertex   2.068482e-02 4.640943e-02 1.600000e-02
      vertex   2.100873e-02 4.707835e-02 1.600000e-02
      vertex   2.100553e-02 4.715480e-02 1.600000e-02
    endloop
  endfacet
  facet normal 3.889076e-14 -1.673349e-14 1.000000e+00
    outer loop
      vertex   2.068482e-02 4.640943e-02 1.600000e-02
      vertex   2.100553e-02 4.715480e-02 1.600000e-02
      vertex   2.061990e-02 4.646589e-02 1.600000e-02
    endloop
  endfacet
  facet normal -5.614514e-16 5.350432e-15 1.000000e+00
    outer loop
      vertex   2.061990e-02 4.646589e-02 1.600000e-02
      vertex   2.100553e-02 4.715480e-02 1.600000e-02
      vertex   2.045603e-02 4.709714e-02 1.600000e-02
    endloop
  endfacet
  facet normal -9.037692e-14 -1.796510e-14 1.000000e+00
    outer loop
      vertex   2.061990e-02 4.646589e-02 1.600000e-02
      vertex   2.045603e-02 4.709714e-02 1.600000e-02
      vertex   2.056792e-02 4.653428e-02 1.600000e-02
    endloop
  endfacet
  facet normal 0.000000e+00 0.000000e+00 1.000000e+00
    outer loop
      vertex   2.056792e-02 4.653428e-02 1.600000e-02
      vertex   2.045603e-02 4.709714e-02 1.600000e-02
      vertex   2.046375e-02 4.693292e-02 1.600000e-02
    endloop
  endfacet
  facet normal 0.000000e+00 0.000000e+00 1.000000e+00
    outer loop
      vertex   2.056792e-02 4.653428e-02 1.600000e-02
      vertex   2.046375e-02 4.693292e-02 1.600000e-02
      vertex   2.048728e-02 4.677068e-02 1.600000e-02
    endloop
  endfacet
  facet normal 0.000000e+00 0.000000e+00 1.000000e+00
    outer loop
      vertex   2.045603e-02 4.709714e-02 1.600000e-02
      vertex   2.100553e-02 4.715480e-02 1.600000e-02
      vertex   2.045644e-02 4.726237e-02 1.600000e-02
    endloop
  endfacet
  facet normal 0.000000e+00 0.000000e+00 1.000000e+00
    outer loop
      vertex   2.045644e-02 4.726237e-02 1.600000e-02
      vertex   2.100553e-02 4.715480e-02 1.600000e-02
      vertex   2.100589e-02 4.723167e-02 1.600000e-02
    endloop
  endfacet
  facet normal -0.000000e+00 0.000000e+00 1.000000e+00
    outer loop
      vertex   2.045644e-02 4.726237e-02 1.600000e-02
      vertex   2.100589e-02 4.723167e-02 1.600000e-02
      vertex   2.100589e-02 4.913788e-02 1.600000e-02
    endloop
  endfacet
  facet normal 0.000000e+00 0.000000e+00 1.000000e+00
    outer loop
      vertex   2.156149e-02 4.913788e-02 1.600000e-02
      vertex   2.100589e-02 4.956762e-02 1.600000e-02
      vertex   2.100589e-02 4.913788e-02 1.600000e-02
    endloop
  endfacet
  facet normal 0.000000e+00 -0.000000e+00 1.000000e+00
    outer loop
      vertex   2.100589e-02 4.913788e-02 1.600000e-02
      vertex   2.100589e-02 4.956762e-02 1.600000e-02
      vertex   2.045644e-02 4.956762e-02 1.600000e-02
    endloop
  endfacet
  facet normal 0.000000e+00 0.000000e+00 1.000000e+00
    outer loop
      vertex   2.100589e-02 4.913788e-02 1.600000e-02
      vertex   2.045644e-02 4.956762e-02 1.600000e-02
      vertex   2.045644e-02 4.913788e-02 1.600000e-02
    endloop
  endfacet
  facet normal 0.000000e+00 -0.000000e+00 1.000000e+00
    outer loop
      vertex   2.045644e-02 4.913788e-02 1.600000e-02
      vertex   2.045644e-02 4.956762e-02 1.600000e-02
      vertex   2.005126e-02 4.956762e-02 1.600000e-02
    endloop
  endfacet
  facet normal 0.000000e+00 0.000000e+00 1.000000e+00
    outer loop
      vertex   2.045644e-02 4.913788e-02 1.600000e-02
      vertex   2.005126e-02 4.956762e-02 1.600000e-02
      vertex   2.005126e-02 4.913788e-02 1.600000e-02
    endloop
  endfacet
  facet normal 0.000000e+00 -0.000000e+00 1.000000e+00
    outer loop
      vertex   2.156149e-02 4.913788e-02 1.600000e-02
      vertex   2.156149e-02 4.956762e-02 1.600000e-02
      vertex   2.100589e-02 4.956762e-02 1.600000e-02
    endloop
  endfacet
  facet normal 0.000000e+00 0.000000e+00 1.000000e+00
    outer loop
      vertex   2.100589e-02 5.070643e-02 1.600000e-02
      vertex   2.045644e-02 5.037492e-02 1.600000e-02
      vertex   2.100589e-02 4.956762e-02 1.600000e-02
    endloop
  endfacet
  facet normal 0.000000e+00 0.000000e+00 1.000000e+00
    outer loop
      vertex   2.100589e-02 4.956762e-02 1.600000e-02
      vertex   2.045644e-02 5.037492e-02 1.600000e-02
      vertex   2.045644e-02 4.956762e-02 1.600000e-02
    endloop
  endfacet
  facet normal -0.000000e+00 0.000000e+00 1.000000e+00
    outer loop
      vertex   2.045644e-02 4.913788e-02 1.600000e-02
      vertex   2.045644e-02 4.726237e-02 1.600000e-02
      vertex   2.100589e-02 4.913788e-02 1.600000e-02
    endloop
  endfacet
  facet normal 0.000000e+00 0.000000e+00 1.000000e+00
    outer loop
      vertex   2.048728e-02 4.677068e-02 1.600000e-02
      vertex   2.052397e-02 4.661008e-02 1.600000e-02
      vertex   2.056792e-02 4.653428e-02 1.600000e-02
    endloop
  endfacet
  facet normal 0.000000e+00 0.000000e+00 -1.000000e+00
    outer loop
      vertex   2.126989e-02 4.678208e-02 8.000000e-03
      vertex   2.131899e-02 4.678044e-02 8.000000e-03
      vertex   2.132906e-02 4.626953e-02 8.000000e-03
    endloop
  endfacet
  facet normal 0.000000e+00 0.000000e+00 -1.000000e+00
    outer loop
      vertex   2.132906e-02 4.626953e-02 8.000000e-03
      vertex   2.131899e-02 4.678044e-02 8.000000e-03
      vertex   2.137986e-02 4.678290e-02 8.000000e-03
    endloop
  endfacet
  facet normal 0.000000e+00 0.000000e+00 -1.000000e+00
    outer loop
      vertex   2.132906e-02 4.626953e-02 8.000000e-03
      vertex   2.137986e-02 4.678290e-02 8.000000e-03
      vertex   2.143379e-02 4.627860e-02 8.000000e-03
    endloop
  endfacet
  facet normal 0.000000e+00 0.000000e+00 -1.000000e+00
    outer loop
      vertex   2.143379e-02 4.627860e-02 8.000000e-03
      vertex   2.137986e-02 4.678290e-02 8.000000e-03
      vertex   2.144058e-02 4.678710e-02 8.000000e-03
    endloop
  endfacet
  facet normal 5.742227e-14 -7.671875e-16 -1.000000e+00
    outer loop
      vertex   2.143379e-02 4.627860e-02 8.000000e-03
      vertex   2.144058e-02 4.678710e-02 8.000000e-03
      vertex   2.150109e-02 4.679383e-02 8.000000e-03
    endloop
  endfacet
  facet normal -1.040316e-15 6.869640e-15 -1.000000e+00
    outer loop
      vertex   2.143379e-02 4.627860e-02 8.000000e-03
      vertex   2.150109e-02 4.679383e-02 8.000000e-03
      vertex   2.153776e-02 4.629434e-02 8.000000e-03
    endloop
  endfacet
  facet normal -5.780946e-14 2.702391e-15 -1.000000e+00
    outer loop
      vertex   2.153776e-02 4.629434e-02 8.000000e-03
      vertex   2.150109e-02 4.679383e-02 8.000000e-03
      vertex   2.156149e-02 4.680193e-02 8.000000e-03
    endloop
  endfacet
  facet normal 0.000000e+00 0.000000e+00 -1.000000e+00
    outer loop
      vertex   2.153776e-02 4.629434e-02 8.000000e-03
      vertex   2.156149e-02 4.680193e-02 8.000000e-03
      vertex   2.164130e-02 4.631387e-02 8.000000e-03
    endloop
  endfacet
  facet normal -0.000000e+00 0.000000e+00 -1.000000e+00
    outer loop
      vertex   2.132906e-02 4.626953e-02 8.000000e-03
      vertex   2.122383e-02 4.626476e-02 8.000000e-03
      vertex   2.126989e-02 4.678208e-02 8.000000e-03
    endloop
  endfacet
  facet normal -0.000000e+00 0.000000e+00 -1.000000e+00
    outer loop
      vertex   2.126989e-02 4.678208e-02 8.000000e-03
      vertex   2.122383e-02 4.626476e-02 8.000000e-03
      vertex   2.122175e-02 4.678792e-02 8.000000e-03
    endloop
  endfacet
  facet normal -0.000000e+00 -0.000000e+00 -1.000000e+00
    outer loop
      vertex   2.122175e-02 4.678792e-02 8.000000e-03
      vertex   2.122383e-02 4.626476e-02 8.000000e-03
      vertex   2.117537e-02 4.680147e-02 8.000000e-03
    endloop
  endfacet
  facet normal 0.000000e+00 -0.000000e+00 -1.000000e+00
    outer loop
      vertex   2.117537e-02 4.680147e-02 8.000000e-03
      vertex   2.122383e-02 4.626476e-02 8.000000e-03
      vertex   2.110284e-02 4.626875e-02 8.000000e-03
    endloop
  endfacet
  facet normal -0.000000e+00 0.000000e+00 -1.000000e+00
    outer loop
      vertex   2.117537e-02 4.680147e-02 8.000000e-03
      vertex   2.110284e-02 4.626875e-02 8.000000e-03
      vertex   2.113021e-02 4.682035e-02 8.000000e-03
    endloop
  endfacet
  facet normal -0.000000e+00 0.000000e+00 -1.000000e+00
    outer loop
      vertex   2.113021e-02 4.682035e-02 8.000000e-03
      vertex   2.110284e-02 4.626875e-02 8.000000e-03
      vertex   2.110053e-02 4.684201e-02 8.000000e-03
    endloop
  endfacet
  facet normal -6.571115e-14 -2.655725e-16 -1.000000e+00
    outer loop
      vertex   2.110053e-02 4.684201e-02 8.000000e-03
      vertex   2.110284e-02 4.626875e-02 8.000000e-03
      vertex   2.107403e-02 4.686648e-02 8.000000e-03
    endloop
  endfacet
  facet normal -1.434221e-14 2.210817e-15 -1.000000e+00
    outer loop
      vertex   2.107403e-02 4.686648e-02 8.000000e-03
      vertex   2.110284e-02 4.626875e-02 8.000000e-03
      vertex   2.098405e-02 4.628275e-02 8.000000e-03
    endloop
  endfacet
  facet normal 6.769889e-14 -1.043562e-14 -1.000000e+00
    outer loop
      vertex   2.107403e-02 4.686648e-02 8.000000e-03
      vertex   2.098405e-02 4.628275e-02 8.000000e-03
      vertex   2.105291e-02 4.689569e-02 8.000000e-03
    endloop
  endfacet
  facet normal -4.233092e-15 -2.354606e-15 -1.000000e+00
    outer loop
      vertex   2.105291e-02 4.689569e-02 8.000000e-03
      vertex   2.098405e-02 4.628275e-02 8.000000e-03
      vertex   2.103506e-02 4.692778e-02 8.000000e-03
    endloop
  endfacet
  facet normal 1.404485e-14 -3.799945e-15 -1.000000e+00
    outer loop
      vertex   2.103506e-02 4.692778e-02 8.000000e-03
      vertex   2.098405e-02 4.628275e-02 8.000000e-03
      vertex   2.086927e-02 4.631503e-02 8.000000e-03
    endloop
  endfacet
  facet normal -0.000000e+00 0.000000e+00 -1.000000e+00
    outer loop
      vertex   2.103506e-02 4.692778e-02 8.000000e-03
      vertex   2.086927e-02 4.631503e-02 8.000000e-03
      vertex   2.101892e-02 4.700272e-02 8.000000e-03
    endloop
  endfacet
  facet normal 0.000000e+00 0.000000e+00 -1.000000e+00
    outer loop
      vertex   2.101892e-02 4.700272e-02 8.000000e-03
      vertex   2.086927e-02 4.631503e-02 8.000000e-03
      vertex   2.075726e-02 4.635991e-02 8.000000e-03
    endloop
  endfacet
  facet normal -4.233644e-14 1.723351e-14 -1.000000e+00
    outer loop
      vertex   2.101892e-02 4.700272e-02 8.000000e-03
      vertex   2.075726e-02 4.635991e-02 8.000000e-03
      vertex   2.100873e-02 4.707835e-02 8.000000e-03
    endloop
  endfacet
  facet normal 1.331891e-15 1.948391e-15 -1.000000e+00
    outer loop
      vertex   2.100873e-02 4.707835e-02 8.000000e-03
      vertex   2.075726e-02 4.635991e-02 8.000000e-03
      vertex   2.068482e-02 4.640943e-02 8.000000e-03
    endloop
  endfacet
  facet normal 4.805420e-14 -2.067624e-14 -1.000000e+00
    outer loop
      vertex   2.100873e-02 4.707835e-02 8.000000e-03
      vertex   2.068482e-02 4.640943e-02 8.000000e-03
      vertex   2.100553e-02 4.715480e-02 8.000000e-03
    endloop
  endfacet
  facet normal -1.944538e-14 8.366746e-15 -1.000000e+00
    outer loop
      vertex   2.100553e-02 4.715480e-02 8.000000e-03
      vertex   2.068482e-02 4.640943e-02 8.000000e-03
      vertex   2.061990e-02 4.646589e-02 8.000000e-03
    endloop
  endfacet
  facet normal 2.807257e-16 -2.675216e-15 -1.000000e+00
    outer loop
      vertex   2.100553e-02 4.715480e-02 8.000000e-03
      vertex   2.061990e-02 4.646589e-02 8.000000e-03
      vertex   2.045603e-02 4.709714e-02 8.000000e-03
    endloop
  endfacet
  facet normal 4.518846e-14 8.982550e-15 -1.000000e+00
    outer loop
      vertex   2.045603e-02 4.709714e-02 8.000000e-03
      vertex   2.061990e-02 4.646589e-02 8.000000e-03
      vertex   2.056792e-02 4.653428e-02 8.000000e-03
    endloop
  endfacet
  facet normal 0.000000e+00 0.000000e+00 -1.000000e+00
    outer loop
      vertex   2.045603e-02 4.709714e-02 8.000000e-03
      vertex   2.056792e-02 4.653428e-02 8.000000e-03
      vertex   2.046375e-02 4.693292e-02 8.000000e-03
    endloop
  endfacet
  facet normal 0.000000e+00 0.000000e+00 -1.000000e+00
    outer loop
      vertex   2.046375e-02 4.693292e-02 8.000000e-03
      vertex   2.056792e-02 4.653428e-02 8.000000e-03
      vertex   2.048728e-02 4.677068e-02 8.000000e-03
    endloop
  endfacet
  facet normal 0.000000e+00 0.000000e+00 -1.000000e+00
    outer loop
      vertex   2.048728e-02 4.677068e-02 8.000000e-03
      vertex   2.056792e-02 4.653428e-02 8.000000e-03
      vertex   2.052397e-02 4.661008e-02 8.000000e-03
    endloop
  endfacet
  facet normal 0.000000e+00 0.000000e+00 -1.000000e+00
    outer loop
      vertex   2.045603e-02 4.709714e-02 8.000000e-03
      vertex   2.045644e-02 4.726237e-02 8.000000e-03
      vertex   2.100553e-02 4.715480e-02 8.000000e-03
    endloop
  endfacet
  facet normal 0.000000e+00 0.000000e+00 -1.000000e+00
    outer loop
      vertex   2.100553e-02 4.715480e-02 8.000000e-03
      vertex   2.045644e-02 4.726237e-02 8.000000e-03
      vertex   2.100589e-02 4.723167e-02 8.000000e-03
    endloop
  endfacet
  facet normal 0.000000e+00 0.000000e+00 -1.000000e+00
    outer loop
      vertex   2.100589e-02 4.723167e-02 8.000000e-03
      vertex   2.045644e-02 4.726237e-02 8.000000e-03
      vertex   2.100589e-02 4.913788e-02 8.000000e-03
    endloop
  endfacet
  facet normal -0.000000e+00 0.000000e+00 -1.000000e+00
    outer loop
      vertex   2.100589e-02 4.913788e-02 8.000000e-03
      vertex   2.045644e-02 4.726237e-02 8.000000e-03
      vertex   2.045644e-02 4.913788e-02 8.000000e-03
    endloop
  endfacet
  facet normal 0.000000e+00 0.000000e+00 -1.000000e+00
    outer loop
      vertex   2.100589e-02 4.913788e-02 8.000000e-03
      vertex   2.045644e-02 4.913788e-02 8.000000e-03
      vertex   2.100589e-02 4.956762e-02 8.000000e-03
    endloop
  endfacet
  facet normal -0.000000e+00 0.000000e+00 -1.000000e+00
    outer loop
      vertex   2.100589e-02 4.956762e-02 8.000000e-03
      vertex   2.045644e-02 4.913788e-02 8.000000e-03
      vertex   2.045644e-02 4.956762e-02 8.000000e-03
    endloop
  endfacet
  facet normal 0.000000e+00 0.000000e+00 -1.000000e+00
    outer loop
      vertex   2.100589e-02 4.956762e-02 8.000000e-03
      vertex   2.045644e-02 4.956762e-02 8.000000e-03
      vertex   2.045644e-02 5.037492e-02 8.000000e-03
    endloop
  endfacet
  facet normal 0.000000e+00 0.000000e+00 -1.000000e+00
    outer loop
      vertex   2.045644e-02 4.913788e-02 8.000000e-03
      vertex   2.005126e-02 4.913788e-02 8.000000e-03
      vertex   2.045644e-02 4.956762e-02 8.000000e-03
    endloop
  endfacet
  facet normal -0.000000e+00 0.000000e+00 -1.000000e+00
    outer loop
      vertex   2.045644e-02 4.956762e-02 8.000000e-03
      vertex   2.005126e-02 4.913788e-02 8.000000e-03
      vertex   2.005126e-02 4.956762e-02 8.000000e-03
    endloop
  endfacet
  facet normal 0.000000e+00 0.000000e+00 -1.000000e+00
    outer loop
      vertex   2.045644e-02 5.037492e-02 8.000000e-03
      vertex   2.100589e-02 5.070643e-02 8.000000e-03
      vertex   2.100589e-02 4.956762e-02 8.000000e-03
    endloop
  endfacet
  facet normal 0.000000e+00 0.000000e+00 -1.000000e+00
    outer loop
      vertex   2.100589e-02 4.956762e-02 8.000000e-03
      vertex   2.156149e-02 4.956762e-02 8.000000e-03
      vertex   2.100589e-02 4.913788e-02 8.000000e-03
    endloop
  endfacet
  facet normal 0.000000e+00 0.000000e+00 -1.000000e+00
    outer loop
      vertex   2.100589e-02 4.913788e-02 8.000000e-03
      vertex   2.156149e-02 4.956762e-02 8.000000e-03
      vertex   2.156149e-02 4.913788e-02 8.000000e-03
    endloop
  endfacet
endsolid
