solid ASCII
  facet normal 9.789026e-01 -2.043272e-01 0.000000e+00
    outer loop
      vertex   8.459377e-02 3.521129e-02 1.600000e-02
      vertex   8.231860e-02 2.431129e-02 1.600000e-02
      vertex   8.459377e-02 3.521129e-02 8.000000e-03
    endloop
  endfacet
  facet normal 9.789026e-01 -2.043272e-01 0.000000e+00
    outer loop
      vertex   8.459377e-02 3.521129e-02 8.000000e-03
      vertex   8.231860e-02 2.431129e-02 1.600000e-02
      vertex   8.231860e-02 2.431129e-02 8.000000e-03
    endloop
  endfacet
  facet normal -0.000000e+00 1.000000e+00 0.000000e+00
    outer loop
      vertex   8.324800e-02 3.521129e-02 1.600000e-02
      vertex   8.459377e-02 3.521129e-02 1.600000e-02
      vertex   8.324800e-02 3.521129e-02 8.000000e-03
    endloop
  endfacet
  facet normal 0.000000e+00 1.000000e+00 0.000000e+00
    outer loop
      vertex   8.324800e-02 3.521129e-02 8.000000e-03
      vertex   8.459377e-02 3.521129e-02 1.600000e-02
      vertex   8.459377e-02 3.521129e-02 8.000000e-03
    endloop
  endfacet
  facet normal -9.789026e-01 2.043276e-01 0.000000e+00
    outer loop
      vertex   8.097283e-02 2.431129e-02 1.600000e-02
      vertex   8.324800e-02 3.521129e-02 1.600000e-02
      vertex   8.097283e-02 2.431129e-02 8.000000e-03
    endloop
  endfacet
  facet normal -9.789026e-01 2.043276e-01 0.000000e+00
    outer loop
      vertex   8.097283e-02 2.431129e-02 8.000000e-03
      vertex   8.324800e-02 3.521129e-02 1.600000e-02
      vertex   8.324800e-02 3.521129e-02 8.000000e-03
    endloop
  endfacet
  facet normal -0.000000e+00 -1.000000e+00 -0.000000e+00
    outer loop
      vertex   8.231860e-02 2.431129e-02 1.600000e-02
      vertex   8.097283e-02 2.431129e-02 1.600000e-02
      vertex   8.231860e-02 2.431129e-02 8.000000e-03
    endloop
  endfacet
  facet normal 0.000000e+00 -1.000000e+00 0.000000e+00
    outer loop
      vertex   8.231860e-02 2.431129e-02 8.000000e-03
      vertex   8.097283e-02 2.431129e-02 1.600000e-02
      vertex   8.097283e-02 2.431129e-02 8.000000e-03
    endloop
  endfacet
  facet normal 0.000000e+00 0.000000e+00 1.000000e+00
    outer loop
      vertex   8.097283e-02 2.431129e-02 1.600000e-02
      vertex   8.231860e-02 2.431129e-02 1.600000e-02
      vertex   8.324800e-02 3.521129e-02 1.600000e-02
    endloop
  endfacet
  facet normal -0.000000e+00 0.000000e+00 1.000000e+00
    outer loop
      vertex   8.324800e-02 3.521129e-02 1.600000e-02
      vertex   8.231860e-02 2.431129e-02 1.600000e-02
      vertex   8.459377e-02 3.521129e-02 1.600000e-02
    endloop
  endfacet
  facet normal 0.000000e+00 0.000000e+00 -1.000000e+00
    outer loop
      vertex   8.097283e-02 2.431129e-02 8.000000e-03
      vertex   8.324800e-02 3.521129e-02 8.000000e-03
      vertex   8.231860e-02 2.431129e-02 8.000000e-03
    endloop
  endfacet
  facet normal 0.000000e+00 0.000000e+00 -1.000000e+00
    outer loop
      vertex   8.231860e-02 2.431129e-02 8.000000e-03
      vertex   8.324800e-02 3.521129e-02 8.000000e-03
      vertex   8.459377e-02 3.521129e-02 8.000000e-03
    endloop
  endfacet
endsolid
