solid ASCII
  facet normal 1.000000e+00 0.000000e+00 0.000000e+00
    outer loop
      vertex   1.880530e-02 4.801441e-02 1.600000e-02
      vertex   1.880530e-02 4.630773e-02 1.600000e-02
      vertex   1.880530e-02 4.801441e-02 8.000000e-03
    endloop
  endfacet
  facet normal 1.000000e+00 0.000000e+00 0.000000e+00
    outer loop
      vertex   1.880530e-02 4.801441e-02 8.000000e-03
      vertex   1.880530e-02 4.630773e-02 1.600000e-02
      vertex   1.880530e-02 4.630773e-02 8.000000e-03
    endloop
  endfacet
  facet normal 9.696411e-01 -2.445323e-01 0.000000e+00
    outer loop
      vertex   1.889739e-02 4.865903e-02 8.000000e-03
      vertex   1.889739e-02 4.865903e-02 1.600000e-02
      vertex   1.885737e-02 4.850034e-02 1.200000e-02
    endloop
  endfacet
  facet normal 9.696411e-01 -2.445323e-01 0.000000e+00
    outer loop
      vertex   1.885737e-02 4.850034e-02 1.200000e-02
      vertex   1.889739e-02 4.865903e-02 1.600000e-02
      vertex   1.885737e-02 4.850034e-02 1.600000e-02
    endloop
  endfacet
  facet normal 9.822970e-01 -1.873301e-01 0.000000e+00
    outer loop
      vertex   1.885737e-02 4.850034e-02 1.200000e-02
      vertex   1.885737e-02 4.850034e-02 1.600000e-02
      vertex   1.882685e-02 4.834028e-02 1.600000e-02
    endloop
  endfacet
  facet normal 9.822970e-01 -1.873301e-01 -1.704394e-15
    outer loop
      vertex   1.885737e-02 4.850034e-02 1.200000e-02
      vertex   1.882685e-02 4.834028e-02 1.600000e-02
      vertex   1.882685e-02 4.834028e-02 1.200000e-02
    endloop
  endfacet
  facet normal 9.956275e-01 -9.341291e-02 -1.727138e-15
    outer loop
      vertex   1.882685e-02 4.834028e-02 1.200000e-02
      vertex   1.882685e-02 4.834028e-02 1.600000e-02
      vertex   1.881162e-02 4.817799e-02 1.600000e-02
    endloop
  endfacet
  facet normal 9.956275e-01 -9.341291e-02 3.241514e-16
    outer loop
      vertex   1.882685e-02 4.834028e-02 1.200000e-02
      vertex   1.881162e-02 4.817799e-02 1.600000e-02
      vertex   1.881162e-02 4.817799e-02 1.200000e-02
    endloop
  endfacet
  facet normal 9.992550e-01 -3.859317e-02 1.338970e-16
    outer loop
      vertex   1.881162e-02 4.817799e-02 1.200000e-02
      vertex   1.881162e-02 4.817799e-02 1.600000e-02
      vertex   1.880530e-02 4.801441e-02 1.600000e-02
    endloop
  endfacet
  facet normal 9.992550e-01 -3.859317e-02 0.000000e+00
    outer loop
      vertex   1.881162e-02 4.817799e-02 1.200000e-02
      vertex   1.880530e-02 4.801441e-02 1.600000e-02
      vertex   1.880530e-02 4.801441e-02 8.000000e-03
    endloop
  endfacet
  facet normal 9.992550e-01 -3.859317e-02 -1.339034e-16
    outer loop
      vertex   1.880530e-02 4.801441e-02 8.000000e-03
      vertex   1.881162e-02 4.817799e-02 8.000000e-03
      vertex   1.881162e-02 4.817799e-02 1.200000e-02
    endloop
  endfacet
  facet normal 9.956275e-01 -9.341291e-02 -3.240911e-16
    outer loop
      vertex   1.881162e-02 4.817799e-02 1.200000e-02
      vertex   1.881162e-02 4.817799e-02 8.000000e-03
      vertex   1.882685e-02 4.834028e-02 8.000000e-03
    endloop
  endfacet
  facet normal 9.956275e-01 -9.341291e-02 1.727327e-15
    outer loop
      vertex   1.881162e-02 4.817799e-02 1.200000e-02
      vertex   1.882685e-02 4.834028e-02 8.000000e-03
      vertex   1.882685e-02 4.834028e-02 1.200000e-02
    endloop
  endfacet
  facet normal 9.822970e-01 -1.873301e-01 1.704014e-15
    outer loop
      vertex   1.882685e-02 4.834028e-02 1.200000e-02
      vertex   1.882685e-02 4.834028e-02 8.000000e-03
      vertex   1.885737e-02 4.850034e-02 8.000000e-03
    endloop
  endfacet
  facet normal 9.822970e-01 -1.873301e-01 0.000000e+00
    outer loop
      vertex   1.882685e-02 4.834028e-02 1.200000e-02
      vertex   1.885737e-02 4.850034e-02 8.000000e-03
      vertex   1.885737e-02 4.850034e-02 1.200000e-02
    endloop
  endfacet
  facet normal 9.696411e-01 -2.445323e-01 0.000000e+00
    outer loop
      vertex   1.885737e-02 4.850034e-02 1.200000e-02
      vertex   1.885737e-02 4.850034e-02 8.000000e-03
      vertex   1.889739e-02 4.865903e-02 8.000000e-03
    endloop
  endfacet
  facet normal 6.864395e-01 -7.271869e-01 -8.930870e-16
    outer loop
      vertex   1.903505e-02 4.889719e-02 1.600000e-02
      vertex   1.903505e-02 4.889719e-02 1.333333e-02
      vertex   1.910305e-02 4.896138e-02 1.600000e-02
    endloop
  endfacet
  facet normal 6.864395e-01 -7.271869e-01 0.000000e+00
    outer loop
      vertex   1.910305e-02 4.896138e-02 1.600000e-02
      vertex   1.903505e-02 4.889719e-02 1.333333e-02
      vertex   1.903505e-02 4.889719e-02 1.066667e-02
    endloop
  endfacet
  facet normal 6.864395e-01 -7.271869e-01 0.000000e+00
    outer loop
      vertex   1.910305e-02 4.896138e-02 1.600000e-02
      vertex   1.903505e-02 4.889719e-02 1.066667e-02
      vertex   1.910305e-02 4.896138e-02 8.000000e-03
    endloop
  endfacet
  facet normal 6.864395e-01 -7.271869e-01 8.923356e-16
    outer loop
      vertex   1.910305e-02 4.896138e-02 8.000000e-03
      vertex   1.903505e-02 4.889719e-02 1.066667e-02
      vertex   1.903505e-02 4.889719e-02 8.000000e-03
    endloop
  endfacet
  facet normal 7.684908e-01 -6.398609e-01 9.998392e-16
    outer loop
      vertex   1.903505e-02 4.889719e-02 8.000000e-03
      vertex   1.903505e-02 4.889719e-02 1.066667e-02
      vertex   1.897631e-02 4.882664e-02 1.066667e-02
    endloop
  endfacet
  facet normal 7.684908e-01 -6.398609e-01 0.000000e+00
    outer loop
      vertex   1.903505e-02 4.889719e-02 8.000000e-03
      vertex   1.897631e-02 4.882664e-02 1.066667e-02
      vertex   1.897631e-02 4.882664e-02 8.000000e-03
    endloop
  endfacet
  facet normal 8.791305e-01 -4.765811e-01 0.000000e+00
    outer loop
      vertex   1.897631e-02 4.882664e-02 8.000000e-03
      vertex   1.897631e-02 4.882664e-02 1.066667e-02
      vertex   1.893250e-02 4.874582e-02 1.066667e-02
    endloop
  endfacet
  facet normal 8.791305e-01 -4.765811e-01 0.000000e+00
    outer loop
      vertex   1.897631e-02 4.882664e-02 8.000000e-03
      vertex   1.893250e-02 4.874582e-02 1.066667e-02
      vertex   1.893250e-02 4.874582e-02 8.000000e-03
    endloop
  endfacet
  facet normal 9.270333e-01 -3.749790e-01 0.000000e+00
    outer loop
      vertex   1.893250e-02 4.874582e-02 8.000000e-03
      vertex   1.893250e-02 4.874582e-02 1.066667e-02
      vertex   1.889739e-02 4.865903e-02 8.000000e-03
    endloop
  endfacet
  facet normal 9.270333e-01 -3.749790e-01 0.000000e+00
    outer loop
      vertex   1.889739e-02 4.865903e-02 8.000000e-03
      vertex   1.893250e-02 4.874582e-02 1.066667e-02
      vertex   1.893250e-02 4.874582e-02 1.333333e-02
    endloop
  endfacet
  facet normal 9.270333e-01 -3.749790e-01 0.000000e+00
    outer loop
      vertex   1.889739e-02 4.865903e-02 8.000000e-03
      vertex   1.893250e-02 4.874582e-02 1.333333e-02
      vertex   1.889739e-02 4.865903e-02 1.600000e-02
    endloop
  endfacet
  facet normal 9.270333e-01 -3.749790e-01 0.000000e+00
    outer loop
      vertex   1.889739e-02 4.865903e-02 1.600000e-02
      vertex   1.893250e-02 4.874582e-02 1.333333e-02
      vertex   1.893250e-02 4.874582e-02 1.600000e-02
    endloop
  endfacet
  facet normal 8.791305e-01 -4.765811e-01 0.000000e+00
    outer loop
      vertex   1.893250e-02 4.874582e-02 1.600000e-02
      vertex   1.893250e-02 4.874582e-02 1.333333e-02
      vertex   1.897631e-02 4.882664e-02 1.333333e-02
    endloop
  endfacet
  facet normal 8.791305e-01 -4.765811e-01 0.000000e+00
    outer loop
      vertex   1.893250e-02 4.874582e-02 1.600000e-02
      vertex   1.897631e-02 4.882664e-02 1.333333e-02
      vertex   1.897631e-02 4.882664e-02 1.600000e-02
    endloop
  endfacet
  facet normal 7.684908e-01 -6.398609e-01 0.000000e+00
    outer loop
      vertex   1.897631e-02 4.882664e-02 1.600000e-02
      vertex   1.897631e-02 4.882664e-02 1.333333e-02
      vertex   1.903505e-02 4.889719e-02 1.333333e-02
    endloop
  endfacet
  facet normal 7.684908e-01 -6.398609e-01 -1.000129e-15
    outer loop
      vertex   1.897631e-02 4.882664e-02 1.600000e-02
      vertex   1.903505e-02 4.889719e-02 1.333333e-02
      vertex   1.903505e-02 4.889719e-02 1.600000e-02
    endloop
  endfacet
  facet normal 7.684908e-01 -6.398609e-01 0.000000e+00
    outer loop
      vertex   1.903505e-02 4.889719e-02 1.066667e-02
      vertex   1.903505e-02 4.889719e-02 1.333333e-02
      vertex   1.897631e-02 4.882664e-02 1.333333e-02
    endloop
  endfacet
  facet normal 8.791305e-01 -4.765811e-01 0.000000e+00
    outer loop
      vertex   1.893250e-02 4.874582e-02 1.066667e-02
      vertex   1.897631e-02 4.882664e-02 1.066667e-02
      vertex   1.893250e-02 4.874582e-02 1.333333e-02
    endloop
  endfacet
  facet normal 8.791305e-01 -4.765811e-01 0.000000e+00
    outer loop
      vertex   1.893250e-02 4.874582e-02 1.333333e-02
      vertex   1.897631e-02 4.882664e-02 1.066667e-02
      vertex   1.897631e-02 4.882664e-02 1.333333e-02
    endloop
  endfacet
  facet normal 7.684908e-01 -6.398609e-01 0.000000e+00
    outer loop
      vertex   1.897631e-02 4.882664e-02 1.066667e-02
      vertex   1.903505e-02 4.889719e-02 1.066667e-02
      vertex   1.897631e-02 4.882664e-02 1.333333e-02
    endloop
  endfacet
  facet normal 9.653768e-02 -9.953293e-01 0.000000e+00
    outer loop
      vertex   1.934080e-02 4.906185e-02 1.600000e-02
      vertex   1.934080e-02 4.906185e-02 1.333333e-02
      vertex   1.942843e-02 4.907035e-02 1.600000e-02
    endloop
  endfacet
  facet normal 9.653768e-02 -9.953293e-01 0.000000e+00
    outer loop
      vertex   1.942843e-02 4.907035e-02 1.600000e-02
      vertex   1.934080e-02 4.906185e-02 1.333333e-02
      vertex   1.934080e-02 4.906185e-02 1.066667e-02
    endloop
  endfacet
  facet normal 9.653768e-02 -9.953293e-01 0.000000e+00
    outer loop
      vertex   1.942843e-02 4.907035e-02 1.600000e-02
      vertex   1.934080e-02 4.906185e-02 1.066667e-02
      vertex   1.942843e-02 4.907035e-02 8.000000e-03
    endloop
  endfacet
  facet normal 9.653768e-02 -9.953293e-01 0.000000e+00
    outer loop
      vertex   1.942843e-02 4.907035e-02 8.000000e-03
      vertex   1.934080e-02 4.906185e-02 1.066667e-02
      vertex   1.934080e-02 4.906185e-02 8.000000e-03
    endloop
  endfacet
  facet normal 2.170216e-01 -9.761668e-01 0.000000e+00
    outer loop
      vertex   1.934080e-02 4.906185e-02 8.000000e-03
      vertex   1.934080e-02 4.906185e-02 1.066667e-02
      vertex   1.925660e-02 4.904313e-02 1.066667e-02
    endloop
  endfacet
  facet normal 2.170216e-01 -9.761668e-01 -2.539839e-15
    outer loop
      vertex   1.934080e-02 4.906185e-02 8.000000e-03
      vertex   1.925660e-02 4.904313e-02 1.066667e-02
      vertex   1.925660e-02 4.904313e-02 8.000000e-03
    endloop
  endfacet
  facet normal 4.146082e-01 -9.100000e-01 -2.367898e-15
    outer loop
      vertex   1.925660e-02 4.904313e-02 8.000000e-03
      vertex   1.925660e-02 4.904313e-02 1.066667e-02
      vertex   1.917811e-02 4.900737e-02 1.066667e-02
    endloop
  endfacet
  facet normal 4.146082e-01 -9.100000e-01 -5.394466e-16
    outer loop
      vertex   1.925660e-02 4.904313e-02 8.000000e-03
      vertex   1.917811e-02 4.900737e-02 1.066667e-02
      vertex   1.917811e-02 4.900737e-02 8.000000e-03
    endloop
  endfacet
  facet normal 5.224342e-01 -8.526796e-01 -6.797092e-16
    outer loop
      vertex   1.917811e-02 4.900737e-02 8.000000e-03
      vertex   1.917811e-02 4.900737e-02 1.066667e-02
      vertex   1.910305e-02 4.896138e-02 8.000000e-03
    endloop
  endfacet
  facet normal 5.224342e-01 -8.526796e-01 0.000000e+00
    outer loop
      vertex   1.910305e-02 4.896138e-02 8.000000e-03
      vertex   1.917811e-02 4.900737e-02 1.066667e-02
      vertex   1.917811e-02 4.900737e-02 1.333333e-02
    endloop
  endfacet
  facet normal 5.224342e-01 -8.526796e-01 0.000000e+00
    outer loop
      vertex   1.910305e-02 4.896138e-02 8.000000e-03
      vertex   1.917811e-02 4.900737e-02 1.333333e-02
      vertex   1.910305e-02 4.896138e-02 1.600000e-02
    endloop
  endfacet
  facet normal 5.224342e-01 -8.526796e-01 6.800593e-16
    outer loop
      vertex   1.910305e-02 4.896138e-02 1.600000e-02
      vertex   1.917811e-02 4.900737e-02 1.333333e-02
      vertex   1.917811e-02 4.900737e-02 1.600000e-02
    endloop
  endfacet
  facet normal 4.146082e-01 -9.100000e-01 5.394229e-16
    outer loop
      vertex   1.917811e-02 4.900737e-02 1.600000e-02
      vertex   1.917811e-02 4.900737e-02 1.333333e-02
      vertex   1.925660e-02 4.904313e-02 1.333333e-02
    endloop
  endfacet
  facet normal 4.146082e-01 -9.100000e-01 2.368171e-15
    outer loop
      vertex   1.917811e-02 4.900737e-02 1.600000e-02
      vertex   1.925660e-02 4.904313e-02 1.333333e-02
      vertex   1.925660e-02 4.904313e-02 1.600000e-02
    endloop
  endfacet
  facet normal 2.170216e-01 -9.761668e-01 2.540069e-15
    outer loop
      vertex   1.925660e-02 4.904313e-02 1.600000e-02
      vertex   1.925660e-02 4.904313e-02 1.333333e-02
      vertex   1.934080e-02 4.906185e-02 1.333333e-02
    endloop
  endfacet
  facet normal 2.170216e-01 -9.761668e-01 0.000000e+00
    outer loop
      vertex   1.925660e-02 4.904313e-02 1.600000e-02
      vertex   1.934080e-02 4.906185e-02 1.333333e-02
      vertex   1.934080e-02 4.906185e-02 1.600000e-02
    endloop
  endfacet
  facet normal 2.170216e-01 -9.761668e-01 0.000000e+00
    outer loop
      vertex   1.934080e-02 4.906185e-02 1.066667e-02
      vertex   1.934080e-02 4.906185e-02 1.333333e-02
      vertex   1.925660e-02 4.904313e-02 1.333333e-02
    endloop
  endfacet
  facet normal 4.146082e-01 -9.100000e-01 0.000000e+00
    outer loop
      vertex   1.917811e-02 4.900737e-02 1.066667e-02
      vertex   1.925660e-02 4.904313e-02 1.066667e-02
      vertex   1.917811e-02 4.900737e-02 1.333333e-02
    endloop
  endfacet
  facet normal 4.146082e-01 -9.100000e-01 0.000000e+00
    outer loop
      vertex   1.917811e-02 4.900737e-02 1.333333e-02
      vertex   1.925660e-02 4.904313e-02 1.066667e-02
      vertex   1.925660e-02 4.904313e-02 1.333333e-02
    endloop
  endfacet
  facet normal 2.170216e-01 -9.761668e-01 0.000000e+00
    outer loop
      vertex   1.925660e-02 4.904313e-02 1.066667e-02
      vertex   1.934080e-02 4.906185e-02 1.066667e-02
      vertex   1.925660e-02 4.904313e-02 1.333333e-02
    endloop
  endfacet
  facet normal -4.529807e-01 -8.915203e-01 -2.319812e-15
    outer loop
      vertex   1.973775e-02 4.899934e-02 1.600000e-02
      vertex   1.973775e-02 4.899934e-02 1.333333e-02
      vertex   1.983361e-02 4.895064e-02 1.600000e-02
    endloop
  endfacet
  facet normal -4.529807e-01 -8.915203e-01 0.000000e+00
    outer loop
      vertex   1.983361e-02 4.895064e-02 1.600000e-02
      vertex   1.973775e-02 4.899934e-02 1.333333e-02
      vertex   1.973775e-02 4.899934e-02 1.066667e-02
    endloop
  endfacet
  facet normal -4.529807e-01 -8.915203e-01 -0.000000e+00
    outer loop
      vertex   1.983361e-02 4.895064e-02 1.600000e-02
      vertex   1.973775e-02 4.899934e-02 1.066667e-02
      vertex   1.983361e-02 4.895064e-02 8.000000e-03
    endloop
  endfacet
  facet normal -4.529807e-01 -8.915203e-01 2.322373e-15
    outer loop
      vertex   1.983361e-02 4.895064e-02 8.000000e-03
      vertex   1.973775e-02 4.899934e-02 1.066667e-02
      vertex   1.973775e-02 4.899934e-02 8.000000e-03
    endloop
  endfacet
  facet normal -3.652549e-01 -9.309076e-01 2.422301e-15
    outer loop
      vertex   1.973775e-02 4.899934e-02 8.000000e-03
      vertex   1.973775e-02 4.899934e-02 1.066667e-02
      vertex   1.963901e-02 4.903808e-02 1.066667e-02
    endloop
  endfacet
  facet normal -3.652549e-01 -9.309076e-01 2.424301e-15
    outer loop
      vertex   1.973775e-02 4.899934e-02 8.000000e-03
      vertex   1.963901e-02 4.903808e-02 1.066667e-02
      vertex   1.963901e-02 4.903808e-02 8.000000e-03
    endloop
  endfacet
  facet normal -2.031475e-01 -9.791481e-01 2.547827e-15
    outer loop
      vertex   1.963901e-02 4.903808e-02 8.000000e-03
      vertex   1.963901e-02 4.903808e-02 1.066667e-02
      vertex   1.953528e-02 4.905961e-02 1.066667e-02
    endloop
  endfacet
  facet normal -2.031475e-01 -9.791481e-01 -2.635204e-16
    outer loop
      vertex   1.963901e-02 4.903808e-02 8.000000e-03
      vertex   1.953528e-02 4.905961e-02 1.066667e-02
      vertex   1.953528e-02 4.905961e-02 8.000000e-03
    endloop
  endfacet
  facet normal -1.000427e-01 -9.949831e-01 -1.301598e-16
    outer loop
      vertex   1.953528e-02 4.905961e-02 8.000000e-03
      vertex   1.953528e-02 4.905961e-02 1.066667e-02
      vertex   1.942843e-02 4.907035e-02 8.000000e-03
    endloop
  endfacet
  facet normal -1.000427e-01 -9.949831e-01 0.000000e+00
    outer loop
      vertex   1.942843e-02 4.907035e-02 8.000000e-03
      vertex   1.953528e-02 4.905961e-02 1.066667e-02
      vertex   1.953528e-02 4.905961e-02 1.333333e-02
    endloop
  endfacet
  facet normal -1.000427e-01 -9.949831e-01 0.000000e+00
    outer loop
      vertex   1.942843e-02 4.907035e-02 8.000000e-03
      vertex   1.953528e-02 4.905961e-02 1.333333e-02
      vertex   1.942843e-02 4.907035e-02 1.600000e-02
    endloop
  endfacet
  facet normal -1.000427e-01 -9.949831e-01 1.299796e-16
    outer loop
      vertex   1.942843e-02 4.907035e-02 1.600000e-02
      vertex   1.953528e-02 4.905961e-02 1.333333e-02
      vertex   1.953528e-02 4.905961e-02 1.600000e-02
    endloop
  endfacet
  facet normal -2.031475e-01 -9.791481e-01 2.643036e-16
    outer loop
      vertex   1.953528e-02 4.905961e-02 1.600000e-02
      vertex   1.953528e-02 4.905961e-02 1.333333e-02
      vertex   1.963901e-02 4.903808e-02 1.333333e-02
    endloop
  endfacet
  facet normal -2.031475e-01 -9.791481e-01 -2.548828e-15
    outer loop
      vertex   1.953528e-02 4.905961e-02 1.600000e-02
      vertex   1.963901e-02 4.903808e-02 1.333333e-02
      vertex   1.963901e-02 4.903808e-02 1.600000e-02
    endloop
  endfacet
  facet normal -3.652549e-01 -9.309076e-01 -2.422301e-15
    outer loop
      vertex   1.963901e-02 4.903808e-02 1.600000e-02
      vertex   1.963901e-02 4.903808e-02 1.333333e-02
      vertex   1.973775e-02 4.899934e-02 1.333333e-02
    endloop
  endfacet
  facet normal -3.652549e-01 -9.309076e-01 -2.421377e-15
    outer loop
      vertex   1.963901e-02 4.903808e-02 1.600000e-02
      vertex   1.973775e-02 4.899934e-02 1.333333e-02
      vertex   1.973775e-02 4.899934e-02 1.600000e-02
    endloop
  endfacet
  facet normal -3.652549e-01 -9.309076e-01 0.000000e+00
    outer loop
      vertex   1.973775e-02 4.899934e-02 1.066667e-02
      vertex   1.973775e-02 4.899934e-02 1.333333e-02
      vertex   1.963901e-02 4.903808e-02 1.333333e-02
    endloop
  endfacet
  facet normal -2.031475e-01 -9.791481e-01 0.000000e+00
    outer loop
      vertex   1.953528e-02 4.905961e-02 1.066667e-02
      vertex   1.963901e-02 4.903808e-02 1.066667e-02
      vertex   1.953528e-02 4.905961e-02 1.333333e-02
    endloop
  endfacet
  facet normal -2.031475e-01 -9.791481e-01 0.000000e+00
    outer loop
      vertex   1.953528e-02 4.905961e-02 1.333333e-02
      vertex   1.963901e-02 4.903808e-02 1.066667e-02
      vertex   1.963901e-02 4.903808e-02 1.333333e-02
    endloop
  endfacet
  facet normal -3.652549e-01 -9.309076e-01 0.000000e+00
    outer loop
      vertex   1.963901e-02 4.903808e-02 1.066667e-02
      vertex   1.973775e-02 4.899934e-02 1.066667e-02
      vertex   1.963901e-02 4.903808e-02 1.333333e-02
    endloop
  endfacet
  facet normal 9.374774e-01 -3.480461e-01 0.000000e+00
    outer loop
      vertex   2.002392e-02 4.946325e-02 1.600000e-02
      vertex   1.983361e-02 4.895064e-02 1.600000e-02
      vertex   2.002392e-02 4.946325e-02 8.000000e-03
    endloop
  endfacet
  facet normal 9.374774e-01 -3.480461e-01 0.000000e+00
    outer loop
      vertex   2.002392e-02 4.946325e-02 8.000000e-03
      vertex   1.983361e-02 4.895064e-02 1.600000e-02
      vertex   1.983361e-02 4.895064e-02 8.000000e-03
    endloop
  endfacet
  facet normal 1.095582e-01 9.939804e-01 -0.000000e+00
    outer loop
      vertex   1.945605e-02 4.964129e-02 8.000000e-03
      vertex   1.945605e-02 4.964129e-02 1.600000e-02
      vertex   1.960655e-02 4.962470e-02 1.200000e-02
    endloop
  endfacet
  facet normal 1.095582e-01 9.939804e-01 5.267870e-15
    outer loop
      vertex   1.960655e-02 4.962470e-02 1.200000e-02
      vertex   1.945605e-02 4.964129e-02 1.600000e-02
      vertex   1.960655e-02 4.962470e-02 1.600000e-02
    endloop
  endfacet
  facet normal 2.172267e-01 9.761212e-01 5.268315e-15
    outer loop
      vertex   1.960655e-02 4.962470e-02 1.200000e-02
      vertex   1.960655e-02 4.962470e-02 1.600000e-02
      vertex   1.975222e-02 4.959229e-02 1.600000e-02
    endloop
  endfacet
  facet normal 2.172267e-01 9.761212e-01 0.000000e+00
    outer loop
      vertex   1.960655e-02 4.962470e-02 1.200000e-02
      vertex   1.975222e-02 4.959229e-02 1.600000e-02
      vertex   1.975222e-02 4.959229e-02 1.200000e-02
    endloop
  endfacet
  facet normal 3.837795e-01 9.234248e-01 -0.000000e+00
    outer loop
      vertex   1.975222e-02 4.959229e-02 1.200000e-02
      vertex   1.975222e-02 4.959229e-02 1.600000e-02
      vertex   1.989025e-02 4.953492e-02 1.600000e-02
    endloop
  endfacet
  facet normal 3.837795e-01 9.234248e-01 0.000000e+00
    outer loop
      vertex   1.975222e-02 4.959229e-02 1.200000e-02
      vertex   1.989025e-02 4.953492e-02 1.600000e-02
      vertex   1.989025e-02 4.953492e-02 1.200000e-02
    endloop
  endfacet
  facet normal 4.724953e-01 8.813332e-01 -0.000000e+00
    outer loop
      vertex   1.989025e-02 4.953492e-02 1.200000e-02
      vertex   1.989025e-02 4.953492e-02 1.600000e-02
      vertex   2.002392e-02 4.946325e-02 1.600000e-02
    endloop
  endfacet
  facet normal 4.724953e-01 8.813332e-01 0.000000e+00
    outer loop
      vertex   1.989025e-02 4.953492e-02 1.200000e-02
      vertex   2.002392e-02 4.946325e-02 1.600000e-02
      vertex   2.002392e-02 4.946325e-02 8.000000e-03
    endloop
  endfacet
  facet normal 4.724953e-01 8.813332e-01 0.000000e+00
    outer loop
      vertex   2.002392e-02 4.946325e-02 8.000000e-03
      vertex   1.989025e-02 4.953492e-02 8.000000e-03
      vertex   1.989025e-02 4.953492e-02 1.200000e-02
    endloop
  endfacet
  facet normal 3.837795e-01 9.234248e-01 0.000000e+00
    outer loop
      vertex   1.989025e-02 4.953492e-02 1.200000e-02
      vertex   1.989025e-02 4.953492e-02 8.000000e-03
      vertex   1.975222e-02 4.959229e-02 8.000000e-03
    endloop
  endfacet
  facet normal 3.837795e-01 9.234248e-01 0.000000e+00
    outer loop
      vertex   1.989025e-02 4.953492e-02 1.200000e-02
      vertex   1.975222e-02 4.959229e-02 8.000000e-03
      vertex   1.975222e-02 4.959229e-02 1.200000e-02
    endloop
  endfacet
  facet normal 2.172267e-01 9.761212e-01 0.000000e+00
    outer loop
      vertex   1.975222e-02 4.959229e-02 1.200000e-02
      vertex   1.975222e-02 4.959229e-02 8.000000e-03
      vertex   1.960655e-02 4.962470e-02 8.000000e-03
    endloop
  endfacet
  facet normal 2.172267e-01 9.761212e-01 -5.268717e-15
    outer loop
      vertex   1.975222e-02 4.959229e-02 1.200000e-02
      vertex   1.960655e-02 4.962470e-02 8.000000e-03
      vertex   1.960655e-02 4.962470e-02 1.200000e-02
    endloop
  endfacet
  facet normal 1.095582e-01 9.939804e-01 -5.267870e-15
    outer loop
      vertex   1.960655e-02 4.962470e-02 1.200000e-02
      vertex   1.960655e-02 4.962470e-02 8.000000e-03
      vertex   1.945605e-02 4.964129e-02 8.000000e-03
    endloop
  endfacet
  facet normal -4.898352e-01 8.718151e-01 0.000000e+00
    outer loop
      vertex   1.918428e-02 4.957729e-02 1.600000e-02
      vertex   1.918428e-02 4.957729e-02 1.333333e-02
      vertex   1.910152e-02 4.953079e-02 1.600000e-02
    endloop
  endfacet
  facet normal -4.898352e-01 8.718151e-01 0.000000e+00
    outer loop
      vertex   1.910152e-02 4.953079e-02 1.600000e-02
      vertex   1.918428e-02 4.957729e-02 1.333333e-02
      vertex   1.918428e-02 4.957729e-02 1.066667e-02
    endloop
  endfacet
  facet normal -4.898352e-01 8.718151e-01 0.000000e+00
    outer loop
      vertex   1.910152e-02 4.953079e-02 1.600000e-02
      vertex   1.918428e-02 4.957729e-02 1.066667e-02
      vertex   1.910152e-02 4.953079e-02 8.000000e-03
    endloop
  endfacet
  facet normal -4.898352e-01 8.718151e-01 0.000000e+00
    outer loop
      vertex   1.910152e-02 4.953079e-02 8.000000e-03
      vertex   1.918428e-02 4.957729e-02 1.066667e-02
      vertex   1.918428e-02 4.957729e-02 8.000000e-03
    endloop
  endfacet
  facet normal -3.883564e-01 9.215092e-01 0.000000e+00
    outer loop
      vertex   1.918428e-02 4.957729e-02 8.000000e-03
      vertex   1.918428e-02 4.957729e-02 1.066667e-02
      vertex   1.927023e-02 4.961351e-02 1.066667e-02
    endloop
  endfacet
  facet normal -3.883564e-01 9.215092e-01 0.000000e+00
    outer loop
      vertex   1.918428e-02 4.957729e-02 8.000000e-03
      vertex   1.927023e-02 4.961351e-02 1.066667e-02
      vertex   1.927023e-02 4.961351e-02 8.000000e-03
    endloop
  endfacet
  facet normal -2.043043e-01 9.789074e-01 0.000000e+00
    outer loop
      vertex   1.927023e-02 4.961351e-02 8.000000e-03
      vertex   1.927023e-02 4.961351e-02 1.066667e-02
      vertex   1.936154e-02 4.963257e-02 1.066667e-02
    endloop
  endfacet
  facet normal -2.043043e-01 9.789074e-01 2.546724e-15
    outer loop
      vertex   1.927023e-02 4.961351e-02 8.000000e-03
      vertex   1.936154e-02 4.963257e-02 1.066667e-02
      vertex   1.936154e-02 4.963257e-02 8.000000e-03
    endloop
  endfacet
  facet normal -9.191221e-02 9.957671e-01 2.591071e-15
    outer loop
      vertex   1.936154e-02 4.963257e-02 8.000000e-03
      vertex   1.936154e-02 4.963257e-02 1.066667e-02
      vertex   1.945605e-02 4.964129e-02 8.000000e-03
    endloop
  endfacet
  facet normal -9.191221e-02 9.957671e-01 0.000000e+00
    outer loop
      vertex   1.945605e-02 4.964129e-02 8.000000e-03
      vertex   1.936154e-02 4.963257e-02 1.066667e-02
      vertex   1.936154e-02 4.963257e-02 1.333333e-02
    endloop
  endfacet
  facet normal -9.191221e-02 9.957671e-01 0.000000e+00
    outer loop
      vertex   1.945605e-02 4.964129e-02 8.000000e-03
      vertex   1.936154e-02 4.963257e-02 1.333333e-02
      vertex   1.945605e-02 4.964129e-02 1.600000e-02
    endloop
  endfacet
  facet normal -9.191221e-02 9.957671e-01 -2.591106e-15
    outer loop
      vertex   1.945605e-02 4.964129e-02 1.600000e-02
      vertex   1.936154e-02 4.963257e-02 1.333333e-02
      vertex   1.936154e-02 4.963257e-02 1.600000e-02
    endloop
  endfacet
  facet normal -2.043043e-01 9.789074e-01 -2.547201e-15
    outer loop
      vertex   1.936154e-02 4.963257e-02 1.600000e-02
      vertex   1.936154e-02 4.963257e-02 1.333333e-02
      vertex   1.927023e-02 4.961351e-02 1.333333e-02
    endloop
  endfacet
  facet normal -2.043043e-01 9.789074e-01 0.000000e+00
    outer loop
      vertex   1.936154e-02 4.963257e-02 1.600000e-02
      vertex   1.927023e-02 4.961351e-02 1.333333e-02
      vertex   1.927023e-02 4.961351e-02 1.600000e-02
    endloop
  endfacet
  facet normal -3.883564e-01 9.215092e-01 0.000000e+00
    outer loop
      vertex   1.927023e-02 4.961351e-02 1.600000e-02
      vertex   1.927023e-02 4.961351e-02 1.333333e-02
      vertex   1.918428e-02 4.957729e-02 1.333333e-02
    endloop
  endfacet
  facet normal -3.883564e-01 9.215092e-01 0.000000e+00
    outer loop
      vertex   1.927023e-02 4.961351e-02 1.600000e-02
      vertex   1.918428e-02 4.957729e-02 1.333333e-02
      vertex   1.918428e-02 4.957729e-02 1.600000e-02
    endloop
  endfacet
  facet normal -3.883564e-01 9.215092e-01 0.000000e+00
    outer loop
      vertex   1.918428e-02 4.957729e-02 1.066667e-02
      vertex   1.918428e-02 4.957729e-02 1.333333e-02
      vertex   1.927023e-02 4.961351e-02 1.333333e-02
    endloop
  endfacet
  facet normal -2.043043e-01 9.789074e-01 0.000000e+00
    outer loop
      vertex   1.936154e-02 4.963257e-02 1.066667e-02
      vertex   1.927023e-02 4.961351e-02 1.066667e-02
      vertex   1.936154e-02 4.963257e-02 1.333333e-02
    endloop
  endfacet
  facet normal -2.043043e-01 9.789074e-01 0.000000e+00
    outer loop
      vertex   1.936154e-02 4.963257e-02 1.333333e-02
      vertex   1.927023e-02 4.961351e-02 1.066667e-02
      vertex   1.927023e-02 4.961351e-02 1.333333e-02
    endloop
  endfacet
  facet normal -3.883564e-01 9.215092e-01 0.000000e+00
    outer loop
      vertex   1.927023e-02 4.961351e-02 1.066667e-02
      vertex   1.918428e-02 4.957729e-02 1.066667e-02
      vertex   1.927023e-02 4.961351e-02 1.333333e-02
    endloop
  endfacet
  facet normal -8.701470e-01 4.927923e-01 0.000000e+00
    outer loop
      vertex   1.875005e-02 4.907342e-02 8.000000e-03
      vertex   1.875005e-02 4.907342e-02 1.600000e-02
      vertex   1.882201e-02 4.920048e-02 1.200000e-02
    endloop
  endfacet
  facet normal -8.701470e-01 4.927923e-01 1.709717e-15
    outer loop
      vertex   1.882201e-02 4.920048e-02 1.200000e-02
      vertex   1.875005e-02 4.907342e-02 1.600000e-02
      vertex   1.882201e-02 4.920048e-02 1.600000e-02
    endloop
  endfacet
  facet normal -8.347054e-01 5.506968e-01 1.910613e-15
    outer loop
      vertex   1.882201e-02 4.920048e-02 1.200000e-02
      vertex   1.882201e-02 4.920048e-02 1.600000e-02
      vertex   1.890173e-02 4.932132e-02 1.600000e-02
    endloop
  endfacet
  facet normal -8.347054e-01 5.506968e-01 7.256144e-16
    outer loop
      vertex   1.882201e-02 4.920048e-02 1.200000e-02
      vertex   1.890173e-02 4.932132e-02 1.600000e-02
      vertex   1.890173e-02 4.932132e-02 1.200000e-02
    endloop
  endfacet
  facet normal -7.561884e-01 6.543539e-01 6.558889e-16
    outer loop
      vertex   1.890173e-02 4.932132e-02 1.200000e-02
      vertex   1.890173e-02 4.932132e-02 1.600000e-02
      vertex   1.899615e-02 4.943043e-02 1.600000e-02
    endloop
  endfacet
  facet normal -7.561884e-01 6.543539e-01 6.535472e-16
    outer loop
      vertex   1.890173e-02 4.932132e-02 1.200000e-02
      vertex   1.899615e-02 4.943043e-02 1.600000e-02
      vertex   1.899615e-02 4.943043e-02 1.200000e-02
    endloop
  endfacet
  facet normal -6.896802e-01 7.241141e-01 5.982023e-16
    outer loop
      vertex   1.899615e-02 4.943043e-02 1.200000e-02
      vertex   1.899615e-02 4.943043e-02 1.600000e-02
      vertex   1.910152e-02 4.953079e-02 1.600000e-02
    endloop
  endfacet
  facet normal -6.896802e-01 7.241141e-01 0.000000e+00
    outer loop
      vertex   1.899615e-02 4.943043e-02 1.200000e-02
      vertex   1.910152e-02 4.953079e-02 1.600000e-02
      vertex   1.910152e-02 4.953079e-02 8.000000e-03
    endloop
  endfacet
  facet normal -6.896802e-01 7.241141e-01 -5.997308e-16
    outer loop
      vertex   1.910152e-02 4.953079e-02 8.000000e-03
      vertex   1.899615e-02 4.943043e-02 8.000000e-03
      vertex   1.899615e-02 4.943043e-02 1.200000e-02
    endloop
  endfacet
  facet normal -7.561884e-01 6.543539e-01 -6.558889e-16
    outer loop
      vertex   1.899615e-02 4.943043e-02 1.200000e-02
      vertex   1.899615e-02 4.943043e-02 8.000000e-03
      vertex   1.890173e-02 4.932132e-02 8.000000e-03
    endloop
  endfacet
  facet normal -7.561884e-01 6.543539e-01 -6.564136e-16
    outer loop
      vertex   1.899615e-02 4.943043e-02 1.200000e-02
      vertex   1.890173e-02 4.932132e-02 8.000000e-03
      vertex   1.890173e-02 4.932132e-02 1.200000e-02
    endloop
  endfacet
  facet normal -8.347054e-01 5.506968e-01 -7.239915e-16
    outer loop
      vertex   1.890173e-02 4.932132e-02 1.200000e-02
      vertex   1.890173e-02 4.932132e-02 8.000000e-03
      vertex   1.882201e-02 4.920048e-02 8.000000e-03
    endloop
  endfacet
  facet normal -8.347054e-01 5.506968e-01 -1.911165e-15
    outer loop
      vertex   1.890173e-02 4.932132e-02 1.200000e-02
      vertex   1.882201e-02 4.920048e-02 8.000000e-03
      vertex   1.882201e-02 4.920048e-02 1.200000e-02
    endloop
  endfacet
  facet normal -8.701470e-01 4.927923e-01 -1.709717e-15
    outer loop
      vertex   1.882201e-02 4.920048e-02 1.200000e-02
      vertex   1.882201e-02 4.920048e-02 8.000000e-03
      vertex   1.875005e-02 4.907342e-02 8.000000e-03
    endloop
  endfacet
  facet normal 1.000000e+00 0.000000e+00 0.000000e+00
    outer loop
      vertex   1.875005e-02 4.956762e-02 1.600000e-02
      vertex   1.875005e-02 4.907342e-02 1.600000e-02
      vertex   1.875005e-02 4.956762e-02 8.000000e-03
    endloop
  endfacet
  facet normal 1.000000e+00 0.000000e+00 0.000000e+00
    outer loop
      vertex   1.875005e-02 4.956762e-02 8.000000e-03
      vertex   1.875005e-02 4.907342e-02 1.600000e-02
      vertex   1.875005e-02 4.907342e-02 8.000000e-03
    endloop
  endfacet
  facet normal -0.000000e+00 1.000000e+00 0.000000e+00
    outer loop
      vertex   1.825278e-02 4.956762e-02 1.600000e-02
      vertex   1.875005e-02 4.956762e-02 1.600000e-02
      vertex   1.825278e-02 4.956762e-02 8.000000e-03
    endloop
  endfacet
  facet normal 0.000000e+00 1.000000e+00 0.000000e+00
    outer loop
      vertex   1.825278e-02 4.956762e-02 8.000000e-03
      vertex   1.875005e-02 4.956762e-02 1.600000e-02
      vertex   1.875005e-02 4.956762e-02 8.000000e-03
    endloop
  endfacet
  facet normal -1.000000e+00 0.000000e+00 0.000000e+00
    outer loop
      vertex   1.825278e-02 4.630773e-02 1.600000e-02
      vertex   1.825278e-02 4.956762e-02 1.600000e-02
      vertex   1.825278e-02 4.630773e-02 8.000000e-03
    endloop
  endfacet
  facet normal -1.000000e+00 0.000000e+00 0.000000e+00
    outer loop
      vertex   1.825278e-02 4.630773e-02 8.000000e-03
      vertex   1.825278e-02 4.956762e-02 1.600000e-02
      vertex   1.825278e-02 4.956762e-02 8.000000e-03
    endloop
  endfacet
  facet normal -0.000000e+00 -1.000000e+00 -0.000000e+00
    outer loop
      vertex   1.880530e-02 4.630773e-02 1.600000e-02
      vertex   1.825278e-02 4.630773e-02 1.600000e-02
      vertex   1.880530e-02 4.630773e-02 8.000000e-03
    endloop
  endfacet
  facet normal 0.000000e+00 -1.000000e+00 0.000000e+00
    outer loop
      vertex   1.880530e-02 4.630773e-02 8.000000e-03
      vertex   1.825278e-02 4.630773e-02 1.600000e-02
      vertex   1.825278e-02 4.630773e-02 8.000000e-03
    endloop
  endfacet
  facet normal 0.000000e+00 -0.000000e+00 1.000000e+00
    outer loop
      vertex   1.880530e-02 4.630773e-02 1.600000e-02
      vertex   1.880530e-02 4.801441e-02 1.600000e-02
      vertex   1.825278e-02 4.630773e-02 1.600000e-02
    endloop
  endfacet
  facet normal 0.000000e+00 0.000000e+00 1.000000e+00
    outer loop
      vertex   1.825278e-02 4.630773e-02 1.600000e-02
      vertex   1.880530e-02 4.801441e-02 1.600000e-02
      vertex   1.825278e-02 4.956762e-02 1.600000e-02
    endloop
  endfacet
  facet normal 0.000000e+00 0.000000e+00 1.000000e+00
    outer loop
      vertex   1.825278e-02 4.956762e-02 1.600000e-02
      vertex   1.880530e-02 4.801441e-02 1.600000e-02
      vertex   1.881162e-02 4.817799e-02 1.600000e-02
    endloop
  endfacet
  facet normal 0.000000e+00 0.000000e+00 1.000000e+00
    outer loop
      vertex   1.825278e-02 4.956762e-02 1.600000e-02
      vertex   1.881162e-02 4.817799e-02 1.600000e-02
      vertex   1.882685e-02 4.834028e-02 1.600000e-02
    endloop
  endfacet
  facet normal 0.000000e+00 0.000000e+00 1.000000e+00
    outer loop
      vertex   1.825278e-02 4.956762e-02 1.600000e-02
      vertex   1.882685e-02 4.834028e-02 1.600000e-02
      vertex   1.875005e-02 4.907342e-02 1.600000e-02
    endloop
  endfacet
  facet normal 0.000000e+00 0.000000e+00 1.000000e+00
    outer loop
      vertex   1.875005e-02 4.907342e-02 1.600000e-02
      vertex   1.882685e-02 4.834028e-02 1.600000e-02
      vertex   1.885737e-02 4.850034e-02 1.600000e-02
    endloop
  endfacet
  facet normal 0.000000e+00 0.000000e+00 1.000000e+00
    outer loop
      vertex   1.875005e-02 4.907342e-02 1.600000e-02
      vertex   1.885737e-02 4.850034e-02 1.600000e-02
      vertex   1.889739e-02 4.865903e-02 1.600000e-02
    endloop
  endfacet
  facet normal 0.000000e+00 -0.000000e+00 1.000000e+00
    outer loop
      vertex   1.889739e-02 4.865903e-02 1.600000e-02
      vertex   1.893250e-02 4.874582e-02 1.600000e-02
      vertex   1.875005e-02 4.907342e-02 1.600000e-02
    endloop
  endfacet
  facet normal -3.906180e-14 -2.175472e-14 1.000000e+00
    outer loop
      vertex   1.875005e-02 4.907342e-02 1.600000e-02
      vertex   1.893250e-02 4.874582e-02 1.600000e-02
      vertex   1.897631e-02 4.882664e-02 1.600000e-02
    endloop
  endfacet
  facet normal -9.478895e-15 5.368204e-15 1.000000e+00
    outer loop
      vertex   1.875005e-02 4.907342e-02 1.600000e-02
      vertex   1.897631e-02 4.882664e-02 1.600000e-02
      vertex   1.882201e-02 4.920048e-02 1.600000e-02
    endloop
  endfacet
  facet normal 3.203492e-14 2.250320e-14 1.000000e+00
    outer loop
      vertex   1.882201e-02 4.920048e-02 1.600000e-02
      vertex   1.897631e-02 4.882664e-02 1.600000e-02
      vertex   1.903505e-02 4.889719e-02 1.600000e-02
    endloop
  endfacet
  facet normal -0.000000e+00 0.000000e+00 1.000000e+00
    outer loop
      vertex   1.882201e-02 4.920048e-02 1.600000e-02
      vertex   1.903505e-02 4.889719e-02 1.600000e-02
      vertex   1.890173e-02 4.932132e-02 1.600000e-02
    endloop
  endfacet
  facet normal 0.000000e+00 0.000000e+00 1.000000e+00
    outer loop
      vertex   1.890173e-02 4.932132e-02 1.600000e-02
      vertex   1.903505e-02 4.889719e-02 1.600000e-02
      vertex   1.910305e-02 4.896138e-02 1.600000e-02
    endloop
  endfacet
  facet normal -0.000000e+00 0.000000e+00 1.000000e+00
    outer loop
      vertex   1.890173e-02 4.932132e-02 1.600000e-02
      vertex   1.910305e-02 4.896138e-02 1.600000e-02
      vertex   1.899615e-02 4.943043e-02 1.600000e-02
    endloop
  endfacet
  facet normal 0.000000e+00 0.000000e+00 1.000000e+00
    outer loop
      vertex   1.899615e-02 4.943043e-02 1.600000e-02
      vertex   1.910305e-02 4.896138e-02 1.600000e-02
      vertex   1.917811e-02 4.900737e-02 1.600000e-02
    endloop
  endfacet
  facet normal -0.000000e+00 0.000000e+00 1.000000e+00
    outer loop
      vertex   1.899615e-02 4.943043e-02 1.600000e-02
      vertex   1.917811e-02 4.900737e-02 1.600000e-02
      vertex   1.910152e-02 4.953079e-02 1.600000e-02
    endloop
  endfacet
  facet normal -4.143928e-14 -6.064298e-15 1.000000e+00
    outer loop
      vertex   1.910152e-02 4.953079e-02 1.600000e-02
      vertex   1.917811e-02 4.900737e-02 1.600000e-02
      vertex   1.925660e-02 4.904313e-02 1.600000e-02
    endloop
  endfacet
  facet normal -3.391372e-15 6.036009e-15 1.000000e+00
    outer loop
      vertex   1.910152e-02 4.953079e-02 1.600000e-02
      vertex   1.925660e-02 4.904313e-02 1.600000e-02
      vertex   1.918428e-02 4.957729e-02 1.600000e-02
    endloop
  endfacet
  facet normal -2.589542e-15 6.144581e-15 1.000000e+00
    outer loop
      vertex   1.918428e-02 4.957729e-02 1.600000e-02
      vertex   1.925660e-02 4.904313e-02 1.600000e-02
      vertex   1.927023e-02 4.961351e-02 1.600000e-02
    endloop
  endfacet
  facet normal 4.006579e-14 5.125233e-15 1.000000e+00
    outer loop
      vertex   1.927023e-02 4.961351e-02 1.600000e-02
      vertex   1.925660e-02 4.904313e-02 1.600000e-02
      vertex   1.934080e-02 4.906185e-02 1.600000e-02
    endloop
  endfacet
  facet normal -0.000000e+00 0.000000e+00 1.000000e+00
    outer loop
      vertex   1.927023e-02 4.961351e-02 1.600000e-02
      vertex   1.934080e-02 4.906185e-02 1.600000e-02
      vertex   1.936154e-02 4.963257e-02 1.600000e-02
    endloop
  endfacet
  facet normal 0.000000e+00 0.000000e+00 1.000000e+00
    outer loop
      vertex   1.936154e-02 4.963257e-02 1.600000e-02
      vertex   1.934080e-02 4.906185e-02 1.600000e-02
      vertex   1.942843e-02 4.907035e-02 1.600000e-02
    endloop
  endfacet
  facet normal -0.000000e+00 0.000000e+00 1.000000e+00
    outer loop
      vertex   1.936154e-02 4.963257e-02 1.600000e-02
      vertex   1.942843e-02 4.907035e-02 1.600000e-02
      vertex   1.945605e-02 4.964129e-02 1.600000e-02
    endloop
  endfacet
  facet normal 0.000000e+00 0.000000e+00 1.000000e+00
    outer loop
      vertex   1.945605e-02 4.964129e-02 1.600000e-02
      vertex   1.942843e-02 4.907035e-02 1.600000e-02
      vertex   1.953528e-02 4.905961e-02 1.600000e-02
    endloop
  endfacet
  facet normal 0.000000e+00 0.000000e+00 1.000000e+00
    outer loop
      vertex   1.945605e-02 4.964129e-02 1.600000e-02
      vertex   1.953528e-02 4.905961e-02 1.600000e-02
      vertex   1.960655e-02 4.962470e-02 1.600000e-02
    endloop
  endfacet
  facet normal 0.000000e+00 0.000000e+00 1.000000e+00
    outer loop
      vertex   1.960655e-02 4.962470e-02 1.600000e-02
      vertex   1.953528e-02 4.905961e-02 1.600000e-02
      vertex   1.963901e-02 4.903808e-02 1.600000e-02
    endloop
  endfacet
  facet normal -2.411511e-14 -1.334210e-15 1.000000e+00
    outer loop
      vertex   1.960655e-02 4.962470e-02 1.600000e-02
      vertex   1.963901e-02 4.903808e-02 1.600000e-02
      vertex   1.975222e-02 4.959229e-02 1.600000e-02
    endloop
  endfacet
  facet normal -2.274040e-15 -5.795736e-15 1.000000e+00
    outer loop
      vertex   1.975222e-02 4.959229e-02 1.600000e-02
      vertex   1.963901e-02 4.903808e-02 1.600000e-02
      vertex   1.973775e-02 4.899934e-02 1.600000e-02
    endloop
  endfacet
  facet normal 2.247445e-14 -6.399485e-15 1.000000e+00
    outer loop
      vertex   1.975222e-02 4.959229e-02 1.600000e-02
      vertex   1.973775e-02 4.899934e-02 1.600000e-02
      vertex   1.989025e-02 4.953492e-02 1.600000e-02
    endloop
  endfacet
  facet normal 0.000000e+00 0.000000e+00 1.000000e+00
    outer loop
      vertex   1.989025e-02 4.953492e-02 1.600000e-02
      vertex   1.973775e-02 4.899934e-02 1.600000e-02
      vertex   1.983361e-02 4.895064e-02 1.600000e-02
    endloop
  endfacet
  facet normal 0.000000e+00 0.000000e+00 1.000000e+00
    outer loop
      vertex   1.989025e-02 4.953492e-02 1.600000e-02
      vertex   1.983361e-02 4.895064e-02 1.600000e-02
      vertex   2.002392e-02 4.946325e-02 1.600000e-02
    endloop
  endfacet
  facet normal 0.000000e+00 -0.000000e+00 1.000000e+00
    outer loop
      vertex   1.875005e-02 4.907342e-02 1.600000e-02
      vertex   1.875005e-02 4.956762e-02 1.600000e-02
      vertex   1.825278e-02 4.956762e-02 1.600000e-02
    endloop
  endfacet
  facet normal 0.000000e+00 0.000000e+00 -1.000000e+00
    outer loop
      vertex   1.880530e-02 4.630773e-02 8.000000e-03
      vertex   1.825278e-02 4.630773e-02 8.000000e-03
      vertex   1.880530e-02 4.801441e-02 8.000000e-03
    endloop
  endfacet
  facet normal -0.000000e+00 0.000000e+00 -1.000000e+00
    outer loop
      vertex   1.880530e-02 4.801441e-02 8.000000e-03
      vertex   1.825278e-02 4.630773e-02 8.000000e-03
      vertex   1.825278e-02 4.956762e-02 8.000000e-03
    endloop
  endfacet
  facet normal 0.000000e+00 0.000000e+00 -1.000000e+00
    outer loop
      vertex   1.880530e-02 4.801441e-02 8.000000e-03
      vertex   1.825278e-02 4.956762e-02 8.000000e-03
      vertex   1.881162e-02 4.817799e-02 8.000000e-03
    endloop
  endfacet
  facet normal 0.000000e+00 0.000000e+00 -1.000000e+00
    outer loop
      vertex   1.881162e-02 4.817799e-02 8.000000e-03
      vertex   1.825278e-02 4.956762e-02 8.000000e-03
      vertex   1.882685e-02 4.834028e-02 8.000000e-03
    endloop
  endfacet
  facet normal 0.000000e+00 0.000000e+00 -1.000000e+00
    outer loop
      vertex   1.882685e-02 4.834028e-02 8.000000e-03
      vertex   1.825278e-02 4.956762e-02 8.000000e-03
      vertex   1.875005e-02 4.907342e-02 8.000000e-03
    endloop
  endfacet
  facet normal 0.000000e+00 0.000000e+00 -1.000000e+00
    outer loop
      vertex   1.882685e-02 4.834028e-02 8.000000e-03
      vertex   1.875005e-02 4.907342e-02 8.000000e-03
      vertex   1.885737e-02 4.850034e-02 8.000000e-03
    endloop
  endfacet
  facet normal 0.000000e+00 0.000000e+00 -1.000000e+00
    outer loop
      vertex   1.885737e-02 4.850034e-02 8.000000e-03
      vertex   1.875005e-02 4.907342e-02 8.000000e-03
      vertex   1.889739e-02 4.865903e-02 8.000000e-03
    endloop
  endfacet
  facet normal 0.000000e+00 0.000000e+00 -1.000000e+00
    outer loop
      vertex   1.889739e-02 4.865903e-02 8.000000e-03
      vertex   1.875005e-02 4.907342e-02 8.000000e-03
      vertex   1.893250e-02 4.874582e-02 8.000000e-03
    endloop
  endfacet
  facet normal 1.953090e-14 1.087736e-14 -1.000000e+00
    outer loop
      vertex   1.893250e-02 4.874582e-02 8.000000e-03
      vertex   1.875005e-02 4.907342e-02 8.000000e-03
      vertex   1.897631e-02 4.882664e-02 8.000000e-03
    endloop
  endfacet
  facet normal 4.739447e-15 -2.684102e-15 -1.000000e+00
    outer loop
      vertex   1.897631e-02 4.882664e-02 8.000000e-03
      vertex   1.875005e-02 4.907342e-02 8.000000e-03
      vertex   1.882201e-02 4.920048e-02 8.000000e-03
    endloop
  endfacet
  facet normal -1.601746e-14 -1.125160e-14 -1.000000e+00
    outer loop
      vertex   1.897631e-02 4.882664e-02 8.000000e-03
      vertex   1.882201e-02 4.920048e-02 8.000000e-03
      vertex   1.903505e-02 4.889719e-02 8.000000e-03
    endloop
  endfacet
  facet normal 0.000000e+00 0.000000e+00 -1.000000e+00
    outer loop
      vertex   1.903505e-02 4.889719e-02 8.000000e-03
      vertex   1.882201e-02 4.920048e-02 8.000000e-03
      vertex   1.890173e-02 4.932132e-02 8.000000e-03
    endloop
  endfacet
  facet normal 0.000000e+00 0.000000e+00 -1.000000e+00
    outer loop
      vertex   1.903505e-02 4.889719e-02 8.000000e-03
      vertex   1.890173e-02 4.932132e-02 8.000000e-03
      vertex   1.910305e-02 4.896138e-02 8.000000e-03
    endloop
  endfacet
  facet normal 0.000000e+00 0.000000e+00 -1.000000e+00
    outer loop
      vertex   1.910305e-02 4.896138e-02 8.000000e-03
      vertex   1.890173e-02 4.932132e-02 8.000000e-03
      vertex   1.899615e-02 4.943043e-02 8.000000e-03
    endloop
  endfacet
  facet normal 0.000000e+00 0.000000e+00 -1.000000e+00
    outer loop
      vertex   1.910305e-02 4.896138e-02 8.000000e-03
      vertex   1.899615e-02 4.943043e-02 8.000000e-03
      vertex   1.917811e-02 4.900737e-02 8.000000e-03
    endloop
  endfacet
  facet normal 0.000000e+00 0.000000e+00 -1.000000e+00
    outer loop
      vertex   1.917811e-02 4.900737e-02 8.000000e-03
      vertex   1.899615e-02 4.943043e-02 8.000000e-03
      vertex   1.910152e-02 4.953079e-02 8.000000e-03
    endloop
  endfacet
  facet normal 2.071964e-14 3.032149e-15 -1.000000e+00
    outer loop
      vertex   1.917811e-02 4.900737e-02 8.000000e-03
      vertex   1.910152e-02 4.953079e-02 8.000000e-03
      vertex   1.925660e-02 4.904313e-02 8.000000e-03
    endloop
  endfacet
  facet normal 1.695686e-15 -3.018004e-15 -1.000000e+00
    outer loop
      vertex   1.925660e-02 4.904313e-02 8.000000e-03
      vertex   1.910152e-02 4.953079e-02 8.000000e-03
      vertex   1.918428e-02 4.957729e-02 8.000000e-03
    endloop
  endfacet
  facet normal 1.294771e-15 -3.072290e-15 -1.000000e+00
    outer loop
      vertex   1.925660e-02 4.904313e-02 8.000000e-03
      vertex   1.918428e-02 4.957729e-02 8.000000e-03
      vertex   1.927023e-02 4.961351e-02 8.000000e-03
    endloop
  endfacet
  facet normal 0.000000e+00 0.000000e+00 -1.000000e+00
    outer loop
      vertex   1.825278e-02 4.956762e-02 8.000000e-03
      vertex   1.875005e-02 4.956762e-02 8.000000e-03
      vertex   1.875005e-02 4.907342e-02 8.000000e-03
    endloop
  endfacet
  facet normal -2.003289e-14 -2.562617e-15 -1.000000e+00
    outer loop
      vertex   1.925660e-02 4.904313e-02 8.000000e-03
      vertex   1.927023e-02 4.961351e-02 8.000000e-03
      vertex   1.934080e-02 4.906185e-02 8.000000e-03
    endloop
  endfacet
  facet normal 0.000000e+00 0.000000e+00 -1.000000e+00
    outer loop
      vertex   1.934080e-02 4.906185e-02 8.000000e-03
      vertex   1.927023e-02 4.961351e-02 8.000000e-03
      vertex   1.936154e-02 4.963257e-02 8.000000e-03
    endloop
  endfacet
  facet normal 0.000000e+00 0.000000e+00 -1.000000e+00
    outer loop
      vertex   1.934080e-02 4.906185e-02 8.000000e-03
      vertex   1.936154e-02 4.963257e-02 8.000000e-03
      vertex   1.942843e-02 4.907035e-02 8.000000e-03
    endloop
  endfacet
  facet normal 0.000000e+00 0.000000e+00 -1.000000e+00
    outer loop
      vertex   1.942843e-02 4.907035e-02 8.000000e-03
      vertex   1.936154e-02 4.963257e-02 8.000000e-03
      vertex   1.945605e-02 4.964129e-02 8.000000e-03
    endloop
  endfacet
  facet normal 0.000000e+00 0.000000e+00 -1.000000e+00
    outer loop
      vertex   1.942843e-02 4.907035e-02 8.000000e-03
      vertex   1.945605e-02 4.964129e-02 8.000000e-03
      vertex   1.953528e-02 4.905961e-02 8.000000e-03
    endloop
  endfacet
  facet normal 0.000000e+00 0.000000e+00 -1.000000e+00
    outer loop
      vertex   1.953528e-02 4.905961e-02 8.000000e-03
      vertex   1.945605e-02 4.964129e-02 8.000000e-03
      vertex   1.960655e-02 4.962470e-02 8.000000e-03
    endloop
  endfacet
  facet normal 0.000000e+00 0.000000e+00 -1.000000e+00
    outer loop
      vertex   1.953528e-02 4.905961e-02 8.000000e-03
      vertex   1.960655e-02 4.962470e-02 8.000000e-03
      vertex   1.963901e-02 4.903808e-02 8.000000e-03
    endloop
  endfacet
  facet normal 1.205756e-14 6.671048e-16 -1.000000e+00
    outer loop
      vertex   1.963901e-02 4.903808e-02 8.000000e-03
      vertex   1.960655e-02 4.962470e-02 8.000000e-03
      vertex   1.975222e-02 4.959229e-02 8.000000e-03
    endloop
  endfacet
  facet normal 1.137020e-15 2.897868e-15 -1.000000e+00
    outer loop
      vertex   1.963901e-02 4.903808e-02 8.000000e-03
      vertex   1.975222e-02 4.959229e-02 8.000000e-03
      vertex   1.973775e-02 4.899934e-02 8.000000e-03
    endloop
  endfacet
  facet normal -1.123722e-14 3.199742e-15 -1.000000e+00
    outer loop
      vertex   1.973775e-02 4.899934e-02 8.000000e-03
      vertex   1.975222e-02 4.959229e-02 8.000000e-03
      vertex   1.989025e-02 4.953492e-02 8.000000e-03
    endloop
  endfacet
  facet normal 0.000000e+00 0.000000e+00 -1.000000e+00
    outer loop
      vertex   1.973775e-02 4.899934e-02 8.000000e-03
      vertex   1.989025e-02 4.953492e-02 8.000000e-03
      vertex   1.983361e-02 4.895064e-02 8.000000e-03
    endloop
  endfacet
  facet normal 0.000000e+00 0.000000e+00 -1.000000e+00
    outer loop
      vertex   1.983361e-02 4.895064e-02 8.000000e-03
      vertex   1.989025e-02 4.953492e-02 8.000000e-03
      vertex   2.002392e-02 4.946325e-02 8.000000e-03
    endloop
  endfacet
endsolid
