solid ASCII
  facet normal 1.222886e-01 -9.924946e-01 0.000000e+00
    outer loop
      vertex   2.512054e-02 1.834011e-02 1.600000e-02
      vertex   2.492022e-02 1.831543e-02 1.600000e-02
      vertex   2.512054e-02 1.834011e-02 8.000000e-03
    endloop
  endfacet
  facet normal 1.222886e-01 -9.924946e-01 0.000000e+00
    outer loop
      vertex   2.512054e-02 1.834011e-02 8.000000e-03
      vertex   2.492022e-02 1.831543e-02 1.600000e-02
      vertex   2.492022e-02 1.831543e-02 8.000000e-03
    endloop
  endfacet
  facet normal 2.795382e-01 -9.601346e-01 0.000000e+00
    outer loop
      vertex   2.492022e-02 1.831543e-02 8.000000e-03
      vertex   2.492022e-02 1.831543e-02 1.600000e-02
      vertex   2.473331e-02 1.826101e-02 1.600000e-02
    endloop
  endfacet
  facet normal 2.795382e-01 -9.601346e-01 0.000000e+00
    outer loop
      vertex   2.492022e-02 1.831543e-02 8.000000e-03
      vertex   2.473331e-02 1.826101e-02 1.600000e-02
      vertex   2.473331e-02 1.826101e-02 8.000000e-03
    endloop
  endfacet
  facet normal 5.343604e-01 -8.452568e-01 0.000000e+00
    outer loop
      vertex   2.473331e-02 1.826101e-02 8.000000e-03
      vertex   2.473331e-02 1.826101e-02 1.600000e-02
      vertex   2.456878e-02 1.815699e-02 1.600000e-02
    endloop
  endfacet
  facet normal 5.343604e-01 -8.452568e-01 0.000000e+00
    outer loop
      vertex   2.473331e-02 1.826101e-02 8.000000e-03
      vertex   2.456878e-02 1.815699e-02 1.600000e-02
      vertex   2.456878e-02 1.815699e-02 8.000000e-03
    endloop
  endfacet
  facet normal 6.629518e-01 -7.486621e-01 0.000000e+00
    outer loop
      vertex   2.456878e-02 1.815699e-02 8.000000e-03
      vertex   2.456878e-02 1.815699e-02 1.600000e-02
      vertex   2.441768e-02 1.802319e-02 1.600000e-02
    endloop
  endfacet
  facet normal 6.629518e-01 -7.486621e-01 0.000000e+00
    outer loop
      vertex   2.456878e-02 1.815699e-02 8.000000e-03
      vertex   2.441768e-02 1.802319e-02 1.600000e-02
      vertex   2.441768e-02 1.802319e-02 8.000000e-03
    endloop
  endfacet
  facet normal -6.657053e-01 -7.462148e-01 -0.000000e+00
    outer loop
      vertex   2.581870e-02 1.802162e-02 1.600000e-02
      vertex   2.566878e-02 1.815537e-02 1.600000e-02
      vertex   2.581870e-02 1.802162e-02 8.000000e-03
    endloop
  endfacet
  facet normal -6.657053e-01 -7.462148e-01 0.000000e+00
    outer loop
      vertex   2.581870e-02 1.802162e-02 8.000000e-03
      vertex   2.566878e-02 1.815537e-02 1.600000e-02
      vertex   2.566878e-02 1.815537e-02 8.000000e-03
    endloop
  endfacet
  facet normal -5.383824e-01 -8.427006e-01 0.000000e+00
    outer loop
      vertex   2.566878e-02 1.815537e-02 8.000000e-03
      vertex   2.566878e-02 1.815537e-02 1.600000e-02
      vertex   2.550548e-02 1.825970e-02 1.600000e-02
    endloop
  endfacet
  facet normal -5.383824e-01 -8.427006e-01 0.000000e+00
    outer loop
      vertex   2.566878e-02 1.815537e-02 8.000000e-03
      vertex   2.550548e-02 1.825970e-02 1.600000e-02
      vertex   2.550548e-02 1.825970e-02 8.000000e-03
    endloop
  endfacet
  facet normal -2.842524e-01 -9.587495e-01 0.000000e+00
    outer loop
      vertex   2.550548e-02 1.825970e-02 8.000000e-03
      vertex   2.550548e-02 1.825970e-02 1.600000e-02
      vertex   2.531977e-02 1.831476e-02 1.600000e-02
    endloop
  endfacet
  facet normal -2.842524e-01 -9.587495e-01 0.000000e+00
    outer loop
      vertex   2.550548e-02 1.825970e-02 8.000000e-03
      vertex   2.531977e-02 1.831476e-02 1.600000e-02
      vertex   2.531977e-02 1.831476e-02 8.000000e-03
    endloop
  endfacet
  facet normal -1.262257e-01 -9.920016e-01 0.000000e+00
    outer loop
      vertex   2.531977e-02 1.831476e-02 8.000000e-03
      vertex   2.531977e-02 1.831476e-02 1.600000e-02
      vertex   2.512054e-02 1.834011e-02 1.600000e-02
    endloop
  endfacet
  facet normal -1.262257e-01 -9.920016e-01 0.000000e+00
    outer loop
      vertex   2.531977e-02 1.831476e-02 8.000000e-03
      vertex   2.512054e-02 1.834011e-02 1.600000e-02
      vertex   2.512054e-02 1.834011e-02 8.000000e-03
    endloop
  endfacet
  facet normal -9.986450e-01 -5.203922e-02 -0.000000e+00
    outer loop
      vertex   2.609953e-02 1.708499e-02 1.600000e-02
      vertex   2.608638e-02 1.733743e-02 1.600000e-02
      vertex   2.609953e-02 1.708499e-02 8.000000e-03
    endloop
  endfacet
  facet normal -9.986450e-01 -5.203922e-02 0.000000e+00
    outer loop
      vertex   2.609953e-02 1.708499e-02 8.000000e-03
      vertex   2.608638e-02 1.733743e-02 1.600000e-02
      vertex   2.608638e-02 1.733743e-02 8.000000e-03
    endloop
  endfacet
  facet normal -9.852503e-01 -1.711192e-01 0.000000e+00
    outer loop
      vertex   2.608638e-02 1.733743e-02 8.000000e-03
      vertex   2.608638e-02 1.733743e-02 1.600000e-02
      vertex   2.604415e-02 1.758055e-02 1.600000e-02
    endloop
  endfacet
  facet normal -9.852503e-01 -1.711192e-01 0.000000e+00
    outer loop
      vertex   2.608638e-02 1.733743e-02 8.000000e-03
      vertex   2.604415e-02 1.758055e-02 1.600000e-02
      vertex   2.604415e-02 1.758055e-02 8.000000e-03
    endloop
  endfacet
  facet normal -9.221122e-01 -3.869227e-01 0.000000e+00
    outer loop
      vertex   2.604415e-02 1.758055e-02 8.000000e-03
      vertex   2.604415e-02 1.758055e-02 1.600000e-02
      vertex   2.594922e-02 1.780679e-02 1.600000e-02
    endloop
  endfacet
  facet normal -9.221122e-01 -3.869227e-01 0.000000e+00
    outer loop
      vertex   2.604415e-02 1.758055e-02 8.000000e-03
      vertex   2.594922e-02 1.780679e-02 1.600000e-02
      vertex   2.594922e-02 1.780679e-02 8.000000e-03
    endloop
  endfacet
  facet normal -8.546325e-01 -5.192334e-01 0.000000e+00
    outer loop
      vertex   2.594922e-02 1.780679e-02 8.000000e-03
      vertex   2.594922e-02 1.780679e-02 1.600000e-02
      vertex   2.581870e-02 1.802162e-02 1.600000e-02
    endloop
  endfacet
  facet normal -8.546325e-01 -5.192334e-01 0.000000e+00
    outer loop
      vertex   2.594922e-02 1.780679e-02 8.000000e-03
      vertex   2.581870e-02 1.802162e-02 1.600000e-02
      vertex   2.581870e-02 1.802162e-02 8.000000e-03
    endloop
  endfacet
  facet normal -8.627572e-01 5.056184e-01 0.000000e+00
    outer loop
      vertex   2.582027e-02 1.610914e-02 1.600000e-02
      vertex   2.595202e-02 1.633395e-02 1.600000e-02
      vertex   2.582027e-02 1.610914e-02 8.000000e-03
    endloop
  endfacet
  facet normal -8.627572e-01 5.056184e-01 0.000000e+00
    outer loop
      vertex   2.582027e-02 1.610914e-02 8.000000e-03
      vertex   2.595202e-02 1.633395e-02 1.600000e-02
      vertex   2.595202e-02 1.633395e-02 8.000000e-03
    endloop
  endfacet
  facet normal -9.281322e-01 3.722508e-01 0.000000e+00
    outer loop
      vertex   2.595202e-02 1.633395e-02 8.000000e-03
      vertex   2.595202e-02 1.633395e-02 1.600000e-02
      vertex   2.604677e-02 1.657020e-02 1.600000e-02
    endloop
  endfacet
  facet normal -9.281322e-01 3.722508e-01 0.000000e+00
    outer loop
      vertex   2.595202e-02 1.633395e-02 8.000000e-03
      vertex   2.604677e-02 1.657020e-02 1.600000e-02
      vertex   2.604677e-02 1.657020e-02 8.000000e-03
    endloop
  endfacet
  facet normal -9.870788e-01 1.602353e-01 0.000000e+00
    outer loop
      vertex   2.604677e-02 1.657020e-02 8.000000e-03
      vertex   2.604677e-02 1.657020e-02 1.600000e-02
      vertex   2.608782e-02 1.682306e-02 1.600000e-02
    endloop
  endfacet
  facet normal -9.870788e-01 1.602353e-01 0.000000e+00
    outer loop
      vertex   2.604677e-02 1.657020e-02 8.000000e-03
      vertex   2.608782e-02 1.682306e-02 1.600000e-02
      vertex   2.608782e-02 1.682306e-02 8.000000e-03
    endloop
  endfacet
  facet normal -9.990019e-01 4.466747e-02 0.000000e+00
    outer loop
      vertex   2.608782e-02 1.682306e-02 8.000000e-03
      vertex   2.608782e-02 1.682306e-02 1.600000e-02
      vertex   2.609953e-02 1.708499e-02 1.600000e-02
    endloop
  endfacet
  facet normal -9.990019e-01 4.466747e-02 0.000000e+00
    outer loop
      vertex   2.608782e-02 1.682306e-02 8.000000e-03
      vertex   2.609953e-02 1.708499e-02 1.600000e-02
      vertex   2.609953e-02 1.708499e-02 8.000000e-03
    endloop
  endfacet
  facet normal -1.254556e-01 9.920992e-01 0.000000e+00
    outer loop
      vertex   2.512054e-02 1.578909e-02 1.600000e-02
      vertex   2.532046e-02 1.581437e-02 1.600000e-02
      vertex   2.512054e-02 1.578909e-02 8.000000e-03
    endloop
  endfacet
  facet normal -1.254556e-01 9.920992e-01 0.000000e+00
    outer loop
      vertex   2.512054e-02 1.578909e-02 8.000000e-03
      vertex   2.532046e-02 1.581437e-02 1.600000e-02
      vertex   2.532046e-02 1.581437e-02 8.000000e-03
    endloop
  endfacet
  facet normal -2.841361e-01 9.587840e-01 0.000000e+00
    outer loop
      vertex   2.532046e-02 1.581437e-02 8.000000e-03
      vertex   2.532046e-02 1.581437e-02 1.600000e-02
      vertex   2.550673e-02 1.586957e-02 1.600000e-02
    endloop
  endfacet
  facet normal -2.841361e-01 9.587840e-01 0.000000e+00
    outer loop
      vertex   2.532046e-02 1.581437e-02 8.000000e-03
      vertex   2.550673e-02 1.586957e-02 1.600000e-02
      vertex   2.550673e-02 1.586957e-02 8.000000e-03
    endloop
  endfacet
  facet normal -5.399161e-01 8.417188e-01 0.000000e+00
    outer loop
      vertex   2.550673e-02 1.586957e-02 8.000000e-03
      vertex   2.550673e-02 1.586957e-02 1.600000e-02
      vertex   2.567029e-02 1.597448e-02 1.600000e-02
    endloop
  endfacet
  facet normal -5.399161e-01 8.417188e-01 0.000000e+00
    outer loop
      vertex   2.550673e-02 1.586957e-02 8.000000e-03
      vertex   2.567029e-02 1.597448e-02 1.600000e-02
      vertex   2.567029e-02 1.597448e-02 8.000000e-03
    endloop
  endfacet
  facet normal -6.680783e-01 7.440910e-01 0.000000e+00
    outer loop
      vertex   2.567029e-02 1.597448e-02 8.000000e-03
      vertex   2.567029e-02 1.597448e-02 1.600000e-02
      vertex   2.582027e-02 1.610914e-02 1.600000e-02
    endloop
  endfacet
  facet normal -6.680783e-01 7.440910e-01 0.000000e+00
    outer loop
      vertex   2.567029e-02 1.597448e-02 8.000000e-03
      vertex   2.582027e-02 1.610914e-02 1.600000e-02
      vertex   2.582027e-02 1.610914e-02 8.000000e-03
    endloop
  endfacet
  facet normal 6.649721e-01 7.468682e-01 0.000000e+00
    outer loop
      vertex   2.441768e-02 1.610757e-02 1.600000e-02
      vertex   2.456859e-02 1.597321e-02 1.600000e-02
      vertex   2.441768e-02 1.610757e-02 8.000000e-03
    endloop
  endfacet
  facet normal 6.649721e-01 7.468682e-01 0.000000e+00
    outer loop
      vertex   2.441768e-02 1.610757e-02 8.000000e-03
      vertex   2.456859e-02 1.597321e-02 1.600000e-02
      vertex   2.456859e-02 1.597321e-02 8.000000e-03
    endloop
  endfacet
  facet normal 5.363611e-01 8.439886e-01 -0.000000e+00
    outer loop
      vertex   2.456859e-02 1.597321e-02 8.000000e-03
      vertex   2.456859e-02 1.597321e-02 1.600000e-02
      vertex   2.473303e-02 1.586870e-02 1.600000e-02
    endloop
  endfacet
  facet normal 5.363611e-01 8.439886e-01 0.000000e+00
    outer loop
      vertex   2.456859e-02 1.597321e-02 8.000000e-03
      vertex   2.473303e-02 1.586870e-02 1.600000e-02
      vertex   2.473303e-02 1.586870e-02 8.000000e-03
    endloop
  endfacet
  facet normal 2.809429e-01 9.597245e-01 -0.000000e+00
    outer loop
      vertex   2.473303e-02 1.586870e-02 8.000000e-03
      vertex   2.473303e-02 1.586870e-02 1.600000e-02
      vertex   2.492002e-02 1.581397e-02 1.600000e-02
    endloop
  endfacet
  facet normal 2.809429e-01 9.597245e-01 0.000000e+00
    outer loop
      vertex   2.473303e-02 1.586870e-02 8.000000e-03
      vertex   2.492002e-02 1.581397e-02 1.600000e-02
      vertex   2.492002e-02 1.581397e-02 8.000000e-03
    endloop
  endfacet
  facet normal 1.231321e-01 9.923903e-01 -0.000000e+00
    outer loop
      vertex   2.492002e-02 1.581397e-02 8.000000e-03
      vertex   2.492002e-02 1.581397e-02 1.600000e-02
      vertex   2.512054e-02 1.578909e-02 1.600000e-02
    endloop
  endfacet
  facet normal 1.231321e-01 9.923903e-01 0.000000e+00
    outer loop
      vertex   2.492002e-02 1.581397e-02 8.000000e-03
      vertex   2.512054e-02 1.578909e-02 1.600000e-02
      vertex   2.512054e-02 1.578909e-02 8.000000e-03
    endloop
  endfacet
  facet normal 9.988796e-01 4.732308e-02 0.000000e+00
    outer loop
      vertex   2.413841e-02 1.706617e-02 1.600000e-02
      vertex   2.415062e-02 1.680846e-02 1.600000e-02
      vertex   2.413841e-02 1.706617e-02 8.000000e-03
    endloop
  endfacet
  facet normal 9.988796e-01 4.732308e-02 0.000000e+00
    outer loop
      vertex   2.413841e-02 1.706617e-02 8.000000e-03
      vertex   2.415062e-02 1.680846e-02 1.600000e-02
      vertex   2.415062e-02 1.680846e-02 8.000000e-03
    endloop
  endfacet
  facet normal 9.864177e-01 1.642562e-01 -0.000000e+00
    outer loop
      vertex   2.415062e-02 1.680846e-02 8.000000e-03
      vertex   2.415062e-02 1.680846e-02 1.600000e-02
      vertex   2.419201e-02 1.655990e-02 1.600000e-02
    endloop
  endfacet
  facet normal 9.864177e-01 1.642562e-01 0.000000e+00
    outer loop
      vertex   2.415062e-02 1.680846e-02 8.000000e-03
      vertex   2.419201e-02 1.655990e-02 1.600000e-02
      vertex   2.419201e-02 1.655990e-02 8.000000e-03
    endloop
  endfacet
  facet normal 9.258655e-01 3.778532e-01 -0.000000e+00
    outer loop
      vertex   2.419201e-02 1.655990e-02 8.000000e-03
      vertex   2.419201e-02 1.655990e-02 1.600000e-02
      vertex   2.428664e-02 1.632803e-02 1.600000e-02
    endloop
  endfacet
  facet normal 9.258655e-01 3.778532e-01 0.000000e+00
    outer loop
      vertex   2.419201e-02 1.655990e-02 8.000000e-03
      vertex   2.428664e-02 1.632803e-02 1.600000e-02
      vertex   2.428664e-02 1.632803e-02 8.000000e-03
    endloop
  endfacet
  facet normal 8.596117e-01 5.109479e-01 -0.000000e+00
    outer loop
      vertex   2.428664e-02 1.632803e-02 8.000000e-03
      vertex   2.428664e-02 1.632803e-02 1.600000e-02
      vertex   2.441768e-02 1.610757e-02 1.600000e-02
    endloop
  endfacet
  facet normal 8.596117e-01 5.109479e-01 0.000000e+00
    outer loop
      vertex   2.428664e-02 1.632803e-02 8.000000e-03
      vertex   2.441768e-02 1.610757e-02 1.600000e-02
      vertex   2.441768e-02 1.610757e-02 8.000000e-03
    endloop
  endfacet
  facet normal 8.589562e-01 -5.120490e-01 0.000000e+00
    outer loop
      vertex   2.441768e-02 1.802319e-02 1.600000e-02
      vertex   2.428654e-02 1.780321e-02 1.600000e-02
      vertex   2.441768e-02 1.802319e-02 8.000000e-03
    endloop
  endfacet
  facet normal 8.589562e-01 -5.120490e-01 0.000000e+00
    outer loop
      vertex   2.441768e-02 1.802319e-02 8.000000e-03
      vertex   2.428654e-02 1.780321e-02 1.600000e-02
      vertex   2.428654e-02 1.780321e-02 8.000000e-03
    endloop
  endfacet
  facet normal 9.256019e-01 -3.784984e-01 0.000000e+00
    outer loop
      vertex   2.428654e-02 1.780321e-02 8.000000e-03
      vertex   2.428654e-02 1.780321e-02 1.600000e-02
      vertex   2.419189e-02 1.757175e-02 1.600000e-02
    endloop
  endfacet
  facet normal 9.256019e-01 -3.784984e-01 0.000000e+00
    outer loop
      vertex   2.428654e-02 1.780321e-02 8.000000e-03
      vertex   2.419189e-02 1.757175e-02 1.600000e-02
      vertex   2.419189e-02 1.757175e-02 8.000000e-03
    endloop
  endfacet
  facet normal 9.864115e-01 -1.642936e-01 0.000000e+00
    outer loop
      vertex   2.419189e-02 1.757175e-02 8.000000e-03
      vertex   2.419189e-02 1.757175e-02 1.600000e-02
      vertex   2.415055e-02 1.732355e-02 1.600000e-02
    endloop
  endfacet
  facet normal 9.864115e-01 -1.642936e-01 0.000000e+00
    outer loop
      vertex   2.419189e-02 1.757175e-02 8.000000e-03
      vertex   2.415055e-02 1.732355e-02 1.600000e-02
      vertex   2.415055e-02 1.732355e-02 8.000000e-03
    endloop
  endfacet
  facet normal 9.988900e-01 -4.710387e-02 0.000000e+00
    outer loop
      vertex   2.415055e-02 1.732355e-02 8.000000e-03
      vertex   2.415055e-02 1.732355e-02 1.600000e-02
      vertex   2.413841e-02 1.706617e-02 1.600000e-02
    endloop
  endfacet
  facet normal 9.988900e-01 -4.710387e-02 0.000000e+00
    outer loop
      vertex   2.415055e-02 1.732355e-02 8.000000e-03
      vertex   2.413841e-02 1.706617e-02 1.600000e-02
      vertex   2.413841e-02 1.706617e-02 8.000000e-03
    endloop
  endfacet
  facet normal -9.651931e-02 -9.953311e-01 -0.000000e+00
    outer loop
      vertex   2.512054e-02 1.532469e-02 1.600000e-02
      vertex   2.480474e-02 1.535532e-02 1.600000e-02
      vertex   2.512054e-02 1.532469e-02 8.000000e-03
    endloop
  endfacet
  facet normal -9.651931e-02 -9.953311e-01 0.000000e+00
    outer loop
      vertex   2.512054e-02 1.532469e-02 8.000000e-03
      vertex   2.480474e-02 1.535532e-02 1.600000e-02
      vertex   2.480474e-02 1.535532e-02 8.000000e-03
    endloop
  endfacet
  facet normal -2.410889e-01 -9.705030e-01 0.000000e+00
    outer loop
      vertex   2.480474e-02 1.535532e-02 8.000000e-03
      vertex   2.480474e-02 1.535532e-02 1.600000e-02
      vertex   2.450652e-02 1.542940e-02 1.600000e-02
    endloop
  endfacet
  facet normal -2.410889e-01 -9.705030e-01 0.000000e+00
    outer loop
      vertex   2.480474e-02 1.535532e-02 8.000000e-03
      vertex   2.450652e-02 1.542940e-02 1.600000e-02
      vertex   2.450652e-02 1.542940e-02 8.000000e-03
    endloop
  endfacet
  facet normal -4.854341e-01 -8.742733e-01 0.000000e+00
    outer loop
      vertex   2.450652e-02 1.542940e-02 8.000000e-03
      vertex   2.450652e-02 1.542940e-02 1.600000e-02
      vertex   2.423855e-02 1.557819e-02 1.600000e-02
    endloop
  endfacet
  facet normal -4.854341e-01 -8.742733e-01 0.000000e+00
    outer loop
      vertex   2.450652e-02 1.542940e-02 8.000000e-03
      vertex   2.423855e-02 1.557819e-02 1.600000e-02
      vertex   2.423855e-02 1.557819e-02 8.000000e-03
    endloop
  endfacet
  facet normal -6.166925e-01 -7.872042e-01 0.000000e+00
    outer loop
      vertex   2.423855e-02 1.557819e-02 8.000000e-03
      vertex   2.423855e-02 1.557819e-02 1.600000e-02
      vertex   2.398937e-02 1.577340e-02 1.600000e-02
    endloop
  endfacet
  facet normal -6.166925e-01 -7.872042e-01 0.000000e+00
    outer loop
      vertex   2.423855e-02 1.557819e-02 8.000000e-03
      vertex   2.398937e-02 1.577340e-02 1.600000e-02
      vertex   2.398937e-02 1.577340e-02 8.000000e-03
    endloop
  endfacet
  facet normal 4.116477e-01 -9.113431e-01 0.000000e+00
    outer loop
      vertex   2.592538e-02 1.552865e-02 1.600000e-02
      vertex   2.573328e-02 1.544188e-02 1.600000e-02
      vertex   2.592538e-02 1.552865e-02 8.000000e-03
    endloop
  endfacet
  facet normal 4.116477e-01 -9.113431e-01 0.000000e+00
    outer loop
      vertex   2.592538e-02 1.552865e-02 8.000000e-03
      vertex   2.573328e-02 1.544188e-02 1.600000e-02
      vertex   2.573328e-02 1.544188e-02 8.000000e-03
    endloop
  endfacet
  facet normal 3.223695e-01 -9.466139e-01 0.000000e+00
    outer loop
      vertex   2.573328e-02 1.544188e-02 8.000000e-03
      vertex   2.573328e-02 1.544188e-02 1.600000e-02
      vertex   2.553618e-02 1.537476e-02 1.600000e-02
    endloop
  endfacet
  facet normal 3.223695e-01 -9.466139e-01 0.000000e+00
    outer loop
      vertex   2.573328e-02 1.544188e-02 8.000000e-03
      vertex   2.553618e-02 1.537476e-02 1.600000e-02
      vertex   2.553618e-02 1.537476e-02 8.000000e-03
    endloop
  endfacet
  facet normal 1.665079e-01 -9.860401e-01 0.000000e+00
    outer loop
      vertex   2.553618e-02 1.537476e-02 8.000000e-03
      vertex   2.553618e-02 1.537476e-02 1.600000e-02
      vertex   2.533082e-02 1.534008e-02 1.600000e-02
    endloop
  endfacet
  facet normal 1.665079e-01 -9.860401e-01 0.000000e+00
    outer loop
      vertex   2.553618e-02 1.537476e-02 8.000000e-03
      vertex   2.533082e-02 1.534008e-02 1.600000e-02
      vertex   2.533082e-02 1.534008e-02 8.000000e-03
    endloop
  endfacet
  facet normal 7.296937e-02 -9.973342e-01 0.000000e+00
    outer loop
      vertex   2.533082e-02 1.534008e-02 8.000000e-03
      vertex   2.533082e-02 1.534008e-02 1.600000e-02
      vertex   2.512054e-02 1.532469e-02 1.600000e-02
    endloop
  endfacet
  facet normal 7.296937e-02 -9.973342e-01 0.000000e+00
    outer loop
      vertex   2.533082e-02 1.534008e-02 8.000000e-03
      vertex   2.512054e-02 1.532469e-02 1.600000e-02
      vertex   2.512054e-02 1.532469e-02 8.000000e-03
    endloop
  endfacet
  facet normal 8.408277e-01 -5.413029e-01 0.000000e+00
    outer loop
      vertex   2.648705e-02 1.610130e-02 1.600000e-02
      vertex   2.637622e-02 1.592914e-02 1.600000e-02
      vertex   2.648705e-02 1.610130e-02 8.000000e-03
    endloop
  endfacet
  facet normal 8.408277e-01 -5.413029e-01 0.000000e+00
    outer loop
      vertex   2.648705e-02 1.610130e-02 8.000000e-03
      vertex   2.637622e-02 1.592914e-02 1.600000e-02
      vertex   2.637622e-02 1.592914e-02 8.000000e-03
    endloop
  endfacet
  facet normal 7.760876e-01 -6.306251e-01 0.000000e+00
    outer loop
      vertex   2.637622e-02 1.592914e-02 8.000000e-03
      vertex   2.637622e-02 1.592914e-02 1.600000e-02
      vertex   2.624921e-02 1.577284e-02 1.600000e-02
    endloop
  endfacet
  facet normal 7.760876e-01 -6.306251e-01 0.000000e+00
    outer loop
      vertex   2.637622e-02 1.592914e-02 8.000000e-03
      vertex   2.624921e-02 1.577284e-02 1.600000e-02
      vertex   2.624921e-02 1.577284e-02 8.000000e-03
    endloop
  endfacet
  facet normal 6.452586e-01 -7.639642e-01 0.000000e+00
    outer loop
      vertex   2.624921e-02 1.577284e-02 8.000000e-03
      vertex   2.624921e-02 1.577284e-02 1.600000e-02
      vertex   2.609533e-02 1.564287e-02 1.600000e-02
    endloop
  endfacet
  facet normal 6.452586e-01 -7.639642e-01 0.000000e+00
    outer loop
      vertex   2.624921e-02 1.577284e-02 8.000000e-03
      vertex   2.609533e-02 1.564287e-02 1.600000e-02
      vertex   2.609533e-02 1.564287e-02 8.000000e-03
    endloop
  endfacet
  facet normal 5.578125e-01 -8.299670e-01 0.000000e+00
    outer loop
      vertex   2.609533e-02 1.564287e-02 8.000000e-03
      vertex   2.609533e-02 1.564287e-02 1.600000e-02
      vertex   2.592538e-02 1.552865e-02 1.600000e-02
    endloop
  endfacet
  facet normal 5.578125e-01 -8.299670e-01 0.000000e+00
    outer loop
      vertex   2.609533e-02 1.564287e-02 8.000000e-03
      vertex   2.592538e-02 1.552865e-02 1.600000e-02
      vertex   2.592538e-02 1.552865e-02 8.000000e-03
    endloop
  endfacet
  facet normal 9.994779e-01 -3.231021e-02 0.000000e+00
    outer loop
      vertex   2.668002e-02 1.711323e-02 1.600000e-02
      vertex   2.667158e-02 1.685211e-02 1.600000e-02
      vertex   2.668002e-02 1.711323e-02 8.000000e-03
    endloop
  endfacet
  facet normal 9.994779e-01 -3.231021e-02 0.000000e+00
    outer loop
      vertex   2.668002e-02 1.711323e-02 8.000000e-03
      vertex   2.667158e-02 1.685211e-02 1.600000e-02
      vertex   2.667158e-02 1.685211e-02 8.000000e-03
    endloop
  endfacet
  facet normal 9.938633e-01 -1.106157e-01 0.000000e+00
    outer loop
      vertex   2.667158e-02 1.685211e-02 8.000000e-03
      vertex   2.667158e-02 1.685211e-02 1.600000e-02
      vertex   2.664298e-02 1.659511e-02 1.600000e-02
    endloop
  endfacet
  facet normal 9.938633e-01 -1.106157e-01 0.000000e+00
    outer loop
      vertex   2.667158e-02 1.685211e-02 8.000000e-03
      vertex   2.664298e-02 1.659511e-02 1.600000e-02
      vertex   2.664298e-02 1.659511e-02 8.000000e-03
    endloop
  endfacet
  facet normal 9.673270e-01 -2.535321e-01 0.000000e+00
    outer loop
      vertex   2.664298e-02 1.659511e-02 8.000000e-03
      vertex   2.664298e-02 1.659511e-02 1.600000e-02
      vertex   2.657759e-02 1.634563e-02 1.600000e-02
    endloop
  endfacet
  facet normal 9.673270e-01 -2.535321e-01 0.000000e+00
    outer loop
      vertex   2.664298e-02 1.659511e-02 8.000000e-03
      vertex   2.657759e-02 1.634563e-02 1.600000e-02
      vertex   2.657759e-02 1.634563e-02 8.000000e-03
    endloop
  endfacet
  facet normal 9.376908e-01 -3.474709e-01 0.000000e+00
    outer loop
      vertex   2.657759e-02 1.634563e-02 8.000000e-03
      vertex   2.657759e-02 1.634563e-02 1.600000e-02
      vertex   2.648705e-02 1.610130e-02 1.600000e-02
    endloop
  endfacet
  facet normal 9.376908e-01 -3.474709e-01 0.000000e+00
    outer loop
      vertex   2.657759e-02 1.634563e-02 8.000000e-03
      vertex   2.648705e-02 1.610130e-02 1.600000e-02
      vertex   2.648705e-02 1.610130e-02 8.000000e-03
    endloop
  endfacet
  facet normal 8.190426e-01 5.737327e-01 0.000000e+00
    outer loop
      vertex   2.624387e-02 1.835737e-02 1.600000e-02
      vertex   2.643957e-02 1.807800e-02 1.600000e-02
      vertex   2.624387e-02 1.835737e-02 8.000000e-03
    endloop
  endfacet
  facet normal 8.190426e-01 5.737327e-01 0.000000e+00
    outer loop
      vertex   2.624387e-02 1.835737e-02 8.000000e-03
      vertex   2.643957e-02 1.807800e-02 1.600000e-02
      vertex   2.643957e-02 1.807800e-02 8.000000e-03
    endloop
  endfacet
  facet normal 8.977212e-01 4.405639e-01 -0.000000e+00
    outer loop
      vertex   2.643957e-02 1.807800e-02 8.000000e-03
      vertex   2.643957e-02 1.807800e-02 1.600000e-02
      vertex   2.658558e-02 1.778047e-02 1.600000e-02
    endloop
  endfacet
  facet normal 8.977212e-01 4.405639e-01 0.000000e+00
    outer loop
      vertex   2.643957e-02 1.807800e-02 8.000000e-03
      vertex   2.658558e-02 1.778047e-02 1.600000e-02
      vertex   2.658558e-02 1.778047e-02 8.000000e-03
    endloop
  endfacet
  facet normal 9.782705e-01 2.073326e-01 -0.000000e+00
    outer loop
      vertex   2.658558e-02 1.778047e-02 8.000000e-03
      vertex   2.658558e-02 1.778047e-02 1.600000e-02
      vertex   2.665460e-02 1.745482e-02 1.600000e-02
    endloop
  endfacet
  facet normal 9.782705e-01 2.073326e-01 0.000000e+00
    outer loop
      vertex   2.658558e-02 1.778047e-02 8.000000e-03
      vertex   2.665460e-02 1.745482e-02 1.600000e-02
      vertex   2.665460e-02 1.745482e-02 8.000000e-03
    endloop
  endfacet
  facet normal 9.972416e-01 7.422348e-02 -0.000000e+00
    outer loop
      vertex   2.665460e-02 1.745482e-02 8.000000e-03
      vertex   2.665460e-02 1.745482e-02 1.600000e-02
      vertex   2.668002e-02 1.711323e-02 1.600000e-02
    endloop
  endfacet
  facet normal 9.972416e-01 7.422348e-02 0.000000e+00
    outer loop
      vertex   2.665460e-02 1.745482e-02 8.000000e-03
      vertex   2.668002e-02 1.711323e-02 1.600000e-02
      vertex   2.668002e-02 1.711323e-02 8.000000e-03
    endloop
  endfacet
  facet normal 1.005054e-01 9.949365e-01 0.000000e+00
    outer loop
      vertex   2.512054e-02 1.880764e-02 1.600000e-02
      vertex   2.543431e-02 1.877594e-02 1.600000e-02
      vertex   2.512054e-02 1.880764e-02 8.000000e-03
    endloop
  endfacet
  facet normal 1.005054e-01 9.949365e-01 0.000000e+00
    outer loop
      vertex   2.512054e-02 1.880764e-02 8.000000e-03
      vertex   2.543431e-02 1.877594e-02 1.600000e-02
      vertex   2.543431e-02 1.877594e-02 8.000000e-03
    endloop
  endfacet
  facet normal 2.455253e-01 9.693902e-01 -0.000000e+00
    outer loop
      vertex   2.543431e-02 1.877594e-02 8.000000e-03
      vertex   2.543431e-02 1.877594e-02 1.600000e-02
      vertex   2.573043e-02 1.870094e-02 1.600000e-02
    endloop
  endfacet
  facet normal 2.455253e-01 9.693902e-01 0.000000e+00
    outer loop
      vertex   2.543431e-02 1.877594e-02 8.000000e-03
      vertex   2.573043e-02 1.870094e-02 1.600000e-02
      vertex   2.573043e-02 1.870094e-02 8.000000e-03
    endloop
  endfacet
  facet normal 4.886569e-01 8.724761e-01 -0.000000e+00
    outer loop
      vertex   2.573043e-02 1.870094e-02 8.000000e-03
      vertex   2.573043e-02 1.870094e-02 1.600000e-02
      vertex   2.599644e-02 1.855196e-02 1.600000e-02
    endloop
  endfacet
  facet normal 4.886569e-01 8.724761e-01 0.000000e+00
    outer loop
      vertex   2.573043e-02 1.870094e-02 8.000000e-03
      vertex   2.599644e-02 1.855196e-02 1.600000e-02
      vertex   2.599644e-02 1.855196e-02 8.000000e-03
    endloop
  endfacet
  facet normal 6.181755e-01 7.860401e-01 -0.000000e+00
    outer loop
      vertex   2.599644e-02 1.855196e-02 8.000000e-03
      vertex   2.599644e-02 1.855196e-02 1.600000e-02
      vertex   2.624387e-02 1.835737e-02 1.600000e-02
    endloop
  endfacet
  facet normal 6.181755e-01 7.860401e-01 0.000000e+00
    outer loop
      vertex   2.599644e-02 1.855196e-02 8.000000e-03
      vertex   2.624387e-02 1.835737e-02 1.600000e-02
      vertex   2.624387e-02 1.835737e-02 8.000000e-03
    endloop
  endfacet
  facet normal -5.571565e-01 8.304075e-01 0.000000e+00
    outer loop
      vertex   2.407252e-02 1.843738e-02 1.600000e-02
      vertex   2.431049e-02 1.859705e-02 1.600000e-02
      vertex   2.407252e-02 1.843738e-02 8.000000e-03
    endloop
  endfacet
  facet normal -5.571565e-01 8.304075e-01 0.000000e+00
    outer loop
      vertex   2.407252e-02 1.843738e-02 8.000000e-03
      vertex   2.431049e-02 1.859705e-02 1.600000e-02
      vertex   2.431049e-02 1.859705e-02 8.000000e-03
    endloop
  endfacet
  facet normal -4.379302e-01 8.990090e-01 0.000000e+00
    outer loop
      vertex   2.431049e-02 1.859705e-02 8.000000e-03
      vertex   2.431049e-02 1.859705e-02 1.600000e-02
      vertex   2.456180e-02 1.871947e-02 1.600000e-02
    endloop
  endfacet
  facet normal -4.379302e-01 8.990090e-01 0.000000e+00
    outer loop
      vertex   2.431049e-02 1.859705e-02 8.000000e-03
      vertex   2.456180e-02 1.871947e-02 1.600000e-02
      vertex   2.456180e-02 1.871947e-02 8.000000e-03
    endloop
  endfacet
  facet normal -2.209612e-01 9.752826e-01 0.000000e+00
    outer loop
      vertex   2.456180e-02 1.871947e-02 8.000000e-03
      vertex   2.456180e-02 1.871947e-02 1.600000e-02
      vertex   2.483481e-02 1.878132e-02 1.600000e-02
    endloop
  endfacet
  facet normal -2.209612e-01 9.752826e-01 0.000000e+00
    outer loop
      vertex   2.456180e-02 1.871947e-02 8.000000e-03
      vertex   2.483481e-02 1.878132e-02 1.600000e-02
      vertex   2.483481e-02 1.878132e-02 8.000000e-03
    endloop
  endfacet
  facet normal -9.173272e-02 9.957837e-01 0.000000e+00
    outer loop
      vertex   2.483481e-02 1.878132e-02 8.000000e-03
      vertex   2.483481e-02 1.878132e-02 1.600000e-02
      vertex   2.512054e-02 1.880764e-02 1.600000e-02
    endloop
  endfacet
  facet normal -9.173272e-02 9.957837e-01 0.000000e+00
    outer loop
      vertex   2.483481e-02 1.878132e-02 8.000000e-03
      vertex   2.512054e-02 1.880764e-02 1.600000e-02
      vertex   2.512054e-02 1.880764e-02 8.000000e-03
    endloop
  endfacet
  facet normal -9.976186e-01 6.897231e-02 0.000000e+00
    outer loop
      vertex   2.355792e-02 1.706617e-02 8.000000e-03
      vertex   2.355792e-02 1.706617e-02 1.600000e-02
      vertex   2.358443e-02 1.744960e-02 1.200000e-02
    endloop
  endfacet
  facet normal -9.976186e-01 6.897231e-02 -8.652962e-16
    outer loop
      vertex   2.358443e-02 1.744960e-02 1.200000e-02
      vertex   2.355792e-02 1.706617e-02 1.600000e-02
      vertex   2.358443e-02 1.744960e-02 1.600000e-02
    endloop
  endfacet
  facet normal -9.770546e-01 2.129888e-01 -8.474598e-16
    outer loop
      vertex   2.358443e-02 1.744960e-02 1.200000e-02
      vertex   2.358443e-02 1.744960e-02 1.600000e-02
      vertex   2.366346e-02 1.781214e-02 1.600000e-02
    endloop
  endfacet
  facet normal -9.770546e-01 2.129888e-01 -8.471231e-16
    outer loop
      vertex   2.358443e-02 1.744960e-02 1.200000e-02
      vertex   2.366346e-02 1.781214e-02 1.600000e-02
      vertex   2.366346e-02 1.781214e-02 1.200000e-02
    endloop
  endfacet
  facet normal -9.124581e-01 4.091702e-01 -7.914312e-16
    outer loop
      vertex   2.366346e-02 1.781214e-02 1.200000e-02
      vertex   2.366346e-02 1.781214e-02 1.600000e-02
      vertex   2.373842e-02 1.797931e-02 1.600000e-02
    endloop
  endfacet
  facet normal -9.124581e-01 4.091702e-01 7.901196e-16
    outer loop
      vertex   2.366346e-02 1.781214e-02 1.200000e-02
      vertex   2.373842e-02 1.797931e-02 1.600000e-02
      vertex   2.373842e-02 1.797931e-02 1.200000e-02
    endloop
  endfacet
  facet normal -8.488309e-01 5.286645e-01 7.362434e-16
    outer loop
      vertex   2.373842e-02 1.797931e-02 1.200000e-02
      vertex   2.373842e-02 1.797931e-02 1.600000e-02
      vertex   2.383675e-02 1.813718e-02 1.600000e-02
    endloop
  endfacet
  facet normal -8.488309e-01 5.286645e-01 0.000000e+00
    outer loop
      vertex   2.373842e-02 1.797931e-02 1.200000e-02
      vertex   2.383675e-02 1.813718e-02 1.600000e-02
      vertex   2.383675e-02 1.813718e-02 1.200000e-02
    endloop
  endfacet
  facet normal -7.864472e-01 6.176575e-01 0.000000e+00
    outer loop
      vertex   2.383675e-02 1.813718e-02 1.200000e-02
      vertex   2.383675e-02 1.813718e-02 1.600000e-02
      vertex   2.407252e-02 1.843738e-02 1.600000e-02
    endloop
  endfacet
  facet normal -7.864472e-01 6.176575e-01 0.000000e+00
    outer loop
      vertex   2.383675e-02 1.813718e-02 1.200000e-02
      vertex   2.407252e-02 1.843738e-02 1.600000e-02
      vertex   2.407252e-02 1.843738e-02 8.000000e-03
    endloop
  endfacet
  facet normal -7.864472e-01 6.176575e-01 0.000000e+00
    outer loop
      vertex   2.407252e-02 1.843738e-02 8.000000e-03
      vertex   2.383675e-02 1.813718e-02 8.000000e-03
      vertex   2.383675e-02 1.813718e-02 1.200000e-02
    endloop
  endfacet
  facet normal -8.488309e-01 5.286645e-01 0.000000e+00
    outer loop
      vertex   2.383675e-02 1.813718e-02 1.200000e-02
      vertex   2.383675e-02 1.813718e-02 8.000000e-03
      vertex   2.373842e-02 1.797931e-02 8.000000e-03
    endloop
  endfacet
  facet normal -8.488309e-01 5.286645e-01 -7.338174e-16
    outer loop
      vertex   2.383675e-02 1.813718e-02 1.200000e-02
      vertex   2.373842e-02 1.797931e-02 8.000000e-03
      vertex   2.373842e-02 1.797931e-02 1.200000e-02
    endloop
  endfacet
  facet normal -9.124581e-01 4.091702e-01 -7.914312e-16
    outer loop
      vertex   2.373842e-02 1.797931e-02 1.200000e-02
      vertex   2.373842e-02 1.797931e-02 8.000000e-03
      vertex   2.366346e-02 1.781214e-02 8.000000e-03
    endloop
  endfacet
  facet normal -9.124581e-01 4.091702e-01 7.901196e-16
    outer loop
      vertex   2.373842e-02 1.797931e-02 1.200000e-02
      vertex   2.366346e-02 1.781214e-02 8.000000e-03
      vertex   2.366346e-02 1.781214e-02 1.200000e-02
    endloop
  endfacet
  facet normal -9.770546e-01 2.129888e-01 8.474598e-16
    outer loop
      vertex   2.366346e-02 1.781214e-02 1.200000e-02
      vertex   2.366346e-02 1.781214e-02 8.000000e-03
      vertex   2.358443e-02 1.744960e-02 8.000000e-03
    endloop
  endfacet
  facet normal -9.770546e-01 2.129888e-01 8.471231e-16
    outer loop
      vertex   2.366346e-02 1.781214e-02 1.200000e-02
      vertex   2.358443e-02 1.744960e-02 8.000000e-03
      vertex   2.358443e-02 1.744960e-02 1.200000e-02
    endloop
  endfacet
  facet normal -9.976186e-01 6.897231e-02 8.652962e-16
    outer loop
      vertex   2.358443e-02 1.744960e-02 1.200000e-02
      vertex   2.358443e-02 1.744960e-02 8.000000e-03
      vertex   2.355792e-02 1.706617e-02 8.000000e-03
    endloop
  endfacet
  facet normal -8.286796e-01 -5.597233e-01 -0.000000e+00
    outer loop
      vertex   2.398937e-02 1.577340e-02 1.600000e-02
      vertex   2.379230e-02 1.606516e-02 1.600000e-02
      vertex   2.398937e-02 1.577340e-02 8.000000e-03
    endloop
  endfacet
  facet normal -8.286796e-01 -5.597233e-01 0.000000e+00
    outer loop
      vertex   2.398937e-02 1.577340e-02 8.000000e-03
      vertex   2.379230e-02 1.606516e-02 1.600000e-02
      vertex   2.379230e-02 1.606516e-02 8.000000e-03
    endloop
  endfacet
  facet normal -9.056455e-01 -4.240357e-01 0.000000e+00
    outer loop
      vertex   2.379230e-02 1.606516e-02 8.000000e-03
      vertex   2.379230e-02 1.606516e-02 1.600000e-02
      vertex   2.364713e-02 1.637521e-02 1.600000e-02
    endloop
  endfacet
  facet normal -9.056455e-01 -4.240357e-01 0.000000e+00
    outer loop
      vertex   2.379230e-02 1.606516e-02 8.000000e-03
      vertex   2.364713e-02 1.637521e-02 1.600000e-02
      vertex   2.364713e-02 1.637521e-02 8.000000e-03
    endloop
  endfacet
  facet normal -9.811321e-01 -1.933388e-01 0.000000e+00
    outer loop
      vertex   2.364713e-02 1.637521e-02 8.000000e-03
      vertex   2.364713e-02 1.637521e-02 1.600000e-02
      vertex   2.358058e-02 1.671295e-02 1.600000e-02
    endloop
  endfacet
  facet normal -9.811321e-01 -1.933388e-01 0.000000e+00
    outer loop
      vertex   2.364713e-02 1.637521e-02 8.000000e-03
      vertex   2.358058e-02 1.671295e-02 1.600000e-02
      vertex   2.358058e-02 1.671295e-02 8.000000e-03
    endloop
  endfacet
  facet normal -9.979496e-01 -6.400530e-02 0.000000e+00
    outer loop
      vertex   2.358058e-02 1.671295e-02 8.000000e-03
      vertex   2.358058e-02 1.671295e-02 1.600000e-02
      vertex   2.355792e-02 1.706617e-02 1.600000e-02
    endloop
  endfacet
  facet normal -9.979496e-01 -6.400530e-02 0.000000e+00
    outer loop
      vertex   2.358058e-02 1.671295e-02 8.000000e-03
      vertex   2.355792e-02 1.706617e-02 1.600000e-02
      vertex   2.355792e-02 1.706617e-02 8.000000e-03
    endloop
  endfacet
  facet normal 0.000000e+00 -0.000000e+00 1.000000e+00
    outer loop
      vertex   2.358058e-02 1.671295e-02 1.600000e-02
      vertex   2.415062e-02 1.680846e-02 1.600000e-02
      vertex   2.355792e-02 1.706617e-02 1.600000e-02
    endloop
  endfacet
  facet normal -0.000000e+00 0.000000e+00 1.000000e+00
    outer loop
      vertex   2.355792e-02 1.706617e-02 1.600000e-02
      vertex   2.415062e-02 1.680846e-02 1.600000e-02
      vertex   2.413841e-02 1.706617e-02 1.600000e-02
    endloop
  endfacet
  facet normal 0.000000e+00 0.000000e+00 1.000000e+00
    outer loop
      vertex   2.355792e-02 1.706617e-02 1.600000e-02
      vertex   2.413841e-02 1.706617e-02 1.600000e-02
      vertex   2.415055e-02 1.732355e-02 1.600000e-02
    endloop
  endfacet
  facet normal 0.000000e+00 0.000000e+00 1.000000e+00
    outer loop
      vertex   2.415062e-02 1.680846e-02 1.600000e-02
      vertex   2.358058e-02 1.671295e-02 1.600000e-02
      vertex   2.419201e-02 1.655990e-02 1.600000e-02
    endloop
  endfacet
  facet normal 0.000000e+00 0.000000e+00 1.000000e+00
    outer loop
      vertex   2.419201e-02 1.655990e-02 1.600000e-02
      vertex   2.358058e-02 1.671295e-02 1.600000e-02
      vertex   2.364713e-02 1.637521e-02 1.600000e-02
    endloop
  endfacet
  facet normal 0.000000e+00 0.000000e+00 1.000000e+00
    outer loop
      vertex   2.419201e-02 1.655990e-02 1.600000e-02
      vertex   2.364713e-02 1.637521e-02 1.600000e-02
      vertex   2.379230e-02 1.606516e-02 1.600000e-02
    endloop
  endfacet
  facet normal 0.000000e+00 0.000000e+00 1.000000e+00
    outer loop
      vertex   2.419201e-02 1.655990e-02 1.600000e-02
      vertex   2.379230e-02 1.606516e-02 1.600000e-02
      vertex   2.428664e-02 1.632803e-02 1.600000e-02
    endloop
  endfacet
  facet normal 0.000000e+00 0.000000e+00 1.000000e+00
    outer loop
      vertex   2.428664e-02 1.632803e-02 1.600000e-02
      vertex   2.379230e-02 1.606516e-02 1.600000e-02
      vertex   2.398937e-02 1.577340e-02 1.600000e-02
    endloop
  endfacet
  facet normal 0.000000e+00 0.000000e+00 1.000000e+00
    outer loop
      vertex   2.428664e-02 1.632803e-02 1.600000e-02
      vertex   2.398937e-02 1.577340e-02 1.600000e-02
      vertex   2.441768e-02 1.610757e-02 1.600000e-02
    endloop
  endfacet
  facet normal 0.000000e+00 0.000000e+00 1.000000e+00
    outer loop
      vertex   2.441768e-02 1.610757e-02 1.600000e-02
      vertex   2.398937e-02 1.577340e-02 1.600000e-02
      vertex   2.423855e-02 1.557819e-02 1.600000e-02
    endloop
  endfacet
  facet normal 0.000000e+00 0.000000e+00 1.000000e+00
    outer loop
      vertex   2.441768e-02 1.610757e-02 1.600000e-02
      vertex   2.423855e-02 1.557819e-02 1.600000e-02
      vertex   2.456859e-02 1.597321e-02 1.600000e-02
    endloop
  endfacet
  facet normal 0.000000e+00 0.000000e+00 1.000000e+00
    outer loop
      vertex   2.456859e-02 1.597321e-02 1.600000e-02
      vertex   2.423855e-02 1.557819e-02 1.600000e-02
      vertex   2.450652e-02 1.542940e-02 1.600000e-02
    endloop
  endfacet
  facet normal 0.000000e+00 0.000000e+00 1.000000e+00
    outer loop
      vertex   2.456859e-02 1.597321e-02 1.600000e-02
      vertex   2.450652e-02 1.542940e-02 1.600000e-02
      vertex   2.473303e-02 1.586870e-02 1.600000e-02
    endloop
  endfacet
  facet normal 0.000000e+00 0.000000e+00 1.000000e+00
    outer loop
      vertex   2.473303e-02 1.586870e-02 1.600000e-02
      vertex   2.450652e-02 1.542940e-02 1.600000e-02
      vertex   2.480474e-02 1.535532e-02 1.600000e-02
    endloop
  endfacet
  facet normal -3.869002e-14 -5.404001e-15 1.000000e+00
    outer loop
      vertex   2.473303e-02 1.586870e-02 1.600000e-02
      vertex   2.480474e-02 1.535532e-02 1.600000e-02
      vertex   2.492002e-02 1.581397e-02 1.600000e-02
    endloop
  endfacet
  facet normal -1.432182e-15 -1.476901e-14 1.000000e+00
    outer loop
      vertex   2.492002e-02 1.581397e-02 1.600000e-02
      vertex   2.480474e-02 1.535532e-02 1.600000e-02
      vertex   2.512054e-02 1.532469e-02 1.600000e-02
    endloop
  endfacet
  facet normal 3.460429e-14 0.000000e+00 1.000000e+00
    outer loop
      vertex   2.492002e-02 1.581397e-02 1.600000e-02
      vertex   2.512054e-02 1.532469e-02 1.600000e-02
      vertex   2.512054e-02 1.578909e-02 1.600000e-02
    endloop
  endfacet
  facet normal -3.299879e-14 0.000000e+00 1.000000e+00
    outer loop
      vertex   2.512054e-02 1.578909e-02 1.600000e-02
      vertex   2.512054e-02 1.532469e-02 1.600000e-02
      vertex   2.533082e-02 1.534008e-02 1.600000e-02
    endloop
  endfacet
  facet normal -1.844950e-15 1.458981e-14 1.000000e+00
    outer loop
      vertex   2.512054e-02 1.578909e-02 1.600000e-02
      vertex   2.533082e-02 1.534008e-02 1.600000e-02
      vertex   2.532046e-02 1.581437e-02 1.600000e-02
    endloop
  endfacet
  facet normal 3.120273e-14 1.531134e-14 1.000000e+00
    outer loop
      vertex   2.532046e-02 1.581437e-02 1.600000e-02
      vertex   2.533082e-02 1.534008e-02 1.600000e-02
      vertex   2.553618e-02 1.537476e-02 1.600000e-02
    endloop
  endfacet
  facet normal -0.000000e+00 0.000000e+00 1.000000e+00
    outer loop
      vertex   2.532046e-02 1.581437e-02 1.600000e-02
      vertex   2.553618e-02 1.537476e-02 1.600000e-02
      vertex   2.550673e-02 1.586957e-02 1.600000e-02
    endloop
  endfacet
  facet normal 0.000000e+00 0.000000e+00 1.000000e+00
    outer loop
      vertex   2.550673e-02 1.586957e-02 1.600000e-02
      vertex   2.553618e-02 1.537476e-02 1.600000e-02
      vertex   2.573328e-02 1.544188e-02 1.600000e-02
    endloop
  endfacet
  facet normal -0.000000e+00 0.000000e+00 1.000000e+00
    outer loop
      vertex   2.550673e-02 1.586957e-02 1.600000e-02
      vertex   2.573328e-02 1.544188e-02 1.600000e-02
      vertex   2.567029e-02 1.597448e-02 1.600000e-02
    endloop
  endfacet
  facet normal 0.000000e+00 0.000000e+00 1.000000e+00
    outer loop
      vertex   2.567029e-02 1.597448e-02 1.600000e-02
      vertex   2.573328e-02 1.544188e-02 1.600000e-02
      vertex   2.592538e-02 1.552865e-02 1.600000e-02
    endloop
  endfacet
  facet normal 0.000000e+00 0.000000e+00 1.000000e+00
    outer loop
      vertex   2.567029e-02 1.597448e-02 1.600000e-02
      vertex   2.592538e-02 1.552865e-02 1.600000e-02
      vertex   2.609533e-02 1.564287e-02 1.600000e-02
    endloop
  endfacet
  facet normal -0.000000e+00 0.000000e+00 1.000000e+00
    outer loop
      vertex   2.567029e-02 1.597448e-02 1.600000e-02
      vertex   2.609533e-02 1.564287e-02 1.600000e-02
      vertex   2.582027e-02 1.610914e-02 1.600000e-02
    endloop
  endfacet
  facet normal 0.000000e+00 0.000000e+00 1.000000e+00
    outer loop
      vertex   2.582027e-02 1.610914e-02 1.600000e-02
      vertex   2.609533e-02 1.564287e-02 1.600000e-02
      vertex   2.624921e-02 1.577284e-02 1.600000e-02
    endloop
  endfacet
  facet normal -0.000000e+00 0.000000e+00 1.000000e+00
    outer loop
      vertex   2.582027e-02 1.610914e-02 1.600000e-02
      vertex   2.624921e-02 1.577284e-02 1.600000e-02
      vertex   2.595202e-02 1.633395e-02 1.600000e-02
    endloop
  endfacet
  facet normal 0.000000e+00 0.000000e+00 1.000000e+00
    outer loop
      vertex   2.595202e-02 1.633395e-02 1.600000e-02
      vertex   2.624921e-02 1.577284e-02 1.600000e-02
      vertex   2.637622e-02 1.592914e-02 1.600000e-02
    endloop
  endfacet
  facet normal 0.000000e+00 0.000000e+00 1.000000e+00
    outer loop
      vertex   2.595202e-02 1.633395e-02 1.600000e-02
      vertex   2.637622e-02 1.592914e-02 1.600000e-02
      vertex   2.648705e-02 1.610130e-02 1.600000e-02
    endloop
  endfacet
  facet normal -0.000000e+00 0.000000e+00 1.000000e+00
    outer loop
      vertex   2.595202e-02 1.633395e-02 1.600000e-02
      vertex   2.648705e-02 1.610130e-02 1.600000e-02
      vertex   2.604677e-02 1.657020e-02 1.600000e-02
    endloop
  endfacet
  facet normal 0.000000e+00 0.000000e+00 1.000000e+00
    outer loop
      vertex   2.604677e-02 1.657020e-02 1.600000e-02
      vertex   2.648705e-02 1.610130e-02 1.600000e-02
      vertex   2.657759e-02 1.634563e-02 1.600000e-02
    endloop
  endfacet
  facet normal -0.000000e+00 0.000000e+00 1.000000e+00
    outer loop
      vertex   2.604677e-02 1.657020e-02 1.600000e-02
      vertex   2.657759e-02 1.634563e-02 1.600000e-02
      vertex   2.664298e-02 1.659511e-02 1.600000e-02
    endloop
  endfacet
  facet normal 0.000000e+00 0.000000e+00 1.000000e+00
    outer loop
      vertex   2.604677e-02 1.657020e-02 1.600000e-02
      vertex   2.664298e-02 1.659511e-02 1.600000e-02
      vertex   2.608782e-02 1.682306e-02 1.600000e-02
    endloop
  endfacet
  facet normal -0.000000e+00 0.000000e+00 1.000000e+00
    outer loop
      vertex   2.608782e-02 1.682306e-02 1.600000e-02
      vertex   2.664298e-02 1.659511e-02 1.600000e-02
      vertex   2.667158e-02 1.685211e-02 1.600000e-02
    endloop
  endfacet
  facet normal 0.000000e+00 0.000000e+00 1.000000e+00
    outer loop
      vertex   2.608782e-02 1.682306e-02 1.600000e-02
      vertex   2.667158e-02 1.685211e-02 1.600000e-02
      vertex   2.609953e-02 1.708499e-02 1.600000e-02
    endloop
  endfacet
  facet normal -0.000000e+00 0.000000e+00 1.000000e+00
    outer loop
      vertex   2.609953e-02 1.708499e-02 1.600000e-02
      vertex   2.667158e-02 1.685211e-02 1.600000e-02
      vertex   2.668002e-02 1.711323e-02 1.600000e-02
    endloop
  endfacet
  facet normal 0.000000e+00 -0.000000e+00 1.000000e+00
    outer loop
      vertex   2.609953e-02 1.708499e-02 1.600000e-02
      vertex   2.668002e-02 1.711323e-02 1.600000e-02
      vertex   2.608638e-02 1.733743e-02 1.600000e-02
    endloop
  endfacet
  facet normal -0.000000e+00 0.000000e+00 1.000000e+00
    outer loop
      vertex   2.608638e-02 1.733743e-02 1.600000e-02
      vertex   2.668002e-02 1.711323e-02 1.600000e-02
      vertex   2.665460e-02 1.745482e-02 1.600000e-02
    endloop
  endfacet
  facet normal 0.000000e+00 -0.000000e+00 1.000000e+00
    outer loop
      vertex   2.608638e-02 1.733743e-02 1.600000e-02
      vertex   2.665460e-02 1.745482e-02 1.600000e-02
      vertex   2.604415e-02 1.758055e-02 1.600000e-02
    endloop
  endfacet
  facet normal -0.000000e+00 0.000000e+00 1.000000e+00
    outer loop
      vertex   2.604415e-02 1.758055e-02 1.600000e-02
      vertex   2.665460e-02 1.745482e-02 1.600000e-02
      vertex   2.658558e-02 1.778047e-02 1.600000e-02
    endloop
  endfacet
  facet normal 0.000000e+00 0.000000e+00 1.000000e+00
    outer loop
      vertex   2.604415e-02 1.758055e-02 1.600000e-02
      vertex   2.658558e-02 1.778047e-02 1.600000e-02
      vertex   2.643957e-02 1.807800e-02 1.600000e-02
    endloop
  endfacet
  facet normal 0.000000e+00 -0.000000e+00 1.000000e+00
    outer loop
      vertex   2.604415e-02 1.758055e-02 1.600000e-02
      vertex   2.643957e-02 1.807800e-02 1.600000e-02
      vertex   2.594922e-02 1.780679e-02 1.600000e-02
    endloop
  endfacet
  facet normal 0.000000e+00 0.000000e+00 1.000000e+00
    outer loop
      vertex   2.594922e-02 1.780679e-02 1.600000e-02
      vertex   2.643957e-02 1.807800e-02 1.600000e-02
      vertex   2.624387e-02 1.835737e-02 1.600000e-02
    endloop
  endfacet
  facet normal 0.000000e+00 -0.000000e+00 1.000000e+00
    outer loop
      vertex   2.594922e-02 1.780679e-02 1.600000e-02
      vertex   2.624387e-02 1.835737e-02 1.600000e-02
      vertex   2.581870e-02 1.802162e-02 1.600000e-02
    endloop
  endfacet
  facet normal 0.000000e+00 0.000000e+00 1.000000e+00
    outer loop
      vertex   2.581870e-02 1.802162e-02 1.600000e-02
      vertex   2.624387e-02 1.835737e-02 1.600000e-02
      vertex   2.599644e-02 1.855196e-02 1.600000e-02
    endloop
  endfacet
  facet normal 0.000000e+00 -0.000000e+00 1.000000e+00
    outer loop
      vertex   2.581870e-02 1.802162e-02 1.600000e-02
      vertex   2.599644e-02 1.855196e-02 1.600000e-02
      vertex   2.566878e-02 1.815537e-02 1.600000e-02
    endloop
  endfacet
  facet normal 0.000000e+00 0.000000e+00 1.000000e+00
    outer loop
      vertex   2.566878e-02 1.815537e-02 1.600000e-02
      vertex   2.599644e-02 1.855196e-02 1.600000e-02
      vertex   2.573043e-02 1.870094e-02 1.600000e-02
    endloop
  endfacet
  facet normal 0.000000e+00 -0.000000e+00 1.000000e+00
    outer loop
      vertex   2.566878e-02 1.815537e-02 1.600000e-02
      vertex   2.573043e-02 1.870094e-02 1.600000e-02
      vertex   2.550548e-02 1.825970e-02 1.600000e-02
    endloop
  endfacet
  facet normal 0.000000e+00 -0.000000e+00 1.000000e+00
    outer loop
      vertex   2.550548e-02 1.825970e-02 1.600000e-02
      vertex   2.573043e-02 1.870094e-02 1.600000e-02
      vertex   2.543431e-02 1.877594e-02 1.600000e-02
    endloop
  endfacet
  facet normal 0.000000e+00 0.000000e+00 1.000000e+00
    outer loop
      vertex   2.550548e-02 1.825970e-02 1.600000e-02
      vertex   2.543431e-02 1.877594e-02 1.600000e-02
      vertex   2.531977e-02 1.831476e-02 1.600000e-02
    endloop
  endfacet
  facet normal 0.000000e+00 -0.000000e+00 1.000000e+00
    outer loop
      vertex   2.531977e-02 1.831476e-02 1.600000e-02
      vertex   2.543431e-02 1.877594e-02 1.600000e-02
      vertex   2.512054e-02 1.880764e-02 1.600000e-02
    endloop
  endfacet
  facet normal 0.000000e+00 0.000000e+00 1.000000e+00
    outer loop
      vertex   2.531977e-02 1.831476e-02 1.600000e-02
      vertex   2.512054e-02 1.880764e-02 1.600000e-02
      vertex   2.512054e-02 1.834011e-02 1.600000e-02
    endloop
  endfacet
  facet normal 0.000000e+00 -0.000000e+00 1.000000e+00
    outer loop
      vertex   2.512054e-02 1.834011e-02 1.600000e-02
      vertex   2.512054e-02 1.880764e-02 1.600000e-02
      vertex   2.492022e-02 1.831543e-02 1.600000e-02
    endloop
  endfacet
  facet normal 0.000000e+00 -0.000000e+00 1.000000e+00
    outer loop
      vertex   2.492022e-02 1.831543e-02 1.600000e-02
      vertex   2.512054e-02 1.880764e-02 1.600000e-02
      vertex   2.483481e-02 1.878132e-02 1.600000e-02
    endloop
  endfacet
  facet normal 0.000000e+00 0.000000e+00 1.000000e+00
    outer loop
      vertex   2.492022e-02 1.831543e-02 1.600000e-02
      vertex   2.483481e-02 1.878132e-02 1.600000e-02
      vertex   2.473331e-02 1.826101e-02 1.600000e-02
    endloop
  endfacet
  facet normal 0.000000e+00 -0.000000e+00 1.000000e+00
    outer loop
      vertex   2.473331e-02 1.826101e-02 1.600000e-02
      vertex   2.483481e-02 1.878132e-02 1.600000e-02
      vertex   2.456180e-02 1.871947e-02 1.600000e-02
    endloop
  endfacet
  facet normal 0.000000e+00 0.000000e+00 1.000000e+00
    outer loop
      vertex   2.473331e-02 1.826101e-02 1.600000e-02
      vertex   2.456180e-02 1.871947e-02 1.600000e-02
      vertex   2.456878e-02 1.815699e-02 1.600000e-02
    endloop
  endfacet
  facet normal 0.000000e+00 0.000000e+00 1.000000e+00
    outer loop
      vertex   2.456878e-02 1.815699e-02 1.600000e-02
      vertex   2.456180e-02 1.871947e-02 1.600000e-02
      vertex   2.431049e-02 1.859705e-02 1.600000e-02
    endloop
  endfacet
  facet normal 0.000000e+00 0.000000e+00 1.000000e+00
    outer loop
      vertex   2.456878e-02 1.815699e-02 1.600000e-02
      vertex   2.431049e-02 1.859705e-02 1.600000e-02
      vertex   2.441768e-02 1.802319e-02 1.600000e-02
    endloop
  endfacet
  facet normal 0.000000e+00 0.000000e+00 1.000000e+00
    outer loop
      vertex   2.441768e-02 1.802319e-02 1.600000e-02
      vertex   2.431049e-02 1.859705e-02 1.600000e-02
      vertex   2.407252e-02 1.843738e-02 1.600000e-02
    endloop
  endfacet
  facet normal 0.000000e+00 0.000000e+00 1.000000e+00
    outer loop
      vertex   2.441768e-02 1.802319e-02 1.600000e-02
      vertex   2.407252e-02 1.843738e-02 1.600000e-02
      vertex   2.383675e-02 1.813718e-02 1.600000e-02
    endloop
  endfacet
  facet normal 0.000000e+00 0.000000e+00 1.000000e+00
    outer loop
      vertex   2.441768e-02 1.802319e-02 1.600000e-02
      vertex   2.383675e-02 1.813718e-02 1.600000e-02
      vertex   2.428654e-02 1.780321e-02 1.600000e-02
    endloop
  endfacet
  facet normal 0.000000e+00 0.000000e+00 1.000000e+00
    outer loop
      vertex   2.428654e-02 1.780321e-02 1.600000e-02
      vertex   2.383675e-02 1.813718e-02 1.600000e-02
      vertex   2.373842e-02 1.797931e-02 1.600000e-02
    endloop
  endfacet
  facet normal 0.000000e+00 0.000000e+00 1.000000e+00
    outer loop
      vertex   2.428654e-02 1.780321e-02 1.600000e-02
      vertex   2.373842e-02 1.797931e-02 1.600000e-02
      vertex   2.419189e-02 1.757175e-02 1.600000e-02
    endloop
  endfacet
  facet normal 0.000000e+00 0.000000e+00 1.000000e+00
    outer loop
      vertex   2.419189e-02 1.757175e-02 1.600000e-02
      vertex   2.373842e-02 1.797931e-02 1.600000e-02
      vertex   2.366346e-02 1.781214e-02 1.600000e-02
    endloop
  endfacet
  facet normal 0.000000e+00 0.000000e+00 1.000000e+00
    outer loop
      vertex   2.419189e-02 1.757175e-02 1.600000e-02
      vertex   2.366346e-02 1.781214e-02 1.600000e-02
      vertex   2.358443e-02 1.744960e-02 1.600000e-02
    endloop
  endfacet
  facet normal 0.000000e+00 0.000000e+00 1.000000e+00
    outer loop
      vertex   2.419189e-02 1.757175e-02 1.600000e-02
      vertex   2.358443e-02 1.744960e-02 1.600000e-02
      vertex   2.415055e-02 1.732355e-02 1.600000e-02
    endloop
  endfacet
  facet normal 0.000000e+00 0.000000e+00 1.000000e+00
    outer loop
      vertex   2.415055e-02 1.732355e-02 1.600000e-02
      vertex   2.358443e-02 1.744960e-02 1.600000e-02
      vertex   2.355792e-02 1.706617e-02 1.600000e-02
    endloop
  endfacet
  facet normal 0.000000e+00 0.000000e+00 -1.000000e+00
    outer loop
      vertex   2.379230e-02 1.606516e-02 8.000000e-03
      vertex   2.428664e-02 1.632803e-02 8.000000e-03
      vertex   2.398937e-02 1.577340e-02 8.000000e-03
    endloop
  endfacet
  facet normal 0.000000e+00 0.000000e+00 -1.000000e+00
    outer loop
      vertex   2.398937e-02 1.577340e-02 8.000000e-03
      vertex   2.428664e-02 1.632803e-02 8.000000e-03
      vertex   2.441768e-02 1.610757e-02 8.000000e-03
    endloop
  endfacet
  facet normal 0.000000e+00 0.000000e+00 -1.000000e+00
    outer loop
      vertex   2.398937e-02 1.577340e-02 8.000000e-03
      vertex   2.441768e-02 1.610757e-02 8.000000e-03
      vertex   2.423855e-02 1.557819e-02 8.000000e-03
    endloop
  endfacet
  facet normal 0.000000e+00 0.000000e+00 -1.000000e+00
    outer loop
      vertex   2.423855e-02 1.557819e-02 8.000000e-03
      vertex   2.441768e-02 1.610757e-02 8.000000e-03
      vertex   2.456859e-02 1.597321e-02 8.000000e-03
    endloop
  endfacet
  facet normal 0.000000e+00 0.000000e+00 -1.000000e+00
    outer loop
      vertex   2.423855e-02 1.557819e-02 8.000000e-03
      vertex   2.456859e-02 1.597321e-02 8.000000e-03
      vertex   2.450652e-02 1.542940e-02 8.000000e-03
    endloop
  endfacet
  facet normal 0.000000e+00 0.000000e+00 -1.000000e+00
    outer loop
      vertex   2.450652e-02 1.542940e-02 8.000000e-03
      vertex   2.456859e-02 1.597321e-02 8.000000e-03
      vertex   2.473303e-02 1.586870e-02 8.000000e-03
    endloop
  endfacet
  facet normal 0.000000e+00 0.000000e+00 -1.000000e+00
    outer loop
      vertex   2.450652e-02 1.542940e-02 8.000000e-03
      vertex   2.473303e-02 1.586870e-02 8.000000e-03
      vertex   2.480474e-02 1.535532e-02 8.000000e-03
    endloop
  endfacet
  facet normal 1.934501e-14 2.702001e-15 -1.000000e+00
    outer loop
      vertex   2.480474e-02 1.535532e-02 8.000000e-03
      vertex   2.473303e-02 1.586870e-02 8.000000e-03
      vertex   2.492002e-02 1.581397e-02 8.000000e-03
    endloop
  endfacet
  facet normal 7.160908e-16 7.384507e-15 -1.000000e+00
    outer loop
      vertex   2.480474e-02 1.535532e-02 8.000000e-03
      vertex   2.492002e-02 1.581397e-02 8.000000e-03
      vertex   2.512054e-02 1.532469e-02 8.000000e-03
    endloop
  endfacet
  facet normal -1.730214e-14 0.000000e+00 -1.000000e+00
    outer loop
      vertex   2.512054e-02 1.532469e-02 8.000000e-03
      vertex   2.492002e-02 1.581397e-02 8.000000e-03
      vertex   2.512054e-02 1.578909e-02 8.000000e-03
    endloop
  endfacet
  facet normal 1.649939e-14 0.000000e+00 -1.000000e+00
    outer loop
      vertex   2.512054e-02 1.532469e-02 8.000000e-03
      vertex   2.512054e-02 1.578909e-02 8.000000e-03
      vertex   2.533082e-02 1.534008e-02 8.000000e-03
    endloop
  endfacet
  facet normal 9.224752e-16 -7.294905e-15 -1.000000e+00
    outer loop
      vertex   2.533082e-02 1.534008e-02 8.000000e-03
      vertex   2.512054e-02 1.578909e-02 8.000000e-03
      vertex   2.532046e-02 1.581437e-02 8.000000e-03
    endloop
  endfacet
  facet normal -1.560137e-14 -7.655671e-15 -1.000000e+00
    outer loop
      vertex   2.533082e-02 1.534008e-02 8.000000e-03
      vertex   2.532046e-02 1.581437e-02 8.000000e-03
      vertex   2.553618e-02 1.537476e-02 8.000000e-03
    endloop
  endfacet
  facet normal 0.000000e+00 0.000000e+00 -1.000000e+00
    outer loop
      vertex   2.553618e-02 1.537476e-02 8.000000e-03
      vertex   2.532046e-02 1.581437e-02 8.000000e-03
      vertex   2.550673e-02 1.586957e-02 8.000000e-03
    endloop
  endfacet
  facet normal 0.000000e+00 0.000000e+00 -1.000000e+00
    outer loop
      vertex   2.553618e-02 1.537476e-02 8.000000e-03
      vertex   2.550673e-02 1.586957e-02 8.000000e-03
      vertex   2.573328e-02 1.544188e-02 8.000000e-03
    endloop
  endfacet
  facet normal 0.000000e+00 0.000000e+00 -1.000000e+00
    outer loop
      vertex   2.573328e-02 1.544188e-02 8.000000e-03
      vertex   2.550673e-02 1.586957e-02 8.000000e-03
      vertex   2.567029e-02 1.597448e-02 8.000000e-03
    endloop
  endfacet
  facet normal 0.000000e+00 0.000000e+00 -1.000000e+00
    outer loop
      vertex   2.573328e-02 1.544188e-02 8.000000e-03
      vertex   2.567029e-02 1.597448e-02 8.000000e-03
      vertex   2.592538e-02 1.552865e-02 8.000000e-03
    endloop
  endfacet
  facet normal 0.000000e+00 0.000000e+00 -1.000000e+00
    outer loop
      vertex   2.592538e-02 1.552865e-02 8.000000e-03
      vertex   2.567029e-02 1.597448e-02 8.000000e-03
      vertex   2.609533e-02 1.564287e-02 8.000000e-03
    endloop
  endfacet
  facet normal 0.000000e+00 0.000000e+00 -1.000000e+00
    outer loop
      vertex   2.609533e-02 1.564287e-02 8.000000e-03
      vertex   2.567029e-02 1.597448e-02 8.000000e-03
      vertex   2.582027e-02 1.610914e-02 8.000000e-03
    endloop
  endfacet
  facet normal 0.000000e+00 0.000000e+00 -1.000000e+00
    outer loop
      vertex   2.609533e-02 1.564287e-02 8.000000e-03
      vertex   2.582027e-02 1.610914e-02 8.000000e-03
      vertex   2.624921e-02 1.577284e-02 8.000000e-03
    endloop
  endfacet
  facet normal 0.000000e+00 0.000000e+00 -1.000000e+00
    outer loop
      vertex   2.624921e-02 1.577284e-02 8.000000e-03
      vertex   2.582027e-02 1.610914e-02 8.000000e-03
      vertex   2.595202e-02 1.633395e-02 8.000000e-03
    endloop
  endfacet
  facet normal 0.000000e+00 0.000000e+00 -1.000000e+00
    outer loop
      vertex   2.624921e-02 1.577284e-02 8.000000e-03
      vertex   2.595202e-02 1.633395e-02 8.000000e-03
      vertex   2.637622e-02 1.592914e-02 8.000000e-03
    endloop
  endfacet
  facet normal 0.000000e+00 0.000000e+00 -1.000000e+00
    outer loop
      vertex   2.637622e-02 1.592914e-02 8.000000e-03
      vertex   2.595202e-02 1.633395e-02 8.000000e-03
      vertex   2.648705e-02 1.610130e-02 8.000000e-03
    endloop
  endfacet
  facet normal 0.000000e+00 0.000000e+00 -1.000000e+00
    outer loop
      vertex   2.648705e-02 1.610130e-02 8.000000e-03
      vertex   2.595202e-02 1.633395e-02 8.000000e-03
      vertex   2.604677e-02 1.657020e-02 8.000000e-03
    endloop
  endfacet
  facet normal 0.000000e+00 0.000000e+00 -1.000000e+00
    outer loop
      vertex   2.648705e-02 1.610130e-02 8.000000e-03
      vertex   2.604677e-02 1.657020e-02 8.000000e-03
      vertex   2.657759e-02 1.634563e-02 8.000000e-03
    endloop
  endfacet
  facet normal 0.000000e+00 0.000000e+00 -1.000000e+00
    outer loop
      vertex   2.657759e-02 1.634563e-02 8.000000e-03
      vertex   2.604677e-02 1.657020e-02 8.000000e-03
      vertex   2.664298e-02 1.659511e-02 8.000000e-03
    endloop
  endfacet
  facet normal -0.000000e+00 0.000000e+00 -1.000000e+00
    outer loop
      vertex   2.664298e-02 1.659511e-02 8.000000e-03
      vertex   2.604677e-02 1.657020e-02 8.000000e-03
      vertex   2.608782e-02 1.682306e-02 8.000000e-03
    endloop
  endfacet
  facet normal 0.000000e+00 0.000000e+00 -1.000000e+00
    outer loop
      vertex   2.664298e-02 1.659511e-02 8.000000e-03
      vertex   2.608782e-02 1.682306e-02 8.000000e-03
      vertex   2.667158e-02 1.685211e-02 8.000000e-03
    endloop
  endfacet
  facet normal -0.000000e+00 0.000000e+00 -1.000000e+00
    outer loop
      vertex   2.667158e-02 1.685211e-02 8.000000e-03
      vertex   2.608782e-02 1.682306e-02 8.000000e-03
      vertex   2.609953e-02 1.708499e-02 8.000000e-03
    endloop
  endfacet
  facet normal 0.000000e+00 0.000000e+00 -1.000000e+00
    outer loop
      vertex   2.667158e-02 1.685211e-02 8.000000e-03
      vertex   2.609953e-02 1.708499e-02 8.000000e-03
      vertex   2.668002e-02 1.711323e-02 8.000000e-03
    endloop
  endfacet
  facet normal -0.000000e+00 0.000000e+00 -1.000000e+00
    outer loop
      vertex   2.668002e-02 1.711323e-02 8.000000e-03
      vertex   2.609953e-02 1.708499e-02 8.000000e-03
      vertex   2.608638e-02 1.733743e-02 8.000000e-03
    endloop
  endfacet
  facet normal 0.000000e+00 0.000000e+00 -1.000000e+00
    outer loop
      vertex   2.668002e-02 1.711323e-02 8.000000e-03
      vertex   2.608638e-02 1.733743e-02 8.000000e-03
      vertex   2.665460e-02 1.745482e-02 8.000000e-03
    endloop
  endfacet
  facet normal -0.000000e+00 0.000000e+00 -1.000000e+00
    outer loop
      vertex   2.665460e-02 1.745482e-02 8.000000e-03
      vertex   2.608638e-02 1.733743e-02 8.000000e-03
      vertex   2.604415e-02 1.758055e-02 8.000000e-03
    endloop
  endfacet
  facet normal 0.000000e+00 0.000000e+00 -1.000000e+00
    outer loop
      vertex   2.665460e-02 1.745482e-02 8.000000e-03
      vertex   2.604415e-02 1.758055e-02 8.000000e-03
      vertex   2.658558e-02 1.778047e-02 8.000000e-03
    endloop
  endfacet
  facet normal -0.000000e+00 0.000000e+00 -1.000000e+00
    outer loop
      vertex   2.658558e-02 1.778047e-02 8.000000e-03
      vertex   2.604415e-02 1.758055e-02 8.000000e-03
      vertex   2.643957e-02 1.807800e-02 8.000000e-03
    endloop
  endfacet
  facet normal 0.000000e+00 0.000000e+00 -1.000000e+00
    outer loop
      vertex   2.643957e-02 1.807800e-02 8.000000e-03
      vertex   2.604415e-02 1.758055e-02 8.000000e-03
      vertex   2.594922e-02 1.780679e-02 8.000000e-03
    endloop
  endfacet
  facet normal -0.000000e+00 0.000000e+00 -1.000000e+00
    outer loop
      vertex   2.643957e-02 1.807800e-02 8.000000e-03
      vertex   2.594922e-02 1.780679e-02 8.000000e-03
      vertex   2.624387e-02 1.835737e-02 8.000000e-03
    endloop
  endfacet
  facet normal 0.000000e+00 0.000000e+00 -1.000000e+00
    outer loop
      vertex   2.624387e-02 1.835737e-02 8.000000e-03
      vertex   2.594922e-02 1.780679e-02 8.000000e-03
      vertex   2.581870e-02 1.802162e-02 8.000000e-03
    endloop
  endfacet
  facet normal -0.000000e+00 0.000000e+00 -1.000000e+00
    outer loop
      vertex   2.624387e-02 1.835737e-02 8.000000e-03
      vertex   2.581870e-02 1.802162e-02 8.000000e-03
      vertex   2.599644e-02 1.855196e-02 8.000000e-03
    endloop
  endfacet
  facet normal 0.000000e+00 0.000000e+00 -1.000000e+00
    outer loop
      vertex   2.599644e-02 1.855196e-02 8.000000e-03
      vertex   2.581870e-02 1.802162e-02 8.000000e-03
      vertex   2.566878e-02 1.815537e-02 8.000000e-03
    endloop
  endfacet
  facet normal -0.000000e+00 0.000000e+00 -1.000000e+00
    outer loop
      vertex   2.599644e-02 1.855196e-02 8.000000e-03
      vertex   2.566878e-02 1.815537e-02 8.000000e-03
      vertex   2.573043e-02 1.870094e-02 8.000000e-03
    endloop
  endfacet
  facet normal 0.000000e+00 0.000000e+00 -1.000000e+00
    outer loop
      vertex   2.573043e-02 1.870094e-02 8.000000e-03
      vertex   2.566878e-02 1.815537e-02 8.000000e-03
      vertex   2.550548e-02 1.825970e-02 8.000000e-03
    endloop
  endfacet
  facet normal -0.000000e+00 0.000000e+00 -1.000000e+00
    outer loop
      vertex   2.573043e-02 1.870094e-02 8.000000e-03
      vertex   2.550548e-02 1.825970e-02 8.000000e-03
      vertex   2.543431e-02 1.877594e-02 8.000000e-03
    endloop
  endfacet
  facet normal 0.000000e+00 -0.000000e+00 -1.000000e+00
    outer loop
      vertex   2.543431e-02 1.877594e-02 8.000000e-03
      vertex   2.550548e-02 1.825970e-02 8.000000e-03
      vertex   2.531977e-02 1.831476e-02 8.000000e-03
    endloop
  endfacet
  facet normal -0.000000e+00 0.000000e+00 -1.000000e+00
    outer loop
      vertex   2.543431e-02 1.877594e-02 8.000000e-03
      vertex   2.531977e-02 1.831476e-02 8.000000e-03
      vertex   2.512054e-02 1.880764e-02 8.000000e-03
    endloop
  endfacet
  facet normal 0.000000e+00 0.000000e+00 -1.000000e+00
    outer loop
      vertex   2.512054e-02 1.880764e-02 8.000000e-03
      vertex   2.531977e-02 1.831476e-02 8.000000e-03
      vertex   2.512054e-02 1.834011e-02 8.000000e-03
    endloop
  endfacet
  facet normal 0.000000e+00 -0.000000e+00 -1.000000e+00
    outer loop
      vertex   2.512054e-02 1.880764e-02 8.000000e-03
      vertex   2.512054e-02 1.834011e-02 8.000000e-03
      vertex   2.492022e-02 1.831543e-02 8.000000e-03
    endloop
  endfacet
  facet normal -0.000000e+00 0.000000e+00 -1.000000e+00
    outer loop
      vertex   2.428664e-02 1.632803e-02 8.000000e-03
      vertex   2.379230e-02 1.606516e-02 8.000000e-03
      vertex   2.419201e-02 1.655990e-02 8.000000e-03
    endloop
  endfacet
  facet normal 0.000000e+00 0.000000e+00 -1.000000e+00
    outer loop
      vertex   2.419201e-02 1.655990e-02 8.000000e-03
      vertex   2.379230e-02 1.606516e-02 8.000000e-03
      vertex   2.364713e-02 1.637521e-02 8.000000e-03
    endloop
  endfacet
  facet normal -0.000000e+00 0.000000e+00 -1.000000e+00
    outer loop
      vertex   2.419201e-02 1.655990e-02 8.000000e-03
      vertex   2.364713e-02 1.637521e-02 8.000000e-03
      vertex   2.358058e-02 1.671295e-02 8.000000e-03
    endloop
  endfacet
  facet normal 0.000000e+00 0.000000e+00 -1.000000e+00
    outer loop
      vertex   2.419201e-02 1.655990e-02 8.000000e-03
      vertex   2.358058e-02 1.671295e-02 8.000000e-03
      vertex   2.415062e-02 1.680846e-02 8.000000e-03
    endloop
  endfacet
  facet normal -0.000000e+00 0.000000e+00 -1.000000e+00
    outer loop
      vertex   2.415062e-02 1.680846e-02 8.000000e-03
      vertex   2.358058e-02 1.671295e-02 8.000000e-03
      vertex   2.355792e-02 1.706617e-02 8.000000e-03
    endloop
  endfacet
  facet normal 0.000000e+00 0.000000e+00 -1.000000e+00
    outer loop
      vertex   2.415062e-02 1.680846e-02 8.000000e-03
      vertex   2.355792e-02 1.706617e-02 8.000000e-03
      vertex   2.413841e-02 1.706617e-02 8.000000e-03
    endloop
  endfacet
  facet normal 0.000000e+00 0.000000e+00 -1.000000e+00
    outer loop
      vertex   2.413841e-02 1.706617e-02 8.000000e-03
      vertex   2.355792e-02 1.706617e-02 8.000000e-03
      vertex   2.415055e-02 1.732355e-02 8.000000e-03
    endloop
  endfacet
  facet normal -0.000000e+00 0.000000e+00 -1.000000e+00
    outer loop
      vertex   2.415055e-02 1.732355e-02 8.000000e-03
      vertex   2.355792e-02 1.706617e-02 8.000000e-03
      vertex   2.358443e-02 1.744960e-02 8.000000e-03
    endloop
  endfacet
  facet normal 0.000000e+00 0.000000e+00 -1.000000e+00
    outer loop
      vertex   2.415055e-02 1.732355e-02 8.000000e-03
      vertex   2.358443e-02 1.744960e-02 8.000000e-03
      vertex   2.419189e-02 1.757175e-02 8.000000e-03
    endloop
  endfacet
  facet normal -0.000000e+00 0.000000e+00 -1.000000e+00
    outer loop
      vertex   2.419189e-02 1.757175e-02 8.000000e-03
      vertex   2.358443e-02 1.744960e-02 8.000000e-03
      vertex   2.366346e-02 1.781214e-02 8.000000e-03
    endloop
  endfacet
  facet normal 0.000000e+00 0.000000e+00 -1.000000e+00
    outer loop
      vertex   2.419189e-02 1.757175e-02 8.000000e-03
      vertex   2.366346e-02 1.781214e-02 8.000000e-03
      vertex   2.373842e-02 1.797931e-02 8.000000e-03
    endloop
  endfacet
  facet normal 0.000000e+00 0.000000e+00 -1.000000e+00
    outer loop
      vertex   2.419189e-02 1.757175e-02 8.000000e-03
      vertex   2.373842e-02 1.797931e-02 8.000000e-03
      vertex   2.428654e-02 1.780321e-02 8.000000e-03
    endloop
  endfacet
  facet normal 0.000000e+00 0.000000e+00 -1.000000e+00
    outer loop
      vertex   2.428654e-02 1.780321e-02 8.000000e-03
      vertex   2.373842e-02 1.797931e-02 8.000000e-03
      vertex   2.383675e-02 1.813718e-02 8.000000e-03
    endloop
  endfacet
  facet normal 0.000000e+00 0.000000e+00 -1.000000e+00
    outer loop
      vertex   2.428654e-02 1.780321e-02 8.000000e-03
      vertex   2.383675e-02 1.813718e-02 8.000000e-03
      vertex   2.441768e-02 1.802319e-02 8.000000e-03
    endloop
  endfacet
  facet normal 0.000000e+00 0.000000e+00 -1.000000e+00
    outer loop
      vertex   2.441768e-02 1.802319e-02 8.000000e-03
      vertex   2.383675e-02 1.813718e-02 8.000000e-03
      vertex   2.407252e-02 1.843738e-02 8.000000e-03
    endloop
  endfacet
  facet normal 0.000000e+00 0.000000e+00 -1.000000e+00
    outer loop
      vertex   2.441768e-02 1.802319e-02 8.000000e-03
      vertex   2.407252e-02 1.843738e-02 8.000000e-03
      vertex   2.431049e-02 1.859705e-02 8.000000e-03
    endloop
  endfacet
  facet normal 0.000000e+00 0.000000e+00 -1.000000e+00
    outer loop
      vertex   2.441768e-02 1.802319e-02 8.000000e-03
      vertex   2.431049e-02 1.859705e-02 8.000000e-03
      vertex   2.456878e-02 1.815699e-02 8.000000e-03
    endloop
  endfacet
  facet normal 0.000000e+00 0.000000e+00 -1.000000e+00
    outer loop
      vertex   2.456878e-02 1.815699e-02 8.000000e-03
      vertex   2.431049e-02 1.859705e-02 8.000000e-03
      vertex   2.456180e-02 1.871947e-02 8.000000e-03
    endloop
  endfacet
  facet normal 0.000000e+00 0.000000e+00 -1.000000e+00
    outer loop
      vertex   2.456878e-02 1.815699e-02 8.000000e-03
      vertex   2.456180e-02 1.871947e-02 8.000000e-03
      vertex   2.473331e-02 1.826101e-02 8.000000e-03
    endloop
  endfacet
  facet normal 0.000000e+00 0.000000e+00 -1.000000e+00
    outer loop
      vertex   2.473331e-02 1.826101e-02 8.000000e-03
      vertex   2.456180e-02 1.871947e-02 8.000000e-03
      vertex   2.483481e-02 1.878132e-02 8.000000e-03
    endloop
  endfacet
  facet normal 0.000000e+00 0.000000e+00 -1.000000e+00
    outer loop
      vertex   2.473331e-02 1.826101e-02 8.000000e-03
      vertex   2.483481e-02 1.878132e-02 8.000000e-03
      vertex   2.492022e-02 1.831543e-02 8.000000e-03
    endloop
  endfacet
  facet normal 0.000000e+00 0.000000e+00 -1.000000e+00
    outer loop
      vertex   2.492022e-02 1.831543e-02 8.000000e-03
      vertex   2.483481e-02 1.878132e-02 8.000000e-03
      vertex   2.512054e-02 1.880764e-02 8.000000e-03
    endloop
  endfacet
endsolid
