solid ASCII
  facet normal 9.789475e-01 -2.041122e-01 0.000000e+00
    outer loop
      vertex   6.709274e-02 2.798428e-02 1.600000e-02
      vertex   6.632691e-02 2.431129e-02 1.600000e-02
      vertex   6.709274e-02 2.798428e-02 8.000000e-03
    endloop
  endfacet
  facet normal 9.789475e-01 -2.041122e-01 0.000000e+00
    outer loop
      vertex   6.709274e-02 2.798428e-02 8.000000e-03
      vertex   6.632691e-02 2.431129e-02 1.600000e-02
      vertex   6.632691e-02 2.431129e-02 8.000000e-03
    endloop
  endfacet
  facet normal 7.969990e-01 -6.039807e-01 0.000000e+00
    outer loop
      vertex   6.827865e-02 3.053455e-02 1.600000e-02
      vertex   6.784607e-02 2.996372e-02 1.600000e-02
      vertex   6.827865e-02 3.053455e-02 8.000000e-03
    endloop
  endfacet
  facet normal 7.969990e-01 -6.039807e-01 0.000000e+00
    outer loop
      vertex   6.827865e-02 3.053455e-02 8.000000e-03
      vertex   6.784607e-02 2.996372e-02 1.600000e-02
      vertex   6.784607e-02 2.996372e-02 8.000000e-03
    endloop
  endfacet
  facet normal 8.428645e-01 -5.381259e-01 0.000000e+00
    outer loop
      vertex   6.784607e-02 2.996372e-02 8.000000e-03
      vertex   6.784607e-02 2.996372e-02 1.600000e-02
      vertex   6.765572e-02 2.966559e-02 1.600000e-02
    endloop
  endfacet
  facet normal 8.428645e-01 -5.381259e-01 0.000000e+00
    outer loop
      vertex   6.784607e-02 2.996372e-02 8.000000e-03
      vertex   6.765572e-02 2.966559e-02 1.600000e-02
      vertex   6.765572e-02 2.966559e-02 8.000000e-03
    endloop
  endfacet
  facet normal 8.908478e-01 -4.543020e-01 0.000000e+00
    outer loop
      vertex   6.765572e-02 2.966559e-02 8.000000e-03
      vertex   6.765572e-02 2.966559e-02 1.600000e-02
      vertex   6.749602e-02 2.935242e-02 1.600000e-02
    endloop
  endfacet
  facet normal 8.908478e-01 -4.543020e-01 0.000000e+00
    outer loop
      vertex   6.765572e-02 2.966559e-02 8.000000e-03
      vertex   6.749602e-02 2.935242e-02 1.600000e-02
      vertex   6.749602e-02 2.935242e-02 8.000000e-03
    endloop
  endfacet
  facet normal 9.313482e-01 -3.641297e-01 0.000000e+00
    outer loop
      vertex   6.749602e-02 2.935242e-02 8.000000e-03
      vertex   6.749602e-02 2.935242e-02 1.600000e-02
      vertex   6.736759e-02 2.902393e-02 1.600000e-02
    endloop
  endfacet
  facet normal 9.313482e-01 -3.641297e-01 0.000000e+00
    outer loop
      vertex   6.749602e-02 2.935242e-02 8.000000e-03
      vertex   6.736759e-02 2.902393e-02 1.600000e-02
      vertex   6.736759e-02 2.902393e-02 8.000000e-03
    endloop
  endfacet
  facet normal 9.556855e-01 -2.943895e-01 0.000000e+00
    outer loop
      vertex   6.736759e-02 2.902393e-02 8.000000e-03
      vertex   6.736759e-02 2.902393e-02 1.600000e-02
      vertex   6.726282e-02 2.868383e-02 1.600000e-02
    endloop
  endfacet
  facet normal 9.556855e-01 -2.943895e-01 0.000000e+00
    outer loop
      vertex   6.736759e-02 2.902393e-02 8.000000e-03
      vertex   6.726282e-02 2.868383e-02 1.600000e-02
      vertex   6.726282e-02 2.868383e-02 8.000000e-03
    endloop
  endfacet
  facet normal 9.716917e-01 -2.362526e-01 0.000000e+00
    outer loop
      vertex   6.726282e-02 2.868383e-02 8.000000e-03
      vertex   6.726282e-02 2.868383e-02 1.600000e-02
      vertex   6.709274e-02 2.798428e-02 1.600000e-02
    endloop
  endfacet
  facet normal 9.716917e-01 -2.362526e-01 0.000000e+00
    outer loop
      vertex   6.726282e-02 2.868383e-02 8.000000e-03
      vertex   6.709274e-02 2.798428e-02 1.600000e-02
      vertex   6.709274e-02 2.798428e-02 8.000000e-03
    endloop
  endfacet
  facet normal 1.202255e-01 -9.927466e-01 0.000000e+00
    outer loop
      vertex   7.011886e-02 3.127807e-02 1.600000e-02
      vertex   6.960911e-02 3.121634e-02 1.600000e-02
      vertex   7.011886e-02 3.127807e-02 8.000000e-03
    endloop
  endfacet
  facet normal 1.202255e-01 -9.927466e-01 0.000000e+00
    outer loop
      vertex   7.011886e-02 3.127807e-02 8.000000e-03
      vertex   6.960911e-02 3.121634e-02 1.600000e-02
      vertex   6.960911e-02 3.121634e-02 8.000000e-03
    endloop
  endfacet
  facet normal 2.076667e-01 -9.781996e-01 0.000000e+00
    outer loop
      vertex   6.960911e-02 3.121634e-02 8.000000e-03
      vertex   6.960911e-02 3.121634e-02 1.600000e-02
      vertex   6.936281e-02 3.116405e-02 1.600000e-02
    endloop
  endfacet
  facet normal 2.076667e-01 -9.781996e-01 0.000000e+00
    outer loop
      vertex   6.960911e-02 3.121634e-02 8.000000e-03
      vertex   6.936281e-02 3.116405e-02 1.600000e-02
      vertex   6.936281e-02 3.116405e-02 8.000000e-03
    endloop
  endfacet
  facet normal 3.137771e-01 -9.494967e-01 0.000000e+00
    outer loop
      vertex   6.936281e-02 3.116405e-02 8.000000e-03
      vertex   6.936281e-02 3.116405e-02 1.600000e-02
      vertex   6.912680e-02 3.108606e-02 1.600000e-02
    endloop
  endfacet
  facet normal 3.137771e-01 -9.494967e-01 0.000000e+00
    outer loop
      vertex   6.936281e-02 3.116405e-02 8.000000e-03
      vertex   6.912680e-02 3.108606e-02 1.600000e-02
      vertex   6.912680e-02 3.108606e-02 8.000000e-03
    endloop
  endfacet
  facet normal 4.376598e-01 -8.991407e-01 0.000000e+00
    outer loop
      vertex   6.912680e-02 3.108606e-02 8.000000e-03
      vertex   6.912680e-02 3.108606e-02 1.600000e-02
      vertex   6.890315e-02 3.097719e-02 1.600000e-02
    endloop
  endfacet
  facet normal 4.376598e-01 -8.991407e-01 0.000000e+00
    outer loop
      vertex   6.912680e-02 3.108606e-02 8.000000e-03
      vertex   6.890315e-02 3.097719e-02 1.600000e-02
      vertex   6.890315e-02 3.097719e-02 8.000000e-03
    endloop
  endfacet
  facet normal 5.304853e-01 -8.476942e-01 0.000000e+00
    outer loop
      vertex   6.890315e-02 3.097719e-02 8.000000e-03
      vertex   6.890315e-02 3.097719e-02 1.600000e-02
      vertex   6.868945e-02 3.084346e-02 1.600000e-02
    endloop
  endfacet
  facet normal 5.304853e-01 -8.476942e-01 0.000000e+00
    outer loop
      vertex   6.890315e-02 3.097719e-02 8.000000e-03
      vertex   6.868945e-02 3.084346e-02 1.600000e-02
      vertex   6.868945e-02 3.084346e-02 8.000000e-03
    endloop
  endfacet
  facet normal 6.010038e-01 -7.992462e-01 0.000000e+00
    outer loop
      vertex   6.868945e-02 3.084346e-02 8.000000e-03
      vertex   6.868945e-02 3.084346e-02 1.600000e-02
      vertex   6.827865e-02 3.053455e-02 1.600000e-02
    endloop
  endfacet
  facet normal 6.010038e-01 -7.992462e-01 0.000000e+00
    outer loop
      vertex   6.868945e-02 3.084346e-02 8.000000e-03
      vertex   6.827865e-02 3.053455e-02 1.600000e-02
      vertex   6.827865e-02 3.053455e-02 8.000000e-03
    endloop
  endfacet
  facet normal -5.337991e-01 -8.456113e-01 -0.000000e+00
    outer loop
      vertex   7.090327e-02 3.103271e-02 1.600000e-02
      vertex   7.072431e-02 3.114568e-02 1.600000e-02
      vertex   7.090327e-02 3.103271e-02 8.000000e-03
    endloop
  endfacet
  facet normal -5.337991e-01 -8.456113e-01 0.000000e+00
    outer loop
      vertex   7.090327e-02 3.103271e-02 8.000000e-03
      vertex   7.072431e-02 3.114568e-02 1.600000e-02
      vertex   7.072431e-02 3.114568e-02 8.000000e-03
    endloop
  endfacet
  facet normal -4.010133e-01 -9.160722e-01 0.000000e+00
    outer loop
      vertex   7.072431e-02 3.114568e-02 8.000000e-03
      vertex   7.072431e-02 3.114568e-02 1.600000e-02
      vertex   7.053531e-02 3.122842e-02 1.600000e-02
    endloop
  endfacet
  facet normal -4.010133e-01 -9.160722e-01 0.000000e+00
    outer loop
      vertex   7.072431e-02 3.114568e-02 8.000000e-03
      vertex   7.053531e-02 3.122842e-02 1.600000e-02
      vertex   7.053531e-02 3.122842e-02 8.000000e-03
    endloop
  endfacet
  facet normal -1.803304e-01 -9.836061e-01 0.000000e+00
    outer loop
      vertex   7.053531e-02 3.122842e-02 8.000000e-03
      vertex   7.053531e-02 3.122842e-02 1.600000e-02
      vertex   7.033126e-02 3.126583e-02 1.600000e-02
    endloop
  endfacet
  facet normal -1.803304e-01 -9.836061e-01 0.000000e+00
    outer loop
      vertex   7.053531e-02 3.122842e-02 8.000000e-03
      vertex   7.033126e-02 3.126583e-02 1.600000e-02
      vertex   7.033126e-02 3.126583e-02 8.000000e-03
    endloop
  endfacet
  facet normal -5.755064e-02 -9.983426e-01 0.000000e+00
    outer loop
      vertex   7.033126e-02 3.126583e-02 8.000000e-03
      vertex   7.033126e-02 3.126583e-02 1.600000e-02
      vertex   7.011886e-02 3.127807e-02 1.600000e-02
    endloop
  endfacet
  facet normal -5.755064e-02 -9.983426e-01 0.000000e+00
    outer loop
      vertex   7.033126e-02 3.126583e-02 8.000000e-03
      vertex   7.011886e-02 3.127807e-02 1.600000e-02
      vertex   7.011886e-02 3.127807e-02 8.000000e-03
    endloop
  endfacet
  facet normal -9.942305e-01 -1.072649e-01 0.000000e+00
    outer loop
      vertex   7.117466e-02 3.039328e-02 8.000000e-03
      vertex   7.117466e-02 3.039328e-02 1.600000e-02
      vertex   7.115517e-02 3.057393e-02 1.200000e-02
    endloop
  endfacet
  facet normal -9.942305e-01 -1.072649e-01 9.303744e-17
    outer loop
      vertex   7.115517e-02 3.057393e-02 1.200000e-02
      vertex   7.117466e-02 3.039328e-02 1.600000e-02
      vertex   7.115517e-02 3.057393e-02 1.600000e-02
    endloop
  endfacet
  facet normal -9.658428e-01 -2.591289e-01 2.247585e-16
    outer loop
      vertex   7.115517e-02 3.057393e-02 1.200000e-02
      vertex   7.115517e-02 3.057393e-02 1.600000e-02
      vertex   7.110970e-02 3.074341e-02 1.600000e-02
    endloop
  endfacet
  facet normal -9.658428e-01 -2.591289e-01 4.501914e-16
    outer loop
      vertex   7.115517e-02 3.057393e-02 1.200000e-02
      vertex   7.110970e-02 3.074341e-02 1.600000e-02
      vertex   7.110970e-02 3.074341e-02 1.200000e-02
    endloop
  endfacet
  facet normal -8.590678e-01 -5.118618e-01 8.879387e-16
    outer loop
      vertex   7.110970e-02 3.074341e-02 1.200000e-02
      vertex   7.110970e-02 3.074341e-02 1.600000e-02
      vertex   7.102004e-02 3.089388e-02 1.600000e-02
    endloop
  endfacet
  facet normal -8.590678e-01 -5.118618e-01 -4.438985e-16
    outer loop
      vertex   7.110970e-02 3.074341e-02 1.200000e-02
      vertex   7.102004e-02 3.089388e-02 1.600000e-02
      vertex   7.102004e-02 3.089388e-02 1.200000e-02
    endloop
  endfacet
  facet normal -7.652945e-01 -6.436803e-01 -5.583036e-16
    outer loop
      vertex   7.102004e-02 3.089388e-02 1.200000e-02
      vertex   7.102004e-02 3.089388e-02 1.600000e-02
      vertex   7.090327e-02 3.103271e-02 1.600000e-02
    endloop
  endfacet
  facet normal -7.652945e-01 -6.436803e-01 0.000000e+00
    outer loop
      vertex   7.102004e-02 3.089388e-02 1.200000e-02
      vertex   7.090327e-02 3.103271e-02 1.600000e-02
      vertex   7.090327e-02 3.103271e-02 8.000000e-03
    endloop
  endfacet
  facet normal -7.652945e-01 -6.436803e-01 5.563194e-16
    outer loop
      vertex   7.090327e-02 3.103271e-02 8.000000e-03
      vertex   7.102004e-02 3.089388e-02 8.000000e-03
      vertex   7.102004e-02 3.089388e-02 1.200000e-02
    endloop
  endfacet
  facet normal -8.590678e-01 -5.118618e-01 4.439693e-16
    outer loop
      vertex   7.102004e-02 3.089388e-02 1.200000e-02
      vertex   7.102004e-02 3.089388e-02 8.000000e-03
      vertex   7.110970e-02 3.074341e-02 8.000000e-03
    endloop
  endfacet
  facet normal -8.590678e-01 -5.118618e-01 -8.877970e-16
    outer loop
      vertex   7.102004e-02 3.089388e-02 1.200000e-02
      vertex   7.110970e-02 3.074341e-02 8.000000e-03
      vertex   7.110970e-02 3.074341e-02 1.200000e-02
    endloop
  endfacet
  facet normal -9.658428e-01 -2.591289e-01 -4.495169e-16
    outer loop
      vertex   7.110970e-02 3.074341e-02 1.200000e-02
      vertex   7.110970e-02 3.074341e-02 8.000000e-03
      vertex   7.115517e-02 3.057393e-02 8.000000e-03
    endloop
  endfacet
  facet normal -9.658428e-01 -2.591289e-01 -2.239172e-16
    outer loop
      vertex   7.110970e-02 3.074341e-02 1.200000e-02
      vertex   7.115517e-02 3.057393e-02 8.000000e-03
      vertex   7.115517e-02 3.057393e-02 1.200000e-02
    endloop
  endfacet
  facet normal -9.942305e-01 -1.072649e-01 -9.303744e-17
    outer loop
      vertex   7.115517e-02 3.057393e-02 1.200000e-02
      vertex   7.115517e-02 3.057393e-02 8.000000e-03
      vertex   7.117466e-02 3.039328e-02 8.000000e-03
    endloop
  endfacet
  facet normal -9.789190e-01 2.042486e-01 0.000000e+00
    outer loop
      vertex   7.101852e-02 2.931518e-02 1.600000e-02
      vertex   7.107428e-02 2.958243e-02 1.600000e-02
      vertex   7.101852e-02 2.931518e-02 8.000000e-03
    endloop
  endfacet
  facet normal -9.789190e-01 2.042486e-01 0.000000e+00
    outer loop
      vertex   7.101852e-02 2.931518e-02 8.000000e-03
      vertex   7.107428e-02 2.958243e-02 1.600000e-02
      vertex   7.107428e-02 2.958243e-02 8.000000e-03
    endloop
  endfacet
  facet normal -9.846193e-01 1.747133e-01 0.000000e+00
    outer loop
      vertex   7.107428e-02 2.958243e-02 8.000000e-03
      vertex   7.107428e-02 2.958243e-02 1.600000e-02
      vertex   7.112190e-02 2.985079e-02 1.600000e-02
    endloop
  endfacet
  facet normal -9.846193e-01 1.747133e-01 0.000000e+00
    outer loop
      vertex   7.107428e-02 2.958243e-02 8.000000e-03
      vertex   7.112190e-02 2.985079e-02 1.600000e-02
      vertex   7.112190e-02 2.985079e-02 8.000000e-03
    endloop
  endfacet
  facet normal -9.929935e-01 1.181686e-01 0.000000e+00
    outer loop
      vertex   7.112190e-02 2.985079e-02 8.000000e-03
      vertex   7.112190e-02 2.985079e-02 1.600000e-02
      vertex   7.115408e-02 3.012124e-02 1.600000e-02
    endloop
  endfacet
  facet normal -9.929935e-01 1.181686e-01 0.000000e+00
    outer loop
      vertex   7.112190e-02 2.985079e-02 8.000000e-03
      vertex   7.115408e-02 3.012124e-02 1.600000e-02
      vertex   7.115408e-02 3.012124e-02 8.000000e-03
    endloop
  endfacet
  facet normal -9.971517e-01 7.542144e-02 0.000000e+00
    outer loop
      vertex   7.115408e-02 3.012124e-02 8.000000e-03
      vertex   7.115408e-02 3.012124e-02 1.600000e-02
      vertex   7.117466e-02 3.039328e-02 1.600000e-02
    endloop
  endfacet
  facet normal -9.971517e-01 7.542144e-02 0.000000e+00
    outer loop
      vertex   7.115408e-02 3.012124e-02 8.000000e-03
      vertex   7.117466e-02 3.039328e-02 1.600000e-02
      vertex   7.117466e-02 3.039328e-02 8.000000e-03
    endloop
  endfacet
  facet normal -9.787500e-01 2.050570e-01 0.000000e+00
    outer loop
      vertex   6.997016e-02 2.431129e-02 1.600000e-02
      vertex   7.101852e-02 2.931518e-02 1.600000e-02
      vertex   6.997016e-02 2.431129e-02 8.000000e-03
    endloop
  endfacet
  facet normal -9.787500e-01 2.050570e-01 0.000000e+00
    outer loop
      vertex   6.997016e-02 2.431129e-02 8.000000e-03
      vertex   7.101852e-02 2.931518e-02 1.600000e-02
      vertex   7.101852e-02 2.931518e-02 8.000000e-03
    endloop
  endfacet
  facet normal -0.000000e+00 -1.000000e+00 -0.000000e+00
    outer loop
      vertex   7.131593e-02 2.431129e-02 1.600000e-02
      vertex   6.997016e-02 2.431129e-02 1.600000e-02
      vertex   7.131593e-02 2.431129e-02 8.000000e-03
    endloop
  endfacet
  facet normal 0.000000e+00 -1.000000e+00 0.000000e+00
    outer loop
      vertex   7.131593e-02 2.431129e-02 8.000000e-03
      vertex   6.997016e-02 2.431129e-02 1.600000e-02
      vertex   6.997016e-02 2.431129e-02 8.000000e-03
    endloop
  endfacet
  facet normal 9.786627e-01 -2.054735e-01 0.000000e+00
    outer loop
      vertex   7.231968e-02 2.909212e-02 1.600000e-02
      vertex   7.131593e-02 2.431129e-02 1.600000e-02
      vertex   7.231968e-02 2.909212e-02 8.000000e-03
    endloop
  endfacet
  facet normal 9.786627e-01 -2.054735e-01 0.000000e+00
    outer loop
      vertex   7.231968e-02 2.909212e-02 8.000000e-03
      vertex   7.131593e-02 2.431129e-02 1.600000e-02
      vertex   7.131593e-02 2.431129e-02 8.000000e-03
    endloop
  endfacet
  facet normal 9.972637e-01 -7.392688e-02 0.000000e+00
    outer loop
      vertex   7.251300e-02 3.047507e-02 1.600000e-02
      vertex   7.248715e-02 3.012638e-02 1.600000e-02
      vertex   7.251300e-02 3.047507e-02 8.000000e-03
    endloop
  endfacet
  facet normal 9.972637e-01 -7.392688e-02 0.000000e+00
    outer loop
      vertex   7.251300e-02 3.047507e-02 8.000000e-03
      vertex   7.248715e-02 3.012638e-02 1.600000e-02
      vertex   7.248715e-02 3.012638e-02 8.000000e-03
    endloop
  endfacet
  facet normal 9.933960e-01 -1.147363e-01 0.000000e+00
    outer loop
      vertex   7.248715e-02 3.012638e-02 8.000000e-03
      vertex   7.248715e-02 3.012638e-02 1.600000e-02
      vertex   7.244709e-02 2.977956e-02 1.600000e-02
    endloop
  endfacet
  facet normal 9.933960e-01 -1.147363e-01 0.000000e+00
    outer loop
      vertex   7.248715e-02 3.012638e-02 8.000000e-03
      vertex   7.244709e-02 2.977956e-02 1.600000e-02
      vertex   7.244709e-02 2.977956e-02 8.000000e-03
    endloop
  endfacet
  facet normal 9.857434e-01 -1.682556e-01 0.000000e+00
    outer loop
      vertex   7.244709e-02 2.977956e-02 8.000000e-03
      vertex   7.244709e-02 2.977956e-02 1.600000e-02
      vertex   7.238831e-02 2.943520e-02 1.600000e-02
    endloop
  endfacet
  facet normal 9.857434e-01 -1.682556e-01 0.000000e+00
    outer loop
      vertex   7.244709e-02 2.977956e-02 8.000000e-03
      vertex   7.238831e-02 2.943520e-02 1.600000e-02
      vertex   7.238831e-02 2.943520e-02 8.000000e-03
    endloop
  endfacet
  facet normal 9.805726e-01 -1.961568e-01 0.000000e+00
    outer loop
      vertex   7.238831e-02 2.943520e-02 8.000000e-03
      vertex   7.238831e-02 2.943520e-02 1.600000e-02
      vertex   7.231968e-02 2.909212e-02 1.600000e-02
    endloop
  endfacet
  facet normal 9.805726e-01 -1.961568e-01 0.000000e+00
    outer loop
      vertex   7.238831e-02 2.943520e-02 8.000000e-03
      vertex   7.231968e-02 2.909212e-02 1.600000e-02
      vertex   7.231968e-02 2.909212e-02 8.000000e-03
    endloop
  endfacet
  facet normal 7.878670e-01 6.158454e-01 0.000000e+00
    outer loop
      vertex   7.196651e-02 3.186545e-02 1.600000e-02
      vertex   7.220585e-02 3.155925e-02 1.600000e-02
      vertex   7.196651e-02 3.186545e-02 8.000000e-03
    endloop
  endfacet
  facet normal 7.878670e-01 6.158454e-01 0.000000e+00
    outer loop
      vertex   7.196651e-02 3.186545e-02 8.000000e-03
      vertex   7.220585e-02 3.155925e-02 1.600000e-02
      vertex   7.220585e-02 3.155925e-02 8.000000e-03
    endloop
  endfacet
  facet normal 8.757693e-01 4.827299e-01 -0.000000e+00
    outer loop
      vertex   7.220585e-02 3.155925e-02 8.000000e-03
      vertex   7.220585e-02 3.155925e-02 1.600000e-02
      vertex   7.238746e-02 3.122978e-02 1.600000e-02
    endloop
  endfacet
  facet normal 8.757693e-01 4.827299e-01 0.000000e+00
    outer loop
      vertex   7.220585e-02 3.155925e-02 8.000000e-03
      vertex   7.238746e-02 3.122978e-02 1.600000e-02
      vertex   7.238746e-02 3.122978e-02 8.000000e-03
    endloop
  endfacet
  facet normal 9.715222e-01 2.369485e-01 -0.000000e+00
    outer loop
      vertex   7.238746e-02 3.122978e-02 8.000000e-03
      vertex   7.238746e-02 3.122978e-02 1.600000e-02
      vertex   7.247687e-02 3.086316e-02 1.600000e-02
    endloop
  endfacet
  facet normal 9.715222e-01 2.369485e-01 0.000000e+00
    outer loop
      vertex   7.238746e-02 3.122978e-02 8.000000e-03
      vertex   7.247687e-02 3.086316e-02 1.600000e-02
      vertex   7.247687e-02 3.086316e-02 8.000000e-03
    endloop
  endfacet
  facet normal 9.956966e-01 9.267252e-02 -0.000000e+00
    outer loop
      vertex   7.247687e-02 3.086316e-02 8.000000e-03
      vertex   7.247687e-02 3.086316e-02 1.600000e-02
      vertex   7.251300e-02 3.047507e-02 1.600000e-02
    endloop
  endfacet
  facet normal 9.956966e-01 9.267252e-02 0.000000e+00
    outer loop
      vertex   7.247687e-02 3.086316e-02 8.000000e-03
      vertex   7.251300e-02 3.047507e-02 1.600000e-02
      vertex   7.251300e-02 3.047507e-02 8.000000e-03
    endloop
  endfacet
  facet normal 7.304411e-02 9.973287e-01 0.000000e+00
    outer loop
      vertex   7.046088e-02 3.238591e-02 1.600000e-02
      vertex   7.087330e-02 3.235571e-02 1.600000e-02
      vertex   7.046088e-02 3.238591e-02 8.000000e-03
    endloop
  endfacet
  facet normal 7.304411e-02 9.973287e-01 0.000000e+00
    outer loop
      vertex   7.046088e-02 3.238591e-02 8.000000e-03
      vertex   7.087330e-02 3.235571e-02 1.600000e-02
      vertex   7.087330e-02 3.235571e-02 8.000000e-03
    endloop
  endfacet
  facet normal 2.045697e-01 9.788520e-01 -0.000000e+00
    outer loop
      vertex   7.087330e-02 3.235571e-02 8.000000e-03
      vertex   7.087330e-02 3.235571e-02 1.600000e-02
      vertex   7.126695e-02 3.227344e-02 1.600000e-02
    endloop
  endfacet
  facet normal 2.045697e-01 9.788520e-01 0.000000e+00
    outer loop
      vertex   7.087330e-02 3.235571e-02 8.000000e-03
      vertex   7.126695e-02 3.227344e-02 1.600000e-02
      vertex   7.126695e-02 3.227344e-02 8.000000e-03
    endloop
  endfacet
  facet normal 4.352528e-01 9.003083e-01 -0.000000e+00
    outer loop
      vertex   7.126695e-02 3.227344e-02 8.000000e-03
      vertex   7.126695e-02 3.227344e-02 1.600000e-02
      vertex   7.162744e-02 3.209916e-02 1.600000e-02
    endloop
  endfacet
  facet normal 4.352528e-01 9.003083e-01 0.000000e+00
    outer loop
      vertex   7.126695e-02 3.227344e-02 8.000000e-03
      vertex   7.162744e-02 3.209916e-02 1.600000e-02
      vertex   7.162744e-02 3.209916e-02 8.000000e-03
    endloop
  endfacet
  facet normal 5.675213e-01 8.233587e-01 -0.000000e+00
    outer loop
      vertex   7.162744e-02 3.209916e-02 8.000000e-03
      vertex   7.162744e-02 3.209916e-02 1.600000e-02
      vertex   7.196651e-02 3.186545e-02 1.600000e-02
    endloop
  endfacet
  facet normal 5.675213e-01 8.233587e-01 0.000000e+00
    outer loop
      vertex   7.162744e-02 3.209916e-02 8.000000e-03
      vertex   7.196651e-02 3.186545e-02 1.600000e-02
      vertex   7.196651e-02 3.186545e-02 8.000000e-03
    endloop
  endfacet
  facet normal -4.144878e-01 9.100549e-01 0.000000e+00
    outer loop
      vertex   6.904819e-02 3.201416e-02 1.600000e-02
      vertex   6.938557e-02 3.216781e-02 1.600000e-02
      vertex   6.904819e-02 3.201416e-02 8.000000e-03
    endloop
  endfacet
  facet normal -4.144878e-01 9.100549e-01 0.000000e+00
    outer loop
      vertex   6.904819e-02 3.201416e-02 8.000000e-03
      vertex   6.938557e-02 3.216781e-02 1.600000e-02
      vertex   6.938557e-02 3.216781e-02 8.000000e-03
    endloop
  endfacet
  facet normal -3.303739e-01 9.438501e-01 0.000000e+00
    outer loop
      vertex   6.938557e-02 3.216781e-02 8.000000e-03
      vertex   6.938557e-02 3.216781e-02 1.600000e-02
      vertex   6.973142e-02 3.228887e-02 1.600000e-02
    endloop
  endfacet
  facet normal -3.303739e-01 9.438501e-01 0.000000e+00
    outer loop
      vertex   6.938557e-02 3.216781e-02 8.000000e-03
      vertex   6.973142e-02 3.228887e-02 1.600000e-02
      vertex   6.973142e-02 3.228887e-02 8.000000e-03
    endloop
  endfacet
  facet normal -1.790205e-01 9.838454e-01 0.000000e+00
    outer loop
      vertex   6.973142e-02 3.228887e-02 8.000000e-03
      vertex   6.973142e-02 3.228887e-02 1.600000e-02
      vertex   7.009172e-02 3.235443e-02 1.600000e-02
    endloop
  endfacet
  facet normal -1.790205e-01 9.838454e-01 0.000000e+00
    outer loop
      vertex   6.973142e-02 3.228887e-02 8.000000e-03
      vertex   7.009172e-02 3.235443e-02 1.600000e-02
      vertex   7.009172e-02 3.235443e-02 8.000000e-03
    endloop
  endfacet
  facet normal -8.497150e-02 9.963834e-01 0.000000e+00
    outer loop
      vertex   7.009172e-02 3.235443e-02 8.000000e-03
      vertex   7.009172e-02 3.235443e-02 1.600000e-02
      vertex   7.046088e-02 3.238591e-02 1.600000e-02
    endloop
  endfacet
  facet normal -8.497150e-02 9.963834e-01 0.000000e+00
    outer loop
      vertex   7.009172e-02 3.235443e-02 8.000000e-03
      vertex   7.046088e-02 3.238591e-02 1.600000e-02
      vertex   7.046088e-02 3.238591e-02 8.000000e-03
    endloop
  endfacet
  facet normal -6.963877e-01 7.176657e-01 0.000000e+00
    outer loop
      vertex   6.756115e-02 3.083196e-02 1.600000e-02
      vertex   6.790389e-02 3.116453e-02 1.600000e-02
      vertex   6.756115e-02 3.083196e-02 8.000000e-03
    endloop
  endfacet
  facet normal -6.963877e-01 7.176657e-01 0.000000e+00
    outer loop
      vertex   6.756115e-02 3.083196e-02 8.000000e-03
      vertex   6.790389e-02 3.116453e-02 1.600000e-02
      vertex   6.790389e-02 3.116453e-02 8.000000e-03
    endloop
  endfacet
  facet normal -6.593270e-01 7.518563e-01 0.000000e+00
    outer loop
      vertex   6.790389e-02 3.116453e-02 8.000000e-03
      vertex   6.790389e-02 3.116453e-02 1.600000e-02
      vertex   6.826150e-02 3.147813e-02 1.600000e-02
    endloop
  endfacet
  facet normal -6.593270e-01 7.518563e-01 0.000000e+00
    outer loop
      vertex   6.790389e-02 3.116453e-02 8.000000e-03
      vertex   6.826150e-02 3.147813e-02 1.600000e-02
      vertex   6.826150e-02 3.147813e-02 8.000000e-03
    endloop
  endfacet
  facet normal -5.879632e-01 8.088876e-01 0.000000e+00
    outer loop
      vertex   6.826150e-02 3.147813e-02 8.000000e-03
      vertex   6.826150e-02 3.147813e-02 1.600000e-02
      vertex   6.864590e-02 3.175755e-02 1.600000e-02
    endloop
  endfacet
  facet normal -5.879632e-01 8.088876e-01 0.000000e+00
    outer loop
      vertex   6.826150e-02 3.147813e-02 8.000000e-03
      vertex   6.864590e-02 3.175755e-02 1.600000e-02
      vertex   6.864590e-02 3.175755e-02 8.000000e-03
    endloop
  endfacet
  facet normal -5.377753e-01 8.430882e-01 0.000000e+00
    outer loop
      vertex   6.864590e-02 3.175755e-02 8.000000e-03
      vertex   6.864590e-02 3.175755e-02 1.600000e-02
      vertex   6.904819e-02 3.201416e-02 1.600000e-02
    endloop
  endfacet
  facet normal -5.377753e-01 8.430882e-01 0.000000e+00
    outer loop
      vertex   6.864590e-02 3.175755e-02 8.000000e-03
      vertex   6.904819e-02 3.201416e-02 1.600000e-02
      vertex   6.904819e-02 3.201416e-02 8.000000e-03
    endloop
  endfacet
  facet normal 9.784934e-01 -2.062782e-01 0.000000e+00
    outer loop
      vertex   6.785113e-02 3.220747e-02 1.600000e-02
      vertex   6.756115e-02 3.083196e-02 1.600000e-02
      vertex   6.785113e-02 3.220747e-02 8.000000e-03
    endloop
  endfacet
  facet normal 9.784934e-01 -2.062782e-01 0.000000e+00
    outer loop
      vertex   6.785113e-02 3.220747e-02 8.000000e-03
      vertex   6.756115e-02 3.083196e-02 1.600000e-02
      vertex   6.756115e-02 3.083196e-02 8.000000e-03
    endloop
  endfacet
  facet normal -0.000000e+00 1.000000e+00 0.000000e+00
    outer loop
      vertex   6.663175e-02 3.220747e-02 1.600000e-02
      vertex   6.785113e-02 3.220747e-02 1.600000e-02
      vertex   6.663175e-02 3.220747e-02 8.000000e-03
    endloop
  endfacet
  facet normal 0.000000e+00 1.000000e+00 0.000000e+00
    outer loop
      vertex   6.663175e-02 3.220747e-02 8.000000e-03
      vertex   6.785113e-02 3.220747e-02 1.600000e-02
      vertex   6.785113e-02 3.220747e-02 8.000000e-03
    endloop
  endfacet
  facet normal -9.788422e-01 2.046168e-01 0.000000e+00
    outer loop
      vertex   6.498114e-02 2.431129e-02 1.600000e-02
      vertex   6.663175e-02 3.220747e-02 1.600000e-02
      vertex   6.498114e-02 2.431129e-02 8.000000e-03
    endloop
  endfacet
  facet normal -9.788422e-01 2.046168e-01 0.000000e+00
    outer loop
      vertex   6.498114e-02 2.431129e-02 8.000000e-03
      vertex   6.663175e-02 3.220747e-02 1.600000e-02
      vertex   6.663175e-02 3.220747e-02 8.000000e-03
    endloop
  endfacet
  facet normal -0.000000e+00 -1.000000e+00 -0.000000e+00
    outer loop
      vertex   6.632691e-02 2.431129e-02 1.600000e-02
      vertex   6.498114e-02 2.431129e-02 1.600000e-02
      vertex   6.632691e-02 2.431129e-02 8.000000e-03
    endloop
  endfacet
  facet normal 0.000000e+00 -1.000000e+00 0.000000e+00
    outer loop
      vertex   6.632691e-02 2.431129e-02 8.000000e-03
      vertex   6.498114e-02 2.431129e-02 1.600000e-02
      vertex   6.498114e-02 2.431129e-02 8.000000e-03
    endloop
  endfacet
  facet normal 0.000000e+00 -0.000000e+00 1.000000e+00
    outer loop
      vertex   6.632691e-02 2.431129e-02 1.600000e-02
      vertex   6.709274e-02 2.798428e-02 1.600000e-02
      vertex   6.498114e-02 2.431129e-02 1.600000e-02
    endloop
  endfacet
  facet normal 0.000000e+00 0.000000e+00 1.000000e+00
    outer loop
      vertex   6.498114e-02 2.431129e-02 1.600000e-02
      vertex   6.709274e-02 2.798428e-02 1.600000e-02
      vertex   6.663175e-02 3.220747e-02 1.600000e-02
    endloop
  endfacet
  facet normal 0.000000e+00 0.000000e+00 1.000000e+00
    outer loop
      vertex   6.663175e-02 3.220747e-02 1.600000e-02
      vertex   6.709274e-02 2.798428e-02 1.600000e-02
      vertex   6.726282e-02 2.868383e-02 1.600000e-02
    endloop
  endfacet
  facet normal 0.000000e+00 0.000000e+00 1.000000e+00
    outer loop
      vertex   6.663175e-02 3.220747e-02 1.600000e-02
      vertex   6.726282e-02 2.868383e-02 1.600000e-02
      vertex   6.736759e-02 2.902393e-02 1.600000e-02
    endloop
  endfacet
  facet normal 0.000000e+00 -0.000000e+00 1.000000e+00
    outer loop
      vertex   6.736759e-02 2.902393e-02 1.600000e-02
      vertex   6.749602e-02 2.935242e-02 1.600000e-02
      vertex   6.663175e-02 3.220747e-02 1.600000e-02
    endloop
  endfacet
  facet normal 0.000000e+00 0.000000e+00 1.000000e+00
    outer loop
      vertex   6.663175e-02 3.220747e-02 1.600000e-02
      vertex   6.749602e-02 2.935242e-02 1.600000e-02
      vertex   6.756115e-02 3.083196e-02 1.600000e-02
    endloop
  endfacet
  facet normal -0.000000e+00 0.000000e+00 1.000000e+00
    outer loop
      vertex   6.663175e-02 3.220747e-02 1.600000e-02
      vertex   6.756115e-02 3.083196e-02 1.600000e-02
      vertex   6.785113e-02 3.220747e-02 1.600000e-02
    endloop
  endfacet
  facet normal 0.000000e+00 0.000000e+00 1.000000e+00
    outer loop
      vertex   6.749602e-02 2.935242e-02 1.600000e-02
      vertex   6.765572e-02 2.966559e-02 1.600000e-02
      vertex   6.756115e-02 3.083196e-02 1.600000e-02
    endloop
  endfacet
  facet normal 0.000000e+00 0.000000e+00 1.000000e+00
    outer loop
      vertex   6.756115e-02 3.083196e-02 1.600000e-02
      vertex   6.765572e-02 2.966559e-02 1.600000e-02
      vertex   6.784607e-02 2.996372e-02 1.600000e-02
    endloop
  endfacet
  facet normal 0.000000e+00 0.000000e+00 1.000000e+00
    outer loop
      vertex   6.756115e-02 3.083196e-02 1.600000e-02
      vertex   6.784607e-02 2.996372e-02 1.600000e-02
      vertex   6.827865e-02 3.053455e-02 1.600000e-02
    endloop
  endfacet
  facet normal -0.000000e+00 0.000000e+00 1.000000e+00
    outer loop
      vertex   6.756115e-02 3.083196e-02 1.600000e-02
      vertex   6.827865e-02 3.053455e-02 1.600000e-02
      vertex   6.790389e-02 3.116453e-02 1.600000e-02
    endloop
  endfacet
  facet normal 0.000000e+00 0.000000e+00 1.000000e+00
    outer loop
      vertex   6.790389e-02 3.116453e-02 1.600000e-02
      vertex   6.827865e-02 3.053455e-02 1.600000e-02
      vertex   6.868945e-02 3.084346e-02 1.600000e-02
    endloop
  endfacet
  facet normal -0.000000e+00 0.000000e+00 1.000000e+00
    outer loop
      vertex   6.790389e-02 3.116453e-02 1.600000e-02
      vertex   6.868945e-02 3.084346e-02 1.600000e-02
      vertex   6.826150e-02 3.147813e-02 1.600000e-02
    endloop
  endfacet
  facet normal 0.000000e+00 0.000000e+00 1.000000e+00
    outer loop
      vertex   6.826150e-02 3.147813e-02 1.600000e-02
      vertex   6.868945e-02 3.084346e-02 1.600000e-02
      vertex   6.890315e-02 3.097719e-02 1.600000e-02
    endloop
  endfacet
  facet normal -0.000000e+00 0.000000e+00 1.000000e+00
    outer loop
      vertex   6.826150e-02 3.147813e-02 1.600000e-02
      vertex   6.890315e-02 3.097719e-02 1.600000e-02
      vertex   6.864590e-02 3.175755e-02 1.600000e-02
    endloop
  endfacet
  facet normal 0.000000e+00 0.000000e+00 1.000000e+00
    outer loop
      vertex   6.864590e-02 3.175755e-02 1.600000e-02
      vertex   6.890315e-02 3.097719e-02 1.600000e-02
      vertex   6.912680e-02 3.108606e-02 1.600000e-02
    endloop
  endfacet
  facet normal -0.000000e+00 0.000000e+00 1.000000e+00
    outer loop
      vertex   6.864590e-02 3.175755e-02 1.600000e-02
      vertex   6.912680e-02 3.108606e-02 1.600000e-02
      vertex   6.904819e-02 3.201416e-02 1.600000e-02
    endloop
  endfacet
  facet normal 0.000000e+00 0.000000e+00 1.000000e+00
    outer loop
      vertex   6.904819e-02 3.201416e-02 1.600000e-02
      vertex   6.912680e-02 3.108606e-02 1.600000e-02
      vertex   6.936281e-02 3.116405e-02 1.600000e-02
    endloop
  endfacet
  facet normal -0.000000e+00 0.000000e+00 1.000000e+00
    outer loop
      vertex   6.904819e-02 3.201416e-02 1.600000e-02
      vertex   6.936281e-02 3.116405e-02 1.600000e-02
      vertex   6.938557e-02 3.216781e-02 1.600000e-02
    endloop
  endfacet
  facet normal 0.000000e+00 0.000000e+00 1.000000e+00
    outer loop
      vertex   6.938557e-02 3.216781e-02 1.600000e-02
      vertex   6.936281e-02 3.116405e-02 1.600000e-02
      vertex   6.960911e-02 3.121634e-02 1.600000e-02
    endloop
  endfacet
  facet normal -0.000000e+00 0.000000e+00 1.000000e+00
    outer loop
      vertex   6.938557e-02 3.216781e-02 1.600000e-02
      vertex   6.960911e-02 3.121634e-02 1.600000e-02
      vertex   6.973142e-02 3.228887e-02 1.600000e-02
    endloop
  endfacet
  facet normal 0.000000e+00 0.000000e+00 1.000000e+00
    outer loop
      vertex   6.973142e-02 3.228887e-02 1.600000e-02
      vertex   6.960911e-02 3.121634e-02 1.600000e-02
      vertex   7.011886e-02 3.127807e-02 1.600000e-02
    endloop
  endfacet
  facet normal -0.000000e+00 0.000000e+00 1.000000e+00
    outer loop
      vertex   6.973142e-02 3.228887e-02 1.600000e-02
      vertex   7.011886e-02 3.127807e-02 1.600000e-02
      vertex   7.009172e-02 3.235443e-02 1.600000e-02
    endloop
  endfacet
  facet normal 0.000000e+00 0.000000e+00 1.000000e+00
    outer loop
      vertex   7.009172e-02 3.235443e-02 1.600000e-02
      vertex   7.011886e-02 3.127807e-02 1.600000e-02
      vertex   7.033126e-02 3.126583e-02 1.600000e-02
    endloop
  endfacet
  facet normal -0.000000e+00 0.000000e+00 1.000000e+00
    outer loop
      vertex   7.009172e-02 3.235443e-02 1.600000e-02
      vertex   7.033126e-02 3.126583e-02 1.600000e-02
      vertex   7.046088e-02 3.238591e-02 1.600000e-02
    endloop
  endfacet
  facet normal 0.000000e+00 0.000000e+00 1.000000e+00
    outer loop
      vertex   7.046088e-02 3.238591e-02 1.600000e-02
      vertex   7.033126e-02 3.126583e-02 1.600000e-02
      vertex   7.053531e-02 3.122842e-02 1.600000e-02
    endloop
  endfacet
  facet normal 0.000000e+00 0.000000e+00 1.000000e+00
    outer loop
      vertex   7.046088e-02 3.238591e-02 1.600000e-02
      vertex   7.053531e-02 3.122842e-02 1.600000e-02
      vertex   7.087330e-02 3.235571e-02 1.600000e-02
    endloop
  endfacet
  facet normal 0.000000e+00 0.000000e+00 1.000000e+00
    outer loop
      vertex   7.087330e-02 3.235571e-02 1.600000e-02
      vertex   7.053531e-02 3.122842e-02 1.600000e-02
      vertex   7.072431e-02 3.114568e-02 1.600000e-02
    endloop
  endfacet
  facet normal 0.000000e+00 0.000000e+00 1.000000e+00
    outer loop
      vertex   7.087330e-02 3.235571e-02 1.600000e-02
      vertex   7.072431e-02 3.114568e-02 1.600000e-02
      vertex   7.126695e-02 3.227344e-02 1.600000e-02
    endloop
  endfacet
  facet normal 0.000000e+00 0.000000e+00 1.000000e+00
    outer loop
      vertex   7.126695e-02 3.227344e-02 1.600000e-02
      vertex   7.072431e-02 3.114568e-02 1.600000e-02
      vertex   7.090327e-02 3.103271e-02 1.600000e-02
    endloop
  endfacet
  facet normal 0.000000e+00 0.000000e+00 1.000000e+00
    outer loop
      vertex   7.126695e-02 3.227344e-02 1.600000e-02
      vertex   7.090327e-02 3.103271e-02 1.600000e-02
      vertex   7.162744e-02 3.209916e-02 1.600000e-02
    endloop
  endfacet
  facet normal 0.000000e+00 0.000000e+00 1.000000e+00
    outer loop
      vertex   7.162744e-02 3.209916e-02 1.600000e-02
      vertex   7.090327e-02 3.103271e-02 1.600000e-02
      vertex   7.102004e-02 3.089388e-02 1.600000e-02
    endloop
  endfacet
  facet normal 0.000000e+00 0.000000e+00 1.000000e+00
    outer loop
      vertex   7.162744e-02 3.209916e-02 1.600000e-02
      vertex   7.102004e-02 3.089388e-02 1.600000e-02
      vertex   7.196651e-02 3.186545e-02 1.600000e-02
    endloop
  endfacet
  facet normal 0.000000e+00 0.000000e+00 1.000000e+00
    outer loop
      vertex   7.196651e-02 3.186545e-02 1.600000e-02
      vertex   7.102004e-02 3.089388e-02 1.600000e-02
      vertex   7.220585e-02 3.155925e-02 1.600000e-02
    endloop
  endfacet
  facet normal 0.000000e+00 0.000000e+00 1.000000e+00
    outer loop
      vertex   7.220585e-02 3.155925e-02 1.600000e-02
      vertex   7.102004e-02 3.089388e-02 1.600000e-02
      vertex   7.110970e-02 3.074341e-02 1.600000e-02
    endloop
  endfacet
  facet normal 0.000000e+00 0.000000e+00 1.000000e+00
    outer loop
      vertex   7.220585e-02 3.155925e-02 1.600000e-02
      vertex   7.110970e-02 3.074341e-02 1.600000e-02
      vertex   7.238746e-02 3.122978e-02 1.600000e-02
    endloop
  endfacet
  facet normal 0.000000e+00 0.000000e+00 1.000000e+00
    outer loop
      vertex   7.238746e-02 3.122978e-02 1.600000e-02
      vertex   7.110970e-02 3.074341e-02 1.600000e-02
      vertex   7.247687e-02 3.086316e-02 1.600000e-02
    endloop
  endfacet
  facet normal 0.000000e+00 0.000000e+00 1.000000e+00
    outer loop
      vertex   7.247687e-02 3.086316e-02 1.600000e-02
      vertex   7.110970e-02 3.074341e-02 1.600000e-02
      vertex   7.115517e-02 3.057393e-02 1.600000e-02
    endloop
  endfacet
  facet normal 0.000000e+00 0.000000e+00 1.000000e+00
    outer loop
      vertex   7.247687e-02 3.086316e-02 1.600000e-02
      vertex   7.115517e-02 3.057393e-02 1.600000e-02
      vertex   7.251300e-02 3.047507e-02 1.600000e-02
    endloop
  endfacet
  facet normal 0.000000e+00 0.000000e+00 1.000000e+00
    outer loop
      vertex   7.251300e-02 3.047507e-02 1.600000e-02
      vertex   7.115517e-02 3.057393e-02 1.600000e-02
      vertex   7.117466e-02 3.039328e-02 1.600000e-02
    endloop
  endfacet
  facet normal 0.000000e+00 0.000000e+00 1.000000e+00
    outer loop
      vertex   7.251300e-02 3.047507e-02 1.600000e-02
      vertex   7.117466e-02 3.039328e-02 1.600000e-02
      vertex   7.248715e-02 3.012638e-02 1.600000e-02
    endloop
  endfacet
  facet normal 0.000000e+00 0.000000e+00 1.000000e+00
    outer loop
      vertex   7.248715e-02 3.012638e-02 1.600000e-02
      vertex   7.117466e-02 3.039328e-02 1.600000e-02
      vertex   7.115408e-02 3.012124e-02 1.600000e-02
    endloop
  endfacet
  facet normal 0.000000e+00 0.000000e+00 1.000000e+00
    outer loop
      vertex   7.248715e-02 3.012638e-02 1.600000e-02
      vertex   7.115408e-02 3.012124e-02 1.600000e-02
      vertex   7.244709e-02 2.977956e-02 1.600000e-02
    endloop
  endfacet
  facet normal 0.000000e+00 0.000000e+00 1.000000e+00
    outer loop
      vertex   7.244709e-02 2.977956e-02 1.600000e-02
      vertex   7.115408e-02 3.012124e-02 1.600000e-02
      vertex   7.112190e-02 2.985079e-02 1.600000e-02
    endloop
  endfacet
  facet normal 0.000000e+00 0.000000e+00 1.000000e+00
    outer loop
      vertex   7.244709e-02 2.977956e-02 1.600000e-02
      vertex   7.112190e-02 2.985079e-02 1.600000e-02
      vertex   7.238831e-02 2.943520e-02 1.600000e-02
    endloop
  endfacet
  facet normal 0.000000e+00 0.000000e+00 1.000000e+00
    outer loop
      vertex   7.238831e-02 2.943520e-02 1.600000e-02
      vertex   7.112190e-02 2.985079e-02 1.600000e-02
      vertex   7.107428e-02 2.958243e-02 1.600000e-02
    endloop
  endfacet
  facet normal 0.000000e+00 0.000000e+00 1.000000e+00
    outer loop
      vertex   7.238831e-02 2.943520e-02 1.600000e-02
      vertex   7.107428e-02 2.958243e-02 1.600000e-02
      vertex   7.231968e-02 2.909212e-02 1.600000e-02
    endloop
  endfacet
  facet normal 0.000000e+00 0.000000e+00 1.000000e+00
    outer loop
      vertex   7.231968e-02 2.909212e-02 1.600000e-02
      vertex   7.107428e-02 2.958243e-02 1.600000e-02
      vertex   7.101852e-02 2.931518e-02 1.600000e-02
    endloop
  endfacet
  facet normal 0.000000e+00 0.000000e+00 1.000000e+00
    outer loop
      vertex   7.231968e-02 2.909212e-02 1.600000e-02
      vertex   7.101852e-02 2.931518e-02 1.600000e-02
      vertex   7.131593e-02 2.431129e-02 1.600000e-02
    endloop
  endfacet
  facet normal 0.000000e+00 0.000000e+00 1.000000e+00
    outer loop
      vertex   7.131593e-02 2.431129e-02 1.600000e-02
      vertex   7.101852e-02 2.931518e-02 1.600000e-02
      vertex   6.997016e-02 2.431129e-02 1.600000e-02
    endloop
  endfacet
  facet normal 0.000000e+00 0.000000e+00 -1.000000e+00
    outer loop
      vertex   6.632691e-02 2.431129e-02 8.000000e-03
      vertex   6.498114e-02 2.431129e-02 8.000000e-03
      vertex   6.709274e-02 2.798428e-02 8.000000e-03
    endloop
  endfacet
  facet normal -0.000000e+00 0.000000e+00 -1.000000e+00
    outer loop
      vertex   6.709274e-02 2.798428e-02 8.000000e-03
      vertex   6.498114e-02 2.431129e-02 8.000000e-03
      vertex   6.663175e-02 3.220747e-02 8.000000e-03
    endloop
  endfacet
  facet normal 0.000000e+00 0.000000e+00 -1.000000e+00
    outer loop
      vertex   6.709274e-02 2.798428e-02 8.000000e-03
      vertex   6.663175e-02 3.220747e-02 8.000000e-03
      vertex   6.726282e-02 2.868383e-02 8.000000e-03
    endloop
  endfacet
  facet normal 0.000000e+00 0.000000e+00 -1.000000e+00
    outer loop
      vertex   6.726282e-02 2.868383e-02 8.000000e-03
      vertex   6.663175e-02 3.220747e-02 8.000000e-03
      vertex   6.736759e-02 2.902393e-02 8.000000e-03
    endloop
  endfacet
  facet normal 0.000000e+00 0.000000e+00 -1.000000e+00
    outer loop
      vertex   6.736759e-02 2.902393e-02 8.000000e-03
      vertex   6.663175e-02 3.220747e-02 8.000000e-03
      vertex   6.749602e-02 2.935242e-02 8.000000e-03
    endloop
  endfacet
  facet normal 0.000000e+00 0.000000e+00 -1.000000e+00
    outer loop
      vertex   6.749602e-02 2.935242e-02 8.000000e-03
      vertex   6.663175e-02 3.220747e-02 8.000000e-03
      vertex   6.756115e-02 3.083196e-02 8.000000e-03
    endloop
  endfacet
  facet normal 0.000000e+00 0.000000e+00 -1.000000e+00
    outer loop
      vertex   6.749602e-02 2.935242e-02 8.000000e-03
      vertex   6.756115e-02 3.083196e-02 8.000000e-03
      vertex   6.765572e-02 2.966559e-02 8.000000e-03
    endloop
  endfacet
  facet normal 0.000000e+00 0.000000e+00 -1.000000e+00
    outer loop
      vertex   6.765572e-02 2.966559e-02 8.000000e-03
      vertex   6.756115e-02 3.083196e-02 8.000000e-03
      vertex   6.784607e-02 2.996372e-02 8.000000e-03
    endloop
  endfacet
  facet normal 0.000000e+00 0.000000e+00 -1.000000e+00
    outer loop
      vertex   6.784607e-02 2.996372e-02 8.000000e-03
      vertex   6.756115e-02 3.083196e-02 8.000000e-03
      vertex   6.827865e-02 3.053455e-02 8.000000e-03
    endloop
  endfacet
  facet normal 0.000000e+00 0.000000e+00 -1.000000e+00
    outer loop
      vertex   6.827865e-02 3.053455e-02 8.000000e-03
      vertex   6.756115e-02 3.083196e-02 8.000000e-03
      vertex   6.790389e-02 3.116453e-02 8.000000e-03
    endloop
  endfacet
  facet normal 0.000000e+00 0.000000e+00 -1.000000e+00
    outer loop
      vertex   6.827865e-02 3.053455e-02 8.000000e-03
      vertex   6.790389e-02 3.116453e-02 8.000000e-03
      vertex   6.868945e-02 3.084346e-02 8.000000e-03
    endloop
  endfacet
  facet normal 0.000000e+00 0.000000e+00 -1.000000e+00
    outer loop
      vertex   6.868945e-02 3.084346e-02 8.000000e-03
      vertex   6.790389e-02 3.116453e-02 8.000000e-03
      vertex   6.826150e-02 3.147813e-02 8.000000e-03
    endloop
  endfacet
  facet normal 0.000000e+00 0.000000e+00 -1.000000e+00
    outer loop
      vertex   6.868945e-02 3.084346e-02 8.000000e-03
      vertex   6.826150e-02 3.147813e-02 8.000000e-03
      vertex   6.890315e-02 3.097719e-02 8.000000e-03
    endloop
  endfacet
  facet normal 0.000000e+00 0.000000e+00 -1.000000e+00
    outer loop
      vertex   6.890315e-02 3.097719e-02 8.000000e-03
      vertex   6.826150e-02 3.147813e-02 8.000000e-03
      vertex   6.864590e-02 3.175755e-02 8.000000e-03
    endloop
  endfacet
  facet normal 0.000000e+00 0.000000e+00 -1.000000e+00
    outer loop
      vertex   6.890315e-02 3.097719e-02 8.000000e-03
      vertex   6.864590e-02 3.175755e-02 8.000000e-03
      vertex   6.912680e-02 3.108606e-02 8.000000e-03
    endloop
  endfacet
  facet normal 0.000000e+00 0.000000e+00 -1.000000e+00
    outer loop
      vertex   6.912680e-02 3.108606e-02 8.000000e-03
      vertex   6.864590e-02 3.175755e-02 8.000000e-03
      vertex   6.904819e-02 3.201416e-02 8.000000e-03
    endloop
  endfacet
  facet normal 0.000000e+00 0.000000e+00 -1.000000e+00
    outer loop
      vertex   6.912680e-02 3.108606e-02 8.000000e-03
      vertex   6.904819e-02 3.201416e-02 8.000000e-03
      vertex   6.936281e-02 3.116405e-02 8.000000e-03
    endloop
  endfacet
  facet normal 0.000000e+00 0.000000e+00 -1.000000e+00
    outer loop
      vertex   6.936281e-02 3.116405e-02 8.000000e-03
      vertex   6.904819e-02 3.201416e-02 8.000000e-03
      vertex   6.938557e-02 3.216781e-02 8.000000e-03
    endloop
  endfacet
  facet normal 0.000000e+00 0.000000e+00 -1.000000e+00
    outer loop
      vertex   6.936281e-02 3.116405e-02 8.000000e-03
      vertex   6.938557e-02 3.216781e-02 8.000000e-03
      vertex   6.960911e-02 3.121634e-02 8.000000e-03
    endloop
  endfacet
  facet normal 0.000000e+00 0.000000e+00 -1.000000e+00
    outer loop
      vertex   6.960911e-02 3.121634e-02 8.000000e-03
      vertex   6.938557e-02 3.216781e-02 8.000000e-03
      vertex   6.973142e-02 3.228887e-02 8.000000e-03
    endloop
  endfacet
  facet normal 0.000000e+00 0.000000e+00 -1.000000e+00
    outer loop
      vertex   6.960911e-02 3.121634e-02 8.000000e-03
      vertex   6.973142e-02 3.228887e-02 8.000000e-03
      vertex   7.011886e-02 3.127807e-02 8.000000e-03
    endloop
  endfacet
  facet normal 0.000000e+00 0.000000e+00 -1.000000e+00
    outer loop
      vertex   7.011886e-02 3.127807e-02 8.000000e-03
      vertex   6.973142e-02 3.228887e-02 8.000000e-03
      vertex   7.009172e-02 3.235443e-02 8.000000e-03
    endloop
  endfacet
  facet normal 0.000000e+00 0.000000e+00 -1.000000e+00
    outer loop
      vertex   7.011886e-02 3.127807e-02 8.000000e-03
      vertex   7.009172e-02 3.235443e-02 8.000000e-03
      vertex   7.033126e-02 3.126583e-02 8.000000e-03
    endloop
  endfacet
  facet normal 0.000000e+00 0.000000e+00 -1.000000e+00
    outer loop
      vertex   7.033126e-02 3.126583e-02 8.000000e-03
      vertex   7.009172e-02 3.235443e-02 8.000000e-03
      vertex   7.046088e-02 3.238591e-02 8.000000e-03
    endloop
  endfacet
  facet normal 0.000000e+00 0.000000e+00 -1.000000e+00
    outer loop
      vertex   7.033126e-02 3.126583e-02 8.000000e-03
      vertex   7.046088e-02 3.238591e-02 8.000000e-03
      vertex   7.053531e-02 3.122842e-02 8.000000e-03
    endloop
  endfacet
  facet normal 0.000000e+00 0.000000e+00 -1.000000e+00
    outer loop
      vertex   7.053531e-02 3.122842e-02 8.000000e-03
      vertex   7.046088e-02 3.238591e-02 8.000000e-03
      vertex   7.087330e-02 3.235571e-02 8.000000e-03
    endloop
  endfacet
  facet normal 0.000000e+00 0.000000e+00 -1.000000e+00
    outer loop
      vertex   7.053531e-02 3.122842e-02 8.000000e-03
      vertex   7.087330e-02 3.235571e-02 8.000000e-03
      vertex   7.072431e-02 3.114568e-02 8.000000e-03
    endloop
  endfacet
  facet normal 0.000000e+00 0.000000e+00 -1.000000e+00
    outer loop
      vertex   7.072431e-02 3.114568e-02 8.000000e-03
      vertex   7.087330e-02 3.235571e-02 8.000000e-03
      vertex   7.126695e-02 3.227344e-02 8.000000e-03
    endloop
  endfacet
  facet normal 0.000000e+00 0.000000e+00 -1.000000e+00
    outer loop
      vertex   7.072431e-02 3.114568e-02 8.000000e-03
      vertex   7.126695e-02 3.227344e-02 8.000000e-03
      vertex   7.090327e-02 3.103271e-02 8.000000e-03
    endloop
  endfacet
  facet normal 0.000000e+00 0.000000e+00 -1.000000e+00
    outer loop
      vertex   7.090327e-02 3.103271e-02 8.000000e-03
      vertex   7.126695e-02 3.227344e-02 8.000000e-03
      vertex   7.162744e-02 3.209916e-02 8.000000e-03
    endloop
  endfacet
  facet normal 0.000000e+00 0.000000e+00 -1.000000e+00
    outer loop
      vertex   7.090327e-02 3.103271e-02 8.000000e-03
      vertex   7.162744e-02 3.209916e-02 8.000000e-03
      vertex   7.102004e-02 3.089388e-02 8.000000e-03
    endloop
  endfacet
  facet normal 0.000000e+00 0.000000e+00 -1.000000e+00
    outer loop
      vertex   7.102004e-02 3.089388e-02 8.000000e-03
      vertex   7.162744e-02 3.209916e-02 8.000000e-03
      vertex   7.196651e-02 3.186545e-02 8.000000e-03
    endloop
  endfacet
  facet normal 0.000000e+00 0.000000e+00 -1.000000e+00
    outer loop
      vertex   7.102004e-02 3.089388e-02 8.000000e-03
      vertex   7.196651e-02 3.186545e-02 8.000000e-03
      vertex   7.220585e-02 3.155925e-02 8.000000e-03
    endloop
  endfacet
  facet normal 0.000000e+00 0.000000e+00 -1.000000e+00
    outer loop
      vertex   6.663175e-02 3.220747e-02 8.000000e-03
      vertex   6.785113e-02 3.220747e-02 8.000000e-03
      vertex   6.756115e-02 3.083196e-02 8.000000e-03
    endloop
  endfacet
  facet normal 0.000000e+00 0.000000e+00 -1.000000e+00
    outer loop
      vertex   7.102004e-02 3.089388e-02 8.000000e-03
      vertex   7.220585e-02 3.155925e-02 8.000000e-03
      vertex   7.110970e-02 3.074341e-02 8.000000e-03
    endloop
  endfacet
  facet normal 0.000000e+00 0.000000e+00 -1.000000e+00
    outer loop
      vertex   7.110970e-02 3.074341e-02 8.000000e-03
      vertex   7.220585e-02 3.155925e-02 8.000000e-03
      vertex   7.238746e-02 3.122978e-02 8.000000e-03
    endloop
  endfacet
  facet normal 0.000000e+00 0.000000e+00 -1.000000e+00
    outer loop
      vertex   7.110970e-02 3.074341e-02 8.000000e-03
      vertex   7.238746e-02 3.122978e-02 8.000000e-03
      vertex   7.247687e-02 3.086316e-02 8.000000e-03
    endloop
  endfacet
  facet normal 0.000000e+00 0.000000e+00 -1.000000e+00
    outer loop
      vertex   7.110970e-02 3.074341e-02 8.000000e-03
      vertex   7.247687e-02 3.086316e-02 8.000000e-03
      vertex   7.115517e-02 3.057393e-02 8.000000e-03
    endloop
  endfacet
  facet normal 0.000000e+00 0.000000e+00 -1.000000e+00
    outer loop
      vertex   7.115517e-02 3.057393e-02 8.000000e-03
      vertex   7.247687e-02 3.086316e-02 8.000000e-03
      vertex   7.251300e-02 3.047507e-02 8.000000e-03
    endloop
  endfacet
  facet normal 0.000000e+00 0.000000e+00 -1.000000e+00
    outer loop
      vertex   7.115517e-02 3.057393e-02 8.000000e-03
      vertex   7.251300e-02 3.047507e-02 8.000000e-03
      vertex   7.117466e-02 3.039328e-02 8.000000e-03
    endloop
  endfacet
  facet normal 0.000000e+00 0.000000e+00 -1.000000e+00
    outer loop
      vertex   7.117466e-02 3.039328e-02 8.000000e-03
      vertex   7.251300e-02 3.047507e-02 8.000000e-03
      vertex   7.248715e-02 3.012638e-02 8.000000e-03
    endloop
  endfacet
  facet normal 0.000000e+00 -0.000000e+00 -1.000000e+00
    outer loop
      vertex   7.117466e-02 3.039328e-02 8.000000e-03
      vertex   7.248715e-02 3.012638e-02 8.000000e-03
      vertex   7.115408e-02 3.012124e-02 8.000000e-03
    endloop
  endfacet
  facet normal 0.000000e+00 0.000000e+00 -1.000000e+00
    outer loop
      vertex   7.115408e-02 3.012124e-02 8.000000e-03
      vertex   7.248715e-02 3.012638e-02 8.000000e-03
      vertex   7.244709e-02 2.977956e-02 8.000000e-03
    endloop
  endfacet
  facet normal 0.000000e+00 -0.000000e+00 -1.000000e+00
    outer loop
      vertex   7.115408e-02 3.012124e-02 8.000000e-03
      vertex   7.244709e-02 2.977956e-02 8.000000e-03
      vertex   7.112190e-02 2.985079e-02 8.000000e-03
    endloop
  endfacet
  facet normal 0.000000e+00 0.000000e+00 -1.000000e+00
    outer loop
      vertex   7.112190e-02 2.985079e-02 8.000000e-03
      vertex   7.244709e-02 2.977956e-02 8.000000e-03
      vertex   7.238831e-02 2.943520e-02 8.000000e-03
    endloop
  endfacet
  facet normal 0.000000e+00 -0.000000e+00 -1.000000e+00
    outer loop
      vertex   7.112190e-02 2.985079e-02 8.000000e-03
      vertex   7.238831e-02 2.943520e-02 8.000000e-03
      vertex   7.107428e-02 2.958243e-02 8.000000e-03
    endloop
  endfacet
  facet normal 0.000000e+00 0.000000e+00 -1.000000e+00
    outer loop
      vertex   7.107428e-02 2.958243e-02 8.000000e-03
      vertex   7.238831e-02 2.943520e-02 8.000000e-03
      vertex   7.231968e-02 2.909212e-02 8.000000e-03
    endloop
  endfacet
  facet normal 0.000000e+00 -0.000000e+00 -1.000000e+00
    outer loop
      vertex   7.107428e-02 2.958243e-02 8.000000e-03
      vertex   7.231968e-02 2.909212e-02 8.000000e-03
      vertex   7.101852e-02 2.931518e-02 8.000000e-03
    endloop
  endfacet
  facet normal 0.000000e+00 0.000000e+00 -1.000000e+00
    outer loop
      vertex   7.101852e-02 2.931518e-02 8.000000e-03
      vertex   7.231968e-02 2.909212e-02 8.000000e-03
      vertex   7.131593e-02 2.431129e-02 8.000000e-03
    endloop
  endfacet
  facet normal 0.000000e+00 -0.000000e+00 -1.000000e+00
    outer loop
      vertex   7.101852e-02 2.931518e-02 8.000000e-03
      vertex   7.131593e-02 2.431129e-02 8.000000e-03
      vertex   6.997016e-02 2.431129e-02 8.000000e-03
    endloop
  endfacet
endsolid
