solid ASCII
  facet normal 1.000000e+00 0.000000e+00 0.000000e+00
    outer loop
      vertex   6.018234e-02 1.699400e-02 1.600000e-02
      vertex   6.018234e-02 1.540000e-02 1.600000e-02
      vertex   6.018234e-02 1.699400e-02 8.000000e-03
    endloop
  endfacet
  facet normal 1.000000e+00 0.000000e+00 0.000000e+00
    outer loop
      vertex   6.018234e-02 1.699400e-02 8.000000e-03
      vertex   6.018234e-02 1.540000e-02 1.600000e-02
      vertex   6.018234e-02 1.540000e-02 8.000000e-03
    endloop
  endfacet
  facet normal 6.981004e-01 -7.159999e-01 0.000000e+00
    outer loop
      vertex   6.093541e-02 1.772824e-02 1.600000e-02
      vertex   6.018234e-02 1.699400e-02 1.600000e-02
      vertex   6.093541e-02 1.772824e-02 8.000000e-03
    endloop
  endfacet
  facet normal 6.981004e-01 -7.159999e-01 0.000000e+00
    outer loop
      vertex   6.093541e-02 1.772824e-02 8.000000e-03
      vertex   6.018234e-02 1.699400e-02 1.600000e-02
      vertex   6.018234e-02 1.699400e-02 8.000000e-03
    endloop
  endfacet
  facet normal -8.178833e-01 -5.753841e-01 -0.000000e+00
    outer loop
      vertex   6.257334e-02 1.540000e-02 1.600000e-02
      vertex   6.093541e-02 1.772824e-02 1.600000e-02
      vertex   6.257334e-02 1.540000e-02 8.000000e-03
    endloop
  endfacet
  facet normal -8.178833e-01 -5.753841e-01 0.000000e+00
    outer loop
      vertex   6.257334e-02 1.540000e-02 8.000000e-03
      vertex   6.093541e-02 1.772824e-02 1.600000e-02
      vertex   6.093541e-02 1.772824e-02 8.000000e-03
    endloop
  endfacet
  facet normal -0.000000e+00 -1.000000e+00 -0.000000e+00
    outer loop
      vertex   6.337661e-02 1.540000e-02 1.600000e-02
      vertex   6.257334e-02 1.540000e-02 1.600000e-02
      vertex   6.337661e-02 1.540000e-02 8.000000e-03
    endloop
  endfacet
  facet normal 0.000000e+00 -1.000000e+00 0.000000e+00
    outer loop
      vertex   6.337661e-02 1.540000e-02 8.000000e-03
      vertex   6.257334e-02 1.540000e-02 1.600000e-02
      vertex   6.257334e-02 1.540000e-02 8.000000e-03
    endloop
  endfacet
  facet normal 8.052880e-01 5.928839e-01 0.000000e+00
    outer loop
      vertex   6.136215e-02 1.813615e-02 1.600000e-02
      vertex   6.337661e-02 1.540000e-02 1.600000e-02
      vertex   6.136215e-02 1.813615e-02 8.000000e-03
    endloop
  endfacet
  facet normal 8.052880e-01 5.928839e-01 0.000000e+00
    outer loop
      vertex   6.136215e-02 1.813615e-02 8.000000e-03
      vertex   6.337661e-02 1.540000e-02 1.600000e-02
      vertex   6.337661e-02 1.540000e-02 8.000000e-03
    endloop
  endfacet
  facet normal 6.947197e-01 -7.192805e-01 0.000000e+00
    outer loop
      vertex   6.329189e-02 2.000000e-02 1.600000e-02
      vertex   6.136215e-02 1.813615e-02 1.600000e-02
      vertex   6.329189e-02 2.000000e-02 8.000000e-03
    endloop
  endfacet
  facet normal 6.947197e-01 -7.192805e-01 0.000000e+00
    outer loop
      vertex   6.329189e-02 2.000000e-02 8.000000e-03
      vertex   6.136215e-02 1.813615e-02 1.600000e-02
      vertex   6.136215e-02 1.813615e-02 8.000000e-03
    endloop
  endfacet
  facet normal -0.000000e+00 1.000000e+00 0.000000e+00
    outer loop
      vertex   6.246665e-02 2.000000e-02 1.600000e-02
      vertex   6.329189e-02 2.000000e-02 1.600000e-02
      vertex   6.246665e-02 2.000000e-02 8.000000e-03
    endloop
  endfacet
  facet normal 0.000000e+00 1.000000e+00 0.000000e+00
    outer loop
      vertex   6.246665e-02 2.000000e-02 8.000000e-03
      vertex   6.329189e-02 2.000000e-02 1.600000e-02
      vertex   6.329189e-02 2.000000e-02 8.000000e-03
    endloop
  endfacet
  facet normal -7.066204e-01 7.075928e-01 0.000000e+00
    outer loop
      vertex   6.018234e-02 1.771883e-02 1.600000e-02
      vertex   6.246665e-02 2.000000e-02 1.600000e-02
      vertex   6.018234e-02 1.771883e-02 8.000000e-03
    endloop
  endfacet
  facet normal -7.066204e-01 7.075928e-01 0.000000e+00
    outer loop
      vertex   6.018234e-02 1.771883e-02 8.000000e-03
      vertex   6.246665e-02 2.000000e-02 1.600000e-02
      vertex   6.246665e-02 2.000000e-02 8.000000e-03
    endloop
  endfacet
  facet normal 1.000000e+00 0.000000e+00 0.000000e+00
    outer loop
      vertex   6.018234e-02 2.000000e-02 1.600000e-02
      vertex   6.018234e-02 1.771883e-02 1.600000e-02
      vertex   6.018234e-02 2.000000e-02 8.000000e-03
    endloop
  endfacet
  facet normal 1.000000e+00 0.000000e+00 0.000000e+00
    outer loop
      vertex   6.018234e-02 2.000000e-02 8.000000e-03
      vertex   6.018234e-02 1.771883e-02 1.600000e-02
      vertex   6.018234e-02 1.771883e-02 8.000000e-03
    endloop
  endfacet
  facet normal -0.000000e+00 1.000000e+00 0.000000e+00
    outer loop
      vertex   5.957361e-02 2.000000e-02 1.600000e-02
      vertex   6.018234e-02 2.000000e-02 1.600000e-02
      vertex   5.957361e-02 2.000000e-02 8.000000e-03
    endloop
  endfacet
  facet normal 0.000000e+00 1.000000e+00 0.000000e+00
    outer loop
      vertex   5.957361e-02 2.000000e-02 8.000000e-03
      vertex   6.018234e-02 2.000000e-02 1.600000e-02
      vertex   6.018234e-02 2.000000e-02 8.000000e-03
    endloop
  endfacet
  facet normal -1.000000e+00 0.000000e+00 0.000000e+00
    outer loop
      vertex   5.957361e-02 1.540000e-02 1.600000e-02
      vertex   5.957361e-02 2.000000e-02 1.600000e-02
      vertex   5.957361e-02 1.540000e-02 8.000000e-03
    endloop
  endfacet
  facet normal -1.000000e+00 0.000000e+00 0.000000e+00
    outer loop
      vertex   5.957361e-02 1.540000e-02 8.000000e-03
      vertex   5.957361e-02 2.000000e-02 1.600000e-02
      vertex   5.957361e-02 2.000000e-02 8.000000e-03
    endloop
  endfacet
  facet normal -0.000000e+00 -1.000000e+00 -0.000000e+00
    outer loop
      vertex   6.018234e-02 1.540000e-02 1.600000e-02
      vertex   5.957361e-02 1.540000e-02 1.600000e-02
      vertex   6.018234e-02 1.540000e-02 8.000000e-03
    endloop
  endfacet
  facet normal 0.000000e+00 -1.000000e+00 0.000000e+00
    outer loop
      vertex   6.018234e-02 1.540000e-02 8.000000e-03
      vertex   5.957361e-02 1.540000e-02 1.600000e-02
      vertex   5.957361e-02 1.540000e-02 8.000000e-03
    endloop
  endfacet
  facet normal 0.000000e+00 -0.000000e+00 1.000000e+00
    outer loop
      vertex   6.018234e-02 1.540000e-02 1.600000e-02
      vertex   6.018234e-02 1.699400e-02 1.600000e-02
      vertex   5.957361e-02 1.540000e-02 1.600000e-02
    endloop
  endfacet
  facet normal 0.000000e+00 0.000000e+00 1.000000e+00
    outer loop
      vertex   5.957361e-02 1.540000e-02 1.600000e-02
      vertex   6.018234e-02 1.699400e-02 1.600000e-02
      vertex   6.018234e-02 1.771883e-02 1.600000e-02
    endloop
  endfacet
  facet normal 0.000000e+00 0.000000e+00 1.000000e+00
    outer loop
      vertex   5.957361e-02 1.540000e-02 1.600000e-02
      vertex   6.018234e-02 1.771883e-02 1.600000e-02
      vertex   5.957361e-02 2.000000e-02 1.600000e-02
    endloop
  endfacet
  facet normal -0.000000e+00 0.000000e+00 1.000000e+00
    outer loop
      vertex   5.957361e-02 2.000000e-02 1.600000e-02
      vertex   6.018234e-02 1.771883e-02 1.600000e-02
      vertex   6.018234e-02 2.000000e-02 1.600000e-02
    endloop
  endfacet
  facet normal 0.000000e+00 0.000000e+00 1.000000e+00
    outer loop
      vertex   6.018234e-02 1.699400e-02 1.600000e-02
      vertex   6.093541e-02 1.772824e-02 1.600000e-02
      vertex   6.018234e-02 1.771883e-02 1.600000e-02
    endloop
  endfacet
  facet normal 0.000000e+00 0.000000e+00 1.000000e+00
    outer loop
      vertex   6.018234e-02 1.771883e-02 1.600000e-02
      vertex   6.093541e-02 1.772824e-02 1.600000e-02
      vertex   6.136215e-02 1.813615e-02 1.600000e-02
    endloop
  endfacet
  facet normal 0.000000e+00 0.000000e+00 1.000000e+00
    outer loop
      vertex   6.018234e-02 1.771883e-02 1.600000e-02
      vertex   6.136215e-02 1.813615e-02 1.600000e-02
      vertex   6.246665e-02 2.000000e-02 1.600000e-02
    endloop
  endfacet
  facet normal -0.000000e+00 0.000000e+00 1.000000e+00
    outer loop
      vertex   6.246665e-02 2.000000e-02 1.600000e-02
      vertex   6.136215e-02 1.813615e-02 1.600000e-02
      vertex   6.329189e-02 2.000000e-02 1.600000e-02
    endloop
  endfacet
  facet normal -0.000000e+00 0.000000e+00 1.000000e+00
    outer loop
      vertex   6.093541e-02 1.772824e-02 1.600000e-02
      vertex   6.257334e-02 1.540000e-02 1.600000e-02
      vertex   6.136215e-02 1.813615e-02 1.600000e-02
    endloop
  endfacet
  facet normal 0.000000e+00 0.000000e+00 1.000000e+00
    outer loop
      vertex   6.136215e-02 1.813615e-02 1.600000e-02
      vertex   6.257334e-02 1.540000e-02 1.600000e-02
      vertex   6.337661e-02 1.540000e-02 1.600000e-02
    endloop
  endfacet
  facet normal 0.000000e+00 0.000000e+00 -1.000000e+00
    outer loop
      vertex   6.018234e-02 1.540000e-02 8.000000e-03
      vertex   5.957361e-02 1.540000e-02 8.000000e-03
      vertex   6.018234e-02 1.699400e-02 8.000000e-03
    endloop
  endfacet
  facet normal -0.000000e+00 0.000000e+00 -1.000000e+00
    outer loop
      vertex   6.018234e-02 1.699400e-02 8.000000e-03
      vertex   5.957361e-02 1.540000e-02 8.000000e-03
      vertex   6.018234e-02 1.771883e-02 8.000000e-03
    endloop
  endfacet
  facet normal 0.000000e+00 0.000000e+00 -1.000000e+00
    outer loop
      vertex   6.018234e-02 1.699400e-02 8.000000e-03
      vertex   6.018234e-02 1.771883e-02 8.000000e-03
      vertex   6.093541e-02 1.772824e-02 8.000000e-03
    endloop
  endfacet
  facet normal -0.000000e+00 0.000000e+00 -1.000000e+00
    outer loop
      vertex   6.093541e-02 1.772824e-02 8.000000e-03
      vertex   6.018234e-02 1.771883e-02 8.000000e-03
      vertex   6.136215e-02 1.813615e-02 8.000000e-03
    endloop
  endfacet
  facet normal 0.000000e+00 0.000000e+00 -1.000000e+00
    outer loop
      vertex   6.093541e-02 1.772824e-02 8.000000e-03
      vertex   6.136215e-02 1.813615e-02 8.000000e-03
      vertex   6.257334e-02 1.540000e-02 8.000000e-03
    endloop
  endfacet
  facet normal 0.000000e+00 0.000000e+00 -1.000000e+00
    outer loop
      vertex   6.257334e-02 1.540000e-02 8.000000e-03
      vertex   6.136215e-02 1.813615e-02 8.000000e-03
      vertex   6.337661e-02 1.540000e-02 8.000000e-03
    endloop
  endfacet
  facet normal 0.000000e+00 0.000000e+00 -1.000000e+00
    outer loop
      vertex   5.957361e-02 1.540000e-02 8.000000e-03
      vertex   5.957361e-02 2.000000e-02 8.000000e-03
      vertex   6.018234e-02 1.771883e-02 8.000000e-03
    endloop
  endfacet
  facet normal 0.000000e+00 0.000000e+00 -1.000000e+00
    outer loop
      vertex   6.018234e-02 1.771883e-02 8.000000e-03
      vertex   5.957361e-02 2.000000e-02 8.000000e-03
      vertex   6.018234e-02 2.000000e-02 8.000000e-03
    endloop
  endfacet
  facet normal 0.000000e+00 0.000000e+00 -1.000000e+00
    outer loop
      vertex   6.018234e-02 1.771883e-02 8.000000e-03
      vertex   6.246665e-02 2.000000e-02 8.000000e-03
      vertex   6.136215e-02 1.813615e-02 8.000000e-03
    endloop
  endfacet
  facet normal 0.000000e+00 0.000000e+00 -1.000000e+00
    outer loop
      vertex   6.136215e-02 1.813615e-02 8.000000e-03
      vertex   6.246665e-02 2.000000e-02 8.000000e-03
      vertex   6.329189e-02 2.000000e-02 8.000000e-03
    endloop
  endfacet
endsolid
