solid ASCII
  facet normal 1.000000e+00 0.000000e+00 0.000000e+00
    outer loop
      vertex   3.105451e-02 4.956762e-02 1.600000e-02
      vertex   3.105451e-02 4.630773e-02 1.600000e-02
      vertex   3.105451e-02 4.956762e-02 8.000000e-03
    endloop
  endfacet
  facet normal 1.000000e+00 0.000000e+00 0.000000e+00
    outer loop
      vertex   3.105451e-02 4.956762e-02 8.000000e-03
      vertex   3.105451e-02 4.630773e-02 1.600000e-02
      vertex   3.105451e-02 4.630773e-02 8.000000e-03
    endloop
  endfacet
  facet normal -0.000000e+00 1.000000e+00 0.000000e+00
    outer loop
      vertex   3.050199e-02 4.956762e-02 1.600000e-02
      vertex   3.105451e-02 4.956762e-02 1.600000e-02
      vertex   3.050199e-02 4.956762e-02 8.000000e-03
    endloop
  endfacet
  facet normal 0.000000e+00 1.000000e+00 0.000000e+00
    outer loop
      vertex   3.050199e-02 4.956762e-02 8.000000e-03
      vertex   3.105451e-02 4.956762e-02 1.600000e-02
      vertex   3.105451e-02 4.956762e-02 8.000000e-03
    endloop
  endfacet
  facet normal -1.000000e+00 0.000000e+00 0.000000e+00
    outer loop
      vertex   3.050199e-02 4.630773e-02 1.600000e-02
      vertex   3.050199e-02 4.956762e-02 1.600000e-02
      vertex   3.050199e-02 4.630773e-02 8.000000e-03
    endloop
  endfacet
  facet normal -1.000000e+00 0.000000e+00 0.000000e+00
    outer loop
      vertex   3.050199e-02 4.630773e-02 8.000000e-03
      vertex   3.050199e-02 4.956762e-02 1.600000e-02
      vertex   3.050199e-02 4.956762e-02 8.000000e-03
    endloop
  endfacet
  facet normal -0.000000e+00 -1.000000e+00 -0.000000e+00
    outer loop
      vertex   3.105451e-02 4.630773e-02 1.600000e-02
      vertex   3.050199e-02 4.630773e-02 1.600000e-02
      vertex   3.105451e-02 4.630773e-02 8.000000e-03
    endloop
  endfacet
  facet normal 0.000000e+00 -1.000000e+00 0.000000e+00
    outer loop
      vertex   3.105451e-02 4.630773e-02 8.000000e-03
      vertex   3.050199e-02 4.630773e-02 1.600000e-02
      vertex   3.050199e-02 4.630773e-02 8.000000e-03
    endloop
  endfacet
  facet normal 0.000000e+00 0.000000e+00 1.000000e+00
    outer loop
      vertex   3.050199e-02 4.630773e-02 1.600000e-02
      vertex   3.105451e-02 4.630773e-02 1.600000e-02
      vertex   3.050199e-02 4.956762e-02 1.600000e-02
    endloop
  endfacet
  facet normal -0.000000e+00 0.000000e+00 1.000000e+00
    outer loop
      vertex   3.050199e-02 4.956762e-02 1.600000e-02
      vertex   3.105451e-02 4.630773e-02 1.600000e-02
      vertex   3.105451e-02 4.956762e-02 1.600000e-02
    endloop
  endfacet
  facet normal 0.000000e+00 0.000000e+00 -1.000000e+00
    outer loop
      vertex   3.105451e-02 4.630773e-02 8.000000e-03
      vertex   3.050199e-02 4.630773e-02 8.000000e-03
      vertex   3.105451e-02 4.956762e-02 8.000000e-03
    endloop
  endfacet
  facet normal -0.000000e+00 0.000000e+00 -1.000000e+00
    outer loop
      vertex   3.105451e-02 4.956762e-02 8.000000e-03
      vertex   3.050199e-02 4.630773e-02 8.000000e-03
      vertex   3.050199e-02 4.956762e-02 8.000000e-03
    endloop
  endfacet
endsolid
