solid ASCII
  facet normal 1.000000e+00 0.000000e+00 0.000000e+00
    outer loop
      vertex   2.864628e-02 5.256549e-02 1.700000e-02
      vertex   2.864628e-02 4.756549e-02 1.700000e-02
      vertex   2.864628e-02 5.256549e-02 8.500000e-03
    endloop
  endfacet
  facet normal 1.000000e+00 0.000000e+00 0.000000e+00
    outer loop
      vertex   2.864628e-02 5.256549e-02 8.500000e-03
      vertex   2.864628e-02 4.756549e-02 1.700000e-02
      vertex   2.864628e-02 4.756549e-02 8.500000e-03
    endloop
  endfacet
  facet normal -0.000000e+00 1.000000e+00 0.000000e+00
    outer loop
      vertex   2.803237e-02 5.256549e-02 1.700000e-02
      vertex   2.864628e-02 5.256549e-02 1.700000e-02
      vertex   2.803237e-02 5.256549e-02 8.500000e-03
    endloop
  endfacet
  facet normal 0.000000e+00 1.000000e+00 0.000000e+00
    outer loop
      vertex   2.803237e-02 5.256549e-02 8.500000e-03
      vertex   2.864628e-02 5.256549e-02 1.700000e-02
      vertex   2.864628e-02 5.256549e-02 8.500000e-03
    endloop
  endfacet
  facet normal -1.000000e+00 0.000000e+00 0.000000e+00
    outer loop
      vertex   2.803237e-02 4.756549e-02 1.700000e-02
      vertex   2.803237e-02 5.256549e-02 1.700000e-02
      vertex   2.803237e-02 4.756549e-02 8.500000e-03
    endloop
  endfacet
  facet normal -1.000000e+00 0.000000e+00 0.000000e+00
    outer loop
      vertex   2.803237e-02 4.756549e-02 8.500000e-03
      vertex   2.803237e-02 5.256549e-02 1.700000e-02
      vertex   2.803237e-02 5.256549e-02 8.500000e-03
    endloop
  endfacet
  facet normal -0.000000e+00 -1.000000e+00 -0.000000e+00
    outer loop
      vertex   2.864628e-02 4.756549e-02 1.700000e-02
      vertex   2.803237e-02 4.756549e-02 1.700000e-02
      vertex   2.864628e-02 4.756549e-02 8.500000e-03
    endloop
  endfacet
  facet normal 0.000000e+00 -1.000000e+00 0.000000e+00
    outer loop
      vertex   2.864628e-02 4.756549e-02 8.500000e-03
      vertex   2.803237e-02 4.756549e-02 1.700000e-02
      vertex   2.803237e-02 4.756549e-02 8.500000e-03
    endloop
  endfacet
  facet normal 0.000000e+00 0.000000e+00 1.000000e+00
    outer loop
      vertex   2.803237e-02 4.756549e-02 1.700000e-02
      vertex   2.864628e-02 4.756549e-02 1.700000e-02
      vertex   2.803237e-02 5.256549e-02 1.700000e-02
    endloop
  endfacet
  facet normal -0.000000e+00 0.000000e+00 1.000000e+00
    outer loop
      vertex   2.803237e-02 5.256549e-02 1.700000e-02
      vertex   2.864628e-02 4.756549e-02 1.700000e-02
      vertex   2.864628e-02 5.256549e-02 1.700000e-02
    endloop
  endfacet
  facet normal 0.000000e+00 0.000000e+00 -1.000000e+00
    outer loop
      vertex   2.864628e-02 4.756549e-02 8.500000e-03
      vertex   2.803237e-02 4.756549e-02 8.500000e-03
      vertex   2.864628e-02 5.256549e-02 8.500000e-03
    endloop
  endfacet
  facet normal -0.000000e+00 0.000000e+00 -1.000000e+00
    outer loop
      vertex   2.864628e-02 5.256549e-02 8.500000e-03
      vertex   2.803237e-02 4.756549e-02 8.500000e-03
      vertex   2.803237e-02 5.256549e-02 8.500000e-03
    endloop
  endfacet
endsolid
