solid ASCII
  facet normal 1.222907e-01 -9.924943e-01 0.000000e+00
    outer loop
      vertex   5.352747e-02 2.070426e-02 8.500000e-03
      vertex   5.352747e-02 2.070426e-02 1.700000e-02
      vertex   5.335328e-02 2.068279e-02 1.275000e-02
    endloop
  endfacet
  facet normal 1.222907e-01 -9.924943e-01 -8.102133e-16
    outer loop
      vertex   5.335328e-02 2.068279e-02 1.275000e-02
      vertex   5.352747e-02 2.070426e-02 1.700000e-02
      vertex   5.335328e-02 2.068279e-02 1.700000e-02
    endloop
  endfacet
  facet normal 2.795393e-01 -9.601342e-01 -7.837964e-16
    outer loop
      vertex   5.335328e-02 2.068279e-02 1.275000e-02
      vertex   5.335328e-02 2.068279e-02 1.700000e-02
      vertex   5.319075e-02 2.063547e-02 1.700000e-02
    endloop
  endfacet
  facet normal 2.795393e-01 -9.601342e-01 -7.841419e-16
    outer loop
      vertex   5.335328e-02 2.068279e-02 1.275000e-02
      vertex   5.319075e-02 2.063547e-02 1.700000e-02
      vertex   5.319075e-02 2.063547e-02 1.275000e-02
    endloop
  endfacet
  facet normal 5.343585e-01 -8.452580e-01 -6.900183e-16
    outer loop
      vertex   5.319075e-02 2.063547e-02 1.275000e-02
      vertex   5.319075e-02 2.063547e-02 1.700000e-02
      vertex   5.304767e-02 2.054502e-02 1.700000e-02
    endloop
  endfacet
  facet normal 5.343585e-01 -8.452580e-01 1.816760e-16
    outer loop
      vertex   5.319075e-02 2.063547e-02 1.275000e-02
      vertex   5.304767e-02 2.054502e-02 1.700000e-02
      vertex   5.304767e-02 2.054502e-02 1.275000e-02
    endloop
  endfacet
  facet normal 6.629482e-01 -7.486653e-01 4.712171e-16
    outer loop
      vertex   5.304767e-02 2.054502e-02 1.275000e-02
      vertex   5.304767e-02 2.054502e-02 1.700000e-02
      vertex   5.291628e-02 2.042868e-02 1.700000e-02
    endloop
  endfacet
  facet normal 6.629482e-01 -7.486653e-01 0.000000e+00
    outer loop
      vertex   5.304767e-02 2.054502e-02 1.275000e-02
      vertex   5.291628e-02 2.042868e-02 1.700000e-02
      vertex   5.291628e-02 2.042868e-02 8.500000e-03
    endloop
  endfacet
  facet normal 6.629482e-01 -7.486653e-01 -4.702190e-16
    outer loop
      vertex   5.291628e-02 2.042868e-02 8.500000e-03
      vertex   5.304767e-02 2.054502e-02 8.500000e-03
      vertex   5.304767e-02 2.054502e-02 1.275000e-02
    endloop
  endfacet
  facet normal 5.343585e-01 -8.452580e-01 -1.824186e-16
    outer loop
      vertex   5.304767e-02 2.054502e-02 1.275000e-02
      vertex   5.304767e-02 2.054502e-02 8.500000e-03
      vertex   5.319075e-02 2.063547e-02 8.500000e-03
    endloop
  endfacet
  facet normal 5.343585e-01 -8.452580e-01 6.899089e-16
    outer loop
      vertex   5.304767e-02 2.054502e-02 1.275000e-02
      vertex   5.319075e-02 2.063547e-02 8.500000e-03
      vertex   5.319075e-02 2.063547e-02 1.275000e-02
    endloop
  endfacet
  facet normal 2.795393e-01 -9.601342e-01 7.837964e-16
    outer loop
      vertex   5.319075e-02 2.063547e-02 1.275000e-02
      vertex   5.319075e-02 2.063547e-02 8.500000e-03
      vertex   5.335328e-02 2.068279e-02 8.500000e-03
    endloop
  endfacet
  facet normal 2.795393e-01 -9.601342e-01 7.841419e-16
    outer loop
      vertex   5.319075e-02 2.063547e-02 1.275000e-02
      vertex   5.335328e-02 2.068279e-02 8.500000e-03
      vertex   5.335328e-02 2.068279e-02 1.275000e-02
    endloop
  endfacet
  facet normal 1.222907e-01 -9.924943e-01 8.102133e-16
    outer loop
      vertex   5.335328e-02 2.068279e-02 1.275000e-02
      vertex   5.335328e-02 2.068279e-02 8.500000e-03
      vertex   5.352747e-02 2.070426e-02 8.500000e-03
    endloop
  endfacet
  facet normal -6.657033e-01 -7.462165e-01 0.000000e+00
    outer loop
      vertex   5.413456e-02 2.042731e-02 8.500000e-03
      vertex   5.413456e-02 2.042731e-02 1.700000e-02
      vertex   5.400420e-02 2.054361e-02 1.275000e-02
    endloop
  endfacet
  facet normal -6.657033e-01 -7.462165e-01 -1.086881e-15
    outer loop
      vertex   5.400420e-02 2.054361e-02 1.275000e-02
      vertex   5.413456e-02 2.042731e-02 1.700000e-02
      vertex   5.400420e-02 2.054361e-02 1.700000e-02
    endloop
  endfacet
  facet normal -5.383818e-01 -8.427010e-01 -8.790057e-16
    outer loop
      vertex   5.400420e-02 2.054361e-02 1.275000e-02
      vertex   5.400420e-02 2.054361e-02 1.700000e-02
      vertex   5.386220e-02 2.063433e-02 1.700000e-02
    endloop
  endfacet
  facet normal -5.383818e-01 -8.427010e-01 -8.801331e-16
    outer loop
      vertex   5.400420e-02 2.054361e-02 1.275000e-02
      vertex   5.386220e-02 2.063433e-02 1.700000e-02
      vertex   5.386220e-02 2.063433e-02 1.275000e-02
    endloop
  endfacet
  facet normal -2.842541e-01 -9.587490e-01 -4.640962e-16
    outer loop
      vertex   5.386220e-02 2.063433e-02 1.275000e-02
      vertex   5.386220e-02 2.063433e-02 1.700000e-02
      vertex   5.370071e-02 2.068221e-02 1.700000e-02
    endloop
  endfacet
  facet normal -2.842541e-01 -9.587490e-01 -4.645200e-16
    outer loop
      vertex   5.386220e-02 2.063433e-02 1.275000e-02
      vertex   5.370071e-02 2.068221e-02 1.700000e-02
      vertex   5.370071e-02 2.068221e-02 1.275000e-02
    endloop
  endfacet
  facet normal -1.262281e-01 -9.920012e-01 -2.060903e-16
    outer loop
      vertex   5.370071e-02 2.068221e-02 1.275000e-02
      vertex   5.370071e-02 2.068221e-02 1.700000e-02
      vertex   5.352747e-02 2.070426e-02 1.700000e-02
    endloop
  endfacet
  facet normal -1.262281e-01 -9.920012e-01 0.000000e+00
    outer loop
      vertex   5.370071e-02 2.068221e-02 1.275000e-02
      vertex   5.352747e-02 2.070426e-02 1.700000e-02
      vertex   5.352747e-02 2.070426e-02 8.500000e-03
    endloop
  endfacet
  facet normal -1.262281e-01 -9.920012e-01 2.061833e-16
    outer loop
      vertex   5.352747e-02 2.070426e-02 8.500000e-03
      vertex   5.370071e-02 2.068221e-02 8.500000e-03
      vertex   5.370071e-02 2.068221e-02 1.275000e-02
    endloop
  endfacet
  facet normal -2.842541e-01 -9.587490e-01 4.640962e-16
    outer loop
      vertex   5.370071e-02 2.068221e-02 1.275000e-02
      vertex   5.370071e-02 2.068221e-02 8.500000e-03
      vertex   5.386220e-02 2.063433e-02 8.500000e-03
    endloop
  endfacet
  facet normal -2.842541e-01 -9.587490e-01 4.645200e-16
    outer loop
      vertex   5.370071e-02 2.068221e-02 1.275000e-02
      vertex   5.386220e-02 2.063433e-02 8.500000e-03
      vertex   5.386220e-02 2.063433e-02 1.275000e-02
    endloop
  endfacet
  facet normal -5.383818e-01 -8.427010e-01 8.790057e-16
    outer loop
      vertex   5.386220e-02 2.063433e-02 1.275000e-02
      vertex   5.386220e-02 2.063433e-02 8.500000e-03
      vertex   5.400420e-02 2.054361e-02 8.500000e-03
    endloop
  endfacet
  facet normal -5.383818e-01 -8.427010e-01 8.778231e-16
    outer loop
      vertex   5.386220e-02 2.063433e-02 1.275000e-02
      vertex   5.400420e-02 2.054361e-02 8.500000e-03
      vertex   5.400420e-02 2.054361e-02 1.275000e-02
    endloop
  endfacet
  facet normal -6.657033e-01 -7.462165e-01 1.086881e-15
    outer loop
      vertex   5.400420e-02 2.054361e-02 1.275000e-02
      vertex   5.400420e-02 2.054361e-02 8.500000e-03
      vertex   5.413456e-02 2.042731e-02 8.500000e-03
    endloop
  endfacet
  facet normal -9.986451e-01 -5.203856e-02 -0.000000e+00
    outer loop
      vertex   5.437877e-02 1.961285e-02 1.700000e-02
      vertex   5.436733e-02 1.983236e-02 1.700000e-02
      vertex   5.437877e-02 1.961285e-02 8.500000e-03
    endloop
  endfacet
  facet normal -9.986451e-01 -5.203856e-02 0.000000e+00
    outer loop
      vertex   5.437877e-02 1.961285e-02 8.500000e-03
      vertex   5.436733e-02 1.983236e-02 1.700000e-02
      vertex   5.436733e-02 1.983236e-02 8.500000e-03
    endloop
  endfacet
  facet normal -9.852504e-01 -1.711187e-01 0.000000e+00
    outer loop
      vertex   5.436733e-02 1.983236e-02 8.500000e-03
      vertex   5.436733e-02 1.983236e-02 1.700000e-02
      vertex   5.433061e-02 2.004377e-02 1.700000e-02
    endloop
  endfacet
  facet normal -9.852504e-01 -1.711187e-01 0.000000e+00
    outer loop
      vertex   5.436733e-02 1.983236e-02 8.500000e-03
      vertex   5.433061e-02 2.004377e-02 1.700000e-02
      vertex   5.433061e-02 2.004377e-02 8.500000e-03
    endloop
  endfacet
  facet normal -9.221122e-01 -3.869227e-01 0.000000e+00
    outer loop
      vertex   5.433061e-02 2.004377e-02 8.500000e-03
      vertex   5.433061e-02 2.004377e-02 1.700000e-02
      vertex   5.424806e-02 2.024050e-02 1.700000e-02
    endloop
  endfacet
  facet normal -9.221122e-01 -3.869227e-01 0.000000e+00
    outer loop
      vertex   5.433061e-02 2.004377e-02 8.500000e-03
      vertex   5.424806e-02 2.024050e-02 1.700000e-02
      vertex   5.424806e-02 2.024050e-02 8.500000e-03
    endloop
  endfacet
  facet normal -8.546323e-01 -5.192337e-01 0.000000e+00
    outer loop
      vertex   5.424806e-02 2.024050e-02 8.500000e-03
      vertex   5.424806e-02 2.024050e-02 1.700000e-02
      vertex   5.413456e-02 2.042731e-02 1.700000e-02
    endloop
  endfacet
  facet normal -8.546323e-01 -5.192337e-01 0.000000e+00
    outer loop
      vertex   5.424806e-02 2.024050e-02 8.500000e-03
      vertex   5.413456e-02 2.042731e-02 1.700000e-02
      vertex   5.413456e-02 2.042731e-02 8.500000e-03
    endloop
  endfacet
  facet normal -8.627618e-01 5.056107e-01 0.000000e+00
    outer loop
      vertex   5.413593e-02 1.876428e-02 1.700000e-02
      vertex   5.425049e-02 1.895977e-02 1.700000e-02
      vertex   5.413593e-02 1.876428e-02 8.500000e-03
    endloop
  endfacet
  facet normal -8.627618e-01 5.056107e-01 0.000000e+00
    outer loop
      vertex   5.413593e-02 1.876428e-02 8.500000e-03
      vertex   5.425049e-02 1.895977e-02 1.700000e-02
      vertex   5.425049e-02 1.895977e-02 8.500000e-03
    endloop
  endfacet
  facet normal -9.281342e-01 3.722458e-01 0.000000e+00
    outer loop
      vertex   5.425049e-02 1.895977e-02 8.500000e-03
      vertex   5.425049e-02 1.895977e-02 1.700000e-02
      vertex   5.433289e-02 1.916521e-02 1.700000e-02
    endloop
  endfacet
  facet normal -9.281342e-01 3.722458e-01 0.000000e+00
    outer loop
      vertex   5.425049e-02 1.895977e-02 8.500000e-03
      vertex   5.433289e-02 1.916521e-02 1.700000e-02
      vertex   5.433289e-02 1.916521e-02 8.500000e-03
    endloop
  endfacet
  facet normal -9.870787e-01 1.602362e-01 0.000000e+00
    outer loop
      vertex   5.433289e-02 1.916521e-02 8.500000e-03
      vertex   5.433289e-02 1.916521e-02 1.700000e-02
      vertex   5.436858e-02 1.938509e-02 1.700000e-02
    endloop
  endfacet
  facet normal -9.870787e-01 1.602362e-01 0.000000e+00
    outer loop
      vertex   5.433289e-02 1.916521e-02 8.500000e-03
      vertex   5.436858e-02 1.938509e-02 1.700000e-02
      vertex   5.436858e-02 1.938509e-02 8.500000e-03
    endloop
  endfacet
  facet normal -9.990017e-01 4.467167e-02 0.000000e+00
    outer loop
      vertex   5.436858e-02 1.938509e-02 8.500000e-03
      vertex   5.436858e-02 1.938509e-02 1.700000e-02
      vertex   5.437877e-02 1.961285e-02 1.700000e-02
    endloop
  endfacet
  facet normal -9.990017e-01 4.467167e-02 0.000000e+00
    outer loop
      vertex   5.436858e-02 1.938509e-02 8.500000e-03
      vertex   5.437877e-02 1.961285e-02 1.700000e-02
      vertex   5.437877e-02 1.961285e-02 8.500000e-03
    endloop
  endfacet
  facet normal -1.254557e-01 9.920992e-01 0.000000e+00
    outer loop
      vertex   5.352747e-02 1.848598e-02 8.500000e-03
      vertex   5.352747e-02 1.848598e-02 1.700000e-02
      vertex   5.370132e-02 1.850796e-02 1.275000e-02
    endloop
  endfacet
  facet normal -1.254557e-01 9.920992e-01 0.000000e+00
    outer loop
      vertex   5.370132e-02 1.850796e-02 1.275000e-02
      vertex   5.352747e-02 1.848598e-02 1.700000e-02
      vertex   5.370132e-02 1.850796e-02 1.700000e-02
    endloop
  endfacet
  facet normal -2.841355e-01 9.587841e-01 0.000000e+00
    outer loop
      vertex   5.370132e-02 1.850796e-02 1.275000e-02
      vertex   5.370132e-02 1.850796e-02 1.700000e-02
      vertex   5.386328e-02 1.855596e-02 1.700000e-02
    endloop
  endfacet
  facet normal -2.841355e-01 9.587841e-01 -2.172936e-15
    outer loop
      vertex   5.370132e-02 1.850796e-02 1.275000e-02
      vertex   5.386328e-02 1.855596e-02 1.700000e-02
      vertex   5.386328e-02 1.855596e-02 1.275000e-02
    endloop
  endfacet
  facet normal -5.399152e-01 8.417194e-01 -3.331657e-15
    outer loop
      vertex   5.386328e-02 1.855596e-02 1.275000e-02
      vertex   5.386328e-02 1.855596e-02 1.700000e-02
      vertex   5.400551e-02 1.864719e-02 1.700000e-02
    endloop
  endfacet
  facet normal -5.399152e-01 8.417194e-01 -1.762327e-15
    outer loop
      vertex   5.386328e-02 1.855596e-02 1.275000e-02
      vertex   5.400551e-02 1.864719e-02 1.700000e-02
      vertex   5.400551e-02 1.864719e-02 1.275000e-02
    endloop
  endfacet
  facet normal -6.680775e-01 7.440917e-01 -2.181515e-15
    outer loop
      vertex   5.400551e-02 1.864719e-02 1.275000e-02
      vertex   5.400551e-02 1.864719e-02 1.700000e-02
      vertex   5.413593e-02 1.876428e-02 1.700000e-02
    endloop
  endfacet
  facet normal -6.680775e-01 7.440917e-01 0.000000e+00
    outer loop
      vertex   5.400551e-02 1.864719e-02 1.275000e-02
      vertex   5.413593e-02 1.876428e-02 1.700000e-02
      vertex   5.413593e-02 1.876428e-02 8.500000e-03
    endloop
  endfacet
  facet normal -6.680775e-01 7.440917e-01 2.185371e-15
    outer loop
      vertex   5.413593e-02 1.876428e-02 8.500000e-03
      vertex   5.400551e-02 1.864719e-02 8.500000e-03
      vertex   5.400551e-02 1.864719e-02 1.275000e-02
    endloop
  endfacet
  facet normal -5.399152e-01 8.417194e-01 1.763018e-15
    outer loop
      vertex   5.400551e-02 1.864719e-02 1.275000e-02
      vertex   5.400551e-02 1.864719e-02 8.500000e-03
      vertex   5.386328e-02 1.855596e-02 8.500000e-03
    endloop
  endfacet
  facet normal -5.399152e-01 8.417194e-01 3.331143e-15
    outer loop
      vertex   5.400551e-02 1.864719e-02 1.275000e-02
      vertex   5.386328e-02 1.855596e-02 8.500000e-03
      vertex   5.386328e-02 1.855596e-02 1.275000e-02
    endloop
  endfacet
  facet normal -2.841355e-01 9.587841e-01 2.174402e-15
    outer loop
      vertex   5.386328e-02 1.855596e-02 1.275000e-02
      vertex   5.386328e-02 1.855596e-02 8.500000e-03
      vertex   5.370132e-02 1.850796e-02 8.500000e-03
    endloop
  endfacet
  facet normal -2.841355e-01 9.587841e-01 0.000000e+00
    outer loop
      vertex   5.386328e-02 1.855596e-02 1.275000e-02
      vertex   5.370132e-02 1.850796e-02 8.500000e-03
      vertex   5.370132e-02 1.850796e-02 1.275000e-02
    endloop
  endfacet
  facet normal -1.254557e-01 9.920992e-01 0.000000e+00
    outer loop
      vertex   5.370132e-02 1.850796e-02 1.275000e-02
      vertex   5.370132e-02 1.850796e-02 8.500000e-03
      vertex   5.352747e-02 1.848598e-02 8.500000e-03
    endloop
  endfacet
  facet normal 6.649677e-01 7.468721e-01 -0.000000e+00
    outer loop
      vertex   5.291628e-02 1.876292e-02 8.500000e-03
      vertex   5.291628e-02 1.876292e-02 1.700000e-02
      vertex   5.304751e-02 1.864608e-02 1.275000e-02
    endloop
  endfacet
  facet normal 6.649677e-01 7.468721e-01 -4.476444e-15
    outer loop
      vertex   5.304751e-02 1.864608e-02 1.275000e-02
      vertex   5.291628e-02 1.876292e-02 1.700000e-02
      vertex   5.304751e-02 1.864608e-02 1.700000e-02
    endloop
  endfacet
  facet normal 5.363588e-01 8.439900e-01 -4.005075e-15
    outer loop
      vertex   5.304751e-02 1.864608e-02 1.275000e-02
      vertex   5.304751e-02 1.864608e-02 1.700000e-02
      vertex   5.319050e-02 1.855521e-02 1.700000e-02
    endloop
  endfacet
  facet normal 5.363588e-01 8.439900e-01 -8.753646e-16
    outer loop
      vertex   5.304751e-02 1.864608e-02 1.275000e-02
      vertex   5.319050e-02 1.855521e-02 1.700000e-02
      vertex   5.319050e-02 1.855521e-02 1.275000e-02
    endloop
  endfacet
  facet normal 2.809449e-01 9.597239e-01 -4.586933e-16
    outer loop
      vertex   5.319050e-02 1.855521e-02 1.275000e-02
      vertex   5.319050e-02 1.855521e-02 1.700000e-02
      vertex   5.335311e-02 1.850761e-02 1.700000e-02
    endloop
  endfacet
  facet normal 2.809449e-01 9.597239e-01 -7.834620e-16
    outer loop
      vertex   5.319050e-02 1.855521e-02 1.275000e-02
      vertex   5.335311e-02 1.850761e-02 1.700000e-02
      vertex   5.335311e-02 1.850761e-02 1.275000e-02
    endloop
  endfacet
  facet normal 1.231357e-01 9.923898e-01 -8.101280e-16
    outer loop
      vertex   5.335311e-02 1.850761e-02 1.275000e-02
      vertex   5.335311e-02 1.850761e-02 1.700000e-02
      vertex   5.352747e-02 1.848598e-02 1.700000e-02
    endloop
  endfacet
  facet normal 1.231357e-01 9.923898e-01 0.000000e+00
    outer loop
      vertex   5.335311e-02 1.850761e-02 1.275000e-02
      vertex   5.352747e-02 1.848598e-02 1.700000e-02
      vertex   5.352747e-02 1.848598e-02 8.500000e-03
    endloop
  endfacet
  facet normal 1.231357e-01 9.923898e-01 8.108535e-16
    outer loop
      vertex   5.352747e-02 1.848598e-02 8.500000e-03
      vertex   5.335311e-02 1.850761e-02 8.500000e-03
      vertex   5.335311e-02 1.850761e-02 1.275000e-02
    endloop
  endfacet
  facet normal 2.809449e-01 9.597239e-01 7.834615e-16
    outer loop
      vertex   5.335311e-02 1.850761e-02 1.275000e-02
      vertex   5.335311e-02 1.850761e-02 8.500000e-03
      vertex   5.319050e-02 1.855521e-02 8.500000e-03
    endloop
  endfacet
  facet normal 2.809449e-01 9.597239e-01 4.572110e-16
    outer loop
      vertex   5.335311e-02 1.850761e-02 1.275000e-02
      vertex   5.319050e-02 1.855521e-02 8.500000e-03
      vertex   5.319050e-02 1.855521e-02 1.275000e-02
    endloop
  endfacet
  facet normal 5.363588e-01 8.439900e-01 8.757029e-16
    outer loop
      vertex   5.319050e-02 1.855521e-02 1.275000e-02
      vertex   5.319050e-02 1.855521e-02 8.500000e-03
      vertex   5.304751e-02 1.864608e-02 8.500000e-03
    endloop
  endfacet
  facet normal 5.363588e-01 8.439900e-01 4.004621e-15
    outer loop
      vertex   5.319050e-02 1.855521e-02 1.275000e-02
      vertex   5.304751e-02 1.864608e-02 8.500000e-03
      vertex   5.304751e-02 1.864608e-02 1.275000e-02
    endloop
  endfacet
  facet normal 6.649677e-01 7.468721e-01 4.476444e-15
    outer loop
      vertex   5.304751e-02 1.864608e-02 1.275000e-02
      vertex   5.304751e-02 1.864608e-02 8.500000e-03
      vertex   5.291628e-02 1.876292e-02 8.500000e-03
    endloop
  endfacet
  facet normal 9.988798e-01 4.732063e-02 0.000000e+00
    outer loop
      vertex   5.267345e-02 1.959648e-02 1.700000e-02
      vertex   5.268406e-02 1.937239e-02 1.700000e-02
      vertex   5.267345e-02 1.959648e-02 8.500000e-03
    endloop
  endfacet
  facet normal 9.988798e-01 4.732063e-02 0.000000e+00
    outer loop
      vertex   5.267345e-02 1.959648e-02 8.500000e-03
      vertex   5.268406e-02 1.937239e-02 1.700000e-02
      vertex   5.268406e-02 1.937239e-02 8.500000e-03
    endloop
  endfacet
  facet normal 9.864181e-01 1.642537e-01 -0.000000e+00
    outer loop
      vertex   5.268406e-02 1.937239e-02 8.500000e-03
      vertex   5.268406e-02 1.937239e-02 1.700000e-02
      vertex   5.272005e-02 1.915625e-02 1.700000e-02
    endloop
  endfacet
  facet normal 9.864181e-01 1.642537e-01 0.000000e+00
    outer loop
      vertex   5.268406e-02 1.937239e-02 8.500000e-03
      vertex   5.272005e-02 1.915625e-02 1.700000e-02
      vertex   5.272005e-02 1.915625e-02 8.500000e-03
    endloop
  endfacet
  facet normal 9.258664e-01 3.778509e-01 -0.000000e+00
    outer loop
      vertex   5.272005e-02 1.915625e-02 8.500000e-03
      vertex   5.272005e-02 1.915625e-02 1.700000e-02
      vertex   5.280234e-02 1.895462e-02 1.700000e-02
    endloop
  endfacet
  facet normal 9.258664e-01 3.778509e-01 0.000000e+00
    outer loop
      vertex   5.272005e-02 1.915625e-02 8.500000e-03
      vertex   5.280234e-02 1.895462e-02 1.700000e-02
      vertex   5.280234e-02 1.895462e-02 8.500000e-03
    endloop
  endfacet
  facet normal 8.596128e-01 5.109460e-01 -0.000000e+00
    outer loop
      vertex   5.280234e-02 1.895462e-02 8.500000e-03
      vertex   5.280234e-02 1.895462e-02 1.700000e-02
      vertex   5.291628e-02 1.876292e-02 1.700000e-02
    endloop
  endfacet
  facet normal 8.596128e-01 5.109460e-01 0.000000e+00
    outer loop
      vertex   5.280234e-02 1.895462e-02 8.500000e-03
      vertex   5.291628e-02 1.876292e-02 1.700000e-02
      vertex   5.291628e-02 1.876292e-02 8.500000e-03
    endloop
  endfacet
  facet normal 8.589613e-01 -5.120406e-01 0.000000e+00
    outer loop
      vertex   5.291628e-02 2.042868e-02 1.700000e-02
      vertex   5.280225e-02 2.023738e-02 1.700000e-02
      vertex   5.291628e-02 2.042868e-02 8.500000e-03
    endloop
  endfacet
  facet normal 8.589613e-01 -5.120406e-01 0.000000e+00
    outer loop
      vertex   5.291628e-02 2.042868e-02 8.500000e-03
      vertex   5.280225e-02 2.023738e-02 1.700000e-02
      vertex   5.280225e-02 2.023738e-02 8.500000e-03
    endloop
  endfacet
  facet normal 9.256041e-01 -3.784931e-01 0.000000e+00
    outer loop
      vertex   5.280225e-02 2.023738e-02 8.500000e-03
      vertex   5.280225e-02 2.023738e-02 1.700000e-02
      vertex   5.271995e-02 2.003612e-02 1.700000e-02
    endloop
  endfacet
  facet normal 9.256041e-01 -3.784931e-01 0.000000e+00
    outer loop
      vertex   5.280225e-02 2.023738e-02 8.500000e-03
      vertex   5.271995e-02 2.003612e-02 1.700000e-02
      vertex   5.271995e-02 2.003612e-02 8.500000e-03
    endloop
  endfacet
  facet normal 9.864113e-01 -1.642947e-01 0.000000e+00
    outer loop
      vertex   5.271995e-02 2.003612e-02 8.500000e-03
      vertex   5.271995e-02 2.003612e-02 1.700000e-02
      vertex   5.268400e-02 1.982029e-02 1.700000e-02
    endloop
  endfacet
  facet normal 9.864113e-01 -1.642947e-01 0.000000e+00
    outer loop
      vertex   5.271995e-02 2.003612e-02 8.500000e-03
      vertex   5.268400e-02 1.982029e-02 1.700000e-02
      vertex   5.268400e-02 1.982029e-02 8.500000e-03
    endloop
  endfacet
  facet normal 9.988898e-01 -4.710848e-02 0.000000e+00
    outer loop
      vertex   5.268400e-02 1.982029e-02 8.500000e-03
      vertex   5.268400e-02 1.982029e-02 1.700000e-02
      vertex   5.267345e-02 1.959648e-02 1.700000e-02
    endloop
  endfacet
  facet normal 9.988898e-01 -4.710848e-02 0.000000e+00
    outer loop
      vertex   5.268400e-02 1.982029e-02 8.500000e-03
      vertex   5.267345e-02 1.959648e-02 1.700000e-02
      vertex   5.267345e-02 1.959648e-02 8.500000e-03
    endloop
  endfacet
  facet normal -9.651794e-02 -9.953312e-01 -0.000000e+00
    outer loop
      vertex   5.352747e-02 1.808216e-02 1.700000e-02
      vertex   5.325286e-02 1.810878e-02 1.700000e-02
      vertex   5.352747e-02 1.808216e-02 8.500000e-03
    endloop
  endfacet
  facet normal -9.651794e-02 -9.953312e-01 0.000000e+00
    outer loop
      vertex   5.352747e-02 1.808216e-02 8.500000e-03
      vertex   5.325286e-02 1.810878e-02 1.700000e-02
      vertex   5.325286e-02 1.810878e-02 8.500000e-03
    endloop
  endfacet
  facet normal -2.410881e-01 -9.705032e-01 0.000000e+00
    outer loop
      vertex   5.325286e-02 1.810878e-02 8.500000e-03
      vertex   5.325286e-02 1.810878e-02 1.700000e-02
      vertex   5.299354e-02 1.817320e-02 1.700000e-02
    endloop
  endfacet
  facet normal -2.410881e-01 -9.705032e-01 0.000000e+00
    outer loop
      vertex   5.325286e-02 1.810878e-02 8.500000e-03
      vertex   5.299354e-02 1.817320e-02 1.700000e-02
      vertex   5.299354e-02 1.817320e-02 8.500000e-03
    endloop
  endfacet
  facet normal -4.854348e-01 -8.742729e-01 0.000000e+00
    outer loop
      vertex   5.299354e-02 1.817320e-02 8.500000e-03
      vertex   5.299354e-02 1.817320e-02 1.700000e-02
      vertex   5.276052e-02 1.830259e-02 1.700000e-02
    endloop
  endfacet
  facet normal -4.854348e-01 -8.742729e-01 0.000000e+00
    outer loop
      vertex   5.299354e-02 1.817320e-02 8.500000e-03
      vertex   5.276052e-02 1.830259e-02 1.700000e-02
      vertex   5.276052e-02 1.830259e-02 8.500000e-03
    endloop
  endfacet
  facet normal -6.166943e-01 -7.872028e-01 0.000000e+00
    outer loop
      vertex   5.276052e-02 1.830259e-02 8.500000e-03
      vertex   5.276052e-02 1.830259e-02 1.700000e-02
      vertex   5.254384e-02 1.847233e-02 1.700000e-02
    endloop
  endfacet
  facet normal -6.166943e-01 -7.872028e-01 0.000000e+00
    outer loop
      vertex   5.276052e-02 1.830259e-02 8.500000e-03
      vertex   5.254384e-02 1.847233e-02 1.700000e-02
      vertex   5.254384e-02 1.847233e-02 8.500000e-03
    endloop
  endfacet
  facet normal 4.116457e-01 -9.113440e-01 0.000000e+00
    outer loop
      vertex   5.422733e-02 1.825951e-02 8.500000e-03
      vertex   5.422733e-02 1.825951e-02 1.700000e-02
      vertex   5.406029e-02 1.818406e-02 1.275000e-02
    endloop
  endfacet
  facet normal 4.116457e-01 -9.113440e-01 0.000000e+00
    outer loop
      vertex   5.406029e-02 1.818406e-02 1.275000e-02
      vertex   5.422733e-02 1.825951e-02 1.700000e-02
      vertex   5.406029e-02 1.818406e-02 1.700000e-02
    endloop
  endfacet
  facet normal 3.223685e-01 -9.466142e-01 0.000000e+00
    outer loop
      vertex   5.406029e-02 1.818406e-02 1.275000e-02
      vertex   5.406029e-02 1.818406e-02 1.700000e-02
      vertex   5.388890e-02 1.812569e-02 1.700000e-02
    endloop
  endfacet
  facet normal 3.223685e-01 -9.466142e-01 0.000000e+00
    outer loop
      vertex   5.406029e-02 1.818406e-02 1.275000e-02
      vertex   5.388890e-02 1.812569e-02 1.700000e-02
      vertex   5.388890e-02 1.812569e-02 1.275000e-02
    endloop
  endfacet
  facet normal 1.665077e-01 -9.860402e-01 0.000000e+00
    outer loop
      vertex   5.388890e-02 1.812569e-02 1.275000e-02
      vertex   5.388890e-02 1.812569e-02 1.700000e-02
      vertex   5.371032e-02 1.809553e-02 1.700000e-02
    endloop
  endfacet
  facet normal 1.665077e-01 -9.860402e-01 -2.718940e-16
    outer loop
      vertex   5.388890e-02 1.812569e-02 1.275000e-02
      vertex   5.371032e-02 1.809553e-02 1.700000e-02
      vertex   5.371032e-02 1.809553e-02 1.275000e-02
    endloop
  endfacet
  facet normal 7.296922e-02 -9.973342e-01 -1.191355e-16
    outer loop
      vertex   5.371032e-02 1.809553e-02 1.275000e-02
      vertex   5.371032e-02 1.809553e-02 1.700000e-02
      vertex   5.352747e-02 1.808216e-02 1.700000e-02
    endloop
  endfacet
  facet normal 7.296922e-02 -9.973342e-01 0.000000e+00
    outer loop
      vertex   5.371032e-02 1.809553e-02 1.275000e-02
      vertex   5.352747e-02 1.808216e-02 1.700000e-02
      vertex   5.352747e-02 1.808216e-02 8.500000e-03
    endloop
  endfacet
  facet normal 7.296922e-02 -9.973342e-01 1.194290e-16
    outer loop
      vertex   5.352747e-02 1.808216e-02 8.500000e-03
      vertex   5.371032e-02 1.809553e-02 8.500000e-03
      vertex   5.371032e-02 1.809553e-02 1.275000e-02
    endloop
  endfacet
  facet normal 1.665077e-01 -9.860402e-01 2.718540e-16
    outer loop
      vertex   5.371032e-02 1.809553e-02 1.275000e-02
      vertex   5.371032e-02 1.809553e-02 8.500000e-03
      vertex   5.388890e-02 1.812569e-02 8.500000e-03
    endloop
  endfacet
  facet normal 1.665077e-01 -9.860402e-01 0.000000e+00
    outer loop
      vertex   5.371032e-02 1.809553e-02 1.275000e-02
      vertex   5.388890e-02 1.812569e-02 8.500000e-03
      vertex   5.388890e-02 1.812569e-02 1.275000e-02
    endloop
  endfacet
  facet normal 3.223685e-01 -9.466142e-01 0.000000e+00
    outer loop
      vertex   5.388890e-02 1.812569e-02 1.275000e-02
      vertex   5.388890e-02 1.812569e-02 8.500000e-03
      vertex   5.406029e-02 1.818406e-02 8.500000e-03
    endloop
  endfacet
  facet normal 3.223685e-01 -9.466142e-01 0.000000e+00
    outer loop
      vertex   5.388890e-02 1.812569e-02 1.275000e-02
      vertex   5.406029e-02 1.818406e-02 8.500000e-03
      vertex   5.406029e-02 1.818406e-02 1.275000e-02
    endloop
  endfacet
  facet normal 4.116457e-01 -9.113440e-01 0.000000e+00
    outer loop
      vertex   5.406029e-02 1.818406e-02 1.275000e-02
      vertex   5.406029e-02 1.818406e-02 8.500000e-03
      vertex   5.422733e-02 1.825951e-02 8.500000e-03
    endloop
  endfacet
  facet normal 8.408317e-01 -5.412966e-01 0.000000e+00
    outer loop
      vertex   5.471574e-02 1.875746e-02 8.500000e-03
      vertex   5.471574e-02 1.875746e-02 1.700000e-02
      vertex   5.461937e-02 1.860776e-02 1.275000e-02
    endloop
  endfacet
  facet normal 8.408317e-01 -5.412966e-01 -8.837646e-16
    outer loop
      vertex   5.461937e-02 1.860776e-02 1.275000e-02
      vertex   5.471574e-02 1.875746e-02 1.700000e-02
      vertex   5.461937e-02 1.860776e-02 1.700000e-02
    endloop
  endfacet
  facet normal 7.760897e-01 -6.306226e-01 -1.029605e-15
    outer loop
      vertex   5.461937e-02 1.860776e-02 1.275000e-02
      vertex   5.461937e-02 1.860776e-02 1.700000e-02
      vertex   5.450893e-02 1.847185e-02 1.700000e-02
    endloop
  endfacet
  facet normal 7.760897e-01 -6.306226e-01 2.533914e-15
    outer loop
      vertex   5.461937e-02 1.860776e-02 1.275000e-02
      vertex   5.450893e-02 1.847185e-02 1.700000e-02
      vertex   5.450893e-02 1.847185e-02 1.275000e-02
    endloop
  endfacet
  facet normal 6.452564e-01 -7.639661e-01 2.106996e-15
    outer loop
      vertex   5.450893e-02 1.847185e-02 1.275000e-02
      vertex   5.450893e-02 1.847185e-02 1.700000e-02
      vertex   5.437512e-02 1.835883e-02 1.700000e-02
    endloop
  endfacet
  facet normal 6.452564e-01 -7.639661e-01 0.000000e+00
    outer loop
      vertex   5.450893e-02 1.847185e-02 1.275000e-02
      vertex   5.437512e-02 1.835883e-02 1.700000e-02
      vertex   5.437512e-02 1.835883e-02 1.275000e-02
    endloop
  endfacet
  facet normal 5.578079e-01 -8.299701e-01 0.000000e+00
    outer loop
      vertex   5.437512e-02 1.835883e-02 1.275000e-02
      vertex   5.437512e-02 1.835883e-02 1.700000e-02
      vertex   5.422733e-02 1.825951e-02 1.700000e-02
    endloop
  endfacet
  facet normal 5.578079e-01 -8.299701e-01 0.000000e+00
    outer loop
      vertex   5.437512e-02 1.835883e-02 1.275000e-02
      vertex   5.422733e-02 1.825951e-02 1.700000e-02
      vertex   5.422733e-02 1.825951e-02 8.500000e-03
    endloop
  endfacet
  facet normal 5.578079e-01 -8.299701e-01 0.000000e+00
    outer loop
      vertex   5.422733e-02 1.825951e-02 8.500000e-03
      vertex   5.437512e-02 1.835883e-02 8.500000e-03
      vertex   5.437512e-02 1.835883e-02 1.275000e-02
    endloop
  endfacet
  facet normal 6.452564e-01 -7.639661e-01 0.000000e+00
    outer loop
      vertex   5.437512e-02 1.835883e-02 1.275000e-02
      vertex   5.437512e-02 1.835883e-02 8.500000e-03
      vertex   5.450893e-02 1.847185e-02 8.500000e-03
    endloop
  endfacet
  facet normal 6.452564e-01 -7.639661e-01 -2.106881e-15
    outer loop
      vertex   5.437512e-02 1.835883e-02 1.275000e-02
      vertex   5.450893e-02 1.847185e-02 8.500000e-03
      vertex   5.450893e-02 1.847185e-02 1.275000e-02
    endloop
  endfacet
  facet normal 7.760897e-01 -6.306226e-01 -2.534214e-15
    outer loop
      vertex   5.450893e-02 1.847185e-02 1.275000e-02
      vertex   5.450893e-02 1.847185e-02 8.500000e-03
      vertex   5.461937e-02 1.860776e-02 8.500000e-03
    endloop
  endfacet
  facet normal 7.760897e-01 -6.306226e-01 1.026902e-15
    outer loop
      vertex   5.450893e-02 1.847185e-02 1.275000e-02
      vertex   5.461937e-02 1.860776e-02 8.500000e-03
      vertex   5.461937e-02 1.860776e-02 1.275000e-02
    endloop
  endfacet
  facet normal 8.408317e-01 -5.412966e-01 8.837646e-16
    outer loop
      vertex   5.461937e-02 1.860776e-02 1.275000e-02
      vertex   5.461937e-02 1.860776e-02 8.500000e-03
      vertex   5.471574e-02 1.875746e-02 8.500000e-03
    endloop
  endfacet
  facet normal 9.994778e-01 -3.231227e-02 0.000000e+00
    outer loop
      vertex   5.488354e-02 1.963741e-02 1.700000e-02
      vertex   5.487620e-02 1.941034e-02 1.700000e-02
      vertex   5.488354e-02 1.963741e-02 8.500000e-03
    endloop
  endfacet
  facet normal 9.994778e-01 -3.231227e-02 0.000000e+00
    outer loop
      vertex   5.488354e-02 1.963741e-02 8.500000e-03
      vertex   5.487620e-02 1.941034e-02 1.700000e-02
      vertex   5.487620e-02 1.941034e-02 8.500000e-03
    endloop
  endfacet
  facet normal 9.938631e-01 -1.106170e-01 0.000000e+00
    outer loop
      vertex   5.487620e-02 1.941034e-02 8.500000e-03
      vertex   5.487620e-02 1.941034e-02 1.700000e-02
      vertex   5.485133e-02 1.918687e-02 1.700000e-02
    endloop
  endfacet
  facet normal 9.938631e-01 -1.106170e-01 0.000000e+00
    outer loop
      vertex   5.487620e-02 1.941034e-02 8.500000e-03
      vertex   5.485133e-02 1.918687e-02 1.700000e-02
      vertex   5.485133e-02 1.918687e-02 8.500000e-03
    endloop
  endfacet
  facet normal 9.673270e-01 -2.535321e-01 0.000000e+00
    outer loop
      vertex   5.485133e-02 1.918687e-02 8.500000e-03
      vertex   5.485133e-02 1.918687e-02 1.700000e-02
      vertex   5.479447e-02 1.896993e-02 1.700000e-02
    endloop
  endfacet
  facet normal 9.673270e-01 -2.535321e-01 0.000000e+00
    outer loop
      vertex   5.485133e-02 1.918687e-02 8.500000e-03
      vertex   5.479447e-02 1.896993e-02 1.700000e-02
      vertex   5.479447e-02 1.896993e-02 8.500000e-03
    endloop
  endfacet
  facet normal 9.376911e-01 -3.474700e-01 0.000000e+00
    outer loop
      vertex   5.479447e-02 1.896993e-02 8.500000e-03
      vertex   5.479447e-02 1.896993e-02 1.700000e-02
      vertex   5.471574e-02 1.875746e-02 1.700000e-02
    endloop
  endfacet
  facet normal 9.376911e-01 -3.474700e-01 0.000000e+00
    outer loop
      vertex   5.479447e-02 1.896993e-02 8.500000e-03
      vertex   5.471574e-02 1.875746e-02 1.700000e-02
      vertex   5.471574e-02 1.875746e-02 8.500000e-03
    endloop
  endfacet
  facet normal 8.190403e-01 5.737359e-01 0.000000e+00
    outer loop
      vertex   5.450428e-02 2.071926e-02 1.700000e-02
      vertex   5.467445e-02 2.047633e-02 1.700000e-02
      vertex   5.450428e-02 2.071926e-02 8.500000e-03
    endloop
  endfacet
  facet normal 8.190403e-01 5.737359e-01 0.000000e+00
    outer loop
      vertex   5.450428e-02 2.071926e-02 8.500000e-03
      vertex   5.467445e-02 2.047633e-02 1.700000e-02
      vertex   5.467445e-02 2.047633e-02 8.500000e-03
    endloop
  endfacet
  facet normal 8.977204e-01 4.405657e-01 -0.000000e+00
    outer loop
      vertex   5.467445e-02 2.047633e-02 8.500000e-03
      vertex   5.467445e-02 2.047633e-02 1.700000e-02
      vertex   5.480142e-02 2.021762e-02 1.700000e-02
    endloop
  endfacet
  facet normal 8.977204e-01 4.405657e-01 0.000000e+00
    outer loop
      vertex   5.467445e-02 2.047633e-02 8.500000e-03
      vertex   5.480142e-02 2.021762e-02 1.700000e-02
      vertex   5.480142e-02 2.021762e-02 8.500000e-03
    endloop
  endfacet
  facet normal 9.782708e-01 2.073311e-01 -0.000000e+00
    outer loop
      vertex   5.480142e-02 2.021762e-02 8.500000e-03
      vertex   5.480142e-02 2.021762e-02 1.700000e-02
      vertex   5.486143e-02 1.993444e-02 1.700000e-02
    endloop
  endfacet
  facet normal 9.782708e-01 2.073311e-01 0.000000e+00
    outer loop
      vertex   5.480142e-02 2.021762e-02 8.500000e-03
      vertex   5.486143e-02 1.993444e-02 1.700000e-02
      vertex   5.486143e-02 1.993444e-02 8.500000e-03
    endloop
  endfacet
  facet normal 9.972419e-01 7.421995e-02 -0.000000e+00
    outer loop
      vertex   5.486143e-02 1.993444e-02 8.500000e-03
      vertex   5.486143e-02 1.993444e-02 1.700000e-02
      vertex   5.488354e-02 1.963741e-02 1.700000e-02
    endloop
  endfacet
  facet normal 9.972419e-01 7.421995e-02 0.000000e+00
    outer loop
      vertex   5.486143e-02 1.993444e-02 8.500000e-03
      vertex   5.488354e-02 1.963741e-02 1.700000e-02
      vertex   5.488354e-02 1.963741e-02 8.500000e-03
    endloop
  endfacet
  facet normal 1.005042e-01 9.949366e-01 0.000000e+00
    outer loop
      vertex   5.352747e-02 2.111080e-02 1.700000e-02
      vertex   5.380031e-02 2.108324e-02 1.700000e-02
      vertex   5.352747e-02 2.111080e-02 8.500000e-03
    endloop
  endfacet
  facet normal 1.005042e-01 9.949366e-01 0.000000e+00
    outer loop
      vertex   5.352747e-02 2.111080e-02 8.500000e-03
      vertex   5.380031e-02 2.108324e-02 1.700000e-02
      vertex   5.380031e-02 2.108324e-02 8.500000e-03
    endloop
  endfacet
  facet normal 2.455243e-01 9.693904e-01 -0.000000e+00
    outer loop
      vertex   5.380031e-02 2.108324e-02 8.500000e-03
      vertex   5.380031e-02 2.108324e-02 1.700000e-02
      vertex   5.405781e-02 2.101802e-02 1.700000e-02
    endloop
  endfacet
  facet normal 2.455243e-01 9.693904e-01 0.000000e+00
    outer loop
      vertex   5.380031e-02 2.108324e-02 8.500000e-03
      vertex   5.405781e-02 2.101802e-02 1.700000e-02
      vertex   5.405781e-02 2.101802e-02 8.500000e-03
    endloop
  endfacet
  facet normal 4.886569e-01 8.724760e-01 -0.000000e+00
    outer loop
      vertex   5.405781e-02 2.101802e-02 8.500000e-03
      vertex   5.405781e-02 2.101802e-02 1.700000e-02
      vertex   5.428912e-02 2.088847e-02 1.700000e-02
    endloop
  endfacet
  facet normal 4.886569e-01 8.724760e-01 0.000000e+00
    outer loop
      vertex   5.405781e-02 2.101802e-02 8.500000e-03
      vertex   5.428912e-02 2.088847e-02 1.700000e-02
      vertex   5.428912e-02 2.088847e-02 8.500000e-03
    endloop
  endfacet
  facet normal 6.181764e-01 7.860394e-01 -0.000000e+00
    outer loop
      vertex   5.428912e-02 2.088847e-02 8.500000e-03
      vertex   5.428912e-02 2.088847e-02 1.700000e-02
      vertex   5.450428e-02 2.071926e-02 1.700000e-02
    endloop
  endfacet
  facet normal 6.181764e-01 7.860394e-01 0.000000e+00
    outer loop
      vertex   5.428912e-02 2.088847e-02 8.500000e-03
      vertex   5.450428e-02 2.071926e-02 1.700000e-02
      vertex   5.450428e-02 2.071926e-02 8.500000e-03
    endloop
  endfacet
  facet normal -5.571539e-01 8.304093e-01 0.000000e+00
    outer loop
      vertex   5.261615e-02 2.078884e-02 1.700000e-02
      vertex   5.282308e-02 2.092768e-02 1.700000e-02
      vertex   5.261615e-02 2.078884e-02 8.500000e-03
    endloop
  endfacet
  facet normal -5.571539e-01 8.304093e-01 0.000000e+00
    outer loop
      vertex   5.261615e-02 2.078884e-02 8.500000e-03
      vertex   5.282308e-02 2.092768e-02 1.700000e-02
      vertex   5.282308e-02 2.092768e-02 8.500000e-03
    endloop
  endfacet
  facet normal -4.379294e-01 8.990094e-01 0.000000e+00
    outer loop
      vertex   5.282308e-02 2.092768e-02 8.500000e-03
      vertex   5.282308e-02 2.092768e-02 1.700000e-02
      vertex   5.304161e-02 2.103413e-02 1.700000e-02
    endloop
  endfacet
  facet normal -4.379294e-01 8.990094e-01 0.000000e+00
    outer loop
      vertex   5.282308e-02 2.092768e-02 8.500000e-03
      vertex   5.304161e-02 2.103413e-02 1.700000e-02
      vertex   5.304161e-02 2.103413e-02 8.500000e-03
    endloop
  endfacet
  facet normal -2.209628e-01 9.752822e-01 0.000000e+00
    outer loop
      vertex   5.304161e-02 2.103413e-02 8.500000e-03
      vertex   5.304161e-02 2.103413e-02 1.700000e-02
      vertex   5.327901e-02 2.108792e-02 1.700000e-02
    endloop
  endfacet
  facet normal -2.209628e-01 9.752822e-01 0.000000e+00
    outer loop
      vertex   5.304161e-02 2.103413e-02 8.500000e-03
      vertex   5.327901e-02 2.108792e-02 1.700000e-02
      vertex   5.327901e-02 2.108792e-02 8.500000e-03
    endloop
  endfacet
  facet normal -9.173495e-02 9.957835e-01 0.000000e+00
    outer loop
      vertex   5.327901e-02 2.108792e-02 8.500000e-03
      vertex   5.327901e-02 2.108792e-02 1.700000e-02
      vertex   5.352747e-02 2.111080e-02 1.700000e-02
    endloop
  endfacet
  facet normal -9.173495e-02 9.957835e-01 0.000000e+00
    outer loop
      vertex   5.327901e-02 2.108792e-02 8.500000e-03
      vertex   5.352747e-02 2.111080e-02 1.700000e-02
      vertex   5.352747e-02 2.111080e-02 8.500000e-03
    endloop
  endfacet
  facet normal -9.976187e-01 6.897103e-02 0.000000e+00
    outer loop
      vertex   5.216867e-02 1.959648e-02 8.500000e-03
      vertex   5.216867e-02 1.959648e-02 1.700000e-02
      vertex   5.219172e-02 1.992990e-02 1.275000e-02
    endloop
  endfacet
  facet normal -9.976187e-01 6.897103e-02 5.630384e-17
    outer loop
      vertex   5.219172e-02 1.992990e-02 1.275000e-02
      vertex   5.216867e-02 1.959648e-02 1.700000e-02
      vertex   5.219172e-02 1.992990e-02 1.700000e-02
    endloop
  endfacet
  facet normal -9.770548e-01 2.129880e-01 1.738707e-16
    outer loop
      vertex   5.219172e-02 1.992990e-02 1.275000e-02
      vertex   5.219172e-02 1.992990e-02 1.700000e-02
      vertex   5.226044e-02 2.024515e-02 1.700000e-02
    endloop
  endfacet
  facet normal -9.770548e-01 2.129880e-01 1.594900e-15
    outer loop
      vertex   5.219172e-02 1.992990e-02 1.275000e-02
      vertex   5.226044e-02 2.024515e-02 1.700000e-02
      vertex   5.226044e-02 2.024515e-02 1.275000e-02
    endloop
  endfacet
  facet normal -9.124581e-01 4.091701e-01 1.489753e-15
    outer loop
      vertex   5.226044e-02 2.024515e-02 1.275000e-02
      vertex   5.226044e-02 2.024515e-02 1.700000e-02
      vertex   5.232563e-02 2.039052e-02 1.700000e-02
    endloop
  endfacet
  facet normal -9.124581e-01 4.091701e-01 -1.488028e-15
    outer loop
      vertex   5.226044e-02 2.024515e-02 1.275000e-02
      vertex   5.232563e-02 2.039052e-02 1.700000e-02
      vertex   5.232563e-02 2.039052e-02 1.275000e-02
    endloop
  endfacet
  facet normal -8.488307e-01 5.286648e-01 -1.385870e-15
    outer loop
      vertex   5.232563e-02 2.039052e-02 1.275000e-02
      vertex   5.232563e-02 2.039052e-02 1.700000e-02
      vertex   5.241113e-02 2.052780e-02 1.700000e-02
    endloop
  endfacet
  facet normal -8.488307e-01 5.286648e-01 1.386326e-15
    outer loop
      vertex   5.232563e-02 2.039052e-02 1.275000e-02
      vertex   5.241113e-02 2.052780e-02 1.700000e-02
      vertex   5.241113e-02 2.052780e-02 1.275000e-02
    endloop
  endfacet
  facet normal -7.864468e-01 6.176581e-01 1.284017e-15
    outer loop
      vertex   5.241113e-02 2.052780e-02 1.275000e-02
      vertex   5.241113e-02 2.052780e-02 1.700000e-02
      vertex   5.261615e-02 2.078884e-02 1.700000e-02
    endloop
  endfacet
  facet normal -7.864468e-01 6.176581e-01 0.000000e+00
    outer loop
      vertex   5.241113e-02 2.052780e-02 1.275000e-02
      vertex   5.261615e-02 2.078884e-02 1.700000e-02
      vertex   5.261615e-02 2.078884e-02 8.500000e-03
    endloop
  endfacet
  facet normal -7.864468e-01 6.176581e-01 -1.280639e-15
    outer loop
      vertex   5.261615e-02 2.078884e-02 8.500000e-03
      vertex   5.241113e-02 2.052780e-02 8.500000e-03
      vertex   5.241113e-02 2.052780e-02 1.275000e-02
    endloop
  endfacet
  facet normal -8.488307e-01 5.286648e-01 -1.385870e-15
    outer loop
      vertex   5.241113e-02 2.052780e-02 1.275000e-02
      vertex   5.241113e-02 2.052780e-02 8.500000e-03
      vertex   5.232563e-02 2.039052e-02 8.500000e-03
    endloop
  endfacet
  facet normal -8.488307e-01 5.286648e-01 1.386326e-15
    outer loop
      vertex   5.241113e-02 2.052780e-02 1.275000e-02
      vertex   5.232563e-02 2.039052e-02 8.500000e-03
      vertex   5.232563e-02 2.039052e-02 1.275000e-02
    endloop
  endfacet
  facet normal -9.124581e-01 4.091701e-01 1.489753e-15
    outer loop
      vertex   5.232563e-02 2.039052e-02 1.275000e-02
      vertex   5.232563e-02 2.039052e-02 8.500000e-03
      vertex   5.226044e-02 2.024515e-02 8.500000e-03
    endloop
  endfacet
  facet normal -9.124581e-01 4.091701e-01 -1.488028e-15
    outer loop
      vertex   5.232563e-02 2.039052e-02 1.275000e-02
      vertex   5.226044e-02 2.024515e-02 8.500000e-03
      vertex   5.226044e-02 2.024515e-02 1.275000e-02
    endloop
  endfacet
  facet normal -9.770548e-01 2.129880e-01 -1.595219e-15
    outer loop
      vertex   5.226044e-02 2.024515e-02 1.275000e-02
      vertex   5.226044e-02 2.024515e-02 8.500000e-03
      vertex   5.219172e-02 1.992990e-02 8.500000e-03
    endloop
  endfacet
  facet normal -9.770548e-01 2.129880e-01 -1.737258e-16
    outer loop
      vertex   5.226044e-02 2.024515e-02 1.275000e-02
      vertex   5.219172e-02 1.992990e-02 8.500000e-03
      vertex   5.219172e-02 1.992990e-02 1.275000e-02
    endloop
  endfacet
  facet normal -9.976187e-01 6.897103e-02 -5.630384e-17
    outer loop
      vertex   5.219172e-02 1.992990e-02 1.275000e-02
      vertex   5.219172e-02 1.992990e-02 8.500000e-03
      vertex   5.216867e-02 1.959648e-02 8.500000e-03
    endloop
  endfacet
  facet normal -8.286804e-01 -5.597221e-01 -0.000000e+00
    outer loop
      vertex   5.254384e-02 1.847233e-02 1.700000e-02
      vertex   5.237248e-02 1.872604e-02 1.700000e-02
      vertex   5.254384e-02 1.847233e-02 8.500000e-03
    endloop
  endfacet
  facet normal -8.286804e-01 -5.597221e-01 0.000000e+00
    outer loop
      vertex   5.254384e-02 1.847233e-02 8.500000e-03
      vertex   5.237248e-02 1.872604e-02 1.700000e-02
      vertex   5.237248e-02 1.872604e-02 8.500000e-03
    endloop
  endfacet
  facet normal -9.056457e-01 -4.240353e-01 0.000000e+00
    outer loop
      vertex   5.237248e-02 1.872604e-02 8.500000e-03
      vertex   5.237248e-02 1.872604e-02 1.700000e-02
      vertex   5.224625e-02 1.899565e-02 1.700000e-02
    endloop
  endfacet
  facet normal -9.056457e-01 -4.240353e-01 0.000000e+00
    outer loop
      vertex   5.237248e-02 1.872604e-02 8.500000e-03
      vertex   5.224625e-02 1.899565e-02 1.700000e-02
      vertex   5.224625e-02 1.899565e-02 8.500000e-03
    endloop
  endfacet
  facet normal -9.811318e-01 -1.933399e-01 0.000000e+00
    outer loop
      vertex   5.224625e-02 1.899565e-02 8.500000e-03
      vertex   5.224625e-02 1.899565e-02 1.700000e-02
      vertex   5.218837e-02 1.928934e-02 1.700000e-02
    endloop
  endfacet
  facet normal -9.811318e-01 -1.933399e-01 0.000000e+00
    outer loop
      vertex   5.224625e-02 1.899565e-02 8.500000e-03
      vertex   5.218837e-02 1.928934e-02 1.700000e-02
      vertex   5.218837e-02 1.928934e-02 8.500000e-03
    endloop
  endfacet
  facet normal -9.979494e-01 -6.400729e-02 0.000000e+00
    outer loop
      vertex   5.218837e-02 1.928934e-02 8.500000e-03
      vertex   5.218837e-02 1.928934e-02 1.700000e-02
      vertex   5.216867e-02 1.959648e-02 1.700000e-02
    endloop
  endfacet
  facet normal -9.979494e-01 -6.400729e-02 0.000000e+00
    outer loop
      vertex   5.218837e-02 1.928934e-02 8.500000e-03
      vertex   5.216867e-02 1.959648e-02 1.700000e-02
      vertex   5.216867e-02 1.959648e-02 8.500000e-03
    endloop
  endfacet
  facet normal 0.000000e+00 -0.000000e+00 1.000000e+00
    outer loop
      vertex   5.218837e-02 1.928934e-02 1.700000e-02
      vertex   5.268406e-02 1.937239e-02 1.700000e-02
      vertex   5.216867e-02 1.959648e-02 1.700000e-02
    endloop
  endfacet
  facet normal -0.000000e+00 0.000000e+00 1.000000e+00
    outer loop
      vertex   5.216867e-02 1.959648e-02 1.700000e-02
      vertex   5.268406e-02 1.937239e-02 1.700000e-02
      vertex   5.267345e-02 1.959648e-02 1.700000e-02
    endloop
  endfacet
  facet normal 0.000000e+00 0.000000e+00 1.000000e+00
    outer loop
      vertex   5.216867e-02 1.959648e-02 1.700000e-02
      vertex   5.267345e-02 1.959648e-02 1.700000e-02
      vertex   5.268400e-02 1.982029e-02 1.700000e-02
    endloop
  endfacet
  facet normal 0.000000e+00 0.000000e+00 1.000000e+00
    outer loop
      vertex   5.268406e-02 1.937239e-02 1.700000e-02
      vertex   5.218837e-02 1.928934e-02 1.700000e-02
      vertex   5.272005e-02 1.915625e-02 1.700000e-02
    endloop
  endfacet
  facet normal 0.000000e+00 0.000000e+00 1.000000e+00
    outer loop
      vertex   5.272005e-02 1.915625e-02 1.700000e-02
      vertex   5.218837e-02 1.928934e-02 1.700000e-02
      vertex   5.224625e-02 1.899565e-02 1.700000e-02
    endloop
  endfacet
  facet normal 0.000000e+00 0.000000e+00 1.000000e+00
    outer loop
      vertex   5.272005e-02 1.915625e-02 1.700000e-02
      vertex   5.224625e-02 1.899565e-02 1.700000e-02
      vertex   5.237248e-02 1.872604e-02 1.700000e-02
    endloop
  endfacet
  facet normal 0.000000e+00 0.000000e+00 1.000000e+00
    outer loop
      vertex   5.272005e-02 1.915625e-02 1.700000e-02
      vertex   5.237248e-02 1.872604e-02 1.700000e-02
      vertex   5.280234e-02 1.895462e-02 1.700000e-02
    endloop
  endfacet
  facet normal 0.000000e+00 0.000000e+00 1.000000e+00
    outer loop
      vertex   5.280234e-02 1.895462e-02 1.700000e-02
      vertex   5.237248e-02 1.872604e-02 1.700000e-02
      vertex   5.254384e-02 1.847233e-02 1.700000e-02
    endloop
  endfacet
  facet normal 0.000000e+00 0.000000e+00 1.000000e+00
    outer loop
      vertex   5.280234e-02 1.895462e-02 1.700000e-02
      vertex   5.254384e-02 1.847233e-02 1.700000e-02
      vertex   5.291628e-02 1.876292e-02 1.700000e-02
    endloop
  endfacet
  facet normal 0.000000e+00 0.000000e+00 1.000000e+00
    outer loop
      vertex   5.291628e-02 1.876292e-02 1.700000e-02
      vertex   5.254384e-02 1.847233e-02 1.700000e-02
      vertex   5.276052e-02 1.830259e-02 1.700000e-02
    endloop
  endfacet
  facet normal 0.000000e+00 0.000000e+00 1.000000e+00
    outer loop
      vertex   5.291628e-02 1.876292e-02 1.700000e-02
      vertex   5.276052e-02 1.830259e-02 1.700000e-02
      vertex   5.304751e-02 1.864608e-02 1.700000e-02
    endloop
  endfacet
  facet normal 0.000000e+00 0.000000e+00 1.000000e+00
    outer loop
      vertex   5.304751e-02 1.864608e-02 1.700000e-02
      vertex   5.276052e-02 1.830259e-02 1.700000e-02
      vertex   5.299354e-02 1.817320e-02 1.700000e-02
    endloop
  endfacet
  facet normal 0.000000e+00 0.000000e+00 1.000000e+00
    outer loop
      vertex   5.304751e-02 1.864608e-02 1.700000e-02
      vertex   5.299354e-02 1.817320e-02 1.700000e-02
      vertex   5.319050e-02 1.855521e-02 1.700000e-02
    endloop
  endfacet
  facet normal 0.000000e+00 0.000000e+00 1.000000e+00
    outer loop
      vertex   5.319050e-02 1.855521e-02 1.700000e-02
      vertex   5.299354e-02 1.817320e-02 1.700000e-02
      vertex   5.325286e-02 1.810878e-02 1.700000e-02
    endloop
  endfacet
  facet normal 0.000000e+00 0.000000e+00 1.000000e+00
    outer loop
      vertex   5.319050e-02 1.855521e-02 1.700000e-02
      vertex   5.325286e-02 1.810878e-02 1.700000e-02
      vertex   5.335311e-02 1.850761e-02 1.700000e-02
    endloop
  endfacet
  facet normal 0.000000e+00 0.000000e+00 1.000000e+00
    outer loop
      vertex   5.335311e-02 1.850761e-02 1.700000e-02
      vertex   5.325286e-02 1.810878e-02 1.700000e-02
      vertex   5.352747e-02 1.808216e-02 1.700000e-02
    endloop
  endfacet
  facet normal 0.000000e+00 0.000000e+00 1.000000e+00
    outer loop
      vertex   5.335311e-02 1.850761e-02 1.700000e-02
      vertex   5.352747e-02 1.808216e-02 1.700000e-02
      vertex   5.352747e-02 1.848598e-02 1.700000e-02
    endloop
  endfacet
  facet normal 0.000000e+00 0.000000e+00 1.000000e+00
    outer loop
      vertex   5.352747e-02 1.848598e-02 1.700000e-02
      vertex   5.352747e-02 1.808216e-02 1.700000e-02
      vertex   5.371032e-02 1.809553e-02 1.700000e-02
    endloop
  endfacet
  facet normal -0.000000e+00 0.000000e+00 1.000000e+00
    outer loop
      vertex   5.352747e-02 1.848598e-02 1.700000e-02
      vertex   5.371032e-02 1.809553e-02 1.700000e-02
      vertex   5.370132e-02 1.850796e-02 1.700000e-02
    endloop
  endfacet
  facet normal 0.000000e+00 0.000000e+00 1.000000e+00
    outer loop
      vertex   5.370132e-02 1.850796e-02 1.700000e-02
      vertex   5.371032e-02 1.809553e-02 1.700000e-02
      vertex   5.388890e-02 1.812569e-02 1.700000e-02
    endloop
  endfacet
  facet normal -0.000000e+00 0.000000e+00 1.000000e+00
    outer loop
      vertex   5.370132e-02 1.850796e-02 1.700000e-02
      vertex   5.388890e-02 1.812569e-02 1.700000e-02
      vertex   5.386328e-02 1.855596e-02 1.700000e-02
    endloop
  endfacet
  facet normal 0.000000e+00 0.000000e+00 1.000000e+00
    outer loop
      vertex   5.386328e-02 1.855596e-02 1.700000e-02
      vertex   5.388890e-02 1.812569e-02 1.700000e-02
      vertex   5.406029e-02 1.818406e-02 1.700000e-02
    endloop
  endfacet
  facet normal -0.000000e+00 0.000000e+00 1.000000e+00
    outer loop
      vertex   5.386328e-02 1.855596e-02 1.700000e-02
      vertex   5.406029e-02 1.818406e-02 1.700000e-02
      vertex   5.400551e-02 1.864719e-02 1.700000e-02
    endloop
  endfacet
  facet normal 0.000000e+00 0.000000e+00 1.000000e+00
    outer loop
      vertex   5.400551e-02 1.864719e-02 1.700000e-02
      vertex   5.406029e-02 1.818406e-02 1.700000e-02
      vertex   5.422733e-02 1.825951e-02 1.700000e-02
    endloop
  endfacet
  facet normal 0.000000e+00 0.000000e+00 1.000000e+00
    outer loop
      vertex   5.400551e-02 1.864719e-02 1.700000e-02
      vertex   5.422733e-02 1.825951e-02 1.700000e-02
      vertex   5.437512e-02 1.835883e-02 1.700000e-02
    endloop
  endfacet
  facet normal -0.000000e+00 0.000000e+00 1.000000e+00
    outer loop
      vertex   5.400551e-02 1.864719e-02 1.700000e-02
      vertex   5.437512e-02 1.835883e-02 1.700000e-02
      vertex   5.413593e-02 1.876428e-02 1.700000e-02
    endloop
  endfacet
  facet normal 0.000000e+00 0.000000e+00 1.000000e+00
    outer loop
      vertex   5.413593e-02 1.876428e-02 1.700000e-02
      vertex   5.437512e-02 1.835883e-02 1.700000e-02
      vertex   5.450893e-02 1.847185e-02 1.700000e-02
    endloop
  endfacet
  facet normal -0.000000e+00 0.000000e+00 1.000000e+00
    outer loop
      vertex   5.413593e-02 1.876428e-02 1.700000e-02
      vertex   5.450893e-02 1.847185e-02 1.700000e-02
      vertex   5.425049e-02 1.895977e-02 1.700000e-02
    endloop
  endfacet
  facet normal 0.000000e+00 0.000000e+00 1.000000e+00
    outer loop
      vertex   5.425049e-02 1.895977e-02 1.700000e-02
      vertex   5.450893e-02 1.847185e-02 1.700000e-02
      vertex   5.461937e-02 1.860776e-02 1.700000e-02
    endloop
  endfacet
  facet normal 0.000000e+00 0.000000e+00 1.000000e+00
    outer loop
      vertex   5.425049e-02 1.895977e-02 1.700000e-02
      vertex   5.461937e-02 1.860776e-02 1.700000e-02
      vertex   5.471574e-02 1.875746e-02 1.700000e-02
    endloop
  endfacet
  facet normal -0.000000e+00 0.000000e+00 1.000000e+00
    outer loop
      vertex   5.425049e-02 1.895977e-02 1.700000e-02
      vertex   5.471574e-02 1.875746e-02 1.700000e-02
      vertex   5.433289e-02 1.916521e-02 1.700000e-02
    endloop
  endfacet
  facet normal 0.000000e+00 0.000000e+00 1.000000e+00
    outer loop
      vertex   5.433289e-02 1.916521e-02 1.700000e-02
      vertex   5.471574e-02 1.875746e-02 1.700000e-02
      vertex   5.479447e-02 1.896993e-02 1.700000e-02
    endloop
  endfacet
  facet normal -0.000000e+00 0.000000e+00 1.000000e+00
    outer loop
      vertex   5.433289e-02 1.916521e-02 1.700000e-02
      vertex   5.479447e-02 1.896993e-02 1.700000e-02
      vertex   5.485133e-02 1.918687e-02 1.700000e-02
    endloop
  endfacet
  facet normal 0.000000e+00 0.000000e+00 1.000000e+00
    outer loop
      vertex   5.433289e-02 1.916521e-02 1.700000e-02
      vertex   5.485133e-02 1.918687e-02 1.700000e-02
      vertex   5.436858e-02 1.938509e-02 1.700000e-02
    endloop
  endfacet
  facet normal -0.000000e+00 0.000000e+00 1.000000e+00
    outer loop
      vertex   5.436858e-02 1.938509e-02 1.700000e-02
      vertex   5.485133e-02 1.918687e-02 1.700000e-02
      vertex   5.487620e-02 1.941034e-02 1.700000e-02
    endloop
  endfacet
  facet normal 0.000000e+00 0.000000e+00 1.000000e+00
    outer loop
      vertex   5.436858e-02 1.938509e-02 1.700000e-02
      vertex   5.487620e-02 1.941034e-02 1.700000e-02
      vertex   5.437877e-02 1.961285e-02 1.700000e-02
    endloop
  endfacet
  facet normal -0.000000e+00 0.000000e+00 1.000000e+00
    outer loop
      vertex   5.437877e-02 1.961285e-02 1.700000e-02
      vertex   5.487620e-02 1.941034e-02 1.700000e-02
      vertex   5.488354e-02 1.963741e-02 1.700000e-02
    endloop
  endfacet
  facet normal 0.000000e+00 -0.000000e+00 1.000000e+00
    outer loop
      vertex   5.437877e-02 1.961285e-02 1.700000e-02
      vertex   5.488354e-02 1.963741e-02 1.700000e-02
      vertex   5.436733e-02 1.983236e-02 1.700000e-02
    endloop
  endfacet
  facet normal -0.000000e+00 0.000000e+00 1.000000e+00
    outer loop
      vertex   5.436733e-02 1.983236e-02 1.700000e-02
      vertex   5.488354e-02 1.963741e-02 1.700000e-02
      vertex   5.486143e-02 1.993444e-02 1.700000e-02
    endloop
  endfacet
  facet normal 0.000000e+00 -0.000000e+00 1.000000e+00
    outer loop
      vertex   5.436733e-02 1.983236e-02 1.700000e-02
      vertex   5.486143e-02 1.993444e-02 1.700000e-02
      vertex   5.433061e-02 2.004377e-02 1.700000e-02
    endloop
  endfacet
  facet normal -2.638685e-15 -1.281102e-14 1.000000e+00
    outer loop
      vertex   5.433061e-02 2.004377e-02 1.700000e-02
      vertex   5.486143e-02 1.993444e-02 1.700000e-02
      vertex   5.480142e-02 2.021762e-02 1.700000e-02
    endloop
  endfacet
  facet normal -1.043066e-14 8.291297e-15 1.000000e+00
    outer loop
      vertex   5.433061e-02 2.004377e-02 1.700000e-02
      vertex   5.480142e-02 2.021762e-02 1.700000e-02
      vertex   5.467445e-02 2.047633e-02 1.700000e-02
    endloop
  endfacet
  facet normal 0.000000e+00 -0.000000e+00 1.000000e+00
    outer loop
      vertex   5.433061e-02 2.004377e-02 1.700000e-02
      vertex   5.467445e-02 2.047633e-02 1.700000e-02
      vertex   5.424806e-02 2.024050e-02 1.700000e-02
    endloop
  endfacet
  facet normal 0.000000e+00 0.000000e+00 1.000000e+00
    outer loop
      vertex   5.424806e-02 2.024050e-02 1.700000e-02
      vertex   5.467445e-02 2.047633e-02 1.700000e-02
      vertex   5.450428e-02 2.071926e-02 1.700000e-02
    endloop
  endfacet
  facet normal 0.000000e+00 -0.000000e+00 1.000000e+00
    outer loop
      vertex   5.424806e-02 2.024050e-02 1.700000e-02
      vertex   5.450428e-02 2.071926e-02 1.700000e-02
      vertex   5.413456e-02 2.042731e-02 1.700000e-02
    endloop
  endfacet
  facet normal 0.000000e+00 0.000000e+00 1.000000e+00
    outer loop
      vertex   5.413456e-02 2.042731e-02 1.700000e-02
      vertex   5.450428e-02 2.071926e-02 1.700000e-02
      vertex   5.428912e-02 2.088847e-02 1.700000e-02
    endloop
  endfacet
  facet normal 0.000000e+00 -0.000000e+00 1.000000e+00
    outer loop
      vertex   5.413456e-02 2.042731e-02 1.700000e-02
      vertex   5.428912e-02 2.088847e-02 1.700000e-02
      vertex   5.400420e-02 2.054361e-02 1.700000e-02
    endloop
  endfacet
  facet normal 0.000000e+00 0.000000e+00 1.000000e+00
    outer loop
      vertex   5.400420e-02 2.054361e-02 1.700000e-02
      vertex   5.428912e-02 2.088847e-02 1.700000e-02
      vertex   5.405781e-02 2.101802e-02 1.700000e-02
    endloop
  endfacet
  facet normal 0.000000e+00 -0.000000e+00 1.000000e+00
    outer loop
      vertex   5.400420e-02 2.054361e-02 1.700000e-02
      vertex   5.405781e-02 2.101802e-02 1.700000e-02
      vertex   5.386220e-02 2.063433e-02 1.700000e-02
    endloop
  endfacet
  facet normal 0.000000e+00 -0.000000e+00 1.000000e+00
    outer loop
      vertex   5.386220e-02 2.063433e-02 1.700000e-02
      vertex   5.405781e-02 2.101802e-02 1.700000e-02
      vertex   5.380031e-02 2.108324e-02 1.700000e-02
    endloop
  endfacet
  facet normal 0.000000e+00 0.000000e+00 1.000000e+00
    outer loop
      vertex   5.386220e-02 2.063433e-02 1.700000e-02
      vertex   5.380031e-02 2.108324e-02 1.700000e-02
      vertex   5.370071e-02 2.068221e-02 1.700000e-02
    endloop
  endfacet
  facet normal 0.000000e+00 -0.000000e+00 1.000000e+00
    outer loop
      vertex   5.370071e-02 2.068221e-02 1.700000e-02
      vertex   5.380031e-02 2.108324e-02 1.700000e-02
      vertex   5.352747e-02 2.111080e-02 1.700000e-02
    endloop
  endfacet
  facet normal 0.000000e+00 0.000000e+00 1.000000e+00
    outer loop
      vertex   5.370071e-02 2.068221e-02 1.700000e-02
      vertex   5.352747e-02 2.111080e-02 1.700000e-02
      vertex   5.352747e-02 2.070426e-02 1.700000e-02
    endloop
  endfacet
  facet normal 0.000000e+00 -0.000000e+00 1.000000e+00
    outer loop
      vertex   5.352747e-02 2.070426e-02 1.700000e-02
      vertex   5.352747e-02 2.111080e-02 1.700000e-02
      vertex   5.335328e-02 2.068279e-02 1.700000e-02
    endloop
  endfacet
  facet normal 0.000000e+00 -0.000000e+00 1.000000e+00
    outer loop
      vertex   5.335328e-02 2.068279e-02 1.700000e-02
      vertex   5.352747e-02 2.111080e-02 1.700000e-02
      vertex   5.327901e-02 2.108792e-02 1.700000e-02
    endloop
  endfacet
  facet normal 0.000000e+00 0.000000e+00 1.000000e+00
    outer loop
      vertex   5.335328e-02 2.068279e-02 1.700000e-02
      vertex   5.327901e-02 2.108792e-02 1.700000e-02
      vertex   5.319075e-02 2.063547e-02 1.700000e-02
    endloop
  endfacet
  facet normal 0.000000e+00 -0.000000e+00 1.000000e+00
    outer loop
      vertex   5.319075e-02 2.063547e-02 1.700000e-02
      vertex   5.327901e-02 2.108792e-02 1.700000e-02
      vertex   5.304161e-02 2.103413e-02 1.700000e-02
    endloop
  endfacet
  facet normal 0.000000e+00 0.000000e+00 1.000000e+00
    outer loop
      vertex   5.319075e-02 2.063547e-02 1.700000e-02
      vertex   5.304161e-02 2.103413e-02 1.700000e-02
      vertex   5.304767e-02 2.054502e-02 1.700000e-02
    endloop
  endfacet
  facet normal 0.000000e+00 0.000000e+00 1.000000e+00
    outer loop
      vertex   5.304767e-02 2.054502e-02 1.700000e-02
      vertex   5.304161e-02 2.103413e-02 1.700000e-02
      vertex   5.282308e-02 2.092768e-02 1.700000e-02
    endloop
  endfacet
  facet normal 0.000000e+00 0.000000e+00 1.000000e+00
    outer loop
      vertex   5.304767e-02 2.054502e-02 1.700000e-02
      vertex   5.282308e-02 2.092768e-02 1.700000e-02
      vertex   5.291628e-02 2.042868e-02 1.700000e-02
    endloop
  endfacet
  facet normal 0.000000e+00 0.000000e+00 1.000000e+00
    outer loop
      vertex   5.291628e-02 2.042868e-02 1.700000e-02
      vertex   5.282308e-02 2.092768e-02 1.700000e-02
      vertex   5.261615e-02 2.078884e-02 1.700000e-02
    endloop
  endfacet
  facet normal 0.000000e+00 0.000000e+00 1.000000e+00
    outer loop
      vertex   5.291628e-02 2.042868e-02 1.700000e-02
      vertex   5.261615e-02 2.078884e-02 1.700000e-02
      vertex   5.241113e-02 2.052780e-02 1.700000e-02
    endloop
  endfacet
  facet normal 0.000000e+00 0.000000e+00 1.000000e+00
    outer loop
      vertex   5.291628e-02 2.042868e-02 1.700000e-02
      vertex   5.241113e-02 2.052780e-02 1.700000e-02
      vertex   5.280225e-02 2.023738e-02 1.700000e-02
    endloop
  endfacet
  facet normal 0.000000e+00 0.000000e+00 1.000000e+00
    outer loop
      vertex   5.280225e-02 2.023738e-02 1.700000e-02
      vertex   5.241113e-02 2.052780e-02 1.700000e-02
      vertex   5.232563e-02 2.039052e-02 1.700000e-02
    endloop
  endfacet
  facet normal 0.000000e+00 0.000000e+00 1.000000e+00
    outer loop
      vertex   5.280225e-02 2.023738e-02 1.700000e-02
      vertex   5.232563e-02 2.039052e-02 1.700000e-02
      vertex   5.271995e-02 2.003612e-02 1.700000e-02
    endloop
  endfacet
  facet normal 0.000000e+00 0.000000e+00 1.000000e+00
    outer loop
      vertex   5.271995e-02 2.003612e-02 1.700000e-02
      vertex   5.232563e-02 2.039052e-02 1.700000e-02
      vertex   5.226044e-02 2.024515e-02 1.700000e-02
    endloop
  endfacet
  facet normal 0.000000e+00 0.000000e+00 1.000000e+00
    outer loop
      vertex   5.271995e-02 2.003612e-02 1.700000e-02
      vertex   5.226044e-02 2.024515e-02 1.700000e-02
      vertex   5.219172e-02 1.992990e-02 1.700000e-02
    endloop
  endfacet
  facet normal 0.000000e+00 0.000000e+00 1.000000e+00
    outer loop
      vertex   5.271995e-02 2.003612e-02 1.700000e-02
      vertex   5.219172e-02 1.992990e-02 1.700000e-02
      vertex   5.268400e-02 1.982029e-02 1.700000e-02
    endloop
  endfacet
  facet normal 0.000000e+00 0.000000e+00 1.000000e+00
    outer loop
      vertex   5.268400e-02 1.982029e-02 1.700000e-02
      vertex   5.219172e-02 1.992990e-02 1.700000e-02
      vertex   5.216867e-02 1.959648e-02 1.700000e-02
    endloop
  endfacet
  facet normal 0.000000e+00 0.000000e+00 -1.000000e+00
    outer loop
      vertex   5.237248e-02 1.872604e-02 8.500000e-03
      vertex   5.280234e-02 1.895462e-02 8.500000e-03
      vertex   5.254384e-02 1.847233e-02 8.500000e-03
    endloop
  endfacet
  facet normal 0.000000e+00 0.000000e+00 -1.000000e+00
    outer loop
      vertex   5.254384e-02 1.847233e-02 8.500000e-03
      vertex   5.280234e-02 1.895462e-02 8.500000e-03
      vertex   5.291628e-02 1.876292e-02 8.500000e-03
    endloop
  endfacet
  facet normal 0.000000e+00 0.000000e+00 -1.000000e+00
    outer loop
      vertex   5.254384e-02 1.847233e-02 8.500000e-03
      vertex   5.291628e-02 1.876292e-02 8.500000e-03
      vertex   5.276052e-02 1.830259e-02 8.500000e-03
    endloop
  endfacet
  facet normal 0.000000e+00 0.000000e+00 -1.000000e+00
    outer loop
      vertex   5.276052e-02 1.830259e-02 8.500000e-03
      vertex   5.291628e-02 1.876292e-02 8.500000e-03
      vertex   5.304751e-02 1.864608e-02 8.500000e-03
    endloop
  endfacet
  facet normal 0.000000e+00 0.000000e+00 -1.000000e+00
    outer loop
      vertex   5.276052e-02 1.830259e-02 8.500000e-03
      vertex   5.304751e-02 1.864608e-02 8.500000e-03
      vertex   5.299354e-02 1.817320e-02 8.500000e-03
    endloop
  endfacet
  facet normal 0.000000e+00 0.000000e+00 -1.000000e+00
    outer loop
      vertex   5.299354e-02 1.817320e-02 8.500000e-03
      vertex   5.304751e-02 1.864608e-02 8.500000e-03
      vertex   5.319050e-02 1.855521e-02 8.500000e-03
    endloop
  endfacet
  facet normal 0.000000e+00 0.000000e+00 -1.000000e+00
    outer loop
      vertex   5.299354e-02 1.817320e-02 8.500000e-03
      vertex   5.319050e-02 1.855521e-02 8.500000e-03
      vertex   5.325286e-02 1.810878e-02 8.500000e-03
    endloop
  endfacet
  facet normal 0.000000e+00 0.000000e+00 -1.000000e+00
    outer loop
      vertex   5.325286e-02 1.810878e-02 8.500000e-03
      vertex   5.319050e-02 1.855521e-02 8.500000e-03
      vertex   5.335311e-02 1.850761e-02 8.500000e-03
    endloop
  endfacet
  facet normal 0.000000e+00 0.000000e+00 -1.000000e+00
    outer loop
      vertex   5.325286e-02 1.810878e-02 8.500000e-03
      vertex   5.335311e-02 1.850761e-02 8.500000e-03
      vertex   5.352747e-02 1.808216e-02 8.500000e-03
    endloop
  endfacet
  facet normal 0.000000e+00 0.000000e+00 -1.000000e+00
    outer loop
      vertex   5.352747e-02 1.808216e-02 8.500000e-03
      vertex   5.335311e-02 1.850761e-02 8.500000e-03
      vertex   5.352747e-02 1.848598e-02 8.500000e-03
    endloop
  endfacet
  facet normal 0.000000e+00 0.000000e+00 -1.000000e+00
    outer loop
      vertex   5.352747e-02 1.808216e-02 8.500000e-03
      vertex   5.352747e-02 1.848598e-02 8.500000e-03
      vertex   5.371032e-02 1.809553e-02 8.500000e-03
    endloop
  endfacet
  facet normal 0.000000e+00 0.000000e+00 -1.000000e+00
    outer loop
      vertex   5.371032e-02 1.809553e-02 8.500000e-03
      vertex   5.352747e-02 1.848598e-02 8.500000e-03
      vertex   5.370132e-02 1.850796e-02 8.500000e-03
    endloop
  endfacet
  facet normal 0.000000e+00 0.000000e+00 -1.000000e+00
    outer loop
      vertex   5.371032e-02 1.809553e-02 8.500000e-03
      vertex   5.370132e-02 1.850796e-02 8.500000e-03
      vertex   5.388890e-02 1.812569e-02 8.500000e-03
    endloop
  endfacet
  facet normal 0.000000e+00 0.000000e+00 -1.000000e+00
    outer loop
      vertex   5.388890e-02 1.812569e-02 8.500000e-03
      vertex   5.370132e-02 1.850796e-02 8.500000e-03
      vertex   5.386328e-02 1.855596e-02 8.500000e-03
    endloop
  endfacet
  facet normal 0.000000e+00 0.000000e+00 -1.000000e+00
    outer loop
      vertex   5.388890e-02 1.812569e-02 8.500000e-03
      vertex   5.386328e-02 1.855596e-02 8.500000e-03
      vertex   5.406029e-02 1.818406e-02 8.500000e-03
    endloop
  endfacet
  facet normal 0.000000e+00 0.000000e+00 -1.000000e+00
    outer loop
      vertex   5.406029e-02 1.818406e-02 8.500000e-03
      vertex   5.386328e-02 1.855596e-02 8.500000e-03
      vertex   5.400551e-02 1.864719e-02 8.500000e-03
    endloop
  endfacet
  facet normal 0.000000e+00 0.000000e+00 -1.000000e+00
    outer loop
      vertex   5.406029e-02 1.818406e-02 8.500000e-03
      vertex   5.400551e-02 1.864719e-02 8.500000e-03
      vertex   5.422733e-02 1.825951e-02 8.500000e-03
    endloop
  endfacet
  facet normal 0.000000e+00 0.000000e+00 -1.000000e+00
    outer loop
      vertex   5.422733e-02 1.825951e-02 8.500000e-03
      vertex   5.400551e-02 1.864719e-02 8.500000e-03
      vertex   5.437512e-02 1.835883e-02 8.500000e-03
    endloop
  endfacet
  facet normal 0.000000e+00 0.000000e+00 -1.000000e+00
    outer loop
      vertex   5.437512e-02 1.835883e-02 8.500000e-03
      vertex   5.400551e-02 1.864719e-02 8.500000e-03
      vertex   5.413593e-02 1.876428e-02 8.500000e-03
    endloop
  endfacet
  facet normal 0.000000e+00 0.000000e+00 -1.000000e+00
    outer loop
      vertex   5.437512e-02 1.835883e-02 8.500000e-03
      vertex   5.413593e-02 1.876428e-02 8.500000e-03
      vertex   5.450893e-02 1.847185e-02 8.500000e-03
    endloop
  endfacet
  facet normal 0.000000e+00 0.000000e+00 -1.000000e+00
    outer loop
      vertex   5.450893e-02 1.847185e-02 8.500000e-03
      vertex   5.413593e-02 1.876428e-02 8.500000e-03
      vertex   5.425049e-02 1.895977e-02 8.500000e-03
    endloop
  endfacet
  facet normal 0.000000e+00 0.000000e+00 -1.000000e+00
    outer loop
      vertex   5.450893e-02 1.847185e-02 8.500000e-03
      vertex   5.425049e-02 1.895977e-02 8.500000e-03
      vertex   5.461937e-02 1.860776e-02 8.500000e-03
    endloop
  endfacet
  facet normal 0.000000e+00 0.000000e+00 -1.000000e+00
    outer loop
      vertex   5.461937e-02 1.860776e-02 8.500000e-03
      vertex   5.425049e-02 1.895977e-02 8.500000e-03
      vertex   5.471574e-02 1.875746e-02 8.500000e-03
    endloop
  endfacet
  facet normal 0.000000e+00 0.000000e+00 -1.000000e+00
    outer loop
      vertex   5.471574e-02 1.875746e-02 8.500000e-03
      vertex   5.425049e-02 1.895977e-02 8.500000e-03
      vertex   5.433289e-02 1.916521e-02 8.500000e-03
    endloop
  endfacet
  facet normal 0.000000e+00 0.000000e+00 -1.000000e+00
    outer loop
      vertex   5.471574e-02 1.875746e-02 8.500000e-03
      vertex   5.433289e-02 1.916521e-02 8.500000e-03
      vertex   5.479447e-02 1.896993e-02 8.500000e-03
    endloop
  endfacet
  facet normal 0.000000e+00 0.000000e+00 -1.000000e+00
    outer loop
      vertex   5.479447e-02 1.896993e-02 8.500000e-03
      vertex   5.433289e-02 1.916521e-02 8.500000e-03
      vertex   5.485133e-02 1.918687e-02 8.500000e-03
    endloop
  endfacet
  facet normal -0.000000e+00 0.000000e+00 -1.000000e+00
    outer loop
      vertex   5.485133e-02 1.918687e-02 8.500000e-03
      vertex   5.433289e-02 1.916521e-02 8.500000e-03
      vertex   5.436858e-02 1.938509e-02 8.500000e-03
    endloop
  endfacet
  facet normal 0.000000e+00 0.000000e+00 -1.000000e+00
    outer loop
      vertex   5.485133e-02 1.918687e-02 8.500000e-03
      vertex   5.436858e-02 1.938509e-02 8.500000e-03
      vertex   5.487620e-02 1.941034e-02 8.500000e-03
    endloop
  endfacet
  facet normal -0.000000e+00 0.000000e+00 -1.000000e+00
    outer loop
      vertex   5.487620e-02 1.941034e-02 8.500000e-03
      vertex   5.436858e-02 1.938509e-02 8.500000e-03
      vertex   5.437877e-02 1.961285e-02 8.500000e-03
    endloop
  endfacet
  facet normal 0.000000e+00 0.000000e+00 -1.000000e+00
    outer loop
      vertex   5.487620e-02 1.941034e-02 8.500000e-03
      vertex   5.437877e-02 1.961285e-02 8.500000e-03
      vertex   5.488354e-02 1.963741e-02 8.500000e-03
    endloop
  endfacet
  facet normal -0.000000e+00 0.000000e+00 -1.000000e+00
    outer loop
      vertex   5.488354e-02 1.963741e-02 8.500000e-03
      vertex   5.437877e-02 1.961285e-02 8.500000e-03
      vertex   5.436733e-02 1.983236e-02 8.500000e-03
    endloop
  endfacet
  facet normal 0.000000e+00 0.000000e+00 -1.000000e+00
    outer loop
      vertex   5.488354e-02 1.963741e-02 8.500000e-03
      vertex   5.436733e-02 1.983236e-02 8.500000e-03
      vertex   5.486143e-02 1.993444e-02 8.500000e-03
    endloop
  endfacet
  facet normal -0.000000e+00 0.000000e+00 -1.000000e+00
    outer loop
      vertex   5.486143e-02 1.993444e-02 8.500000e-03
      vertex   5.436733e-02 1.983236e-02 8.500000e-03
      vertex   5.433061e-02 2.004377e-02 8.500000e-03
    endloop
  endfacet
  facet normal 1.319342e-15 6.405508e-15 -1.000000e+00
    outer loop
      vertex   5.486143e-02 1.993444e-02 8.500000e-03
      vertex   5.433061e-02 2.004377e-02 8.500000e-03
      vertex   5.480142e-02 2.021762e-02 8.500000e-03
    endloop
  endfacet
  facet normal 5.215328e-15 -4.145648e-15 -1.000000e+00
    outer loop
      vertex   5.480142e-02 2.021762e-02 8.500000e-03
      vertex   5.433061e-02 2.004377e-02 8.500000e-03
      vertex   5.467445e-02 2.047633e-02 8.500000e-03
    endloop
  endfacet
  facet normal 0.000000e+00 0.000000e+00 -1.000000e+00
    outer loop
      vertex   5.467445e-02 2.047633e-02 8.500000e-03
      vertex   5.433061e-02 2.004377e-02 8.500000e-03
      vertex   5.424806e-02 2.024050e-02 8.500000e-03
    endloop
  endfacet
  facet normal -0.000000e+00 0.000000e+00 -1.000000e+00
    outer loop
      vertex   5.467445e-02 2.047633e-02 8.500000e-03
      vertex   5.424806e-02 2.024050e-02 8.500000e-03
      vertex   5.450428e-02 2.071926e-02 8.500000e-03
    endloop
  endfacet
  facet normal 0.000000e+00 0.000000e+00 -1.000000e+00
    outer loop
      vertex   5.450428e-02 2.071926e-02 8.500000e-03
      vertex   5.424806e-02 2.024050e-02 8.500000e-03
      vertex   5.413456e-02 2.042731e-02 8.500000e-03
    endloop
  endfacet
  facet normal -0.000000e+00 0.000000e+00 -1.000000e+00
    outer loop
      vertex   5.450428e-02 2.071926e-02 8.500000e-03
      vertex   5.413456e-02 2.042731e-02 8.500000e-03
      vertex   5.428912e-02 2.088847e-02 8.500000e-03
    endloop
  endfacet
  facet normal 0.000000e+00 0.000000e+00 -1.000000e+00
    outer loop
      vertex   5.428912e-02 2.088847e-02 8.500000e-03
      vertex   5.413456e-02 2.042731e-02 8.500000e-03
      vertex   5.400420e-02 2.054361e-02 8.500000e-03
    endloop
  endfacet
  facet normal -0.000000e+00 0.000000e+00 -1.000000e+00
    outer loop
      vertex   5.428912e-02 2.088847e-02 8.500000e-03
      vertex   5.400420e-02 2.054361e-02 8.500000e-03
      vertex   5.405781e-02 2.101802e-02 8.500000e-03
    endloop
  endfacet
  facet normal 0.000000e+00 0.000000e+00 -1.000000e+00
    outer loop
      vertex   5.405781e-02 2.101802e-02 8.500000e-03
      vertex   5.400420e-02 2.054361e-02 8.500000e-03
      vertex   5.386220e-02 2.063433e-02 8.500000e-03
    endloop
  endfacet
  facet normal -0.000000e+00 0.000000e+00 -1.000000e+00
    outer loop
      vertex   5.405781e-02 2.101802e-02 8.500000e-03
      vertex   5.386220e-02 2.063433e-02 8.500000e-03
      vertex   5.380031e-02 2.108324e-02 8.500000e-03
    endloop
  endfacet
  facet normal 0.000000e+00 -0.000000e+00 -1.000000e+00
    outer loop
      vertex   5.380031e-02 2.108324e-02 8.500000e-03
      vertex   5.386220e-02 2.063433e-02 8.500000e-03
      vertex   5.370071e-02 2.068221e-02 8.500000e-03
    endloop
  endfacet
  facet normal -0.000000e+00 0.000000e+00 -1.000000e+00
    outer loop
      vertex   5.380031e-02 2.108324e-02 8.500000e-03
      vertex   5.370071e-02 2.068221e-02 8.500000e-03
      vertex   5.352747e-02 2.111080e-02 8.500000e-03
    endloop
  endfacet
  facet normal 0.000000e+00 0.000000e+00 -1.000000e+00
    outer loop
      vertex   5.352747e-02 2.111080e-02 8.500000e-03
      vertex   5.370071e-02 2.068221e-02 8.500000e-03
      vertex   5.352747e-02 2.070426e-02 8.500000e-03
    endloop
  endfacet
  facet normal 0.000000e+00 -0.000000e+00 -1.000000e+00
    outer loop
      vertex   5.352747e-02 2.111080e-02 8.500000e-03
      vertex   5.352747e-02 2.070426e-02 8.500000e-03
      vertex   5.335328e-02 2.068279e-02 8.500000e-03
    endloop
  endfacet
  facet normal -0.000000e+00 0.000000e+00 -1.000000e+00
    outer loop
      vertex   5.280234e-02 1.895462e-02 8.500000e-03
      vertex   5.237248e-02 1.872604e-02 8.500000e-03
      vertex   5.272005e-02 1.915625e-02 8.500000e-03
    endloop
  endfacet
  facet normal 0.000000e+00 0.000000e+00 -1.000000e+00
    outer loop
      vertex   5.272005e-02 1.915625e-02 8.500000e-03
      vertex   5.237248e-02 1.872604e-02 8.500000e-03
      vertex   5.224625e-02 1.899565e-02 8.500000e-03
    endloop
  endfacet
  facet normal -0.000000e+00 0.000000e+00 -1.000000e+00
    outer loop
      vertex   5.272005e-02 1.915625e-02 8.500000e-03
      vertex   5.224625e-02 1.899565e-02 8.500000e-03
      vertex   5.218837e-02 1.928934e-02 8.500000e-03
    endloop
  endfacet
  facet normal 0.000000e+00 0.000000e+00 -1.000000e+00
    outer loop
      vertex   5.272005e-02 1.915625e-02 8.500000e-03
      vertex   5.218837e-02 1.928934e-02 8.500000e-03
      vertex   5.268406e-02 1.937239e-02 8.500000e-03
    endloop
  endfacet
  facet normal -0.000000e+00 0.000000e+00 -1.000000e+00
    outer loop
      vertex   5.268406e-02 1.937239e-02 8.500000e-03
      vertex   5.218837e-02 1.928934e-02 8.500000e-03
      vertex   5.216867e-02 1.959648e-02 8.500000e-03
    endloop
  endfacet
  facet normal 0.000000e+00 0.000000e+00 -1.000000e+00
    outer loop
      vertex   5.268406e-02 1.937239e-02 8.500000e-03
      vertex   5.216867e-02 1.959648e-02 8.500000e-03
      vertex   5.267345e-02 1.959648e-02 8.500000e-03
    endloop
  endfacet
  facet normal 0.000000e+00 0.000000e+00 -1.000000e+00
    outer loop
      vertex   5.267345e-02 1.959648e-02 8.500000e-03
      vertex   5.216867e-02 1.959648e-02 8.500000e-03
      vertex   5.268400e-02 1.982029e-02 8.500000e-03
    endloop
  endfacet
  facet normal -0.000000e+00 0.000000e+00 -1.000000e+00
    outer loop
      vertex   5.268400e-02 1.982029e-02 8.500000e-03
      vertex   5.216867e-02 1.959648e-02 8.500000e-03
      vertex   5.219172e-02 1.992990e-02 8.500000e-03
    endloop
  endfacet
  facet normal 0.000000e+00 0.000000e+00 -1.000000e+00
    outer loop
      vertex   5.268400e-02 1.982029e-02 8.500000e-03
      vertex   5.219172e-02 1.992990e-02 8.500000e-03
      vertex   5.271995e-02 2.003612e-02 8.500000e-03
    endloop
  endfacet
  facet normal -0.000000e+00 0.000000e+00 -1.000000e+00
    outer loop
      vertex   5.271995e-02 2.003612e-02 8.500000e-03
      vertex   5.219172e-02 1.992990e-02 8.500000e-03
      vertex   5.226044e-02 2.024515e-02 8.500000e-03
    endloop
  endfacet
  facet normal 0.000000e+00 0.000000e+00 -1.000000e+00
    outer loop
      vertex   5.271995e-02 2.003612e-02 8.500000e-03
      vertex   5.226044e-02 2.024515e-02 8.500000e-03
      vertex   5.232563e-02 2.039052e-02 8.500000e-03
    endloop
  endfacet
  facet normal 0.000000e+00 0.000000e+00 -1.000000e+00
    outer loop
      vertex   5.271995e-02 2.003612e-02 8.500000e-03
      vertex   5.232563e-02 2.039052e-02 8.500000e-03
      vertex   5.280225e-02 2.023738e-02 8.500000e-03
    endloop
  endfacet
  facet normal 0.000000e+00 0.000000e+00 -1.000000e+00
    outer loop
      vertex   5.280225e-02 2.023738e-02 8.500000e-03
      vertex   5.232563e-02 2.039052e-02 8.500000e-03
      vertex   5.241113e-02 2.052780e-02 8.500000e-03
    endloop
  endfacet
  facet normal 0.000000e+00 0.000000e+00 -1.000000e+00
    outer loop
      vertex   5.280225e-02 2.023738e-02 8.500000e-03
      vertex   5.241113e-02 2.052780e-02 8.500000e-03
      vertex   5.291628e-02 2.042868e-02 8.500000e-03
    endloop
  endfacet
  facet normal 0.000000e+00 0.000000e+00 -1.000000e+00
    outer loop
      vertex   5.291628e-02 2.042868e-02 8.500000e-03
      vertex   5.241113e-02 2.052780e-02 8.500000e-03
      vertex   5.261615e-02 2.078884e-02 8.500000e-03
    endloop
  endfacet
  facet normal 0.000000e+00 0.000000e+00 -1.000000e+00
    outer loop
      vertex   5.291628e-02 2.042868e-02 8.500000e-03
      vertex   5.261615e-02 2.078884e-02 8.500000e-03
      vertex   5.282308e-02 2.092768e-02 8.500000e-03
    endloop
  endfacet
  facet normal 0.000000e+00 0.000000e+00 -1.000000e+00
    outer loop
      vertex   5.291628e-02 2.042868e-02 8.500000e-03
      vertex   5.282308e-02 2.092768e-02 8.500000e-03
      vertex   5.304767e-02 2.054502e-02 8.500000e-03
    endloop
  endfacet
  facet normal 0.000000e+00 0.000000e+00 -1.000000e+00
    outer loop
      vertex   5.304767e-02 2.054502e-02 8.500000e-03
      vertex   5.282308e-02 2.092768e-02 8.500000e-03
      vertex   5.304161e-02 2.103413e-02 8.500000e-03
    endloop
  endfacet
  facet normal 0.000000e+00 0.000000e+00 -1.000000e+00
    outer loop
      vertex   5.304767e-02 2.054502e-02 8.500000e-03
      vertex   5.304161e-02 2.103413e-02 8.500000e-03
      vertex   5.319075e-02 2.063547e-02 8.500000e-03
    endloop
  endfacet
  facet normal 0.000000e+00 0.000000e+00 -1.000000e+00
    outer loop
      vertex   5.319075e-02 2.063547e-02 8.500000e-03
      vertex   5.304161e-02 2.103413e-02 8.500000e-03
      vertex   5.327901e-02 2.108792e-02 8.500000e-03
    endloop
  endfacet
  facet normal 0.000000e+00 0.000000e+00 -1.000000e+00
    outer loop
      vertex   5.319075e-02 2.063547e-02 8.500000e-03
      vertex   5.327901e-02 2.108792e-02 8.500000e-03
      vertex   5.335328e-02 2.068279e-02 8.500000e-03
    endloop
  endfacet
  facet normal 0.000000e+00 0.000000e+00 -1.000000e+00
    outer loop
      vertex   5.335328e-02 2.068279e-02 8.500000e-03
      vertex   5.327901e-02 2.108792e-02 8.500000e-03
      vertex   5.352747e-02 2.111080e-02 8.500000e-03
    endloop
  endfacet
endsolid
