solid ASCII
  facet normal 1.000000e+00 0.000000e+00 0.000000e+00
    outer loop
      vertex   3.265162e-02 1.966469e-02 1.700000e-02
      vertex   3.265162e-02 1.814764e-02 1.700000e-02
      vertex   3.265162e-02 1.966469e-02 8.500000e-03
    endloop
  endfacet
  facet normal 1.000000e+00 0.000000e+00 0.000000e+00
    outer loop
      vertex   3.265162e-02 1.966469e-02 8.500000e-03
      vertex   3.265162e-02 1.814764e-02 1.700000e-02
      vertex   3.265162e-02 1.814764e-02 8.500000e-03
    endloop
  endfacet
  facet normal 9.696396e-01 -2.445385e-01 0.000000e+00
    outer loop
      vertex   3.273347e-02 2.023768e-02 8.500000e-03
      vertex   3.273347e-02 2.023768e-02 1.700000e-02
      vertex   3.269790e-02 2.009663e-02 1.275000e-02
    endloop
  endfacet
  facet normal 9.696396e-01 -2.445385e-01 0.000000e+00
    outer loop
      vertex   3.269790e-02 2.009663e-02 1.275000e-02
      vertex   3.273347e-02 2.023768e-02 1.700000e-02
      vertex   3.269790e-02 2.009663e-02 1.700000e-02
    endloop
  endfacet
  facet normal 9.822962e-01 -1.873342e-01 0.000000e+00
    outer loop
      vertex   3.269790e-02 2.009663e-02 1.275000e-02
      vertex   3.269790e-02 2.009663e-02 1.700000e-02
      vertex   3.267077e-02 1.995435e-02 1.700000e-02
    endloop
  endfacet
  facet normal 9.822962e-01 -1.873342e-01 -1.531871e-16
    outer loop
      vertex   3.269790e-02 2.009663e-02 1.275000e-02
      vertex   3.267077e-02 1.995435e-02 1.700000e-02
      vertex   3.267077e-02 1.995435e-02 1.275000e-02
    endloop
  endfacet
  facet normal 9.956274e-01 -9.341325e-02 -7.625701e-17
    outer loop
      vertex   3.267077e-02 1.995435e-02 1.275000e-02
      vertex   3.267077e-02 1.995435e-02 1.700000e-02
      vertex   3.265723e-02 1.981010e-02 1.700000e-02
    endloop
  endfacet
  facet normal 9.956274e-01 -9.341325e-02 1.625420e-15
    outer loop
      vertex   3.267077e-02 1.995435e-02 1.275000e-02
      vertex   3.265723e-02 1.981010e-02 1.700000e-02
      vertex   3.265723e-02 1.981010e-02 1.275000e-02
    endloop
  endfacet
  facet normal 9.992551e-01 -3.859125e-02 1.631465e-15
    outer loop
      vertex   3.265723e-02 1.981010e-02 1.275000e-02
      vertex   3.265723e-02 1.981010e-02 1.700000e-02
      vertex   3.265162e-02 1.966469e-02 1.700000e-02
    endloop
  endfacet
  facet normal 9.992551e-01 -3.859125e-02 0.000000e+00
    outer loop
      vertex   3.265723e-02 1.981010e-02 1.275000e-02
      vertex   3.265162e-02 1.966469e-02 1.700000e-02
      vertex   3.265162e-02 1.966469e-02 8.500000e-03
    endloop
  endfacet
  facet normal 9.992551e-01 -3.859125e-02 -1.631472e-15
    outer loop
      vertex   3.265162e-02 1.966469e-02 8.500000e-03
      vertex   3.265723e-02 1.981010e-02 8.500000e-03
      vertex   3.265723e-02 1.981010e-02 1.275000e-02
    endloop
  endfacet
  facet normal 9.956274e-01 -9.341325e-02 -1.625542e-15
    outer loop
      vertex   3.265723e-02 1.981010e-02 1.275000e-02
      vertex   3.265723e-02 1.981010e-02 8.500000e-03
      vertex   3.267077e-02 1.995435e-02 8.500000e-03
    endloop
  endfacet
  facet normal 9.956274e-01 -9.341325e-02 7.656939e-17
    outer loop
      vertex   3.265723e-02 1.981010e-02 1.275000e-02
      vertex   3.267077e-02 1.995435e-02 8.500000e-03
      vertex   3.267077e-02 1.995435e-02 1.275000e-02
    endloop
  endfacet
  facet normal 9.822962e-01 -1.873342e-01 1.529285e-16
    outer loop
      vertex   3.267077e-02 1.995435e-02 1.275000e-02
      vertex   3.267077e-02 1.995435e-02 8.500000e-03
      vertex   3.269790e-02 2.009663e-02 8.500000e-03
    endloop
  endfacet
  facet normal 9.822962e-01 -1.873342e-01 0.000000e+00
    outer loop
      vertex   3.267077e-02 1.995435e-02 1.275000e-02
      vertex   3.269790e-02 2.009663e-02 8.500000e-03
      vertex   3.269790e-02 2.009663e-02 1.275000e-02
    endloop
  endfacet
  facet normal 9.696396e-01 -2.445385e-01 0.000000e+00
    outer loop
      vertex   3.269790e-02 2.009663e-02 1.275000e-02
      vertex   3.269790e-02 2.009663e-02 8.500000e-03
      vertex   3.273347e-02 2.023768e-02 8.500000e-03
    endloop
  endfacet
  facet normal 6.864365e-01 -7.271897e-01 1.054195e-15
    outer loop
      vertex   3.285584e-02 2.044938e-02 1.700000e-02
      vertex   3.285584e-02 2.044938e-02 1.487500e-02
      vertex   3.291628e-02 2.050644e-02 1.700000e-02
    endloop
  endfacet
  facet normal 6.864365e-01 -7.271897e-01 0.000000e+00
    outer loop
      vertex   3.291628e-02 2.050644e-02 1.700000e-02
      vertex   3.285584e-02 2.044938e-02 1.487500e-02
      vertex   3.285584e-02 2.044938e-02 1.275000e-02
    endloop
  endfacet
  facet normal 6.864365e-01 -7.271897e-01 0.000000e+00
    outer loop
      vertex   3.291628e-02 2.050644e-02 1.700000e-02
      vertex   3.285584e-02 2.044938e-02 1.275000e-02
      vertex   3.291628e-02 2.050644e-02 8.500000e-03
    endloop
  endfacet
  facet normal 6.864365e-01 -7.271897e-01 0.000000e+00
    outer loop
      vertex   3.291628e-02 2.050644e-02 8.500000e-03
      vertex   3.285584e-02 2.044938e-02 1.275000e-02
      vertex   3.285584e-02 2.044938e-02 1.062500e-02
    endloop
  endfacet
  facet normal 6.864365e-01 -7.271897e-01 -1.053708e-15
    outer loop
      vertex   3.291628e-02 2.050644e-02 8.500000e-03
      vertex   3.285584e-02 2.044938e-02 1.062500e-02
      vertex   3.285584e-02 2.044938e-02 8.500000e-03
    endloop
  endfacet
  facet normal 7.684895e-01 -6.398625e-01 -1.464705e-15
    outer loop
      vertex   3.285584e-02 2.044938e-02 8.500000e-03
      vertex   3.285584e-02 2.044938e-02 1.062500e-02
      vertex   3.280362e-02 2.038667e-02 1.062500e-02
    endloop
  endfacet
  facet normal 7.684895e-01 -6.398625e-01 -2.509066e-15
    outer loop
      vertex   3.285584e-02 2.044938e-02 8.500000e-03
      vertex   3.280362e-02 2.038667e-02 1.062500e-02
      vertex   3.280362e-02 2.038667e-02 8.500000e-03
    endloop
  endfacet
  facet normal 8.791316e-01 -4.765791e-01 -2.870683e-15
    outer loop
      vertex   3.280362e-02 2.038667e-02 8.500000e-03
      vertex   3.280362e-02 2.038667e-02 1.062500e-02
      vertex   3.276468e-02 2.031483e-02 1.062500e-02
    endloop
  endfacet
  facet normal 8.791316e-01 -4.765791e-01 -7.788767e-16
    outer loop
      vertex   3.280362e-02 2.038667e-02 8.500000e-03
      vertex   3.276468e-02 2.031483e-02 1.062500e-02
      vertex   3.276468e-02 2.031483e-02 8.500000e-03
    endloop
  endfacet
  facet normal 9.270351e-01 -3.749745e-01 -6.122138e-16
    outer loop
      vertex   3.276468e-02 2.031483e-02 8.500000e-03
      vertex   3.276468e-02 2.031483e-02 1.062500e-02
      vertex   3.273347e-02 2.023768e-02 8.500000e-03
    endloop
  endfacet
  facet normal 9.270351e-01 -3.749745e-01 0.000000e+00
    outer loop
      vertex   3.273347e-02 2.023768e-02 8.500000e-03
      vertex   3.276468e-02 2.031483e-02 1.062500e-02
      vertex   3.276468e-02 2.031483e-02 1.275000e-02
    endloop
  endfacet
  facet normal 9.270351e-01 -3.749745e-01 0.000000e+00
    outer loop
      vertex   3.273347e-02 2.023768e-02 8.500000e-03
      vertex   3.276468e-02 2.031483e-02 1.275000e-02
      vertex   3.273347e-02 2.023768e-02 1.700000e-02
    endloop
  endfacet
  facet normal 9.270351e-01 -3.749745e-01 0.000000e+00
    outer loop
      vertex   3.273347e-02 2.023768e-02 1.700000e-02
      vertex   3.276468e-02 2.031483e-02 1.275000e-02
      vertex   3.276468e-02 2.031483e-02 1.487500e-02
    endloop
  endfacet
  facet normal 9.270351e-01 -3.749745e-01 6.127079e-16
    outer loop
      vertex   3.273347e-02 2.023768e-02 1.700000e-02
      vertex   3.276468e-02 2.031483e-02 1.487500e-02
      vertex   3.276468e-02 2.031483e-02 1.700000e-02
    endloop
  endfacet
  facet normal 8.791316e-01 -4.765791e-01 7.781017e-16
    outer loop
      vertex   3.276468e-02 2.031483e-02 1.700000e-02
      vertex   3.276468e-02 2.031483e-02 1.487500e-02
      vertex   3.280362e-02 2.038667e-02 1.487500e-02
    endloop
  endfacet
  facet normal 8.791316e-01 -4.765791e-01 2.870172e-15
    outer loop
      vertex   3.276468e-02 2.031483e-02 1.700000e-02
      vertex   3.280362e-02 2.038667e-02 1.487500e-02
      vertex   3.280362e-02 2.038667e-02 1.700000e-02
    endloop
  endfacet
  facet normal 7.684895e-01 -6.398625e-01 2.509396e-15
    outer loop
      vertex   3.280362e-02 2.038667e-02 1.700000e-02
      vertex   3.280362e-02 2.038667e-02 1.487500e-02
      vertex   3.285584e-02 2.044938e-02 1.487500e-02
    endloop
  endfacet
  facet normal 7.684895e-01 -6.398625e-01 1.464417e-15
    outer loop
      vertex   3.280362e-02 2.038667e-02 1.700000e-02
      vertex   3.285584e-02 2.044938e-02 1.487500e-02
      vertex   3.285584e-02 2.044938e-02 1.700000e-02
    endloop
  endfacet
  facet normal 7.684895e-01 -6.398625e-01 0.000000e+00
    outer loop
      vertex   3.285584e-02 2.044938e-02 1.275000e-02
      vertex   3.285584e-02 2.044938e-02 1.487500e-02
      vertex   3.280362e-02 2.038667e-02 1.487500e-02
    endloop
  endfacet
  facet normal 8.791316e-01 -4.765791e-01 0.000000e+00
    outer loop
      vertex   3.280362e-02 2.038667e-02 1.487500e-02
      vertex   3.276468e-02 2.031483e-02 1.487500e-02
      vertex   3.280362e-02 2.038667e-02 1.275000e-02
    endloop
  endfacet
  facet normal 8.791316e-01 -4.765791e-01 0.000000e+00
    outer loop
      vertex   3.280362e-02 2.038667e-02 1.275000e-02
      vertex   3.276468e-02 2.031483e-02 1.487500e-02
      vertex   3.276468e-02 2.031483e-02 1.275000e-02
    endloop
  endfacet
  facet normal 8.791316e-01 -4.765791e-01 0.000000e+00
    outer loop
      vertex   3.280362e-02 2.038667e-02 1.275000e-02
      vertex   3.276468e-02 2.031483e-02 1.275000e-02
      vertex   3.280362e-02 2.038667e-02 1.062500e-02
    endloop
  endfacet
  facet normal 8.791316e-01 -4.765791e-01 0.000000e+00
    outer loop
      vertex   3.280362e-02 2.038667e-02 1.062500e-02
      vertex   3.276468e-02 2.031483e-02 1.275000e-02
      vertex   3.276468e-02 2.031483e-02 1.062500e-02
    endloop
  endfacet
  facet normal 7.684895e-01 -6.398625e-01 0.000000e+00
    outer loop
      vertex   3.280362e-02 2.038667e-02 1.275000e-02
      vertex   3.280362e-02 2.038667e-02 1.062500e-02
      vertex   3.285584e-02 2.044938e-02 1.062500e-02
    endloop
  endfacet
  facet normal 7.684895e-01 -6.398625e-01 0.000000e+00
    outer loop
      vertex   3.285584e-02 2.044938e-02 1.062500e-02
      vertex   3.285584e-02 2.044938e-02 1.275000e-02
      vertex   3.280362e-02 2.038667e-02 1.275000e-02
    endloop
  endfacet
  facet normal 7.684895e-01 -6.398625e-01 0.000000e+00
    outer loop
      vertex   3.280362e-02 2.038667e-02 1.275000e-02
      vertex   3.285584e-02 2.044938e-02 1.275000e-02
      vertex   3.280362e-02 2.038667e-02 1.487500e-02
    endloop
  endfacet
  facet normal 9.653449e-02 -9.953296e-01 4.875167e-15
    outer loop
      vertex   3.312762e-02 2.059575e-02 1.700000e-02
      vertex   3.312762e-02 2.059575e-02 1.487500e-02
      vertex   3.320550e-02 2.060330e-02 1.700000e-02
    endloop
  endfacet
  facet normal 9.653449e-02 -9.953296e-01 0.000000e+00
    outer loop
      vertex   3.320550e-02 2.060330e-02 1.700000e-02
      vertex   3.312762e-02 2.059575e-02 1.487500e-02
      vertex   3.312762e-02 2.059575e-02 1.275000e-02
    endloop
  endfacet
  facet normal 9.653449e-02 -9.953296e-01 0.000000e+00
    outer loop
      vertex   3.320550e-02 2.060330e-02 1.700000e-02
      vertex   3.312762e-02 2.059575e-02 1.275000e-02
      vertex   3.320550e-02 2.060330e-02 8.500000e-03
    endloop
  endfacet
  facet normal 9.653449e-02 -9.953296e-01 0.000000e+00
    outer loop
      vertex   3.320550e-02 2.060330e-02 8.500000e-03
      vertex   3.312762e-02 2.059575e-02 1.275000e-02
      vertex   3.312762e-02 2.059575e-02 1.062500e-02
    endloop
  endfacet
  facet normal 9.653449e-02 -9.953296e-01 -4.875568e-15
    outer loop
      vertex   3.320550e-02 2.060330e-02 8.500000e-03
      vertex   3.312762e-02 2.059575e-02 1.062500e-02
      vertex   3.312762e-02 2.059575e-02 8.500000e-03
    endloop
  endfacet
  facet normal 2.170200e-01 -9.761672e-01 -4.781308e-15
    outer loop
      vertex   3.312762e-02 2.059575e-02 8.500000e-03
      vertex   3.312762e-02 2.059575e-02 1.062500e-02
      vertex   3.305277e-02 2.057911e-02 1.062500e-02
    endloop
  endfacet
  facet normal 2.170200e-01 -9.761672e-01 -2.478869e-15
    outer loop
      vertex   3.312762e-02 2.059575e-02 8.500000e-03
      vertex   3.305277e-02 2.057911e-02 1.062500e-02
      vertex   3.305277e-02 2.057911e-02 8.500000e-03
    endloop
  endfacet
  facet normal 4.146096e-01 -9.099994e-01 -1.617627e-15
    outer loop
      vertex   3.305277e-02 2.057911e-02 8.500000e-03
      vertex   3.305277e-02 2.057911e-02 1.062500e-02
      vertex   3.298301e-02 2.054732e-02 1.062500e-02
    endloop
  endfacet
  facet normal 4.146096e-01 -9.099994e-01 1.485069e-15
    outer loop
      vertex   3.305277e-02 2.057911e-02 8.500000e-03
      vertex   3.298301e-02 2.054732e-02 1.062500e-02
      vertex   3.298301e-02 2.054732e-02 8.500000e-03
    endloop
  endfacet
  facet normal 5.224372e-01 -8.526778e-01 1.392151e-15
    outer loop
      vertex   3.298301e-02 2.054732e-02 8.500000e-03
      vertex   3.298301e-02 2.054732e-02 1.062500e-02
      vertex   3.291628e-02 2.050644e-02 8.500000e-03
    endloop
  endfacet
  facet normal 5.224372e-01 -8.526778e-01 0.000000e+00
    outer loop
      vertex   3.291628e-02 2.050644e-02 8.500000e-03
      vertex   3.298301e-02 2.054732e-02 1.062500e-02
      vertex   3.298301e-02 2.054732e-02 1.275000e-02
    endloop
  endfacet
  facet normal 5.224372e-01 -8.526778e-01 0.000000e+00
    outer loop
      vertex   3.291628e-02 2.050644e-02 8.500000e-03
      vertex   3.298301e-02 2.054732e-02 1.275000e-02
      vertex   3.291628e-02 2.050644e-02 1.700000e-02
    endloop
  endfacet
  facet normal 5.224372e-01 -8.526778e-01 0.000000e+00
    outer loop
      vertex   3.291628e-02 2.050644e-02 1.700000e-02
      vertex   3.298301e-02 2.054732e-02 1.275000e-02
      vertex   3.298301e-02 2.054732e-02 1.487500e-02
    endloop
  endfacet
  facet normal 5.224372e-01 -8.526778e-01 -1.392871e-15
    outer loop
      vertex   3.291628e-02 2.050644e-02 1.700000e-02
      vertex   3.298301e-02 2.054732e-02 1.487500e-02
      vertex   3.298301e-02 2.054732e-02 1.700000e-02
    endloop
  endfacet
  facet normal 4.146096e-01 -9.099994e-01 -1.485739e-15
    outer loop
      vertex   3.298301e-02 2.054732e-02 1.700000e-02
      vertex   3.298301e-02 2.054732e-02 1.487500e-02
      vertex   3.305277e-02 2.057911e-02 1.487500e-02
    endloop
  endfacet
  facet normal 4.146096e-01 -9.099994e-01 1.617075e-15
    outer loop
      vertex   3.298301e-02 2.054732e-02 1.700000e-02
      vertex   3.305277e-02 2.057911e-02 1.487500e-02
      vertex   3.305277e-02 2.057911e-02 1.700000e-02
    endloop
  endfacet
  facet normal 2.170200e-01 -9.761672e-01 2.478890e-15
    outer loop
      vertex   3.305277e-02 2.057911e-02 1.700000e-02
      vertex   3.305277e-02 2.057911e-02 1.487500e-02
      vertex   3.312762e-02 2.059575e-02 1.487500e-02
    endloop
  endfacet
  facet normal 2.170200e-01 -9.761672e-01 4.781311e-15
    outer loop
      vertex   3.305277e-02 2.057911e-02 1.700000e-02
      vertex   3.312762e-02 2.059575e-02 1.487500e-02
      vertex   3.312762e-02 2.059575e-02 1.700000e-02
    endloop
  endfacet
  facet normal 2.170200e-01 -9.761672e-01 0.000000e+00
    outer loop
      vertex   3.312762e-02 2.059575e-02 1.275000e-02
      vertex   3.312762e-02 2.059575e-02 1.487500e-02
      vertex   3.305277e-02 2.057911e-02 1.487500e-02
    endloop
  endfacet
  facet normal 4.146096e-01 -9.099994e-01 0.000000e+00
    outer loop
      vertex   3.305277e-02 2.057911e-02 1.487500e-02
      vertex   3.298301e-02 2.054732e-02 1.487500e-02
      vertex   3.305277e-02 2.057911e-02 1.275000e-02
    endloop
  endfacet
  facet normal 4.146096e-01 -9.099994e-01 0.000000e+00
    outer loop
      vertex   3.305277e-02 2.057911e-02 1.275000e-02
      vertex   3.298301e-02 2.054732e-02 1.487500e-02
      vertex   3.298301e-02 2.054732e-02 1.275000e-02
    endloop
  endfacet
  facet normal 4.146096e-01 -9.099994e-01 0.000000e+00
    outer loop
      vertex   3.305277e-02 2.057911e-02 1.275000e-02
      vertex   3.298301e-02 2.054732e-02 1.275000e-02
      vertex   3.305277e-02 2.057911e-02 1.062500e-02
    endloop
  endfacet
  facet normal 4.146096e-01 -9.099994e-01 0.000000e+00
    outer loop
      vertex   3.305277e-02 2.057911e-02 1.062500e-02
      vertex   3.298301e-02 2.054732e-02 1.275000e-02
      vertex   3.298301e-02 2.054732e-02 1.062500e-02
    endloop
  endfacet
  facet normal 2.170200e-01 -9.761672e-01 0.000000e+00
    outer loop
      vertex   3.305277e-02 2.057911e-02 1.275000e-02
      vertex   3.305277e-02 2.057911e-02 1.062500e-02
      vertex   3.312762e-02 2.059575e-02 1.062500e-02
    endloop
  endfacet
  facet normal 2.170200e-01 -9.761672e-01 0.000000e+00
    outer loop
      vertex   3.312762e-02 2.059575e-02 1.062500e-02
      vertex   3.312762e-02 2.059575e-02 1.275000e-02
      vertex   3.305277e-02 2.057911e-02 1.275000e-02
    endloop
  endfacet
  facet normal 2.170200e-01 -9.761672e-01 0.000000e+00
    outer loop
      vertex   3.305277e-02 2.057911e-02 1.275000e-02
      vertex   3.312762e-02 2.059575e-02 1.275000e-02
      vertex   3.305277e-02 2.057911e-02 1.487500e-02
    endloop
  endfacet
  facet normal -4.529800e-01 -8.915207e-01 1.091677e-15
    outer loop
      vertex   3.348046e-02 2.054018e-02 1.700000e-02
      vertex   3.348046e-02 2.054018e-02 1.416667e-02
      vertex   3.356567e-02 2.049689e-02 1.700000e-02
    endloop
  endfacet
  facet normal -4.529800e-01 -8.915207e-01 0.000000e+00
    outer loop
      vertex   3.356567e-02 2.049689e-02 1.700000e-02
      vertex   3.348046e-02 2.054018e-02 1.416667e-02
      vertex   3.348046e-02 2.054018e-02 1.133333e-02
    endloop
  endfacet
  facet normal -4.529800e-01 -8.915207e-01 -0.000000e+00
    outer loop
      vertex   3.356567e-02 2.049689e-02 1.700000e-02
      vertex   3.348046e-02 2.054018e-02 1.133333e-02
      vertex   3.356567e-02 2.049689e-02 8.500000e-03
    endloop
  endfacet
  facet normal -4.529800e-01 -8.915207e-01 -1.092034e-15
    outer loop
      vertex   3.356567e-02 2.049689e-02 8.500000e-03
      vertex   3.348046e-02 2.054018e-02 1.133333e-02
      vertex   3.348046e-02 2.054018e-02 8.500000e-03
    endloop
  endfacet
  facet normal -3.652543e-01 -9.309078e-01 -1.139907e-15
    outer loop
      vertex   3.348046e-02 2.054018e-02 8.500000e-03
      vertex   3.348046e-02 2.054018e-02 1.133333e-02
      vertex   3.339269e-02 2.057462e-02 1.133333e-02
    endloop
  endfacet
  facet normal -3.652543e-01 -9.309078e-01 -1.139472e-15
    outer loop
      vertex   3.348046e-02 2.054018e-02 8.500000e-03
      vertex   3.339269e-02 2.057462e-02 1.133333e-02
      vertex   3.339269e-02 2.057462e-02 8.500000e-03
    endloop
  endfacet
  facet normal -2.031474e-01 -9.791482e-01 -1.198977e-15
    outer loop
      vertex   3.339269e-02 2.057462e-02 8.500000e-03
      vertex   3.339269e-02 2.057462e-02 1.133333e-02
      vertex   3.330048e-02 2.059375e-02 1.133333e-02
    endloop
  endfacet
  facet normal -2.031474e-01 -9.791482e-01 1.696607e-15
    outer loop
      vertex   3.339269e-02 2.057462e-02 8.500000e-03
      vertex   3.330048e-02 2.059375e-02 1.133333e-02
      vertex   3.330048e-02 2.059375e-02 8.500000e-03
    endloop
  endfacet
  facet normal -1.000430e-01 -9.949831e-01 1.463375e-15
    outer loop
      vertex   3.330048e-02 2.059375e-02 8.500000e-03
      vertex   3.330048e-02 2.059375e-02 1.133333e-02
      vertex   3.320550e-02 2.060330e-02 8.500000e-03
    endloop
  endfacet
  facet normal -1.000430e-01 -9.949831e-01 0.000000e+00
    outer loop
      vertex   3.320550e-02 2.060330e-02 8.500000e-03
      vertex   3.330048e-02 2.059375e-02 1.133333e-02
      vertex   3.330048e-02 2.059375e-02 1.416667e-02
    endloop
  endfacet
  facet normal -1.000430e-01 -9.949831e-01 0.000000e+00
    outer loop
      vertex   3.320550e-02 2.060330e-02 8.500000e-03
      vertex   3.330048e-02 2.059375e-02 1.416667e-02
      vertex   3.320550e-02 2.060330e-02 1.700000e-02
    endloop
  endfacet
  facet normal -1.000430e-01 -9.949831e-01 -1.463418e-15
    outer loop
      vertex   3.320550e-02 2.060330e-02 1.700000e-02
      vertex   3.330048e-02 2.059375e-02 1.416667e-02
      vertex   3.330048e-02 2.059375e-02 1.700000e-02
    endloop
  endfacet
  facet normal -2.031474e-01 -9.791482e-01 -1.696490e-15
    outer loop
      vertex   3.330048e-02 2.059375e-02 1.700000e-02
      vertex   3.330048e-02 2.059375e-02 1.416667e-02
      vertex   3.339269e-02 2.057462e-02 1.416667e-02
    endloop
  endfacet
  facet normal -2.031474e-01 -9.791482e-01 1.199018e-15
    outer loop
      vertex   3.330048e-02 2.059375e-02 1.700000e-02
      vertex   3.339269e-02 2.057462e-02 1.416667e-02
      vertex   3.339269e-02 2.057462e-02 1.700000e-02
    endloop
  endfacet
  facet normal -3.652543e-01 -9.309078e-01 1.139907e-15
    outer loop
      vertex   3.339269e-02 2.057462e-02 1.700000e-02
      vertex   3.339269e-02 2.057462e-02 1.416667e-02
      vertex   3.348046e-02 2.054018e-02 1.416667e-02
    endloop
  endfacet
  facet normal -3.652543e-01 -9.309078e-01 1.141020e-15
    outer loop
      vertex   3.339269e-02 2.057462e-02 1.700000e-02
      vertex   3.348046e-02 2.054018e-02 1.416667e-02
      vertex   3.348046e-02 2.054018e-02 1.700000e-02
    endloop
  endfacet
  facet normal -3.652543e-01 -9.309078e-01 0.000000e+00
    outer loop
      vertex   3.348046e-02 2.054018e-02 1.133333e-02
      vertex   3.348046e-02 2.054018e-02 1.416667e-02
      vertex   3.339269e-02 2.057462e-02 1.416667e-02
    endloop
  endfacet
  facet normal -2.031474e-01 -9.791482e-01 0.000000e+00
    outer loop
      vertex   3.330048e-02 2.059375e-02 1.133333e-02
      vertex   3.339269e-02 2.057462e-02 1.133333e-02
      vertex   3.330048e-02 2.059375e-02 1.416667e-02
    endloop
  endfacet
  facet normal -2.031474e-01 -9.791482e-01 0.000000e+00
    outer loop
      vertex   3.330048e-02 2.059375e-02 1.416667e-02
      vertex   3.339269e-02 2.057462e-02 1.133333e-02
      vertex   3.339269e-02 2.057462e-02 1.416667e-02
    endloop
  endfacet
  facet normal -3.652543e-01 -9.309078e-01 0.000000e+00
    outer loop
      vertex   3.339269e-02 2.057462e-02 1.133333e-02
      vertex   3.348046e-02 2.054018e-02 1.133333e-02
      vertex   3.339269e-02 2.057462e-02 1.416667e-02
    endloop
  endfacet
  facet normal 9.374777e-01 -3.480452e-01 0.000000e+00
    outer loop
      vertex   3.373484e-02 2.095255e-02 1.700000e-02
      vertex   3.356567e-02 2.049689e-02 1.700000e-02
      vertex   3.373484e-02 2.095255e-02 8.500000e-03
    endloop
  endfacet
  facet normal 9.374777e-01 -3.480452e-01 0.000000e+00
    outer loop
      vertex   3.373484e-02 2.095255e-02 8.500000e-03
      vertex   3.356567e-02 2.049689e-02 1.700000e-02
      vertex   3.356567e-02 2.049689e-02 8.500000e-03
    endloop
  endfacet
  facet normal 1.095579e-01 9.939804e-01 -0.000000e+00
    outer loop
      vertex   3.323006e-02 2.111080e-02 8.500000e-03
      vertex   3.323006e-02 2.111080e-02 1.700000e-02
      vertex   3.336384e-02 2.109606e-02 1.275000e-02
    endloop
  endfacet
  facet normal 1.095579e-01 9.939804e-01 -8.114264e-16
    outer loop
      vertex   3.336384e-02 2.109606e-02 1.275000e-02
      vertex   3.323006e-02 2.111080e-02 1.700000e-02
      vertex   3.336384e-02 2.109606e-02 1.700000e-02
    endloop
  endfacet
  facet normal 2.172268e-01 9.761212e-01 -7.968472e-16
    outer loop
      vertex   3.336384e-02 2.109606e-02 1.275000e-02
      vertex   3.336384e-02 2.109606e-02 1.700000e-02
      vertex   3.349332e-02 2.106724e-02 1.700000e-02
    endloop
  endfacet
  facet normal 2.172268e-01 9.761212e-01 3.550848e-16
    outer loop
      vertex   3.336384e-02 2.109606e-02 1.275000e-02
      vertex   3.349332e-02 2.106724e-02 1.700000e-02
      vertex   3.349332e-02 2.106724e-02 1.275000e-02
    endloop
  endfacet
  facet normal 3.837804e-01 9.234244e-01 6.265910e-16
    outer loop
      vertex   3.349332e-02 2.106724e-02 1.275000e-02
      vertex   3.349332e-02 2.106724e-02 1.700000e-02
      vertex   3.361602e-02 2.101625e-02 1.700000e-02
    endloop
  endfacet
  facet normal 3.837804e-01 9.234244e-01 0.000000e+00
    outer loop
      vertex   3.349332e-02 2.106724e-02 1.275000e-02
      vertex   3.361602e-02 2.101625e-02 1.700000e-02
      vertex   3.361602e-02 2.101625e-02 1.275000e-02
    endloop
  endfacet
  facet normal 4.724968e-01 8.813324e-01 -0.000000e+00
    outer loop
      vertex   3.361602e-02 2.101625e-02 1.275000e-02
      vertex   3.361602e-02 2.101625e-02 1.700000e-02
      vertex   3.373484e-02 2.095255e-02 1.700000e-02
    endloop
  endfacet
  facet normal 4.724968e-01 8.813324e-01 0.000000e+00
    outer loop
      vertex   3.361602e-02 2.101625e-02 1.275000e-02
      vertex   3.373484e-02 2.095255e-02 1.700000e-02
      vertex   3.373484e-02 2.095255e-02 8.500000e-03
    endloop
  endfacet
  facet normal 4.724968e-01 8.813324e-01 0.000000e+00
    outer loop
      vertex   3.373484e-02 2.095255e-02 8.500000e-03
      vertex   3.361602e-02 2.101625e-02 8.500000e-03
      vertex   3.361602e-02 2.101625e-02 1.275000e-02
    endloop
  endfacet
  facet normal 3.837804e-01 9.234244e-01 0.000000e+00
    outer loop
      vertex   3.361602e-02 2.101625e-02 1.275000e-02
      vertex   3.361602e-02 2.101625e-02 8.500000e-03
      vertex   3.349332e-02 2.106724e-02 8.500000e-03
    endloop
  endfacet
  facet normal 3.837804e-01 9.234244e-01 -6.269210e-16
    outer loop
      vertex   3.361602e-02 2.101625e-02 1.275000e-02
      vertex   3.349332e-02 2.106724e-02 8.500000e-03
      vertex   3.349332e-02 2.106724e-02 1.275000e-02
    endloop
  endfacet
  facet normal 2.172268e-01 9.761212e-01 -3.546620e-16
    outer loop
      vertex   3.349332e-02 2.106724e-02 1.275000e-02
      vertex   3.349332e-02 2.106724e-02 8.500000e-03
      vertex   3.336384e-02 2.109606e-02 8.500000e-03
    endloop
  endfacet
  facet normal 2.172268e-01 9.761212e-01 7.967400e-16
    outer loop
      vertex   3.349332e-02 2.106724e-02 1.275000e-02
      vertex   3.336384e-02 2.109606e-02 8.500000e-03
      vertex   3.336384e-02 2.109606e-02 1.275000e-02
    endloop
  endfacet
  facet normal 1.095579e-01 9.939804e-01 8.114264e-16
    outer loop
      vertex   3.336384e-02 2.109606e-02 1.275000e-02
      vertex   3.336384e-02 2.109606e-02 8.500000e-03
      vertex   3.323006e-02 2.111080e-02 8.500000e-03
    endloop
  endfacet
  facet normal -4.898371e-01 8.718140e-01 1.599495e-15
    outer loop
      vertex   3.298848e-02 2.105391e-02 1.700000e-02
      vertex   3.298848e-02 2.105391e-02 1.487500e-02
      vertex   3.291492e-02 2.101258e-02 1.700000e-02
    endloop
  endfacet
  facet normal -4.898371e-01 8.718140e-01 0.000000e+00
    outer loop
      vertex   3.291492e-02 2.101258e-02 1.700000e-02
      vertex   3.298848e-02 2.105391e-02 1.487500e-02
      vertex   3.298848e-02 2.105391e-02 1.275000e-02
    endloop
  endfacet
  facet normal -4.898371e-01 8.718140e-01 0.000000e+00
    outer loop
      vertex   3.291492e-02 2.101258e-02 1.700000e-02
      vertex   3.298848e-02 2.105391e-02 1.275000e-02
      vertex   3.291492e-02 2.101258e-02 8.500000e-03
    endloop
  endfacet
  facet normal -4.898371e-01 8.718140e-01 0.000000e+00
    outer loop
      vertex   3.291492e-02 2.101258e-02 8.500000e-03
      vertex   3.298848e-02 2.105391e-02 1.275000e-02
      vertex   3.298848e-02 2.105391e-02 1.062500e-02
    endloop
  endfacet
  facet normal -4.898371e-01 8.718140e-01 -1.600758e-15
    outer loop
      vertex   3.291492e-02 2.101258e-02 8.500000e-03
      vertex   3.298848e-02 2.105391e-02 1.062500e-02
      vertex   3.298848e-02 2.105391e-02 8.500000e-03
    endloop
  endfacet
  facet normal -3.883579e-01 9.215086e-01 -1.268129e-15
    outer loop
      vertex   3.298848e-02 2.105391e-02 8.500000e-03
      vertex   3.298848e-02 2.105391e-02 1.062500e-02
      vertex   3.306489e-02 2.108611e-02 1.062500e-02
    endloop
  endfacet
  facet normal -3.883579e-01 9.215086e-01 -1.504655e-15
    outer loop
      vertex   3.298848e-02 2.105391e-02 8.500000e-03
      vertex   3.306489e-02 2.108611e-02 1.062500e-02
      vertex   3.306489e-02 2.108611e-02 8.500000e-03
    endloop
  endfacet
  facet normal -2.043046e-01 9.789074e-01 -1.598243e-15
    outer loop
      vertex   3.306489e-02 2.108611e-02 8.500000e-03
      vertex   3.306489e-02 2.108611e-02 1.062500e-02
      vertex   3.314605e-02 2.110305e-02 1.062500e-02
    endloop
  endfacet
  facet normal -2.043046e-01 9.789074e-01 6.667249e-16
    outer loop
      vertex   3.306489e-02 2.108611e-02 8.500000e-03
      vertex   3.314605e-02 2.110305e-02 1.062500e-02
      vertex   3.314605e-02 2.110305e-02 8.500000e-03
    endloop
  endfacet
  facet normal -9.191183e-02 9.957671e-01 3.001254e-16
    outer loop
      vertex   3.314605e-02 2.110305e-02 8.500000e-03
      vertex   3.314605e-02 2.110305e-02 1.062500e-02
      vertex   3.323006e-02 2.111080e-02 8.500000e-03
    endloop
  endfacet
  facet normal -9.191183e-02 9.957671e-01 0.000000e+00
    outer loop
      vertex   3.323006e-02 2.111080e-02 8.500000e-03
      vertex   3.314605e-02 2.110305e-02 1.062500e-02
      vertex   3.314605e-02 2.110305e-02 1.275000e-02
    endloop
  endfacet
  facet normal -9.191183e-02 9.957671e-01 0.000000e+00
    outer loop
      vertex   3.323006e-02 2.111080e-02 8.500000e-03
      vertex   3.314605e-02 2.110305e-02 1.275000e-02
      vertex   3.323006e-02 2.111080e-02 1.700000e-02
    endloop
  endfacet
  facet normal -9.191183e-02 9.957671e-01 0.000000e+00
    outer loop
      vertex   3.323006e-02 2.111080e-02 1.700000e-02
      vertex   3.314605e-02 2.110305e-02 1.275000e-02
      vertex   3.314605e-02 2.110305e-02 1.487500e-02
    endloop
  endfacet
  facet normal -9.191183e-02 9.957671e-01 -2.998867e-16
    outer loop
      vertex   3.323006e-02 2.111080e-02 1.700000e-02
      vertex   3.314605e-02 2.110305e-02 1.487500e-02
      vertex   3.314605e-02 2.110305e-02 1.700000e-02
    endloop
  endfacet
  facet normal -2.043046e-01 9.789074e-01 -6.671283e-16
    outer loop
      vertex   3.314605e-02 2.110305e-02 1.700000e-02
      vertex   3.314605e-02 2.110305e-02 1.487500e-02
      vertex   3.306489e-02 2.108611e-02 1.487500e-02
    endloop
  endfacet
  facet normal -2.043046e-01 9.789074e-01 1.598731e-15
    outer loop
      vertex   3.314605e-02 2.110305e-02 1.700000e-02
      vertex   3.306489e-02 2.108611e-02 1.487500e-02
      vertex   3.306489e-02 2.108611e-02 1.700000e-02
    endloop
  endfacet
  facet normal -3.883579e-01 9.215086e-01 1.504530e-15
    outer loop
      vertex   3.306489e-02 2.108611e-02 1.700000e-02
      vertex   3.306489e-02 2.108611e-02 1.487500e-02
      vertex   3.298848e-02 2.105391e-02 1.487500e-02
    endloop
  endfacet
  facet normal -3.883579e-01 9.215086e-01 1.267572e-15
    outer loop
      vertex   3.306489e-02 2.108611e-02 1.700000e-02
      vertex   3.298848e-02 2.105391e-02 1.487500e-02
      vertex   3.298848e-02 2.105391e-02 1.700000e-02
    endloop
  endfacet
  facet normal -3.883579e-01 9.215086e-01 0.000000e+00
    outer loop
      vertex   3.298848e-02 2.105391e-02 1.275000e-02
      vertex   3.298848e-02 2.105391e-02 1.487500e-02
      vertex   3.306489e-02 2.108611e-02 1.487500e-02
    endloop
  endfacet
  facet normal -2.043046e-01 9.789074e-01 0.000000e+00
    outer loop
      vertex   3.306489e-02 2.108611e-02 1.487500e-02
      vertex   3.314605e-02 2.110305e-02 1.487500e-02
      vertex   3.306489e-02 2.108611e-02 1.275000e-02
    endloop
  endfacet
  facet normal -2.043046e-01 9.789074e-01 0.000000e+00
    outer loop
      vertex   3.306489e-02 2.108611e-02 1.275000e-02
      vertex   3.314605e-02 2.110305e-02 1.487500e-02
      vertex   3.314605e-02 2.110305e-02 1.275000e-02
    endloop
  endfacet
  facet normal -2.043046e-01 9.789074e-01 0.000000e+00
    outer loop
      vertex   3.306489e-02 2.108611e-02 1.275000e-02
      vertex   3.314605e-02 2.110305e-02 1.275000e-02
      vertex   3.306489e-02 2.108611e-02 1.062500e-02
    endloop
  endfacet
  facet normal -2.043046e-01 9.789074e-01 0.000000e+00
    outer loop
      vertex   3.306489e-02 2.108611e-02 1.062500e-02
      vertex   3.314605e-02 2.110305e-02 1.275000e-02
      vertex   3.314605e-02 2.110305e-02 1.062500e-02
    endloop
  endfacet
  facet normal -3.883579e-01 9.215086e-01 0.000000e+00
    outer loop
      vertex   3.306489e-02 2.108611e-02 1.275000e-02
      vertex   3.306489e-02 2.108611e-02 1.062500e-02
      vertex   3.298848e-02 2.105391e-02 1.062500e-02
    endloop
  endfacet
  facet normal -3.883579e-01 9.215086e-01 0.000000e+00
    outer loop
      vertex   3.298848e-02 2.105391e-02 1.062500e-02
      vertex   3.298848e-02 2.105391e-02 1.275000e-02
      vertex   3.306489e-02 2.108611e-02 1.275000e-02
    endloop
  endfacet
  facet normal -3.883579e-01 9.215086e-01 0.000000e+00
    outer loop
      vertex   3.306489e-02 2.108611e-02 1.275000e-02
      vertex   3.298848e-02 2.105391e-02 1.275000e-02
      vertex   3.306489e-02 2.108611e-02 1.487500e-02
    endloop
  endfacet
  facet normal -8.701430e-01 4.927993e-01 0.000000e+00
    outer loop
      vertex   3.260250e-02 2.060603e-02 8.500000e-03
      vertex   3.260250e-02 2.060603e-02 1.700000e-02
      vertex   3.266647e-02 2.071897e-02 1.275000e-02
    endloop
  endfacet
  facet normal -8.701430e-01 4.927993e-01 -1.420666e-15
    outer loop
      vertex   3.266647e-02 2.071897e-02 1.275000e-02
      vertex   3.260250e-02 2.060603e-02 1.700000e-02
      vertex   3.266647e-02 2.071897e-02 1.700000e-02
    endloop
  endfacet
  facet normal -8.347027e-01 5.507008e-01 -1.362803e-15
    outer loop
      vertex   3.266647e-02 2.071897e-02 1.275000e-02
      vertex   3.266647e-02 2.071897e-02 1.700000e-02
      vertex   3.273734e-02 2.082639e-02 1.700000e-02
    endloop
  endfacet
  facet normal -8.347027e-01 5.507008e-01 0.000000e+00
    outer loop
      vertex   3.266647e-02 2.071897e-02 1.275000e-02
      vertex   3.273734e-02 2.082639e-02 1.700000e-02
      vertex   3.273734e-02 2.082639e-02 1.275000e-02
    endloop
  endfacet
  facet normal -7.561893e-01 6.543529e-01 0.000000e+00
    outer loop
      vertex   3.273734e-02 2.082639e-02 1.275000e-02
      vertex   3.273734e-02 2.082639e-02 1.700000e-02
      vertex   3.282126e-02 2.092337e-02 1.700000e-02
    endloop
  endfacet
  facet normal -7.561893e-01 6.543529e-01 0.000000e+00
    outer loop
      vertex   3.273734e-02 2.082639e-02 1.275000e-02
      vertex   3.282126e-02 2.092337e-02 1.700000e-02
      vertex   3.282126e-02 2.092337e-02 1.275000e-02
    endloop
  endfacet
  facet normal -6.896841e-01 7.241103e-01 0.000000e+00
    outer loop
      vertex   3.282126e-02 2.092337e-02 1.275000e-02
      vertex   3.282126e-02 2.092337e-02 1.700000e-02
      vertex   3.291492e-02 2.101258e-02 1.700000e-02
    endloop
  endfacet
  facet normal -6.896841e-01 7.241103e-01 0.000000e+00
    outer loop
      vertex   3.282126e-02 2.092337e-02 1.275000e-02
      vertex   3.291492e-02 2.101258e-02 1.700000e-02
      vertex   3.291492e-02 2.101258e-02 8.500000e-03
    endloop
  endfacet
  facet normal -6.896841e-01 7.241103e-01 0.000000e+00
    outer loop
      vertex   3.291492e-02 2.101258e-02 8.500000e-03
      vertex   3.282126e-02 2.092337e-02 8.500000e-03
      vertex   3.282126e-02 2.092337e-02 1.275000e-02
    endloop
  endfacet
  facet normal -7.561893e-01 6.543529e-01 0.000000e+00
    outer loop
      vertex   3.282126e-02 2.092337e-02 1.275000e-02
      vertex   3.282126e-02 2.092337e-02 8.500000e-03
      vertex   3.273734e-02 2.082639e-02 8.500000e-03
    endloop
  endfacet
  facet normal -7.561893e-01 6.543529e-01 0.000000e+00
    outer loop
      vertex   3.282126e-02 2.092337e-02 1.275000e-02
      vertex   3.273734e-02 2.082639e-02 8.500000e-03
      vertex   3.273734e-02 2.082639e-02 1.275000e-02
    endloop
  endfacet
  facet normal -8.347027e-01 5.507008e-01 0.000000e+00
    outer loop
      vertex   3.273734e-02 2.082639e-02 1.275000e-02
      vertex   3.273734e-02 2.082639e-02 8.500000e-03
      vertex   3.266647e-02 2.071897e-02 8.500000e-03
    endloop
  endfacet
  facet normal -8.347027e-01 5.507008e-01 1.361155e-15
    outer loop
      vertex   3.273734e-02 2.082639e-02 1.275000e-02
      vertex   3.266647e-02 2.071897e-02 8.500000e-03
      vertex   3.266647e-02 2.071897e-02 1.275000e-02
    endloop
  endfacet
  facet normal -8.701430e-01 4.927993e-01 1.420666e-15
    outer loop
      vertex   3.266647e-02 2.071897e-02 1.275000e-02
      vertex   3.266647e-02 2.071897e-02 8.500000e-03
      vertex   3.260250e-02 2.060603e-02 8.500000e-03
    endloop
  endfacet
  facet normal 1.000000e+00 0.000000e+00 0.000000e+00
    outer loop
      vertex   3.260250e-02 2.104532e-02 1.700000e-02
      vertex   3.260250e-02 2.060603e-02 1.700000e-02
      vertex   3.260250e-02 2.104532e-02 8.500000e-03
    endloop
  endfacet
  facet normal 1.000000e+00 0.000000e+00 0.000000e+00
    outer loop
      vertex   3.260250e-02 2.104532e-02 8.500000e-03
      vertex   3.260250e-02 2.060603e-02 1.700000e-02
      vertex   3.260250e-02 2.060603e-02 8.500000e-03
    endloop
  endfacet
  facet normal -0.000000e+00 1.000000e+00 0.000000e+00
    outer loop
      vertex   3.216048e-02 2.104532e-02 1.700000e-02
      vertex   3.260250e-02 2.104532e-02 1.700000e-02
      vertex   3.216048e-02 2.104532e-02 8.500000e-03
    endloop
  endfacet
  facet normal 0.000000e+00 1.000000e+00 0.000000e+00
    outer loop
      vertex   3.216048e-02 2.104532e-02 8.500000e-03
      vertex   3.260250e-02 2.104532e-02 1.700000e-02
      vertex   3.260250e-02 2.104532e-02 8.500000e-03
    endloop
  endfacet
  facet normal -1.000000e+00 0.000000e+00 0.000000e+00
    outer loop
      vertex   3.216048e-02 1.814764e-02 1.700000e-02
      vertex   3.216048e-02 2.104532e-02 1.700000e-02
      vertex   3.216048e-02 1.814764e-02 8.500000e-03
    endloop
  endfacet
  facet normal -1.000000e+00 0.000000e+00 0.000000e+00
    outer loop
      vertex   3.216048e-02 1.814764e-02 8.500000e-03
      vertex   3.216048e-02 2.104532e-02 1.700000e-02
      vertex   3.216048e-02 2.104532e-02 8.500000e-03
    endloop
  endfacet
  facet normal -0.000000e+00 -1.000000e+00 -0.000000e+00
    outer loop
      vertex   3.265162e-02 1.814764e-02 1.700000e-02
      vertex   3.216048e-02 1.814764e-02 1.700000e-02
      vertex   3.265162e-02 1.814764e-02 8.500000e-03
    endloop
  endfacet
  facet normal 0.000000e+00 -1.000000e+00 0.000000e+00
    outer loop
      vertex   3.265162e-02 1.814764e-02 8.500000e-03
      vertex   3.216048e-02 1.814764e-02 1.700000e-02
      vertex   3.216048e-02 1.814764e-02 8.500000e-03
    endloop
  endfacet
  facet normal 0.000000e+00 -0.000000e+00 1.000000e+00
    outer loop
      vertex   3.265162e-02 1.814764e-02 1.700000e-02
      vertex   3.265162e-02 1.966469e-02 1.700000e-02
      vertex   3.216048e-02 1.814764e-02 1.700000e-02
    endloop
  endfacet
  facet normal 0.000000e+00 0.000000e+00 1.000000e+00
    outer loop
      vertex   3.216048e-02 1.814764e-02 1.700000e-02
      vertex   3.265162e-02 1.966469e-02 1.700000e-02
      vertex   3.216048e-02 2.104532e-02 1.700000e-02
    endloop
  endfacet
  facet normal 0.000000e+00 0.000000e+00 1.000000e+00
    outer loop
      vertex   3.216048e-02 2.104532e-02 1.700000e-02
      vertex   3.265162e-02 1.966469e-02 1.700000e-02
      vertex   3.265723e-02 1.981010e-02 1.700000e-02
    endloop
  endfacet
  facet normal 0.000000e+00 0.000000e+00 1.000000e+00
    outer loop
      vertex   3.216048e-02 2.104532e-02 1.700000e-02
      vertex   3.265723e-02 1.981010e-02 1.700000e-02
      vertex   3.267077e-02 1.995435e-02 1.700000e-02
    endloop
  endfacet
  facet normal 0.000000e+00 0.000000e+00 1.000000e+00
    outer loop
      vertex   3.216048e-02 2.104532e-02 1.700000e-02
      vertex   3.267077e-02 1.995435e-02 1.700000e-02
      vertex   3.260250e-02 2.060603e-02 1.700000e-02
    endloop
  endfacet
  facet normal 0.000000e+00 0.000000e+00 1.000000e+00
    outer loop
      vertex   3.260250e-02 2.060603e-02 1.700000e-02
      vertex   3.267077e-02 1.995435e-02 1.700000e-02
      vertex   3.269790e-02 2.009663e-02 1.700000e-02
    endloop
  endfacet
  facet normal 0.000000e+00 0.000000e+00 1.000000e+00
    outer loop
      vertex   3.260250e-02 2.060603e-02 1.700000e-02
      vertex   3.269790e-02 2.009663e-02 1.700000e-02
      vertex   3.273347e-02 2.023768e-02 1.700000e-02
    endloop
  endfacet
  facet normal 0.000000e+00 -0.000000e+00 1.000000e+00
    outer loop
      vertex   3.273347e-02 2.023768e-02 1.700000e-02
      vertex   3.276468e-02 2.031483e-02 1.700000e-02
      vertex   3.260250e-02 2.060603e-02 1.700000e-02
    endloop
  endfacet
  facet normal 0.000000e+00 0.000000e+00 1.000000e+00
    outer loop
      vertex   3.260250e-02 2.060603e-02 1.700000e-02
      vertex   3.276468e-02 2.031483e-02 1.700000e-02
      vertex   3.280362e-02 2.038667e-02 1.700000e-02
    endloop
  endfacet
  facet normal -0.000000e+00 0.000000e+00 1.000000e+00
    outer loop
      vertex   3.260250e-02 2.060603e-02 1.700000e-02
      vertex   3.280362e-02 2.038667e-02 1.700000e-02
      vertex   3.266647e-02 2.071897e-02 1.700000e-02
    endloop
  endfacet
  facet normal 0.000000e+00 0.000000e+00 1.000000e+00
    outer loop
      vertex   3.266647e-02 2.071897e-02 1.700000e-02
      vertex   3.280362e-02 2.038667e-02 1.700000e-02
      vertex   3.285584e-02 2.044938e-02 1.700000e-02
    endloop
  endfacet
  facet normal -2.371022e-14 -1.665550e-14 1.000000e+00
    outer loop
      vertex   3.266647e-02 2.071897e-02 1.700000e-02
      vertex   3.285584e-02 2.044938e-02 1.700000e-02
      vertex   3.273734e-02 2.082639e-02 1.700000e-02
    endloop
  endfacet
  facet normal 6.699202e-15 -7.096928e-15 1.000000e+00
    outer loop
      vertex   3.273734e-02 2.082639e-02 1.700000e-02
      vertex   3.285584e-02 2.044938e-02 1.700000e-02
      vertex   3.291628e-02 2.050644e-02 1.700000e-02
    endloop
  endfacet
  facet normal 3.272190e-14 7.457605e-15 1.000000e+00
    outer loop
      vertex   3.273734e-02 2.082639e-02 1.700000e-02
      vertex   3.291628e-02 2.050644e-02 1.700000e-02
      vertex   3.282126e-02 2.092337e-02 1.700000e-02
    endloop
  endfacet
  facet normal 0.000000e+00 0.000000e+00 1.000000e+00
    outer loop
      vertex   3.282126e-02 2.092337e-02 1.700000e-02
      vertex   3.291628e-02 2.050644e-02 1.700000e-02
      vertex   3.298301e-02 2.054732e-02 1.700000e-02
    endloop
  endfacet
  facet normal -0.000000e+00 0.000000e+00 1.000000e+00
    outer loop
      vertex   3.282126e-02 2.092337e-02 1.700000e-02
      vertex   3.298301e-02 2.054732e-02 1.700000e-02
      vertex   3.291492e-02 2.101258e-02 1.700000e-02
    endloop
  endfacet
  facet normal 0.000000e+00 0.000000e+00 1.000000e+00
    outer loop
      vertex   3.291492e-02 2.101258e-02 1.700000e-02
      vertex   3.298301e-02 2.054732e-02 1.700000e-02
      vertex   3.305277e-02 2.057911e-02 1.700000e-02
    endloop
  endfacet
  facet normal -0.000000e+00 0.000000e+00 1.000000e+00
    outer loop
      vertex   3.291492e-02 2.101258e-02 1.700000e-02
      vertex   3.305277e-02 2.057911e-02 1.700000e-02
      vertex   3.298848e-02 2.105391e-02 1.700000e-02
    endloop
  endfacet
  facet normal -0.000000e+00 0.000000e+00 1.000000e+00
    outer loop
      vertex   3.298848e-02 2.105391e-02 1.700000e-02
      vertex   3.305277e-02 2.057911e-02 1.700000e-02
      vertex   3.306489e-02 2.108611e-02 1.700000e-02
    endloop
  endfacet
  facet normal 0.000000e+00 0.000000e+00 1.000000e+00
    outer loop
      vertex   3.306489e-02 2.108611e-02 1.700000e-02
      vertex   3.305277e-02 2.057911e-02 1.700000e-02
      vertex   3.312762e-02 2.059575e-02 1.700000e-02
    endloop
  endfacet
  facet normal -0.000000e+00 0.000000e+00 1.000000e+00
    outer loop
      vertex   3.306489e-02 2.108611e-02 1.700000e-02
      vertex   3.312762e-02 2.059575e-02 1.700000e-02
      vertex   3.314605e-02 2.110305e-02 1.700000e-02
    endloop
  endfacet
  facet normal 0.000000e+00 0.000000e+00 1.000000e+00
    outer loop
      vertex   3.314605e-02 2.110305e-02 1.700000e-02
      vertex   3.312762e-02 2.059575e-02 1.700000e-02
      vertex   3.320550e-02 2.060330e-02 1.700000e-02
    endloop
  endfacet
  facet normal -0.000000e+00 0.000000e+00 1.000000e+00
    outer loop
      vertex   3.314605e-02 2.110305e-02 1.700000e-02
      vertex   3.320550e-02 2.060330e-02 1.700000e-02
      vertex   3.323006e-02 2.111080e-02 1.700000e-02
    endloop
  endfacet
  facet normal 0.000000e+00 0.000000e+00 1.000000e+00
    outer loop
      vertex   3.323006e-02 2.111080e-02 1.700000e-02
      vertex   3.320550e-02 2.060330e-02 1.700000e-02
      vertex   3.330048e-02 2.059375e-02 1.700000e-02
    endloop
  endfacet
  facet normal 0.000000e+00 0.000000e+00 1.000000e+00
    outer loop
      vertex   3.323006e-02 2.111080e-02 1.700000e-02
      vertex   3.330048e-02 2.059375e-02 1.700000e-02
      vertex   3.336384e-02 2.109606e-02 1.700000e-02
    endloop
  endfacet
  facet normal 0.000000e+00 0.000000e+00 1.000000e+00
    outer loop
      vertex   3.336384e-02 2.109606e-02 1.700000e-02
      vertex   3.330048e-02 2.059375e-02 1.700000e-02
      vertex   3.339269e-02 2.057462e-02 1.700000e-02
    endloop
  endfacet
  facet normal 0.000000e+00 0.000000e+00 1.000000e+00
    outer loop
      vertex   3.336384e-02 2.109606e-02 1.700000e-02
      vertex   3.339269e-02 2.057462e-02 1.700000e-02
      vertex   3.349332e-02 2.106724e-02 1.700000e-02
    endloop
  endfacet
  facet normal 0.000000e+00 0.000000e+00 1.000000e+00
    outer loop
      vertex   3.349332e-02 2.106724e-02 1.700000e-02
      vertex   3.339269e-02 2.057462e-02 1.700000e-02
      vertex   3.348046e-02 2.054018e-02 1.700000e-02
    endloop
  endfacet
  facet normal 0.000000e+00 0.000000e+00 1.000000e+00
    outer loop
      vertex   3.349332e-02 2.106724e-02 1.700000e-02
      vertex   3.348046e-02 2.054018e-02 1.700000e-02
      vertex   3.361602e-02 2.101625e-02 1.700000e-02
    endloop
  endfacet
  facet normal 0.000000e+00 0.000000e+00 1.000000e+00
    outer loop
      vertex   3.361602e-02 2.101625e-02 1.700000e-02
      vertex   3.348046e-02 2.054018e-02 1.700000e-02
      vertex   3.356567e-02 2.049689e-02 1.700000e-02
    endloop
  endfacet
  facet normal 0.000000e+00 0.000000e+00 1.000000e+00
    outer loop
      vertex   3.361602e-02 2.101625e-02 1.700000e-02
      vertex   3.356567e-02 2.049689e-02 1.700000e-02
      vertex   3.373484e-02 2.095255e-02 1.700000e-02
    endloop
  endfacet
  facet normal 0.000000e+00 -0.000000e+00 1.000000e+00
    outer loop
      vertex   3.260250e-02 2.060603e-02 1.700000e-02
      vertex   3.260250e-02 2.104532e-02 1.700000e-02
      vertex   3.216048e-02 2.104532e-02 1.700000e-02
    endloop
  endfacet
  facet normal 0.000000e+00 0.000000e+00 -1.000000e+00
    outer loop
      vertex   3.265162e-02 1.814764e-02 8.500000e-03
      vertex   3.216048e-02 1.814764e-02 8.500000e-03
      vertex   3.265162e-02 1.966469e-02 8.500000e-03
    endloop
  endfacet
  facet normal -0.000000e+00 0.000000e+00 -1.000000e+00
    outer loop
      vertex   3.265162e-02 1.966469e-02 8.500000e-03
      vertex   3.216048e-02 1.814764e-02 8.500000e-03
      vertex   3.216048e-02 2.104532e-02 8.500000e-03
    endloop
  endfacet
  facet normal 0.000000e+00 0.000000e+00 -1.000000e+00
    outer loop
      vertex   3.265162e-02 1.966469e-02 8.500000e-03
      vertex   3.216048e-02 2.104532e-02 8.500000e-03
      vertex   3.265723e-02 1.981010e-02 8.500000e-03
    endloop
  endfacet
  facet normal 0.000000e+00 0.000000e+00 -1.000000e+00
    outer loop
      vertex   3.265723e-02 1.981010e-02 8.500000e-03
      vertex   3.216048e-02 2.104532e-02 8.500000e-03
      vertex   3.267077e-02 1.995435e-02 8.500000e-03
    endloop
  endfacet
  facet normal 0.000000e+00 0.000000e+00 -1.000000e+00
    outer loop
      vertex   3.267077e-02 1.995435e-02 8.500000e-03
      vertex   3.216048e-02 2.104532e-02 8.500000e-03
      vertex   3.260250e-02 2.060603e-02 8.500000e-03
    endloop
  endfacet
  facet normal 0.000000e+00 0.000000e+00 -1.000000e+00
    outer loop
      vertex   3.267077e-02 1.995435e-02 8.500000e-03
      vertex   3.260250e-02 2.060603e-02 8.500000e-03
      vertex   3.269790e-02 2.009663e-02 8.500000e-03
    endloop
  endfacet
  facet normal 0.000000e+00 0.000000e+00 -1.000000e+00
    outer loop
      vertex   3.269790e-02 2.009663e-02 8.500000e-03
      vertex   3.260250e-02 2.060603e-02 8.500000e-03
      vertex   3.273347e-02 2.023768e-02 8.500000e-03
    endloop
  endfacet
  facet normal 0.000000e+00 0.000000e+00 -1.000000e+00
    outer loop
      vertex   3.273347e-02 2.023768e-02 8.500000e-03
      vertex   3.260250e-02 2.060603e-02 8.500000e-03
      vertex   3.276468e-02 2.031483e-02 8.500000e-03
    endloop
  endfacet
  facet normal 0.000000e+00 0.000000e+00 -1.000000e+00
    outer loop
      vertex   3.276468e-02 2.031483e-02 8.500000e-03
      vertex   3.260250e-02 2.060603e-02 8.500000e-03
      vertex   3.280362e-02 2.038667e-02 8.500000e-03
    endloop
  endfacet
  facet normal 0.000000e+00 0.000000e+00 -1.000000e+00
    outer loop
      vertex   3.280362e-02 2.038667e-02 8.500000e-03
      vertex   3.260250e-02 2.060603e-02 8.500000e-03
      vertex   3.266647e-02 2.071897e-02 8.500000e-03
    endloop
  endfacet
  facet normal 0.000000e+00 0.000000e+00 -1.000000e+00
    outer loop
      vertex   3.280362e-02 2.038667e-02 8.500000e-03
      vertex   3.266647e-02 2.071897e-02 8.500000e-03
      vertex   3.285584e-02 2.044938e-02 8.500000e-03
    endloop
  endfacet
  facet normal 1.185511e-14 8.327751e-15 -1.000000e+00
    outer loop
      vertex   3.285584e-02 2.044938e-02 8.500000e-03
      vertex   3.266647e-02 2.071897e-02 8.500000e-03
      vertex   3.273734e-02 2.082639e-02 8.500000e-03
    endloop
  endfacet
  facet normal -3.349601e-15 3.548464e-15 -1.000000e+00
    outer loop
      vertex   3.285584e-02 2.044938e-02 8.500000e-03
      vertex   3.273734e-02 2.082639e-02 8.500000e-03
      vertex   3.291628e-02 2.050644e-02 8.500000e-03
    endloop
  endfacet
  facet normal -1.636095e-14 -3.728802e-15 -1.000000e+00
    outer loop
      vertex   3.291628e-02 2.050644e-02 8.500000e-03
      vertex   3.273734e-02 2.082639e-02 8.500000e-03
      vertex   3.282126e-02 2.092337e-02 8.500000e-03
    endloop
  endfacet
  facet normal 0.000000e+00 0.000000e+00 -1.000000e+00
    outer loop
      vertex   3.291628e-02 2.050644e-02 8.500000e-03
      vertex   3.282126e-02 2.092337e-02 8.500000e-03
      vertex   3.298301e-02 2.054732e-02 8.500000e-03
    endloop
  endfacet
  facet normal 0.000000e+00 0.000000e+00 -1.000000e+00
    outer loop
      vertex   3.298301e-02 2.054732e-02 8.500000e-03
      vertex   3.282126e-02 2.092337e-02 8.500000e-03
      vertex   3.291492e-02 2.101258e-02 8.500000e-03
    endloop
  endfacet
  facet normal 0.000000e+00 0.000000e+00 -1.000000e+00
    outer loop
      vertex   3.298301e-02 2.054732e-02 8.500000e-03
      vertex   3.291492e-02 2.101258e-02 8.500000e-03
      vertex   3.305277e-02 2.057911e-02 8.500000e-03
    endloop
  endfacet
  facet normal 0.000000e+00 0.000000e+00 -1.000000e+00
    outer loop
      vertex   3.305277e-02 2.057911e-02 8.500000e-03
      vertex   3.291492e-02 2.101258e-02 8.500000e-03
      vertex   3.298848e-02 2.105391e-02 8.500000e-03
    endloop
  endfacet
  facet normal 0.000000e+00 0.000000e+00 -1.000000e+00
    outer loop
      vertex   3.305277e-02 2.057911e-02 8.500000e-03
      vertex   3.298848e-02 2.105391e-02 8.500000e-03
      vertex   3.306489e-02 2.108611e-02 8.500000e-03
    endloop
  endfacet
  facet normal 0.000000e+00 0.000000e+00 -1.000000e+00
    outer loop
      vertex   3.216048e-02 2.104532e-02 8.500000e-03
      vertex   3.260250e-02 2.104532e-02 8.500000e-03
      vertex   3.260250e-02 2.060603e-02 8.500000e-03
    endloop
  endfacet
  facet normal 0.000000e+00 0.000000e+00 -1.000000e+00
    outer loop
      vertex   3.305277e-02 2.057911e-02 8.500000e-03
      vertex   3.306489e-02 2.108611e-02 8.500000e-03
      vertex   3.312762e-02 2.059575e-02 8.500000e-03
    endloop
  endfacet
  facet normal 0.000000e+00 0.000000e+00 -1.000000e+00
    outer loop
      vertex   3.312762e-02 2.059575e-02 8.500000e-03
      vertex   3.306489e-02 2.108611e-02 8.500000e-03
      vertex   3.314605e-02 2.110305e-02 8.500000e-03
    endloop
  endfacet
  facet normal 0.000000e+00 0.000000e+00 -1.000000e+00
    outer loop
      vertex   3.312762e-02 2.059575e-02 8.500000e-03
      vertex   3.314605e-02 2.110305e-02 8.500000e-03
      vertex   3.320550e-02 2.060330e-02 8.500000e-03
    endloop
  endfacet
  facet normal 0.000000e+00 0.000000e+00 -1.000000e+00
    outer loop
      vertex   3.320550e-02 2.060330e-02 8.500000e-03
      vertex   3.314605e-02 2.110305e-02 8.500000e-03
      vertex   3.323006e-02 2.111080e-02 8.500000e-03
    endloop
  endfacet
  facet normal 0.000000e+00 0.000000e+00 -1.000000e+00
    outer loop
      vertex   3.320550e-02 2.060330e-02 8.500000e-03
      vertex   3.323006e-02 2.111080e-02 8.500000e-03
      vertex   3.330048e-02 2.059375e-02 8.500000e-03
    endloop
  endfacet
  facet normal 0.000000e+00 0.000000e+00 -1.000000e+00
    outer loop
      vertex   3.330048e-02 2.059375e-02 8.500000e-03
      vertex   3.323006e-02 2.111080e-02 8.500000e-03
      vertex   3.336384e-02 2.109606e-02 8.500000e-03
    endloop
  endfacet
  facet normal 0.000000e+00 0.000000e+00 -1.000000e+00
    outer loop
      vertex   3.330048e-02 2.059375e-02 8.500000e-03
      vertex   3.336384e-02 2.109606e-02 8.500000e-03
      vertex   3.339269e-02 2.057462e-02 8.500000e-03
    endloop
  endfacet
  facet normal 0.000000e+00 0.000000e+00 -1.000000e+00
    outer loop
      vertex   3.339269e-02 2.057462e-02 8.500000e-03
      vertex   3.336384e-02 2.109606e-02 8.500000e-03
      vertex   3.349332e-02 2.106724e-02 8.500000e-03
    endloop
  endfacet
  facet normal 0.000000e+00 0.000000e+00 -1.000000e+00
    outer loop
      vertex   3.339269e-02 2.057462e-02 8.500000e-03
      vertex   3.349332e-02 2.106724e-02 8.500000e-03
      vertex   3.348046e-02 2.054018e-02 8.500000e-03
    endloop
  endfacet
  facet normal 0.000000e+00 0.000000e+00 -1.000000e+00
    outer loop
      vertex   3.348046e-02 2.054018e-02 8.500000e-03
      vertex   3.349332e-02 2.106724e-02 8.500000e-03
      vertex   3.361602e-02 2.101625e-02 8.500000e-03
    endloop
  endfacet
  facet normal 0.000000e+00 0.000000e+00 -1.000000e+00
    outer loop
      vertex   3.348046e-02 2.054018e-02 8.500000e-03
      vertex   3.361602e-02 2.101625e-02 8.500000e-03
      vertex   3.356567e-02 2.049689e-02 8.500000e-03
    endloop
  endfacet
  facet normal 0.000000e+00 0.000000e+00 -1.000000e+00
    outer loop
      vertex   3.356567e-02 2.049689e-02 8.500000e-03
      vertex   3.361602e-02 2.101625e-02 8.500000e-03
      vertex   3.373484e-02 2.095255e-02 8.500000e-03
    endloop
  endfacet
endsolid
