solid ASCII
  facet normal 3.857644e-01 9.225973e-01 4.840443e-15
    outer loop
      vertex   4.376543e-02 1.858652e-02 1.700000e-02
      vertex   4.376543e-02 1.858652e-02 1.578571e-02
      vertex   4.372529e-02 1.860330e-02 1.700000e-02
    endloop
  endfacet
  facet normal 3.857644e-01 9.225973e-01 0.000000e+00
    outer loop
      vertex   4.372529e-02 1.860330e-02 1.700000e-02
      vertex   4.376543e-02 1.858652e-02 1.578571e-02
      vertex   4.376543e-02 1.858652e-02 1.457143e-02
    endloop
  endfacet
  facet normal 3.857644e-01 9.225973e-01 0.000000e+00
    outer loop
      vertex   4.372529e-02 1.860330e-02 1.700000e-02
      vertex   4.376543e-02 1.858652e-02 1.457143e-02
      vertex   4.376543e-02 1.858652e-02 1.335714e-02
    endloop
  endfacet
  facet normal 2.804271e-01 9.598753e-01 -0.000000e+00
    outer loop
      vertex   4.376543e-02 1.858652e-02 1.335714e-02
      vertex   4.376543e-02 1.858652e-02 1.457143e-02
      vertex   4.380666e-02 1.857447e-02 1.457143e-02
    endloop
  endfacet
  facet normal 2.804271e-01 9.598753e-01 0.000000e+00
    outer loop
      vertex   4.376543e-02 1.858652e-02 1.335714e-02
      vertex   4.380666e-02 1.857447e-02 1.457143e-02
      vertex   4.380666e-02 1.857447e-02 1.335714e-02
    endloop
  endfacet
  facet normal 1.203889e-01 9.927268e-01 -0.000000e+00
    outer loop
      vertex   4.380666e-02 1.857447e-02 1.335714e-02
      vertex   4.380666e-02 1.857447e-02 1.457143e-02
      vertex   4.384945e-02 1.856928e-02 1.457143e-02
    endloop
  endfacet
  facet normal 1.203889e-01 9.927268e-01 0.000000e+00
    outer loop
      vertex   4.380666e-02 1.857447e-02 1.335714e-02
      vertex   4.384945e-02 1.856928e-02 1.457143e-02
      vertex   4.384945e-02 1.856928e-02 1.335714e-02
    endloop
  endfacet
  facet normal 3.325318e-02 9.994470e-01 -0.000000e+00
    outer loop
      vertex   4.384945e-02 1.856928e-02 1.335714e-02
      vertex   4.384945e-02 1.856928e-02 1.457143e-02
      vertex   4.389309e-02 1.856783e-02 1.700000e-02
    endloop
  endfacet
  facet normal 3.325318e-02 9.994470e-01 0.000000e+00
    outer loop
      vertex   4.384945e-02 1.856928e-02 1.335714e-02
      vertex   4.389309e-02 1.856783e-02 1.700000e-02
      vertex   4.389309e-02 1.856783e-02 8.500000e-03
    endloop
  endfacet
  facet normal 2.804271e-01 9.598753e-01 4.345016e-15
    outer loop
      vertex   4.376543e-02 1.858652e-02 1.700000e-02
      vertex   4.380666e-02 1.857447e-02 1.700000e-02
      vertex   4.376543e-02 1.858652e-02 1.578571e-02
    endloop
  endfacet
  facet normal 2.804271e-01 9.598753e-01 0.000000e+00
    outer loop
      vertex   4.376543e-02 1.858652e-02 1.578571e-02
      vertex   4.380666e-02 1.857447e-02 1.700000e-02
      vertex   4.380666e-02 1.857447e-02 1.578571e-02
    endloop
  endfacet
  facet normal 2.804271e-01 9.598753e-01 0.000000e+00
    outer loop
      vertex   4.376543e-02 1.858652e-02 1.578571e-02
      vertex   4.380666e-02 1.857447e-02 1.578571e-02
      vertex   4.376543e-02 1.858652e-02 1.457143e-02
    endloop
  endfacet
  facet normal 2.804271e-01 9.598753e-01 0.000000e+00
    outer loop
      vertex   4.376543e-02 1.858652e-02 1.457143e-02
      vertex   4.380666e-02 1.857447e-02 1.578571e-02
      vertex   4.380666e-02 1.857447e-02 1.457143e-02
    endloop
  endfacet
  facet normal 1.203889e-01 9.927268e-01 0.000000e+00
    outer loop
      vertex   4.380666e-02 1.857447e-02 1.700000e-02
      vertex   4.384945e-02 1.856928e-02 1.700000e-02
      vertex   4.380666e-02 1.857447e-02 1.578571e-02
    endloop
  endfacet
  facet normal 1.203889e-01 9.927268e-01 0.000000e+00
    outer loop
      vertex   4.380666e-02 1.857447e-02 1.578571e-02
      vertex   4.384945e-02 1.856928e-02 1.700000e-02
      vertex   4.384945e-02 1.856928e-02 1.578571e-02
    endloop
  endfacet
  facet normal 1.203889e-01 9.927268e-01 0.000000e+00
    outer loop
      vertex   4.380666e-02 1.857447e-02 1.578571e-02
      vertex   4.384945e-02 1.856928e-02 1.578571e-02
      vertex   4.380666e-02 1.857447e-02 1.457143e-02
    endloop
  endfacet
  facet normal 1.203889e-01 9.927268e-01 0.000000e+00
    outer loop
      vertex   4.380666e-02 1.857447e-02 1.457143e-02
      vertex   4.384945e-02 1.856928e-02 1.578571e-02
      vertex   4.384945e-02 1.856928e-02 1.457143e-02
    endloop
  endfacet
  facet normal 3.325318e-02 9.994470e-01 0.000000e+00
    outer loop
      vertex   4.384945e-02 1.856928e-02 1.700000e-02
      vertex   4.389309e-02 1.856783e-02 1.700000e-02
      vertex   4.384945e-02 1.856928e-02 1.578571e-02
    endloop
  endfacet
  facet normal 3.325318e-02 9.994470e-01 0.000000e+00
    outer loop
      vertex   4.384945e-02 1.856928e-02 1.578571e-02
      vertex   4.389309e-02 1.856783e-02 1.700000e-02
      vertex   4.384945e-02 1.856928e-02 1.457143e-02
    endloop
  endfacet
  facet normal 3.325318e-02 9.994470e-01 -0.000000e+00
    outer loop
      vertex   4.384945e-02 1.856928e-02 8.500000e-03
      vertex   4.384945e-02 1.856928e-02 9.714286e-03
      vertex   4.389309e-02 1.856783e-02 8.500000e-03
    endloop
  endfacet
  facet normal 3.325318e-02 9.994470e-01 0.000000e+00
    outer loop
      vertex   4.389309e-02 1.856783e-02 8.500000e-03
      vertex   4.384945e-02 1.856928e-02 9.714286e-03
      vertex   4.384945e-02 1.856928e-02 1.092857e-02
    endloop
  endfacet
  facet normal 3.325318e-02 9.994470e-01 0.000000e+00
    outer loop
      vertex   4.389309e-02 1.856783e-02 8.500000e-03
      vertex   4.384945e-02 1.856928e-02 1.092857e-02
      vertex   4.384945e-02 1.856928e-02 1.214286e-02
    endloop
  endfacet
  facet normal 1.203889e-01 9.927268e-01 0.000000e+00
    outer loop
      vertex   4.384945e-02 1.856928e-02 1.214286e-02
      vertex   4.384945e-02 1.856928e-02 1.092857e-02
      vertex   4.380666e-02 1.857447e-02 1.092857e-02
    endloop
  endfacet
  facet normal 1.203889e-01 9.927268e-01 0.000000e+00
    outer loop
      vertex   4.384945e-02 1.856928e-02 1.214286e-02
      vertex   4.380666e-02 1.857447e-02 1.092857e-02
      vertex   4.380666e-02 1.857447e-02 1.214286e-02
    endloop
  endfacet
  facet normal 2.804271e-01 9.598753e-01 0.000000e+00
    outer loop
      vertex   4.380666e-02 1.857447e-02 1.214286e-02
      vertex   4.380666e-02 1.857447e-02 1.092857e-02
      vertex   4.376543e-02 1.858652e-02 1.092857e-02
    endloop
  endfacet
  facet normal 2.804271e-01 9.598753e-01 0.000000e+00
    outer loop
      vertex   4.380666e-02 1.857447e-02 1.214286e-02
      vertex   4.376543e-02 1.858652e-02 1.092857e-02
      vertex   4.376543e-02 1.858652e-02 1.214286e-02
    endloop
  endfacet
  facet normal 3.857644e-01 9.225973e-01 0.000000e+00
    outer loop
      vertex   4.376543e-02 1.858652e-02 1.214286e-02
      vertex   4.376543e-02 1.858652e-02 1.092857e-02
      vertex   4.372529e-02 1.860330e-02 8.500000e-03
    endloop
  endfacet
  facet normal 3.857644e-01 9.225973e-01 0.000000e+00
    outer loop
      vertex   4.376543e-02 1.858652e-02 1.214286e-02
      vertex   4.372529e-02 1.860330e-02 8.500000e-03
      vertex   4.372529e-02 1.860330e-02 1.700000e-02
    endloop
  endfacet
  facet normal 1.203889e-01 9.927268e-01 -0.000000e+00
    outer loop
      vertex   4.384945e-02 1.856928e-02 8.500000e-03
      vertex   4.380666e-02 1.857447e-02 8.500000e-03
      vertex   4.384945e-02 1.856928e-02 9.714286e-03
    endloop
  endfacet
  facet normal 1.203889e-01 9.927268e-01 0.000000e+00
    outer loop
      vertex   4.384945e-02 1.856928e-02 9.714286e-03
      vertex   4.380666e-02 1.857447e-02 8.500000e-03
      vertex   4.380666e-02 1.857447e-02 9.714286e-03
    endloop
  endfacet
  facet normal 1.203889e-01 9.927268e-01 -0.000000e+00
    outer loop
      vertex   4.384945e-02 1.856928e-02 9.714286e-03
      vertex   4.380666e-02 1.857447e-02 9.714286e-03
      vertex   4.384945e-02 1.856928e-02 1.092857e-02
    endloop
  endfacet
  facet normal 1.203889e-01 9.927268e-01 0.000000e+00
    outer loop
      vertex   4.384945e-02 1.856928e-02 1.092857e-02
      vertex   4.380666e-02 1.857447e-02 9.714286e-03
      vertex   4.380666e-02 1.857447e-02 1.092857e-02
    endloop
  endfacet
  facet normal 2.804271e-01 9.598753e-01 -0.000000e+00
    outer loop
      vertex   4.380666e-02 1.857447e-02 8.500000e-03
      vertex   4.376543e-02 1.858652e-02 8.500000e-03
      vertex   4.380666e-02 1.857447e-02 9.714286e-03
    endloop
  endfacet
  facet normal 2.804271e-01 9.598753e-01 -4.345848e-15
    outer loop
      vertex   4.380666e-02 1.857447e-02 9.714286e-03
      vertex   4.376543e-02 1.858652e-02 8.500000e-03
      vertex   4.376543e-02 1.858652e-02 9.714286e-03
    endloop
  endfacet
  facet normal 2.804271e-01 9.598753e-01 -0.000000e+00
    outer loop
      vertex   4.380666e-02 1.857447e-02 9.714286e-03
      vertex   4.376543e-02 1.858652e-02 9.714286e-03
      vertex   4.380666e-02 1.857447e-02 1.092857e-02
    endloop
  endfacet
  facet normal 2.804271e-01 9.598753e-01 0.000000e+00
    outer loop
      vertex   4.380666e-02 1.857447e-02 1.092857e-02
      vertex   4.376543e-02 1.858652e-02 9.714286e-03
      vertex   4.376543e-02 1.858652e-02 1.092857e-02
    endloop
  endfacet
  facet normal 3.857644e-01 9.225973e-01 -4.840443e-15
    outer loop
      vertex   4.376543e-02 1.858652e-02 8.500000e-03
      vertex   4.372529e-02 1.860330e-02 8.500000e-03
      vertex   4.376543e-02 1.858652e-02 9.714286e-03
    endloop
  endfacet
  facet normal 3.857644e-01 9.225973e-01 -0.000000e+00
    outer loop
      vertex   4.376543e-02 1.858652e-02 9.714286e-03
      vertex   4.372529e-02 1.860330e-02 8.500000e-03
      vertex   4.376543e-02 1.858652e-02 1.092857e-02
    endloop
  endfacet
  facet normal 3.857644e-01 9.225973e-01 -0.000000e+00
    outer loop
      vertex   4.376543e-02 1.858652e-02 1.214286e-02
      vertex   4.372529e-02 1.860330e-02 1.700000e-02
      vertex   4.376543e-02 1.858652e-02 1.335714e-02
    endloop
  endfacet
  facet normal 3.325318e-02 9.994470e-01 0.000000e+00
    outer loop
      vertex   4.384945e-02 1.856928e-02 1.335714e-02
      vertex   4.389309e-02 1.856783e-02 8.500000e-03
      vertex   4.384945e-02 1.856928e-02 1.214286e-02
    endloop
  endfacet
  facet normal 2.804271e-01 9.598753e-01 -0.000000e+00
    outer loop
      vertex   4.376543e-02 1.858652e-02 1.214286e-02
      vertex   4.376543e-02 1.858652e-02 1.335714e-02
      vertex   4.380666e-02 1.857447e-02 1.335714e-02
    endloop
  endfacet
  facet normal 1.203889e-01 9.927268e-01 -0.000000e+00
    outer loop
      vertex   4.384945e-02 1.856928e-02 1.214286e-02
      vertex   4.380666e-02 1.857447e-02 1.214286e-02
      vertex   4.384945e-02 1.856928e-02 1.335714e-02
    endloop
  endfacet
  facet normal 1.203889e-01 9.927268e-01 0.000000e+00
    outer loop
      vertex   4.384945e-02 1.856928e-02 1.335714e-02
      vertex   4.380666e-02 1.857447e-02 1.214286e-02
      vertex   4.380666e-02 1.857447e-02 1.335714e-02
    endloop
  endfacet
  facet normal 2.804271e-01 9.598753e-01 -0.000000e+00
    outer loop
      vertex   4.380666e-02 1.857447e-02 1.214286e-02
      vertex   4.376543e-02 1.858652e-02 1.214286e-02
      vertex   4.380666e-02 1.857447e-02 1.335714e-02
    endloop
  endfacet
  facet normal 8.738904e-01 4.861229e-01 -1.984209e-15
    outer loop
      vertex   4.365657e-02 1.867027e-02 1.700000e-02
      vertex   4.365657e-02 1.867027e-02 1.615000e-02
      vertex   4.364070e-02 1.869880e-02 1.700000e-02
    endloop
  endfacet
  facet normal 8.738904e-01 4.861229e-01 0.000000e+00
    outer loop
      vertex   4.364070e-02 1.869880e-02 1.700000e-02
      vertex   4.365657e-02 1.867027e-02 1.615000e-02
      vertex   4.365657e-02 1.867027e-02 1.530000e-02
    endloop
  endfacet
  facet normal 8.738904e-01 4.861229e-01 0.000000e+00
    outer loop
      vertex   4.364070e-02 1.869880e-02 1.700000e-02
      vertex   4.365657e-02 1.867027e-02 1.530000e-02
      vertex   4.365657e-02 1.867027e-02 1.445000e-02
    endloop
  endfacet
  facet normal 8.103589e-01 5.859339e-01 -0.000000e+00
    outer loop
      vertex   4.365657e-02 1.867027e-02 1.445000e-02
      vertex   4.365657e-02 1.867027e-02 1.530000e-02
      vertex   4.367535e-02 1.864430e-02 1.530000e-02
    endloop
  endfacet
  facet normal 8.103589e-01 5.859339e-01 0.000000e+00
    outer loop
      vertex   4.365657e-02 1.867027e-02 1.445000e-02
      vertex   4.367535e-02 1.864430e-02 1.530000e-02
      vertex   4.367535e-02 1.864430e-02 1.445000e-02
    endloop
  endfacet
  facet normal 6.784135e-01 7.346803e-01 -0.000000e+00
    outer loop
      vertex   4.367535e-02 1.864430e-02 1.445000e-02
      vertex   4.367535e-02 1.864430e-02 1.530000e-02
      vertex   4.369890e-02 1.862255e-02 1.530000e-02
    endloop
  endfacet
  facet normal 6.784135e-01 7.346803e-01 0.000000e+00
    outer loop
      vertex   4.367535e-02 1.864430e-02 1.445000e-02
      vertex   4.369890e-02 1.862255e-02 1.530000e-02
      vertex   4.369890e-02 1.862255e-02 1.445000e-02
    endloop
  endfacet
  facet normal 5.894088e-01 8.078349e-01 -0.000000e+00
    outer loop
      vertex   4.369890e-02 1.862255e-02 1.445000e-02
      vertex   4.369890e-02 1.862255e-02 1.530000e-02
      vertex   4.372529e-02 1.860330e-02 1.700000e-02
    endloop
  endfacet
  facet normal 5.894088e-01 8.078349e-01 0.000000e+00
    outer loop
      vertex   4.369890e-02 1.862255e-02 1.445000e-02
      vertex   4.372529e-02 1.860330e-02 1.700000e-02
      vertex   4.369890e-02 1.862255e-02 1.360000e-02
    endloop
  endfacet
  facet normal 5.894088e-01 8.078349e-01 0.000000e+00
    outer loop
      vertex   4.369890e-02 1.862255e-02 1.360000e-02
      vertex   4.372529e-02 1.860330e-02 1.700000e-02
      vertex   4.369890e-02 1.862255e-02 1.275000e-02
    endloop
  endfacet
  facet normal 6.784135e-01 7.346803e-01 0.000000e+00
    outer loop
      vertex   4.369890e-02 1.862255e-02 1.360000e-02
      vertex   4.369890e-02 1.862255e-02 1.275000e-02
      vertex   4.367535e-02 1.864430e-02 1.275000e-02
    endloop
  endfacet
  facet normal 6.784135e-01 7.346803e-01 0.000000e+00
    outer loop
      vertex   4.367535e-02 1.864430e-02 1.275000e-02
      vertex   4.369890e-02 1.862255e-02 1.275000e-02
      vertex   4.367535e-02 1.864430e-02 1.190000e-02
    endloop
  endfacet
  facet normal 8.103589e-01 5.859339e-01 0.000000e+00
    outer loop
      vertex   4.367535e-02 1.864430e-02 1.275000e-02
      vertex   4.367535e-02 1.864430e-02 1.190000e-02
      vertex   4.365657e-02 1.867027e-02 1.190000e-02
    endloop
  endfacet
  facet normal 8.103589e-01 5.859339e-01 0.000000e+00
    outer loop
      vertex   4.365657e-02 1.867027e-02 1.190000e-02
      vertex   4.367535e-02 1.864430e-02 1.190000e-02
      vertex   4.365657e-02 1.867027e-02 1.105000e-02
    endloop
  endfacet
  facet normal 8.738904e-01 4.861229e-01 0.000000e+00
    outer loop
      vertex   4.365657e-02 1.867027e-02 1.190000e-02
      vertex   4.365657e-02 1.867027e-02 1.105000e-02
      vertex   4.364070e-02 1.869880e-02 8.500000e-03
    endloop
  endfacet
  facet normal 8.738904e-01 4.861229e-01 0.000000e+00
    outer loop
      vertex   4.364070e-02 1.869880e-02 8.500000e-03
      vertex   4.365657e-02 1.867027e-02 1.105000e-02
      vertex   4.365657e-02 1.867027e-02 1.020000e-02
    endloop
  endfacet
  facet normal 8.738904e-01 4.861229e-01 0.000000e+00
    outer loop
      vertex   4.364070e-02 1.869880e-02 8.500000e-03
      vertex   4.365657e-02 1.867027e-02 1.020000e-02
      vertex   4.365657e-02 1.867027e-02 9.350000e-03
    endloop
  endfacet
  facet normal 8.103589e-01 5.859339e-01 -0.000000e+00
    outer loop
      vertex   4.365657e-02 1.867027e-02 9.350000e-03
      vertex   4.365657e-02 1.867027e-02 1.020000e-02
      vertex   4.367535e-02 1.864430e-02 1.020000e-02
    endloop
  endfacet
  facet normal 8.103589e-01 5.859339e-01 0.000000e+00
    outer loop
      vertex   4.365657e-02 1.867027e-02 9.350000e-03
      vertex   4.367535e-02 1.864430e-02 1.020000e-02
      vertex   4.367535e-02 1.864430e-02 9.350000e-03
    endloop
  endfacet
  facet normal 6.784135e-01 7.346803e-01 -0.000000e+00
    outer loop
      vertex   4.367535e-02 1.864430e-02 9.350000e-03
      vertex   4.367535e-02 1.864430e-02 1.020000e-02
      vertex   4.369890e-02 1.862255e-02 1.020000e-02
    endloop
  endfacet
  facet normal 6.784135e-01 7.346803e-01 0.000000e+00
    outer loop
      vertex   4.367535e-02 1.864430e-02 9.350000e-03
      vertex   4.369890e-02 1.862255e-02 1.020000e-02
      vertex   4.369890e-02 1.862255e-02 9.350000e-03
    endloop
  endfacet
  facet normal 5.894088e-01 8.078349e-01 -0.000000e+00
    outer loop
      vertex   4.369890e-02 1.862255e-02 9.350000e-03
      vertex   4.369890e-02 1.862255e-02 1.020000e-02
      vertex   4.372529e-02 1.860330e-02 8.500000e-03
    endloop
  endfacet
  facet normal 5.894088e-01 8.078349e-01 -8.108924e-15
    outer loop
      vertex   4.369890e-02 1.862255e-02 9.350000e-03
      vertex   4.372529e-02 1.860330e-02 8.500000e-03
      vertex   4.369890e-02 1.862255e-02 8.500000e-03
    endloop
  endfacet
  facet normal 8.103589e-01 5.859339e-01 -2.391608e-15
    outer loop
      vertex   4.365657e-02 1.867027e-02 1.700000e-02
      vertex   4.367535e-02 1.864430e-02 1.700000e-02
      vertex   4.365657e-02 1.867027e-02 1.615000e-02
    endloop
  endfacet
  facet normal 8.103589e-01 5.859339e-01 -2.391653e-15
    outer loop
      vertex   4.365657e-02 1.867027e-02 1.615000e-02
      vertex   4.367535e-02 1.864430e-02 1.700000e-02
      vertex   4.367535e-02 1.864430e-02 1.615000e-02
    endloop
  endfacet
  facet normal 8.103589e-01 5.859339e-01 0.000000e+00
    outer loop
      vertex   4.365657e-02 1.867027e-02 1.615000e-02
      vertex   4.367535e-02 1.864430e-02 1.615000e-02
      vertex   4.365657e-02 1.867027e-02 1.530000e-02
    endloop
  endfacet
  facet normal 8.103589e-01 5.859339e-01 0.000000e+00
    outer loop
      vertex   4.365657e-02 1.867027e-02 1.530000e-02
      vertex   4.367535e-02 1.864430e-02 1.615000e-02
      vertex   4.367535e-02 1.864430e-02 1.530000e-02
    endloop
  endfacet
  facet normal 6.784135e-01 7.346803e-01 -2.998746e-15
    outer loop
      vertex   4.367535e-02 1.864430e-02 1.700000e-02
      vertex   4.369890e-02 1.862255e-02 1.700000e-02
      vertex   4.367535e-02 1.864430e-02 1.615000e-02
    endloop
  endfacet
  facet normal 6.784135e-01 7.346803e-01 8.536896e-15
    outer loop
      vertex   4.367535e-02 1.864430e-02 1.615000e-02
      vertex   4.369890e-02 1.862255e-02 1.700000e-02
      vertex   4.369890e-02 1.862255e-02 1.615000e-02
    endloop
  endfacet
  facet normal 6.784135e-01 7.346803e-01 0.000000e+00
    outer loop
      vertex   4.367535e-02 1.864430e-02 1.615000e-02
      vertex   4.369890e-02 1.862255e-02 1.615000e-02
      vertex   4.367535e-02 1.864430e-02 1.530000e-02
    endloop
  endfacet
  facet normal 6.784135e-01 7.346803e-01 0.000000e+00
    outer loop
      vertex   4.367535e-02 1.864430e-02 1.530000e-02
      vertex   4.369890e-02 1.862255e-02 1.615000e-02
      vertex   4.369890e-02 1.862255e-02 1.530000e-02
    endloop
  endfacet
  facet normal 5.894088e-01 8.078349e-01 8.108924e-15
    outer loop
      vertex   4.369890e-02 1.862255e-02 1.700000e-02
      vertex   4.372529e-02 1.860330e-02 1.700000e-02
      vertex   4.369890e-02 1.862255e-02 1.615000e-02
    endloop
  endfacet
  facet normal 5.894088e-01 8.078349e-01 0.000000e+00
    outer loop
      vertex   4.369890e-02 1.862255e-02 1.615000e-02
      vertex   4.372529e-02 1.860330e-02 1.700000e-02
      vertex   4.369890e-02 1.862255e-02 1.530000e-02
    endloop
  endfacet
  facet normal 5.894088e-01 8.078349e-01 0.000000e+00
    outer loop
      vertex   4.372529e-02 1.860330e-02 1.700000e-02
      vertex   4.372529e-02 1.860330e-02 8.500000e-03
      vertex   4.369890e-02 1.862255e-02 1.275000e-02
    endloop
  endfacet
  facet normal 5.894088e-01 8.078349e-01 0.000000e+00
    outer loop
      vertex   4.369890e-02 1.862255e-02 1.275000e-02
      vertex   4.372529e-02 1.860330e-02 8.500000e-03
      vertex   4.369890e-02 1.862255e-02 1.190000e-02
    endloop
  endfacet
  facet normal 6.784135e-01 7.346803e-01 0.000000e+00
    outer loop
      vertex   4.369890e-02 1.862255e-02 1.275000e-02
      vertex   4.369890e-02 1.862255e-02 1.190000e-02
      vertex   4.367535e-02 1.864430e-02 1.190000e-02
    endloop
  endfacet
  facet normal 6.784135e-01 7.346803e-01 0.000000e+00
    outer loop
      vertex   4.367535e-02 1.864430e-02 1.190000e-02
      vertex   4.369890e-02 1.862255e-02 1.190000e-02
      vertex   4.367535e-02 1.864430e-02 1.105000e-02
    endloop
  endfacet
  facet normal 8.103589e-01 5.859339e-01 0.000000e+00
    outer loop
      vertex   4.367535e-02 1.864430e-02 1.190000e-02
      vertex   4.367535e-02 1.864430e-02 1.105000e-02
      vertex   4.365657e-02 1.867027e-02 1.105000e-02
    endloop
  endfacet
  facet normal 8.103589e-01 5.859339e-01 0.000000e+00
    outer loop
      vertex   4.365657e-02 1.867027e-02 1.105000e-02
      vertex   4.367535e-02 1.864430e-02 1.105000e-02
      vertex   4.365657e-02 1.867027e-02 1.020000e-02
    endloop
  endfacet
  facet normal 6.784135e-01 7.346803e-01 -8.536910e-15
    outer loop
      vertex   4.369890e-02 1.862255e-02 8.500000e-03
      vertex   4.367535e-02 1.864430e-02 8.500000e-03
      vertex   4.369890e-02 1.862255e-02 9.350000e-03
    endloop
  endfacet
  facet normal 6.784135e-01 7.346803e-01 2.997399e-15
    outer loop
      vertex   4.369890e-02 1.862255e-02 9.350000e-03
      vertex   4.367535e-02 1.864430e-02 8.500000e-03
      vertex   4.367535e-02 1.864430e-02 9.350000e-03
    endloop
  endfacet
  facet normal 8.103589e-01 5.859339e-01 2.391608e-15
    outer loop
      vertex   4.367535e-02 1.864430e-02 8.500000e-03
      vertex   4.365657e-02 1.867027e-02 8.500000e-03
      vertex   4.367535e-02 1.864430e-02 9.350000e-03
    endloop
  endfacet
  facet normal 8.103589e-01 5.859339e-01 2.391653e-15
    outer loop
      vertex   4.367535e-02 1.864430e-02 9.350000e-03
      vertex   4.365657e-02 1.867027e-02 8.500000e-03
      vertex   4.365657e-02 1.867027e-02 9.350000e-03
    endloop
  endfacet
  facet normal 8.738904e-01 4.861229e-01 1.984209e-15
    outer loop
      vertex   4.365657e-02 1.867027e-02 8.500000e-03
      vertex   4.364070e-02 1.869880e-02 8.500000e-03
      vertex   4.365657e-02 1.867027e-02 9.350000e-03
    endloop
  endfacet
  facet normal 8.738904e-01 4.861229e-01 -0.000000e+00
    outer loop
      vertex   4.365657e-02 1.867027e-02 1.190000e-02
      vertex   4.364070e-02 1.869880e-02 8.500000e-03
      vertex   4.365657e-02 1.867027e-02 1.275000e-02
    endloop
  endfacet
  facet normal 8.738904e-01 4.861229e-01 0.000000e+00
    outer loop
      vertex   4.365657e-02 1.867027e-02 1.275000e-02
      vertex   4.364070e-02 1.869880e-02 8.500000e-03
      vertex   4.364070e-02 1.869880e-02 1.700000e-02
    endloop
  endfacet
  facet normal 8.738904e-01 4.861229e-01 -0.000000e+00
    outer loop
      vertex   4.365657e-02 1.867027e-02 1.275000e-02
      vertex   4.364070e-02 1.869880e-02 1.700000e-02
      vertex   4.365657e-02 1.867027e-02 1.360000e-02
    endloop
  endfacet
  facet normal 8.738904e-01 4.861229e-01 -0.000000e+00
    outer loop
      vertex   4.365657e-02 1.867027e-02 1.360000e-02
      vertex   4.364070e-02 1.869880e-02 1.700000e-02
      vertex   4.365657e-02 1.867027e-02 1.445000e-02
    endloop
  endfacet
  facet normal 8.103589e-01 5.859339e-01 -0.000000e+00
    outer loop
      vertex   4.365657e-02 1.867027e-02 1.360000e-02
      vertex   4.365657e-02 1.867027e-02 1.445000e-02
      vertex   4.367535e-02 1.864430e-02 1.445000e-02
    endloop
  endfacet
  facet normal 5.894088e-01 8.078349e-01 0.000000e+00
    outer loop
      vertex   4.372529e-02 1.860330e-02 8.500000e-03
      vertex   4.369890e-02 1.862255e-02 1.020000e-02
      vertex   4.369890e-02 1.862255e-02 1.105000e-02
    endloop
  endfacet
  facet normal 6.784135e-01 7.346803e-01 0.000000e+00
    outer loop
      vertex   4.369890e-02 1.862255e-02 1.105000e-02
      vertex   4.369890e-02 1.862255e-02 1.020000e-02
      vertex   4.367535e-02 1.864430e-02 1.020000e-02
    endloop
  endfacet
  facet normal 6.784135e-01 7.346803e-01 0.000000e+00
    outer loop
      vertex   4.369890e-02 1.862255e-02 1.105000e-02
      vertex   4.367535e-02 1.864430e-02 1.020000e-02
      vertex   4.367535e-02 1.864430e-02 1.105000e-02
    endloop
  endfacet
  facet normal 8.103589e-01 5.859339e-01 0.000000e+00
    outer loop
      vertex   4.367535e-02 1.864430e-02 1.105000e-02
      vertex   4.367535e-02 1.864430e-02 1.020000e-02
      vertex   4.365657e-02 1.867027e-02 1.020000e-02
    endloop
  endfacet
  facet normal 6.784135e-01 7.346803e-01 0.000000e+00
    outer loop
      vertex   4.367535e-02 1.864430e-02 1.445000e-02
      vertex   4.369890e-02 1.862255e-02 1.445000e-02
      vertex   4.367535e-02 1.864430e-02 1.360000e-02
    endloop
  endfacet
  facet normal 6.784135e-01 7.346803e-01 0.000000e+00
    outer loop
      vertex   4.367535e-02 1.864430e-02 1.360000e-02
      vertex   4.369890e-02 1.862255e-02 1.445000e-02
      vertex   4.369890e-02 1.862255e-02 1.360000e-02
    endloop
  endfacet
  facet normal 6.784135e-01 7.346803e-01 0.000000e+00
    outer loop
      vertex   4.367535e-02 1.864430e-02 1.360000e-02
      vertex   4.369890e-02 1.862255e-02 1.360000e-02
      vertex   4.367535e-02 1.864430e-02 1.275000e-02
    endloop
  endfacet
  facet normal 8.103589e-01 5.859339e-01 0.000000e+00
    outer loop
      vertex   4.367535e-02 1.864430e-02 1.275000e-02
      vertex   4.365657e-02 1.867027e-02 1.190000e-02
      vertex   4.365657e-02 1.867027e-02 1.275000e-02
    endloop
  endfacet
  facet normal 8.103589e-01 5.859339e-01 -0.000000e+00
    outer loop
      vertex   4.365657e-02 1.867027e-02 1.275000e-02
      vertex   4.365657e-02 1.867027e-02 1.360000e-02
      vertex   4.367535e-02 1.864430e-02 1.360000e-02
    endloop
  endfacet
  facet normal 8.103589e-01 5.859339e-01 -0.000000e+00
    outer loop
      vertex   4.367535e-02 1.864430e-02 1.360000e-02
      vertex   4.365657e-02 1.867027e-02 1.360000e-02
      vertex   4.367535e-02 1.864430e-02 1.445000e-02
    endloop
  endfacet
  facet normal 8.103589e-01 5.859339e-01 0.000000e+00
    outer loop
      vertex   4.365657e-02 1.867027e-02 1.275000e-02
      vertex   4.367535e-02 1.864430e-02 1.360000e-02
      vertex   4.367535e-02 1.864430e-02 1.275000e-02
    endloop
  endfacet
  facet normal 6.784135e-01 7.346803e-01 -0.000000e+00
    outer loop
      vertex   4.369890e-02 1.862255e-02 1.105000e-02
      vertex   4.367535e-02 1.864430e-02 1.105000e-02
      vertex   4.369890e-02 1.862255e-02 1.190000e-02
    endloop
  endfacet
  facet normal 5.894088e-01 8.078349e-01 -0.000000e+00
    outer loop
      vertex   4.369890e-02 1.862255e-02 1.105000e-02
      vertex   4.369890e-02 1.862255e-02 1.190000e-02
      vertex   4.372529e-02 1.860330e-02 8.500000e-03
    endloop
  endfacet
  facet normal 9.999885e-01 -4.786885e-03 9.769319e-18
    outer loop
      vertex   4.361445e-02 1.890059e-02 1.700000e-02
      vertex   4.361445e-02 1.890059e-02 1.530000e-02
      vertex   4.361478e-02 1.896892e-02 1.700000e-02
    endloop
  endfacet
  facet normal 9.999885e-01 -4.786885e-03 0.000000e+00
    outer loop
      vertex   4.361478e-02 1.896892e-02 1.700000e-02
      vertex   4.361445e-02 1.890059e-02 1.530000e-02
      vertex   4.361445e-02 1.890059e-02 1.360000e-02
    endloop
  endfacet
  facet normal 9.999885e-01 -4.786885e-03 0.000000e+00
    outer loop
      vertex   4.361478e-02 1.896892e-02 1.700000e-02
      vertex   4.361445e-02 1.890059e-02 1.360000e-02
      vertex   4.361445e-02 1.890059e-02 1.190000e-02
    endloop
  endfacet
  facet normal 9.991229e-01 4.187405e-02 -0.000000e+00
    outer loop
      vertex   4.361445e-02 1.890059e-02 1.190000e-02
      vertex   4.361445e-02 1.890059e-02 1.360000e-02
      vertex   4.361730e-02 1.883263e-02 1.360000e-02
    endloop
  endfacet
  facet normal 9.991229e-01 4.187405e-02 0.000000e+00
    outer loop
      vertex   4.361445e-02 1.890059e-02 1.190000e-02
      vertex   4.361730e-02 1.883263e-02 1.360000e-02
      vertex   4.361730e-02 1.883263e-02 1.190000e-02
    endloop
  endfacet
  facet normal 9.910485e-01 1.335023e-01 -0.000000e+00
    outer loop
      vertex   4.361730e-02 1.883263e-02 1.190000e-02
      vertex   4.361730e-02 1.883263e-02 1.360000e-02
      vertex   4.362636e-02 1.876540e-02 1.360000e-02
    endloop
  endfacet
  facet normal 9.910485e-01 1.335023e-01 0.000000e+00
    outer loop
      vertex   4.361730e-02 1.883263e-02 1.190000e-02
      vertex   4.362636e-02 1.876540e-02 1.360000e-02
      vertex   4.362636e-02 1.876540e-02 1.190000e-02
    endloop
  endfacet
  facet normal 9.775881e-01 2.105269e-01 -0.000000e+00
    outer loop
      vertex   4.362636e-02 1.876540e-02 1.190000e-02
      vertex   4.362636e-02 1.876540e-02 1.360000e-02
      vertex   4.364070e-02 1.869880e-02 8.500000e-03
    endloop
  endfacet
  facet normal 9.775881e-01 2.105269e-01 0.000000e+00
    outer loop
      vertex   4.362636e-02 1.876540e-02 1.190000e-02
      vertex   4.364070e-02 1.869880e-02 8.500000e-03
      vertex   4.362636e-02 1.876540e-02 1.020000e-02
    endloop
  endfacet
  facet normal 9.775881e-01 2.105269e-01 4.296540e-16
    outer loop
      vertex   4.362636e-02 1.876540e-02 1.020000e-02
      vertex   4.364070e-02 1.869880e-02 8.500000e-03
      vertex   4.362636e-02 1.876540e-02 8.500000e-03
    endloop
  endfacet
  facet normal 9.910485e-01 1.335023e-01 2.724584e-16
    outer loop
      vertex   4.362636e-02 1.876540e-02 1.020000e-02
      vertex   4.362636e-02 1.876540e-02 8.500000e-03
      vertex   4.361730e-02 1.883263e-02 8.500000e-03
    endloop
  endfacet
  facet normal 9.991229e-01 4.187405e-02 -8.545869e-17
    outer loop
      vertex   4.361445e-02 1.890059e-02 1.700000e-02
      vertex   4.361730e-02 1.883263e-02 1.700000e-02
      vertex   4.361445e-02 1.890059e-02 1.530000e-02
    endloop
  endfacet
  facet normal 9.991229e-01 4.187405e-02 -8.156316e-15
    outer loop
      vertex   4.361445e-02 1.890059e-02 1.530000e-02
      vertex   4.361730e-02 1.883263e-02 1.700000e-02
      vertex   4.361730e-02 1.883263e-02 1.530000e-02
    endloop
  endfacet
  facet normal 9.991229e-01 4.187405e-02 0.000000e+00
    outer loop
      vertex   4.361445e-02 1.890059e-02 1.530000e-02
      vertex   4.361730e-02 1.883263e-02 1.530000e-02
      vertex   4.361445e-02 1.890059e-02 1.360000e-02
    endloop
  endfacet
  facet normal 9.991229e-01 4.187405e-02 0.000000e+00
    outer loop
      vertex   4.361445e-02 1.890059e-02 1.360000e-02
      vertex   4.361730e-02 1.883263e-02 1.530000e-02
      vertex   4.361730e-02 1.883263e-02 1.360000e-02
    endloop
  endfacet
  facet normal 9.910485e-01 1.335023e-01 -8.090330e-15
    outer loop
      vertex   4.361730e-02 1.883263e-02 1.700000e-02
      vertex   4.362636e-02 1.876540e-02 1.700000e-02
      vertex   4.361730e-02 1.883263e-02 1.530000e-02
    endloop
  endfacet
  facet normal 9.910485e-01 1.335023e-01 -2.716762e-16
    outer loop
      vertex   4.361730e-02 1.883263e-02 1.530000e-02
      vertex   4.362636e-02 1.876540e-02 1.700000e-02
      vertex   4.362636e-02 1.876540e-02 1.530000e-02
    endloop
  endfacet
  facet normal 9.910485e-01 1.335023e-01 0.000000e+00
    outer loop
      vertex   4.361730e-02 1.883263e-02 1.530000e-02
      vertex   4.362636e-02 1.876540e-02 1.530000e-02
      vertex   4.361730e-02 1.883263e-02 1.360000e-02
    endloop
  endfacet
  facet normal 9.910485e-01 1.335023e-01 0.000000e+00
    outer loop
      vertex   4.361730e-02 1.883263e-02 1.360000e-02
      vertex   4.362636e-02 1.876540e-02 1.530000e-02
      vertex   4.362636e-02 1.876540e-02 1.360000e-02
    endloop
  endfacet
  facet normal 9.775881e-01 2.105269e-01 -4.296540e-16
    outer loop
      vertex   4.362636e-02 1.876540e-02 1.700000e-02
      vertex   4.364070e-02 1.869880e-02 1.700000e-02
      vertex   4.362636e-02 1.876540e-02 1.530000e-02
    endloop
  endfacet
  facet normal 9.775881e-01 2.105269e-01 0.000000e+00
    outer loop
      vertex   4.362636e-02 1.876540e-02 1.530000e-02
      vertex   4.364070e-02 1.869880e-02 1.700000e-02
      vertex   4.362636e-02 1.876540e-02 1.360000e-02
    endloop
  endfacet
  facet normal 9.775881e-01 2.105269e-01 0.000000e+00
    outer loop
      vertex   4.364070e-02 1.869880e-02 1.700000e-02
      vertex   4.364070e-02 1.869880e-02 8.500000e-03
      vertex   4.362636e-02 1.876540e-02 1.360000e-02
    endloop
  endfacet
  facet normal 9.910485e-01 1.335023e-01 8.090214e-15
    outer loop
      vertex   4.362636e-02 1.876540e-02 1.020000e-02
      vertex   4.361730e-02 1.883263e-02 8.500000e-03
      vertex   4.361730e-02 1.883263e-02 1.020000e-02
    endloop
  endfacet
  facet normal 9.991229e-01 4.187405e-02 8.156244e-15
    outer loop
      vertex   4.361730e-02 1.883263e-02 1.020000e-02
      vertex   4.361730e-02 1.883263e-02 8.500000e-03
      vertex   4.361445e-02 1.890059e-02 8.500000e-03
    endloop
  endfacet
  facet normal 9.991229e-01 4.187405e-02 8.539708e-17
    outer loop
      vertex   4.361730e-02 1.883263e-02 1.020000e-02
      vertex   4.361445e-02 1.890059e-02 8.500000e-03
      vertex   4.361445e-02 1.890059e-02 1.020000e-02
    endloop
  endfacet
  facet normal 9.999885e-01 -4.786885e-03 -9.769319e-18
    outer loop
      vertex   4.361445e-02 1.890059e-02 1.020000e-02
      vertex   4.361445e-02 1.890059e-02 8.500000e-03
      vertex   4.361478e-02 1.896892e-02 8.500000e-03
    endloop
  endfacet
  facet normal 9.999885e-01 -4.786885e-03 0.000000e+00
    outer loop
      vertex   4.361445e-02 1.890059e-02 1.020000e-02
      vertex   4.361478e-02 1.896892e-02 8.500000e-03
      vertex   4.361445e-02 1.890059e-02 1.190000e-02
    endloop
  endfacet
  facet normal 9.999885e-01 -4.786885e-03 0.000000e+00
    outer loop
      vertex   4.361445e-02 1.890059e-02 1.190000e-02
      vertex   4.361478e-02 1.896892e-02 8.500000e-03
      vertex   4.361478e-02 1.896892e-02 1.700000e-02
    endloop
  endfacet
  facet normal 9.910485e-01 1.335023e-01 0.000000e+00
    outer loop
      vertex   4.362636e-02 1.876540e-02 1.190000e-02
      vertex   4.362636e-02 1.876540e-02 1.020000e-02
      vertex   4.361730e-02 1.883263e-02 1.020000e-02
    endloop
  endfacet
  facet normal 9.991229e-01 4.187405e-02 0.000000e+00
    outer loop
      vertex   4.361445e-02 1.890059e-02 1.190000e-02
      vertex   4.361730e-02 1.883263e-02 1.190000e-02
      vertex   4.361445e-02 1.890059e-02 1.020000e-02
    endloop
  endfacet
  facet normal 9.991229e-01 4.187405e-02 0.000000e+00
    outer loop
      vertex   4.361445e-02 1.890059e-02 1.020000e-02
      vertex   4.361730e-02 1.883263e-02 1.190000e-02
      vertex   4.361730e-02 1.883263e-02 1.020000e-02
    endloop
  endfacet
  facet normal 9.910485e-01 1.335023e-01 0.000000e+00
    outer loop
      vertex   4.361730e-02 1.883263e-02 1.190000e-02
      vertex   4.362636e-02 1.876540e-02 1.190000e-02
      vertex   4.361730e-02 1.883263e-02 1.020000e-02
    endloop
  endfacet
  facet normal 1.000000e+00 0.000000e+00 0.000000e+00
    outer loop
      vertex   4.361478e-02 2.066333e-02 1.700000e-02
      vertex   4.361478e-02 1.896892e-02 1.700000e-02
      vertex   4.361478e-02 2.066333e-02 8.500000e-03
    endloop
  endfacet
  facet normal 1.000000e+00 0.000000e+00 0.000000e+00
    outer loop
      vertex   4.361478e-02 2.066333e-02 8.500000e-03
      vertex   4.361478e-02 1.896892e-02 1.700000e-02
      vertex   4.361478e-02 1.896892e-02 8.500000e-03
    endloop
  endfacet
  facet normal -0.000000e+00 -1.000000e+00 -0.000000e+00
    outer loop
      vertex   4.410864e-02 2.066333e-02 1.700000e-02
      vertex   4.361478e-02 2.066333e-02 1.700000e-02
      vertex   4.410864e-02 2.066333e-02 8.500000e-03
    endloop
  endfacet
  facet normal 0.000000e+00 -1.000000e+00 0.000000e+00
    outer loop
      vertex   4.410864e-02 2.066333e-02 8.500000e-03
      vertex   4.361478e-02 2.066333e-02 1.700000e-02
      vertex   4.361478e-02 2.066333e-02 8.500000e-03
    endloop
  endfacet
  facet normal 1.000000e+00 0.000000e+00 0.000000e+00
    outer loop
      vertex   4.410864e-02 2.104532e-02 1.700000e-02
      vertex   4.410864e-02 2.066333e-02 1.700000e-02
      vertex   4.410864e-02 2.104532e-02 8.500000e-03
    endloop
  endfacet
  facet normal 1.000000e+00 0.000000e+00 0.000000e+00
    outer loop
      vertex   4.410864e-02 2.104532e-02 8.500000e-03
      vertex   4.410864e-02 2.066333e-02 1.700000e-02
      vertex   4.410864e-02 2.066333e-02 8.500000e-03
    endloop
  endfacet
  facet normal -0.000000e+00 1.000000e+00 0.000000e+00
    outer loop
      vertex   4.361478e-02 2.104532e-02 1.700000e-02
      vertex   4.410864e-02 2.104532e-02 1.700000e-02
      vertex   4.361478e-02 2.104532e-02 8.500000e-03
    endloop
  endfacet
  facet normal 0.000000e+00 1.000000e+00 0.000000e+00
    outer loop
      vertex   4.361478e-02 2.104532e-02 8.500000e-03
      vertex   4.410864e-02 2.104532e-02 1.700000e-02
      vertex   4.410864e-02 2.104532e-02 8.500000e-03
    endloop
  endfacet
  facet normal 1.000000e+00 0.000000e+00 0.000000e+00
    outer loop
      vertex   4.361478e-02 2.205760e-02 1.700000e-02
      vertex   4.361478e-02 2.104532e-02 1.700000e-02
      vertex   4.361478e-02 2.205760e-02 8.500000e-03
    endloop
  endfacet
  facet normal 1.000000e+00 0.000000e+00 0.000000e+00
    outer loop
      vertex   4.361478e-02 2.205760e-02 8.500000e-03
      vertex   4.361478e-02 2.104532e-02 1.700000e-02
      vertex   4.361478e-02 2.104532e-02 8.500000e-03
    endloop
  endfacet
  facet normal -5.166053e-01 8.562237e-01 0.000000e+00
    outer loop
      vertex   4.312638e-02 2.176292e-02 1.700000e-02
      vertex   4.361478e-02 2.205760e-02 1.700000e-02
      vertex   4.312638e-02 2.176292e-02 8.500000e-03
    endloop
  endfacet
  facet normal -5.166053e-01 8.562237e-01 0.000000e+00
    outer loop
      vertex   4.312638e-02 2.176292e-02 8.500000e-03
      vertex   4.361478e-02 2.205760e-02 1.700000e-02
      vertex   4.361478e-02 2.205760e-02 8.500000e-03
    endloop
  endfacet
  facet normal -1.000000e+00 0.000000e+00 0.000000e+00
    outer loop
      vertex   4.312638e-02 2.104532e-02 1.700000e-02
      vertex   4.312638e-02 2.176292e-02 1.700000e-02
      vertex   4.312638e-02 2.104532e-02 8.500000e-03
    endloop
  endfacet
  facet normal -1.000000e+00 0.000000e+00 0.000000e+00
    outer loop
      vertex   4.312638e-02 2.104532e-02 8.500000e-03
      vertex   4.312638e-02 2.176292e-02 1.700000e-02
      vertex   4.312638e-02 2.176292e-02 8.500000e-03
    endloop
  endfacet
  facet normal -0.000000e+00 1.000000e+00 0.000000e+00
    outer loop
      vertex   4.276622e-02 2.104532e-02 1.700000e-02
      vertex   4.312638e-02 2.104532e-02 1.700000e-02
      vertex   4.276622e-02 2.104532e-02 8.500000e-03
    endloop
  endfacet
  facet normal 0.000000e+00 1.000000e+00 0.000000e+00
    outer loop
      vertex   4.276622e-02 2.104532e-02 8.500000e-03
      vertex   4.312638e-02 2.104532e-02 1.700000e-02
      vertex   4.312638e-02 2.104532e-02 8.500000e-03
    endloop
  endfacet
  facet normal -1.000000e+00 0.000000e+00 0.000000e+00
    outer loop
      vertex   4.276622e-02 2.066333e-02 1.700000e-02
      vertex   4.276622e-02 2.104532e-02 1.700000e-02
      vertex   4.276622e-02 2.066333e-02 8.500000e-03
    endloop
  endfacet
  facet normal -1.000000e+00 0.000000e+00 0.000000e+00
    outer loop
      vertex   4.276622e-02 2.066333e-02 8.500000e-03
      vertex   4.276622e-02 2.104532e-02 1.700000e-02
      vertex   4.276622e-02 2.104532e-02 8.500000e-03
    endloop
  endfacet
  facet normal -9.633011e-15 -1.000000e+00 -0.000000e+00
    outer loop
      vertex   4.312638e-02 2.066333e-02 1.700000e-02
      vertex   4.276622e-02 2.066333e-02 1.700000e-02
      vertex   4.312638e-02 2.066333e-02 8.500000e-03
    endloop
  endfacet
  facet normal -9.633011e-15 -1.000000e+00 0.000000e+00
    outer loop
      vertex   4.312638e-02 2.066333e-02 8.500000e-03
      vertex   4.276622e-02 2.066333e-02 1.700000e-02
      vertex   4.276622e-02 2.066333e-02 8.500000e-03
    endloop
  endfacet
  facet normal -1.000000e+00 0.000000e+00 0.000000e+00
    outer loop
      vertex   4.312638e-02 1.899621e-02 1.700000e-02
      vertex   4.312638e-02 2.066333e-02 1.700000e-02
      vertex   4.312638e-02 1.899621e-02 8.500000e-03
    endloop
  endfacet
  facet normal -1.000000e+00 0.000000e+00 0.000000e+00
    outer loop
      vertex   4.312638e-02 1.899621e-02 8.500000e-03
      vertex   4.312638e-02 2.066333e-02 1.700000e-02
      vertex   4.312638e-02 2.066333e-02 8.500000e-03
    endloop
  endfacet
  facet normal -9.748880e-01 -2.226959e-01 0.000000e+00
    outer loop
      vertex   4.318640e-02 1.841640e-02 8.500000e-03
      vertex   4.318640e-02 1.841640e-02 1.700000e-02
      vertex   4.315379e-02 1.855915e-02 1.275000e-02
    endloop
  endfacet
  facet normal -9.748880e-01 -2.226959e-01 1.817957e-16
    outer loop
      vertex   4.315379e-02 1.855915e-02 1.275000e-02
      vertex   4.318640e-02 1.841640e-02 1.700000e-02
      vertex   4.315379e-02 1.855915e-02 1.700000e-02
    endloop
  endfacet
  facet normal -9.896434e-01 -1.435476e-01 1.171838e-16
    outer loop
      vertex   4.315379e-02 1.855915e-02 1.275000e-02
      vertex   4.315379e-02 1.855915e-02 1.700000e-02
      vertex   4.313288e-02 1.870337e-02 1.700000e-02
    endloop
  endfacet
  facet normal -9.896434e-01 -1.435476e-01 1.616100e-15
    outer loop
      vertex   4.315379e-02 1.855915e-02 1.275000e-02
      vertex   4.313288e-02 1.870337e-02 1.700000e-02
      vertex   4.313288e-02 1.870337e-02 1.275000e-02
    endloop
  endfacet
  facet normal -9.988971e-01 -4.695256e-02 1.630880e-15
    outer loop
      vertex   4.313288e-02 1.870337e-02 1.275000e-02
      vertex   4.313288e-02 1.870337e-02 1.700000e-02
      vertex   4.312601e-02 1.884934e-02 1.700000e-02
    endloop
  endfacet
  facet normal -9.988971e-01 -4.695256e-02 0.000000e+00
    outer loop
      vertex   4.313288e-02 1.870337e-02 1.275000e-02
      vertex   4.312601e-02 1.884934e-02 1.700000e-02
      vertex   4.312601e-02 1.884934e-02 1.275000e-02
    endloop
  endfacet
  facet normal -9.999970e-01 2.467376e-03 0.000000e+00
    outer loop
      vertex   4.312601e-02 1.884934e-02 1.275000e-02
      vertex   4.312601e-02 1.884934e-02 1.700000e-02
      vertex   4.312638e-02 1.899621e-02 1.700000e-02
    endloop
  endfacet
  facet normal -9.999970e-01 2.467376e-03 0.000000e+00
    outer loop
      vertex   4.312601e-02 1.884934e-02 1.275000e-02
      vertex   4.312638e-02 1.899621e-02 1.700000e-02
      vertex   4.312638e-02 1.899621e-02 8.500000e-03
    endloop
  endfacet
  facet normal -9.999970e-01 2.467376e-03 0.000000e+00
    outer loop
      vertex   4.312638e-02 1.899621e-02 8.500000e-03
      vertex   4.312601e-02 1.884934e-02 8.500000e-03
      vertex   4.312601e-02 1.884934e-02 1.275000e-02
    endloop
  endfacet
  facet normal -9.988971e-01 -4.695256e-02 -0.000000e+00
    outer loop
      vertex   4.312601e-02 1.884934e-02 1.275000e-02
      vertex   4.312601e-02 1.884934e-02 8.500000e-03
      vertex   4.313288e-02 1.870337e-02 8.500000e-03
    endloop
  endfacet
  facet normal -9.988971e-01 -4.695256e-02 -1.630906e-15
    outer loop
      vertex   4.312601e-02 1.884934e-02 1.275000e-02
      vertex   4.313288e-02 1.870337e-02 8.500000e-03
      vertex   4.313288e-02 1.870337e-02 1.275000e-02
    endloop
  endfacet
  facet normal -9.896434e-01 -1.435476e-01 -1.615772e-15
    outer loop
      vertex   4.313288e-02 1.870337e-02 1.275000e-02
      vertex   4.313288e-02 1.870337e-02 8.500000e-03
      vertex   4.315379e-02 1.855915e-02 8.500000e-03
    endloop
  endfacet
  facet normal -9.896434e-01 -1.435476e-01 -1.175345e-16
    outer loop
      vertex   4.313288e-02 1.870337e-02 1.275000e-02
      vertex   4.315379e-02 1.855915e-02 8.500000e-03
      vertex   4.315379e-02 1.855915e-02 1.275000e-02
    endloop
  endfacet
  facet normal -9.748880e-01 -2.226959e-01 -1.817957e-16
    outer loop
      vertex   4.315379e-02 1.855915e-02 1.275000e-02
      vertex   4.315379e-02 1.855915e-02 8.500000e-03
      vertex   4.318640e-02 1.841640e-02 8.500000e-03
    endloop
  endfacet
  facet normal -5.643324e-01 -8.255477e-01 5.528248e-15
    outer loop
      vertex   4.332938e-02 1.823804e-02 1.700000e-02
      vertex   4.332938e-02 1.823804e-02 1.487500e-02
      vertex   4.339377e-02 1.819402e-02 1.700000e-02
    endloop
  endfacet
  facet normal -5.643324e-01 -8.255477e-01 0.000000e+00
    outer loop
      vertex   4.339377e-02 1.819402e-02 1.700000e-02
      vertex   4.332938e-02 1.823804e-02 1.487500e-02
      vertex   4.332938e-02 1.823804e-02 1.275000e-02
    endloop
  endfacet
  facet normal -5.643324e-01 -8.255477e-01 -0.000000e+00
    outer loop
      vertex   4.339377e-02 1.819402e-02 1.700000e-02
      vertex   4.332938e-02 1.823804e-02 1.275000e-02
      vertex   4.339377e-02 1.819402e-02 8.500000e-03
    endloop
  endfacet
  facet normal -5.643324e-01 -8.255477e-01 0.000000e+00
    outer loop
      vertex   4.339377e-02 1.819402e-02 8.500000e-03
      vertex   4.332938e-02 1.823804e-02 1.275000e-02
      vertex   4.332938e-02 1.823804e-02 1.062500e-02
    endloop
  endfacet
  facet normal -5.643324e-01 -8.255477e-01 -5.527088e-15
    outer loop
      vertex   4.339377e-02 1.819402e-02 8.500000e-03
      vertex   4.332938e-02 1.823804e-02 1.062500e-02
      vertex   4.332938e-02 1.823804e-02 8.500000e-03
    endloop
  endfacet
  facet normal -6.562392e-01 -7.545529e-01 -6.428576e-15
    outer loop
      vertex   4.332938e-02 1.823804e-02 8.500000e-03
      vertex   4.332938e-02 1.823804e-02 1.062500e-02
      vertex   4.327167e-02 1.828823e-02 1.062500e-02
    endloop
  endfacet
  facet normal -6.562392e-01 -7.545529e-01 2.463587e-15
    outer loop
      vertex   4.332938e-02 1.823804e-02 8.500000e-03
      vertex   4.327167e-02 1.828823e-02 1.062500e-02
      vertex   4.327167e-02 1.828823e-02 8.500000e-03
    endloop
  endfacet
  facet normal -7.961218e-01 -6.051365e-01 1.975989e-15
    outer loop
      vertex   4.327167e-02 1.828823e-02 8.500000e-03
      vertex   4.327167e-02 1.828823e-02 1.062500e-02
      vertex   4.322547e-02 1.834902e-02 1.062500e-02
    endloop
  endfacet
  facet normal -7.961218e-01 -6.051365e-01 -9.889774e-16
    outer loop
      vertex   4.327167e-02 1.828823e-02 8.500000e-03
      vertex   4.322547e-02 1.834902e-02 1.062500e-02
      vertex   4.322547e-02 1.834902e-02 8.500000e-03
    endloop
  endfacet
  facet normal -8.651250e-01 -5.015564e-01 -8.188815e-16
    outer loop
      vertex   4.322547e-02 1.834902e-02 8.500000e-03
      vertex   4.322547e-02 1.834902e-02 1.062500e-02
      vertex   4.318640e-02 1.841640e-02 8.500000e-03
    endloop
  endfacet
  facet normal -8.651250e-01 -5.015564e-01 0.000000e+00
    outer loop
      vertex   4.318640e-02 1.841640e-02 8.500000e-03
      vertex   4.322547e-02 1.834902e-02 1.062500e-02
      vertex   4.322547e-02 1.834902e-02 1.275000e-02
    endloop
  endfacet
  facet normal -8.651250e-01 -5.015564e-01 0.000000e+00
    outer loop
      vertex   4.318640e-02 1.841640e-02 8.500000e-03
      vertex   4.322547e-02 1.834902e-02 1.275000e-02
      vertex   4.318640e-02 1.841640e-02 1.700000e-02
    endloop
  endfacet
  facet normal -8.651250e-01 -5.015564e-01 0.000000e+00
    outer loop
      vertex   4.318640e-02 1.841640e-02 1.700000e-02
      vertex   4.322547e-02 1.834902e-02 1.275000e-02
      vertex   4.322547e-02 1.834902e-02 1.487500e-02
    endloop
  endfacet
  facet normal -8.651250e-01 -5.015564e-01 8.171613e-16
    outer loop
      vertex   4.318640e-02 1.841640e-02 1.700000e-02
      vertex   4.322547e-02 1.834902e-02 1.487500e-02
      vertex   4.322547e-02 1.834902e-02 1.700000e-02
    endloop
  endfacet
  facet normal -7.961218e-01 -6.051365e-01 9.879947e-16
    outer loop
      vertex   4.322547e-02 1.834902e-02 1.700000e-02
      vertex   4.322547e-02 1.834902e-02 1.487500e-02
      vertex   4.327167e-02 1.828823e-02 1.487500e-02
    endloop
  endfacet
  facet normal -7.961218e-01 -6.051365e-01 -1.977955e-15
    outer loop
      vertex   4.322547e-02 1.834902e-02 1.700000e-02
      vertex   4.327167e-02 1.828823e-02 1.487500e-02
      vertex   4.327167e-02 1.828823e-02 1.700000e-02
    endloop
  endfacet
  facet normal -6.562392e-01 -7.545529e-01 -2.463888e-15
    outer loop
      vertex   4.327167e-02 1.828823e-02 1.700000e-02
      vertex   4.327167e-02 1.828823e-02 1.487500e-02
      vertex   4.332938e-02 1.823804e-02 1.487500e-02
    endloop
  endfacet
  facet normal -6.562392e-01 -7.545529e-01 6.428742e-15
    outer loop
      vertex   4.327167e-02 1.828823e-02 1.700000e-02
      vertex   4.332938e-02 1.823804e-02 1.487500e-02
      vertex   4.332938e-02 1.823804e-02 1.700000e-02
    endloop
  endfacet
  facet normal -6.562392e-01 -7.545529e-01 0.000000e+00
    outer loop
      vertex   4.332938e-02 1.823804e-02 1.275000e-02
      vertex   4.332938e-02 1.823804e-02 1.487500e-02
      vertex   4.327167e-02 1.828823e-02 1.487500e-02
    endloop
  endfacet
  facet normal -7.961218e-01 -6.051365e-01 -0.000000e+00
    outer loop
      vertex   4.327167e-02 1.828823e-02 1.487500e-02
      vertex   4.322547e-02 1.834902e-02 1.487500e-02
      vertex   4.327167e-02 1.828823e-02 1.275000e-02
    endloop
  endfacet
  facet normal -7.961218e-01 -6.051365e-01 0.000000e+00
    outer loop
      vertex   4.327167e-02 1.828823e-02 1.275000e-02
      vertex   4.322547e-02 1.834902e-02 1.487500e-02
      vertex   4.322547e-02 1.834902e-02 1.275000e-02
    endloop
  endfacet
  facet normal -7.961218e-01 -6.051365e-01 -0.000000e+00
    outer loop
      vertex   4.327167e-02 1.828823e-02 1.275000e-02
      vertex   4.322547e-02 1.834902e-02 1.275000e-02
      vertex   4.327167e-02 1.828823e-02 1.062500e-02
    endloop
  endfacet
  facet normal -7.961218e-01 -6.051365e-01 0.000000e+00
    outer loop
      vertex   4.327167e-02 1.828823e-02 1.062500e-02
      vertex   4.322547e-02 1.834902e-02 1.275000e-02
      vertex   4.322547e-02 1.834902e-02 1.062500e-02
    endloop
  endfacet
  facet normal -6.562392e-01 -7.545529e-01 -0.000000e+00
    outer loop
      vertex   4.327167e-02 1.828823e-02 1.275000e-02
      vertex   4.327167e-02 1.828823e-02 1.062500e-02
      vertex   4.332938e-02 1.823804e-02 1.062500e-02
    endloop
  endfacet
  facet normal -6.562392e-01 -7.545529e-01 0.000000e+00
    outer loop
      vertex   4.332938e-02 1.823804e-02 1.062500e-02
      vertex   4.332938e-02 1.823804e-02 1.275000e-02
      vertex   4.327167e-02 1.828823e-02 1.275000e-02
    endloop
  endfacet
  facet normal -6.562392e-01 -7.545529e-01 0.000000e+00
    outer loop
      vertex   4.327167e-02 1.828823e-02 1.275000e-02
      vertex   4.332938e-02 1.823804e-02 1.275000e-02
      vertex   4.327167e-02 1.828823e-02 1.487500e-02
    endloop
  endfacet
  facet normal -3.304078e-02 -9.994540e-01 -1.304760e-15
    outer loop
      vertex   4.370096e-02 1.811300e-02 1.700000e-02
      vertex   4.370096e-02 1.811300e-02 1.416667e-02
      vertex   4.380850e-02 1.810944e-02 1.700000e-02
    endloop
  endfacet
  facet normal -3.304078e-02 -9.994540e-01 0.000000e+00
    outer loop
      vertex   4.380850e-02 1.810944e-02 1.700000e-02
      vertex   4.370096e-02 1.811300e-02 1.416667e-02
      vertex   4.370096e-02 1.811300e-02 1.133333e-02
    endloop
  endfacet
  facet normal -3.304078e-02 -9.994540e-01 -0.000000e+00
    outer loop
      vertex   4.380850e-02 1.810944e-02 1.700000e-02
      vertex   4.370096e-02 1.811300e-02 1.133333e-02
      vertex   4.380850e-02 1.810944e-02 8.500000e-03
    endloop
  endfacet
  facet normal -3.304078e-02 -9.994540e-01 1.304841e-15
    outer loop
      vertex   4.380850e-02 1.810944e-02 8.500000e-03
      vertex   4.370096e-02 1.811300e-02 1.133333e-02
      vertex   4.370096e-02 1.811300e-02 8.500000e-03
    endloop
  endfacet
  facet normal -1.169815e-01 -9.931341e-01 1.502594e-15
    outer loop
      vertex   4.370096e-02 1.811300e-02 8.500000e-03
      vertex   4.370096e-02 1.811300e-02 1.133333e-02
      vertex   4.359536e-02 1.812543e-02 1.133333e-02
    endloop
  endfacet
  facet normal -1.169815e-01 -9.931341e-01 0.000000e+00
    outer loop
      vertex   4.370096e-02 1.811300e-02 8.500000e-03
      vertex   4.359536e-02 1.812543e-02 1.133333e-02
      vertex   4.359536e-02 1.812543e-02 8.500000e-03
    endloop
  endfacet
  facet normal -2.707715e-01 -9.626436e-01 0.000000e+00
    outer loop
      vertex   4.359536e-02 1.812543e-02 8.500000e-03
      vertex   4.359536e-02 1.812543e-02 1.133333e-02
      vertex   4.349334e-02 1.815413e-02 1.133333e-02
    endloop
  endfacet
  facet normal -2.707715e-01 -9.626436e-01 2.356575e-15
    outer loop
      vertex   4.359536e-02 1.812543e-02 8.500000e-03
      vertex   4.349334e-02 1.815413e-02 1.133333e-02
      vertex   4.349334e-02 1.815413e-02 8.500000e-03
    endloop
  endfacet
  facet normal -3.719271e-01 -9.282619e-01 2.273333e-15
    outer loop
      vertex   4.349334e-02 1.815413e-02 8.500000e-03
      vertex   4.349334e-02 1.815413e-02 1.133333e-02
      vertex   4.339377e-02 1.819402e-02 8.500000e-03
    endloop
  endfacet
  facet normal -3.719271e-01 -9.282619e-01 0.000000e+00
    outer loop
      vertex   4.339377e-02 1.819402e-02 8.500000e-03
      vertex   4.349334e-02 1.815413e-02 1.133333e-02
      vertex   4.349334e-02 1.815413e-02 1.416667e-02
    endloop
  endfacet
  facet normal -3.719271e-01 -9.282619e-01 0.000000e+00
    outer loop
      vertex   4.339377e-02 1.819402e-02 8.500000e-03
      vertex   4.349334e-02 1.815413e-02 1.416667e-02
      vertex   4.339377e-02 1.819402e-02 1.700000e-02
    endloop
  endfacet
  facet normal -3.719271e-01 -9.282619e-01 -2.272725e-15
    outer loop
      vertex   4.339377e-02 1.819402e-02 1.700000e-02
      vertex   4.349334e-02 1.815413e-02 1.416667e-02
      vertex   4.349334e-02 1.815413e-02 1.700000e-02
    endloop
  endfacet
  facet normal -2.707715e-01 -9.626436e-01 -2.357535e-15
    outer loop
      vertex   4.349334e-02 1.815413e-02 1.700000e-02
      vertex   4.349334e-02 1.815413e-02 1.416667e-02
      vertex   4.359536e-02 1.812543e-02 1.416667e-02
    endloop
  endfacet
  facet normal -2.707715e-01 -9.626436e-01 0.000000e+00
    outer loop
      vertex   4.349334e-02 1.815413e-02 1.700000e-02
      vertex   4.359536e-02 1.812543e-02 1.416667e-02
      vertex   4.359536e-02 1.812543e-02 1.700000e-02
    endloop
  endfacet
  facet normal -1.169815e-01 -9.931341e-01 -0.000000e+00
    outer loop
      vertex   4.359536e-02 1.812543e-02 1.700000e-02
      vertex   4.359536e-02 1.812543e-02 1.416667e-02
      vertex   4.370096e-02 1.811300e-02 1.416667e-02
    endloop
  endfacet
  facet normal -1.169815e-01 -9.931341e-01 -1.502621e-15
    outer loop
      vertex   4.359536e-02 1.812543e-02 1.700000e-02
      vertex   4.370096e-02 1.811300e-02 1.416667e-02
      vertex   4.370096e-02 1.811300e-02 1.700000e-02
    endloop
  endfacet
  facet normal -1.169815e-01 -9.931341e-01 0.000000e+00
    outer loop
      vertex   4.370096e-02 1.811300e-02 1.133333e-02
      vertex   4.370096e-02 1.811300e-02 1.416667e-02
      vertex   4.359536e-02 1.812543e-02 1.416667e-02
    endloop
  endfacet
  facet normal -2.707715e-01 -9.626436e-01 0.000000e+00
    outer loop
      vertex   4.349334e-02 1.815413e-02 1.133333e-02
      vertex   4.359536e-02 1.812543e-02 1.133333e-02
      vertex   4.349334e-02 1.815413e-02 1.416667e-02
    endloop
  endfacet
  facet normal -2.707715e-01 -9.626436e-01 0.000000e+00
    outer loop
      vertex   4.349334e-02 1.815413e-02 1.416667e-02
      vertex   4.359536e-02 1.812543e-02 1.133333e-02
      vertex   4.359536e-02 1.812543e-02 1.416667e-02
    endloop
  endfacet
  facet normal -1.169815e-01 -9.931341e-01 0.000000e+00
    outer loop
      vertex   4.359536e-02 1.812543e-02 1.133333e-02
      vertex   4.370096e-02 1.811300e-02 1.133333e-02
      vertex   4.359536e-02 1.812543e-02 1.416667e-02
    endloop
  endfacet
  facet normal 1.853199e-01 -9.826782e-01 -9.077049e-16
    outer loop
      vertex   4.408755e-02 1.813574e-02 1.700000e-02
      vertex   4.408755e-02 1.813574e-02 1.416667e-02
      vertex   4.417958e-02 1.815310e-02 1.700000e-02
    endloop
  endfacet
  facet normal 1.853199e-01 -9.826782e-01 0.000000e+00
    outer loop
      vertex   4.417958e-02 1.815310e-02 1.700000e-02
      vertex   4.408755e-02 1.813574e-02 1.416667e-02
      vertex   4.408755e-02 1.813574e-02 1.133333e-02
    endloop
  endfacet
  facet normal 1.853199e-01 -9.826782e-01 0.000000e+00
    outer loop
      vertex   4.417958e-02 1.815310e-02 1.700000e-02
      vertex   4.408755e-02 1.813574e-02 1.133333e-02
      vertex   4.417958e-02 1.815310e-02 8.500000e-03
    endloop
  endfacet
  facet normal 1.853199e-01 -9.826782e-01 9.071108e-16
    outer loop
      vertex   4.417958e-02 1.815310e-02 8.500000e-03
      vertex   4.408755e-02 1.813574e-02 1.133333e-02
      vertex   4.408755e-02 1.813574e-02 8.500000e-03
    endloop
  endfacet
  facet normal 1.497283e-01 -9.887272e-01 7.333754e-16
    outer loop
      vertex   4.408755e-02 1.813574e-02 8.500000e-03
      vertex   4.408755e-02 1.813574e-02 1.133333e-02
      vertex   4.399513e-02 1.812174e-02 1.133333e-02
    endloop
  endfacet
  facet normal 1.497283e-01 -9.887272e-01 7.332117e-16
    outer loop
      vertex   4.408755e-02 1.813574e-02 8.500000e-03
      vertex   4.399513e-02 1.812174e-02 1.133333e-02
      vertex   4.399513e-02 1.812174e-02 8.500000e-03
    endloop
  endfacet
  facet normal 8.629622e-02 -9.962695e-01 4.226826e-16
    outer loop
      vertex   4.399513e-02 1.812174e-02 8.500000e-03
      vertex   4.399513e-02 1.812174e-02 1.133333e-02
      vertex   4.390204e-02 1.811368e-02 1.133333e-02
    endloop
  endfacet
  facet normal 8.629622e-02 -9.962695e-01 1.008753e-15
    outer loop
      vertex   4.399513e-02 1.812174e-02 8.500000e-03
      vertex   4.390204e-02 1.811368e-02 1.133333e-02
      vertex   4.390204e-02 1.811368e-02 8.500000e-03
    endloop
  endfacet
  facet normal 4.529308e-02 -9.989737e-01 1.112330e-15
    outer loop
      vertex   4.390204e-02 1.811368e-02 8.500000e-03
      vertex   4.390204e-02 1.811368e-02 1.133333e-02
      vertex   4.380850e-02 1.810944e-02 8.500000e-03
    endloop
  endfacet
  facet normal 4.529308e-02 -9.989737e-01 0.000000e+00
    outer loop
      vertex   4.380850e-02 1.810944e-02 8.500000e-03
      vertex   4.390204e-02 1.811368e-02 1.133333e-02
      vertex   4.390204e-02 1.811368e-02 1.416667e-02
    endloop
  endfacet
  facet normal 4.529308e-02 -9.989737e-01 0.000000e+00
    outer loop
      vertex   4.380850e-02 1.810944e-02 8.500000e-03
      vertex   4.390204e-02 1.811368e-02 1.416667e-02
      vertex   4.380850e-02 1.810944e-02 1.700000e-02
    endloop
  endfacet
  facet normal 4.529308e-02 -9.989737e-01 -1.112393e-15
    outer loop
      vertex   4.380850e-02 1.810944e-02 1.700000e-02
      vertex   4.390204e-02 1.811368e-02 1.416667e-02
      vertex   4.390204e-02 1.811368e-02 1.700000e-02
    endloop
  endfacet
  facet normal 8.629622e-02 -9.962695e-01 -1.008601e-15
    outer loop
      vertex   4.390204e-02 1.811368e-02 1.700000e-02
      vertex   4.390204e-02 1.811368e-02 1.416667e-02
      vertex   4.399513e-02 1.812174e-02 1.416667e-02
    endloop
  endfacet
  facet normal 8.629622e-02 -9.962695e-01 -4.225594e-16
    outer loop
      vertex   4.390204e-02 1.811368e-02 1.700000e-02
      vertex   4.399513e-02 1.812174e-02 1.416667e-02
      vertex   4.399513e-02 1.812174e-02 1.700000e-02
    endloop
  endfacet
  facet normal 1.497283e-01 -9.887272e-01 -7.333754e-16
    outer loop
      vertex   4.399513e-02 1.812174e-02 1.700000e-02
      vertex   4.399513e-02 1.812174e-02 1.416667e-02
      vertex   4.408755e-02 1.813574e-02 1.416667e-02
    endloop
  endfacet
  facet normal 1.497283e-01 -9.887272e-01 -7.339926e-16
    outer loop
      vertex   4.399513e-02 1.812174e-02 1.700000e-02
      vertex   4.408755e-02 1.813574e-02 1.416667e-02
      vertex   4.408755e-02 1.813574e-02 1.700000e-02
    endloop
  endfacet
  facet normal 1.497283e-01 -9.887272e-01 0.000000e+00
    outer loop
      vertex   4.408755e-02 1.813574e-02 1.133333e-02
      vertex   4.408755e-02 1.813574e-02 1.416667e-02
      vertex   4.399513e-02 1.812174e-02 1.416667e-02
    endloop
  endfacet
  facet normal 8.629622e-02 -9.962695e-01 0.000000e+00
    outer loop
      vertex   4.390204e-02 1.811368e-02 1.133333e-02
      vertex   4.399513e-02 1.812174e-02 1.133333e-02
      vertex   4.390204e-02 1.811368e-02 1.416667e-02
    endloop
  endfacet
  facet normal 8.629622e-02 -9.962695e-01 0.000000e+00
    outer loop
      vertex   4.390204e-02 1.811368e-02 1.416667e-02
      vertex   4.399513e-02 1.812174e-02 1.133333e-02
      vertex   4.399513e-02 1.812174e-02 1.416667e-02
    endloop
  endfacet
  facet normal 1.497283e-01 -9.887272e-01 0.000000e+00
    outer loop
      vertex   4.399513e-02 1.812174e-02 1.133333e-02
      vertex   4.408755e-02 1.813574e-02 1.133333e-02
      vertex   4.399513e-02 1.812174e-02 1.416667e-02
    endloop
  endfacet
  facet normal 9.868925e-01 1.613788e-01 0.000000e+00
    outer loop
      vertex   4.410864e-02 1.858693e-02 1.700000e-02
      vertex   4.417958e-02 1.815310e-02 1.700000e-02
      vertex   4.410864e-02 1.858693e-02 8.500000e-03
    endloop
  endfacet
  facet normal 9.868925e-01 1.613788e-01 0.000000e+00
    outer loop
      vertex   4.410864e-02 1.858693e-02 8.500000e-03
      vertex   4.417958e-02 1.815310e-02 1.700000e-02
      vertex   4.417958e-02 1.815310e-02 8.500000e-03
    endloop
  endfacet
  facet normal -4.029128e-02 9.991880e-01 0.000000e+00
    outer loop
      vertex   4.394720e-02 1.857001e-02 1.700000e-02
      vertex   4.394720e-02 1.857001e-02 1.558333e-02
      vertex   4.389309e-02 1.856783e-02 1.700000e-02
    endloop
  endfacet
  facet normal -4.029128e-02 9.991880e-01 0.000000e+00
    outer loop
      vertex   4.389309e-02 1.856783e-02 1.700000e-02
      vertex   4.394720e-02 1.857001e-02 1.558333e-02
      vertex   4.394720e-02 1.857001e-02 1.416667e-02
    endloop
  endfacet
  facet normal -4.029128e-02 9.991880e-01 0.000000e+00
    outer loop
      vertex   4.389309e-02 1.856783e-02 1.700000e-02
      vertex   4.394720e-02 1.857001e-02 1.416667e-02
      vertex   4.394720e-02 1.857001e-02 1.275000e-02
    endloop
  endfacet
  facet normal -6.908511e-02 9.976108e-01 0.000000e+00
    outer loop
      vertex   4.394720e-02 1.857001e-02 1.275000e-02
      vertex   4.394720e-02 1.857001e-02 1.416667e-02
      vertex   4.400117e-02 1.857375e-02 1.416667e-02
    endloop
  endfacet
  facet normal -6.908511e-02 9.976108e-01 0.000000e+00
    outer loop
      vertex   4.394720e-02 1.857001e-02 1.275000e-02
      vertex   4.400117e-02 1.857375e-02 1.416667e-02
      vertex   4.400117e-02 1.857375e-02 1.275000e-02
    endloop
  endfacet
  facet normal -1.104973e-01 9.938764e-01 0.000000e+00
    outer loop
      vertex   4.400117e-02 1.857375e-02 1.275000e-02
      vertex   4.400117e-02 1.857375e-02 1.416667e-02
      vertex   4.405496e-02 1.857973e-02 1.416667e-02
    endloop
  endfacet
  facet normal -1.104973e-01 9.938764e-01 0.000000e+00
    outer loop
      vertex   4.400117e-02 1.857375e-02 1.275000e-02
      vertex   4.405496e-02 1.857973e-02 1.416667e-02
      vertex   4.405496e-02 1.857973e-02 1.275000e-02
    endloop
  endfacet
  facet normal -1.329338e-01 9.911249e-01 0.000000e+00
    outer loop
      vertex   4.405496e-02 1.857973e-02 1.275000e-02
      vertex   4.405496e-02 1.857973e-02 1.416667e-02
      vertex   4.410864e-02 1.858693e-02 1.700000e-02
    endloop
  endfacet
  facet normal -1.329338e-01 9.911249e-01 0.000000e+00
    outer loop
      vertex   4.405496e-02 1.857973e-02 1.275000e-02
      vertex   4.410864e-02 1.858693e-02 1.700000e-02
      vertex   4.410864e-02 1.858693e-02 8.500000e-03
    endloop
  endfacet
  facet normal -6.908511e-02 9.976108e-01 0.000000e+00
    outer loop
      vertex   4.394720e-02 1.857001e-02 1.700000e-02
      vertex   4.400117e-02 1.857375e-02 1.700000e-02
      vertex   4.394720e-02 1.857001e-02 1.558333e-02
    endloop
  endfacet
  facet normal -6.908511e-02 9.976108e-01 3.382580e-16
    outer loop
      vertex   4.394720e-02 1.857001e-02 1.558333e-02
      vertex   4.400117e-02 1.857375e-02 1.700000e-02
      vertex   4.400117e-02 1.857375e-02 1.558333e-02
    endloop
  endfacet
  facet normal -6.908511e-02 9.976108e-01 0.000000e+00
    outer loop
      vertex   4.394720e-02 1.857001e-02 1.558333e-02
      vertex   4.400117e-02 1.857375e-02 1.558333e-02
      vertex   4.394720e-02 1.857001e-02 1.416667e-02
    endloop
  endfacet
  facet normal -6.908511e-02 9.976108e-01 0.000000e+00
    outer loop
      vertex   4.394720e-02 1.857001e-02 1.416667e-02
      vertex   4.400117e-02 1.857375e-02 1.558333e-02
      vertex   4.400117e-02 1.857375e-02 1.416667e-02
    endloop
  endfacet
  facet normal -1.104973e-01 9.938764e-01 5.412203e-16
    outer loop
      vertex   4.400117e-02 1.857375e-02 1.700000e-02
      vertex   4.405496e-02 1.857973e-02 1.700000e-02
      vertex   4.400117e-02 1.857375e-02 1.558333e-02
    endloop
  endfacet
  facet normal -1.104973e-01 9.938764e-01 0.000000e+00
    outer loop
      vertex   4.400117e-02 1.857375e-02 1.558333e-02
      vertex   4.405496e-02 1.857973e-02 1.700000e-02
      vertex   4.405496e-02 1.857973e-02 1.558333e-02
    endloop
  endfacet
  facet normal -1.104973e-01 9.938764e-01 0.000000e+00
    outer loop
      vertex   4.400117e-02 1.857375e-02 1.558333e-02
      vertex   4.405496e-02 1.857973e-02 1.558333e-02
      vertex   4.400117e-02 1.857375e-02 1.416667e-02
    endloop
  endfacet
  facet normal -1.104973e-01 9.938764e-01 0.000000e+00
    outer loop
      vertex   4.400117e-02 1.857375e-02 1.416667e-02
      vertex   4.405496e-02 1.857973e-02 1.558333e-02
      vertex   4.405496e-02 1.857973e-02 1.416667e-02
    endloop
  endfacet
  facet normal -1.329338e-01 9.911249e-01 0.000000e+00
    outer loop
      vertex   4.405496e-02 1.857973e-02 1.700000e-02
      vertex   4.410864e-02 1.858693e-02 1.700000e-02
      vertex   4.405496e-02 1.857973e-02 1.558333e-02
    endloop
  endfacet
  facet normal -1.329338e-01 9.911249e-01 0.000000e+00
    outer loop
      vertex   4.405496e-02 1.857973e-02 1.558333e-02
      vertex   4.410864e-02 1.858693e-02 1.700000e-02
      vertex   4.405496e-02 1.857973e-02 1.416667e-02
    endloop
  endfacet
  facet normal -1.329338e-01 9.911249e-01 0.000000e+00
    outer loop
      vertex   4.405496e-02 1.857973e-02 8.500000e-03
      vertex   4.405496e-02 1.857973e-02 9.916667e-03
      vertex   4.410864e-02 1.858693e-02 8.500000e-03
    endloop
  endfacet
  facet normal -1.329338e-01 9.911249e-01 0.000000e+00
    outer loop
      vertex   4.410864e-02 1.858693e-02 8.500000e-03
      vertex   4.405496e-02 1.857973e-02 9.916667e-03
      vertex   4.405496e-02 1.857973e-02 1.133333e-02
    endloop
  endfacet
  facet normal -1.329338e-01 9.911249e-01 0.000000e+00
    outer loop
      vertex   4.410864e-02 1.858693e-02 8.500000e-03
      vertex   4.405496e-02 1.857973e-02 1.133333e-02
      vertex   4.405496e-02 1.857973e-02 1.275000e-02
    endloop
  endfacet
  facet normal -1.104973e-01 9.938764e-01 0.000000e+00
    outer loop
      vertex   4.405496e-02 1.857973e-02 1.275000e-02
      vertex   4.405496e-02 1.857973e-02 1.133333e-02
      vertex   4.400117e-02 1.857375e-02 1.133333e-02
    endloop
  endfacet
  facet normal -1.104973e-01 9.938764e-01 0.000000e+00
    outer loop
      vertex   4.405496e-02 1.857973e-02 1.275000e-02
      vertex   4.400117e-02 1.857375e-02 1.133333e-02
      vertex   4.400117e-02 1.857375e-02 1.275000e-02
    endloop
  endfacet
  facet normal -6.908511e-02 9.976108e-01 0.000000e+00
    outer loop
      vertex   4.400117e-02 1.857375e-02 1.275000e-02
      vertex   4.400117e-02 1.857375e-02 1.133333e-02
      vertex   4.394720e-02 1.857001e-02 1.133333e-02
    endloop
  endfacet
  facet normal -6.908511e-02 9.976108e-01 0.000000e+00
    outer loop
      vertex   4.400117e-02 1.857375e-02 1.275000e-02
      vertex   4.394720e-02 1.857001e-02 1.133333e-02
      vertex   4.394720e-02 1.857001e-02 1.275000e-02
    endloop
  endfacet
  facet normal -4.029128e-02 9.991880e-01 0.000000e+00
    outer loop
      vertex   4.394720e-02 1.857001e-02 1.275000e-02
      vertex   4.394720e-02 1.857001e-02 1.133333e-02
      vertex   4.389309e-02 1.856783e-02 8.500000e-03
    endloop
  endfacet
  facet normal -4.029128e-02 9.991880e-01 0.000000e+00
    outer loop
      vertex   4.394720e-02 1.857001e-02 1.275000e-02
      vertex   4.389309e-02 1.856783e-02 8.500000e-03
      vertex   4.389309e-02 1.856783e-02 1.700000e-02
    endloop
  endfacet
  facet normal -1.104973e-01 9.938764e-01 0.000000e+00
    outer loop
      vertex   4.405496e-02 1.857973e-02 8.500000e-03
      vertex   4.400117e-02 1.857375e-02 8.500000e-03
      vertex   4.405496e-02 1.857973e-02 9.916667e-03
    endloop
  endfacet
  facet normal -1.104973e-01 9.938764e-01 -5.414885e-16
    outer loop
      vertex   4.405496e-02 1.857973e-02 9.916667e-03
      vertex   4.400117e-02 1.857375e-02 8.500000e-03
      vertex   4.400117e-02 1.857375e-02 9.916667e-03
    endloop
  endfacet
  facet normal -1.104973e-01 9.938764e-01 0.000000e+00
    outer loop
      vertex   4.405496e-02 1.857973e-02 9.916667e-03
      vertex   4.400117e-02 1.857375e-02 9.916667e-03
      vertex   4.405496e-02 1.857973e-02 1.133333e-02
    endloop
  endfacet
  facet normal -1.104973e-01 9.938764e-01 0.000000e+00
    outer loop
      vertex   4.405496e-02 1.857973e-02 1.133333e-02
      vertex   4.400117e-02 1.857375e-02 9.916667e-03
      vertex   4.400117e-02 1.857375e-02 1.133333e-02
    endloop
  endfacet
  facet normal -6.908511e-02 9.976108e-01 -3.383818e-16
    outer loop
      vertex   4.400117e-02 1.857375e-02 8.500000e-03
      vertex   4.394720e-02 1.857001e-02 8.500000e-03
      vertex   4.400117e-02 1.857375e-02 9.916667e-03
    endloop
  endfacet
  facet normal -6.908511e-02 9.976108e-01 0.000000e+00
    outer loop
      vertex   4.400117e-02 1.857375e-02 9.916667e-03
      vertex   4.394720e-02 1.857001e-02 8.500000e-03
      vertex   4.394720e-02 1.857001e-02 9.916667e-03
    endloop
  endfacet
  facet normal -6.908511e-02 9.976108e-01 0.000000e+00
    outer loop
      vertex   4.400117e-02 1.857375e-02 9.916667e-03
      vertex   4.394720e-02 1.857001e-02 9.916667e-03
      vertex   4.400117e-02 1.857375e-02 1.133333e-02
    endloop
  endfacet
  facet normal -6.908511e-02 9.976108e-01 0.000000e+00
    outer loop
      vertex   4.400117e-02 1.857375e-02 1.133333e-02
      vertex   4.394720e-02 1.857001e-02 9.916667e-03
      vertex   4.394720e-02 1.857001e-02 1.133333e-02
    endloop
  endfacet
  facet normal -4.029128e-02 9.991880e-01 0.000000e+00
    outer loop
      vertex   4.394720e-02 1.857001e-02 8.500000e-03
      vertex   4.389309e-02 1.856783e-02 8.500000e-03
      vertex   4.394720e-02 1.857001e-02 9.916667e-03
    endloop
  endfacet
  facet normal -4.029128e-02 9.991880e-01 0.000000e+00
    outer loop
      vertex   4.394720e-02 1.857001e-02 9.916667e-03
      vertex   4.389309e-02 1.856783e-02 8.500000e-03
      vertex   4.394720e-02 1.857001e-02 1.133333e-02
    endloop
  endfacet
  facet normal 0.000000e+00 0.000000e+00 1.000000e+00
    outer loop
      vertex   4.417958e-02 1.815310e-02 1.700000e-02
      vertex   4.410864e-02 1.858693e-02 1.700000e-02
      vertex   4.408755e-02 1.813574e-02 1.700000e-02
    endloop
  endfacet
  facet normal 0.000000e+00 -0.000000e+00 1.000000e+00
    outer loop
      vertex   4.408755e-02 1.813574e-02 1.700000e-02
      vertex   4.410864e-02 1.858693e-02 1.700000e-02
      vertex   4.405496e-02 1.857973e-02 1.700000e-02
    endloop
  endfacet
  facet normal 0.000000e+00 0.000000e+00 1.000000e+00
    outer loop
      vertex   4.408755e-02 1.813574e-02 1.700000e-02
      vertex   4.405496e-02 1.857973e-02 1.700000e-02
      vertex   4.399513e-02 1.812174e-02 1.700000e-02
    endloop
  endfacet
  facet normal 0.000000e+00 0.000000e+00 1.000000e+00
    outer loop
      vertex   4.399513e-02 1.812174e-02 1.700000e-02
      vertex   4.405496e-02 1.857973e-02 1.700000e-02
      vertex   4.400117e-02 1.857375e-02 1.700000e-02
    endloop
  endfacet
  facet normal 0.000000e+00 -0.000000e+00 1.000000e+00
    outer loop
      vertex   4.399513e-02 1.812174e-02 1.700000e-02
      vertex   4.400117e-02 1.857375e-02 1.700000e-02
      vertex   4.394720e-02 1.857001e-02 1.700000e-02
    endloop
  endfacet
  facet normal 0.000000e+00 0.000000e+00 1.000000e+00
    outer loop
      vertex   4.399513e-02 1.812174e-02 1.700000e-02
      vertex   4.394720e-02 1.857001e-02 1.700000e-02
      vertex   4.390204e-02 1.811368e-02 1.700000e-02
    endloop
  endfacet
  facet normal 0.000000e+00 -0.000000e+00 1.000000e+00
    outer loop
      vertex   4.390204e-02 1.811368e-02 1.700000e-02
      vertex   4.394720e-02 1.857001e-02 1.700000e-02
      vertex   4.389309e-02 1.856783e-02 1.700000e-02
    endloop
  endfacet
  facet normal 0.000000e+00 0.000000e+00 1.000000e+00
    outer loop
      vertex   4.390204e-02 1.811368e-02 1.700000e-02
      vertex   4.389309e-02 1.856783e-02 1.700000e-02
      vertex   4.384945e-02 1.856928e-02 1.700000e-02
    endloop
  endfacet
  facet normal 0.000000e+00 0.000000e+00 1.000000e+00
    outer loop
      vertex   4.390204e-02 1.811368e-02 1.700000e-02
      vertex   4.384945e-02 1.856928e-02 1.700000e-02
      vertex   4.380850e-02 1.810944e-02 1.700000e-02
    endloop
  endfacet
  facet normal 0.000000e+00 -0.000000e+00 1.000000e+00
    outer loop
      vertex   4.380850e-02 1.810944e-02 1.700000e-02
      vertex   4.384945e-02 1.856928e-02 1.700000e-02
      vertex   4.380666e-02 1.857447e-02 1.700000e-02
    endloop
  endfacet
  facet normal 0.000000e+00 0.000000e+00 1.000000e+00
    outer loop
      vertex   4.380850e-02 1.810944e-02 1.700000e-02
      vertex   4.380666e-02 1.857447e-02 1.700000e-02
      vertex   4.376543e-02 1.858652e-02 1.700000e-02
    endloop
  endfacet
  facet normal 0.000000e+00 0.000000e+00 1.000000e+00
    outer loop
      vertex   4.380850e-02 1.810944e-02 1.700000e-02
      vertex   4.376543e-02 1.858652e-02 1.700000e-02
      vertex   4.370096e-02 1.811300e-02 1.700000e-02
    endloop
  endfacet
  facet normal 0.000000e+00 0.000000e+00 1.000000e+00
    outer loop
      vertex   4.370096e-02 1.811300e-02 1.700000e-02
      vertex   4.376543e-02 1.858652e-02 1.700000e-02
      vertex   4.372529e-02 1.860330e-02 1.700000e-02
    endloop
  endfacet
  facet normal 0.000000e+00 -0.000000e+00 1.000000e+00
    outer loop
      vertex   4.370096e-02 1.811300e-02 1.700000e-02
      vertex   4.372529e-02 1.860330e-02 1.700000e-02
      vertex   4.369890e-02 1.862255e-02 1.700000e-02
    endloop
  endfacet
  facet normal 0.000000e+00 0.000000e+00 1.000000e+00
    outer loop
      vertex   4.369890e-02 1.862255e-02 1.700000e-02
      vertex   4.367535e-02 1.864430e-02 1.700000e-02
      vertex   4.370096e-02 1.811300e-02 1.700000e-02
    endloop
  endfacet
  facet normal 0.000000e+00 0.000000e+00 1.000000e+00
    outer loop
      vertex   4.370096e-02 1.811300e-02 1.700000e-02
      vertex   4.367535e-02 1.864430e-02 1.700000e-02
      vertex   4.359536e-02 1.812543e-02 1.700000e-02
    endloop
  endfacet
  facet normal 0.000000e+00 0.000000e+00 1.000000e+00
    outer loop
      vertex   4.359536e-02 1.812543e-02 1.700000e-02
      vertex   4.367535e-02 1.864430e-02 1.700000e-02
      vertex   4.365657e-02 1.867027e-02 1.700000e-02
    endloop
  endfacet
  facet normal 0.000000e+00 0.000000e+00 1.000000e+00
    outer loop
      vertex   4.359536e-02 1.812543e-02 1.700000e-02
      vertex   4.365657e-02 1.867027e-02 1.700000e-02
      vertex   4.364070e-02 1.869880e-02 1.700000e-02
    endloop
  endfacet
  facet normal 0.000000e+00 -0.000000e+00 1.000000e+00
    outer loop
      vertex   4.359536e-02 1.812543e-02 1.700000e-02
      vertex   4.364070e-02 1.869880e-02 1.700000e-02
      vertex   4.349334e-02 1.815413e-02 1.700000e-02
    endloop
  endfacet
  facet normal 0.000000e+00 0.000000e+00 1.000000e+00
    outer loop
      vertex   4.349334e-02 1.815413e-02 1.700000e-02
      vertex   4.364070e-02 1.869880e-02 1.700000e-02
      vertex   4.362636e-02 1.876540e-02 1.700000e-02
    endloop
  endfacet
  facet normal 0.000000e+00 -0.000000e+00 1.000000e+00
    outer loop
      vertex   4.349334e-02 1.815413e-02 1.700000e-02
      vertex   4.362636e-02 1.876540e-02 1.700000e-02
      vertex   4.339377e-02 1.819402e-02 1.700000e-02
    endloop
  endfacet
  facet normal 0.000000e+00 0.000000e+00 1.000000e+00
    outer loop
      vertex   4.339377e-02 1.819402e-02 1.700000e-02
      vertex   4.362636e-02 1.876540e-02 1.700000e-02
      vertex   4.361730e-02 1.883263e-02 1.700000e-02
    endloop
  endfacet
  facet normal 0.000000e+00 -0.000000e+00 1.000000e+00
    outer loop
      vertex   4.339377e-02 1.819402e-02 1.700000e-02
      vertex   4.361730e-02 1.883263e-02 1.700000e-02
      vertex   4.332938e-02 1.823804e-02 1.700000e-02
    endloop
  endfacet
  facet normal 0.000000e+00 0.000000e+00 1.000000e+00
    outer loop
      vertex   4.332938e-02 1.823804e-02 1.700000e-02
      vertex   4.361730e-02 1.883263e-02 1.700000e-02
      vertex   4.361445e-02 1.890059e-02 1.700000e-02
    endloop
  endfacet
  facet normal 0.000000e+00 -0.000000e+00 1.000000e+00
    outer loop
      vertex   4.332938e-02 1.823804e-02 1.700000e-02
      vertex   4.361445e-02 1.890059e-02 1.700000e-02
      vertex   4.327167e-02 1.828823e-02 1.700000e-02
    endloop
  endfacet
  facet normal 0.000000e+00 -0.000000e+00 1.000000e+00
    outer loop
      vertex   4.327167e-02 1.828823e-02 1.700000e-02
      vertex   4.361445e-02 1.890059e-02 1.700000e-02
      vertex   4.312601e-02 1.884934e-02 1.700000e-02
    endloop
  endfacet
  facet normal 0.000000e+00 0.000000e+00 1.000000e+00
    outer loop
      vertex   4.327167e-02 1.828823e-02 1.700000e-02
      vertex   4.312601e-02 1.884934e-02 1.700000e-02
      vertex   4.322547e-02 1.834902e-02 1.700000e-02
    endloop
  endfacet
  facet normal 0.000000e+00 0.000000e+00 1.000000e+00
    outer loop
      vertex   4.322547e-02 1.834902e-02 1.700000e-02
      vertex   4.312601e-02 1.884934e-02 1.700000e-02
      vertex   4.313288e-02 1.870337e-02 1.700000e-02
    endloop
  endfacet
  facet normal 0.000000e+00 0.000000e+00 1.000000e+00
    outer loop
      vertex   4.322547e-02 1.834902e-02 1.700000e-02
      vertex   4.313288e-02 1.870337e-02 1.700000e-02
      vertex   4.315379e-02 1.855915e-02 1.700000e-02
    endloop
  endfacet
  facet normal 0.000000e+00 0.000000e+00 1.000000e+00
    outer loop
      vertex   4.312601e-02 1.884934e-02 1.700000e-02
      vertex   4.361445e-02 1.890059e-02 1.700000e-02
      vertex   4.312638e-02 1.899621e-02 1.700000e-02
    endloop
  endfacet
  facet normal 0.000000e+00 0.000000e+00 1.000000e+00
    outer loop
      vertex   4.312638e-02 1.899621e-02 1.700000e-02
      vertex   4.361445e-02 1.890059e-02 1.700000e-02
      vertex   4.361478e-02 1.896892e-02 1.700000e-02
    endloop
  endfacet
  facet normal -0.000000e+00 0.000000e+00 1.000000e+00
    outer loop
      vertex   4.312638e-02 1.899621e-02 1.700000e-02
      vertex   4.361478e-02 1.896892e-02 1.700000e-02
      vertex   4.361478e-02 2.066333e-02 1.700000e-02
    endloop
  endfacet
  facet normal 0.000000e+00 0.000000e+00 1.000000e+00
    outer loop
      vertex   4.410864e-02 2.066333e-02 1.700000e-02
      vertex   4.361478e-02 2.104532e-02 1.700000e-02
      vertex   4.361478e-02 2.066333e-02 1.700000e-02
    endloop
  endfacet
  facet normal 0.000000e+00 -0.000000e+00 1.000000e+00
    outer loop
      vertex   4.361478e-02 2.066333e-02 1.700000e-02
      vertex   4.361478e-02 2.104532e-02 1.700000e-02
      vertex   4.312638e-02 2.104532e-02 1.700000e-02
    endloop
  endfacet
  facet normal 0.000000e+00 0.000000e+00 1.000000e+00
    outer loop
      vertex   4.361478e-02 2.066333e-02 1.700000e-02
      vertex   4.312638e-02 2.104532e-02 1.700000e-02
      vertex   4.312638e-02 2.066333e-02 1.700000e-02
    endloop
  endfacet
  facet normal 0.000000e+00 -0.000000e+00 1.000000e+00
    outer loop
      vertex   4.312638e-02 2.066333e-02 1.700000e-02
      vertex   4.312638e-02 2.104532e-02 1.700000e-02
      vertex   4.276622e-02 2.104532e-02 1.700000e-02
    endloop
  endfacet
  facet normal 0.000000e+00 0.000000e+00 1.000000e+00
    outer loop
      vertex   4.312638e-02 2.066333e-02 1.700000e-02
      vertex   4.276622e-02 2.104532e-02 1.700000e-02
      vertex   4.276622e-02 2.066333e-02 1.700000e-02
    endloop
  endfacet
  facet normal 0.000000e+00 -0.000000e+00 1.000000e+00
    outer loop
      vertex   4.410864e-02 2.066333e-02 1.700000e-02
      vertex   4.410864e-02 2.104532e-02 1.700000e-02
      vertex   4.361478e-02 2.104532e-02 1.700000e-02
    endloop
  endfacet
  facet normal 0.000000e+00 0.000000e+00 1.000000e+00
    outer loop
      vertex   4.361478e-02 2.205760e-02 1.700000e-02
      vertex   4.312638e-02 2.176292e-02 1.700000e-02
      vertex   4.361478e-02 2.104532e-02 1.700000e-02
    endloop
  endfacet
  facet normal 0.000000e+00 0.000000e+00 1.000000e+00
    outer loop
      vertex   4.361478e-02 2.104532e-02 1.700000e-02
      vertex   4.312638e-02 2.176292e-02 1.700000e-02
      vertex   4.312638e-02 2.104532e-02 1.700000e-02
    endloop
  endfacet
  facet normal -0.000000e+00 0.000000e+00 1.000000e+00
    outer loop
      vertex   4.312638e-02 2.066333e-02 1.700000e-02
      vertex   4.312638e-02 1.899621e-02 1.700000e-02
      vertex   4.361478e-02 2.066333e-02 1.700000e-02
    endloop
  endfacet
  facet normal 0.000000e+00 0.000000e+00 1.000000e+00
    outer loop
      vertex   4.315379e-02 1.855915e-02 1.700000e-02
      vertex   4.318640e-02 1.841640e-02 1.700000e-02
      vertex   4.322547e-02 1.834902e-02 1.700000e-02
    endloop
  endfacet
  facet normal 0.000000e+00 0.000000e+00 -1.000000e+00
    outer loop
      vertex   4.384945e-02 1.856928e-02 8.500000e-03
      vertex   4.389309e-02 1.856783e-02 8.500000e-03
      vertex   4.390204e-02 1.811368e-02 8.500000e-03
    endloop
  endfacet
  facet normal 0.000000e+00 0.000000e+00 -1.000000e+00
    outer loop
      vertex   4.390204e-02 1.811368e-02 8.500000e-03
      vertex   4.389309e-02 1.856783e-02 8.500000e-03
      vertex   4.394720e-02 1.857001e-02 8.500000e-03
    endloop
  endfacet
  facet normal 0.000000e+00 0.000000e+00 -1.000000e+00
    outer loop
      vertex   4.390204e-02 1.811368e-02 8.500000e-03
      vertex   4.394720e-02 1.857001e-02 8.500000e-03
      vertex   4.399513e-02 1.812174e-02 8.500000e-03
    endloop
  endfacet
  facet normal 0.000000e+00 0.000000e+00 -1.000000e+00
    outer loop
      vertex   4.399513e-02 1.812174e-02 8.500000e-03
      vertex   4.394720e-02 1.857001e-02 8.500000e-03
      vertex   4.400117e-02 1.857375e-02 8.500000e-03
    endloop
  endfacet
  facet normal 0.000000e+00 0.000000e+00 -1.000000e+00
    outer loop
      vertex   4.399513e-02 1.812174e-02 8.500000e-03
      vertex   4.400117e-02 1.857375e-02 8.500000e-03
      vertex   4.405496e-02 1.857973e-02 8.500000e-03
    endloop
  endfacet
  facet normal 0.000000e+00 0.000000e+00 -1.000000e+00
    outer loop
      vertex   4.399513e-02 1.812174e-02 8.500000e-03
      vertex   4.405496e-02 1.857973e-02 8.500000e-03
      vertex   4.408755e-02 1.813574e-02 8.500000e-03
    endloop
  endfacet
  facet normal 0.000000e+00 0.000000e+00 -1.000000e+00
    outer loop
      vertex   4.408755e-02 1.813574e-02 8.500000e-03
      vertex   4.405496e-02 1.857973e-02 8.500000e-03
      vertex   4.410864e-02 1.858693e-02 8.500000e-03
    endloop
  endfacet
  facet normal 0.000000e+00 0.000000e+00 -1.000000e+00
    outer loop
      vertex   4.408755e-02 1.813574e-02 8.500000e-03
      vertex   4.410864e-02 1.858693e-02 8.500000e-03
      vertex   4.417958e-02 1.815310e-02 8.500000e-03
    endloop
  endfacet
  facet normal -0.000000e+00 0.000000e+00 -1.000000e+00
    outer loop
      vertex   4.390204e-02 1.811368e-02 8.500000e-03
      vertex   4.380850e-02 1.810944e-02 8.500000e-03
      vertex   4.384945e-02 1.856928e-02 8.500000e-03
    endloop
  endfacet
  facet normal -0.000000e+00 0.000000e+00 -1.000000e+00
    outer loop
      vertex   4.384945e-02 1.856928e-02 8.500000e-03
      vertex   4.380850e-02 1.810944e-02 8.500000e-03
      vertex   4.380666e-02 1.857447e-02 8.500000e-03
    endloop
  endfacet
  facet normal -0.000000e+00 -0.000000e+00 -1.000000e+00
    outer loop
      vertex   4.380666e-02 1.857447e-02 8.500000e-03
      vertex   4.380850e-02 1.810944e-02 8.500000e-03
      vertex   4.376543e-02 1.858652e-02 8.500000e-03
    endloop
  endfacet
  facet normal 0.000000e+00 -0.000000e+00 -1.000000e+00
    outer loop
      vertex   4.376543e-02 1.858652e-02 8.500000e-03
      vertex   4.380850e-02 1.810944e-02 8.500000e-03
      vertex   4.370096e-02 1.811300e-02 8.500000e-03
    endloop
  endfacet
  facet normal -0.000000e+00 0.000000e+00 -1.000000e+00
    outer loop
      vertex   4.376543e-02 1.858652e-02 8.500000e-03
      vertex   4.370096e-02 1.811300e-02 8.500000e-03
      vertex   4.372529e-02 1.860330e-02 8.500000e-03
    endloop
  endfacet
  facet normal -0.000000e+00 0.000000e+00 -1.000000e+00
    outer loop
      vertex   4.372529e-02 1.860330e-02 8.500000e-03
      vertex   4.370096e-02 1.811300e-02 8.500000e-03
      vertex   4.369890e-02 1.862255e-02 8.500000e-03
    endloop
  endfacet
  facet normal -0.000000e+00 -0.000000e+00 -1.000000e+00
    outer loop
      vertex   4.369890e-02 1.862255e-02 8.500000e-03
      vertex   4.370096e-02 1.811300e-02 8.500000e-03
      vertex   4.367535e-02 1.864430e-02 8.500000e-03
    endloop
  endfacet
  facet normal 0.000000e+00 -0.000000e+00 -1.000000e+00
    outer loop
      vertex   4.367535e-02 1.864430e-02 8.500000e-03
      vertex   4.370096e-02 1.811300e-02 8.500000e-03
      vertex   4.359536e-02 1.812543e-02 8.500000e-03
    endloop
  endfacet
  facet normal -0.000000e+00 0.000000e+00 -1.000000e+00
    outer loop
      vertex   4.367535e-02 1.864430e-02 8.500000e-03
      vertex   4.359536e-02 1.812543e-02 8.500000e-03
      vertex   4.365657e-02 1.867027e-02 8.500000e-03
    endloop
  endfacet
  facet normal -0.000000e+00 0.000000e+00 -1.000000e+00
    outer loop
      vertex   4.365657e-02 1.867027e-02 8.500000e-03
      vertex   4.359536e-02 1.812543e-02 8.500000e-03
      vertex   4.364070e-02 1.869880e-02 8.500000e-03
    endloop
  endfacet
  facet normal 0.000000e+00 0.000000e+00 -1.000000e+00
    outer loop
      vertex   4.364070e-02 1.869880e-02 8.500000e-03
      vertex   4.359536e-02 1.812543e-02 8.500000e-03
      vertex   4.349334e-02 1.815413e-02 8.500000e-03
    endloop
  endfacet
  facet normal -0.000000e+00 0.000000e+00 -1.000000e+00
    outer loop
      vertex   4.364070e-02 1.869880e-02 8.500000e-03
      vertex   4.349334e-02 1.815413e-02 8.500000e-03
      vertex   4.362636e-02 1.876540e-02 8.500000e-03
    endloop
  endfacet
  facet normal 0.000000e+00 0.000000e+00 -1.000000e+00
    outer loop
      vertex   4.362636e-02 1.876540e-02 8.500000e-03
      vertex   4.349334e-02 1.815413e-02 8.500000e-03
      vertex   4.339377e-02 1.819402e-02 8.500000e-03
    endloop
  endfacet
  facet normal -0.000000e+00 0.000000e+00 -1.000000e+00
    outer loop
      vertex   4.362636e-02 1.876540e-02 8.500000e-03
      vertex   4.339377e-02 1.819402e-02 8.500000e-03
      vertex   4.361730e-02 1.883263e-02 8.500000e-03
    endloop
  endfacet
  facet normal 0.000000e+00 0.000000e+00 -1.000000e+00
    outer loop
      vertex   4.361730e-02 1.883263e-02 8.500000e-03
      vertex   4.339377e-02 1.819402e-02 8.500000e-03
      vertex   4.332938e-02 1.823804e-02 8.500000e-03
    endloop
  endfacet
  facet normal -0.000000e+00 0.000000e+00 -1.000000e+00
    outer loop
      vertex   4.361730e-02 1.883263e-02 8.500000e-03
      vertex   4.332938e-02 1.823804e-02 8.500000e-03
      vertex   4.361445e-02 1.890059e-02 8.500000e-03
    endloop
  endfacet
  facet normal 0.000000e+00 0.000000e+00 -1.000000e+00
    outer loop
      vertex   4.361445e-02 1.890059e-02 8.500000e-03
      vertex   4.332938e-02 1.823804e-02 8.500000e-03
      vertex   4.327167e-02 1.828823e-02 8.500000e-03
    endloop
  endfacet
  facet normal 0.000000e+00 0.000000e+00 -1.000000e+00
    outer loop
      vertex   4.361445e-02 1.890059e-02 8.500000e-03
      vertex   4.327167e-02 1.828823e-02 8.500000e-03
      vertex   4.312601e-02 1.884934e-02 8.500000e-03
    endloop
  endfacet
  facet normal 0.000000e+00 0.000000e+00 -1.000000e+00
    outer loop
      vertex   4.312601e-02 1.884934e-02 8.500000e-03
      vertex   4.327167e-02 1.828823e-02 8.500000e-03
      vertex   4.322547e-02 1.834902e-02 8.500000e-03
    endloop
  endfacet
  facet normal 0.000000e+00 0.000000e+00 -1.000000e+00
    outer loop
      vertex   4.312601e-02 1.884934e-02 8.500000e-03
      vertex   4.322547e-02 1.834902e-02 8.500000e-03
      vertex   4.313288e-02 1.870337e-02 8.500000e-03
    endloop
  endfacet
  facet normal 0.000000e+00 0.000000e+00 -1.000000e+00
    outer loop
      vertex   4.313288e-02 1.870337e-02 8.500000e-03
      vertex   4.322547e-02 1.834902e-02 8.500000e-03
      vertex   4.315379e-02 1.855915e-02 8.500000e-03
    endloop
  endfacet
  facet normal 0.000000e+00 0.000000e+00 -1.000000e+00
    outer loop
      vertex   4.315379e-02 1.855915e-02 8.500000e-03
      vertex   4.322547e-02 1.834902e-02 8.500000e-03
      vertex   4.318640e-02 1.841640e-02 8.500000e-03
    endloop
  endfacet
  facet normal 0.000000e+00 0.000000e+00 -1.000000e+00
    outer loop
      vertex   4.312601e-02 1.884934e-02 8.500000e-03
      vertex   4.312638e-02 1.899621e-02 8.500000e-03
      vertex   4.361445e-02 1.890059e-02 8.500000e-03
    endloop
  endfacet
  facet normal 0.000000e+00 0.000000e+00 -1.000000e+00
    outer loop
      vertex   4.361445e-02 1.890059e-02 8.500000e-03
      vertex   4.312638e-02 1.899621e-02 8.500000e-03
      vertex   4.361478e-02 1.896892e-02 8.500000e-03
    endloop
  endfacet
  facet normal 0.000000e+00 0.000000e+00 -1.000000e+00
    outer loop
      vertex   4.361478e-02 1.896892e-02 8.500000e-03
      vertex   4.312638e-02 1.899621e-02 8.500000e-03
      vertex   4.361478e-02 2.066333e-02 8.500000e-03
    endloop
  endfacet
  facet normal 0.000000e+00 0.000000e+00 -1.000000e+00
    outer loop
      vertex   4.361478e-02 2.066333e-02 8.500000e-03
      vertex   4.312638e-02 1.899621e-02 8.500000e-03
      vertex   4.312638e-02 2.066333e-02 8.500000e-03
    endloop
  endfacet
  facet normal -0.000000e+00 0.000000e+00 -1.000000e+00
    outer loop
      vertex   4.361478e-02 2.066333e-02 8.500000e-03
      vertex   4.312638e-02 2.066333e-02 8.500000e-03
      vertex   4.361478e-02 2.104532e-02 8.500000e-03
    endloop
  endfacet
  facet normal -0.000000e+00 0.000000e+00 -1.000000e+00
    outer loop
      vertex   4.361478e-02 2.104532e-02 8.500000e-03
      vertex   4.312638e-02 2.066333e-02 8.500000e-03
      vertex   4.312638e-02 2.104532e-02 8.500000e-03
    endloop
  endfacet
  facet normal 0.000000e+00 0.000000e+00 -1.000000e+00
    outer loop
      vertex   4.361478e-02 2.104532e-02 8.500000e-03
      vertex   4.312638e-02 2.104532e-02 8.500000e-03
      vertex   4.312638e-02 2.176292e-02 8.500000e-03
    endloop
  endfacet
  facet normal 0.000000e+00 0.000000e+00 -1.000000e+00
    outer loop
      vertex   4.312638e-02 2.066333e-02 8.500000e-03
      vertex   4.276622e-02 2.066333e-02 8.500000e-03
      vertex   4.312638e-02 2.104532e-02 8.500000e-03
    endloop
  endfacet
  facet normal -0.000000e+00 0.000000e+00 -1.000000e+00
    outer loop
      vertex   4.312638e-02 2.104532e-02 8.500000e-03
      vertex   4.276622e-02 2.066333e-02 8.500000e-03
      vertex   4.276622e-02 2.104532e-02 8.500000e-03
    endloop
  endfacet
  facet normal 0.000000e+00 0.000000e+00 -1.000000e+00
    outer loop
      vertex   4.312638e-02 2.176292e-02 8.500000e-03
      vertex   4.361478e-02 2.205760e-02 8.500000e-03
      vertex   4.361478e-02 2.104532e-02 8.500000e-03
    endloop
  endfacet
  facet normal 0.000000e+00 0.000000e+00 -1.000000e+00
    outer loop
      vertex   4.361478e-02 2.104532e-02 8.500000e-03
      vertex   4.410864e-02 2.104532e-02 8.500000e-03
      vertex   4.361478e-02 2.066333e-02 8.500000e-03
    endloop
  endfacet
  facet normal 0.000000e+00 0.000000e+00 -1.000000e+00
    outer loop
      vertex   4.361478e-02 2.066333e-02 8.500000e-03
      vertex   4.410864e-02 2.104532e-02 8.500000e-03
      vertex   4.410864e-02 2.066333e-02 8.500000e-03
    endloop
  endfacet
endsolid
