solid ASCII
  facet normal -9.338692e-02 9.956299e-01 0.000000e+00
    outer loop
      vertex   3.829691e-02 1.848598e-02 8.500000e-03
      vertex   3.829691e-02 1.848598e-02 1.700000e-02
      vertex   3.842955e-02 1.849842e-02 1.275000e-02
    endloop
  endfacet
  facet normal -9.338692e-02 9.956299e-01 -6.603019e-16
    outer loop
      vertex   3.842955e-02 1.849842e-02 1.275000e-02
      vertex   3.829691e-02 1.848598e-02 1.700000e-02
      vertex   3.842955e-02 1.849842e-02 1.700000e-02
    endloop
  endfacet
  facet normal -2.275940e-01 9.737561e-01 -4.233281e-16
    outer loop
      vertex   3.842955e-02 1.849842e-02 1.275000e-02
      vertex   3.842955e-02 1.849842e-02 1.700000e-02
      vertex   3.855582e-02 1.852793e-02 1.700000e-02
    endloop
  endfacet
  facet normal -2.275940e-01 9.737561e-01 3.707350e-16
    outer loop
      vertex   3.842955e-02 1.849842e-02 1.275000e-02
      vertex   3.855582e-02 1.852793e-02 1.700000e-02
      vertex   3.855582e-02 1.852793e-02 1.275000e-02
    endloop
  endfacet
  facet normal -4.534234e-01 8.912952e-01 7.402957e-16
    outer loop
      vertex   3.855582e-02 1.852793e-02 1.275000e-02
      vertex   3.855582e-02 1.852793e-02 1.700000e-02
      vertex   3.867120e-02 1.858662e-02 1.700000e-02
    endloop
  endfacet
  facet normal -4.534234e-01 8.912952e-01 1.202803e-17
    outer loop
      vertex   3.855582e-02 1.852793e-02 1.275000e-02
      vertex   3.867120e-02 1.858662e-02 1.700000e-02
      vertex   3.867120e-02 1.858662e-02 1.275000e-02
    endloop
  endfacet
  facet normal -5.766929e-01 8.169610e-01 2.746372e-16
    outer loop
      vertex   3.867120e-02 1.858662e-02 1.275000e-02
      vertex   3.867120e-02 1.858662e-02 1.700000e-02
      vertex   3.877986e-02 1.866333e-02 1.700000e-02
    endloop
  endfacet
  facet normal -5.766929e-01 8.169610e-01 0.000000e+00
    outer loop
      vertex   3.867120e-02 1.858662e-02 1.275000e-02
      vertex   3.877986e-02 1.866333e-02 1.700000e-02
      vertex   3.877986e-02 1.866333e-02 8.500000e-03
    endloop
  endfacet
  facet normal -5.766929e-01 8.169610e-01 -2.751051e-16
    outer loop
      vertex   3.877986e-02 1.866333e-02 8.500000e-03
      vertex   3.867120e-02 1.858662e-02 8.500000e-03
      vertex   3.867120e-02 1.858662e-02 1.275000e-02
    endloop
  endfacet
  facet normal -4.534234e-01 8.912952e-01 -1.269536e-17
    outer loop
      vertex   3.867120e-02 1.858662e-02 1.275000e-02
      vertex   3.867120e-02 1.858662e-02 8.500000e-03
      vertex   3.855582e-02 1.852793e-02 8.500000e-03
    endloop
  endfacet
  facet normal -4.534234e-01 8.912952e-01 -7.397241e-16
    outer loop
      vertex   3.867120e-02 1.858662e-02 1.275000e-02
      vertex   3.855582e-02 1.852793e-02 8.500000e-03
      vertex   3.855582e-02 1.852793e-02 1.275000e-02
    endloop
  endfacet
  facet normal -2.275940e-01 9.737561e-01 -3.715884e-16
    outer loop
      vertex   3.855582e-02 1.852793e-02 1.275000e-02
      vertex   3.855582e-02 1.852793e-02 8.500000e-03
      vertex   3.842955e-02 1.849842e-02 8.500000e-03
    endloop
  endfacet
  facet normal -2.275940e-01 9.737561e-01 4.232683e-16
    outer loop
      vertex   3.855582e-02 1.852793e-02 1.275000e-02
      vertex   3.842955e-02 1.849842e-02 8.500000e-03
      vertex   3.842955e-02 1.849842e-02 1.275000e-02
    endloop
  endfacet
  facet normal -9.338692e-02 9.956299e-01 6.603019e-16
    outer loop
      vertex   3.842955e-02 1.849842e-02 1.275000e-02
      vertex   3.842955e-02 1.849842e-02 8.500000e-03
      vertex   3.829691e-02 1.848598e-02 8.500000e-03
    endloop
  endfacet
  facet normal 6.709077e-01 7.415409e-01 -0.000000e+00
    outer loop
      vertex   3.771301e-02 1.875064e-02 8.500000e-03
      vertex   3.771301e-02 1.875064e-02 1.700000e-02
      vertex   3.783770e-02 1.863783e-02 1.275000e-02
    endloop
  endfacet
  facet normal 6.709077e-01 7.415409e-01 -0.000000e+00
    outer loop
      vertex   3.783770e-02 1.863783e-02 1.275000e-02
      vertex   3.771301e-02 1.875064e-02 1.700000e-02
      vertex   3.783770e-02 1.863783e-02 1.700000e-02
    endloop
  endfacet
  facet normal 5.384763e-01 8.426407e-01 -0.000000e+00
    outer loop
      vertex   3.783770e-02 1.863783e-02 1.275000e-02
      vertex   3.783770e-02 1.863783e-02 1.700000e-02
      vertex   3.797409e-02 1.855067e-02 1.700000e-02
    endloop
  endfacet
  facet normal 5.384763e-01 8.426407e-01 -6.877873e-16
    outer loop
      vertex   3.783770e-02 1.863783e-02 1.275000e-02
      vertex   3.797409e-02 1.855067e-02 1.700000e-02
      vertex   3.797409e-02 1.855067e-02 1.275000e-02
    endloop
  endfacet
  facet normal 2.770571e-01 9.608535e-01 -7.843835e-16
    outer loop
      vertex   3.797409e-02 1.855067e-02 1.275000e-02
      vertex   3.797409e-02 1.855067e-02 1.700000e-02
      vertex   3.812978e-02 1.850578e-02 1.700000e-02
    endloop
  endfacet
  facet normal 2.770571e-01 9.608535e-01 -4.516579e-16
    outer loop
      vertex   3.797409e-02 1.855067e-02 1.275000e-02
      vertex   3.812978e-02 1.850578e-02 1.700000e-02
      vertex   3.812978e-02 1.850578e-02 1.275000e-02
    endloop
  endfacet
  facet normal 1.176638e-01 9.930535e-01 -1.921074e-16
    outer loop
      vertex   3.812978e-02 1.850578e-02 1.275000e-02
      vertex   3.812978e-02 1.850578e-02 1.700000e-02
      vertex   3.829691e-02 1.848598e-02 1.700000e-02
    endloop
  endfacet
  facet normal 1.176638e-01 9.930535e-01 0.000000e+00
    outer loop
      vertex   3.812978e-02 1.850578e-02 1.275000e-02
      vertex   3.829691e-02 1.848598e-02 1.700000e-02
      vertex   3.829691e-02 1.848598e-02 8.500000e-03
    endloop
  endfacet
  facet normal 1.176638e-01 9.930535e-01 1.919668e-16
    outer loop
      vertex   3.829691e-02 1.848598e-02 8.500000e-03
      vertex   3.812978e-02 1.850578e-02 8.500000e-03
      vertex   3.812978e-02 1.850578e-02 1.275000e-02
    endloop
  endfacet
  facet normal 2.770571e-01 9.608535e-01 4.523459e-16
    outer loop
      vertex   3.812978e-02 1.850578e-02 1.275000e-02
      vertex   3.812978e-02 1.850578e-02 8.500000e-03
      vertex   3.797409e-02 1.855067e-02 8.500000e-03
    endloop
  endfacet
  facet normal 2.770571e-01 9.608535e-01 7.843953e-16
    outer loop
      vertex   3.812978e-02 1.850578e-02 1.275000e-02
      vertex   3.797409e-02 1.855067e-02 8.500000e-03
      vertex   3.797409e-02 1.855067e-02 1.275000e-02
    endloop
  endfacet
  facet normal 5.384763e-01 8.426407e-01 6.878817e-16
    outer loop
      vertex   3.797409e-02 1.855067e-02 1.275000e-02
      vertex   3.797409e-02 1.855067e-02 8.500000e-03
      vertex   3.783770e-02 1.863783e-02 8.500000e-03
    endloop
  endfacet
  facet normal 5.384763e-01 8.426407e-01 0.000000e+00
    outer loop
      vertex   3.797409e-02 1.855067e-02 1.275000e-02
      vertex   3.783770e-02 1.863783e-02 8.500000e-03
      vertex   3.783770e-02 1.863783e-02 1.275000e-02
    endloop
  endfacet
  facet normal 6.709077e-01 7.415409e-01 0.000000e+00
    outer loop
      vertex   3.783770e-02 1.863783e-02 1.275000e-02
      vertex   3.783770e-02 1.863783e-02 8.500000e-03
      vertex   3.771301e-02 1.875064e-02 8.500000e-03
    endloop
  endfacet
  facet normal 9.994089e-01 3.437827e-02 0.000000e+00
    outer loop
      vertex   3.748927e-02 1.959921e-02 1.700000e-02
      vertex   3.749705e-02 1.937312e-02 1.700000e-02
      vertex   3.748927e-02 1.959921e-02 8.500000e-03
    endloop
  endfacet
  facet normal 9.994089e-01 3.437827e-02 0.000000e+00
    outer loop
      vertex   3.748927e-02 1.959921e-02 8.500000e-03
      vertex   3.749705e-02 1.937312e-02 1.700000e-02
      vertex   3.749705e-02 1.937312e-02 8.500000e-03
    endloop
  endfacet
  facet normal 9.896455e-01 1.435329e-01 -0.000000e+00
    outer loop
      vertex   3.749705e-02 1.937312e-02 8.500000e-03
      vertex   3.749705e-02 1.937312e-02 1.700000e-02
      vertex   3.752883e-02 1.915398e-02 1.700000e-02
    endloop
  endfacet
  facet normal 9.896455e-01 1.435329e-01 0.000000e+00
    outer loop
      vertex   3.749705e-02 1.937312e-02 8.500000e-03
      vertex   3.752883e-02 1.915398e-02 1.700000e-02
      vertex   3.752883e-02 1.915398e-02 8.500000e-03
    endloop
  endfacet
  facet normal 9.378731e-01 3.469786e-01 -0.000000e+00
    outer loop
      vertex   3.752883e-02 1.915398e-02 8.500000e-03
      vertex   3.752883e-02 1.915398e-02 1.700000e-02
      vertex   3.760513e-02 1.894774e-02 1.700000e-02
    endloop
  endfacet
  facet normal 9.378731e-01 3.469786e-01 0.000000e+00
    outer loop
      vertex   3.752883e-02 1.915398e-02 8.500000e-03
      vertex   3.760513e-02 1.894774e-02 1.700000e-02
      vertex   3.760513e-02 1.894774e-02 8.500000e-03
    endloop
  endfacet
  facet normal 8.772069e-01 4.801126e-01 -0.000000e+00
    outer loop
      vertex   3.760513e-02 1.894774e-02 8.500000e-03
      vertex   3.760513e-02 1.894774e-02 1.700000e-02
      vertex   3.771301e-02 1.875064e-02 1.700000e-02
    endloop
  endfacet
  facet normal 8.772069e-01 4.801126e-01 0.000000e+00
    outer loop
      vertex   3.760513e-02 1.894774e-02 8.500000e-03
      vertex   3.771301e-02 1.875064e-02 1.700000e-02
      vertex   3.771301e-02 1.875064e-02 8.500000e-03
    endloop
  endfacet
  facet normal 8.685722e-01 -4.955627e-01 0.000000e+00
    outer loop
      vertex   3.772119e-02 2.044095e-02 1.700000e-02
      vertex   3.761023e-02 2.024646e-02 1.700000e-02
      vertex   3.772119e-02 2.044095e-02 8.500000e-03
    endloop
  endfacet
  facet normal 8.685722e-01 -4.955627e-01 0.000000e+00
    outer loop
      vertex   3.772119e-02 2.044095e-02 8.500000e-03
      vertex   3.761023e-02 2.024646e-02 1.700000e-02
      vertex   3.761023e-02 2.024646e-02 8.500000e-03
    endloop
  endfacet
  facet normal 9.326608e-01 -3.607544e-01 0.000000e+00
    outer loop
      vertex   3.761023e-02 2.024646e-02 8.500000e-03
      vertex   3.761023e-02 2.024646e-02 1.700000e-02
      vertex   3.753127e-02 2.004234e-02 1.700000e-02
    endloop
  endfacet
  facet normal 9.326608e-01 -3.607544e-01 0.000000e+00
    outer loop
      vertex   3.761023e-02 2.024646e-02 8.500000e-03
      vertex   3.753127e-02 2.004234e-02 1.700000e-02
      vertex   3.753127e-02 2.004234e-02 8.500000e-03
    endloop
  endfacet
  facet normal 9.884838e-01 -1.513265e-01 0.000000e+00
    outer loop
      vertex   3.753127e-02 2.004234e-02 8.500000e-03
      vertex   3.753127e-02 2.004234e-02 1.700000e-02
      vertex   3.749792e-02 1.982449e-02 1.700000e-02
    endloop
  endfacet
  facet normal 9.884838e-01 -1.513265e-01 0.000000e+00
    outer loop
      vertex   3.753127e-02 2.004234e-02 8.500000e-03
      vertex   3.749792e-02 1.982449e-02 1.700000e-02
      vertex   3.749792e-02 1.982449e-02 8.500000e-03
    endloop
  endfacet
  facet normal 9.992634e-01 -3.837464e-02 0.000000e+00
    outer loop
      vertex   3.749792e-02 1.982449e-02 8.500000e-03
      vertex   3.749792e-02 1.982449e-02 1.700000e-02
      vertex   3.748927e-02 1.959921e-02 1.700000e-02
    endloop
  endfacet
  facet normal 9.992634e-01 -3.837464e-02 0.000000e+00
    outer loop
      vertex   3.749792e-02 1.982449e-02 8.500000e-03
      vertex   3.748927e-02 1.959921e-02 1.700000e-02
      vertex   3.748927e-02 1.959921e-02 8.500000e-03
    endloop
  endfacet
  facet normal 1.137279e-01 -9.935119e-01 0.000000e+00
    outer loop
      vertex   3.832420e-02 2.070698e-02 8.500000e-03
      vertex   3.832420e-02 2.070698e-02 1.700000e-02
      vertex   3.815259e-02 2.068734e-02 1.275000e-02
    endloop
  endfacet
  facet normal 1.137279e-01 -9.935119e-01 3.713629e-16
    outer loop
      vertex   3.815259e-02 2.068734e-02 1.275000e-02
      vertex   3.832420e-02 2.070698e-02 1.700000e-02
      vertex   3.815259e-02 2.068734e-02 1.700000e-02
    endloop
  endfacet
  facet normal 2.698849e-01 -9.628926e-01 8.812719e-16
    outer loop
      vertex   3.815259e-02 2.068734e-02 1.275000e-02
      vertex   3.815259e-02 2.068734e-02 1.700000e-02
      vertex   3.799224e-02 2.064240e-02 1.700000e-02
    endloop
  endfacet
  facet normal 2.698849e-01 -9.628926e-01 0.000000e+00
    outer loop
      vertex   3.815259e-02 2.068734e-02 1.275000e-02
      vertex   3.799224e-02 2.064240e-02 1.700000e-02
      vertex   3.799224e-02 2.064240e-02 1.275000e-02
    endloop
  endfacet
  facet normal 5.273152e-01 -8.496698e-01 0.000000e+00
    outer loop
      vertex   3.799224e-02 2.064240e-02 1.275000e-02
      vertex   3.799224e-02 2.064240e-02 1.700000e-02
      vertex   3.785092e-02 2.055469e-02 1.700000e-02
    endloop
  endfacet
  facet normal 5.273152e-01 -8.496698e-01 6.951123e-16
    outer loop
      vertex   3.799224e-02 2.064240e-02 1.275000e-02
      vertex   3.785092e-02 2.055469e-02 1.700000e-02
      vertex   3.785092e-02 2.055469e-02 1.275000e-02
    endloop
  endfacet
  facet normal 6.592534e-01 -7.519209e-01 6.138234e-16
    outer loop
      vertex   3.785092e-02 2.055469e-02 1.275000e-02
      vertex   3.785092e-02 2.055469e-02 1.700000e-02
      vertex   3.772119e-02 2.044095e-02 1.700000e-02
    endloop
  endfacet
  facet normal 6.592534e-01 -7.519209e-01 0.000000e+00
    outer loop
      vertex   3.785092e-02 2.055469e-02 1.275000e-02
      vertex   3.772119e-02 2.044095e-02 1.700000e-02
      vertex   3.772119e-02 2.044095e-02 8.500000e-03
    endloop
  endfacet
  facet normal 6.592534e-01 -7.519209e-01 -6.136909e-16
    outer loop
      vertex   3.772119e-02 2.044095e-02 8.500000e-03
      vertex   3.785092e-02 2.055469e-02 8.500000e-03
      vertex   3.785092e-02 2.055469e-02 1.275000e-02
    endloop
  endfacet
  facet normal 5.273152e-01 -8.496698e-01 -6.936198e-16
    outer loop
      vertex   3.785092e-02 2.055469e-02 1.275000e-02
      vertex   3.785092e-02 2.055469e-02 8.500000e-03
      vertex   3.799224e-02 2.064240e-02 8.500000e-03
    endloop
  endfacet
  facet normal 5.273152e-01 -8.496698e-01 0.000000e+00
    outer loop
      vertex   3.785092e-02 2.055469e-02 1.275000e-02
      vertex   3.799224e-02 2.064240e-02 8.500000e-03
      vertex   3.799224e-02 2.064240e-02 1.275000e-02
    endloop
  endfacet
  facet normal 2.698849e-01 -9.628926e-01 0.000000e+00
    outer loop
      vertex   3.799224e-02 2.064240e-02 1.275000e-02
      vertex   3.799224e-02 2.064240e-02 8.500000e-03
      vertex   3.815259e-02 2.068734e-02 8.500000e-03
    endloop
  endfacet
  facet normal 2.698849e-01 -9.628926e-01 -8.812444e-16
    outer loop
      vertex   3.799224e-02 2.064240e-02 1.275000e-02
      vertex   3.815259e-02 2.068734e-02 8.500000e-03
      vertex   3.815259e-02 2.068734e-02 1.275000e-02
    endloop
  endfacet
  facet normal 1.137279e-01 -9.935119e-01 -3.713629e-16
    outer loop
      vertex   3.815259e-02 2.068734e-02 1.275000e-02
      vertex   3.815259e-02 2.068734e-02 8.500000e-03
      vertex   3.832420e-02 2.070698e-02 8.500000e-03
    endloop
  endfacet
  facet normal -5.540114e-01 -8.325091e-01 -0.000000e+00
    outer loop
      vertex   3.864777e-02 2.062303e-02 1.700000e-02
      vertex   3.864777e-02 2.062303e-02 1.416667e-02
      vertex   3.874302e-02 2.055964e-02 1.700000e-02
    endloop
  endfacet
  facet normal -5.540114e-01 -8.325091e-01 0.000000e+00
    outer loop
      vertex   3.874302e-02 2.055964e-02 1.700000e-02
      vertex   3.864777e-02 2.062303e-02 1.416667e-02
      vertex   3.864777e-02 2.062303e-02 1.133333e-02
    endloop
  endfacet
  facet normal -5.540114e-01 -8.325091e-01 -0.000000e+00
    outer loop
      vertex   3.874302e-02 2.055964e-02 1.700000e-02
      vertex   3.864777e-02 2.062303e-02 1.133333e-02
      vertex   3.874302e-02 2.055964e-02 8.500000e-03
    endloop
  endfacet
  facet normal -5.540114e-01 -8.325091e-01 0.000000e+00
    outer loop
      vertex   3.874302e-02 2.055964e-02 8.500000e-03
      vertex   3.864777e-02 2.062303e-02 1.133333e-02
      vertex   3.864777e-02 2.062303e-02 8.500000e-03
    endloop
  endfacet
  facet normal -4.359449e-01 -8.999734e-01 0.000000e+00
    outer loop
      vertex   3.864777e-02 2.062303e-02 8.500000e-03
      vertex   3.864777e-02 2.062303e-02 1.133333e-02
      vertex   3.854728e-02 2.067171e-02 1.133333e-02
    endloop
  endfacet
  facet normal -4.359449e-01 -8.999734e-01 -3.273536e-15
    outer loop
      vertex   3.864777e-02 2.062303e-02 8.500000e-03
      vertex   3.854728e-02 2.067171e-02 1.133333e-02
      vertex   3.854728e-02 2.067171e-02 8.500000e-03
    endloop
  endfacet
  facet normal -2.208573e-01 -9.753061e-01 -2.929430e-15
    outer loop
      vertex   3.854728e-02 2.067171e-02 8.500000e-03
      vertex   3.854728e-02 2.067171e-02 1.133333e-02
      vertex   3.843825e-02 2.069640e-02 1.133333e-02
    endloop
  endfacet
  facet normal -2.208573e-01 -9.753061e-01 -1.735343e-15
    outer loop
      vertex   3.854728e-02 2.067171e-02 8.500000e-03
      vertex   3.843825e-02 2.069640e-02 1.133333e-02
      vertex   3.843825e-02 2.069640e-02 8.500000e-03
    endloop
  endfacet
  facet normal -9.241998e-02 -9.957201e-01 -1.445608e-15
    outer loop
      vertex   3.843825e-02 2.069640e-02 8.500000e-03
      vertex   3.843825e-02 2.069640e-02 1.133333e-02
      vertex   3.832420e-02 2.070698e-02 8.500000e-03
    endloop
  endfacet
  facet normal -9.241998e-02 -9.957201e-01 0.000000e+00
    outer loop
      vertex   3.832420e-02 2.070698e-02 8.500000e-03
      vertex   3.843825e-02 2.069640e-02 1.133333e-02
      vertex   3.843825e-02 2.069640e-02 1.416667e-02
    endloop
  endfacet
  facet normal -9.241998e-02 -9.957201e-01 0.000000e+00
    outer loop
      vertex   3.832420e-02 2.070698e-02 8.500000e-03
      vertex   3.843825e-02 2.069640e-02 1.416667e-02
      vertex   3.832420e-02 2.070698e-02 1.700000e-02
    endloop
  endfacet
  facet normal -9.241998e-02 -9.957201e-01 1.445776e-15
    outer loop
      vertex   3.832420e-02 2.070698e-02 1.700000e-02
      vertex   3.843825e-02 2.069640e-02 1.416667e-02
      vertex   3.843825e-02 2.069640e-02 1.700000e-02
    endloop
  endfacet
  facet normal -2.208573e-01 -9.753061e-01 1.735157e-15
    outer loop
      vertex   3.843825e-02 2.069640e-02 1.700000e-02
      vertex   3.843825e-02 2.069640e-02 1.416667e-02
      vertex   3.854728e-02 2.067171e-02 1.416667e-02
    endloop
  endfacet
  facet normal -2.208573e-01 -9.753061e-01 2.930105e-15
    outer loop
      vertex   3.843825e-02 2.069640e-02 1.700000e-02
      vertex   3.854728e-02 2.067171e-02 1.416667e-02
      vertex   3.854728e-02 2.067171e-02 1.700000e-02
    endloop
  endfacet
  facet normal -4.359449e-01 -8.999734e-01 3.271692e-15
    outer loop
      vertex   3.854728e-02 2.067171e-02 1.700000e-02
      vertex   3.854728e-02 2.067171e-02 1.416667e-02
      vertex   3.864777e-02 2.062303e-02 1.416667e-02
    endloop
  endfacet
  facet normal -4.359449e-01 -8.999734e-01 0.000000e+00
    outer loop
      vertex   3.854728e-02 2.067171e-02 1.700000e-02
      vertex   3.864777e-02 2.062303e-02 1.416667e-02
      vertex   3.864777e-02 2.062303e-02 1.700000e-02
    endloop
  endfacet
  facet normal -4.359449e-01 -8.999734e-01 0.000000e+00
    outer loop
      vertex   3.864777e-02 2.062303e-02 1.133333e-02
      vertex   3.864777e-02 2.062303e-02 1.416667e-02
      vertex   3.854728e-02 2.067171e-02 1.416667e-02
    endloop
  endfacet
  facet normal -2.208573e-01 -9.753061e-01 0.000000e+00
    outer loop
      vertex   3.843825e-02 2.069640e-02 1.133333e-02
      vertex   3.854728e-02 2.067171e-02 1.133333e-02
      vertex   3.843825e-02 2.069640e-02 1.416667e-02
    endloop
  endfacet
  facet normal -2.208573e-01 -9.753061e-01 0.000000e+00
    outer loop
      vertex   3.843825e-02 2.069640e-02 1.416667e-02
      vertex   3.854728e-02 2.067171e-02 1.133333e-02
      vertex   3.854728e-02 2.067171e-02 1.416667e-02
    endloop
  endfacet
  facet normal -4.359449e-01 -8.999734e-01 0.000000e+00
    outer loop
      vertex   3.854728e-02 2.067171e-02 1.133333e-02
      vertex   3.864777e-02 2.062303e-02 1.133333e-02
      vertex   3.854728e-02 2.067171e-02 1.416667e-02
    endloop
  endfacet
  facet normal -9.587792e-01 -2.841522e-01 0.000000e+00
    outer loop
      vertex   3.898450e-02 2.012035e-02 8.500000e-03
      vertex   3.898450e-02 2.012035e-02 1.700000e-02
      vertex   3.894796e-02 2.024365e-02 1.275000e-02
    endloop
  endfacet
  facet normal -9.587792e-01 -2.841522e-01 4.639299e-16
    outer loop
      vertex   3.894796e-02 2.024365e-02 1.275000e-02
      vertex   3.898450e-02 2.012035e-02 1.700000e-02
      vertex   3.894796e-02 2.024365e-02 1.700000e-02
    endloop
  endfacet
  facet normal -9.218469e-01 -3.875542e-01 6.327523e-16
    outer loop
      vertex   3.894796e-02 2.024365e-02 1.275000e-02
      vertex   3.894796e-02 2.024365e-02 1.700000e-02
      vertex   3.889906e-02 2.035996e-02 1.700000e-02
    endloop
  endfacet
  facet normal -9.218469e-01 -3.875542e-01 6.324729e-16
    outer loop
      vertex   3.894796e-02 2.024365e-02 1.275000e-02
      vertex   3.889906e-02 2.035996e-02 1.700000e-02
      vertex   3.889906e-02 2.035996e-02 1.275000e-02
    endloop
  endfacet
  facet normal -8.261359e-01 -5.634709e-01 9.199682e-16
    outer loop
      vertex   3.889906e-02 2.035996e-02 1.275000e-02
      vertex   3.889906e-02 2.035996e-02 1.700000e-02
      vertex   3.882820e-02 2.046385e-02 1.700000e-02
    endloop
  endfacet
  facet normal -8.261359e-01 -5.634709e-01 -2.697633e-15
    outer loop
      vertex   3.889906e-02 2.035996e-02 1.275000e-02
      vertex   3.882820e-02 2.046385e-02 1.700000e-02
      vertex   3.882820e-02 2.046385e-02 1.275000e-02
    endloop
  endfacet
  facet normal -7.473147e-01 -6.644703e-01 -2.440253e-15
    outer loop
      vertex   3.882820e-02 2.046385e-02 1.275000e-02
      vertex   3.882820e-02 2.046385e-02 1.700000e-02
      vertex   3.874302e-02 2.055964e-02 1.700000e-02
    endloop
  endfacet
  facet normal -7.473147e-01 -6.644703e-01 0.000000e+00
    outer loop
      vertex   3.882820e-02 2.046385e-02 1.275000e-02
      vertex   3.874302e-02 2.055964e-02 1.700000e-02
      vertex   3.874302e-02 2.055964e-02 8.500000e-03
    endloop
  endfacet
  facet normal -7.473147e-01 -6.644703e-01 2.441488e-15
    outer loop
      vertex   3.874302e-02 2.055964e-02 8.500000e-03
      vertex   3.882820e-02 2.046385e-02 8.500000e-03
      vertex   3.882820e-02 2.046385e-02 1.275000e-02
    endloop
  endfacet
  facet normal -8.261359e-01 -5.634709e-01 2.697633e-15
    outer loop
      vertex   3.882820e-02 2.046385e-02 1.275000e-02
      vertex   3.882820e-02 2.046385e-02 8.500000e-03
      vertex   3.889906e-02 2.035996e-02 8.500000e-03
    endloop
  endfacet
  facet normal -8.261359e-01 -5.634709e-01 -9.208789e-16
    outer loop
      vertex   3.882820e-02 2.046385e-02 1.275000e-02
      vertex   3.889906e-02 2.035996e-02 8.500000e-03
      vertex   3.889906e-02 2.035996e-02 1.275000e-02
    endloop
  endfacet
  facet normal -9.218469e-01 -3.875542e-01 -6.327523e-16
    outer loop
      vertex   3.889906e-02 2.035996e-02 1.275000e-02
      vertex   3.889906e-02 2.035996e-02 8.500000e-03
      vertex   3.894796e-02 2.024365e-02 8.500000e-03
    endloop
  endfacet
  facet normal -9.218469e-01 -3.875542e-01 -6.340155e-16
    outer loop
      vertex   3.889906e-02 2.035996e-02 1.275000e-02
      vertex   3.894796e-02 2.024365e-02 8.500000e-03
      vertex   3.894796e-02 2.024365e-02 1.275000e-02
    endloop
  endfacet
  facet normal -9.587792e-01 -2.841522e-01 -4.639299e-16
    outer loop
      vertex   3.894796e-02 2.024365e-02 1.275000e-02
      vertex   3.894796e-02 2.024365e-02 8.500000e-03
      vertex   3.898450e-02 2.012035e-02 8.500000e-03
    endloop
  endfacet
  facet normal 1.524823e-01 -9.883062e-01 0.000000e+00
    outer loop
      vertex   3.946199e-02 2.019402e-02 1.700000e-02
      vertex   3.898450e-02 2.012035e-02 1.700000e-02
      vertex   3.946199e-02 2.019402e-02 8.500000e-03
    endloop
  endfacet
  facet normal 1.524823e-01 -9.883062e-01 0.000000e+00
    outer loop
      vertex   3.946199e-02 2.019402e-02 8.500000e-03
      vertex   3.898450e-02 2.012035e-02 1.700000e-02
      vertex   3.898450e-02 2.012035e-02 8.500000e-03
    endloop
  endfacet
  facet normal 7.198953e-01 6.940827e-01 -0.000000e+00
    outer loop
      vertex   3.907726e-02 2.087206e-02 8.500000e-03
      vertex   3.907726e-02 2.087206e-02 1.700000e-02
      vertex   3.921664e-02 2.072750e-02 1.275000e-02
    endloop
  endfacet
  facet normal 7.198953e-01 6.940827e-01 1.175359e-15
    outer loop
      vertex   3.921664e-02 2.072750e-02 1.275000e-02
      vertex   3.907726e-02 2.087206e-02 1.700000e-02
      vertex   3.921664e-02 2.072750e-02 1.700000e-02
    endloop
  endfacet
  facet normal 8.094477e-01 5.871920e-01 1.321570e-15
    outer loop
      vertex   3.921664e-02 2.072750e-02 1.275000e-02
      vertex   3.921664e-02 2.072750e-02 1.700000e-02
      vertex   3.933169e-02 2.056890e-02 1.700000e-02
    endloop
  endfacet
  facet normal 8.094477e-01 5.871920e-01 0.000000e+00
    outer loop
      vertex   3.921664e-02 2.072750e-02 1.275000e-02
      vertex   3.933169e-02 2.056890e-02 1.700000e-02
      vertex   3.933169e-02 2.056890e-02 1.275000e-02
    endloop
  endfacet
  facet normal 9.214174e-01 3.885744e-01 -0.000000e+00
    outer loop
      vertex   3.933169e-02 2.056890e-02 1.275000e-02
      vertex   3.933169e-02 2.056890e-02 1.700000e-02
      vertex   3.940801e-02 2.038792e-02 1.700000e-02
    endloop
  endfacet
  facet normal 9.214174e-01 3.885744e-01 0.000000e+00
    outer loop
      vertex   3.933169e-02 2.056890e-02 1.275000e-02
      vertex   3.940801e-02 2.038792e-02 1.700000e-02
      vertex   3.940801e-02 2.038792e-02 1.275000e-02
    endloop
  endfacet
  facet normal 9.633753e-01 2.681566e-01 -0.000000e+00
    outer loop
      vertex   3.940801e-02 2.038792e-02 1.275000e-02
      vertex   3.940801e-02 2.038792e-02 1.700000e-02
      vertex   3.946199e-02 2.019402e-02 1.700000e-02
    endloop
  endfacet
  facet normal 9.633753e-01 2.681566e-01 0.000000e+00
    outer loop
      vertex   3.940801e-02 2.038792e-02 1.275000e-02
      vertex   3.946199e-02 2.019402e-02 1.700000e-02
      vertex   3.946199e-02 2.019402e-02 8.500000e-03
    endloop
  endfacet
  facet normal 9.633753e-01 2.681566e-01 0.000000e+00
    outer loop
      vertex   3.946199e-02 2.019402e-02 8.500000e-03
      vertex   3.940801e-02 2.038792e-02 8.500000e-03
      vertex   3.940801e-02 2.038792e-02 1.275000e-02
    endloop
  endfacet
  facet normal 9.214174e-01 3.885744e-01 0.000000e+00
    outer loop
      vertex   3.940801e-02 2.038792e-02 1.275000e-02
      vertex   3.940801e-02 2.038792e-02 8.500000e-03
      vertex   3.933169e-02 2.056890e-02 8.500000e-03
    endloop
  endfacet
  facet normal 9.214174e-01 3.885744e-01 0.000000e+00
    outer loop
      vertex   3.940801e-02 2.038792e-02 1.275000e-02
      vertex   3.933169e-02 2.056890e-02 8.500000e-03
      vertex   3.933169e-02 2.056890e-02 1.275000e-02
    endloop
  endfacet
  facet normal 8.094477e-01 5.871920e-01 0.000000e+00
    outer loop
      vertex   3.933169e-02 2.056890e-02 1.275000e-02
      vertex   3.933169e-02 2.056890e-02 8.500000e-03
      vertex   3.921664e-02 2.072750e-02 8.500000e-03
    endloop
  endfacet
  facet normal 8.094477e-01 5.871920e-01 -1.323090e-15
    outer loop
      vertex   3.933169e-02 2.056890e-02 1.275000e-02
      vertex   3.921664e-02 2.072750e-02 8.500000e-03
      vertex   3.921664e-02 2.072750e-02 1.275000e-02
    endloop
  endfacet
  facet normal 7.198953e-01 6.940827e-01 -1.175359e-15
    outer loop
      vertex   3.921664e-02 2.072750e-02 1.275000e-02
      vertex   3.921664e-02 2.072750e-02 8.500000e-03
      vertex   3.907726e-02 2.087206e-02 8.500000e-03
    endloop
  endfacet
  facet normal 7.021396e-02 9.975320e-01 -0.000000e+00
    outer loop
      vertex   3.830510e-02 2.111080e-02 8.500000e-03
      vertex   3.830510e-02 2.111080e-02 1.700000e-02
      vertex   3.851256e-02 2.109620e-02 1.275000e-02
    endloop
  endfacet
  facet normal 7.021396e-02 9.975320e-01 -0.000000e+00
    outer loop
      vertex   3.851256e-02 2.109620e-02 1.275000e-02
      vertex   3.830510e-02 2.111080e-02 1.700000e-02
      vertex   3.851256e-02 2.109620e-02 1.700000e-02
    endloop
  endfacet
  facet normal 1.879512e-01 9.821784e-01 -0.000000e+00
    outer loop
      vertex   3.851256e-02 2.109620e-02 1.275000e-02
      vertex   3.851256e-02 2.109620e-02 1.700000e-02
      vertex   3.871246e-02 2.105795e-02 1.700000e-02
    endloop
  endfacet
  facet normal 1.879512e-01 9.821784e-01 1.602751e-15
    outer loop
      vertex   3.851256e-02 2.109620e-02 1.275000e-02
      vertex   3.871246e-02 2.105795e-02 1.700000e-02
      vertex   3.871246e-02 2.105795e-02 1.275000e-02
    endloop
  endfacet
  facet normal 3.927884e-01 9.196289e-01 1.501460e-15
    outer loop
      vertex   3.871246e-02 2.105795e-02 1.275000e-02
      vertex   3.871246e-02 2.105795e-02 1.700000e-02
      vertex   3.889909e-02 2.097823e-02 1.700000e-02
    endloop
  endfacet
  facet normal 3.927884e-01 9.196289e-01 1.093290e-16
    outer loop
      vertex   3.871246e-02 2.105795e-02 1.275000e-02
      vertex   3.889909e-02 2.097823e-02 1.700000e-02
      vertex   3.889909e-02 2.097823e-02 1.275000e-02
    endloop
  endfacet
  facet normal 5.119113e-01 8.590383e-01 -1.345201e-16
    outer loop
      vertex   3.889909e-02 2.097823e-02 1.275000e-02
      vertex   3.889909e-02 2.097823e-02 1.700000e-02
      vertex   3.907726e-02 2.087206e-02 1.700000e-02
    endloop
  endfacet
  facet normal 5.119113e-01 8.590383e-01 0.000000e+00
    outer loop
      vertex   3.889909e-02 2.097823e-02 1.275000e-02
      vertex   3.907726e-02 2.087206e-02 1.700000e-02
      vertex   3.907726e-02 2.087206e-02 8.500000e-03
    endloop
  endfacet
  facet normal 5.119113e-01 8.590383e-01 1.351293e-16
    outer loop
      vertex   3.907726e-02 2.087206e-02 8.500000e-03
      vertex   3.889909e-02 2.097823e-02 8.500000e-03
      vertex   3.889909e-02 2.097823e-02 1.275000e-02
    endloop
  endfacet
  facet normal 3.927884e-01 9.196289e-01 -1.094321e-16
    outer loop
      vertex   3.889909e-02 2.097823e-02 1.275000e-02
      vertex   3.889909e-02 2.097823e-02 8.500000e-03
      vertex   3.871246e-02 2.105795e-02 8.500000e-03
    endloop
  endfacet
  facet normal 3.927884e-01 9.196289e-01 -1.499918e-15
    outer loop
      vertex   3.889909e-02 2.097823e-02 1.275000e-02
      vertex   3.871246e-02 2.105795e-02 8.500000e-03
      vertex   3.871246e-02 2.105795e-02 1.275000e-02
    endloop
  endfacet
  facet normal 1.879512e-01 9.821784e-01 -1.603584e-15
    outer loop
      vertex   3.871246e-02 2.105795e-02 1.275000e-02
      vertex   3.871246e-02 2.105795e-02 8.500000e-03
      vertex   3.851256e-02 2.109620e-02 8.500000e-03
    endloop
  endfacet
  facet normal 1.879512e-01 9.821784e-01 0.000000e+00
    outer loop
      vertex   3.871246e-02 2.105795e-02 1.275000e-02
      vertex   3.851256e-02 2.109620e-02 8.500000e-03
      vertex   3.851256e-02 2.109620e-02 1.275000e-02
    endloop
  endfacet
  facet normal 7.021396e-02 9.975320e-01 0.000000e+00
    outer loop
      vertex   3.851256e-02 2.109620e-02 1.275000e-02
      vertex   3.851256e-02 2.109620e-02 8.500000e-03
      vertex   3.830510e-02 2.111080e-02 8.500000e-03
    endloop
  endfacet
  facet normal -4.125795e-01 9.109216e-01 0.000000e+00
    outer loop
      vertex   3.761342e-02 2.093482e-02 8.500000e-03
      vertex   3.761342e-02 2.093482e-02 1.700000e-02
      vertex   3.777848e-02 2.100958e-02 1.275000e-02
    endloop
  endfacet
  facet normal -4.125795e-01 9.109216e-01 0.000000e+00
    outer loop
      vertex   3.777848e-02 2.100958e-02 1.275000e-02
      vertex   3.761342e-02 2.093482e-02 1.700000e-02
      vertex   3.777848e-02 2.100958e-02 1.700000e-02
    endloop
  endfacet
  facet normal -3.234177e-01 9.462563e-01 0.000000e+00
    outer loop
      vertex   3.777848e-02 2.100958e-02 1.275000e-02
      vertex   3.777848e-02 2.100958e-02 1.700000e-02
      vertex   3.794785e-02 2.106746e-02 1.700000e-02
    endloop
  endfacet
  facet normal -3.234177e-01 9.462563e-01 0.000000e+00
    outer loop
      vertex   3.777848e-02 2.100958e-02 1.275000e-02
      vertex   3.794785e-02 2.106746e-02 1.700000e-02
      vertex   3.794785e-02 2.106746e-02 1.275000e-02
    endloop
  endfacet
  facet normal -1.674657e-01 9.858779e-01 0.000000e+00
    outer loop
      vertex   3.794785e-02 2.106746e-02 1.275000e-02
      vertex   3.794785e-02 2.106746e-02 1.700000e-02
      vertex   3.812435e-02 2.109745e-02 1.700000e-02
    endloop
  endfacet
  facet normal -1.674657e-01 9.858779e-01 -1.336107e-15
    outer loop
      vertex   3.794785e-02 2.106746e-02 1.275000e-02
      vertex   3.812435e-02 2.109745e-02 1.700000e-02
      vertex   3.812435e-02 2.109745e-02 1.275000e-02
    endloop
  endfacet
  facet normal -7.371007e-02 9.972797e-01 -1.507895e-15
    outer loop
      vertex   3.812435e-02 2.109745e-02 1.275000e-02
      vertex   3.812435e-02 2.109745e-02 1.700000e-02
      vertex   3.830510e-02 2.111080e-02 1.700000e-02
    endloop
  endfacet
  facet normal -7.371007e-02 9.972797e-01 0.000000e+00
    outer loop
      vertex   3.812435e-02 2.109745e-02 1.275000e-02
      vertex   3.830510e-02 2.111080e-02 1.700000e-02
      vertex   3.830510e-02 2.111080e-02 8.500000e-03
    endloop
  endfacet
  facet normal -7.371007e-02 9.972797e-01 1.508274e-15
    outer loop
      vertex   3.830510e-02 2.111080e-02 8.500000e-03
      vertex   3.812435e-02 2.109745e-02 8.500000e-03
      vertex   3.812435e-02 2.109745e-02 1.275000e-02
    endloop
  endfacet
  facet normal -1.674657e-01 9.858779e-01 1.336206e-15
    outer loop
      vertex   3.812435e-02 2.109745e-02 1.275000e-02
      vertex   3.812435e-02 2.109745e-02 8.500000e-03
      vertex   3.794785e-02 2.106746e-02 8.500000e-03
    endloop
  endfacet
  facet normal -1.674657e-01 9.858779e-01 0.000000e+00
    outer loop
      vertex   3.812435e-02 2.109745e-02 1.275000e-02
      vertex   3.794785e-02 2.106746e-02 8.500000e-03
      vertex   3.794785e-02 2.106746e-02 1.275000e-02
    endloop
  endfacet
  facet normal -3.234177e-01 9.462563e-01 0.000000e+00
    outer loop
      vertex   3.794785e-02 2.106746e-02 1.275000e-02
      vertex   3.794785e-02 2.106746e-02 8.500000e-03
      vertex   3.777848e-02 2.100958e-02 8.500000e-03
    endloop
  endfacet
  facet normal -3.234177e-01 9.462563e-01 0.000000e+00
    outer loop
      vertex   3.794785e-02 2.106746e-02 1.275000e-02
      vertex   3.777848e-02 2.100958e-02 8.500000e-03
      vertex   3.777848e-02 2.100958e-02 1.275000e-02
    endloop
  endfacet
  facet normal -4.125795e-01 9.109216e-01 0.000000e+00
    outer loop
      vertex   3.777848e-02 2.100958e-02 1.275000e-02
      vertex   3.777848e-02 2.100958e-02 8.500000e-03
      vertex   3.761342e-02 2.093482e-02 8.500000e-03
    endloop
  endfacet
  facet normal -8.752414e-01 4.836863e-01 0.000000e+00
    outer loop
      vertex   3.714002e-02 2.040685e-02 8.500000e-03
      vertex   3.714002e-02 2.040685e-02 1.700000e-02
      vertex   3.722806e-02 2.056616e-02 1.275000e-02
    endloop
  endfacet
  facet normal -8.752414e-01 4.836863e-01 0.000000e+00
    outer loop
      vertex   3.722806e-02 2.056616e-02 1.275000e-02
      vertex   3.714002e-02 2.040685e-02 1.700000e-02
      vertex   3.722806e-02 2.056616e-02 1.700000e-02
    endloop
  endfacet
  facet normal -8.107482e-01 5.853950e-01 0.000000e+00
    outer loop
      vertex   3.722806e-02 2.056616e-02 1.275000e-02
      vertex   3.722806e-02 2.056616e-02 1.700000e-02
      vertex   3.733245e-02 2.071073e-02 1.700000e-02
    endloop
  endfacet
  facet normal -8.107482e-01 5.853950e-01 4.758733e-16
    outer loop
      vertex   3.722806e-02 2.056616e-02 1.275000e-02
      vertex   3.733245e-02 2.071073e-02 1.700000e-02
      vertex   3.733245e-02 2.071073e-02 1.275000e-02
    endloop
  endfacet
  facet normal -6.714261e-01 7.410716e-01 6.049667e-16
    outer loop
      vertex   3.733245e-02 2.071073e-02 1.275000e-02
      vertex   3.733245e-02 2.071073e-02 1.700000e-02
      vertex   3.746450e-02 2.083037e-02 1.700000e-02
    endloop
  endfacet
  facet normal -6.714261e-01 7.410716e-01 -1.096636e-15
    outer loop
      vertex   3.733245e-02 2.071073e-02 1.275000e-02
      vertex   3.746450e-02 2.083037e-02 1.700000e-02
      vertex   3.746450e-02 2.083037e-02 1.275000e-02
    endloop
  endfacet
  facet normal -5.741966e-01 8.187175e-01 -9.374798e-16
    outer loop
      vertex   3.746450e-02 2.083037e-02 1.275000e-02
      vertex   3.746450e-02 2.083037e-02 1.700000e-02
      vertex   3.761342e-02 2.093482e-02 1.700000e-02
    endloop
  endfacet
  facet normal -5.741966e-01 8.187175e-01 0.000000e+00
    outer loop
      vertex   3.746450e-02 2.083037e-02 1.275000e-02
      vertex   3.761342e-02 2.093482e-02 1.700000e-02
      vertex   3.761342e-02 2.093482e-02 8.500000e-03
    endloop
  endfacet
  facet normal -5.741966e-01 8.187175e-01 9.373646e-16
    outer loop
      vertex   3.761342e-02 2.093482e-02 8.500000e-03
      vertex   3.746450e-02 2.083037e-02 8.500000e-03
      vertex   3.746450e-02 2.083037e-02 1.275000e-02
    endloop
  endfacet
  facet normal -6.714261e-01 7.410716e-01 1.096225e-15
    outer loop
      vertex   3.746450e-02 2.083037e-02 1.275000e-02
      vertex   3.746450e-02 2.083037e-02 8.500000e-03
      vertex   3.733245e-02 2.071073e-02 8.500000e-03
    endloop
  endfacet
  facet normal -6.714261e-01 7.410716e-01 -6.029313e-16
    outer loop
      vertex   3.746450e-02 2.083037e-02 1.275000e-02
      vertex   3.733245e-02 2.071073e-02 8.500000e-03
      vertex   3.733245e-02 2.071073e-02 1.275000e-02
    endloop
  endfacet
  facet normal -8.107482e-01 5.853950e-01 -4.778817e-16
    outer loop
      vertex   3.733245e-02 2.071073e-02 1.275000e-02
      vertex   3.733245e-02 2.071073e-02 8.500000e-03
      vertex   3.722806e-02 2.056616e-02 8.500000e-03
    endloop
  endfacet
  facet normal -8.107482e-01 5.853950e-01 0.000000e+00
    outer loop
      vertex   3.733245e-02 2.071073e-02 1.275000e-02
      vertex   3.722806e-02 2.056616e-02 8.500000e-03
      vertex   3.722806e-02 2.056616e-02 1.275000e-02
    endloop
  endfacet
  facet normal -8.752414e-01 4.836863e-01 0.000000e+00
    outer loop
      vertex   3.722806e-02 2.056616e-02 1.275000e-02
      vertex   3.722806e-02 2.056616e-02 8.500000e-03
      vertex   3.714002e-02 2.040685e-02 8.500000e-03
    endloop
  endfacet
  facet normal -9.989318e-01 4.620867e-02 0.000000e+00
    outer loop
      vertex   3.698450e-02 1.958557e-02 1.700000e-02
      vertex   3.699426e-02 1.979656e-02 1.700000e-02
      vertex   3.698450e-02 1.958557e-02 8.500000e-03
    endloop
  endfacet
  facet normal -9.989318e-01 4.620867e-02 0.000000e+00
    outer loop
      vertex   3.698450e-02 1.958557e-02 8.500000e-03
      vertex   3.699426e-02 1.979656e-02 1.700000e-02
      vertex   3.699426e-02 1.979656e-02 8.500000e-03
    endloop
  endfacet
  facet normal -9.928041e-01 1.197494e-01 0.000000e+00
    outer loop
      vertex   3.699426e-02 1.979656e-02 8.500000e-03
      vertex   3.699426e-02 1.979656e-02 1.700000e-02
      vertex   3.701935e-02 2.000457e-02 1.700000e-02
    endloop
  endfacet
  facet normal -9.928041e-01 1.197494e-01 0.000000e+00
    outer loop
      vertex   3.699426e-02 1.979656e-02 8.500000e-03
      vertex   3.701935e-02 2.000457e-02 1.700000e-02
      vertex   3.701935e-02 2.000457e-02 8.500000e-03
    endloop
  endfacet
  facet normal -9.688331e-01 2.477145e-01 0.000000e+00
    outer loop
      vertex   3.701935e-02 2.000457e-02 8.500000e-03
      vertex   3.701935e-02 2.000457e-02 1.700000e-02
      vertex   3.707120e-02 2.020736e-02 1.700000e-02
    endloop
  endfacet
  facet normal -9.688331e-01 2.477145e-01 0.000000e+00
    outer loop
      vertex   3.701935e-02 2.000457e-02 8.500000e-03
      vertex   3.707120e-02 2.020736e-02 1.700000e-02
      vertex   3.707120e-02 2.020736e-02 8.500000e-03
    endloop
  endfacet
  facet normal -9.453188e-01 3.261479e-01 0.000000e+00
    outer loop
      vertex   3.707120e-02 2.020736e-02 8.500000e-03
      vertex   3.707120e-02 2.020736e-02 1.700000e-02
      vertex   3.714002e-02 2.040685e-02 1.700000e-02
    endloop
  endfacet
  facet normal -9.453188e-01 3.261479e-01 0.000000e+00
    outer loop
      vertex   3.707120e-02 2.020736e-02 8.500000e-03
      vertex   3.714002e-02 2.040685e-02 1.700000e-02
      vertex   3.714002e-02 2.040685e-02 8.500000e-03
    endloop
  endfacet
  facet normal -8.369065e-01 -5.473459e-01 -0.000000e+00
    outer loop
      vertex   3.734602e-02 1.847097e-02 1.700000e-02
      vertex   3.718061e-02 1.872390e-02 1.700000e-02
      vertex   3.734602e-02 1.847097e-02 8.500000e-03
    endloop
  endfacet
  facet normal -8.369065e-01 -5.473459e-01 0.000000e+00
    outer loop
      vertex   3.734602e-02 1.847097e-02 8.500000e-03
      vertex   3.718061e-02 1.872390e-02 1.700000e-02
      vertex   3.718061e-02 1.872390e-02 8.500000e-03
    endloop
  endfacet
  facet normal -9.104662e-01 -4.135835e-01 0.000000e+00
    outer loop
      vertex   3.718061e-02 1.872390e-02 8.500000e-03
      vertex   3.718061e-02 1.872390e-02 1.700000e-02
      vertex   3.705890e-02 1.899181e-02 1.700000e-02
    endloop
  endfacet
  facet normal -9.104662e-01 -4.135835e-01 0.000000e+00
    outer loop
      vertex   3.718061e-02 1.872390e-02 8.500000e-03
      vertex   3.705890e-02 1.899181e-02 1.700000e-02
      vertex   3.705890e-02 1.899181e-02 8.500000e-03
    endloop
  endfacet
  facet normal -9.821615e-01 -1.880393e-01 0.000000e+00
    outer loop
      vertex   3.705890e-02 1.899181e-02 8.500000e-03
      vertex   3.705890e-02 1.899181e-02 1.700000e-02
      vertex   3.700327e-02 1.928237e-02 1.700000e-02
    endloop
  endfacet
  facet normal -9.821615e-01 -1.880393e-01 0.000000e+00
    outer loop
      vertex   3.705890e-02 1.899181e-02 8.500000e-03
      vertex   3.700327e-02 1.928237e-02 1.700000e-02
      vertex   3.700327e-02 1.928237e-02 8.500000e-03
    endloop
  endfacet
  facet normal -9.980874e-01 -6.181940e-02 0.000000e+00
    outer loop
      vertex   3.700327e-02 1.928237e-02 8.500000e-03
      vertex   3.700327e-02 1.928237e-02 1.700000e-02
      vertex   3.698450e-02 1.958557e-02 1.700000e-02
    endloop
  endfacet
  facet normal -9.980874e-01 -6.181940e-02 0.000000e+00
    outer loop
      vertex   3.700327e-02 1.928237e-02 8.500000e-03
      vertex   3.698450e-02 1.958557e-02 1.700000e-02
      vertex   3.698450e-02 1.958557e-02 8.500000e-03
    endloop
  endfacet
  facet normal -9.873934e-02 -9.951133e-01 -0.000000e+00
    outer loop
      vertex   3.830237e-02 1.808216e-02 1.700000e-02
      vertex   3.803401e-02 1.810878e-02 1.700000e-02
      vertex   3.830237e-02 1.808216e-02 8.500000e-03
    endloop
  endfacet
  facet normal -9.873934e-02 -9.951133e-01 0.000000e+00
    outer loop
      vertex   3.830237e-02 1.808216e-02 8.500000e-03
      vertex   3.803401e-02 1.810878e-02 1.700000e-02
      vertex   3.803401e-02 1.810878e-02 8.500000e-03
    endloop
  endfacet
  facet normal -2.463881e-01 -9.691712e-01 0.000000e+00
    outer loop
      vertex   3.803401e-02 1.810878e-02 8.500000e-03
      vertex   3.803401e-02 1.810878e-02 1.700000e-02
      vertex   3.778126e-02 1.817304e-02 1.700000e-02
    endloop
  endfacet
  facet normal -2.463881e-01 -9.691712e-01 0.000000e+00
    outer loop
      vertex   3.803401e-02 1.810878e-02 8.500000e-03
      vertex   3.778126e-02 1.817304e-02 1.700000e-02
      vertex   3.778126e-02 1.817304e-02 8.500000e-03
    endloop
  endfacet
  facet normal -4.955329e-01 -8.685892e-01 0.000000e+00
    outer loop
      vertex   3.778126e-02 1.817304e-02 8.500000e-03
      vertex   3.778126e-02 1.817304e-02 1.700000e-02
      vertex   3.755532e-02 1.830194e-02 1.700000e-02
    endloop
  endfacet
  facet normal -4.955329e-01 -8.685892e-01 0.000000e+00
    outer loop
      vertex   3.778126e-02 1.817304e-02 8.500000e-03
      vertex   3.755532e-02 1.830194e-02 1.700000e-02
      vertex   3.755532e-02 1.830194e-02 8.500000e-03
    endloop
  endfacet
  facet normal -6.282992e-01 -7.779718e-01 0.000000e+00
    outer loop
      vertex   3.755532e-02 1.830194e-02 8.500000e-03
      vertex   3.755532e-02 1.830194e-02 1.700000e-02
      vertex   3.734602e-02 1.847097e-02 1.700000e-02
    endloop
  endfacet
  facet normal -6.282992e-01 -7.779718e-01 0.000000e+00
    outer loop
      vertex   3.755532e-02 1.830194e-02 8.500000e-03
      vertex   3.734602e-02 1.847097e-02 1.700000e-02
      vertex   3.734602e-02 1.847097e-02 8.500000e-03
    endloop
  endfacet
  facet normal 5.576160e-01 -8.300990e-01 0.000000e+00
    outer loop
      vertex   3.910319e-02 1.836456e-02 1.700000e-02
      vertex   3.892143e-02 1.824246e-02 1.700000e-02
      vertex   3.910319e-02 1.836456e-02 8.500000e-03
    endloop
  endfacet
  facet normal 5.576160e-01 -8.300990e-01 0.000000e+00
    outer loop
      vertex   3.910319e-02 1.836456e-02 8.500000e-03
      vertex   3.892143e-02 1.824246e-02 1.700000e-02
      vertex   3.892143e-02 1.824246e-02 8.500000e-03
    endloop
  endfacet
  facet normal 4.376084e-01 -8.991657e-01 0.000000e+00
    outer loop
      vertex   3.892143e-02 1.824246e-02 8.500000e-03
      vertex   3.892143e-02 1.824246e-02 1.700000e-02
      vertex   3.872941e-02 1.814901e-02 1.700000e-02
    endloop
  endfacet
  facet normal 4.376084e-01 -8.991657e-01 0.000000e+00
    outer loop
      vertex   3.892143e-02 1.824246e-02 8.500000e-03
      vertex   3.872941e-02 1.814901e-02 1.700000e-02
      vertex   3.872941e-02 1.814901e-02 8.500000e-03
    endloop
  endfacet
  facet normal 2.198050e-01 -9.755438e-01 0.000000e+00
    outer loop
      vertex   3.872941e-02 1.814901e-02 8.500000e-03
      vertex   3.872941e-02 1.814901e-02 1.700000e-02
      vertex   3.852075e-02 1.810199e-02 1.700000e-02
    endloop
  endfacet
  facet normal 2.198050e-01 -9.755438e-01 0.000000e+00
    outer loop
      vertex   3.872941e-02 1.814901e-02 8.500000e-03
      vertex   3.852075e-02 1.810199e-02 1.700000e-02
      vertex   3.852075e-02 1.810199e-02 8.500000e-03
    endloop
  endfacet
  facet normal 9.047030e-02 -9.958992e-01 0.000000e+00
    outer loop
      vertex   3.852075e-02 1.810199e-02 8.500000e-03
      vertex   3.852075e-02 1.810199e-02 1.700000e-02
      vertex   3.830237e-02 1.808216e-02 1.700000e-02
    endloop
  endfacet
  facet normal 9.047030e-02 -9.958992e-01 0.000000e+00
    outer loop
      vertex   3.852075e-02 1.810199e-02 8.500000e-03
      vertex   3.830237e-02 1.808216e-02 1.700000e-02
      vertex   3.830237e-02 1.808216e-02 8.500000e-03
    endloop
  endfacet
  facet normal 9.720757e-01 -2.346676e-01 0.000000e+00
    outer loop
      vertex   3.950837e-02 1.914628e-02 1.700000e-02
      vertex   3.945507e-02 1.892549e-02 1.700000e-02
      vertex   3.950837e-02 1.914628e-02 8.500000e-03
    endloop
  endfacet
  facet normal 9.720757e-01 -2.346676e-01 0.000000e+00
    outer loop
      vertex   3.950837e-02 1.914628e-02 8.500000e-03
      vertex   3.945507e-02 1.892549e-02 1.700000e-02
      vertex   3.945507e-02 1.892549e-02 8.500000e-03
    endloop
  endfacet
  facet normal 9.349413e-01 -3.548023e-01 0.000000e+00
    outer loop
      vertex   3.945507e-02 1.892549e-02 8.500000e-03
      vertex   3.945507e-02 1.892549e-02 1.700000e-02
      vertex   3.937637e-02 1.871812e-02 1.700000e-02
    endloop
  endfacet
  facet normal 9.349413e-01 -3.548023e-01 0.000000e+00
    outer loop
      vertex   3.945507e-02 1.892549e-02 8.500000e-03
      vertex   3.937637e-02 1.871812e-02 1.700000e-02
      vertex   3.937637e-02 1.871812e-02 8.500000e-03
    endloop
  endfacet
  facet normal 8.320159e-01 -5.547518e-01 0.000000e+00
    outer loop
      vertex   3.937637e-02 1.871812e-02 8.500000e-03
      vertex   3.937637e-02 1.871812e-02 1.700000e-02
      vertex   3.925363e-02 1.853402e-02 1.700000e-02
    endloop
  endfacet
  facet normal 8.320159e-01 -5.547518e-01 0.000000e+00
    outer loop
      vertex   3.937637e-02 1.871812e-02 8.500000e-03
      vertex   3.925363e-02 1.853402e-02 1.700000e-02
      vertex   3.925363e-02 1.853402e-02 8.500000e-03
    endloop
  endfacet
  facet normal 7.478322e-01 -6.638878e-01 0.000000e+00
    outer loop
      vertex   3.925363e-02 1.853402e-02 8.500000e-03
      vertex   3.925363e-02 1.853402e-02 1.700000e-02
      vertex   3.910319e-02 1.836456e-02 1.700000e-02
    endloop
  endfacet
  facet normal 7.478322e-01 -6.638878e-01 0.000000e+00
    outer loop
      vertex   3.925363e-02 1.853402e-02 8.500000e-03
      vertex   3.910319e-02 1.836456e-02 1.700000e-02
      vertex   3.910319e-02 1.836456e-02 8.500000e-03
    endloop
  endfacet
  facet normal 1.288599e-01 9.916628e-01 0.000000e+00
    outer loop
      vertex   3.902542e-02 1.920903e-02 1.700000e-02
      vertex   3.950837e-02 1.914628e-02 1.700000e-02
      vertex   3.902542e-02 1.920903e-02 8.500000e-03
    endloop
  endfacet
  facet normal 1.288599e-01 9.916628e-01 0.000000e+00
    outer loop
      vertex   3.902542e-02 1.920903e-02 8.500000e-03
      vertex   3.950837e-02 1.914628e-02 1.700000e-02
      vertex   3.950837e-02 1.914628e-02 8.500000e-03
    endloop
  endfacet
  facet normal -7.864506e-01 6.176532e-01 0.000000e+00
    outer loop
      vertex   3.877986e-02 1.866333e-02 8.500000e-03
      vertex   3.877986e-02 1.866333e-02 1.700000e-02
      vertex   3.887467e-02 1.878405e-02 1.275000e-02
    endloop
  endfacet
  facet normal -7.864506e-01 6.176532e-01 1.788238e-15
    outer loop
      vertex   3.887467e-02 1.878405e-02 1.275000e-02
      vertex   3.877986e-02 1.866333e-02 1.700000e-02
      vertex   3.887467e-02 1.878405e-02 1.700000e-02
    endloop
  endfacet
  facet normal -8.654438e-01 5.010060e-01 1.821985e-15
    outer loop
      vertex   3.887467e-02 1.878405e-02 1.275000e-02
      vertex   3.887467e-02 1.878405e-02 1.700000e-02
      vertex   3.894988e-02 1.891398e-02 1.700000e-02
    endloop
  endfacet
  facet normal -8.654438e-01 5.010060e-01 -4.096678e-16
    outer loop
      vertex   3.887467e-02 1.878405e-02 1.275000e-02
      vertex   3.894988e-02 1.891398e-02 1.700000e-02
      vertex   3.894988e-02 1.891398e-02 1.275000e-02
    endloop
  endfacet
  facet normal -9.525897e-01 3.042578e-01 -2.483779e-16
    outer loop
      vertex   3.894988e-02 1.891398e-02 1.275000e-02
      vertex   3.894988e-02 1.891398e-02 1.700000e-02
      vertex   3.899578e-02 1.905768e-02 1.700000e-02
    endloop
  endfacet
  facet normal -9.525897e-01 3.042578e-01 -2.613855e-15
    outer loop
      vertex   3.894988e-02 1.891398e-02 1.275000e-02
      vertex   3.899578e-02 1.905768e-02 1.700000e-02
      vertex   3.899578e-02 1.905768e-02 1.275000e-02
    endloop
  endfacet
  facet normal -9.813569e-01 1.921943e-01 -2.890693e-15
    outer loop
      vertex   3.899578e-02 1.905768e-02 1.275000e-02
      vertex   3.899578e-02 1.905768e-02 1.700000e-02
      vertex   3.902542e-02 1.920903e-02 1.700000e-02
    endloop
  endfacet
  facet normal -9.813569e-01 1.921943e-01 0.000000e+00
    outer loop
      vertex   3.899578e-02 1.905768e-02 1.275000e-02
      vertex   3.902542e-02 1.920903e-02 1.700000e-02
      vertex   3.902542e-02 1.920903e-02 8.500000e-03
    endloop
  endfacet
  facet normal -9.813569e-01 1.921943e-01 2.891273e-15
    outer loop
      vertex   3.902542e-02 1.920903e-02 8.500000e-03
      vertex   3.899578e-02 1.905768e-02 8.500000e-03
      vertex   3.899578e-02 1.905768e-02 1.275000e-02
    endloop
  endfacet
  facet normal -9.525897e-01 3.042578e-01 2.613794e-15
    outer loop
      vertex   3.899578e-02 1.905768e-02 1.275000e-02
      vertex   3.899578e-02 1.905768e-02 8.500000e-03
      vertex   3.894988e-02 1.891398e-02 8.500000e-03
    endloop
  endfacet
  facet normal -9.525897e-01 3.042578e-01 2.477099e-16
    outer loop
      vertex   3.899578e-02 1.905768e-02 1.275000e-02
      vertex   3.894988e-02 1.891398e-02 8.500000e-03
      vertex   3.894988e-02 1.891398e-02 1.275000e-02
    endloop
  endfacet
  facet normal -8.654438e-01 5.010060e-01 4.089915e-16
    outer loop
      vertex   3.894988e-02 1.891398e-02 1.275000e-02
      vertex   3.894988e-02 1.891398e-02 8.500000e-03
      vertex   3.887467e-02 1.878405e-02 8.500000e-03
    endloop
  endfacet
  facet normal -8.654438e-01 5.010060e-01 -1.822762e-15
    outer loop
      vertex   3.894988e-02 1.891398e-02 1.275000e-02
      vertex   3.887467e-02 1.878405e-02 8.500000e-03
      vertex   3.887467e-02 1.878405e-02 1.275000e-02
    endloop
  endfacet
  facet normal -7.864506e-01 6.176532e-01 -1.788238e-15
    outer loop
      vertex   3.887467e-02 1.878405e-02 1.275000e-02
      vertex   3.887467e-02 1.878405e-02 8.500000e-03
      vertex   3.877986e-02 1.866333e-02 8.500000e-03
    endloop
  endfacet
  facet normal 0.000000e+00 0.000000e+00 1.000000e+00
    outer loop
      vertex   3.950837e-02 1.914628e-02 1.700000e-02
      vertex   3.902542e-02 1.920903e-02 1.700000e-02
      vertex   3.945507e-02 1.892549e-02 1.700000e-02
    endloop
  endfacet
  facet normal 0.000000e+00 0.000000e+00 1.000000e+00
    outer loop
      vertex   3.945507e-02 1.892549e-02 1.700000e-02
      vertex   3.902542e-02 1.920903e-02 1.700000e-02
      vertex   3.899578e-02 1.905768e-02 1.700000e-02
    endloop
  endfacet
  facet normal 0.000000e+00 0.000000e+00 1.000000e+00
    outer loop
      vertex   3.945507e-02 1.892549e-02 1.700000e-02
      vertex   3.899578e-02 1.905768e-02 1.700000e-02
      vertex   3.937637e-02 1.871812e-02 1.700000e-02
    endloop
  endfacet
  facet normal 0.000000e+00 0.000000e+00 1.000000e+00
    outer loop
      vertex   3.937637e-02 1.871812e-02 1.700000e-02
      vertex   3.899578e-02 1.905768e-02 1.700000e-02
      vertex   3.894988e-02 1.891398e-02 1.700000e-02
    endloop
  endfacet
  facet normal 0.000000e+00 0.000000e+00 1.000000e+00
    outer loop
      vertex   3.937637e-02 1.871812e-02 1.700000e-02
      vertex   3.894988e-02 1.891398e-02 1.700000e-02
      vertex   3.925363e-02 1.853402e-02 1.700000e-02
    endloop
  endfacet
  facet normal 0.000000e+00 0.000000e+00 1.000000e+00
    outer loop
      vertex   3.925363e-02 1.853402e-02 1.700000e-02
      vertex   3.894988e-02 1.891398e-02 1.700000e-02
      vertex   3.887467e-02 1.878405e-02 1.700000e-02
    endloop
  endfacet
  facet normal 0.000000e+00 0.000000e+00 1.000000e+00
    outer loop
      vertex   3.925363e-02 1.853402e-02 1.700000e-02
      vertex   3.887467e-02 1.878405e-02 1.700000e-02
      vertex   3.910319e-02 1.836456e-02 1.700000e-02
    endloop
  endfacet
  facet normal 0.000000e+00 0.000000e+00 1.000000e+00
    outer loop
      vertex   3.910319e-02 1.836456e-02 1.700000e-02
      vertex   3.887467e-02 1.878405e-02 1.700000e-02
      vertex   3.877986e-02 1.866333e-02 1.700000e-02
    endloop
  endfacet
  facet normal 0.000000e+00 0.000000e+00 1.000000e+00
    outer loop
      vertex   3.910319e-02 1.836456e-02 1.700000e-02
      vertex   3.877986e-02 1.866333e-02 1.700000e-02
      vertex   3.892143e-02 1.824246e-02 1.700000e-02
    endloop
  endfacet
  facet normal 0.000000e+00 0.000000e+00 1.000000e+00
    outer loop
      vertex   3.892143e-02 1.824246e-02 1.700000e-02
      vertex   3.877986e-02 1.866333e-02 1.700000e-02
      vertex   3.867120e-02 1.858662e-02 1.700000e-02
    endloop
  endfacet
  facet normal 0.000000e+00 0.000000e+00 1.000000e+00
    outer loop
      vertex   3.892143e-02 1.824246e-02 1.700000e-02
      vertex   3.867120e-02 1.858662e-02 1.700000e-02
      vertex   3.872941e-02 1.814901e-02 1.700000e-02
    endloop
  endfacet
  facet normal 0.000000e+00 0.000000e+00 1.000000e+00
    outer loop
      vertex   3.872941e-02 1.814901e-02 1.700000e-02
      vertex   3.867120e-02 1.858662e-02 1.700000e-02
      vertex   3.855582e-02 1.852793e-02 1.700000e-02
    endloop
  endfacet
  facet normal 0.000000e+00 0.000000e+00 1.000000e+00
    outer loop
      vertex   3.872941e-02 1.814901e-02 1.700000e-02
      vertex   3.855582e-02 1.852793e-02 1.700000e-02
      vertex   3.852075e-02 1.810199e-02 1.700000e-02
    endloop
  endfacet
  facet normal 0.000000e+00 -0.000000e+00 1.000000e+00
    outer loop
      vertex   3.852075e-02 1.810199e-02 1.700000e-02
      vertex   3.855582e-02 1.852793e-02 1.700000e-02
      vertex   3.842955e-02 1.849842e-02 1.700000e-02
    endloop
  endfacet
  facet normal 0.000000e+00 0.000000e+00 1.000000e+00
    outer loop
      vertex   3.852075e-02 1.810199e-02 1.700000e-02
      vertex   3.842955e-02 1.849842e-02 1.700000e-02
      vertex   3.830237e-02 1.808216e-02 1.700000e-02
    endloop
  endfacet
  facet normal 0.000000e+00 -0.000000e+00 1.000000e+00
    outer loop
      vertex   3.830237e-02 1.808216e-02 1.700000e-02
      vertex   3.842955e-02 1.849842e-02 1.700000e-02
      vertex   3.829691e-02 1.848598e-02 1.700000e-02
    endloop
  endfacet
  facet normal 0.000000e+00 0.000000e+00 1.000000e+00
    outer loop
      vertex   3.830237e-02 1.808216e-02 1.700000e-02
      vertex   3.829691e-02 1.848598e-02 1.700000e-02
      vertex   3.812978e-02 1.850578e-02 1.700000e-02
    endloop
  endfacet
  facet normal 0.000000e+00 0.000000e+00 1.000000e+00
    outer loop
      vertex   3.830237e-02 1.808216e-02 1.700000e-02
      vertex   3.812978e-02 1.850578e-02 1.700000e-02
      vertex   3.803401e-02 1.810878e-02 1.700000e-02
    endloop
  endfacet
  facet normal 0.000000e+00 -0.000000e+00 1.000000e+00
    outer loop
      vertex   3.803401e-02 1.810878e-02 1.700000e-02
      vertex   3.812978e-02 1.850578e-02 1.700000e-02
      vertex   3.797409e-02 1.855067e-02 1.700000e-02
    endloop
  endfacet
  facet normal 1.421686e-14 1.927822e-15 1.000000e+00
    outer loop
      vertex   3.803401e-02 1.810878e-02 1.700000e-02
      vertex   3.797409e-02 1.855067e-02 1.700000e-02
      vertex   3.778126e-02 1.817304e-02 1.700000e-02
    endloop
  endfacet
  facet normal 4.426613e-15 6.927036e-15 1.000000e+00
    outer loop
      vertex   3.778126e-02 1.817304e-02 1.700000e-02
      vertex   3.797409e-02 1.855067e-02 1.700000e-02
      vertex   3.783770e-02 1.863783e-02 1.700000e-02
    endloop
  endfacet
  facet normal -1.037816e-14 8.724671e-15 1.000000e+00
    outer loop
      vertex   3.778126e-02 1.817304e-02 1.700000e-02
      vertex   3.783770e-02 1.863783e-02 1.700000e-02
      vertex   3.755532e-02 1.830194e-02 1.700000e-02
    endloop
  endfacet
  facet normal 0.000000e+00 0.000000e+00 1.000000e+00
    outer loop
      vertex   3.755532e-02 1.830194e-02 1.700000e-02
      vertex   3.783770e-02 1.863783e-02 1.700000e-02
      vertex   3.771301e-02 1.875064e-02 1.700000e-02
    endloop
  endfacet
  facet normal 0.000000e+00 -0.000000e+00 1.000000e+00
    outer loop
      vertex   3.755532e-02 1.830194e-02 1.700000e-02
      vertex   3.771301e-02 1.875064e-02 1.700000e-02
      vertex   3.734602e-02 1.847097e-02 1.700000e-02
    endloop
  endfacet
  facet normal 0.000000e+00 0.000000e+00 1.000000e+00
    outer loop
      vertex   3.734602e-02 1.847097e-02 1.700000e-02
      vertex   3.771301e-02 1.875064e-02 1.700000e-02
      vertex   3.760513e-02 1.894774e-02 1.700000e-02
    endloop
  endfacet
  facet normal 0.000000e+00 -0.000000e+00 1.000000e+00
    outer loop
      vertex   3.734602e-02 1.847097e-02 1.700000e-02
      vertex   3.760513e-02 1.894774e-02 1.700000e-02
      vertex   3.718061e-02 1.872390e-02 1.700000e-02
    endloop
  endfacet
  facet normal 0.000000e+00 0.000000e+00 1.000000e+00
    outer loop
      vertex   3.718061e-02 1.872390e-02 1.700000e-02
      vertex   3.760513e-02 1.894774e-02 1.700000e-02
      vertex   3.752883e-02 1.915398e-02 1.700000e-02
    endloop
  endfacet
  facet normal 0.000000e+00 -0.000000e+00 1.000000e+00
    outer loop
      vertex   3.718061e-02 1.872390e-02 1.700000e-02
      vertex   3.752883e-02 1.915398e-02 1.700000e-02
      vertex   3.705890e-02 1.899181e-02 1.700000e-02
    endloop
  endfacet
  facet normal 0.000000e+00 -0.000000e+00 1.000000e+00
    outer loop
      vertex   3.705890e-02 1.899181e-02 1.700000e-02
      vertex   3.752883e-02 1.915398e-02 1.700000e-02
      vertex   3.700327e-02 1.928237e-02 1.700000e-02
    endloop
  endfacet
  facet normal -0.000000e+00 0.000000e+00 1.000000e+00
    outer loop
      vertex   3.700327e-02 1.928237e-02 1.700000e-02
      vertex   3.752883e-02 1.915398e-02 1.700000e-02
      vertex   3.749705e-02 1.937312e-02 1.700000e-02
    endloop
  endfacet
  facet normal 0.000000e+00 -0.000000e+00 1.000000e+00
    outer loop
      vertex   3.700327e-02 1.928237e-02 1.700000e-02
      vertex   3.749705e-02 1.937312e-02 1.700000e-02
      vertex   3.698450e-02 1.958557e-02 1.700000e-02
    endloop
  endfacet
  facet normal -0.000000e+00 0.000000e+00 1.000000e+00
    outer loop
      vertex   3.698450e-02 1.958557e-02 1.700000e-02
      vertex   3.749705e-02 1.937312e-02 1.700000e-02
      vertex   3.748927e-02 1.959921e-02 1.700000e-02
    endloop
  endfacet
  facet normal 0.000000e+00 0.000000e+00 1.000000e+00
    outer loop
      vertex   3.698450e-02 1.958557e-02 1.700000e-02
      vertex   3.748927e-02 1.959921e-02 1.700000e-02
      vertex   3.699426e-02 1.979656e-02 1.700000e-02
    endloop
  endfacet
  facet normal -0.000000e+00 0.000000e+00 1.000000e+00
    outer loop
      vertex   3.699426e-02 1.979656e-02 1.700000e-02
      vertex   3.748927e-02 1.959921e-02 1.700000e-02
      vertex   3.749792e-02 1.982449e-02 1.700000e-02
    endloop
  endfacet
  facet normal 0.000000e+00 0.000000e+00 1.000000e+00
    outer loop
      vertex   3.699426e-02 1.979656e-02 1.700000e-02
      vertex   3.749792e-02 1.982449e-02 1.700000e-02
      vertex   3.701935e-02 2.000457e-02 1.700000e-02
    endloop
  endfacet
  facet normal -0.000000e+00 0.000000e+00 1.000000e+00
    outer loop
      vertex   3.701935e-02 2.000457e-02 1.700000e-02
      vertex   3.749792e-02 1.982449e-02 1.700000e-02
      vertex   3.753127e-02 2.004234e-02 1.700000e-02
    endloop
  endfacet
  facet normal 0.000000e+00 0.000000e+00 1.000000e+00
    outer loop
      vertex   3.701935e-02 2.000457e-02 1.700000e-02
      vertex   3.753127e-02 2.004234e-02 1.700000e-02
      vertex   3.707120e-02 2.020736e-02 1.700000e-02
    endloop
  endfacet
  facet normal -0.000000e+00 0.000000e+00 1.000000e+00
    outer loop
      vertex   3.707120e-02 2.020736e-02 1.700000e-02
      vertex   3.753127e-02 2.004234e-02 1.700000e-02
      vertex   3.714002e-02 2.040685e-02 1.700000e-02
    endloop
  endfacet
  facet normal 0.000000e+00 0.000000e+00 1.000000e+00
    outer loop
      vertex   3.714002e-02 2.040685e-02 1.700000e-02
      vertex   3.753127e-02 2.004234e-02 1.700000e-02
      vertex   3.761023e-02 2.024646e-02 1.700000e-02
    endloop
  endfacet
  facet normal -0.000000e+00 0.000000e+00 1.000000e+00
    outer loop
      vertex   3.714002e-02 2.040685e-02 1.700000e-02
      vertex   3.761023e-02 2.024646e-02 1.700000e-02
      vertex   3.722806e-02 2.056616e-02 1.700000e-02
    endloop
  endfacet
  facet normal -0.000000e+00 0.000000e+00 1.000000e+00
    outer loop
      vertex   3.722806e-02 2.056616e-02 1.700000e-02
      vertex   3.761023e-02 2.024646e-02 1.700000e-02
      vertex   3.733245e-02 2.071073e-02 1.700000e-02
    endloop
  endfacet
  facet normal 0.000000e+00 0.000000e+00 1.000000e+00
    outer loop
      vertex   3.733245e-02 2.071073e-02 1.700000e-02
      vertex   3.761023e-02 2.024646e-02 1.700000e-02
      vertex   3.772119e-02 2.044095e-02 1.700000e-02
    endloop
  endfacet
  facet normal -0.000000e+00 0.000000e+00 1.000000e+00
    outer loop
      vertex   3.733245e-02 2.071073e-02 1.700000e-02
      vertex   3.772119e-02 2.044095e-02 1.700000e-02
      vertex   3.746450e-02 2.083037e-02 1.700000e-02
    endloop
  endfacet
  facet normal -0.000000e+00 0.000000e+00 1.000000e+00
    outer loop
      vertex   3.746450e-02 2.083037e-02 1.700000e-02
      vertex   3.772119e-02 2.044095e-02 1.700000e-02
      vertex   3.761342e-02 2.093482e-02 1.700000e-02
    endloop
  endfacet
  facet normal 0.000000e+00 0.000000e+00 1.000000e+00
    outer loop
      vertex   3.761342e-02 2.093482e-02 1.700000e-02
      vertex   3.772119e-02 2.044095e-02 1.700000e-02
      vertex   3.785092e-02 2.055469e-02 1.700000e-02
    endloop
  endfacet
  facet normal -0.000000e+00 0.000000e+00 1.000000e+00
    outer loop
      vertex   3.761342e-02 2.093482e-02 1.700000e-02
      vertex   3.785092e-02 2.055469e-02 1.700000e-02
      vertex   3.777848e-02 2.100958e-02 1.700000e-02
    endloop
  endfacet
  facet normal 0.000000e+00 0.000000e+00 1.000000e+00
    outer loop
      vertex   3.777848e-02 2.100958e-02 1.700000e-02
      vertex   3.785092e-02 2.055469e-02 1.700000e-02
      vertex   3.799224e-02 2.064240e-02 1.700000e-02
    endloop
  endfacet
  facet normal -0.000000e+00 0.000000e+00 1.000000e+00
    outer loop
      vertex   3.777848e-02 2.100958e-02 1.700000e-02
      vertex   3.799224e-02 2.064240e-02 1.700000e-02
      vertex   3.794785e-02 2.106746e-02 1.700000e-02
    endloop
  endfacet
  facet normal 0.000000e+00 0.000000e+00 1.000000e+00
    outer loop
      vertex   3.794785e-02 2.106746e-02 1.700000e-02
      vertex   3.799224e-02 2.064240e-02 1.700000e-02
      vertex   3.815259e-02 2.068734e-02 1.700000e-02
    endloop
  endfacet
  facet normal -0.000000e+00 0.000000e+00 1.000000e+00
    outer loop
      vertex   3.794785e-02 2.106746e-02 1.700000e-02
      vertex   3.815259e-02 2.068734e-02 1.700000e-02
      vertex   3.812435e-02 2.109745e-02 1.700000e-02
    endloop
  endfacet
  facet normal 0.000000e+00 0.000000e+00 1.000000e+00
    outer loop
      vertex   3.812435e-02 2.109745e-02 1.700000e-02
      vertex   3.815259e-02 2.068734e-02 1.700000e-02
      vertex   3.832420e-02 2.070698e-02 1.700000e-02
    endloop
  endfacet
  facet normal -0.000000e+00 0.000000e+00 1.000000e+00
    outer loop
      vertex   3.812435e-02 2.109745e-02 1.700000e-02
      vertex   3.832420e-02 2.070698e-02 1.700000e-02
      vertex   3.830510e-02 2.111080e-02 1.700000e-02
    endloop
  endfacet
  facet normal 0.000000e+00 0.000000e+00 1.000000e+00
    outer loop
      vertex   3.830510e-02 2.111080e-02 1.700000e-02
      vertex   3.832420e-02 2.070698e-02 1.700000e-02
      vertex   3.843825e-02 2.069640e-02 1.700000e-02
    endloop
  endfacet
  facet normal 0.000000e+00 0.000000e+00 1.000000e+00
    outer loop
      vertex   3.830510e-02 2.111080e-02 1.700000e-02
      vertex   3.843825e-02 2.069640e-02 1.700000e-02
      vertex   3.851256e-02 2.109620e-02 1.700000e-02
    endloop
  endfacet
  facet normal 0.000000e+00 0.000000e+00 1.000000e+00
    outer loop
      vertex   3.851256e-02 2.109620e-02 1.700000e-02
      vertex   3.843825e-02 2.069640e-02 1.700000e-02
      vertex   3.854728e-02 2.067171e-02 1.700000e-02
    endloop
  endfacet
  facet normal 0.000000e+00 0.000000e+00 1.000000e+00
    outer loop
      vertex   3.851256e-02 2.109620e-02 1.700000e-02
      vertex   3.854728e-02 2.067171e-02 1.700000e-02
      vertex   3.871246e-02 2.105795e-02 1.700000e-02
    endloop
  endfacet
  facet normal 0.000000e+00 0.000000e+00 1.000000e+00
    outer loop
      vertex   3.871246e-02 2.105795e-02 1.700000e-02
      vertex   3.854728e-02 2.067171e-02 1.700000e-02
      vertex   3.864777e-02 2.062303e-02 1.700000e-02
    endloop
  endfacet
  facet normal 0.000000e+00 0.000000e+00 1.000000e+00
    outer loop
      vertex   3.871246e-02 2.105795e-02 1.700000e-02
      vertex   3.864777e-02 2.062303e-02 1.700000e-02
      vertex   3.889909e-02 2.097823e-02 1.700000e-02
    endloop
  endfacet
  facet normal 0.000000e+00 0.000000e+00 1.000000e+00
    outer loop
      vertex   3.889909e-02 2.097823e-02 1.700000e-02
      vertex   3.864777e-02 2.062303e-02 1.700000e-02
      vertex   3.874302e-02 2.055964e-02 1.700000e-02
    endloop
  endfacet
  facet normal 0.000000e+00 0.000000e+00 1.000000e+00
    outer loop
      vertex   3.889909e-02 2.097823e-02 1.700000e-02
      vertex   3.874302e-02 2.055964e-02 1.700000e-02
      vertex   3.907726e-02 2.087206e-02 1.700000e-02
    endloop
  endfacet
  facet normal 0.000000e+00 0.000000e+00 1.000000e+00
    outer loop
      vertex   3.907726e-02 2.087206e-02 1.700000e-02
      vertex   3.874302e-02 2.055964e-02 1.700000e-02
      vertex   3.882820e-02 2.046385e-02 1.700000e-02
    endloop
  endfacet
  facet normal 0.000000e+00 0.000000e+00 1.000000e+00
    outer loop
      vertex   3.907726e-02 2.087206e-02 1.700000e-02
      vertex   3.882820e-02 2.046385e-02 1.700000e-02
      vertex   3.921664e-02 2.072750e-02 1.700000e-02
    endloop
  endfacet
  facet normal 0.000000e+00 0.000000e+00 1.000000e+00
    outer loop
      vertex   3.921664e-02 2.072750e-02 1.700000e-02
      vertex   3.882820e-02 2.046385e-02 1.700000e-02
      vertex   3.889906e-02 2.035996e-02 1.700000e-02
    endloop
  endfacet
  facet normal 0.000000e+00 0.000000e+00 1.000000e+00
    outer loop
      vertex   3.921664e-02 2.072750e-02 1.700000e-02
      vertex   3.889906e-02 2.035996e-02 1.700000e-02
      vertex   3.933169e-02 2.056890e-02 1.700000e-02
    endloop
  endfacet
  facet normal 0.000000e+00 0.000000e+00 1.000000e+00
    outer loop
      vertex   3.933169e-02 2.056890e-02 1.700000e-02
      vertex   3.889906e-02 2.035996e-02 1.700000e-02
      vertex   3.894796e-02 2.024365e-02 1.700000e-02
    endloop
  endfacet
  facet normal 0.000000e+00 0.000000e+00 1.000000e+00
    outer loop
      vertex   3.933169e-02 2.056890e-02 1.700000e-02
      vertex   3.894796e-02 2.024365e-02 1.700000e-02
      vertex   3.940801e-02 2.038792e-02 1.700000e-02
    endloop
  endfacet
  facet normal 0.000000e+00 0.000000e+00 1.000000e+00
    outer loop
      vertex   3.940801e-02 2.038792e-02 1.700000e-02
      vertex   3.894796e-02 2.024365e-02 1.700000e-02
      vertex   3.898450e-02 2.012035e-02 1.700000e-02
    endloop
  endfacet
  facet normal 0.000000e+00 0.000000e+00 1.000000e+00
    outer loop
      vertex   3.940801e-02 2.038792e-02 1.700000e-02
      vertex   3.898450e-02 2.012035e-02 1.700000e-02
      vertex   3.946199e-02 2.019402e-02 1.700000e-02
    endloop
  endfacet
  facet normal 0.000000e+00 -0.000000e+00 -1.000000e+00
    outer loop
      vertex   3.887467e-02 1.878405e-02 8.500000e-03
      vertex   3.910319e-02 1.836456e-02 8.500000e-03
      vertex   3.877986e-02 1.866333e-02 8.500000e-03
    endloop
  endfacet
  facet normal 0.000000e+00 0.000000e+00 -1.000000e+00
    outer loop
      vertex   3.877986e-02 1.866333e-02 8.500000e-03
      vertex   3.910319e-02 1.836456e-02 8.500000e-03
      vertex   3.892143e-02 1.824246e-02 8.500000e-03
    endloop
  endfacet
  facet normal 0.000000e+00 -0.000000e+00 -1.000000e+00
    outer loop
      vertex   3.877986e-02 1.866333e-02 8.500000e-03
      vertex   3.892143e-02 1.824246e-02 8.500000e-03
      vertex   3.867120e-02 1.858662e-02 8.500000e-03
    endloop
  endfacet
  facet normal 0.000000e+00 0.000000e+00 -1.000000e+00
    outer loop
      vertex   3.867120e-02 1.858662e-02 8.500000e-03
      vertex   3.892143e-02 1.824246e-02 8.500000e-03
      vertex   3.872941e-02 1.814901e-02 8.500000e-03
    endloop
  endfacet
  facet normal 0.000000e+00 -0.000000e+00 -1.000000e+00
    outer loop
      vertex   3.867120e-02 1.858662e-02 8.500000e-03
      vertex   3.872941e-02 1.814901e-02 8.500000e-03
      vertex   3.855582e-02 1.852793e-02 8.500000e-03
    endloop
  endfacet
  facet normal 0.000000e+00 -0.000000e+00 -1.000000e+00
    outer loop
      vertex   3.855582e-02 1.852793e-02 8.500000e-03
      vertex   3.872941e-02 1.814901e-02 8.500000e-03
      vertex   3.852075e-02 1.810199e-02 8.500000e-03
    endloop
  endfacet
  facet normal 0.000000e+00 0.000000e+00 -1.000000e+00
    outer loop
      vertex   3.855582e-02 1.852793e-02 8.500000e-03
      vertex   3.852075e-02 1.810199e-02 8.500000e-03
      vertex   3.842955e-02 1.849842e-02 8.500000e-03
    endloop
  endfacet
  facet normal 0.000000e+00 -0.000000e+00 -1.000000e+00
    outer loop
      vertex   3.842955e-02 1.849842e-02 8.500000e-03
      vertex   3.852075e-02 1.810199e-02 8.500000e-03
      vertex   3.830237e-02 1.808216e-02 8.500000e-03
    endloop
  endfacet
  facet normal 0.000000e+00 0.000000e+00 -1.000000e+00
    outer loop
      vertex   3.842955e-02 1.849842e-02 8.500000e-03
      vertex   3.830237e-02 1.808216e-02 8.500000e-03
      vertex   3.829691e-02 1.848598e-02 8.500000e-03
    endloop
  endfacet
  facet normal -0.000000e+00 -0.000000e+00 -1.000000e+00
    outer loop
      vertex   3.829691e-02 1.848598e-02 8.500000e-03
      vertex   3.830237e-02 1.808216e-02 8.500000e-03
      vertex   3.812978e-02 1.850578e-02 8.500000e-03
    endloop
  endfacet
  facet normal 0.000000e+00 -0.000000e+00 -1.000000e+00
    outer loop
      vertex   3.812978e-02 1.850578e-02 8.500000e-03
      vertex   3.830237e-02 1.808216e-02 8.500000e-03
      vertex   3.803401e-02 1.810878e-02 8.500000e-03
    endloop
  endfacet
  facet normal -0.000000e+00 0.000000e+00 -1.000000e+00
    outer loop
      vertex   3.812978e-02 1.850578e-02 8.500000e-03
      vertex   3.803401e-02 1.810878e-02 8.500000e-03
      vertex   3.797409e-02 1.855067e-02 8.500000e-03
    endloop
  endfacet
  facet normal -7.108431e-15 -9.639108e-16 -1.000000e+00
    outer loop
      vertex   3.797409e-02 1.855067e-02 8.500000e-03
      vertex   3.803401e-02 1.810878e-02 8.500000e-03
      vertex   3.778126e-02 1.817304e-02 8.500000e-03
    endloop
  endfacet
  facet normal -2.213307e-15 -3.463518e-15 -1.000000e+00
    outer loop
      vertex   3.797409e-02 1.855067e-02 8.500000e-03
      vertex   3.778126e-02 1.817304e-02 8.500000e-03
      vertex   3.783770e-02 1.863783e-02 8.500000e-03
    endloop
  endfacet
  facet normal 5.189079e-15 -4.362335e-15 -1.000000e+00
    outer loop
      vertex   3.783770e-02 1.863783e-02 8.500000e-03
      vertex   3.778126e-02 1.817304e-02 8.500000e-03
      vertex   3.755532e-02 1.830194e-02 8.500000e-03
    endloop
  endfacet
  facet normal -0.000000e+00 0.000000e+00 -1.000000e+00
    outer loop
      vertex   3.783770e-02 1.863783e-02 8.500000e-03
      vertex   3.755532e-02 1.830194e-02 8.500000e-03
      vertex   3.771301e-02 1.875064e-02 8.500000e-03
    endloop
  endfacet
  facet normal 0.000000e+00 0.000000e+00 -1.000000e+00
    outer loop
      vertex   3.771301e-02 1.875064e-02 8.500000e-03
      vertex   3.755532e-02 1.830194e-02 8.500000e-03
      vertex   3.734602e-02 1.847097e-02 8.500000e-03
    endloop
  endfacet
  facet normal -0.000000e+00 0.000000e+00 -1.000000e+00
    outer loop
      vertex   3.771301e-02 1.875064e-02 8.500000e-03
      vertex   3.734602e-02 1.847097e-02 8.500000e-03
      vertex   3.760513e-02 1.894774e-02 8.500000e-03
    endloop
  endfacet
  facet normal 0.000000e+00 0.000000e+00 -1.000000e+00
    outer loop
      vertex   3.760513e-02 1.894774e-02 8.500000e-03
      vertex   3.734602e-02 1.847097e-02 8.500000e-03
      vertex   3.718061e-02 1.872390e-02 8.500000e-03
    endloop
  endfacet
  facet normal -0.000000e+00 0.000000e+00 -1.000000e+00
    outer loop
      vertex   3.760513e-02 1.894774e-02 8.500000e-03
      vertex   3.718061e-02 1.872390e-02 8.500000e-03
      vertex   3.752883e-02 1.915398e-02 8.500000e-03
    endloop
  endfacet
  facet normal 0.000000e+00 0.000000e+00 -1.000000e+00
    outer loop
      vertex   3.752883e-02 1.915398e-02 8.500000e-03
      vertex   3.718061e-02 1.872390e-02 8.500000e-03
      vertex   3.705890e-02 1.899181e-02 8.500000e-03
    endloop
  endfacet
  facet normal -0.000000e+00 0.000000e+00 -1.000000e+00
    outer loop
      vertex   3.752883e-02 1.915398e-02 8.500000e-03
      vertex   3.705890e-02 1.899181e-02 8.500000e-03
      vertex   3.700327e-02 1.928237e-02 8.500000e-03
    endloop
  endfacet
  facet normal 0.000000e+00 0.000000e+00 -1.000000e+00
    outer loop
      vertex   3.910319e-02 1.836456e-02 8.500000e-03
      vertex   3.887467e-02 1.878405e-02 8.500000e-03
      vertex   3.925363e-02 1.853402e-02 8.500000e-03
    endloop
  endfacet
  facet normal 0.000000e+00 0.000000e+00 -1.000000e+00
    outer loop
      vertex   3.925363e-02 1.853402e-02 8.500000e-03
      vertex   3.887467e-02 1.878405e-02 8.500000e-03
      vertex   3.894988e-02 1.891398e-02 8.500000e-03
    endloop
  endfacet
  facet normal 0.000000e+00 0.000000e+00 -1.000000e+00
    outer loop
      vertex   3.925363e-02 1.853402e-02 8.500000e-03
      vertex   3.894988e-02 1.891398e-02 8.500000e-03
      vertex   3.937637e-02 1.871812e-02 8.500000e-03
    endloop
  endfacet
  facet normal 0.000000e+00 0.000000e+00 -1.000000e+00
    outer loop
      vertex   3.937637e-02 1.871812e-02 8.500000e-03
      vertex   3.894988e-02 1.891398e-02 8.500000e-03
      vertex   3.899578e-02 1.905768e-02 8.500000e-03
    endloop
  endfacet
  facet normal 0.000000e+00 0.000000e+00 -1.000000e+00
    outer loop
      vertex   3.937637e-02 1.871812e-02 8.500000e-03
      vertex   3.899578e-02 1.905768e-02 8.500000e-03
      vertex   3.945507e-02 1.892549e-02 8.500000e-03
    endloop
  endfacet
  facet normal 0.000000e+00 0.000000e+00 -1.000000e+00
    outer loop
      vertex   3.945507e-02 1.892549e-02 8.500000e-03
      vertex   3.899578e-02 1.905768e-02 8.500000e-03
      vertex   3.902542e-02 1.920903e-02 8.500000e-03
    endloop
  endfacet
  facet normal 0.000000e+00 0.000000e+00 -1.000000e+00
    outer loop
      vertex   3.945507e-02 1.892549e-02 8.500000e-03
      vertex   3.902542e-02 1.920903e-02 8.500000e-03
      vertex   3.950837e-02 1.914628e-02 8.500000e-03
    endloop
  endfacet
  facet normal 0.000000e+00 0.000000e+00 -1.000000e+00
    outer loop
      vertex   3.752883e-02 1.915398e-02 8.500000e-03
      vertex   3.700327e-02 1.928237e-02 8.500000e-03
      vertex   3.749705e-02 1.937312e-02 8.500000e-03
    endloop
  endfacet
  facet normal -0.000000e+00 0.000000e+00 -1.000000e+00
    outer loop
      vertex   3.749705e-02 1.937312e-02 8.500000e-03
      vertex   3.700327e-02 1.928237e-02 8.500000e-03
      vertex   3.698450e-02 1.958557e-02 8.500000e-03
    endloop
  endfacet
  facet normal 0.000000e+00 0.000000e+00 -1.000000e+00
    outer loop
      vertex   3.749705e-02 1.937312e-02 8.500000e-03
      vertex   3.698450e-02 1.958557e-02 8.500000e-03
      vertex   3.748927e-02 1.959921e-02 8.500000e-03
    endloop
  endfacet
  facet normal -0.000000e+00 0.000000e+00 -1.000000e+00
    outer loop
      vertex   3.748927e-02 1.959921e-02 8.500000e-03
      vertex   3.698450e-02 1.958557e-02 8.500000e-03
      vertex   3.699426e-02 1.979656e-02 8.500000e-03
    endloop
  endfacet
  facet normal 0.000000e+00 0.000000e+00 -1.000000e+00
    outer loop
      vertex   3.748927e-02 1.959921e-02 8.500000e-03
      vertex   3.699426e-02 1.979656e-02 8.500000e-03
      vertex   3.749792e-02 1.982449e-02 8.500000e-03
    endloop
  endfacet
  facet normal -0.000000e+00 0.000000e+00 -1.000000e+00
    outer loop
      vertex   3.749792e-02 1.982449e-02 8.500000e-03
      vertex   3.699426e-02 1.979656e-02 8.500000e-03
      vertex   3.701935e-02 2.000457e-02 8.500000e-03
    endloop
  endfacet
  facet normal 0.000000e+00 0.000000e+00 -1.000000e+00
    outer loop
      vertex   3.749792e-02 1.982449e-02 8.500000e-03
      vertex   3.701935e-02 2.000457e-02 8.500000e-03
      vertex   3.753127e-02 2.004234e-02 8.500000e-03
    endloop
  endfacet
  facet normal -0.000000e+00 0.000000e+00 -1.000000e+00
    outer loop
      vertex   3.753127e-02 2.004234e-02 8.500000e-03
      vertex   3.701935e-02 2.000457e-02 8.500000e-03
      vertex   3.707120e-02 2.020736e-02 8.500000e-03
    endloop
  endfacet
  facet normal 0.000000e+00 0.000000e+00 -1.000000e+00
    outer loop
      vertex   3.753127e-02 2.004234e-02 8.500000e-03
      vertex   3.707120e-02 2.020736e-02 8.500000e-03
      vertex   3.714002e-02 2.040685e-02 8.500000e-03
    endloop
  endfacet
  facet normal 0.000000e+00 0.000000e+00 -1.000000e+00
    outer loop
      vertex   3.753127e-02 2.004234e-02 8.500000e-03
      vertex   3.714002e-02 2.040685e-02 8.500000e-03
      vertex   3.761023e-02 2.024646e-02 8.500000e-03
    endloop
  endfacet
  facet normal 0.000000e+00 0.000000e+00 -1.000000e+00
    outer loop
      vertex   3.761023e-02 2.024646e-02 8.500000e-03
      vertex   3.714002e-02 2.040685e-02 8.500000e-03
      vertex   3.722806e-02 2.056616e-02 8.500000e-03
    endloop
  endfacet
  facet normal 0.000000e+00 0.000000e+00 -1.000000e+00
    outer loop
      vertex   3.761023e-02 2.024646e-02 8.500000e-03
      vertex   3.722806e-02 2.056616e-02 8.500000e-03
      vertex   3.733245e-02 2.071073e-02 8.500000e-03
    endloop
  endfacet
  facet normal 0.000000e+00 0.000000e+00 -1.000000e+00
    outer loop
      vertex   3.761023e-02 2.024646e-02 8.500000e-03
      vertex   3.733245e-02 2.071073e-02 8.500000e-03
      vertex   3.772119e-02 2.044095e-02 8.500000e-03
    endloop
  endfacet
  facet normal 0.000000e+00 0.000000e+00 -1.000000e+00
    outer loop
      vertex   3.772119e-02 2.044095e-02 8.500000e-03
      vertex   3.733245e-02 2.071073e-02 8.500000e-03
      vertex   3.746450e-02 2.083037e-02 8.500000e-03
    endloop
  endfacet
  facet normal 0.000000e+00 0.000000e+00 -1.000000e+00
    outer loop
      vertex   3.772119e-02 2.044095e-02 8.500000e-03
      vertex   3.746450e-02 2.083037e-02 8.500000e-03
      vertex   3.761342e-02 2.093482e-02 8.500000e-03
    endloop
  endfacet
  facet normal 0.000000e+00 0.000000e+00 -1.000000e+00
    outer loop
      vertex   3.772119e-02 2.044095e-02 8.500000e-03
      vertex   3.761342e-02 2.093482e-02 8.500000e-03
      vertex   3.785092e-02 2.055469e-02 8.500000e-03
    endloop
  endfacet
  facet normal 0.000000e+00 0.000000e+00 -1.000000e+00
    outer loop
      vertex   3.785092e-02 2.055469e-02 8.500000e-03
      vertex   3.761342e-02 2.093482e-02 8.500000e-03
      vertex   3.777848e-02 2.100958e-02 8.500000e-03
    endloop
  endfacet
  facet normal 0.000000e+00 0.000000e+00 -1.000000e+00
    outer loop
      vertex   3.785092e-02 2.055469e-02 8.500000e-03
      vertex   3.777848e-02 2.100958e-02 8.500000e-03
      vertex   3.799224e-02 2.064240e-02 8.500000e-03
    endloop
  endfacet
  facet normal 0.000000e+00 0.000000e+00 -1.000000e+00
    outer loop
      vertex   3.799224e-02 2.064240e-02 8.500000e-03
      vertex   3.777848e-02 2.100958e-02 8.500000e-03
      vertex   3.794785e-02 2.106746e-02 8.500000e-03
    endloop
  endfacet
  facet normal 0.000000e+00 0.000000e+00 -1.000000e+00
    outer loop
      vertex   3.799224e-02 2.064240e-02 8.500000e-03
      vertex   3.794785e-02 2.106746e-02 8.500000e-03
      vertex   3.815259e-02 2.068734e-02 8.500000e-03
    endloop
  endfacet
  facet normal 0.000000e+00 0.000000e+00 -1.000000e+00
    outer loop
      vertex   3.815259e-02 2.068734e-02 8.500000e-03
      vertex   3.794785e-02 2.106746e-02 8.500000e-03
      vertex   3.812435e-02 2.109745e-02 8.500000e-03
    endloop
  endfacet
  facet normal 0.000000e+00 0.000000e+00 -1.000000e+00
    outer loop
      vertex   3.815259e-02 2.068734e-02 8.500000e-03
      vertex   3.812435e-02 2.109745e-02 8.500000e-03
      vertex   3.832420e-02 2.070698e-02 8.500000e-03
    endloop
  endfacet
  facet normal 0.000000e+00 0.000000e+00 -1.000000e+00
    outer loop
      vertex   3.832420e-02 2.070698e-02 8.500000e-03
      vertex   3.812435e-02 2.109745e-02 8.500000e-03
      vertex   3.830510e-02 2.111080e-02 8.500000e-03
    endloop
  endfacet
  facet normal 0.000000e+00 0.000000e+00 -1.000000e+00
    outer loop
      vertex   3.832420e-02 2.070698e-02 8.500000e-03
      vertex   3.830510e-02 2.111080e-02 8.500000e-03
      vertex   3.843825e-02 2.069640e-02 8.500000e-03
    endloop
  endfacet
  facet normal 0.000000e+00 0.000000e+00 -1.000000e+00
    outer loop
      vertex   3.843825e-02 2.069640e-02 8.500000e-03
      vertex   3.830510e-02 2.111080e-02 8.500000e-03
      vertex   3.851256e-02 2.109620e-02 8.500000e-03
    endloop
  endfacet
  facet normal 0.000000e+00 0.000000e+00 -1.000000e+00
    outer loop
      vertex   3.843825e-02 2.069640e-02 8.500000e-03
      vertex   3.851256e-02 2.109620e-02 8.500000e-03
      vertex   3.854728e-02 2.067171e-02 8.500000e-03
    endloop
  endfacet
  facet normal 0.000000e+00 0.000000e+00 -1.000000e+00
    outer loop
      vertex   3.854728e-02 2.067171e-02 8.500000e-03
      vertex   3.851256e-02 2.109620e-02 8.500000e-03
      vertex   3.871246e-02 2.105795e-02 8.500000e-03
    endloop
  endfacet
  facet normal 0.000000e+00 0.000000e+00 -1.000000e+00
    outer loop
      vertex   3.854728e-02 2.067171e-02 8.500000e-03
      vertex   3.871246e-02 2.105795e-02 8.500000e-03
      vertex   3.864777e-02 2.062303e-02 8.500000e-03
    endloop
  endfacet
  facet normal 0.000000e+00 0.000000e+00 -1.000000e+00
    outer loop
      vertex   3.864777e-02 2.062303e-02 8.500000e-03
      vertex   3.871246e-02 2.105795e-02 8.500000e-03
      vertex   3.889909e-02 2.097823e-02 8.500000e-03
    endloop
  endfacet
  facet normal 0.000000e+00 0.000000e+00 -1.000000e+00
    outer loop
      vertex   3.864777e-02 2.062303e-02 8.500000e-03
      vertex   3.889909e-02 2.097823e-02 8.500000e-03
      vertex   3.874302e-02 2.055964e-02 8.500000e-03
    endloop
  endfacet
  facet normal 0.000000e+00 0.000000e+00 -1.000000e+00
    outer loop
      vertex   3.874302e-02 2.055964e-02 8.500000e-03
      vertex   3.889909e-02 2.097823e-02 8.500000e-03
      vertex   3.907726e-02 2.087206e-02 8.500000e-03
    endloop
  endfacet
  facet normal 0.000000e+00 0.000000e+00 -1.000000e+00
    outer loop
      vertex   3.874302e-02 2.055964e-02 8.500000e-03
      vertex   3.907726e-02 2.087206e-02 8.500000e-03
      vertex   3.882820e-02 2.046385e-02 8.500000e-03
    endloop
  endfacet
  facet normal 0.000000e+00 0.000000e+00 -1.000000e+00
    outer loop
      vertex   3.882820e-02 2.046385e-02 8.500000e-03
      vertex   3.907726e-02 2.087206e-02 8.500000e-03
      vertex   3.921664e-02 2.072750e-02 8.500000e-03
    endloop
  endfacet
  facet normal 0.000000e+00 0.000000e+00 -1.000000e+00
    outer loop
      vertex   3.882820e-02 2.046385e-02 8.500000e-03
      vertex   3.921664e-02 2.072750e-02 8.500000e-03
      vertex   3.889906e-02 2.035996e-02 8.500000e-03
    endloop
  endfacet
  facet normal 0.000000e+00 0.000000e+00 -1.000000e+00
    outer loop
      vertex   3.889906e-02 2.035996e-02 8.500000e-03
      vertex   3.921664e-02 2.072750e-02 8.500000e-03
      vertex   3.933169e-02 2.056890e-02 8.500000e-03
    endloop
  endfacet
  facet normal 0.000000e+00 0.000000e+00 -1.000000e+00
    outer loop
      vertex   3.889906e-02 2.035996e-02 8.500000e-03
      vertex   3.933169e-02 2.056890e-02 8.500000e-03
      vertex   3.894796e-02 2.024365e-02 8.500000e-03
    endloop
  endfacet
  facet normal 0.000000e+00 0.000000e+00 -1.000000e+00
    outer loop
      vertex   3.894796e-02 2.024365e-02 8.500000e-03
      vertex   3.933169e-02 2.056890e-02 8.500000e-03
      vertex   3.940801e-02 2.038792e-02 8.500000e-03
    endloop
  endfacet
  facet normal 0.000000e+00 0.000000e+00 -1.000000e+00
    outer loop
      vertex   3.894796e-02 2.024365e-02 8.500000e-03
      vertex   3.940801e-02 2.038792e-02 8.500000e-03
      vertex   3.898450e-02 2.012035e-02 8.500000e-03
    endloop
  endfacet
  facet normal 0.000000e+00 0.000000e+00 -1.000000e+00
    outer loop
      vertex   3.898450e-02 2.012035e-02 8.500000e-03
      vertex   3.940801e-02 2.038792e-02 8.500000e-03
      vertex   3.946199e-02 2.019402e-02 8.500000e-03
    endloop
  endfacet
endsolid
