solid ASCII
  facet normal 1.000000e+00 0.000000e+00 0.000000e+00
    outer loop
      vertex   1.326794e-02 9.400273e-03 2.800000e-02
      vertex   1.326794e-02 7.200000e-03 2.800000e-02
      vertex   1.326794e-02 9.400273e-03 1.400000e-02
    endloop
  endfacet
  facet normal 1.000000e+00 0.000000e+00 0.000000e+00
    outer loop
      vertex   1.326794e-02 9.400273e-03 1.400000e-02
      vertex   1.326794e-02 7.200000e-03 2.800000e-02
      vertex   1.326794e-02 7.200000e-03 1.400000e-02
    endloop
  endfacet
  facet normal -8.313835e-01 -5.556991e-01 -0.000000e+00
    outer loop
      vertex   1.473861e-02 7.200000e-03 2.800000e-02
      vertex   1.326794e-02 9.400273e-03 2.800000e-02
      vertex   1.473861e-02 7.200000e-03 1.400000e-02
    endloop
  endfacet
  facet normal -8.313835e-01 -5.556991e-01 0.000000e+00
    outer loop
      vertex   1.473861e-02 7.200000e-03 1.400000e-02
      vertex   1.326794e-02 9.400273e-03 2.800000e-02
      vertex   1.326794e-02 9.400273e-03 1.400000e-02
    endloop
  endfacet
  facet normal -0.000000e+00 -1.000000e+00 -0.000000e+00
    outer loop
      vertex   1.511869e-02 7.200000e-03 2.800000e-02
      vertex   1.473861e-02 7.200000e-03 2.800000e-02
      vertex   1.511869e-02 7.200000e-03 1.400000e-02
    endloop
  endfacet
  facet normal 0.000000e+00 -1.000000e+00 0.000000e+00
    outer loop
      vertex   1.511869e-02 7.200000e-03 1.400000e-02
      vertex   1.473861e-02 7.200000e-03 2.800000e-02
      vertex   1.473861e-02 7.200000e-03 1.400000e-02
    endloop
  endfacet
  facet normal 1.000000e+00 0.000000e+00 0.000000e+00
    outer loop
      vertex   1.511869e-02 1.000000e-02 2.800000e-02
      vertex   1.511869e-02 7.200000e-03 2.800000e-02
      vertex   1.511869e-02 1.000000e-02 1.400000e-02
    endloop
  endfacet
  facet normal 1.000000e+00 0.000000e+00 0.000000e+00
    outer loop
      vertex   1.511869e-02 1.000000e-02 1.400000e-02
      vertex   1.511869e-02 7.200000e-03 2.800000e-02
      vertex   1.511869e-02 7.200000e-03 1.400000e-02
    endloop
  endfacet
  facet normal -0.000000e+00 1.000000e+00 0.000000e+00
    outer loop
      vertex   1.476344e-02 1.000000e-02 2.800000e-02
      vertex   1.511869e-02 1.000000e-02 2.800000e-02
      vertex   1.476344e-02 1.000000e-02 1.400000e-02
    endloop
  endfacet
  facet normal 0.000000e+00 1.000000e+00 0.000000e+00
    outer loop
      vertex   1.476344e-02 1.000000e-02 1.400000e-02
      vertex   1.511869e-02 1.000000e-02 2.800000e-02
      vertex   1.511869e-02 1.000000e-02 1.400000e-02
    endloop
  endfacet
  facet normal -1.000000e+00 0.000000e+00 0.000000e+00
    outer loop
      vertex   1.476344e-02 7.801637e-03 2.800000e-02
      vertex   1.476344e-02 1.000000e-02 2.800000e-02
      vertex   1.476344e-02 7.801637e-03 1.400000e-02
    endloop
  endfacet
  facet normal -1.000000e+00 0.000000e+00 0.000000e+00
    outer loop
      vertex   1.476344e-02 7.801637e-03 1.400000e-02
      vertex   1.476344e-02 1.000000e-02 2.800000e-02
      vertex   1.476344e-02 1.000000e-02 1.400000e-02
    endloop
  endfacet
  facet normal 8.311605e-01 5.560326e-01 0.000000e+00
    outer loop
      vertex   1.329277e-02 1.000000e-02 2.800000e-02
      vertex   1.476344e-02 7.801637e-03 2.800000e-02
      vertex   1.329277e-02 1.000000e-02 1.400000e-02
    endloop
  endfacet
  facet normal 8.311605e-01 5.560326e-01 0.000000e+00
    outer loop
      vertex   1.329277e-02 1.000000e-02 1.400000e-02
      vertex   1.476344e-02 7.801637e-03 2.800000e-02
      vertex   1.476344e-02 7.801637e-03 1.400000e-02
    endloop
  endfacet
  facet normal -0.000000e+00 1.000000e+00 0.000000e+00
    outer loop
      vertex   1.291269e-02 1.000000e-02 2.800000e-02
      vertex   1.329277e-02 1.000000e-02 2.800000e-02
      vertex   1.291269e-02 1.000000e-02 1.400000e-02
    endloop
  endfacet
  facet normal 0.000000e+00 1.000000e+00 0.000000e+00
    outer loop
      vertex   1.291269e-02 1.000000e-02 1.400000e-02
      vertex   1.329277e-02 1.000000e-02 2.800000e-02
      vertex   1.329277e-02 1.000000e-02 1.400000e-02
    endloop
  endfacet
  facet normal -1.000000e+00 0.000000e+00 0.000000e+00
    outer loop
      vertex   1.291269e-02 7.200000e-03 2.800000e-02
      vertex   1.291269e-02 1.000000e-02 2.800000e-02
      vertex   1.291269e-02 7.200000e-03 1.400000e-02
    endloop
  endfacet
  facet normal -1.000000e+00 0.000000e+00 0.000000e+00
    outer loop
      vertex   1.291269e-02 7.200000e-03 1.400000e-02
      vertex   1.291269e-02 1.000000e-02 2.800000e-02
      vertex   1.291269e-02 1.000000e-02 1.400000e-02
    endloop
  endfacet
  facet normal -0.000000e+00 -1.000000e+00 -0.000000e+00
    outer loop
      vertex   1.326794e-02 7.200000e-03 2.800000e-02
      vertex   1.291269e-02 7.200000e-03 2.800000e-02
      vertex   1.326794e-02 7.200000e-03 1.400000e-02
    endloop
  endfacet
  facet normal 0.000000e+00 -1.000000e+00 0.000000e+00
    outer loop
      vertex   1.326794e-02 7.200000e-03 1.400000e-02
      vertex   1.291269e-02 7.200000e-03 2.800000e-02
      vertex   1.291269e-02 7.200000e-03 1.400000e-02
    endloop
  endfacet
  facet normal 0.000000e+00 -0.000000e+00 1.000000e+00
    outer loop
      vertex   1.326794e-02 7.200000e-03 2.800000e-02
      vertex   1.326794e-02 9.400273e-03 2.800000e-02
      vertex   1.291269e-02 7.200000e-03 2.800000e-02
    endloop
  endfacet
  facet normal 0.000000e+00 0.000000e+00 1.000000e+00
    outer loop
      vertex   1.291269e-02 7.200000e-03 2.800000e-02
      vertex   1.326794e-02 9.400273e-03 2.800000e-02
      vertex   1.291269e-02 1.000000e-02 2.800000e-02
    endloop
  endfacet
  facet normal -0.000000e+00 0.000000e+00 1.000000e+00
    outer loop
      vertex   1.291269e-02 1.000000e-02 2.800000e-02
      vertex   1.326794e-02 9.400273e-03 2.800000e-02
      vertex   1.329277e-02 1.000000e-02 2.800000e-02
    endloop
  endfacet
  facet normal 0.000000e+00 0.000000e+00 1.000000e+00
    outer loop
      vertex   1.329277e-02 1.000000e-02 2.800000e-02
      vertex   1.326794e-02 9.400273e-03 2.800000e-02
      vertex   1.476344e-02 7.801637e-03 2.800000e-02
    endloop
  endfacet
  facet normal 0.000000e+00 0.000000e+00 1.000000e+00
    outer loop
      vertex   1.476344e-02 7.801637e-03 2.800000e-02
      vertex   1.326794e-02 9.400273e-03 2.800000e-02
      vertex   1.473861e-02 7.200000e-03 2.800000e-02
    endloop
  endfacet
  facet normal 0.000000e+00 0.000000e+00 1.000000e+00
    outer loop
      vertex   1.476344e-02 7.801637e-03 2.800000e-02
      vertex   1.473861e-02 7.200000e-03 2.800000e-02
      vertex   1.511869e-02 7.200000e-03 2.800000e-02
    endloop
  endfacet
  facet normal 0.000000e+00 -0.000000e+00 1.000000e+00
    outer loop
      vertex   1.511869e-02 7.200000e-03 2.800000e-02
      vertex   1.511869e-02 1.000000e-02 2.800000e-02
      vertex   1.476344e-02 7.801637e-03 2.800000e-02
    endloop
  endfacet
  facet normal 0.000000e+00 0.000000e+00 1.000000e+00
    outer loop
      vertex   1.476344e-02 7.801637e-03 2.800000e-02
      vertex   1.511869e-02 1.000000e-02 2.800000e-02
      vertex   1.476344e-02 1.000000e-02 2.800000e-02
    endloop
  endfacet
  facet normal 0.000000e+00 0.000000e+00 -1.000000e+00
    outer loop
      vertex   1.326794e-02 7.200000e-03 1.400000e-02
      vertex   1.291269e-02 7.200000e-03 1.400000e-02
      vertex   1.326794e-02 9.400273e-03 1.400000e-02
    endloop
  endfacet
  facet normal -0.000000e+00 0.000000e+00 -1.000000e+00
    outer loop
      vertex   1.326794e-02 9.400273e-03 1.400000e-02
      vertex   1.291269e-02 7.200000e-03 1.400000e-02
      vertex   1.291269e-02 1.000000e-02 1.400000e-02
    endloop
  endfacet
  facet normal 0.000000e+00 0.000000e+00 -1.000000e+00
    outer loop
      vertex   1.326794e-02 9.400273e-03 1.400000e-02
      vertex   1.291269e-02 1.000000e-02 1.400000e-02
      vertex   1.329277e-02 1.000000e-02 1.400000e-02
    endloop
  endfacet
  facet normal 0.000000e+00 -0.000000e+00 -1.000000e+00
    outer loop
      vertex   1.329277e-02 1.000000e-02 1.400000e-02
      vertex   1.476344e-02 7.801637e-03 1.400000e-02
      vertex   1.326794e-02 9.400273e-03 1.400000e-02
    endloop
  endfacet
  facet normal 0.000000e+00 0.000000e+00 -1.000000e+00
    outer loop
      vertex   1.326794e-02 9.400273e-03 1.400000e-02
      vertex   1.476344e-02 7.801637e-03 1.400000e-02
      vertex   1.473861e-02 7.200000e-03 1.400000e-02
    endloop
  endfacet
  facet normal 0.000000e+00 0.000000e+00 -1.000000e+00
    outer loop
      vertex   1.473861e-02 7.200000e-03 1.400000e-02
      vertex   1.476344e-02 7.801637e-03 1.400000e-02
      vertex   1.511869e-02 7.200000e-03 1.400000e-02
    endloop
  endfacet
  facet normal 0.000000e+00 0.000000e+00 -1.000000e+00
    outer loop
      vertex   1.511869e-02 7.200000e-03 1.400000e-02
      vertex   1.476344e-02 7.801637e-03 1.400000e-02
      vertex   1.511869e-02 1.000000e-02 1.400000e-02
    endloop
  endfacet
  facet normal -0.000000e+00 0.000000e+00 -1.000000e+00
    outer loop
      vertex   1.511869e-02 1.000000e-02 1.400000e-02
      vertex   1.476344e-02 7.801637e-03 1.400000e-02
      vertex   1.476344e-02 1.000000e-02 1.400000e-02
    endloop
  endfacet
endsolid
