solid ASCII
  facet normal 1.000000e+00 0.000000e+00 0.000000e+00
    outer loop
      vertex   6.148159e-02 4.059072e-02 2.800000e-02
      vertex   6.148159e-02 2.900000e-02 2.800000e-02
      vertex   6.148159e-02 4.059072e-02 1.400000e-02
    endloop
  endfacet
  facet normal 1.000000e+00 0.000000e+00 0.000000e+00
    outer loop
      vertex   6.148159e-02 4.059072e-02 1.400000e-02
      vertex   6.148159e-02 2.900000e-02 2.800000e-02
      vertex   6.148159e-02 2.900000e-02 1.400000e-02
    endloop
  endfacet
  facet normal -0.000000e+00 1.000000e+00 0.000000e+00
    outer loop
      vertex   5.951706e-02 4.059072e-02 2.800000e-02
      vertex   6.148159e-02 4.059072e-02 2.800000e-02
      vertex   5.951706e-02 4.059072e-02 1.400000e-02
    endloop
  endfacet
  facet normal 0.000000e+00 1.000000e+00 0.000000e+00
    outer loop
      vertex   5.951706e-02 4.059072e-02 1.400000e-02
      vertex   6.148159e-02 4.059072e-02 2.800000e-02
      vertex   6.148159e-02 4.059072e-02 1.400000e-02
    endloop
  endfacet
  facet normal -1.000000e+00 0.000000e+00 0.000000e+00
    outer loop
      vertex   5.951706e-02 2.900000e-02 2.800000e-02
      vertex   5.951706e-02 4.059072e-02 2.800000e-02
      vertex   5.951706e-02 2.900000e-02 1.400000e-02
    endloop
  endfacet
  facet normal -1.000000e+00 0.000000e+00 0.000000e+00
    outer loop
      vertex   5.951706e-02 2.900000e-02 1.400000e-02
      vertex   5.951706e-02 4.059072e-02 2.800000e-02
      vertex   5.951706e-02 4.059072e-02 1.400000e-02
    endloop
  endfacet
  facet normal -0.000000e+00 -1.000000e+00 -0.000000e+00
    outer loop
      vertex   6.148159e-02 2.900000e-02 2.800000e-02
      vertex   5.951706e-02 2.900000e-02 2.800000e-02
      vertex   6.148159e-02 2.900000e-02 1.400000e-02
    endloop
  endfacet
  facet normal 0.000000e+00 -1.000000e+00 0.000000e+00
    outer loop
      vertex   6.148159e-02 2.900000e-02 1.400000e-02
      vertex   5.951706e-02 2.900000e-02 2.800000e-02
      vertex   5.951706e-02 2.900000e-02 1.400000e-02
    endloop
  endfacet
  facet normal 0.000000e+00 0.000000e+00 1.000000e+00
    outer loop
      vertex   5.951706e-02 2.900000e-02 2.800000e-02
      vertex   6.148159e-02 2.900000e-02 2.800000e-02
      vertex   5.951706e-02 4.059072e-02 2.800000e-02
    endloop
  endfacet
  facet normal -0.000000e+00 0.000000e+00 1.000000e+00
    outer loop
      vertex   5.951706e-02 4.059072e-02 2.800000e-02
      vertex   6.148159e-02 2.900000e-02 2.800000e-02
      vertex   6.148159e-02 4.059072e-02 2.800000e-02
    endloop
  endfacet
  facet normal 0.000000e+00 0.000000e+00 -1.000000e+00
    outer loop
      vertex   6.148159e-02 2.900000e-02 1.400000e-02
      vertex   5.951706e-02 2.900000e-02 1.400000e-02
      vertex   6.148159e-02 4.059072e-02 1.400000e-02
    endloop
  endfacet
  facet normal -0.000000e+00 0.000000e+00 -1.000000e+00
    outer loop
      vertex   6.148159e-02 4.059072e-02 1.400000e-02
      vertex   5.951706e-02 2.900000e-02 1.400000e-02
      vertex   5.951706e-02 4.059072e-02 1.400000e-02
    endloop
  endfacet
endsolid
