solid ASCII
  facet normal 1.000000e+00 0.000000e+00 0.000000e+00
    outer loop
      vertex   2.580955e-02 2.244222e-02 2.800000e-02
      vertex   2.580955e-02 2.210000e-02 2.800000e-02
      vertex   2.580955e-02 2.244222e-02 1.400000e-02
    endloop
  endfacet
  facet normal 1.000000e+00 0.000000e+00 0.000000e+00
    outer loop
      vertex   2.580955e-02 2.244222e-02 1.400000e-02
      vertex   2.580955e-02 2.210000e-02 2.800000e-02
      vertex   2.580955e-02 2.210000e-02 1.400000e-02
    endloop
  endfacet
  facet normal -0.000000e+00 1.000000e+00 0.000000e+00
    outer loop
      vertex   2.402920e-02 2.244222e-02 2.800000e-02
      vertex   2.580955e-02 2.244222e-02 2.800000e-02
      vertex   2.402920e-02 2.244222e-02 1.400000e-02
    endloop
  endfacet
  facet normal 0.000000e+00 1.000000e+00 0.000000e+00
    outer loop
      vertex   2.402920e-02 2.244222e-02 1.400000e-02
      vertex   2.580955e-02 2.244222e-02 2.800000e-02
      vertex   2.580955e-02 2.244222e-02 1.400000e-02
    endloop
  endfacet
  facet normal 1.000000e+00 0.000000e+00 0.000000e+00
    outer loop
      vertex   2.402920e-02 2.342933e-02 2.800000e-02
      vertex   2.402920e-02 2.244222e-02 2.800000e-02
      vertex   2.402920e-02 2.342933e-02 1.400000e-02
    endloop
  endfacet
  facet normal 1.000000e+00 0.000000e+00 0.000000e+00
    outer loop
      vertex   2.402920e-02 2.342933e-02 1.400000e-02
      vertex   2.402920e-02 2.244222e-02 2.800000e-02
      vertex   2.402920e-02 2.244222e-02 1.400000e-02
    endloop
  endfacet
  facet normal -0.000000e+00 -1.000000e+00 -0.000000e+00
    outer loop
      vertex   2.563349e-02 2.342933e-02 2.800000e-02
      vertex   2.402920e-02 2.342933e-02 2.800000e-02
      vertex   2.563349e-02 2.342933e-02 1.400000e-02
    endloop
  endfacet
  facet normal 0.000000e+00 -1.000000e+00 0.000000e+00
    outer loop
      vertex   2.563349e-02 2.342933e-02 1.400000e-02
      vertex   2.402920e-02 2.342933e-02 2.800000e-02
      vertex   2.402920e-02 2.342933e-02 1.400000e-02
    endloop
  endfacet
  facet normal 1.000000e+00 0.000000e+00 0.000000e+00
    outer loop
      vertex   2.563349e-02 2.376958e-02 2.800000e-02
      vertex   2.563349e-02 2.342933e-02 2.800000e-02
      vertex   2.563349e-02 2.376958e-02 1.400000e-02
    endloop
  endfacet
  facet normal 1.000000e+00 0.000000e+00 0.000000e+00
    outer loop
      vertex   2.563349e-02 2.376958e-02 1.400000e-02
      vertex   2.563349e-02 2.342933e-02 2.800000e-02
      vertex   2.563349e-02 2.342933e-02 1.400000e-02
    endloop
  endfacet
  facet normal -0.000000e+00 1.000000e+00 0.000000e+00
    outer loop
      vertex   2.402920e-02 2.376958e-02 2.800000e-02
      vertex   2.563349e-02 2.376958e-02 2.800000e-02
      vertex   2.402920e-02 2.376958e-02 1.400000e-02
    endloop
  endfacet
  facet normal 0.000000e+00 1.000000e+00 0.000000e+00
    outer loop
      vertex   2.402920e-02 2.376958e-02 1.400000e-02
      vertex   2.563349e-02 2.376958e-02 2.800000e-02
      vertex   2.563349e-02 2.376958e-02 1.400000e-02
    endloop
  endfacet
  facet normal 1.000000e+00 0.000000e+00 0.000000e+00
    outer loop
      vertex   2.402920e-02 2.465778e-02 2.800000e-02
      vertex   2.402920e-02 2.376958e-02 2.800000e-02
      vertex   2.402920e-02 2.465778e-02 1.400000e-02
    endloop
  endfacet
  facet normal 1.000000e+00 0.000000e+00 0.000000e+00
    outer loop
      vertex   2.402920e-02 2.465778e-02 1.400000e-02
      vertex   2.402920e-02 2.376958e-02 2.800000e-02
      vertex   2.402920e-02 2.376958e-02 1.400000e-02
    endloop
  endfacet
  facet normal -0.000000e+00 -1.000000e+00 -0.000000e+00
    outer loop
      vertex   2.574229e-02 2.465778e-02 2.800000e-02
      vertex   2.402920e-02 2.465778e-02 2.800000e-02
      vertex   2.574229e-02 2.465778e-02 1.400000e-02
    endloop
  endfacet
  facet normal 0.000000e+00 -1.000000e+00 0.000000e+00
    outer loop
      vertex   2.574229e-02 2.465778e-02 1.400000e-02
      vertex   2.402920e-02 2.465778e-02 2.800000e-02
      vertex   2.402920e-02 2.465778e-02 1.400000e-02
    endloop
  endfacet
  facet normal 1.000000e+00 0.000000e+00 0.000000e+00
    outer loop
      vertex   2.574229e-02 2.500000e-02 2.800000e-02
      vertex   2.574229e-02 2.465778e-02 2.800000e-02
      vertex   2.574229e-02 2.500000e-02 1.400000e-02
    endloop
  endfacet
  facet normal 1.000000e+00 0.000000e+00 0.000000e+00
    outer loop
      vertex   2.574229e-02 2.500000e-02 1.400000e-02
      vertex   2.574229e-02 2.465778e-02 2.800000e-02
      vertex   2.574229e-02 2.465778e-02 1.400000e-02
    endloop
  endfacet
  facet normal -0.000000e+00 1.000000e+00 0.000000e+00
    outer loop
      vertex   2.364543e-02 2.500000e-02 2.800000e-02
      vertex   2.574229e-02 2.500000e-02 2.800000e-02
      vertex   2.364543e-02 2.500000e-02 1.400000e-02
    endloop
  endfacet
  facet normal 0.000000e+00 1.000000e+00 0.000000e+00
    outer loop
      vertex   2.364543e-02 2.500000e-02 1.400000e-02
      vertex   2.574229e-02 2.500000e-02 2.800000e-02
      vertex   2.574229e-02 2.500000e-02 1.400000e-02
    endloop
  endfacet
  facet normal -1.000000e+00 0.000000e+00 0.000000e+00
    outer loop
      vertex   2.364543e-02 2.210000e-02 2.800000e-02
      vertex   2.364543e-02 2.500000e-02 2.800000e-02
      vertex   2.364543e-02 2.210000e-02 1.400000e-02
    endloop
  endfacet
  facet normal -1.000000e+00 0.000000e+00 0.000000e+00
    outer loop
      vertex   2.364543e-02 2.210000e-02 1.400000e-02
      vertex   2.364543e-02 2.500000e-02 2.800000e-02
      vertex   2.364543e-02 2.500000e-02 1.400000e-02
    endloop
  endfacet
  facet normal -0.000000e+00 -1.000000e+00 -0.000000e+00
    outer loop
      vertex   2.580955e-02 2.210000e-02 2.800000e-02
      vertex   2.364543e-02 2.210000e-02 2.800000e-02
      vertex   2.580955e-02 2.210000e-02 1.400000e-02
    endloop
  endfacet
  facet normal 0.000000e+00 -1.000000e+00 0.000000e+00
    outer loop
      vertex   2.580955e-02 2.210000e-02 1.400000e-02
      vertex   2.364543e-02 2.210000e-02 2.800000e-02
      vertex   2.364543e-02 2.210000e-02 1.400000e-02
    endloop
  endfacet
  facet normal 0.000000e+00 0.000000e+00 1.000000e+00
    outer loop
      vertex   2.580955e-02 2.210000e-02 2.800000e-02
      vertex   2.402920e-02 2.244222e-02 2.800000e-02
      vertex   2.364543e-02 2.210000e-02 2.800000e-02
    endloop
  endfacet
  facet normal 0.000000e+00 0.000000e+00 1.000000e+00
    outer loop
      vertex   2.364543e-02 2.210000e-02 2.800000e-02
      vertex   2.402920e-02 2.244222e-02 2.800000e-02
      vertex   2.402920e-02 2.342933e-02 2.800000e-02
    endloop
  endfacet
  facet normal 0.000000e+00 0.000000e+00 1.000000e+00
    outer loop
      vertex   2.364543e-02 2.210000e-02 2.800000e-02
      vertex   2.402920e-02 2.342933e-02 2.800000e-02
      vertex   2.364543e-02 2.500000e-02 2.800000e-02
    endloop
  endfacet
  facet normal 0.000000e+00 0.000000e+00 1.000000e+00
    outer loop
      vertex   2.364543e-02 2.500000e-02 2.800000e-02
      vertex   2.402920e-02 2.342933e-02 2.800000e-02
      vertex   2.402920e-02 2.376958e-02 2.800000e-02
    endloop
  endfacet
  facet normal 0.000000e+00 0.000000e+00 1.000000e+00
    outer loop
      vertex   2.364543e-02 2.500000e-02 2.800000e-02
      vertex   2.402920e-02 2.376958e-02 2.800000e-02
      vertex   2.402920e-02 2.465778e-02 2.800000e-02
    endloop
  endfacet
  facet normal 0.000000e+00 -0.000000e+00 1.000000e+00
    outer loop
      vertex   2.580955e-02 2.210000e-02 2.800000e-02
      vertex   2.580955e-02 2.244222e-02 2.800000e-02
      vertex   2.402920e-02 2.244222e-02 2.800000e-02
    endloop
  endfacet
  facet normal 0.000000e+00 0.000000e+00 1.000000e+00
    outer loop
      vertex   2.402920e-02 2.342933e-02 2.800000e-02
      vertex   2.563349e-02 2.342933e-02 2.800000e-02
      vertex   2.402920e-02 2.376958e-02 2.800000e-02
    endloop
  endfacet
  facet normal -0.000000e+00 0.000000e+00 1.000000e+00
    outer loop
      vertex   2.402920e-02 2.376958e-02 2.800000e-02
      vertex   2.563349e-02 2.342933e-02 2.800000e-02
      vertex   2.563349e-02 2.376958e-02 2.800000e-02
    endloop
  endfacet
  facet normal 0.000000e+00 -0.000000e+00 1.000000e+00
    outer loop
      vertex   2.574229e-02 2.465778e-02 2.800000e-02
      vertex   2.574229e-02 2.500000e-02 2.800000e-02
      vertex   2.402920e-02 2.465778e-02 2.800000e-02
    endloop
  endfacet
  facet normal 0.000000e+00 -0.000000e+00 1.000000e+00
    outer loop
      vertex   2.402920e-02 2.465778e-02 2.800000e-02
      vertex   2.574229e-02 2.500000e-02 2.800000e-02
      vertex   2.364543e-02 2.500000e-02 2.800000e-02
    endloop
  endfacet
  facet normal -0.000000e+00 -0.000000e+00 -1.000000e+00
    outer loop
      vertex   2.580955e-02 2.244222e-02 1.400000e-02
      vertex   2.580955e-02 2.210000e-02 1.400000e-02
      vertex   2.402920e-02 2.244222e-02 1.400000e-02
    endloop
  endfacet
  facet normal 0.000000e+00 -0.000000e+00 -1.000000e+00
    outer loop
      vertex   2.402920e-02 2.244222e-02 1.400000e-02
      vertex   2.580955e-02 2.210000e-02 1.400000e-02
      vertex   2.364543e-02 2.210000e-02 1.400000e-02
    endloop
  endfacet
  facet normal -0.000000e+00 0.000000e+00 -1.000000e+00
    outer loop
      vertex   2.402920e-02 2.244222e-02 1.400000e-02
      vertex   2.364543e-02 2.210000e-02 1.400000e-02
      vertex   2.402920e-02 2.342933e-02 1.400000e-02
    endloop
  endfacet
  facet normal -0.000000e+00 0.000000e+00 -1.000000e+00
    outer loop
      vertex   2.402920e-02 2.342933e-02 1.400000e-02
      vertex   2.364543e-02 2.210000e-02 1.400000e-02
      vertex   2.364543e-02 2.500000e-02 1.400000e-02
    endloop
  endfacet
  facet normal 0.000000e+00 0.000000e+00 -1.000000e+00
    outer loop
      vertex   2.402920e-02 2.342933e-02 1.400000e-02
      vertex   2.364543e-02 2.500000e-02 1.400000e-02
      vertex   2.402920e-02 2.376958e-02 1.400000e-02
    endloop
  endfacet
  facet normal 0.000000e+00 0.000000e+00 -1.000000e+00
    outer loop
      vertex   2.402920e-02 2.376958e-02 1.400000e-02
      vertex   2.364543e-02 2.500000e-02 1.400000e-02
      vertex   2.402920e-02 2.465778e-02 1.400000e-02
    endloop
  endfacet
  facet normal 0.000000e+00 0.000000e+00 -1.000000e+00
    outer loop
      vertex   2.402920e-02 2.465778e-02 1.400000e-02
      vertex   2.364543e-02 2.500000e-02 1.400000e-02
      vertex   2.574229e-02 2.500000e-02 1.400000e-02
    endloop
  endfacet
  facet normal 0.000000e+00 0.000000e+00 -1.000000e+00
    outer loop
      vertex   2.402920e-02 2.465778e-02 1.400000e-02
      vertex   2.574229e-02 2.500000e-02 1.400000e-02
      vertex   2.574229e-02 2.465778e-02 1.400000e-02
    endloop
  endfacet
  facet normal 0.000000e+00 0.000000e+00 -1.000000e+00
    outer loop
      vertex   2.402920e-02 2.376958e-02 1.400000e-02
      vertex   2.563349e-02 2.376958e-02 1.400000e-02
      vertex   2.402920e-02 2.342933e-02 1.400000e-02
    endloop
  endfacet
  facet normal 0.000000e+00 0.000000e+00 -1.000000e+00
    outer loop
      vertex   2.402920e-02 2.342933e-02 1.400000e-02
      vertex   2.563349e-02 2.376958e-02 1.400000e-02
      vertex   2.563349e-02 2.342933e-02 1.400000e-02
    endloop
  endfacet
endsolid
