solid ASCII
  facet normal 1.000000e+00 0.000000e+00 0.000000e+00
    outer loop
      vertex   1.754563e-02 5.893218e-02 2.800000e-02
      vertex   1.754563e-02 5.867256e-02 2.800000e-02
      vertex   1.754563e-02 5.893218e-02 1.400000e-02
    endloop
  endfacet
  facet normal 1.000000e+00 0.000000e+00 0.000000e+00
    outer loop
      vertex   1.754563e-02 5.893218e-02 1.400000e-02
      vertex   1.754563e-02 5.867256e-02 2.800000e-02
      vertex   1.754563e-02 5.867256e-02 1.400000e-02
    endloop
  endfacet
  facet normal -0.000000e+00 1.000000e+00 0.000000e+00
    outer loop
      vertex   1.619501e-02 5.893218e-02 2.800000e-02
      vertex   1.754563e-02 5.893218e-02 2.800000e-02
      vertex   1.619501e-02 5.893218e-02 1.400000e-02
    endloop
  endfacet
  facet normal 0.000000e+00 1.000000e+00 0.000000e+00
    outer loop
      vertex   1.619501e-02 5.893218e-02 1.400000e-02
      vertex   1.754563e-02 5.893218e-02 2.800000e-02
      vertex   1.754563e-02 5.893218e-02 1.400000e-02
    endloop
  endfacet
  facet normal 1.000000e+00 0.000000e+00 0.000000e+00
    outer loop
      vertex   1.619501e-02 5.968102e-02 2.800000e-02
      vertex   1.619501e-02 5.893218e-02 2.800000e-02
      vertex   1.619501e-02 5.968102e-02 1.400000e-02
    endloop
  endfacet
  facet normal 1.000000e+00 0.000000e+00 0.000000e+00
    outer loop
      vertex   1.619501e-02 5.968102e-02 1.400000e-02
      vertex   1.619501e-02 5.893218e-02 2.800000e-02
      vertex   1.619501e-02 5.893218e-02 1.400000e-02
    endloop
  endfacet
  facet normal -0.000000e+00 -1.000000e+00 -0.000000e+00
    outer loop
      vertex   1.741207e-02 5.968102e-02 2.800000e-02
      vertex   1.619501e-02 5.968102e-02 2.800000e-02
      vertex   1.741207e-02 5.968102e-02 1.400000e-02
    endloop
  endfacet
  facet normal 0.000000e+00 -1.000000e+00 0.000000e+00
    outer loop
      vertex   1.741207e-02 5.968102e-02 1.400000e-02
      vertex   1.619501e-02 5.968102e-02 2.800000e-02
      vertex   1.619501e-02 5.968102e-02 1.400000e-02
    endloop
  endfacet
  facet normal 1.000000e+00 0.000000e+00 0.000000e+00
    outer loop
      vertex   1.741207e-02 5.993914e-02 2.800000e-02
      vertex   1.741207e-02 5.968102e-02 2.800000e-02
      vertex   1.741207e-02 5.993914e-02 1.400000e-02
    endloop
  endfacet
  facet normal 1.000000e+00 0.000000e+00 0.000000e+00
    outer loop
      vertex   1.741207e-02 5.993914e-02 1.400000e-02
      vertex   1.741207e-02 5.968102e-02 2.800000e-02
      vertex   1.741207e-02 5.968102e-02 1.400000e-02
    endloop
  endfacet
  facet normal -0.000000e+00 1.000000e+00 0.000000e+00
    outer loop
      vertex   1.619501e-02 5.993914e-02 2.800000e-02
      vertex   1.741207e-02 5.993914e-02 2.800000e-02
      vertex   1.619501e-02 5.993914e-02 1.400000e-02
    endloop
  endfacet
  facet normal 0.000000e+00 1.000000e+00 0.000000e+00
    outer loop
      vertex   1.619501e-02 5.993914e-02 1.400000e-02
      vertex   1.741207e-02 5.993914e-02 2.800000e-02
      vertex   1.741207e-02 5.993914e-02 1.400000e-02
    endloop
  endfacet
  facet normal 1.000000e+00 0.000000e+00 0.000000e+00
    outer loop
      vertex   1.619501e-02 6.061294e-02 2.800000e-02
      vertex   1.619501e-02 5.993914e-02 2.800000e-02
      vertex   1.619501e-02 6.061294e-02 1.400000e-02
    endloop
  endfacet
  facet normal 1.000000e+00 0.000000e+00 0.000000e+00
    outer loop
      vertex   1.619501e-02 6.061294e-02 1.400000e-02
      vertex   1.619501e-02 5.993914e-02 2.800000e-02
      vertex   1.619501e-02 5.993914e-02 1.400000e-02
    endloop
  endfacet
  facet normal -0.000000e+00 -1.000000e+00 -0.000000e+00
    outer loop
      vertex   1.749460e-02 6.061294e-02 2.800000e-02
      vertex   1.619501e-02 6.061294e-02 2.800000e-02
      vertex   1.749460e-02 6.061294e-02 1.400000e-02
    endloop
  endfacet
  facet normal 0.000000e+00 -1.000000e+00 0.000000e+00
    outer loop
      vertex   1.749460e-02 6.061294e-02 1.400000e-02
      vertex   1.619501e-02 6.061294e-02 2.800000e-02
      vertex   1.619501e-02 6.061294e-02 1.400000e-02
    endloop
  endfacet
  facet normal 1.000000e+00 0.000000e+00 0.000000e+00
    outer loop
      vertex   1.749460e-02 6.087256e-02 2.800000e-02
      vertex   1.749460e-02 6.061294e-02 2.800000e-02
      vertex   1.749460e-02 6.087256e-02 1.400000e-02
    endloop
  endfacet
  facet normal 1.000000e+00 0.000000e+00 0.000000e+00
    outer loop
      vertex   1.749460e-02 6.087256e-02 1.400000e-02
      vertex   1.749460e-02 6.061294e-02 2.800000e-02
      vertex   1.749460e-02 6.061294e-02 1.400000e-02
    endloop
  endfacet
  facet normal -0.000000e+00 1.000000e+00 0.000000e+00
    outer loop
      vertex   1.590388e-02 6.087256e-02 2.800000e-02
      vertex   1.749460e-02 6.087256e-02 2.800000e-02
      vertex   1.590388e-02 6.087256e-02 1.400000e-02
    endloop
  endfacet
  facet normal 0.000000e+00 1.000000e+00 0.000000e+00
    outer loop
      vertex   1.590388e-02 6.087256e-02 1.400000e-02
      vertex   1.749460e-02 6.087256e-02 2.800000e-02
      vertex   1.749460e-02 6.087256e-02 1.400000e-02
    endloop
  endfacet
  facet normal -1.000000e+00 0.000000e+00 0.000000e+00
    outer loop
      vertex   1.590388e-02 5.867256e-02 2.800000e-02
      vertex   1.590388e-02 6.087256e-02 2.800000e-02
      vertex   1.590388e-02 5.867256e-02 1.400000e-02
    endloop
  endfacet
  facet normal -1.000000e+00 0.000000e+00 0.000000e+00
    outer loop
      vertex   1.590388e-02 5.867256e-02 1.400000e-02
      vertex   1.590388e-02 6.087256e-02 2.800000e-02
      vertex   1.590388e-02 6.087256e-02 1.400000e-02
    endloop
  endfacet
  facet normal -0.000000e+00 -1.000000e+00 -0.000000e+00
    outer loop
      vertex   1.754563e-02 5.867256e-02 2.800000e-02
      vertex   1.590388e-02 5.867256e-02 2.800000e-02
      vertex   1.754563e-02 5.867256e-02 1.400000e-02
    endloop
  endfacet
  facet normal 0.000000e+00 -1.000000e+00 0.000000e+00
    outer loop
      vertex   1.754563e-02 5.867256e-02 1.400000e-02
      vertex   1.590388e-02 5.867256e-02 2.800000e-02
      vertex   1.590388e-02 5.867256e-02 1.400000e-02
    endloop
  endfacet
  facet normal 0.000000e+00 0.000000e+00 1.000000e+00
    outer loop
      vertex   1.754563e-02 5.867256e-02 2.800000e-02
      vertex   1.619501e-02 5.893218e-02 2.800000e-02
      vertex   1.590388e-02 5.867256e-02 2.800000e-02
    endloop
  endfacet
  facet normal 0.000000e+00 0.000000e+00 1.000000e+00
    outer loop
      vertex   1.590388e-02 5.867256e-02 2.800000e-02
      vertex   1.619501e-02 5.893218e-02 2.800000e-02
      vertex   1.619501e-02 5.968102e-02 2.800000e-02
    endloop
  endfacet
  facet normal 0.000000e+00 0.000000e+00 1.000000e+00
    outer loop
      vertex   1.590388e-02 5.867256e-02 2.800000e-02
      vertex   1.619501e-02 5.968102e-02 2.800000e-02
      vertex   1.590388e-02 6.087256e-02 2.800000e-02
    endloop
  endfacet
  facet normal 0.000000e+00 0.000000e+00 1.000000e+00
    outer loop
      vertex   1.590388e-02 6.087256e-02 2.800000e-02
      vertex   1.619501e-02 5.968102e-02 2.800000e-02
      vertex   1.619501e-02 5.993914e-02 2.800000e-02
    endloop
  endfacet
  facet normal 0.000000e+00 0.000000e+00 1.000000e+00
    outer loop
      vertex   1.590388e-02 6.087256e-02 2.800000e-02
      vertex   1.619501e-02 5.993914e-02 2.800000e-02
      vertex   1.619501e-02 6.061294e-02 2.800000e-02
    endloop
  endfacet
  facet normal 0.000000e+00 -0.000000e+00 1.000000e+00
    outer loop
      vertex   1.754563e-02 5.867256e-02 2.800000e-02
      vertex   1.754563e-02 5.893218e-02 2.800000e-02
      vertex   1.619501e-02 5.893218e-02 2.800000e-02
    endloop
  endfacet
  facet normal 0.000000e+00 0.000000e+00 1.000000e+00
    outer loop
      vertex   1.619501e-02 5.968102e-02 2.800000e-02
      vertex   1.741207e-02 5.968102e-02 2.800000e-02
      vertex   1.619501e-02 5.993914e-02 2.800000e-02
    endloop
  endfacet
  facet normal -0.000000e+00 0.000000e+00 1.000000e+00
    outer loop
      vertex   1.619501e-02 5.993914e-02 2.800000e-02
      vertex   1.741207e-02 5.968102e-02 2.800000e-02
      vertex   1.741207e-02 5.993914e-02 2.800000e-02
    endloop
  endfacet
  facet normal 0.000000e+00 -0.000000e+00 1.000000e+00
    outer loop
      vertex   1.749460e-02 6.061294e-02 2.800000e-02
      vertex   1.749460e-02 6.087256e-02 2.800000e-02
      vertex   1.619501e-02 6.061294e-02 2.800000e-02
    endloop
  endfacet
  facet normal 0.000000e+00 -0.000000e+00 1.000000e+00
    outer loop
      vertex   1.619501e-02 6.061294e-02 2.800000e-02
      vertex   1.749460e-02 6.087256e-02 2.800000e-02
      vertex   1.590388e-02 6.087256e-02 2.800000e-02
    endloop
  endfacet
  facet normal -0.000000e+00 -0.000000e+00 -1.000000e+00
    outer loop
      vertex   1.754563e-02 5.893218e-02 1.400000e-02
      vertex   1.754563e-02 5.867256e-02 1.400000e-02
      vertex   1.619501e-02 5.893218e-02 1.400000e-02
    endloop
  endfacet
  facet normal 0.000000e+00 -0.000000e+00 -1.000000e+00
    outer loop
      vertex   1.619501e-02 5.893218e-02 1.400000e-02
      vertex   1.754563e-02 5.867256e-02 1.400000e-02
      vertex   1.590388e-02 5.867256e-02 1.400000e-02
    endloop
  endfacet
  facet normal -0.000000e+00 0.000000e+00 -1.000000e+00
    outer loop
      vertex   1.619501e-02 5.893218e-02 1.400000e-02
      vertex   1.590388e-02 5.867256e-02 1.400000e-02
      vertex   1.619501e-02 5.968102e-02 1.400000e-02
    endloop
  endfacet
  facet normal -0.000000e+00 0.000000e+00 -1.000000e+00
    outer loop
      vertex   1.619501e-02 5.968102e-02 1.400000e-02
      vertex   1.590388e-02 5.867256e-02 1.400000e-02
      vertex   1.590388e-02 6.087256e-02 1.400000e-02
    endloop
  endfacet
  facet normal 0.000000e+00 0.000000e+00 -1.000000e+00
    outer loop
      vertex   1.619501e-02 5.968102e-02 1.400000e-02
      vertex   1.590388e-02 6.087256e-02 1.400000e-02
      vertex   1.619501e-02 5.993914e-02 1.400000e-02
    endloop
  endfacet
  facet normal 0.000000e+00 0.000000e+00 -1.000000e+00
    outer loop
      vertex   1.619501e-02 5.993914e-02 1.400000e-02
      vertex   1.590388e-02 6.087256e-02 1.400000e-02
      vertex   1.619501e-02 6.061294e-02 1.400000e-02
    endloop
  endfacet
  facet normal 0.000000e+00 0.000000e+00 -1.000000e+00
    outer loop
      vertex   1.619501e-02 6.061294e-02 1.400000e-02
      vertex   1.590388e-02 6.087256e-02 1.400000e-02
      vertex   1.749460e-02 6.087256e-02 1.400000e-02
    endloop
  endfacet
  facet normal 0.000000e+00 0.000000e+00 -1.000000e+00
    outer loop
      vertex   1.619501e-02 6.061294e-02 1.400000e-02
      vertex   1.749460e-02 6.087256e-02 1.400000e-02
      vertex   1.749460e-02 6.061294e-02 1.400000e-02
    endloop
  endfacet
  facet normal 0.000000e+00 0.000000e+00 -1.000000e+00
    outer loop
      vertex   1.619501e-02 5.993914e-02 1.400000e-02
      vertex   1.741207e-02 5.993914e-02 1.400000e-02
      vertex   1.619501e-02 5.968102e-02 1.400000e-02
    endloop
  endfacet
  facet normal 0.000000e+00 0.000000e+00 -1.000000e+00
    outer loop
      vertex   1.619501e-02 5.968102e-02 1.400000e-02
      vertex   1.741207e-02 5.993914e-02 1.400000e-02
      vertex   1.741207e-02 5.968102e-02 1.400000e-02
    endloop
  endfacet
endsolid
