solid ASCII
  facet normal -9.933558e-01 1.150838e-01 0.000000e+00
    outer loop
      vertex   4.712655e-02 5.482110e-02 2.800000e-02
      vertex   4.712655e-02 5.482110e-02 1.866667e-02
      vertex   4.705972e-02 5.424430e-02 2.800000e-02
    endloop
  endfacet
  facet normal -9.933558e-01 1.150838e-01 0.000000e+00
    outer loop
      vertex   4.705972e-02 5.424430e-02 2.800000e-02
      vertex   4.712655e-02 5.482110e-02 1.866667e-02
      vertex   4.705972e-02 5.424430e-02 1.866667e-02
    endloop
  endfacet
  facet normal -9.933558e-01 -1.150838e-01 -0.000000e+00
    outer loop
      vertex   4.705972e-02 5.424430e-02 2.800000e-02
      vertex   4.705972e-02 5.424430e-02 1.866667e-02
      vertex   4.712655e-02 5.366751e-02 2.800000e-02
    endloop
  endfacet
  facet normal -9.933558e-01 -1.150838e-01 -0.000000e+00
    outer loop
      vertex   4.712655e-02 5.366751e-02 2.800000e-02
      vertex   4.705972e-02 5.424430e-02 1.866667e-02
      vertex   4.712655e-02 5.366751e-02 1.866667e-02
    endloop
  endfacet
  facet normal -9.409495e-01 -3.385469e-01 -0.000000e+00
    outer loop
      vertex   4.712655e-02 5.366751e-02 2.800000e-02
      vertex   4.712655e-02 5.366751e-02 1.866667e-02
      vertex   4.732367e-02 5.311964e-02 2.800000e-02
    endloop
  endfacet
  facet normal -9.409495e-01 -3.385469e-01 -0.000000e+00
    outer loop
      vertex   4.732367e-02 5.311964e-02 2.800000e-02
      vertex   4.712655e-02 5.366751e-02 1.866667e-02
      vertex   4.732367e-02 5.311964e-02 1.866667e-02
    endloop
  endfacet
  facet normal -8.399453e-01 -5.426711e-01 -0.000000e+00
    outer loop
      vertex   4.732367e-02 5.311964e-02 2.800000e-02
      vertex   4.732367e-02 5.311964e-02 1.866667e-02
      vertex   4.764120e-02 5.262817e-02 2.800000e-02
    endloop
  endfacet
  facet normal -8.399453e-01 -5.426711e-01 -0.000000e+00
    outer loop
      vertex   4.764120e-02 5.262817e-02 2.800000e-02
      vertex   4.732367e-02 5.311964e-02 1.866667e-02
      vertex   4.764120e-02 5.262817e-02 1.866667e-02
    endloop
  endfacet
  facet normal -6.971977e-01 -7.168789e-01 -0.000000e+00
    outer loop
      vertex   4.764120e-02 5.262817e-02 2.800000e-02
      vertex   4.764120e-02 5.262817e-02 1.866667e-02
      vertex   4.806322e-02 5.221773e-02 2.800000e-02
    endloop
  endfacet
  facet normal -6.971977e-01 -7.168789e-01 -0.000000e+00
    outer loop
      vertex   4.806322e-02 5.221773e-02 2.800000e-02
      vertex   4.764120e-02 5.262817e-02 1.866667e-02
      vertex   4.806322e-02 5.221773e-02 1.866667e-02
    endloop
  endfacet
  facet normal -5.214376e-01 -8.532894e-01 -0.000000e+00
    outer loop
      vertex   4.806322e-02 5.221773e-02 2.800000e-02
      vertex   4.806322e-02 5.221773e-02 1.866667e-02
      vertex   4.856857e-02 5.190892e-02 2.800000e-02
    endloop
  endfacet
  facet normal -5.214376e-01 -8.532894e-01 -0.000000e+00
    outer loop
      vertex   4.856857e-02 5.190892e-02 2.800000e-02
      vertex   4.806322e-02 5.221773e-02 1.866667e-02
      vertex   4.856857e-02 5.190892e-02 1.866667e-02
    endloop
  endfacet
  facet normal -3.221646e-01 -9.466837e-01 -0.000000e+00
    outer loop
      vertex   4.856857e-02 5.190892e-02 2.800000e-02
      vertex   4.856857e-02 5.190892e-02 1.866667e-02
      vertex   4.913190e-02 5.171721e-02 2.800000e-02
    endloop
  endfacet
  facet normal -3.221646e-01 -9.466837e-01 -0.000000e+00
    outer loop
      vertex   4.913190e-02 5.171721e-02 2.800000e-02
      vertex   4.856857e-02 5.190892e-02 1.866667e-02
      vertex   4.913190e-02 5.171721e-02 1.866667e-02
    endloop
  endfacet
  facet normal -1.089276e-01 -9.940497e-01 -0.000000e+00
    outer loop
      vertex   4.913190e-02 5.171721e-02 2.800000e-02
      vertex   4.913190e-02 5.171721e-02 1.866667e-02
      vertex   4.972498e-02 5.165222e-02 2.800000e-02
    endloop
  endfacet
  facet normal -1.089276e-01 -9.940497e-01 -0.000000e+00
    outer loop
      vertex   4.972498e-02 5.165222e-02 2.800000e-02
      vertex   4.913190e-02 5.171721e-02 1.866667e-02
      vertex   4.972498e-02 5.165222e-02 1.866667e-02
    endloop
  endfacet
  facet normal 1.089276e-01 -9.940497e-01 0.000000e+00
    outer loop
      vertex   4.972498e-02 5.165222e-02 2.800000e-02
      vertex   4.972498e-02 5.165222e-02 1.866667e-02
      vertex   5.031805e-02 5.171721e-02 2.800000e-02
    endloop
  endfacet
  facet normal 1.089276e-01 -9.940497e-01 0.000000e+00
    outer loop
      vertex   5.031805e-02 5.171721e-02 2.800000e-02
      vertex   4.972498e-02 5.165222e-02 1.866667e-02
      vertex   5.031805e-02 5.171721e-02 1.866667e-02
    endloop
  endfacet
  facet normal 3.221646e-01 -9.466837e-01 0.000000e+00
    outer loop
      vertex   5.031805e-02 5.171721e-02 2.800000e-02
      vertex   5.031805e-02 5.171721e-02 1.866667e-02
      vertex   5.088139e-02 5.190892e-02 2.800000e-02
    endloop
  endfacet
  facet normal 3.221646e-01 -9.466837e-01 0.000000e+00
    outer loop
      vertex   5.088139e-02 5.190892e-02 2.800000e-02
      vertex   5.031805e-02 5.171721e-02 1.866667e-02
      vertex   5.088139e-02 5.190892e-02 1.866667e-02
    endloop
  endfacet
  facet normal 5.214376e-01 -8.532894e-01 0.000000e+00
    outer loop
      vertex   5.088139e-02 5.190892e-02 2.800000e-02
      vertex   5.088139e-02 5.190892e-02 1.866667e-02
      vertex   5.138674e-02 5.221773e-02 2.800000e-02
    endloop
  endfacet
  facet normal 5.214376e-01 -8.532894e-01 0.000000e+00
    outer loop
      vertex   5.138674e-02 5.221773e-02 2.800000e-02
      vertex   5.088139e-02 5.190892e-02 1.866667e-02
      vertex   5.138674e-02 5.221773e-02 1.866667e-02
    endloop
  endfacet
  facet normal 6.971977e-01 -7.168789e-01 0.000000e+00
    outer loop
      vertex   5.138674e-02 5.221773e-02 2.800000e-02
      vertex   5.138674e-02 5.221773e-02 1.866667e-02
      vertex   5.180876e-02 5.262817e-02 2.800000e-02
    endloop
  endfacet
  facet normal 6.971977e-01 -7.168789e-01 0.000000e+00
    outer loop
      vertex   5.180876e-02 5.262817e-02 2.800000e-02
      vertex   5.138674e-02 5.221773e-02 1.866667e-02
      vertex   5.180876e-02 5.262817e-02 1.866667e-02
    endloop
  endfacet
  facet normal 8.399453e-01 -5.426711e-01 0.000000e+00
    outer loop
      vertex   5.180876e-02 5.262817e-02 2.800000e-02
      vertex   5.180876e-02 5.262817e-02 1.866667e-02
      vertex   5.212629e-02 5.311964e-02 2.800000e-02
    endloop
  endfacet
  facet normal 8.399453e-01 -5.426711e-01 0.000000e+00
    outer loop
      vertex   5.212629e-02 5.311964e-02 2.800000e-02
      vertex   5.180876e-02 5.262817e-02 1.866667e-02
      vertex   5.212629e-02 5.311964e-02 1.866667e-02
    endloop
  endfacet
  facet normal 9.409495e-01 -3.385469e-01 0.000000e+00
    outer loop
      vertex   5.212629e-02 5.311964e-02 2.800000e-02
      vertex   5.212629e-02 5.311964e-02 1.866667e-02
      vertex   5.232341e-02 5.366751e-02 2.800000e-02
    endloop
  endfacet
  facet normal 9.409495e-01 -3.385469e-01 0.000000e+00
    outer loop
      vertex   5.232341e-02 5.366751e-02 2.800000e-02
      vertex   5.212629e-02 5.311964e-02 1.866667e-02
      vertex   5.232341e-02 5.366751e-02 1.866667e-02
    endloop
  endfacet
  facet normal 9.933558e-01 -1.150838e-01 0.000000e+00
    outer loop
      vertex   5.232341e-02 5.366751e-02 2.800000e-02
      vertex   5.232341e-02 5.366751e-02 1.866667e-02
      vertex   5.239023e-02 5.424430e-02 2.800000e-02
    endloop
  endfacet
  facet normal 9.933558e-01 -1.150838e-01 0.000000e+00
    outer loop
      vertex   5.239023e-02 5.424430e-02 2.800000e-02
      vertex   5.232341e-02 5.366751e-02 1.866667e-02
      vertex   5.239023e-02 5.424430e-02 1.866667e-02
    endloop
  endfacet
  facet normal 9.933558e-01 1.150838e-01 0.000000e+00
    outer loop
      vertex   5.239023e-02 5.424430e-02 2.800000e-02
      vertex   5.239023e-02 5.424430e-02 1.866667e-02
      vertex   5.232341e-02 5.482110e-02 2.800000e-02
    endloop
  endfacet
  facet normal 9.933558e-01 1.150838e-01 0.000000e+00
    outer loop
      vertex   5.232341e-02 5.482110e-02 2.800000e-02
      vertex   5.239023e-02 5.424430e-02 1.866667e-02
      vertex   5.232341e-02 5.482110e-02 1.866667e-02
    endloop
  endfacet
  facet normal 9.409495e-01 3.385469e-01 0.000000e+00
    outer loop
      vertex   5.232341e-02 5.482110e-02 2.800000e-02
      vertex   5.232341e-02 5.482110e-02 1.866667e-02
      vertex   5.212629e-02 5.536897e-02 2.800000e-02
    endloop
  endfacet
  facet normal 9.409495e-01 3.385469e-01 0.000000e+00
    outer loop
      vertex   5.212629e-02 5.536897e-02 2.800000e-02
      vertex   5.232341e-02 5.482110e-02 1.866667e-02
      vertex   5.212629e-02 5.536897e-02 1.866667e-02
    endloop
  endfacet
  facet normal 8.399453e-01 5.426711e-01 0.000000e+00
    outer loop
      vertex   5.212629e-02 5.536897e-02 2.800000e-02
      vertex   5.212629e-02 5.536897e-02 1.866667e-02
      vertex   5.180876e-02 5.586044e-02 2.800000e-02
    endloop
  endfacet
  facet normal 8.399453e-01 5.426711e-01 0.000000e+00
    outer loop
      vertex   5.180876e-02 5.586044e-02 2.800000e-02
      vertex   5.212629e-02 5.536897e-02 1.866667e-02
      vertex   5.180876e-02 5.586044e-02 1.866667e-02
    endloop
  endfacet
  facet normal 6.971977e-01 7.168789e-01 0.000000e+00
    outer loop
      vertex   5.180876e-02 5.586044e-02 2.800000e-02
      vertex   5.180876e-02 5.586044e-02 1.866667e-02
      vertex   5.138674e-02 5.627088e-02 2.800000e-02
    endloop
  endfacet
  facet normal 6.971977e-01 7.168789e-01 0.000000e+00
    outer loop
      vertex   5.138674e-02 5.627088e-02 2.800000e-02
      vertex   5.180876e-02 5.586044e-02 1.866667e-02
      vertex   5.138674e-02 5.627088e-02 1.866667e-02
    endloop
  endfacet
  facet normal 5.214376e-01 8.532894e-01 0.000000e+00
    outer loop
      vertex   5.138674e-02 5.627088e-02 2.800000e-02
      vertex   5.138674e-02 5.627088e-02 1.866667e-02
      vertex   5.088139e-02 5.657969e-02 2.800000e-02
    endloop
  endfacet
  facet normal 5.214376e-01 8.532894e-01 0.000000e+00
    outer loop
      vertex   5.088139e-02 5.657969e-02 2.800000e-02
      vertex   5.138674e-02 5.627088e-02 1.866667e-02
      vertex   5.088139e-02 5.657969e-02 1.866667e-02
    endloop
  endfacet
  facet normal 3.221646e-01 9.466837e-01 0.000000e+00
    outer loop
      vertex   5.088139e-02 5.657969e-02 2.800000e-02
      vertex   5.088139e-02 5.657969e-02 1.866667e-02
      vertex   5.031805e-02 5.677140e-02 2.800000e-02
    endloop
  endfacet
  facet normal 3.221646e-01 9.466837e-01 0.000000e+00
    outer loop
      vertex   5.031805e-02 5.677140e-02 2.800000e-02
      vertex   5.088139e-02 5.657969e-02 1.866667e-02
      vertex   5.031805e-02 5.677140e-02 1.866667e-02
    endloop
  endfacet
  facet normal 1.089276e-01 9.940497e-01 0.000000e+00
    outer loop
      vertex   5.031805e-02 5.677140e-02 2.800000e-02
      vertex   5.031805e-02 5.677140e-02 1.866667e-02
      vertex   4.972498e-02 5.683639e-02 2.800000e-02
    endloop
  endfacet
  facet normal 1.089276e-01 9.940497e-01 0.000000e+00
    outer loop
      vertex   4.972498e-02 5.683639e-02 2.800000e-02
      vertex   5.031805e-02 5.677140e-02 1.866667e-02
      vertex   4.972498e-02 5.683639e-02 1.866667e-02
    endloop
  endfacet
  facet normal -1.089276e-01 9.940497e-01 0.000000e+00
    outer loop
      vertex   4.972498e-02 5.683639e-02 2.800000e-02
      vertex   4.972498e-02 5.683639e-02 1.866667e-02
      vertex   4.913190e-02 5.677140e-02 2.800000e-02
    endloop
  endfacet
  facet normal -1.089276e-01 9.940497e-01 0.000000e+00
    outer loop
      vertex   4.913190e-02 5.677140e-02 2.800000e-02
      vertex   4.972498e-02 5.683639e-02 1.866667e-02
      vertex   4.913190e-02 5.677140e-02 1.866667e-02
    endloop
  endfacet
  facet normal -3.221646e-01 9.466837e-01 0.000000e+00
    outer loop
      vertex   4.913190e-02 5.677140e-02 2.800000e-02
      vertex   4.913190e-02 5.677140e-02 1.866667e-02
      vertex   4.856857e-02 5.657969e-02 2.800000e-02
    endloop
  endfacet
  facet normal -3.221646e-01 9.466837e-01 0.000000e+00
    outer loop
      vertex   4.856857e-02 5.657969e-02 2.800000e-02
      vertex   4.913190e-02 5.677140e-02 1.866667e-02
      vertex   4.856857e-02 5.657969e-02 1.866667e-02
    endloop
  endfacet
  facet normal -5.214376e-01 8.532894e-01 0.000000e+00
    outer loop
      vertex   4.856857e-02 5.657969e-02 2.800000e-02
      vertex   4.856857e-02 5.657969e-02 1.866667e-02
      vertex   4.806322e-02 5.627088e-02 2.800000e-02
    endloop
  endfacet
  facet normal -5.214376e-01 8.532894e-01 0.000000e+00
    outer loop
      vertex   4.806322e-02 5.627088e-02 2.800000e-02
      vertex   4.856857e-02 5.657969e-02 1.866667e-02
      vertex   4.806322e-02 5.627088e-02 1.866667e-02
    endloop
  endfacet
  facet normal -6.971977e-01 7.168789e-01 0.000000e+00
    outer loop
      vertex   4.806322e-02 5.627088e-02 2.800000e-02
      vertex   4.806322e-02 5.627088e-02 1.866667e-02
      vertex   4.764120e-02 5.586044e-02 2.800000e-02
    endloop
  endfacet
  facet normal -6.971977e-01 7.168789e-01 0.000000e+00
    outer loop
      vertex   4.764120e-02 5.586044e-02 2.800000e-02
      vertex   4.806322e-02 5.627088e-02 1.866667e-02
      vertex   4.764120e-02 5.586044e-02 1.866667e-02
    endloop
  endfacet
  facet normal -8.399453e-01 5.426711e-01 0.000000e+00
    outer loop
      vertex   4.764120e-02 5.586044e-02 2.800000e-02
      vertex   4.764120e-02 5.586044e-02 1.866667e-02
      vertex   4.732367e-02 5.536897e-02 2.800000e-02
    endloop
  endfacet
  facet normal -8.399453e-01 5.426711e-01 0.000000e+00
    outer loop
      vertex   4.732367e-02 5.536897e-02 2.800000e-02
      vertex   4.764120e-02 5.586044e-02 1.866667e-02
      vertex   4.732367e-02 5.536897e-02 1.866667e-02
    endloop
  endfacet
  facet normal -9.409495e-01 3.385469e-01 0.000000e+00
    outer loop
      vertex   4.732367e-02 5.536897e-02 2.800000e-02
      vertex   4.732367e-02 5.536897e-02 1.866667e-02
      vertex   4.712655e-02 5.482110e-02 2.800000e-02
    endloop
  endfacet
  facet normal -9.409495e-01 3.385469e-01 0.000000e+00
    outer loop
      vertex   4.712655e-02 5.482110e-02 2.800000e-02
      vertex   4.732367e-02 5.536897e-02 1.866667e-02
      vertex   4.712655e-02 5.482110e-02 1.866667e-02
    endloop
  endfacet
  facet normal -9.933558e-01 -1.150838e-01 0.000000e+00
    outer loop
      vertex   4.712655e-02 5.366751e-02 0.000000e+00
      vertex   4.712655e-02 5.366751e-02 9.333333e-03
      vertex   4.705972e-02 5.424430e-02 0.000000e+00
    endloop
  endfacet
  facet normal -9.933558e-01 -1.150838e-01 0.000000e+00
    outer loop
      vertex   4.705972e-02 5.424430e-02 0.000000e+00
      vertex   4.712655e-02 5.366751e-02 9.333333e-03
      vertex   4.705972e-02 5.424430e-02 9.333333e-03
    endloop
  endfacet
  facet normal -9.933558e-01 1.150838e-01 0.000000e+00
    outer loop
      vertex   4.705972e-02 5.424430e-02 0.000000e+00
      vertex   4.705972e-02 5.424430e-02 9.333333e-03
      vertex   4.712655e-02 5.482110e-02 0.000000e+00
    endloop
  endfacet
  facet normal -9.933558e-01 1.150838e-01 0.000000e+00
    outer loop
      vertex   4.712655e-02 5.482110e-02 0.000000e+00
      vertex   4.705972e-02 5.424430e-02 9.333333e-03
      vertex   4.712655e-02 5.482110e-02 9.333333e-03
    endloop
  endfacet
  facet normal -9.409495e-01 3.385469e-01 0.000000e+00
    outer loop
      vertex   4.712655e-02 5.482110e-02 0.000000e+00
      vertex   4.712655e-02 5.482110e-02 9.333333e-03
      vertex   4.732367e-02 5.536897e-02 0.000000e+00
    endloop
  endfacet
  facet normal -9.409495e-01 3.385469e-01 0.000000e+00
    outer loop
      vertex   4.732367e-02 5.536897e-02 0.000000e+00
      vertex   4.712655e-02 5.482110e-02 9.333333e-03
      vertex   4.732367e-02 5.536897e-02 9.333333e-03
    endloop
  endfacet
  facet normal -8.399453e-01 5.426711e-01 0.000000e+00
    outer loop
      vertex   4.732367e-02 5.536897e-02 0.000000e+00
      vertex   4.732367e-02 5.536897e-02 9.333333e-03
      vertex   4.764120e-02 5.586044e-02 0.000000e+00
    endloop
  endfacet
  facet normal -8.399453e-01 5.426711e-01 0.000000e+00
    outer loop
      vertex   4.764120e-02 5.586044e-02 0.000000e+00
      vertex   4.732367e-02 5.536897e-02 9.333333e-03
      vertex   4.764120e-02 5.586044e-02 9.333333e-03
    endloop
  endfacet
  facet normal -6.971977e-01 7.168789e-01 0.000000e+00
    outer loop
      vertex   4.764120e-02 5.586044e-02 0.000000e+00
      vertex   4.764120e-02 5.586044e-02 9.333333e-03
      vertex   4.806322e-02 5.627088e-02 0.000000e+00
    endloop
  endfacet
  facet normal -6.971977e-01 7.168789e-01 0.000000e+00
    outer loop
      vertex   4.806322e-02 5.627088e-02 0.000000e+00
      vertex   4.764120e-02 5.586044e-02 9.333333e-03
      vertex   4.806322e-02 5.627088e-02 9.333333e-03
    endloop
  endfacet
  facet normal -5.214376e-01 8.532894e-01 0.000000e+00
    outer loop
      vertex   4.806322e-02 5.627088e-02 0.000000e+00
      vertex   4.806322e-02 5.627088e-02 9.333333e-03
      vertex   4.856857e-02 5.657969e-02 0.000000e+00
    endloop
  endfacet
  facet normal -5.214376e-01 8.532894e-01 0.000000e+00
    outer loop
      vertex   4.856857e-02 5.657969e-02 0.000000e+00
      vertex   4.806322e-02 5.627088e-02 9.333333e-03
      vertex   4.856857e-02 5.657969e-02 9.333333e-03
    endloop
  endfacet
  facet normal -3.221646e-01 9.466837e-01 0.000000e+00
    outer loop
      vertex   4.856857e-02 5.657969e-02 0.000000e+00
      vertex   4.856857e-02 5.657969e-02 9.333333e-03
      vertex   4.913190e-02 5.677140e-02 0.000000e+00
    endloop
  endfacet
  facet normal -3.221646e-01 9.466837e-01 0.000000e+00
    outer loop
      vertex   4.913190e-02 5.677140e-02 0.000000e+00
      vertex   4.856857e-02 5.657969e-02 9.333333e-03
      vertex   4.913190e-02 5.677140e-02 9.333333e-03
    endloop
  endfacet
  facet normal -1.089276e-01 9.940497e-01 0.000000e+00
    outer loop
      vertex   4.913190e-02 5.677140e-02 0.000000e+00
      vertex   4.913190e-02 5.677140e-02 9.333333e-03
      vertex   4.972498e-02 5.683639e-02 0.000000e+00
    endloop
  endfacet
  facet normal -1.089276e-01 9.940497e-01 0.000000e+00
    outer loop
      vertex   4.972498e-02 5.683639e-02 0.000000e+00
      vertex   4.913190e-02 5.677140e-02 9.333333e-03
      vertex   4.972498e-02 5.683639e-02 9.333333e-03
    endloop
  endfacet
  facet normal 1.089276e-01 9.940497e-01 -0.000000e+00
    outer loop
      vertex   4.972498e-02 5.683639e-02 0.000000e+00
      vertex   4.972498e-02 5.683639e-02 9.333333e-03
      vertex   5.031805e-02 5.677140e-02 0.000000e+00
    endloop
  endfacet
  facet normal 1.089276e-01 9.940497e-01 -0.000000e+00
    outer loop
      vertex   5.031805e-02 5.677140e-02 0.000000e+00
      vertex   4.972498e-02 5.683639e-02 9.333333e-03
      vertex   5.031805e-02 5.677140e-02 9.333333e-03
    endloop
  endfacet
  facet normal 3.221646e-01 9.466837e-01 -0.000000e+00
    outer loop
      vertex   5.031805e-02 5.677140e-02 0.000000e+00
      vertex   5.031805e-02 5.677140e-02 9.333333e-03
      vertex   5.088139e-02 5.657969e-02 0.000000e+00
    endloop
  endfacet
  facet normal 3.221646e-01 9.466837e-01 -0.000000e+00
    outer loop
      vertex   5.088139e-02 5.657969e-02 0.000000e+00
      vertex   5.031805e-02 5.677140e-02 9.333333e-03
      vertex   5.088139e-02 5.657969e-02 9.333333e-03
    endloop
  endfacet
  facet normal 5.214376e-01 8.532894e-01 -0.000000e+00
    outer loop
      vertex   5.088139e-02 5.657969e-02 0.000000e+00
      vertex   5.088139e-02 5.657969e-02 9.333333e-03
      vertex   5.138674e-02 5.627088e-02 0.000000e+00
    endloop
  endfacet
  facet normal 5.214376e-01 8.532894e-01 -0.000000e+00
    outer loop
      vertex   5.138674e-02 5.627088e-02 0.000000e+00
      vertex   5.088139e-02 5.657969e-02 9.333333e-03
      vertex   5.138674e-02 5.627088e-02 9.333333e-03
    endloop
  endfacet
  facet normal 6.971977e-01 7.168789e-01 -0.000000e+00
    outer loop
      vertex   5.138674e-02 5.627088e-02 0.000000e+00
      vertex   5.138674e-02 5.627088e-02 9.333333e-03
      vertex   5.180876e-02 5.586044e-02 0.000000e+00
    endloop
  endfacet
  facet normal 6.971977e-01 7.168789e-01 -0.000000e+00
    outer loop
      vertex   5.180876e-02 5.586044e-02 0.000000e+00
      vertex   5.138674e-02 5.627088e-02 9.333333e-03
      vertex   5.180876e-02 5.586044e-02 9.333333e-03
    endloop
  endfacet
  facet normal 8.399453e-01 5.426711e-01 -0.000000e+00
    outer loop
      vertex   5.180876e-02 5.586044e-02 0.000000e+00
      vertex   5.180876e-02 5.586044e-02 9.333333e-03
      vertex   5.212629e-02 5.536897e-02 0.000000e+00
    endloop
  endfacet
  facet normal 8.399453e-01 5.426711e-01 -0.000000e+00
    outer loop
      vertex   5.212629e-02 5.536897e-02 0.000000e+00
      vertex   5.180876e-02 5.586044e-02 9.333333e-03
      vertex   5.212629e-02 5.536897e-02 9.333333e-03
    endloop
  endfacet
  facet normal 9.409495e-01 3.385469e-01 -0.000000e+00
    outer loop
      vertex   5.212629e-02 5.536897e-02 0.000000e+00
      vertex   5.212629e-02 5.536897e-02 9.333333e-03
      vertex   5.232341e-02 5.482110e-02 0.000000e+00
    endloop
  endfacet
  facet normal 9.409495e-01 3.385469e-01 -0.000000e+00
    outer loop
      vertex   5.232341e-02 5.482110e-02 0.000000e+00
      vertex   5.212629e-02 5.536897e-02 9.333333e-03
      vertex   5.232341e-02 5.482110e-02 9.333333e-03
    endloop
  endfacet
  facet normal 9.933558e-01 1.150838e-01 -0.000000e+00
    outer loop
      vertex   5.232341e-02 5.482110e-02 0.000000e+00
      vertex   5.232341e-02 5.482110e-02 9.333333e-03
      vertex   5.239023e-02 5.424430e-02 0.000000e+00
    endloop
  endfacet
  facet normal 9.933558e-01 1.150838e-01 -0.000000e+00
    outer loop
      vertex   5.239023e-02 5.424430e-02 0.000000e+00
      vertex   5.232341e-02 5.482110e-02 9.333333e-03
      vertex   5.239023e-02 5.424430e-02 9.333333e-03
    endloop
  endfacet
  facet normal 9.933558e-01 -1.150838e-01 0.000000e+00
    outer loop
      vertex   5.239023e-02 5.424430e-02 0.000000e+00
      vertex   5.239023e-02 5.424430e-02 9.333333e-03
      vertex   5.232341e-02 5.366751e-02 0.000000e+00
    endloop
  endfacet
  facet normal 9.933558e-01 -1.150838e-01 0.000000e+00
    outer loop
      vertex   5.232341e-02 5.366751e-02 0.000000e+00
      vertex   5.239023e-02 5.424430e-02 9.333333e-03
      vertex   5.232341e-02 5.366751e-02 9.333333e-03
    endloop
  endfacet
  facet normal 9.409495e-01 -3.385469e-01 0.000000e+00
    outer loop
      vertex   5.232341e-02 5.366751e-02 0.000000e+00
      vertex   5.232341e-02 5.366751e-02 9.333333e-03
      vertex   5.212629e-02 5.311964e-02 0.000000e+00
    endloop
  endfacet
  facet normal 9.409495e-01 -3.385469e-01 0.000000e+00
    outer loop
      vertex   5.212629e-02 5.311964e-02 0.000000e+00
      vertex   5.232341e-02 5.366751e-02 9.333333e-03
      vertex   5.212629e-02 5.311964e-02 9.333333e-03
    endloop
  endfacet
  facet normal 8.399453e-01 -5.426711e-01 0.000000e+00
    outer loop
      vertex   5.212629e-02 5.311964e-02 0.000000e+00
      vertex   5.212629e-02 5.311964e-02 9.333333e-03
      vertex   5.180876e-02 5.262817e-02 0.000000e+00
    endloop
  endfacet
  facet normal 8.399453e-01 -5.426711e-01 0.000000e+00
    outer loop
      vertex   5.180876e-02 5.262817e-02 0.000000e+00
      vertex   5.212629e-02 5.311964e-02 9.333333e-03
      vertex   5.180876e-02 5.262817e-02 9.333333e-03
    endloop
  endfacet
  facet normal 6.971977e-01 -7.168789e-01 0.000000e+00
    outer loop
      vertex   5.180876e-02 5.262817e-02 0.000000e+00
      vertex   5.180876e-02 5.262817e-02 9.333333e-03
      vertex   5.138674e-02 5.221773e-02 0.000000e+00
    endloop
  endfacet
  facet normal 6.971977e-01 -7.168789e-01 0.000000e+00
    outer loop
      vertex   5.138674e-02 5.221773e-02 0.000000e+00
      vertex   5.180876e-02 5.262817e-02 9.333333e-03
      vertex   5.138674e-02 5.221773e-02 9.333333e-03
    endloop
  endfacet
  facet normal 5.214376e-01 -8.532894e-01 0.000000e+00
    outer loop
      vertex   5.138674e-02 5.221773e-02 0.000000e+00
      vertex   5.138674e-02 5.221773e-02 9.333333e-03
      vertex   5.088139e-02 5.190892e-02 0.000000e+00
    endloop
  endfacet
  facet normal 5.214376e-01 -8.532894e-01 0.000000e+00
    outer loop
      vertex   5.088139e-02 5.190892e-02 0.000000e+00
      vertex   5.138674e-02 5.221773e-02 9.333333e-03
      vertex   5.088139e-02 5.190892e-02 9.333333e-03
    endloop
  endfacet
  facet normal 3.221646e-01 -9.466837e-01 0.000000e+00
    outer loop
      vertex   5.088139e-02 5.190892e-02 0.000000e+00
      vertex   5.088139e-02 5.190892e-02 9.333333e-03
      vertex   5.031805e-02 5.171721e-02 0.000000e+00
    endloop
  endfacet
  facet normal 3.221646e-01 -9.466837e-01 0.000000e+00
    outer loop
      vertex   5.031805e-02 5.171721e-02 0.000000e+00
      vertex   5.088139e-02 5.190892e-02 9.333333e-03
      vertex   5.031805e-02 5.171721e-02 9.333333e-03
    endloop
  endfacet
  facet normal 1.089276e-01 -9.940497e-01 0.000000e+00
    outer loop
      vertex   5.031805e-02 5.171721e-02 0.000000e+00
      vertex   5.031805e-02 5.171721e-02 9.333333e-03
      vertex   4.972498e-02 5.165222e-02 0.000000e+00
    endloop
  endfacet
  facet normal 1.089276e-01 -9.940497e-01 0.000000e+00
    outer loop
      vertex   4.972498e-02 5.165222e-02 0.000000e+00
      vertex   5.031805e-02 5.171721e-02 9.333333e-03
      vertex   4.972498e-02 5.165222e-02 9.333333e-03
    endloop
  endfacet
  facet normal -1.089276e-01 -9.940497e-01 0.000000e+00
    outer loop
      vertex   4.972498e-02 5.165222e-02 0.000000e+00
      vertex   4.972498e-02 5.165222e-02 9.333333e-03
      vertex   4.913190e-02 5.171721e-02 0.000000e+00
    endloop
  endfacet
  facet normal -1.089276e-01 -9.940497e-01 0.000000e+00
    outer loop
      vertex   4.913190e-02 5.171721e-02 0.000000e+00
      vertex   4.972498e-02 5.165222e-02 9.333333e-03
      vertex   4.913190e-02 5.171721e-02 9.333333e-03
    endloop
  endfacet
  facet normal -3.221646e-01 -9.466837e-01 0.000000e+00
    outer loop
      vertex   4.913190e-02 5.171721e-02 0.000000e+00
      vertex   4.913190e-02 5.171721e-02 9.333333e-03
      vertex   4.856857e-02 5.190892e-02 0.000000e+00
    endloop
  endfacet
  facet normal -3.221646e-01 -9.466837e-01 0.000000e+00
    outer loop
      vertex   4.856857e-02 5.190892e-02 0.000000e+00
      vertex   4.913190e-02 5.171721e-02 9.333333e-03
      vertex   4.856857e-02 5.190892e-02 9.333333e-03
    endloop
  endfacet
  facet normal -5.214376e-01 -8.532894e-01 0.000000e+00
    outer loop
      vertex   4.856857e-02 5.190892e-02 0.000000e+00
      vertex   4.856857e-02 5.190892e-02 9.333333e-03
      vertex   4.806322e-02 5.221773e-02 0.000000e+00
    endloop
  endfacet
  facet normal -5.214376e-01 -8.532894e-01 0.000000e+00
    outer loop
      vertex   4.806322e-02 5.221773e-02 0.000000e+00
      vertex   4.856857e-02 5.190892e-02 9.333333e-03
      vertex   4.806322e-02 5.221773e-02 9.333333e-03
    endloop
  endfacet
  facet normal -6.971977e-01 -7.168789e-01 0.000000e+00
    outer loop
      vertex   4.806322e-02 5.221773e-02 0.000000e+00
      vertex   4.806322e-02 5.221773e-02 9.333333e-03
      vertex   4.764120e-02 5.262817e-02 0.000000e+00
    endloop
  endfacet
  facet normal -6.971977e-01 -7.168789e-01 0.000000e+00
    outer loop
      vertex   4.764120e-02 5.262817e-02 0.000000e+00
      vertex   4.806322e-02 5.221773e-02 9.333333e-03
      vertex   4.764120e-02 5.262817e-02 9.333333e-03
    endloop
  endfacet
  facet normal -8.399453e-01 -5.426711e-01 0.000000e+00
    outer loop
      vertex   4.764120e-02 5.262817e-02 0.000000e+00
      vertex   4.764120e-02 5.262817e-02 9.333333e-03
      vertex   4.732367e-02 5.311964e-02 0.000000e+00
    endloop
  endfacet
  facet normal -8.399453e-01 -5.426711e-01 0.000000e+00
    outer loop
      vertex   4.732367e-02 5.311964e-02 0.000000e+00
      vertex   4.764120e-02 5.262817e-02 9.333333e-03
      vertex   4.732367e-02 5.311964e-02 9.333333e-03
    endloop
  endfacet
  facet normal -9.409495e-01 -3.385469e-01 0.000000e+00
    outer loop
      vertex   4.732367e-02 5.311964e-02 0.000000e+00
      vertex   4.732367e-02 5.311964e-02 9.333333e-03
      vertex   4.712655e-02 5.366751e-02 0.000000e+00
    endloop
  endfacet
  facet normal -9.409495e-01 -3.385469e-01 0.000000e+00
    outer loop
      vertex   4.712655e-02 5.366751e-02 0.000000e+00
      vertex   4.732367e-02 5.311964e-02 9.333333e-03
      vertex   4.712655e-02 5.366751e-02 9.333333e-03
    endloop
  endfacet
  facet normal -9.933558e-01 -1.150838e-01 -0.000000e+00
    outer loop
      vertex   4.705972e-02 5.424430e-02 1.866667e-02
      vertex   4.705972e-02 5.424430e-02 9.333333e-03
      vertex   4.712655e-02 5.366751e-02 1.866667e-02
    endloop
  endfacet
  facet normal -9.933558e-01 -1.150838e-01 -0.000000e+00
    outer loop
      vertex   4.712655e-02 5.366751e-02 1.866667e-02
      vertex   4.705972e-02 5.424430e-02 9.333333e-03
      vertex   4.712655e-02 5.366751e-02 9.333333e-03
    endloop
  endfacet
  facet normal -9.409495e-01 -3.385469e-01 -0.000000e+00
    outer loop
      vertex   4.712655e-02 5.366751e-02 1.866667e-02
      vertex   4.712655e-02 5.366751e-02 9.333333e-03
      vertex   4.732367e-02 5.311964e-02 1.866667e-02
    endloop
  endfacet
  facet normal -9.409495e-01 -3.385469e-01 -0.000000e+00
    outer loop
      vertex   4.732367e-02 5.311964e-02 1.866667e-02
      vertex   4.712655e-02 5.366751e-02 9.333333e-03
      vertex   4.732367e-02 5.311964e-02 9.333333e-03
    endloop
  endfacet
  facet normal -8.399453e-01 -5.426711e-01 -0.000000e+00
    outer loop
      vertex   4.732367e-02 5.311964e-02 1.866667e-02
      vertex   4.732367e-02 5.311964e-02 9.333333e-03
      vertex   4.764120e-02 5.262817e-02 1.866667e-02
    endloop
  endfacet
  facet normal -8.399453e-01 -5.426711e-01 -0.000000e+00
    outer loop
      vertex   4.764120e-02 5.262817e-02 1.866667e-02
      vertex   4.732367e-02 5.311964e-02 9.333333e-03
      vertex   4.764120e-02 5.262817e-02 9.333333e-03
    endloop
  endfacet
  facet normal -6.971977e-01 -7.168789e-01 -0.000000e+00
    outer loop
      vertex   4.764120e-02 5.262817e-02 1.866667e-02
      vertex   4.764120e-02 5.262817e-02 9.333333e-03
      vertex   4.806322e-02 5.221773e-02 1.866667e-02
    endloop
  endfacet
  facet normal -6.971977e-01 -7.168789e-01 -0.000000e+00
    outer loop
      vertex   4.806322e-02 5.221773e-02 1.866667e-02
      vertex   4.764120e-02 5.262817e-02 9.333333e-03
      vertex   4.806322e-02 5.221773e-02 9.333333e-03
    endloop
  endfacet
  facet normal -5.214376e-01 -8.532894e-01 -0.000000e+00
    outer loop
      vertex   4.806322e-02 5.221773e-02 1.866667e-02
      vertex   4.806322e-02 5.221773e-02 9.333333e-03
      vertex   4.856857e-02 5.190892e-02 1.866667e-02
    endloop
  endfacet
  facet normal -5.214376e-01 -8.532894e-01 -0.000000e+00
    outer loop
      vertex   4.856857e-02 5.190892e-02 1.866667e-02
      vertex   4.806322e-02 5.221773e-02 9.333333e-03
      vertex   4.856857e-02 5.190892e-02 9.333333e-03
    endloop
  endfacet
  facet normal -3.221646e-01 -9.466837e-01 -0.000000e+00
    outer loop
      vertex   4.856857e-02 5.190892e-02 1.866667e-02
      vertex   4.856857e-02 5.190892e-02 9.333333e-03
      vertex   4.913190e-02 5.171721e-02 1.866667e-02
    endloop
  endfacet
  facet normal -3.221646e-01 -9.466837e-01 -0.000000e+00
    outer loop
      vertex   4.913190e-02 5.171721e-02 1.866667e-02
      vertex   4.856857e-02 5.190892e-02 9.333333e-03
      vertex   4.913190e-02 5.171721e-02 9.333333e-03
    endloop
  endfacet
  facet normal -1.089276e-01 -9.940497e-01 -0.000000e+00
    outer loop
      vertex   4.913190e-02 5.171721e-02 1.866667e-02
      vertex   4.913190e-02 5.171721e-02 9.333333e-03
      vertex   4.972498e-02 5.165222e-02 1.866667e-02
    endloop
  endfacet
  facet normal -1.089276e-01 -9.940497e-01 -0.000000e+00
    outer loop
      vertex   4.972498e-02 5.165222e-02 1.866667e-02
      vertex   4.913190e-02 5.171721e-02 9.333333e-03
      vertex   4.972498e-02 5.165222e-02 9.333333e-03
    endloop
  endfacet
  facet normal 1.089276e-01 -9.940497e-01 0.000000e+00
    outer loop
      vertex   4.972498e-02 5.165222e-02 1.866667e-02
      vertex   4.972498e-02 5.165222e-02 9.333333e-03
      vertex   5.031805e-02 5.171721e-02 1.866667e-02
    endloop
  endfacet
  facet normal 1.089276e-01 -9.940497e-01 0.000000e+00
    outer loop
      vertex   5.031805e-02 5.171721e-02 1.866667e-02
      vertex   4.972498e-02 5.165222e-02 9.333333e-03
      vertex   5.031805e-02 5.171721e-02 9.333333e-03
    endloop
  endfacet
  facet normal 3.221646e-01 -9.466837e-01 0.000000e+00
    outer loop
      vertex   5.031805e-02 5.171721e-02 1.866667e-02
      vertex   5.031805e-02 5.171721e-02 9.333333e-03
      vertex   5.088139e-02 5.190892e-02 1.866667e-02
    endloop
  endfacet
  facet normal 3.221646e-01 -9.466837e-01 0.000000e+00
    outer loop
      vertex   5.088139e-02 5.190892e-02 1.866667e-02
      vertex   5.031805e-02 5.171721e-02 9.333333e-03
      vertex   5.088139e-02 5.190892e-02 9.333333e-03
    endloop
  endfacet
  facet normal 5.214376e-01 -8.532894e-01 0.000000e+00
    outer loop
      vertex   5.088139e-02 5.190892e-02 1.866667e-02
      vertex   5.088139e-02 5.190892e-02 9.333333e-03
      vertex   5.138674e-02 5.221773e-02 1.866667e-02
    endloop
  endfacet
  facet normal 5.214376e-01 -8.532894e-01 0.000000e+00
    outer loop
      vertex   5.138674e-02 5.221773e-02 1.866667e-02
      vertex   5.088139e-02 5.190892e-02 9.333333e-03
      vertex   5.138674e-02 5.221773e-02 9.333333e-03
    endloop
  endfacet
  facet normal 6.971977e-01 -7.168789e-01 0.000000e+00
    outer loop
      vertex   5.138674e-02 5.221773e-02 1.866667e-02
      vertex   5.138674e-02 5.221773e-02 9.333333e-03
      vertex   5.180876e-02 5.262817e-02 1.866667e-02
    endloop
  endfacet
  facet normal 6.971977e-01 -7.168789e-01 0.000000e+00
    outer loop
      vertex   5.180876e-02 5.262817e-02 1.866667e-02
      vertex   5.138674e-02 5.221773e-02 9.333333e-03
      vertex   5.180876e-02 5.262817e-02 9.333333e-03
    endloop
  endfacet
  facet normal 8.399453e-01 -5.426711e-01 0.000000e+00
    outer loop
      vertex   5.180876e-02 5.262817e-02 1.866667e-02
      vertex   5.180876e-02 5.262817e-02 9.333333e-03
      vertex   5.212629e-02 5.311964e-02 1.866667e-02
    endloop
  endfacet
  facet normal 8.399453e-01 -5.426711e-01 0.000000e+00
    outer loop
      vertex   5.212629e-02 5.311964e-02 1.866667e-02
      vertex   5.180876e-02 5.262817e-02 9.333333e-03
      vertex   5.212629e-02 5.311964e-02 9.333333e-03
    endloop
  endfacet
  facet normal 9.409495e-01 -3.385469e-01 0.000000e+00
    outer loop
      vertex   5.212629e-02 5.311964e-02 1.866667e-02
      vertex   5.212629e-02 5.311964e-02 9.333333e-03
      vertex   5.232341e-02 5.366751e-02 1.866667e-02
    endloop
  endfacet
  facet normal 9.409495e-01 -3.385469e-01 0.000000e+00
    outer loop
      vertex   5.232341e-02 5.366751e-02 1.866667e-02
      vertex   5.212629e-02 5.311964e-02 9.333333e-03
      vertex   5.232341e-02 5.366751e-02 9.333333e-03
    endloop
  endfacet
  facet normal 9.933558e-01 -1.150838e-01 0.000000e+00
    outer loop
      vertex   5.232341e-02 5.366751e-02 1.866667e-02
      vertex   5.232341e-02 5.366751e-02 9.333333e-03
      vertex   5.239023e-02 5.424430e-02 1.866667e-02
    endloop
  endfacet
  facet normal 9.933558e-01 -1.150838e-01 0.000000e+00
    outer loop
      vertex   5.239023e-02 5.424430e-02 1.866667e-02
      vertex   5.232341e-02 5.366751e-02 9.333333e-03
      vertex   5.239023e-02 5.424430e-02 9.333333e-03
    endloop
  endfacet
  facet normal 9.933558e-01 1.150838e-01 0.000000e+00
    outer loop
      vertex   5.239023e-02 5.424430e-02 1.866667e-02
      vertex   5.239023e-02 5.424430e-02 9.333333e-03
      vertex   5.232341e-02 5.482110e-02 1.866667e-02
    endloop
  endfacet
  facet normal 9.933558e-01 1.150838e-01 0.000000e+00
    outer loop
      vertex   5.232341e-02 5.482110e-02 1.866667e-02
      vertex   5.239023e-02 5.424430e-02 9.333333e-03
      vertex   5.232341e-02 5.482110e-02 9.333333e-03
    endloop
  endfacet
  facet normal 9.409495e-01 3.385469e-01 0.000000e+00
    outer loop
      vertex   5.232341e-02 5.482110e-02 1.866667e-02
      vertex   5.232341e-02 5.482110e-02 9.333333e-03
      vertex   5.212629e-02 5.536897e-02 1.866667e-02
    endloop
  endfacet
  facet normal 9.409495e-01 3.385469e-01 0.000000e+00
    outer loop
      vertex   5.212629e-02 5.536897e-02 1.866667e-02
      vertex   5.232341e-02 5.482110e-02 9.333333e-03
      vertex   5.212629e-02 5.536897e-02 9.333333e-03
    endloop
  endfacet
  facet normal 8.399453e-01 5.426711e-01 0.000000e+00
    outer loop
      vertex   5.212629e-02 5.536897e-02 1.866667e-02
      vertex   5.212629e-02 5.536897e-02 9.333333e-03
      vertex   5.180876e-02 5.586044e-02 1.866667e-02
    endloop
  endfacet
  facet normal 8.399453e-01 5.426711e-01 0.000000e+00
    outer loop
      vertex   5.180876e-02 5.586044e-02 1.866667e-02
      vertex   5.212629e-02 5.536897e-02 9.333333e-03
      vertex   5.180876e-02 5.586044e-02 9.333333e-03
    endloop
  endfacet
  facet normal 6.971977e-01 7.168789e-01 0.000000e+00
    outer loop
      vertex   5.180876e-02 5.586044e-02 1.866667e-02
      vertex   5.180876e-02 5.586044e-02 9.333333e-03
      vertex   5.138674e-02 5.627088e-02 1.866667e-02
    endloop
  endfacet
  facet normal 6.971977e-01 7.168789e-01 0.000000e+00
    outer loop
      vertex   5.138674e-02 5.627088e-02 1.866667e-02
      vertex   5.180876e-02 5.586044e-02 9.333333e-03
      vertex   5.138674e-02 5.627088e-02 9.333333e-03
    endloop
  endfacet
  facet normal 5.214376e-01 8.532894e-01 0.000000e+00
    outer loop
      vertex   5.138674e-02 5.627088e-02 1.866667e-02
      vertex   5.138674e-02 5.627088e-02 9.333333e-03
      vertex   5.088139e-02 5.657969e-02 1.866667e-02
    endloop
  endfacet
  facet normal 5.214376e-01 8.532894e-01 0.000000e+00
    outer loop
      vertex   5.088139e-02 5.657969e-02 1.866667e-02
      vertex   5.138674e-02 5.627088e-02 9.333333e-03
      vertex   5.088139e-02 5.657969e-02 9.333333e-03
    endloop
  endfacet
  facet normal 3.221646e-01 9.466837e-01 0.000000e+00
    outer loop
      vertex   5.088139e-02 5.657969e-02 1.866667e-02
      vertex   5.088139e-02 5.657969e-02 9.333333e-03
      vertex   5.031805e-02 5.677140e-02 1.866667e-02
    endloop
  endfacet
  facet normal 3.221646e-01 9.466837e-01 0.000000e+00
    outer loop
      vertex   5.031805e-02 5.677140e-02 1.866667e-02
      vertex   5.088139e-02 5.657969e-02 9.333333e-03
      vertex   5.031805e-02 5.677140e-02 9.333333e-03
    endloop
  endfacet
  facet normal 1.089276e-01 9.940497e-01 0.000000e+00
    outer loop
      vertex   5.031805e-02 5.677140e-02 1.866667e-02
      vertex   5.031805e-02 5.677140e-02 9.333333e-03
      vertex   4.972498e-02 5.683639e-02 1.866667e-02
    endloop
  endfacet
  facet normal 1.089276e-01 9.940497e-01 0.000000e+00
    outer loop
      vertex   4.972498e-02 5.683639e-02 1.866667e-02
      vertex   5.031805e-02 5.677140e-02 9.333333e-03
      vertex   4.972498e-02 5.683639e-02 9.333333e-03
    endloop
  endfacet
  facet normal -1.089276e-01 9.940497e-01 0.000000e+00
    outer loop
      vertex   4.972498e-02 5.683639e-02 1.866667e-02
      vertex   4.972498e-02 5.683639e-02 9.333333e-03
      vertex   4.913190e-02 5.677140e-02 1.866667e-02
    endloop
  endfacet
  facet normal -1.089276e-01 9.940497e-01 0.000000e+00
    outer loop
      vertex   4.913190e-02 5.677140e-02 1.866667e-02
      vertex   4.972498e-02 5.683639e-02 9.333333e-03
      vertex   4.913190e-02 5.677140e-02 9.333333e-03
    endloop
  endfacet
  facet normal -3.221646e-01 9.466837e-01 0.000000e+00
    outer loop
      vertex   4.913190e-02 5.677140e-02 1.866667e-02
      vertex   4.913190e-02 5.677140e-02 9.333333e-03
      vertex   4.856857e-02 5.657969e-02 1.866667e-02
    endloop
  endfacet
  facet normal -3.221646e-01 9.466837e-01 0.000000e+00
    outer loop
      vertex   4.856857e-02 5.657969e-02 1.866667e-02
      vertex   4.913190e-02 5.677140e-02 9.333333e-03
      vertex   4.856857e-02 5.657969e-02 9.333333e-03
    endloop
  endfacet
  facet normal -5.214376e-01 8.532894e-01 0.000000e+00
    outer loop
      vertex   4.856857e-02 5.657969e-02 1.866667e-02
      vertex   4.856857e-02 5.657969e-02 9.333333e-03
      vertex   4.806322e-02 5.627088e-02 1.866667e-02
    endloop
  endfacet
  facet normal -5.214376e-01 8.532894e-01 0.000000e+00
    outer loop
      vertex   4.806322e-02 5.627088e-02 1.866667e-02
      vertex   4.856857e-02 5.657969e-02 9.333333e-03
      vertex   4.806322e-02 5.627088e-02 9.333333e-03
    endloop
  endfacet
  facet normal -6.971977e-01 7.168789e-01 0.000000e+00
    outer loop
      vertex   4.806322e-02 5.627088e-02 1.866667e-02
      vertex   4.806322e-02 5.627088e-02 9.333333e-03
      vertex   4.764120e-02 5.586044e-02 1.866667e-02
    endloop
  endfacet
  facet normal -6.971977e-01 7.168789e-01 0.000000e+00
    outer loop
      vertex   4.764120e-02 5.586044e-02 1.866667e-02
      vertex   4.806322e-02 5.627088e-02 9.333333e-03
      vertex   4.764120e-02 5.586044e-02 9.333333e-03
    endloop
  endfacet
  facet normal -8.399453e-01 5.426711e-01 0.000000e+00
    outer loop
      vertex   4.764120e-02 5.586044e-02 1.866667e-02
      vertex   4.764120e-02 5.586044e-02 9.333333e-03
      vertex   4.732367e-02 5.536897e-02 1.866667e-02
    endloop
  endfacet
  facet normal -8.399453e-01 5.426711e-01 0.000000e+00
    outer loop
      vertex   4.732367e-02 5.536897e-02 1.866667e-02
      vertex   4.764120e-02 5.586044e-02 9.333333e-03
      vertex   4.732367e-02 5.536897e-02 9.333333e-03
    endloop
  endfacet
  facet normal -9.409495e-01 3.385469e-01 0.000000e+00
    outer loop
      vertex   4.732367e-02 5.536897e-02 1.866667e-02
      vertex   4.732367e-02 5.536897e-02 9.333333e-03
      vertex   4.712655e-02 5.482110e-02 1.866667e-02
    endloop
  endfacet
  facet normal -9.409495e-01 3.385469e-01 0.000000e+00
    outer loop
      vertex   4.712655e-02 5.482110e-02 1.866667e-02
      vertex   4.732367e-02 5.536897e-02 9.333333e-03
      vertex   4.712655e-02 5.482110e-02 9.333333e-03
    endloop
  endfacet
  facet normal -9.933558e-01 1.150838e-01 0.000000e+00
    outer loop
      vertex   4.712655e-02 5.482110e-02 1.866667e-02
      vertex   4.712655e-02 5.482110e-02 9.333333e-03
      vertex   4.705972e-02 5.424430e-02 1.866667e-02
    endloop
  endfacet
  facet normal -9.933558e-01 1.150838e-01 0.000000e+00
    outer loop
      vertex   4.705972e-02 5.424430e-02 1.866667e-02
      vertex   4.712655e-02 5.482110e-02 9.333333e-03
      vertex   4.705972e-02 5.424430e-02 9.333333e-03
    endloop
  endfacet
  facet normal 0.000000e+00 -0.000000e+00 1.000000e+00
    outer loop
      vertex   4.712655e-02 5.366751e-02 2.800000e-02
      vertex   5.232341e-02 5.366751e-02 2.800000e-02
      vertex   4.705972e-02 5.424430e-02 2.800000e-02
    endloop
  endfacet
  facet normal -0.000000e+00 0.000000e+00 1.000000e+00
    outer loop
      vertex   4.705972e-02 5.424430e-02 2.800000e-02
      vertex   5.232341e-02 5.366751e-02 2.800000e-02
      vertex   5.239023e-02 5.424430e-02 2.800000e-02
    endloop
  endfacet
  facet normal 0.000000e+00 0.000000e+00 1.000000e+00
    outer loop
      vertex   4.705972e-02 5.424430e-02 2.800000e-02
      vertex   5.239023e-02 5.424430e-02 2.800000e-02
      vertex   4.712655e-02 5.482110e-02 2.800000e-02
    endloop
  endfacet
  facet normal -0.000000e+00 0.000000e+00 1.000000e+00
    outer loop
      vertex   4.712655e-02 5.482110e-02 2.800000e-02
      vertex   5.239023e-02 5.424430e-02 2.800000e-02
      vertex   5.232341e-02 5.482110e-02 2.800000e-02
    endloop
  endfacet
  facet normal 0.000000e+00 0.000000e+00 1.000000e+00
    outer loop
      vertex   4.712655e-02 5.482110e-02 2.800000e-02
      vertex   5.232341e-02 5.482110e-02 2.800000e-02
      vertex   4.732367e-02 5.536897e-02 2.800000e-02
    endloop
  endfacet
  facet normal -0.000000e+00 0.000000e+00 1.000000e+00
    outer loop
      vertex   4.732367e-02 5.536897e-02 2.800000e-02
      vertex   5.232341e-02 5.482110e-02 2.800000e-02
      vertex   5.212629e-02 5.536897e-02 2.800000e-02
    endloop
  endfacet
  facet normal 0.000000e+00 0.000000e+00 1.000000e+00
    outer loop
      vertex   4.732367e-02 5.536897e-02 2.800000e-02
      vertex   5.212629e-02 5.536897e-02 2.800000e-02
      vertex   4.764120e-02 5.586044e-02 2.800000e-02
    endloop
  endfacet
  facet normal -0.000000e+00 0.000000e+00 1.000000e+00
    outer loop
      vertex   4.764120e-02 5.586044e-02 2.800000e-02
      vertex   5.212629e-02 5.536897e-02 2.800000e-02
      vertex   5.180876e-02 5.586044e-02 2.800000e-02
    endloop
  endfacet
  facet normal 0.000000e+00 0.000000e+00 1.000000e+00
    outer loop
      vertex   4.764120e-02 5.586044e-02 2.800000e-02
      vertex   5.180876e-02 5.586044e-02 2.800000e-02
      vertex   4.806322e-02 5.627088e-02 2.800000e-02
    endloop
  endfacet
  facet normal -0.000000e+00 0.000000e+00 1.000000e+00
    outer loop
      vertex   4.806322e-02 5.627088e-02 2.800000e-02
      vertex   5.180876e-02 5.586044e-02 2.800000e-02
      vertex   5.138674e-02 5.627088e-02 2.800000e-02
    endloop
  endfacet
  facet normal 0.000000e+00 0.000000e+00 1.000000e+00
    outer loop
      vertex   4.806322e-02 5.627088e-02 2.800000e-02
      vertex   5.138674e-02 5.627088e-02 2.800000e-02
      vertex   4.856857e-02 5.657969e-02 2.800000e-02
    endloop
  endfacet
  facet normal -0.000000e+00 0.000000e+00 1.000000e+00
    outer loop
      vertex   4.856857e-02 5.657969e-02 2.800000e-02
      vertex   5.138674e-02 5.627088e-02 2.800000e-02
      vertex   5.088139e-02 5.657969e-02 2.800000e-02
    endloop
  endfacet
  facet normal 0.000000e+00 0.000000e+00 1.000000e+00
    outer loop
      vertex   4.856857e-02 5.657969e-02 2.800000e-02
      vertex   5.088139e-02 5.657969e-02 2.800000e-02
      vertex   4.913190e-02 5.677140e-02 2.800000e-02
    endloop
  endfacet
  facet normal -0.000000e+00 0.000000e+00 1.000000e+00
    outer loop
      vertex   4.913190e-02 5.677140e-02 2.800000e-02
      vertex   5.088139e-02 5.657969e-02 2.800000e-02
      vertex   5.031805e-02 5.677140e-02 2.800000e-02
    endloop
  endfacet
  facet normal 0.000000e+00 0.000000e+00 1.000000e+00
    outer loop
      vertex   4.913190e-02 5.677140e-02 2.800000e-02
      vertex   5.031805e-02 5.677140e-02 2.800000e-02
      vertex   4.972498e-02 5.683639e-02 2.800000e-02
    endloop
  endfacet
  facet normal 0.000000e+00 0.000000e+00 1.000000e+00
    outer loop
      vertex   5.232341e-02 5.366751e-02 2.800000e-02
      vertex   4.712655e-02 5.366751e-02 2.800000e-02
      vertex   5.212629e-02 5.311964e-02 2.800000e-02
    endloop
  endfacet
  facet normal 0.000000e+00 0.000000e+00 1.000000e+00
    outer loop
      vertex   5.212629e-02 5.311964e-02 2.800000e-02
      vertex   4.712655e-02 5.366751e-02 2.800000e-02
      vertex   4.732367e-02 5.311964e-02 2.800000e-02
    endloop
  endfacet
  facet normal 0.000000e+00 0.000000e+00 1.000000e+00
    outer loop
      vertex   5.212629e-02 5.311964e-02 2.800000e-02
      vertex   4.732367e-02 5.311964e-02 2.800000e-02
      vertex   5.180876e-02 5.262817e-02 2.800000e-02
    endloop
  endfacet
  facet normal 0.000000e+00 0.000000e+00 1.000000e+00
    outer loop
      vertex   5.180876e-02 5.262817e-02 2.800000e-02
      vertex   4.732367e-02 5.311964e-02 2.800000e-02
      vertex   4.764120e-02 5.262817e-02 2.800000e-02
    endloop
  endfacet
  facet normal 0.000000e+00 0.000000e+00 1.000000e+00
    outer loop
      vertex   5.180876e-02 5.262817e-02 2.800000e-02
      vertex   4.764120e-02 5.262817e-02 2.800000e-02
      vertex   5.138674e-02 5.221773e-02 2.800000e-02
    endloop
  endfacet
  facet normal 0.000000e+00 0.000000e+00 1.000000e+00
    outer loop
      vertex   5.138674e-02 5.221773e-02 2.800000e-02
      vertex   4.764120e-02 5.262817e-02 2.800000e-02
      vertex   4.806322e-02 5.221773e-02 2.800000e-02
    endloop
  endfacet
  facet normal 0.000000e+00 0.000000e+00 1.000000e+00
    outer loop
      vertex   5.138674e-02 5.221773e-02 2.800000e-02
      vertex   4.806322e-02 5.221773e-02 2.800000e-02
      vertex   5.088139e-02 5.190892e-02 2.800000e-02
    endloop
  endfacet
  facet normal 0.000000e+00 0.000000e+00 1.000000e+00
    outer loop
      vertex   5.088139e-02 5.190892e-02 2.800000e-02
      vertex   4.806322e-02 5.221773e-02 2.800000e-02
      vertex   4.856857e-02 5.190892e-02 2.800000e-02
    endloop
  endfacet
  facet normal 0.000000e+00 0.000000e+00 1.000000e+00
    outer loop
      vertex   5.088139e-02 5.190892e-02 2.800000e-02
      vertex   4.856857e-02 5.190892e-02 2.800000e-02
      vertex   5.031805e-02 5.171721e-02 2.800000e-02
    endloop
  endfacet
  facet normal 0.000000e+00 0.000000e+00 1.000000e+00
    outer loop
      vertex   5.031805e-02 5.171721e-02 2.800000e-02
      vertex   4.856857e-02 5.190892e-02 2.800000e-02
      vertex   4.913190e-02 5.171721e-02 2.800000e-02
    endloop
  endfacet
  facet normal 0.000000e+00 0.000000e+00 1.000000e+00
    outer loop
      vertex   5.031805e-02 5.171721e-02 2.800000e-02
      vertex   4.913190e-02 5.171721e-02 2.800000e-02
      vertex   4.972498e-02 5.165222e-02 2.800000e-02
    endloop
  endfacet
  facet normal 0.000000e+00 -0.000000e+00 -1.000000e+00
    outer loop
      vertex   4.712655e-02 5.482110e-02 0.000000e+00
      vertex   5.232341e-02 5.482110e-02 0.000000e+00
      vertex   4.705972e-02 5.424430e-02 0.000000e+00
    endloop
  endfacet
  facet normal 0.000000e+00 0.000000e+00 -1.000000e+00
    outer loop
      vertex   4.705972e-02 5.424430e-02 0.000000e+00
      vertex   5.232341e-02 5.482110e-02 0.000000e+00
      vertex   5.239023e-02 5.424430e-02 0.000000e+00
    endloop
  endfacet
  facet normal 0.000000e+00 0.000000e+00 -1.000000e+00
    outer loop
      vertex   4.705972e-02 5.424430e-02 0.000000e+00
      vertex   5.239023e-02 5.424430e-02 0.000000e+00
      vertex   4.712655e-02 5.366751e-02 0.000000e+00
    endloop
  endfacet
  facet normal 0.000000e+00 0.000000e+00 -1.000000e+00
    outer loop
      vertex   4.712655e-02 5.366751e-02 0.000000e+00
      vertex   5.239023e-02 5.424430e-02 0.000000e+00
      vertex   5.232341e-02 5.366751e-02 0.000000e+00
    endloop
  endfacet
  facet normal 0.000000e+00 0.000000e+00 -1.000000e+00
    outer loop
      vertex   4.712655e-02 5.366751e-02 0.000000e+00
      vertex   5.232341e-02 5.366751e-02 0.000000e+00
      vertex   4.732367e-02 5.311964e-02 0.000000e+00
    endloop
  endfacet
  facet normal 0.000000e+00 0.000000e+00 -1.000000e+00
    outer loop
      vertex   4.732367e-02 5.311964e-02 0.000000e+00
      vertex   5.232341e-02 5.366751e-02 0.000000e+00
      vertex   5.212629e-02 5.311964e-02 0.000000e+00
    endloop
  endfacet
  facet normal 0.000000e+00 0.000000e+00 -1.000000e+00
    outer loop
      vertex   4.732367e-02 5.311964e-02 0.000000e+00
      vertex   5.212629e-02 5.311964e-02 0.000000e+00
      vertex   4.764120e-02 5.262817e-02 0.000000e+00
    endloop
  endfacet
  facet normal 0.000000e+00 0.000000e+00 -1.000000e+00
    outer loop
      vertex   4.764120e-02 5.262817e-02 0.000000e+00
      vertex   5.212629e-02 5.311964e-02 0.000000e+00
      vertex   5.180876e-02 5.262817e-02 0.000000e+00
    endloop
  endfacet
  facet normal 0.000000e+00 0.000000e+00 -1.000000e+00
    outer loop
      vertex   4.764120e-02 5.262817e-02 0.000000e+00
      vertex   5.180876e-02 5.262817e-02 0.000000e+00
      vertex   4.806322e-02 5.221773e-02 0.000000e+00
    endloop
  endfacet
  facet normal 0.000000e+00 0.000000e+00 -1.000000e+00
    outer loop
      vertex   4.806322e-02 5.221773e-02 0.000000e+00
      vertex   5.180876e-02 5.262817e-02 0.000000e+00
      vertex   5.138674e-02 5.221773e-02 0.000000e+00
    endloop
  endfacet
  facet normal 0.000000e+00 0.000000e+00 -1.000000e+00
    outer loop
      vertex   4.806322e-02 5.221773e-02 0.000000e+00
      vertex   5.138674e-02 5.221773e-02 0.000000e+00
      vertex   4.856857e-02 5.190892e-02 0.000000e+00
    endloop
  endfacet
  facet normal 0.000000e+00 0.000000e+00 -1.000000e+00
    outer loop
      vertex   4.856857e-02 5.190892e-02 0.000000e+00
      vertex   5.138674e-02 5.221773e-02 0.000000e+00
      vertex   5.088139e-02 5.190892e-02 0.000000e+00
    endloop
  endfacet
  facet normal 0.000000e+00 0.000000e+00 -1.000000e+00
    outer loop
      vertex   4.856857e-02 5.190892e-02 0.000000e+00
      vertex   5.088139e-02 5.190892e-02 0.000000e+00
      vertex   4.913190e-02 5.171721e-02 0.000000e+00
    endloop
  endfacet
  facet normal 0.000000e+00 0.000000e+00 -1.000000e+00
    outer loop
      vertex   4.913190e-02 5.171721e-02 0.000000e+00
      vertex   5.088139e-02 5.190892e-02 0.000000e+00
      vertex   5.031805e-02 5.171721e-02 0.000000e+00
    endloop
  endfacet
  facet normal 0.000000e+00 0.000000e+00 -1.000000e+00
    outer loop
      vertex   4.913190e-02 5.171721e-02 0.000000e+00
      vertex   5.031805e-02 5.171721e-02 0.000000e+00
      vertex   4.972498e-02 5.165222e-02 0.000000e+00
    endloop
  endfacet
  facet normal 0.000000e+00 0.000000e+00 -1.000000e+00
    outer loop
      vertex   5.232341e-02 5.482110e-02 0.000000e+00
      vertex   4.712655e-02 5.482110e-02 0.000000e+00
      vertex   5.212629e-02 5.536897e-02 0.000000e+00
    endloop
  endfacet
  facet normal -0.000000e+00 0.000000e+00 -1.000000e+00
    outer loop
      vertex   5.212629e-02 5.536897e-02 0.000000e+00
      vertex   4.712655e-02 5.482110e-02 0.000000e+00
      vertex   4.732367e-02 5.536897e-02 0.000000e+00
    endloop
  endfacet
  facet normal 0.000000e+00 0.000000e+00 -1.000000e+00
    outer loop
      vertex   5.212629e-02 5.536897e-02 0.000000e+00
      vertex   4.732367e-02 5.536897e-02 0.000000e+00
      vertex   5.180876e-02 5.586044e-02 0.000000e+00
    endloop
  endfacet
  facet normal -0.000000e+00 0.000000e+00 -1.000000e+00
    outer loop
      vertex   5.180876e-02 5.586044e-02 0.000000e+00
      vertex   4.732367e-02 5.536897e-02 0.000000e+00
      vertex   4.764120e-02 5.586044e-02 0.000000e+00
    endloop
  endfacet
  facet normal 0.000000e+00 0.000000e+00 -1.000000e+00
    outer loop
      vertex   5.180876e-02 5.586044e-02 0.000000e+00
      vertex   4.764120e-02 5.586044e-02 0.000000e+00
      vertex   5.138674e-02 5.627088e-02 0.000000e+00
    endloop
  endfacet
  facet normal -0.000000e+00 0.000000e+00 -1.000000e+00
    outer loop
      vertex   5.138674e-02 5.627088e-02 0.000000e+00
      vertex   4.764120e-02 5.586044e-02 0.000000e+00
      vertex   4.806322e-02 5.627088e-02 0.000000e+00
    endloop
  endfacet
  facet normal 0.000000e+00 0.000000e+00 -1.000000e+00
    outer loop
      vertex   5.138674e-02 5.627088e-02 0.000000e+00
      vertex   4.806322e-02 5.627088e-02 0.000000e+00
      vertex   5.088139e-02 5.657969e-02 0.000000e+00
    endloop
  endfacet
  facet normal -0.000000e+00 0.000000e+00 -1.000000e+00
    outer loop
      vertex   5.088139e-02 5.657969e-02 0.000000e+00
      vertex   4.806322e-02 5.627088e-02 0.000000e+00
      vertex   4.856857e-02 5.657969e-02 0.000000e+00
    endloop
  endfacet
  facet normal 0.000000e+00 0.000000e+00 -1.000000e+00
    outer loop
      vertex   5.088139e-02 5.657969e-02 0.000000e+00
      vertex   4.856857e-02 5.657969e-02 0.000000e+00
      vertex   5.031805e-02 5.677140e-02 0.000000e+00
    endloop
  endfacet
  facet normal -0.000000e+00 0.000000e+00 -1.000000e+00
    outer loop
      vertex   5.031805e-02 5.677140e-02 0.000000e+00
      vertex   4.856857e-02 5.657969e-02 0.000000e+00
      vertex   4.913190e-02 5.677140e-02 0.000000e+00
    endloop
  endfacet
  facet normal 0.000000e+00 0.000000e+00 -1.000000e+00
    outer loop
      vertex   5.031805e-02 5.677140e-02 0.000000e+00
      vertex   4.913190e-02 5.677140e-02 0.000000e+00
      vertex   4.972498e-02 5.683639e-02 0.000000e+00
    endloop
  endfacet
endsolid
