solid ASCII
  facet normal 1.000000e+00 0.000000e+00 0.000000e+00
    outer loop
      vertex   2.210020e-02 6.236574e-02 2.800000e-02
      vertex   2.210020e-02 6.210612e-02 2.800000e-02
      vertex   2.210020e-02 6.236574e-02 1.400000e-02
    endloop
  endfacet
  facet normal 1.000000e+00 0.000000e+00 0.000000e+00
    outer loop
      vertex   2.210020e-02 6.236574e-02 1.400000e-02
      vertex   2.210020e-02 6.210612e-02 2.800000e-02
      vertex   2.210020e-02 6.210612e-02 1.400000e-02
    endloop
  endfacet
  facet normal -0.000000e+00 1.000000e+00 0.000000e+00
    outer loop
      vertex   2.074958e-02 6.236574e-02 2.800000e-02
      vertex   2.210020e-02 6.236574e-02 2.800000e-02
      vertex   2.074958e-02 6.236574e-02 1.400000e-02
    endloop
  endfacet
  facet normal 0.000000e+00 1.000000e+00 0.000000e+00
    outer loop
      vertex   2.074958e-02 6.236574e-02 1.400000e-02
      vertex   2.210020e-02 6.236574e-02 2.800000e-02
      vertex   2.210020e-02 6.236574e-02 1.400000e-02
    endloop
  endfacet
  facet normal 1.000000e+00 0.000000e+00 0.000000e+00
    outer loop
      vertex   2.074958e-02 6.311458e-02 2.800000e-02
      vertex   2.074958e-02 6.236574e-02 2.800000e-02
      vertex   2.074958e-02 6.311458e-02 1.400000e-02
    endloop
  endfacet
  facet normal 1.000000e+00 0.000000e+00 0.000000e+00
    outer loop
      vertex   2.074958e-02 6.311458e-02 1.400000e-02
      vertex   2.074958e-02 6.236574e-02 2.800000e-02
      vertex   2.074958e-02 6.236574e-02 1.400000e-02
    endloop
  endfacet
  facet normal -0.000000e+00 -1.000000e+00 -0.000000e+00
    outer loop
      vertex   2.196664e-02 6.311458e-02 2.800000e-02
      vertex   2.074958e-02 6.311458e-02 2.800000e-02
      vertex   2.196664e-02 6.311458e-02 1.400000e-02
    endloop
  endfacet
  facet normal 0.000000e+00 -1.000000e+00 0.000000e+00
    outer loop
      vertex   2.196664e-02 6.311458e-02 1.400000e-02
      vertex   2.074958e-02 6.311458e-02 2.800000e-02
      vertex   2.074958e-02 6.311458e-02 1.400000e-02
    endloop
  endfacet
  facet normal 1.000000e+00 0.000000e+00 0.000000e+00
    outer loop
      vertex   2.196664e-02 6.337270e-02 2.800000e-02
      vertex   2.196664e-02 6.311458e-02 2.800000e-02
      vertex   2.196664e-02 6.337270e-02 1.400000e-02
    endloop
  endfacet
  facet normal 1.000000e+00 0.000000e+00 0.000000e+00
    outer loop
      vertex   2.196664e-02 6.337270e-02 1.400000e-02
      vertex   2.196664e-02 6.311458e-02 2.800000e-02
      vertex   2.196664e-02 6.311458e-02 1.400000e-02
    endloop
  endfacet
  facet normal -0.000000e+00 1.000000e+00 0.000000e+00
    outer loop
      vertex   2.074958e-02 6.337270e-02 2.800000e-02
      vertex   2.196664e-02 6.337270e-02 2.800000e-02
      vertex   2.074958e-02 6.337270e-02 1.400000e-02
    endloop
  endfacet
  facet normal 0.000000e+00 1.000000e+00 0.000000e+00
    outer loop
      vertex   2.074958e-02 6.337270e-02 1.400000e-02
      vertex   2.196664e-02 6.337270e-02 2.800000e-02
      vertex   2.196664e-02 6.337270e-02 1.400000e-02
    endloop
  endfacet
  facet normal 1.000000e+00 0.000000e+00 0.000000e+00
    outer loop
      vertex   2.074958e-02 6.404651e-02 2.800000e-02
      vertex   2.074958e-02 6.337270e-02 2.800000e-02
      vertex   2.074958e-02 6.404651e-02 1.400000e-02
    endloop
  endfacet
  facet normal 1.000000e+00 0.000000e+00 0.000000e+00
    outer loop
      vertex   2.074958e-02 6.404651e-02 1.400000e-02
      vertex   2.074958e-02 6.337270e-02 2.800000e-02
      vertex   2.074958e-02 6.337270e-02 1.400000e-02
    endloop
  endfacet
  facet normal -0.000000e+00 -1.000000e+00 -0.000000e+00
    outer loop
      vertex   2.204917e-02 6.404651e-02 2.800000e-02
      vertex   2.074958e-02 6.404651e-02 2.800000e-02
      vertex   2.204917e-02 6.404651e-02 1.400000e-02
    endloop
  endfacet
  facet normal 0.000000e+00 -1.000000e+00 0.000000e+00
    outer loop
      vertex   2.204917e-02 6.404651e-02 1.400000e-02
      vertex   2.074958e-02 6.404651e-02 2.800000e-02
      vertex   2.074958e-02 6.404651e-02 1.400000e-02
    endloop
  endfacet
  facet normal 1.000000e+00 0.000000e+00 0.000000e+00
    outer loop
      vertex   2.204917e-02 6.430612e-02 2.800000e-02
      vertex   2.204917e-02 6.404651e-02 2.800000e-02
      vertex   2.204917e-02 6.430612e-02 1.400000e-02
    endloop
  endfacet
  facet normal 1.000000e+00 0.000000e+00 0.000000e+00
    outer loop
      vertex   2.204917e-02 6.430612e-02 1.400000e-02
      vertex   2.204917e-02 6.404651e-02 2.800000e-02
      vertex   2.204917e-02 6.404651e-02 1.400000e-02
    endloop
  endfacet
  facet normal -0.000000e+00 1.000000e+00 0.000000e+00
    outer loop
      vertex   2.045845e-02 6.430612e-02 2.800000e-02
      vertex   2.204917e-02 6.430612e-02 2.800000e-02
      vertex   2.045845e-02 6.430612e-02 1.400000e-02
    endloop
  endfacet
  facet normal 0.000000e+00 1.000000e+00 0.000000e+00
    outer loop
      vertex   2.045845e-02 6.430612e-02 1.400000e-02
      vertex   2.204917e-02 6.430612e-02 2.800000e-02
      vertex   2.204917e-02 6.430612e-02 1.400000e-02
    endloop
  endfacet
  facet normal -1.000000e+00 0.000000e+00 0.000000e+00
    outer loop
      vertex   2.045845e-02 6.210612e-02 2.800000e-02
      vertex   2.045845e-02 6.430612e-02 2.800000e-02
      vertex   2.045845e-02 6.210612e-02 1.400000e-02
    endloop
  endfacet
  facet normal -1.000000e+00 0.000000e+00 0.000000e+00
    outer loop
      vertex   2.045845e-02 6.210612e-02 1.400000e-02
      vertex   2.045845e-02 6.430612e-02 2.800000e-02
      vertex   2.045845e-02 6.430612e-02 1.400000e-02
    endloop
  endfacet
  facet normal -0.000000e+00 -1.000000e+00 -0.000000e+00
    outer loop
      vertex   2.210020e-02 6.210612e-02 2.800000e-02
      vertex   2.045845e-02 6.210612e-02 2.800000e-02
      vertex   2.210020e-02 6.210612e-02 1.400000e-02
    endloop
  endfacet
  facet normal 0.000000e+00 -1.000000e+00 0.000000e+00
    outer loop
      vertex   2.210020e-02 6.210612e-02 1.400000e-02
      vertex   2.045845e-02 6.210612e-02 2.800000e-02
      vertex   2.045845e-02 6.210612e-02 1.400000e-02
    endloop
  endfacet
  facet normal 0.000000e+00 0.000000e+00 1.000000e+00
    outer loop
      vertex   2.210020e-02 6.210612e-02 2.800000e-02
      vertex   2.074958e-02 6.236574e-02 2.800000e-02
      vertex   2.045845e-02 6.210612e-02 2.800000e-02
    endloop
  endfacet
  facet normal 0.000000e+00 0.000000e+00 1.000000e+00
    outer loop
      vertex   2.045845e-02 6.210612e-02 2.800000e-02
      vertex   2.074958e-02 6.236574e-02 2.800000e-02
      vertex   2.074958e-02 6.311458e-02 2.800000e-02
    endloop
  endfacet
  facet normal 0.000000e+00 0.000000e+00 1.000000e+00
    outer loop
      vertex   2.045845e-02 6.210612e-02 2.800000e-02
      vertex   2.074958e-02 6.311458e-02 2.800000e-02
      vertex   2.045845e-02 6.430612e-02 2.800000e-02
    endloop
  endfacet
  facet normal 0.000000e+00 0.000000e+00 1.000000e+00
    outer loop
      vertex   2.045845e-02 6.430612e-02 2.800000e-02
      vertex   2.074958e-02 6.311458e-02 2.800000e-02
      vertex   2.074958e-02 6.337270e-02 2.800000e-02
    endloop
  endfacet
  facet normal 0.000000e+00 0.000000e+00 1.000000e+00
    outer loop
      vertex   2.045845e-02 6.430612e-02 2.800000e-02
      vertex   2.074958e-02 6.337270e-02 2.800000e-02
      vertex   2.074958e-02 6.404651e-02 2.800000e-02
    endloop
  endfacet
  facet normal 0.000000e+00 -0.000000e+00 1.000000e+00
    outer loop
      vertex   2.210020e-02 6.210612e-02 2.800000e-02
      vertex   2.210020e-02 6.236574e-02 2.800000e-02
      vertex   2.074958e-02 6.236574e-02 2.800000e-02
    endloop
  endfacet
  facet normal 0.000000e+00 0.000000e+00 1.000000e+00
    outer loop
      vertex   2.074958e-02 6.311458e-02 2.800000e-02
      vertex   2.196664e-02 6.311458e-02 2.800000e-02
      vertex   2.074958e-02 6.337270e-02 2.800000e-02
    endloop
  endfacet
  facet normal -0.000000e+00 0.000000e+00 1.000000e+00
    outer loop
      vertex   2.074958e-02 6.337270e-02 2.800000e-02
      vertex   2.196664e-02 6.311458e-02 2.800000e-02
      vertex   2.196664e-02 6.337270e-02 2.800000e-02
    endloop
  endfacet
  facet normal 0.000000e+00 -0.000000e+00 1.000000e+00
    outer loop
      vertex   2.204917e-02 6.404651e-02 2.800000e-02
      vertex   2.204917e-02 6.430612e-02 2.800000e-02
      vertex   2.074958e-02 6.404651e-02 2.800000e-02
    endloop
  endfacet
  facet normal 0.000000e+00 -0.000000e+00 1.000000e+00
    outer loop
      vertex   2.074958e-02 6.404651e-02 2.800000e-02
      vertex   2.204917e-02 6.430612e-02 2.800000e-02
      vertex   2.045845e-02 6.430612e-02 2.800000e-02
    endloop
  endfacet
  facet normal -0.000000e+00 -0.000000e+00 -1.000000e+00
    outer loop
      vertex   2.210020e-02 6.236574e-02 1.400000e-02
      vertex   2.210020e-02 6.210612e-02 1.400000e-02
      vertex   2.074958e-02 6.236574e-02 1.400000e-02
    endloop
  endfacet
  facet normal 0.000000e+00 -0.000000e+00 -1.000000e+00
    outer loop
      vertex   2.074958e-02 6.236574e-02 1.400000e-02
      vertex   2.210020e-02 6.210612e-02 1.400000e-02
      vertex   2.045845e-02 6.210612e-02 1.400000e-02
    endloop
  endfacet
  facet normal -0.000000e+00 0.000000e+00 -1.000000e+00
    outer loop
      vertex   2.074958e-02 6.236574e-02 1.400000e-02
      vertex   2.045845e-02 6.210612e-02 1.400000e-02
      vertex   2.074958e-02 6.311458e-02 1.400000e-02
    endloop
  endfacet
  facet normal -0.000000e+00 0.000000e+00 -1.000000e+00
    outer loop
      vertex   2.074958e-02 6.311458e-02 1.400000e-02
      vertex   2.045845e-02 6.210612e-02 1.400000e-02
      vertex   2.045845e-02 6.430612e-02 1.400000e-02
    endloop
  endfacet
  facet normal 0.000000e+00 0.000000e+00 -1.000000e+00
    outer loop
      vertex   2.074958e-02 6.311458e-02 1.400000e-02
      vertex   2.045845e-02 6.430612e-02 1.400000e-02
      vertex   2.074958e-02 6.337270e-02 1.400000e-02
    endloop
  endfacet
  facet normal 0.000000e+00 0.000000e+00 -1.000000e+00
    outer loop
      vertex   2.074958e-02 6.337270e-02 1.400000e-02
      vertex   2.045845e-02 6.430612e-02 1.400000e-02
      vertex   2.074958e-02 6.404651e-02 1.400000e-02
    endloop
  endfacet
  facet normal 0.000000e+00 0.000000e+00 -1.000000e+00
    outer loop
      vertex   2.074958e-02 6.404651e-02 1.400000e-02
      vertex   2.045845e-02 6.430612e-02 1.400000e-02
      vertex   2.204917e-02 6.430612e-02 1.400000e-02
    endloop
  endfacet
  facet normal 0.000000e+00 0.000000e+00 -1.000000e+00
    outer loop
      vertex   2.074958e-02 6.404651e-02 1.400000e-02
      vertex   2.204917e-02 6.430612e-02 1.400000e-02
      vertex   2.204917e-02 6.404651e-02 1.400000e-02
    endloop
  endfacet
  facet normal 0.000000e+00 0.000000e+00 -1.000000e+00
    outer loop
      vertex   2.074958e-02 6.337270e-02 1.400000e-02
      vertex   2.196664e-02 6.337270e-02 1.400000e-02
      vertex   2.074958e-02 6.311458e-02 1.400000e-02
    endloop
  endfacet
  facet normal 0.000000e+00 0.000000e+00 -1.000000e+00
    outer loop
      vertex   2.074958e-02 6.311458e-02 1.400000e-02
      vertex   2.196664e-02 6.337270e-02 1.400000e-02
      vertex   2.196664e-02 6.311458e-02 1.400000e-02
    endloop
  endfacet
endsolid
