solid ASCII
  facet normal 1.000000e+00 0.000000e+00 0.000000e+00
    outer loop
      vertex   3.160928e-02 9.669577e-03 2.800000e-02
      vertex   3.160928e-02 7.200000e-03 2.800000e-02
      vertex   3.160928e-02 9.669577e-03 1.400000e-02
    endloop
  endfacet
  facet normal 1.000000e+00 0.000000e+00 0.000000e+00
    outer loop
      vertex   3.160928e-02 9.669577e-03 1.400000e-02
      vertex   3.160928e-02 7.200000e-03 2.800000e-02
      vertex   3.160928e-02 7.200000e-03 1.400000e-02
    endloop
  endfacet
  facet normal -0.000000e+00 -1.000000e+00 -0.000000e+00
    outer loop
      vertex   3.253561e-02 9.669577e-03 2.800000e-02
      vertex   3.160928e-02 9.669577e-03 2.800000e-02
      vertex   3.253561e-02 9.669577e-03 1.400000e-02
    endloop
  endfacet
  facet normal 0.000000e+00 -1.000000e+00 0.000000e+00
    outer loop
      vertex   3.253561e-02 9.669577e-03 1.400000e-02
      vertex   3.160928e-02 9.669577e-03 2.800000e-02
      vertex   3.160928e-02 9.669577e-03 1.400000e-02
    endloop
  endfacet
  facet normal 1.000000e+00 0.000000e+00 0.000000e+00
    outer loop
      vertex   3.253561e-02 1.000000e-02 2.800000e-02
      vertex   3.253561e-02 9.669577e-03 2.800000e-02
      vertex   3.253561e-02 1.000000e-02 1.400000e-02
    endloop
  endfacet
  facet normal 1.000000e+00 0.000000e+00 0.000000e+00
    outer loop
      vertex   3.253561e-02 1.000000e-02 1.400000e-02
      vertex   3.253561e-02 9.669577e-03 2.800000e-02
      vertex   3.253561e-02 9.669577e-03 1.400000e-02
    endloop
  endfacet
  facet normal -0.000000e+00 1.000000e+00 0.000000e+00
    outer loop
      vertex   3.031624e-02 1.000000e-02 2.800000e-02
      vertex   3.253561e-02 1.000000e-02 2.800000e-02
      vertex   3.031624e-02 1.000000e-02 1.400000e-02
    endloop
  endfacet
  facet normal 0.000000e+00 1.000000e+00 0.000000e+00
    outer loop
      vertex   3.031624e-02 1.000000e-02 1.400000e-02
      vertex   3.253561e-02 1.000000e-02 2.800000e-02
      vertex   3.253561e-02 1.000000e-02 1.400000e-02
    endloop
  endfacet
  facet normal -1.000000e+00 0.000000e+00 0.000000e+00
    outer loop
      vertex   3.031624e-02 9.669577e-03 2.800000e-02
      vertex   3.031624e-02 1.000000e-02 2.800000e-02
      vertex   3.031624e-02 9.669577e-03 1.400000e-02
    endloop
  endfacet
  facet normal -1.000000e+00 0.000000e+00 0.000000e+00
    outer loop
      vertex   3.031624e-02 9.669577e-03 1.400000e-02
      vertex   3.031624e-02 1.000000e-02 2.800000e-02
      vertex   3.031624e-02 1.000000e-02 1.400000e-02
    endloop
  endfacet
  facet normal -0.000000e+00 -1.000000e+00 -0.000000e+00
    outer loop
      vertex   3.123875e-02 9.669577e-03 2.800000e-02
      vertex   3.031624e-02 9.669577e-03 2.800000e-02
      vertex   3.123875e-02 9.669577e-03 1.400000e-02
    endloop
  endfacet
  facet normal 0.000000e+00 -1.000000e+00 0.000000e+00
    outer loop
      vertex   3.123875e-02 9.669577e-03 1.400000e-02
      vertex   3.031624e-02 9.669577e-03 2.800000e-02
      vertex   3.031624e-02 9.669577e-03 1.400000e-02
    endloop
  endfacet
  facet normal -1.000000e+00 0.000000e+00 0.000000e+00
    outer loop
      vertex   3.123875e-02 7.200000e-03 2.800000e-02
      vertex   3.123875e-02 9.669577e-03 2.800000e-02
      vertex   3.123875e-02 7.200000e-03 1.400000e-02
    endloop
  endfacet
  facet normal -1.000000e+00 0.000000e+00 0.000000e+00
    outer loop
      vertex   3.123875e-02 7.200000e-03 1.400000e-02
      vertex   3.123875e-02 9.669577e-03 2.800000e-02
      vertex   3.123875e-02 9.669577e-03 1.400000e-02
    endloop
  endfacet
  facet normal -0.000000e+00 -1.000000e+00 -0.000000e+00
    outer loop
      vertex   3.160928e-02 7.200000e-03 2.800000e-02
      vertex   3.123875e-02 7.200000e-03 2.800000e-02
      vertex   3.160928e-02 7.200000e-03 1.400000e-02
    endloop
  endfacet
  facet normal 0.000000e+00 -1.000000e+00 0.000000e+00
    outer loop
      vertex   3.160928e-02 7.200000e-03 1.400000e-02
      vertex   3.123875e-02 7.200000e-03 2.800000e-02
      vertex   3.123875e-02 7.200000e-03 1.400000e-02
    endloop
  endfacet
  facet normal 0.000000e+00 0.000000e+00 1.000000e+00
    outer loop
      vertex   3.123875e-02 7.200000e-03 2.800000e-02
      vertex   3.160928e-02 7.200000e-03 2.800000e-02
      vertex   3.123875e-02 9.669577e-03 2.800000e-02
    endloop
  endfacet
  facet normal -0.000000e+00 0.000000e+00 1.000000e+00
    outer loop
      vertex   3.123875e-02 9.669577e-03 2.800000e-02
      vertex   3.160928e-02 7.200000e-03 2.800000e-02
      vertex   3.160928e-02 9.669577e-03 2.800000e-02
    endloop
  endfacet
  facet normal 0.000000e+00 -0.000000e+00 1.000000e+00
    outer loop
      vertex   3.123875e-02 9.669577e-03 2.800000e-02
      vertex   3.160928e-02 9.669577e-03 2.800000e-02
      vertex   3.031624e-02 1.000000e-02 2.800000e-02
    endloop
  endfacet
  facet normal -0.000000e+00 0.000000e+00 1.000000e+00
    outer loop
      vertex   3.031624e-02 1.000000e-02 2.800000e-02
      vertex   3.160928e-02 9.669577e-03 2.800000e-02
      vertex   3.253561e-02 1.000000e-02 2.800000e-02
    endloop
  endfacet
  facet normal 0.000000e+00 0.000000e+00 1.000000e+00
    outer loop
      vertex   3.253561e-02 1.000000e-02 2.800000e-02
      vertex   3.160928e-02 9.669577e-03 2.800000e-02
      vertex   3.253561e-02 9.669577e-03 2.800000e-02
    endloop
  endfacet
  facet normal 0.000000e+00 0.000000e+00 1.000000e+00
    outer loop
      vertex   3.031624e-02 1.000000e-02 2.800000e-02
      vertex   3.031624e-02 9.669577e-03 2.800000e-02
      vertex   3.123875e-02 9.669577e-03 2.800000e-02
    endloop
  endfacet
  facet normal 0.000000e+00 0.000000e+00 -1.000000e+00
    outer loop
      vertex   3.160928e-02 7.200000e-03 1.400000e-02
      vertex   3.123875e-02 7.200000e-03 1.400000e-02
      vertex   3.160928e-02 9.669577e-03 1.400000e-02
    endloop
  endfacet
  facet normal -0.000000e+00 0.000000e+00 -1.000000e+00
    outer loop
      vertex   3.160928e-02 9.669577e-03 1.400000e-02
      vertex   3.123875e-02 7.200000e-03 1.400000e-02
      vertex   3.123875e-02 9.669577e-03 1.400000e-02
    endloop
  endfacet
  facet normal 0.000000e+00 0.000000e+00 -1.000000e+00
    outer loop
      vertex   3.160928e-02 9.669577e-03 1.400000e-02
      vertex   3.123875e-02 9.669577e-03 1.400000e-02
      vertex   3.031624e-02 1.000000e-02 1.400000e-02
    endloop
  endfacet
  facet normal 0.000000e+00 0.000000e+00 -1.000000e+00
    outer loop
      vertex   3.031624e-02 1.000000e-02 1.400000e-02
      vertex   3.123875e-02 9.669577e-03 1.400000e-02
      vertex   3.031624e-02 9.669577e-03 1.400000e-02
    endloop
  endfacet
  facet normal 0.000000e+00 0.000000e+00 -1.000000e+00
    outer loop
      vertex   3.031624e-02 1.000000e-02 1.400000e-02
      vertex   3.253561e-02 1.000000e-02 1.400000e-02
      vertex   3.160928e-02 9.669577e-03 1.400000e-02
    endloop
  endfacet
  facet normal 0.000000e+00 0.000000e+00 -1.000000e+00
    outer loop
      vertex   3.160928e-02 9.669577e-03 1.400000e-02
      vertex   3.253561e-02 1.000000e-02 1.400000e-02
      vertex   3.253561e-02 9.669577e-03 1.400000e-02
    endloop
  endfacet
endsolid
