solid ASCII
  facet normal 1.000000e+00 0.000000e+00 0.000000e+00
    outer loop
      vertex   1.462101e-02 1.965778e-02 2.800000e-02
      vertex   1.462101e-02 1.710000e-02 2.800000e-02
      vertex   1.462101e-02 1.965778e-02 1.400000e-02
    endloop
  endfacet
  facet normal 1.000000e+00 0.000000e+00 0.000000e+00
    outer loop
      vertex   1.462101e-02 1.965778e-02 1.400000e-02
      vertex   1.462101e-02 1.710000e-02 2.800000e-02
      vertex   1.462101e-02 1.710000e-02 1.400000e-02
    endloop
  endfacet
  facet normal -0.000000e+00 -1.000000e+00 -0.000000e+00
    outer loop
      vertex   1.558042e-02 1.965778e-02 2.800000e-02
      vertex   1.462101e-02 1.965778e-02 2.800000e-02
      vertex   1.558042e-02 1.965778e-02 1.400000e-02
    endloop
  endfacet
  facet normal 0.000000e+00 -1.000000e+00 0.000000e+00
    outer loop
      vertex   1.558042e-02 1.965778e-02 1.400000e-02
      vertex   1.462101e-02 1.965778e-02 2.800000e-02
      vertex   1.462101e-02 1.965778e-02 1.400000e-02
    endloop
  endfacet
  facet normal 1.000000e+00 0.000000e+00 0.000000e+00
    outer loop
      vertex   1.558042e-02 2.000000e-02 2.800000e-02
      vertex   1.558042e-02 1.965778e-02 2.800000e-02
      vertex   1.558042e-02 2.000000e-02 1.400000e-02
    endloop
  endfacet
  facet normal 1.000000e+00 0.000000e+00 0.000000e+00
    outer loop
      vertex   1.558042e-02 2.000000e-02 1.400000e-02
      vertex   1.558042e-02 1.965778e-02 2.800000e-02
      vertex   1.558042e-02 1.965778e-02 1.400000e-02
    endloop
  endfacet
  facet normal -0.000000e+00 1.000000e+00 0.000000e+00
    outer loop
      vertex   1.328179e-02 2.000000e-02 2.800000e-02
      vertex   1.558042e-02 2.000000e-02 2.800000e-02
      vertex   1.328179e-02 2.000000e-02 1.400000e-02
    endloop
  endfacet
  facet normal 0.000000e+00 1.000000e+00 0.000000e+00
    outer loop
      vertex   1.328179e-02 2.000000e-02 1.400000e-02
      vertex   1.558042e-02 2.000000e-02 2.800000e-02
      vertex   1.558042e-02 2.000000e-02 1.400000e-02
    endloop
  endfacet
  facet normal -1.000000e+00 0.000000e+00 0.000000e+00
    outer loop
      vertex   1.328179e-02 1.965778e-02 2.800000e-02
      vertex   1.328179e-02 2.000000e-02 2.800000e-02
      vertex   1.328179e-02 1.965778e-02 1.400000e-02
    endloop
  endfacet
  facet normal -1.000000e+00 0.000000e+00 0.000000e+00
    outer loop
      vertex   1.328179e-02 1.965778e-02 1.400000e-02
      vertex   1.328179e-02 2.000000e-02 2.800000e-02
      vertex   1.328179e-02 2.000000e-02 1.400000e-02
    endloop
  endfacet
  facet normal -0.000000e+00 -1.000000e+00 -0.000000e+00
    outer loop
      vertex   1.423724e-02 1.965778e-02 2.800000e-02
      vertex   1.328179e-02 1.965778e-02 2.800000e-02
      vertex   1.423724e-02 1.965778e-02 1.400000e-02
    endloop
  endfacet
  facet normal 0.000000e+00 -1.000000e+00 0.000000e+00
    outer loop
      vertex   1.423724e-02 1.965778e-02 1.400000e-02
      vertex   1.328179e-02 1.965778e-02 2.800000e-02
      vertex   1.328179e-02 1.965778e-02 1.400000e-02
    endloop
  endfacet
  facet normal -1.000000e+00 0.000000e+00 0.000000e+00
    outer loop
      vertex   1.423724e-02 1.710000e-02 2.800000e-02
      vertex   1.423724e-02 1.965778e-02 2.800000e-02
      vertex   1.423724e-02 1.710000e-02 1.400000e-02
    endloop
  endfacet
  facet normal -1.000000e+00 0.000000e+00 0.000000e+00
    outer loop
      vertex   1.423724e-02 1.710000e-02 1.400000e-02
      vertex   1.423724e-02 1.965778e-02 2.800000e-02
      vertex   1.423724e-02 1.965778e-02 1.400000e-02
    endloop
  endfacet
  facet normal -0.000000e+00 -1.000000e+00 -0.000000e+00
    outer loop
      vertex   1.462101e-02 1.710000e-02 2.800000e-02
      vertex   1.423724e-02 1.710000e-02 2.800000e-02
      vertex   1.462101e-02 1.710000e-02 1.400000e-02
    endloop
  endfacet
  facet normal 0.000000e+00 -1.000000e+00 0.000000e+00
    outer loop
      vertex   1.462101e-02 1.710000e-02 1.400000e-02
      vertex   1.423724e-02 1.710000e-02 2.800000e-02
      vertex   1.423724e-02 1.710000e-02 1.400000e-02
    endloop
  endfacet
  facet normal 0.000000e+00 0.000000e+00 1.000000e+00
    outer loop
      vertex   1.423724e-02 1.710000e-02 2.800000e-02
      vertex   1.462101e-02 1.710000e-02 2.800000e-02
      vertex   1.423724e-02 1.965778e-02 2.800000e-02
    endloop
  endfacet
  facet normal -0.000000e+00 0.000000e+00 1.000000e+00
    outer loop
      vertex   1.423724e-02 1.965778e-02 2.800000e-02
      vertex   1.462101e-02 1.710000e-02 2.800000e-02
      vertex   1.462101e-02 1.965778e-02 2.800000e-02
    endloop
  endfacet
  facet normal 0.000000e+00 -0.000000e+00 1.000000e+00
    outer loop
      vertex   1.423724e-02 1.965778e-02 2.800000e-02
      vertex   1.462101e-02 1.965778e-02 2.800000e-02
      vertex   1.328179e-02 2.000000e-02 2.800000e-02
    endloop
  endfacet
  facet normal -0.000000e+00 0.000000e+00 1.000000e+00
    outer loop
      vertex   1.328179e-02 2.000000e-02 2.800000e-02
      vertex   1.462101e-02 1.965778e-02 2.800000e-02
      vertex   1.558042e-02 2.000000e-02 2.800000e-02
    endloop
  endfacet
  facet normal 0.000000e+00 0.000000e+00 1.000000e+00
    outer loop
      vertex   1.558042e-02 2.000000e-02 2.800000e-02
      vertex   1.462101e-02 1.965778e-02 2.800000e-02
      vertex   1.558042e-02 1.965778e-02 2.800000e-02
    endloop
  endfacet
  facet normal 0.000000e+00 0.000000e+00 1.000000e+00
    outer loop
      vertex   1.328179e-02 2.000000e-02 2.800000e-02
      vertex   1.328179e-02 1.965778e-02 2.800000e-02
      vertex   1.423724e-02 1.965778e-02 2.800000e-02
    endloop
  endfacet
  facet normal 0.000000e+00 0.000000e+00 -1.000000e+00
    outer loop
      vertex   1.462101e-02 1.710000e-02 1.400000e-02
      vertex   1.423724e-02 1.710000e-02 1.400000e-02
      vertex   1.462101e-02 1.965778e-02 1.400000e-02
    endloop
  endfacet
  facet normal -0.000000e+00 0.000000e+00 -1.000000e+00
    outer loop
      vertex   1.462101e-02 1.965778e-02 1.400000e-02
      vertex   1.423724e-02 1.710000e-02 1.400000e-02
      vertex   1.423724e-02 1.965778e-02 1.400000e-02
    endloop
  endfacet
  facet normal 0.000000e+00 0.000000e+00 -1.000000e+00
    outer loop
      vertex   1.462101e-02 1.965778e-02 1.400000e-02
      vertex   1.423724e-02 1.965778e-02 1.400000e-02
      vertex   1.328179e-02 2.000000e-02 1.400000e-02
    endloop
  endfacet
  facet normal 0.000000e+00 0.000000e+00 -1.000000e+00
    outer loop
      vertex   1.328179e-02 2.000000e-02 1.400000e-02
      vertex   1.423724e-02 1.965778e-02 1.400000e-02
      vertex   1.328179e-02 1.965778e-02 1.400000e-02
    endloop
  endfacet
  facet normal 0.000000e+00 0.000000e+00 -1.000000e+00
    outer loop
      vertex   1.328179e-02 2.000000e-02 1.400000e-02
      vertex   1.558042e-02 2.000000e-02 1.400000e-02
      vertex   1.462101e-02 1.965778e-02 1.400000e-02
    endloop
  endfacet
  facet normal 0.000000e+00 0.000000e+00 -1.000000e+00
    outer loop
      vertex   1.462101e-02 1.965778e-02 1.400000e-02
      vertex   1.558042e-02 2.000000e-02 1.400000e-02
      vertex   1.558042e-02 1.965778e-02 1.400000e-02
    endloop
  endfacet
endsolid
