solid ASCII
  facet normal 1.000000e+00 0.000000e+00 0.000000e+00
    outer loop
      vertex   7.886767e-02 3.501364e-02 2.800000e-02
      vertex   7.886767e-02 2.900000e-02 2.800000e-02
      vertex   7.886767e-02 3.501364e-02 1.400000e-02
    endloop
  endfacet
  facet normal 1.000000e+00 0.000000e+00 0.000000e+00
    outer loop
      vertex   7.886767e-02 3.501364e-02 1.400000e-02
      vertex   7.886767e-02 2.900000e-02 2.800000e-02
      vertex   7.886767e-02 2.900000e-02 1.400000e-02
    endloop
  endfacet
  facet normal 9.685527e-01 -2.488083e-01 0.000000e+00
    outer loop
      vertex   7.918418e-02 3.743656e-02 2.800000e-02
      vertex   7.903128e-02 3.684138e-02 2.800000e-02
      vertex   7.918418e-02 3.743656e-02 1.400000e-02
    endloop
  endfacet
  facet normal 9.685527e-01 -2.488083e-01 0.000000e+00
    outer loop
      vertex   7.918418e-02 3.743656e-02 1.400000e-02
      vertex   7.903128e-02 3.684138e-02 2.800000e-02
      vertex   7.903128e-02 3.684138e-02 1.400000e-02
    endloop
  endfacet
  facet normal 9.842697e-01 -1.766723e-01 0.000000e+00
    outer loop
      vertex   7.903128e-02 3.684138e-02 1.400000e-02
      vertex   7.903128e-02 3.684138e-02 2.800000e-02
      vertex   7.892330e-02 3.623977e-02 2.800000e-02
    endloop
  endfacet
  facet normal 9.842697e-01 -1.766723e-01 0.000000e+00
    outer loop
      vertex   7.903128e-02 3.684138e-02 1.400000e-02
      vertex   7.892330e-02 3.623977e-02 2.800000e-02
      vertex   7.892330e-02 3.623977e-02 1.400000e-02
    endloop
  endfacet
  facet normal 9.973167e-01 -7.320727e-02 0.000000e+00
    outer loop
      vertex   7.892330e-02 3.623977e-02 1.400000e-02
      vertex   7.892330e-02 3.623977e-02 2.800000e-02
      vertex   7.887847e-02 3.562914e-02 2.800000e-02
    endloop
  endfacet
  facet normal 9.973167e-01 -7.320727e-02 0.000000e+00
    outer loop
      vertex   7.892330e-02 3.623977e-02 1.400000e-02
      vertex   7.887847e-02 3.562914e-02 2.800000e-02
      vertex   7.887847e-02 3.562914e-02 1.400000e-02
    endloop
  endfacet
  facet normal 9.998460e-01 -1.754681e-02 0.000000e+00
    outer loop
      vertex   7.887847e-02 3.562914e-02 1.400000e-02
      vertex   7.887847e-02 3.562914e-02 2.800000e-02
      vertex   7.886767e-02 3.501364e-02 2.800000e-02
    endloop
  endfacet
  facet normal 9.998460e-01 -1.754681e-02 0.000000e+00
    outer loop
      vertex   7.887847e-02 3.562914e-02 1.400000e-02
      vertex   7.886767e-02 3.501364e-02 2.800000e-02
      vertex   7.886767e-02 3.501364e-02 1.400000e-02
    endloop
  endfacet
  facet normal 6.176423e-01 -7.864592e-01 0.000000e+00
    outer loop
      vertex   8.020464e-02 3.871351e-02 2.800000e-02
      vertex   7.987478e-02 3.845445e-02 2.800000e-02
      vertex   8.020464e-02 3.871351e-02 1.400000e-02
    endloop
  endfacet
  facet normal 6.176423e-01 -7.864592e-01 0.000000e+00
    outer loop
      vertex   8.020464e-02 3.871351e-02 1.400000e-02
      vertex   7.987478e-02 3.845445e-02 2.800000e-02
      vertex   7.987478e-02 3.845445e-02 1.400000e-02
    endloop
  endfacet
  facet normal 7.119493e-01 -7.022309e-01 0.000000e+00
    outer loop
      vertex   7.987478e-02 3.845445e-02 1.400000e-02
      vertex   7.987478e-02 3.845445e-02 2.800000e-02
      vertex   7.958636e-02 3.816204e-02 2.800000e-02
    endloop
  endfacet
  facet normal 7.119493e-01 -7.022309e-01 0.000000e+00
    outer loop
      vertex   7.987478e-02 3.845445e-02 1.400000e-02
      vertex   7.958636e-02 3.816204e-02 2.800000e-02
      vertex   7.958636e-02 3.816204e-02 1.400000e-02
    endloop
  endfacet
  facet normal 8.433864e-01 -5.373076e-01 0.000000e+00
    outer loop
      vertex   7.958636e-02 3.816204e-02 1.400000e-02
      vertex   7.958636e-02 3.816204e-02 2.800000e-02
      vertex   7.936544e-02 3.781527e-02 2.800000e-02
    endloop
  endfacet
  facet normal 8.433864e-01 -5.373076e-01 0.000000e+00
    outer loop
      vertex   7.958636e-02 3.816204e-02 1.400000e-02
      vertex   7.936544e-02 3.781527e-02 2.800000e-02
      vertex   7.936544e-02 3.781527e-02 1.400000e-02
    endloop
  endfacet
  facet normal 9.020028e-01 -4.317301e-01 0.000000e+00
    outer loop
      vertex   7.936544e-02 3.781527e-02 1.400000e-02
      vertex   7.936544e-02 3.781527e-02 2.800000e-02
      vertex   7.918418e-02 3.743656e-02 2.800000e-02
    endloop
  endfacet
  facet normal 9.020028e-01 -4.317301e-01 0.000000e+00
    outer loop
      vertex   7.936544e-02 3.781527e-02 1.400000e-02
      vertex   7.918418e-02 3.743656e-02 2.800000e-02
      vertex   7.918418e-02 3.743656e-02 1.400000e-02
    endloop
  endfacet
  facet normal 8.385593e-02 -9.964779e-01 0.000000e+00
    outer loop
      vertex   8.173806e-02 3.915007e-02 2.800000e-02
      vertex   8.133333e-02 3.911601e-02 2.800000e-02
      vertex   8.173806e-02 3.915007e-02 1.400000e-02
    endloop
  endfacet
  facet normal 8.385593e-02 -9.964779e-01 0.000000e+00
    outer loop
      vertex   8.173806e-02 3.915007e-02 1.400000e-02
      vertex   8.133333e-02 3.911601e-02 2.800000e-02
      vertex   8.133333e-02 3.911601e-02 1.400000e-02
    endloop
  endfacet
  facet normal 1.874255e-01 -9.822788e-01 0.000000e+00
    outer loop
      vertex   8.133333e-02 3.911601e-02 1.400000e-02
      vertex   8.133333e-02 3.911601e-02 2.800000e-02
      vertex   8.094025e-02 3.904101e-02 2.800000e-02
    endloop
  endfacet
  facet normal 1.874255e-01 -9.822788e-01 0.000000e+00
    outer loop
      vertex   8.133333e-02 3.911601e-02 1.400000e-02
      vertex   8.094025e-02 3.904101e-02 2.800000e-02
      vertex   8.094025e-02 3.904101e-02 1.400000e-02
    endloop
  endfacet
  facet normal 3.580137e-01 -9.337163e-01 0.000000e+00
    outer loop
      vertex   8.094025e-02 3.904101e-02 1.400000e-02
      vertex   8.094025e-02 3.904101e-02 2.800000e-02
      vertex   8.056661e-02 3.889774e-02 2.800000e-02
    endloop
  endfacet
  facet normal 3.580137e-01 -9.337163e-01 0.000000e+00
    outer loop
      vertex   8.094025e-02 3.904101e-02 1.400000e-02
      vertex   8.056661e-02 3.889774e-02 2.800000e-02
      vertex   8.056661e-02 3.889774e-02 1.400000e-02
    endloop
  endfacet
  facet normal 4.536039e-01 -8.912034e-01 0.000000e+00
    outer loop
      vertex   8.056661e-02 3.889774e-02 1.400000e-02
      vertex   8.056661e-02 3.889774e-02 2.800000e-02
      vertex   8.020464e-02 3.871351e-02 2.800000e-02
    endloop
  endfacet
  facet normal 4.536039e-01 -8.912034e-01 0.000000e+00
    outer loop
      vertex   8.056661e-02 3.889774e-02 1.400000e-02
      vertex   8.020464e-02 3.871351e-02 2.800000e-02
      vertex   8.020464e-02 3.871351e-02 1.400000e-02
    endloop
  endfacet
  facet normal -6.692802e-01 -7.430101e-01 0.000000e+00
    outer loop
      vertex   8.330969e-02 3.849522e-02 1.400000e-02
      vertex   8.330969e-02 3.849522e-02 2.800000e-02
      vertex   8.297692e-02 3.879497e-02 2.100000e-02
    endloop
  endfacet
  facet normal -6.692802e-01 -7.430101e-01 -7.365240e-16
    outer loop
      vertex   8.297692e-02 3.879497e-02 2.100000e-02
      vertex   8.330969e-02 3.849522e-02 2.800000e-02
      vertex   8.297692e-02 3.879497e-02 2.800000e-02
    endloop
  endfacet
  facet normal -5.762743e-01 -8.172563e-01 -8.101221e-16
    outer loop
      vertex   8.297692e-02 3.879497e-02 2.100000e-02
      vertex   8.297692e-02 3.879497e-02 2.800000e-02
      vertex   8.279957e-02 3.892003e-02 2.800000e-02
    endloop
  endfacet
  facet normal -5.762743e-01 -8.172563e-01 -8.080805e-16
    outer loop
      vertex   8.297692e-02 3.879497e-02 2.100000e-02
      vertex   8.279957e-02 3.892003e-02 2.800000e-02
      vertex   8.279957e-02 3.892003e-02 2.100000e-02
    endloop
  endfacet
  facet normal -4.478693e-01 -8.940990e-01 -8.862940e-16
    outer loop
      vertex   8.279957e-02 3.892003e-02 2.100000e-02
      vertex   8.279957e-02 3.892003e-02 2.800000e-02
      vertex   8.260911e-02 3.901543e-02 2.800000e-02
    endloop
  endfacet
  facet normal -4.478693e-01 -8.940990e-01 -8.875609e-16
    outer loop
      vertex   8.279957e-02 3.892003e-02 2.100000e-02
      vertex   8.260911e-02 3.901543e-02 2.800000e-02
      vertex   8.260911e-02 3.901543e-02 2.100000e-02
    endloop
  endfacet
  facet normal -2.327633e-01 -9.725334e-01 -4.614629e-16
    outer loop
      vertex   8.260911e-02 3.901543e-02 2.100000e-02
      vertex   8.260911e-02 3.901543e-02 2.800000e-02
      vertex   8.218835e-02 3.911614e-02 2.800000e-02
    endloop
  endfacet
  facet normal -2.327633e-01 -9.725334e-01 0.000000e+00
    outer loop
      vertex   8.260911e-02 3.901543e-02 2.100000e-02
      vertex   8.218835e-02 3.911614e-02 2.800000e-02
      vertex   8.218835e-02 3.911614e-02 2.100000e-02
    endloop
  endfacet
  facet normal -7.513964e-02 -9.971730e-01 0.000000e+00
    outer loop
      vertex   8.218835e-02 3.911614e-02 2.100000e-02
      vertex   8.218835e-02 3.911614e-02 2.800000e-02
      vertex   8.173806e-02 3.915007e-02 2.800000e-02
    endloop
  endfacet
  facet normal -7.513964e-02 -9.971730e-01 0.000000e+00
    outer loop
      vertex   8.218835e-02 3.911614e-02 2.100000e-02
      vertex   8.173806e-02 3.915007e-02 2.800000e-02
      vertex   8.173806e-02 3.915007e-02 1.400000e-02
    endloop
  endfacet
  facet normal -7.513964e-02 -9.971730e-01 0.000000e+00
    outer loop
      vertex   8.173806e-02 3.915007e-02 1.400000e-02
      vertex   8.218835e-02 3.911614e-02 1.400000e-02
      vertex   8.218835e-02 3.911614e-02 2.100000e-02
    endloop
  endfacet
  facet normal -2.327633e-01 -9.725334e-01 -0.000000e+00
    outer loop
      vertex   8.218835e-02 3.911614e-02 2.100000e-02
      vertex   8.218835e-02 3.911614e-02 1.400000e-02
      vertex   8.260911e-02 3.901543e-02 1.400000e-02
    endloop
  endfacet
  facet normal -2.327633e-01 -9.725334e-01 4.610445e-16
    outer loop
      vertex   8.218835e-02 3.911614e-02 2.100000e-02
      vertex   8.260911e-02 3.901543e-02 1.400000e-02
      vertex   8.260911e-02 3.901543e-02 2.100000e-02
    endloop
  endfacet
  facet normal -4.478693e-01 -8.940990e-01 8.879193e-16
    outer loop
      vertex   8.260911e-02 3.901543e-02 2.100000e-02
      vertex   8.260911e-02 3.901543e-02 1.400000e-02
      vertex   8.279957e-02 3.892003e-02 1.400000e-02
    endloop
  endfacet
  facet normal -4.478693e-01 -8.940990e-01 8.875609e-16
    outer loop
      vertex   8.260911e-02 3.901543e-02 2.100000e-02
      vertex   8.279957e-02 3.892003e-02 1.400000e-02
      vertex   8.279957e-02 3.892003e-02 2.100000e-02
    endloop
  endfacet
  facet normal -5.762743e-01 -8.172563e-01 8.101221e-16
    outer loop
      vertex   8.279957e-02 3.892003e-02 2.100000e-02
      vertex   8.279957e-02 3.892003e-02 1.400000e-02
      vertex   8.297692e-02 3.879497e-02 1.400000e-02
    endloop
  endfacet
  facet normal -5.762743e-01 -8.172563e-01 8.102586e-16
    outer loop
      vertex   8.279957e-02 3.892003e-02 2.100000e-02
      vertex   8.297692e-02 3.879497e-02 1.400000e-02
      vertex   8.297692e-02 3.879497e-02 2.100000e-02
    endloop
  endfacet
  facet normal -6.692802e-01 -7.430101e-01 7.365240e-16
    outer loop
      vertex   8.297692e-02 3.879497e-02 2.100000e-02
      vertex   8.297692e-02 3.879497e-02 1.400000e-02
      vertex   8.330969e-02 3.849522e-02 1.400000e-02
    endloop
  endfacet
  facet normal -9.993431e-01 -3.624014e-02 -0.000000e+00
    outer loop
      vertex   8.378991e-02 3.653070e-02 2.800000e-02
      vertex   8.377112e-02 3.704871e-02 2.800000e-02
      vertex   8.378991e-02 3.653070e-02 1.400000e-02
    endloop
  endfacet
  facet normal -9.993431e-01 -3.624014e-02 0.000000e+00
    outer loop
      vertex   8.378991e-02 3.653070e-02 1.400000e-02
      vertex   8.377112e-02 3.704871e-02 2.800000e-02
      vertex   8.377112e-02 3.704871e-02 1.400000e-02
    endloop
  endfacet
  facet normal -9.906035e-01 -1.367648e-01 0.000000e+00
    outer loop
      vertex   8.377112e-02 3.704871e-02 1.400000e-02
      vertex   8.377112e-02 3.704871e-02 2.800000e-02
      vertex   8.370147e-02 3.755322e-02 2.800000e-02
    endloop
  endfacet
  facet normal -9.906035e-01 -1.367648e-01 0.000000e+00
    outer loop
      vertex   8.377112e-02 3.704871e-02 1.400000e-02
      vertex   8.370147e-02 3.755322e-02 2.800000e-02
      vertex   8.370147e-02 3.755322e-02 1.400000e-02
    endloop
  endfacet
  facet normal -9.466587e-01 -3.222379e-01 0.000000e+00
    outer loop
      vertex   8.370147e-02 3.755322e-02 1.400000e-02
      vertex   8.370147e-02 3.755322e-02 2.800000e-02
      vertex   8.353820e-02 3.803288e-02 2.800000e-02
    endloop
  endfacet
  facet normal -9.466587e-01 -3.222379e-01 0.000000e+00
    outer loop
      vertex   8.370147e-02 3.755322e-02 1.400000e-02
      vertex   8.353820e-02 3.803288e-02 2.800000e-02
      vertex   8.353820e-02 3.803288e-02 1.400000e-02
    endloop
  endfacet
  facet normal -8.964871e-01 -4.430699e-01 0.000000e+00
    outer loop
      vertex   8.353820e-02 3.803288e-02 1.400000e-02
      vertex   8.353820e-02 3.803288e-02 2.800000e-02
      vertex   8.330969e-02 3.849522e-02 2.800000e-02
    endloop
  endfacet
  facet normal -8.964871e-01 -4.430699e-01 0.000000e+00
    outer loop
      vertex   8.353820e-02 3.803288e-02 1.400000e-02
      vertex   8.330969e-02 3.849522e-02 2.800000e-02
      vertex   8.330969e-02 3.849522e-02 1.400000e-02
    endloop
  endfacet
  facet normal -1.000000e+00 0.000000e+00 0.000000e+00
    outer loop
      vertex   8.378991e-02 2.900000e-02 2.800000e-02
      vertex   8.378991e-02 3.653070e-02 2.800000e-02
      vertex   8.378991e-02 2.900000e-02 1.400000e-02
    endloop
  endfacet
  facet normal -1.000000e+00 0.000000e+00 0.000000e+00
    outer loop
      vertex   8.378991e-02 2.900000e-02 1.400000e-02
      vertex   8.378991e-02 3.653070e-02 2.800000e-02
      vertex   8.378991e-02 3.653070e-02 1.400000e-02
    endloop
  endfacet
  facet normal -0.000000e+00 -1.000000e+00 -0.000000e+00
    outer loop
      vertex   8.575443e-02 2.900000e-02 2.800000e-02
      vertex   8.378991e-02 2.900000e-02 2.800000e-02
      vertex   8.575443e-02 2.900000e-02 1.400000e-02
    endloop
  endfacet
  facet normal 0.000000e+00 -1.000000e+00 0.000000e+00
    outer loop
      vertex   8.575443e-02 2.900000e-02 1.400000e-02
      vertex   8.378991e-02 2.900000e-02 2.800000e-02
      vertex   8.378991e-02 2.900000e-02 1.400000e-02
    endloop
  endfacet
  facet normal 1.000000e+00 0.000000e+00 0.000000e+00
    outer loop
      vertex   8.575443e-02 3.573397e-02 2.800000e-02
      vertex   8.575443e-02 2.900000e-02 2.800000e-02
      vertex   8.575443e-02 3.573397e-02 1.400000e-02
    endloop
  endfacet
  facet normal 1.000000e+00 0.000000e+00 0.000000e+00
    outer loop
      vertex   8.575443e-02 3.573397e-02 1.400000e-02
      vertex   8.575443e-02 2.900000e-02 2.800000e-02
      vertex   8.575443e-02 2.900000e-02 1.400000e-02
    endloop
  endfacet
  facet normal 8.386752e-01 -5.446319e-01 0.000000e+00
    outer loop
      vertex   8.656208e-02 3.833697e-02 2.800000e-02
      vertex   8.617911e-02 3.774724e-02 2.800000e-02
      vertex   8.656208e-02 3.833697e-02 1.400000e-02
    endloop
  endfacet
  facet normal 8.386752e-01 -5.446319e-01 0.000000e+00
    outer loop
      vertex   8.656208e-02 3.833697e-02 1.400000e-02
      vertex   8.617911e-02 3.774724e-02 2.800000e-02
      vertex   8.617911e-02 3.774724e-02 1.400000e-02
    endloop
  endfacet
  facet normal 8.894701e-01 -4.569933e-01 0.000000e+00
    outer loop
      vertex   8.617911e-02 3.774724e-02 1.400000e-02
      vertex   8.617911e-02 3.774724e-02 2.800000e-02
      vertex   8.602171e-02 3.744089e-02 2.800000e-02
    endloop
  endfacet
  facet normal 8.894701e-01 -4.569933e-01 0.000000e+00
    outer loop
      vertex   8.617911e-02 3.774724e-02 1.400000e-02
      vertex   8.602171e-02 3.744089e-02 2.800000e-02
      vertex   8.602171e-02 3.744089e-02 1.400000e-02
    endloop
  endfacet
  facet normal 9.392105e-01 -3.433420e-01 0.000000e+00
    outer loop
      vertex   8.602171e-02 3.744089e-02 1.400000e-02
      vertex   8.602171e-02 3.744089e-02 2.800000e-02
      vertex   8.590474e-02 3.712091e-02 2.800000e-02
    endloop
  endfacet
  facet normal 9.392105e-01 -3.433420e-01 0.000000e+00
    outer loop
      vertex   8.602171e-02 3.744089e-02 1.400000e-02
      vertex   8.590474e-02 3.712091e-02 2.800000e-02
      vertex   8.590474e-02 3.712091e-02 1.400000e-02
    endloop
  endfacet
  facet normal 9.852904e-01 -1.708884e-01 0.000000e+00
    outer loop
      vertex   8.590474e-02 3.712091e-02 1.400000e-02
      vertex   8.590474e-02 3.712091e-02 2.800000e-02
      vertex   8.578696e-02 3.644181e-02 2.800000e-02
    endloop
  endfacet
  facet normal 9.852904e-01 -1.708884e-01 0.000000e+00
    outer loop
      vertex   8.590474e-02 3.712091e-02 1.400000e-02
      vertex   8.578696e-02 3.644181e-02 2.800000e-02
      vertex   8.578696e-02 3.644181e-02 1.400000e-02
    endloop
  endfacet
  facet normal 9.989462e-01 -4.589741e-02 0.000000e+00
    outer loop
      vertex   8.578696e-02 3.644181e-02 1.400000e-02
      vertex   8.578696e-02 3.644181e-02 2.800000e-02
      vertex   8.575443e-02 3.573397e-02 2.800000e-02
    endloop
  endfacet
  facet normal 9.989462e-01 -4.589741e-02 0.000000e+00
    outer loop
      vertex   8.578696e-02 3.644181e-02 1.400000e-02
      vertex   8.575443e-02 3.573397e-02 2.800000e-02
      vertex   8.575443e-02 3.573397e-02 1.400000e-02
    endloop
  endfacet
  facet normal 1.039309e-01 -9.945845e-01 0.000000e+00
    outer loop
      vertex   8.859209e-02 3.915007e-02 2.800000e-02
      vertex   8.802622e-02 3.909094e-02 2.800000e-02
      vertex   8.859209e-02 3.915007e-02 1.400000e-02
    endloop
  endfacet
  facet normal 1.039309e-01 -9.945845e-01 0.000000e+00
    outer loop
      vertex   8.859209e-02 3.915007e-02 1.400000e-02
      vertex   8.802622e-02 3.909094e-02 2.800000e-02
      vertex   8.802622e-02 3.909094e-02 1.400000e-02
    endloop
  endfacet
  facet normal 2.478730e-01 -9.687925e-01 0.000000e+00
    outer loop
      vertex   8.802622e-02 3.909094e-02 1.400000e-02
      vertex   8.802622e-02 3.909094e-02 2.800000e-02
      vertex   8.749178e-02 3.895419e-02 2.800000e-02
    endloop
  endfacet
  facet normal 2.478730e-01 -9.687925e-01 0.000000e+00
    outer loop
      vertex   8.802622e-02 3.909094e-02 1.400000e-02
      vertex   8.749178e-02 3.895419e-02 2.800000e-02
      vertex   8.749178e-02 3.895419e-02 1.400000e-02
    endloop
  endfacet
  facet normal 4.871325e-01 -8.733281e-01 0.000000e+00
    outer loop
      vertex   8.749178e-02 3.895419e-02 1.400000e-02
      vertex   8.749178e-02 3.895419e-02 2.800000e-02
      vertex   8.701063e-02 3.868582e-02 2.800000e-02
    endloop
  endfacet
  facet normal 4.871325e-01 -8.733281e-01 0.000000e+00
    outer loop
      vertex   8.749178e-02 3.895419e-02 1.400000e-02
      vertex   8.701063e-02 3.868582e-02 2.800000e-02
      vertex   8.701063e-02 3.868582e-02 1.400000e-02
    endloop
  endfacet
  facet normal 6.139086e-01 -7.893771e-01 0.000000e+00
    outer loop
      vertex   8.701063e-02 3.868582e-02 1.400000e-02
      vertex   8.701063e-02 3.868582e-02 2.800000e-02
      vertex   8.656208e-02 3.833697e-02 2.800000e-02
    endloop
  endfacet
  facet normal 6.139086e-01 -7.893771e-01 0.000000e+00
    outer loop
      vertex   8.701063e-02 3.868582e-02 1.400000e-02
      vertex   8.656208e-02 3.833697e-02 2.800000e-02
      vertex   8.656208e-02 3.833697e-02 1.400000e-02
    endloop
  endfacet
  facet normal -4.436985e-01 -8.961761e-01 0.000000e+00
    outer loop
      vertex   8.977080e-02 3.883356e-02 1.400000e-02
      vertex   8.977080e-02 3.883356e-02 2.800000e-02
      vertex   8.949223e-02 3.897148e-02 2.100000e-02
    endloop
  endfacet
  facet normal -4.436985e-01 -8.961761e-01 -8.702600e-18
    outer loop
      vertex   8.949223e-02 3.897148e-02 2.100000e-02
      vertex   8.977080e-02 3.883356e-02 2.800000e-02
      vertex   8.949223e-02 3.897148e-02 2.800000e-02
    endloop
  endfacet
  facet normal -3.429877e-01 -9.393399e-01 -2.511528e-16
    outer loop
      vertex   8.949223e-02 3.897148e-02 2.100000e-02
      vertex   8.949223e-02 3.897148e-02 2.800000e-02
      vertex   8.920464e-02 3.907649e-02 2.800000e-02
    endloop
  endfacet
  facet normal -3.429877e-01 -9.393399e-01 0.000000e+00
    outer loop
      vertex   8.949223e-02 3.897148e-02 2.100000e-02
      vertex   8.920464e-02 3.907649e-02 2.800000e-02
      vertex   8.920464e-02 3.907649e-02 2.100000e-02
    endloop
  endfacet
  facet normal -1.700948e-01 -9.854277e-01 0.000000e+00
    outer loop
      vertex   8.920464e-02 3.907649e-02 2.100000e-02
      vertex   8.920464e-02 3.907649e-02 2.800000e-02
      vertex   8.890257e-02 3.912863e-02 2.800000e-02
    endloop
  endfacet
  facet normal -1.700948e-01 -9.854277e-01 -3.361514e-16
    outer loop
      vertex   8.920464e-02 3.907649e-02 2.100000e-02
      vertex   8.890257e-02 3.912863e-02 2.800000e-02
      vertex   8.890257e-02 3.912863e-02 2.100000e-02
    endloop
  endfacet
  facet normal -6.887141e-02 -9.976255e-01 -1.365404e-16
    outer loop
      vertex   8.890257e-02 3.912863e-02 2.100000e-02
      vertex   8.890257e-02 3.912863e-02 2.800000e-02
      vertex   8.859209e-02 3.915007e-02 2.800000e-02
    endloop
  endfacet
  facet normal -6.887141e-02 -9.976255e-01 0.000000e+00
    outer loop
      vertex   8.890257e-02 3.912863e-02 2.100000e-02
      vertex   8.859209e-02 3.915007e-02 2.800000e-02
      vertex   8.859209e-02 3.915007e-02 1.400000e-02
    endloop
  endfacet
  facet normal -6.887141e-02 -9.976255e-01 1.366903e-16
    outer loop
      vertex   8.859209e-02 3.915007e-02 1.400000e-02
      vertex   8.890257e-02 3.912863e-02 1.400000e-02
      vertex   8.890257e-02 3.912863e-02 2.100000e-02
    endloop
  endfacet
  facet normal -1.700948e-01 -9.854277e-01 3.372199e-16
    outer loop
      vertex   8.890257e-02 3.912863e-02 2.100000e-02
      vertex   8.890257e-02 3.912863e-02 1.400000e-02
      vertex   8.920464e-02 3.907649e-02 1.400000e-02
    endloop
  endfacet
  facet normal -1.700948e-01 -9.854277e-01 0.000000e+00
    outer loop
      vertex   8.890257e-02 3.912863e-02 2.100000e-02
      vertex   8.920464e-02 3.907649e-02 1.400000e-02
      vertex   8.920464e-02 3.907649e-02 2.100000e-02
    endloop
  endfacet
  facet normal -3.429877e-01 -9.393399e-01 -0.000000e+00
    outer loop
      vertex   8.920464e-02 3.907649e-02 2.100000e-02
      vertex   8.920464e-02 3.907649e-02 1.400000e-02
      vertex   8.949223e-02 3.897148e-02 1.400000e-02
    endloop
  endfacet
  facet normal -3.429877e-01 -9.393399e-01 2.501069e-16
    outer loop
      vertex   8.920464e-02 3.907649e-02 2.100000e-02
      vertex   8.949223e-02 3.897148e-02 1.400000e-02
      vertex   8.949223e-02 3.897148e-02 2.100000e-02
    endloop
  endfacet
  facet normal -4.436985e-01 -8.961761e-01 8.702600e-18
    outer loop
      vertex   8.949223e-02 3.897148e-02 2.100000e-02
      vertex   8.949223e-02 3.897148e-02 1.400000e-02
      vertex   8.977080e-02 3.883356e-02 1.400000e-02
    endloop
  endfacet
  facet normal -8.951036e-01 -4.458581e-01 0.000000e+00
    outer loop
      vertex   9.046385e-02 3.799863e-02 1.400000e-02
      vertex   9.046385e-02 3.799863e-02 2.800000e-02
      vertex   9.033971e-02 3.824786e-02 2.100000e-02
    endloop
  endfacet
  facet normal -8.951036e-01 -4.458581e-01 3.991126e-15
    outer loop
      vertex   9.033971e-02 3.824786e-02 2.100000e-02
      vertex   9.046385e-02 3.799863e-02 2.800000e-02
      vertex   9.033971e-02 3.824786e-02 2.800000e-02
    endloop
  endfacet
  facet normal -8.318679e-01 -5.549736e-01 3.848554e-15
    outer loop
      vertex   9.033971e-02 3.824786e-02 2.100000e-02
      vertex   9.033971e-02 3.824786e-02 2.800000e-02
      vertex   9.018838e-02 3.847469e-02 2.800000e-02
    endloop
  endfacet
  facet normal -8.318679e-01 -5.549736e-01 0.000000e+00
    outer loop
      vertex   9.033971e-02 3.824786e-02 2.100000e-02
      vertex   9.018838e-02 3.847469e-02 2.800000e-02
      vertex   9.018838e-02 3.847469e-02 2.100000e-02
    endloop
  endfacet
  facet normal -6.969545e-01 -7.171154e-01 0.000000e+00
    outer loop
      vertex   9.018838e-02 3.847469e-02 2.100000e-02
      vertex   9.018838e-02 3.847469e-02 2.800000e-02
      vertex   8.999267e-02 3.866490e-02 2.800000e-02
    endloop
  endfacet
  facet normal -6.969545e-01 -7.171154e-01 -2.092127e-15
    outer loop
      vertex   9.018838e-02 3.847469e-02 2.100000e-02
      vertex   8.999267e-02 3.866490e-02 2.800000e-02
      vertex   8.999267e-02 3.866490e-02 2.100000e-02
    endloop
  endfacet
  facet normal -6.051833e-01 -7.960862e-01 -1.988938e-15
    outer loop
      vertex   8.999267e-02 3.866490e-02 2.100000e-02
      vertex   8.999267e-02 3.866490e-02 2.800000e-02
      vertex   8.977080e-02 3.883356e-02 2.800000e-02
    endloop
  endfacet
  facet normal -6.051833e-01 -7.960862e-01 0.000000e+00
    outer loop
      vertex   8.999267e-02 3.866490e-02 2.100000e-02
      vertex   8.977080e-02 3.883356e-02 2.800000e-02
      vertex   8.977080e-02 3.883356e-02 1.400000e-02
    endloop
  endfacet
  facet normal -6.051833e-01 -7.960862e-01 1.991167e-15
    outer loop
      vertex   8.977080e-02 3.883356e-02 1.400000e-02
      vertex   8.999267e-02 3.866490e-02 1.400000e-02
      vertex   8.999267e-02 3.866490e-02 2.100000e-02
    endloop
  endfacet
  facet normal -6.969545e-01 -7.171154e-01 2.092596e-15
    outer loop
      vertex   8.999267e-02 3.866490e-02 2.100000e-02
      vertex   8.999267e-02 3.866490e-02 1.400000e-02
      vertex   9.018838e-02 3.847469e-02 1.400000e-02
    endloop
  endfacet
  facet normal -6.969545e-01 -7.171154e-01 0.000000e+00
    outer loop
      vertex   8.999267e-02 3.866490e-02 2.100000e-02
      vertex   9.018838e-02 3.847469e-02 1.400000e-02
      vertex   9.018838e-02 3.847469e-02 2.100000e-02
    endloop
  endfacet
  facet normal -8.318679e-01 -5.549736e-01 -0.000000e+00
    outer loop
      vertex   9.018838e-02 3.847469e-02 2.100000e-02
      vertex   9.018838e-02 3.847469e-02 1.400000e-02
      vertex   9.033971e-02 3.824786e-02 1.400000e-02
    endloop
  endfacet
  facet normal -8.318679e-01 -5.549736e-01 -3.848457e-15
    outer loop
      vertex   9.018838e-02 3.847469e-02 2.100000e-02
      vertex   9.033971e-02 3.824786e-02 1.400000e-02
      vertex   9.033971e-02 3.824786e-02 2.100000e-02
    endloop
  endfacet
  facet normal -8.951036e-01 -4.458581e-01 -3.991126e-15
    outer loop
      vertex   9.033971e-02 3.824786e-02 2.100000e-02
      vertex   9.033971e-02 3.824786e-02 1.400000e-02
      vertex   9.046385e-02 3.799863e-02 1.400000e-02
    endloop
  endfacet
  facet normal -9.999635e-01 -8.547198e-03 -0.000000e+00
    outer loop
      vertex   9.065484e-02 3.630150e-02 2.800000e-02
      vertex   9.065117e-02 3.673140e-02 2.800000e-02
      vertex   9.065484e-02 3.630150e-02 1.400000e-02
    endloop
  endfacet
  facet normal -9.999635e-01 -8.547198e-03 0.000000e+00
    outer loop
      vertex   9.065484e-02 3.630150e-02 1.400000e-02
      vertex   9.065117e-02 3.673140e-02 2.800000e-02
      vertex   9.065117e-02 3.673140e-02 1.400000e-02
    endloop
  endfacet
  facet normal -9.982779e-01 -5.866232e-02 0.000000e+00
    outer loop
      vertex   9.065117e-02 3.673140e-02 1.400000e-02
      vertex   9.065117e-02 3.673140e-02 2.800000e-02
      vertex   9.062607e-02 3.715857e-02 2.800000e-02
    endloop
  endfacet
  facet normal -9.982779e-01 -5.866232e-02 0.000000e+00
    outer loop
      vertex   9.065117e-02 3.673140e-02 1.400000e-02
      vertex   9.062607e-02 3.715857e-02 2.800000e-02
      vertex   9.062607e-02 3.715857e-02 1.400000e-02
    endloop
  endfacet
  facet normal -9.880745e-01 -1.539767e-01 0.000000e+00
    outer loop
      vertex   9.062607e-02 3.715857e-02 1.400000e-02
      vertex   9.062607e-02 3.715857e-02 2.800000e-02
      vertex   9.056030e-02 3.758056e-02 2.800000e-02
    endloop
  endfacet
  facet normal -9.880745e-01 -1.539767e-01 0.000000e+00
    outer loop
      vertex   9.062607e-02 3.715857e-02 1.400000e-02
      vertex   9.056030e-02 3.758056e-02 2.800000e-02
      vertex   9.056030e-02 3.758056e-02 1.400000e-02
    endloop
  endfacet
  facet normal -9.744030e-01 -2.248083e-01 0.000000e+00
    outer loop
      vertex   9.056030e-02 3.758056e-02 1.400000e-02
      vertex   9.056030e-02 3.758056e-02 2.800000e-02
      vertex   9.046385e-02 3.799863e-02 2.800000e-02
    endloop
  endfacet
  facet normal -9.744030e-01 -2.248083e-01 0.000000e+00
    outer loop
      vertex   9.056030e-02 3.758056e-02 1.400000e-02
      vertex   9.046385e-02 3.799863e-02 2.800000e-02
      vertex   9.046385e-02 3.799863e-02 1.400000e-02
    endloop
  endfacet
  facet normal -1.000000e+00 0.000000e+00 0.000000e+00
    outer loop
      vertex   9.065484e-02 2.900000e-02 2.800000e-02
      vertex   9.065484e-02 3.630150e-02 2.800000e-02
      vertex   9.065484e-02 2.900000e-02 1.400000e-02
    endloop
  endfacet
  facet normal -1.000000e+00 0.000000e+00 0.000000e+00
    outer loop
      vertex   9.065484e-02 2.900000e-02 1.400000e-02
      vertex   9.065484e-02 3.630150e-02 2.800000e-02
      vertex   9.065484e-02 3.630150e-02 1.400000e-02
    endloop
  endfacet
  facet normal -0.000000e+00 -1.000000e+00 -0.000000e+00
    outer loop
      vertex   9.260846e-02 2.900000e-02 2.800000e-02
      vertex   9.065484e-02 2.900000e-02 2.800000e-02
      vertex   9.260846e-02 2.900000e-02 1.400000e-02
    endloop
  endfacet
  facet normal 0.000000e+00 -1.000000e+00 0.000000e+00
    outer loop
      vertex   9.260846e-02 2.900000e-02 1.400000e-02
      vertex   9.065484e-02 2.900000e-02 2.800000e-02
      vertex   9.065484e-02 2.900000e-02 1.400000e-02
    endloop
  endfacet
  facet normal 1.000000e+00 0.000000e+00 0.000000e+00
    outer loop
      vertex   9.260846e-02 3.695634e-02 2.800000e-02
      vertex   9.260846e-02 2.900000e-02 2.800000e-02
      vertex   9.260846e-02 3.695634e-02 1.400000e-02
    endloop
  endfacet
  facet normal 1.000000e+00 0.000000e+00 0.000000e+00
    outer loop
      vertex   9.260846e-02 3.695634e-02 1.400000e-02
      vertex   9.260846e-02 2.900000e-02 2.800000e-02
      vertex   9.260846e-02 2.900000e-02 1.400000e-02
    endloop
  endfacet
  facet normal 8.377382e-01 5.460721e-01 0.000000e+00
    outer loop
      vertex   9.168077e-02 3.989768e-02 2.800000e-02
      vertex   9.211528e-02 3.923108e-02 2.800000e-02
      vertex   9.168077e-02 3.989768e-02 1.400000e-02
    endloop
  endfacet
  facet normal 8.377382e-01 5.460721e-01 0.000000e+00
    outer loop
      vertex   9.168077e-02 3.989768e-02 1.400000e-02
      vertex   9.211528e-02 3.923108e-02 2.800000e-02
      vertex   9.211528e-02 3.923108e-02 1.400000e-02
    endloop
  endfacet
  facet normal 8.876671e-01 4.604858e-01 -0.000000e+00
    outer loop
      vertex   9.211528e-02 3.923108e-02 1.400000e-02
      vertex   9.211528e-02 3.923108e-02 2.800000e-02
      vertex   9.229482e-02 3.888499e-02 2.800000e-02
    endloop
  endfacet
  facet normal 8.876671e-01 4.604858e-01 0.000000e+00
    outer loop
      vertex   9.211528e-02 3.923108e-02 1.400000e-02
      vertex   9.229482e-02 3.888499e-02 2.800000e-02
      vertex   9.229482e-02 3.888499e-02 1.400000e-02
    endloop
  endfacet
  facet normal 9.370342e-01 3.492375e-01 -0.000000e+00
    outer loop
      vertex   9.229482e-02 3.888499e-02 1.400000e-02
      vertex   9.229482e-02 3.888499e-02 2.800000e-02
      vertex   9.242949e-02 3.852367e-02 2.800000e-02
    endloop
  endfacet
  facet normal 9.370342e-01 3.492375e-01 0.000000e+00
    outer loop
      vertex   9.229482e-02 3.888499e-02 1.400000e-02
      vertex   9.242949e-02 3.852367e-02 2.800000e-02
      vertex   9.242949e-02 3.852367e-02 1.400000e-02
    endloop
  endfacet
  facet normal 9.744077e-01 2.247878e-01 -0.000000e+00
    outer loop
      vertex   9.242949e-02 3.852367e-02 1.400000e-02
      vertex   9.242949e-02 3.852367e-02 2.800000e-02
      vertex   9.251657e-02 3.814620e-02 2.800000e-02
    endloop
  endfacet
  facet normal 9.744077e-01 2.247878e-01 0.000000e+00
    outer loop
      vertex   9.242949e-02 3.852367e-02 1.400000e-02
      vertex   9.251657e-02 3.814620e-02 2.800000e-02
      vertex   9.251657e-02 3.814620e-02 1.400000e-02
    endloop
  endfacet
  facet normal 9.916164e-01 1.292165e-01 -0.000000e+00
    outer loop
      vertex   9.251657e-02 3.814620e-02 1.400000e-02
      vertex   9.251657e-02 3.814620e-02 2.800000e-02
      vertex   9.256736e-02 3.775642e-02 2.800000e-02
    endloop
  endfacet
  facet normal 9.916164e-01 1.292165e-01 0.000000e+00
    outer loop
      vertex   9.251657e-02 3.814620e-02 1.400000e-02
      vertex   9.256736e-02 3.775642e-02 2.800000e-02
      vertex   9.256736e-02 3.775642e-02 1.400000e-02
    endloop
  endfacet
  facet normal 9.986828e-01 5.130900e-02 -0.000000e+00
    outer loop
      vertex   9.256736e-02 3.775642e-02 1.400000e-02
      vertex   9.256736e-02 3.775642e-02 2.800000e-02
      vertex   9.260846e-02 3.695634e-02 2.800000e-02
    endloop
  endfacet
  facet normal 9.986828e-01 5.130900e-02 0.000000e+00
    outer loop
      vertex   9.256736e-02 3.775642e-02 1.400000e-02
      vertex   9.260846e-02 3.695634e-02 2.800000e-02
      vertex   9.260846e-02 3.695634e-02 1.400000e-02
    endloop
  endfacet
  facet normal 7.301330e-02 9.973310e-01 0.000000e+00
    outer loop
      vertex   8.902865e-02 4.085266e-02 2.800000e-02
      vertex   8.976150e-02 4.079901e-02 2.800000e-02
      vertex   8.902865e-02 4.085266e-02 1.400000e-02
    endloop
  endfacet
  facet normal 7.301330e-02 9.973310e-01 0.000000e+00
    outer loop
      vertex   8.902865e-02 4.085266e-02 1.400000e-02
      vertex   8.976150e-02 4.079901e-02 2.800000e-02
      vertex   8.976150e-02 4.079901e-02 1.400000e-02
    endloop
  endfacet
  facet normal 1.580856e-01 9.874254e-01 -0.000000e+00
    outer loop
      vertex   8.976150e-02 4.079901e-02 1.400000e-02
      vertex   8.976150e-02 4.079901e-02 2.800000e-02
      vertex   9.011660e-02 4.074216e-02 2.800000e-02
    endloop
  endfacet
  facet normal 1.580856e-01 9.874254e-01 0.000000e+00
    outer loop
      vertex   8.976150e-02 4.079901e-02 1.400000e-02
      vertex   9.011660e-02 4.074216e-02 2.800000e-02
      vertex   9.011660e-02 4.074216e-02 1.400000e-02
    endloop
  endfacet
  facet normal 2.624415e-01 9.649479e-01 -0.000000e+00
    outer loop
      vertex   9.011660e-02 4.074216e-02 1.400000e-02
      vertex   9.011660e-02 4.074216e-02 2.800000e-02
      vertex   9.045811e-02 4.064928e-02 2.800000e-02
    endloop
  endfacet
  facet normal 2.624415e-01 9.649479e-01 0.000000e+00
    outer loop
      vertex   9.011660e-02 4.074216e-02 1.400000e-02
      vertex   9.045811e-02 4.064928e-02 2.800000e-02
      vertex   9.045811e-02 4.064928e-02 1.400000e-02
    endloop
  endfacet
  facet normal 3.951940e-01 9.185977e-01 -0.000000e+00
    outer loop
      vertex   9.045811e-02 4.064928e-02 1.400000e-02
      vertex   9.045811e-02 4.064928e-02 2.800000e-02
      vertex   9.078208e-02 4.050990e-02 2.800000e-02
    endloop
  endfacet
  facet normal 3.951940e-01 9.185977e-01 0.000000e+00
    outer loop
      vertex   9.045811e-02 4.064928e-02 1.400000e-02
      vertex   9.078208e-02 4.050990e-02 2.800000e-02
      vertex   9.078208e-02 4.050990e-02 1.400000e-02
    endloop
  endfacet
  facet normal 5.061483e-01 8.624464e-01 -0.000000e+00
    outer loop
      vertex   9.078208e-02 4.050990e-02 1.400000e-02
      vertex   9.078208e-02 4.050990e-02 2.800000e-02
      vertex   9.109037e-02 4.032897e-02 2.800000e-02
    endloop
  endfacet
  facet normal 5.061483e-01 8.624464e-01 0.000000e+00
    outer loop
      vertex   9.078208e-02 4.050990e-02 1.400000e-02
      vertex   9.109037e-02 4.032897e-02 2.800000e-02
      vertex   9.109037e-02 4.032897e-02 1.400000e-02
    endloop
  endfacet
  facet normal 5.898810e-01 8.074902e-01 -0.000000e+00
    outer loop
      vertex   9.109037e-02 4.032897e-02 1.400000e-02
      vertex   9.109037e-02 4.032897e-02 2.800000e-02
      vertex   9.168077e-02 3.989768e-02 2.800000e-02
    endloop
  endfacet
  facet normal 5.898810e-01 8.074902e-01 0.000000e+00
    outer loop
      vertex   9.109037e-02 4.032897e-02 1.400000e-02
      vertex   9.168077e-02 3.989768e-02 2.800000e-02
      vertex   9.168077e-02 3.989768e-02 1.400000e-02
    endloop
  endfacet
  facet normal -7.584438e-01 6.517385e-01 0.000000e+00
    outer loop
      vertex   8.544884e-02 3.882265e-02 2.800000e-02
      vertex   8.616353e-02 3.965435e-02 2.800000e-02
      vertex   8.544884e-02 3.882265e-02 1.400000e-02
    endloop
  endfacet
  facet normal -7.584438e-01 6.517385e-01 0.000000e+00
    outer loop
      vertex   8.544884e-02 3.882265e-02 1.400000e-02
      vertex   8.616353e-02 3.965435e-02 2.800000e-02
      vertex   8.616353e-02 3.965435e-02 1.400000e-02
    endloop
  endfacet
  facet normal -6.825769e-01 7.308138e-01 0.000000e+00
    outer loop
      vertex   8.616353e-02 3.965435e-02 1.400000e-02
      vertex   8.616353e-02 3.965435e-02 2.800000e-02
      vertex   8.655092e-02 4.001617e-02 2.800000e-02
    endloop
  endfacet
  facet normal -6.825769e-01 7.308138e-01 0.000000e+00
    outer loop
      vertex   8.616353e-02 3.965435e-02 1.400000e-02
      vertex   8.655092e-02 4.001617e-02 2.800000e-02
      vertex   8.655092e-02 4.001617e-02 1.400000e-02
    endloop
  endfacet
  facet normal -5.742047e-01 8.187118e-01 0.000000e+00
    outer loop
      vertex   8.655092e-02 4.001617e-02 1.400000e-02
      vertex   8.655092e-02 4.001617e-02 2.800000e-02
      vertex   8.697436e-02 4.031315e-02 2.800000e-02
    endloop
  endfacet
  facet normal -5.742047e-01 8.187118e-01 0.000000e+00
    outer loop
      vertex   8.655092e-02 4.001617e-02 1.400000e-02
      vertex   8.697436e-02 4.031315e-02 2.800000e-02
      vertex   8.697436e-02 4.031315e-02 1.400000e-02
    endloop
  endfacet
  facet normal -4.176637e-01 9.086017e-01 0.000000e+00
    outer loop
      vertex   8.697436e-02 4.031315e-02 1.400000e-02
      vertex   8.697436e-02 4.031315e-02 2.800000e-02
      vertex   8.744312e-02 4.052863e-02 2.800000e-02
    endloop
  endfacet
  facet normal -4.176637e-01 9.086017e-01 0.000000e+00
    outer loop
      vertex   8.697436e-02 4.031315e-02 1.400000e-02
      vertex   8.744312e-02 4.052863e-02 2.800000e-02
      vertex   8.744312e-02 4.052863e-02 1.400000e-02
    endloop
  endfacet
  facet normal -2.773342e-01 9.607735e-01 0.000000e+00
    outer loop
      vertex   8.744312e-02 4.052863e-02 1.400000e-02
      vertex   8.744312e-02 4.052863e-02 2.800000e-02
      vertex   8.795029e-02 4.067502e-02 2.800000e-02
    endloop
  endfacet
  facet normal -2.773342e-01 9.607735e-01 0.000000e+00
    outer loop
      vertex   8.744312e-02 4.052863e-02 1.400000e-02
      vertex   8.795029e-02 4.067502e-02 2.800000e-02
      vertex   8.795029e-02 4.067502e-02 1.400000e-02
    endloop
  endfacet
  facet normal -1.625372e-01 9.867024e-01 0.000000e+00
    outer loop
      vertex   8.795029e-02 4.067502e-02 1.400000e-02
      vertex   8.795029e-02 4.067502e-02 2.800000e-02
      vertex   8.902865e-02 4.085266e-02 2.800000e-02
    endloop
  endfacet
  facet normal -1.625372e-01 9.867024e-01 0.000000e+00
    outer loop
      vertex   8.795029e-02 4.067502e-02 1.400000e-02
      vertex   8.902865e-02 4.085266e-02 2.800000e-02
      vertex   8.902865e-02 4.085266e-02 1.400000e-02
    endloop
  endfacet
  facet normal 6.283391e-01 7.779395e-01 0.000000e+00
    outer loop
      vertex   8.428650e-02 4.031787e-02 2.800000e-02
      vertex   8.466469e-02 4.001240e-02 2.800000e-02
      vertex   8.428650e-02 4.031787e-02 1.400000e-02
    endloop
  endfacet
  facet normal 6.283391e-01 7.779395e-01 0.000000e+00
    outer loop
      vertex   8.428650e-02 4.031787e-02 1.400000e-02
      vertex   8.466469e-02 4.001240e-02 2.800000e-02
      vertex   8.466469e-02 4.001240e-02 1.400000e-02
    endloop
  endfacet
  facet normal 7.205717e-01 6.933804e-01 -0.000000e+00
    outer loop
      vertex   8.466469e-02 4.001240e-02 1.400000e-02
      vertex   8.466469e-02 4.001240e-02 2.800000e-02
      vertex   8.499476e-02 3.966939e-02 2.800000e-02
    endloop
  endfacet
  facet normal 7.205717e-01 6.933804e-01 0.000000e+00
    outer loop
      vertex   8.466469e-02 4.001240e-02 1.400000e-02
      vertex   8.499476e-02 3.966939e-02 2.800000e-02
      vertex   8.499476e-02 3.966939e-02 1.400000e-02
    endloop
  endfacet
  facet normal 8.503116e-01 5.262796e-01 -0.000000e+00
    outer loop
      vertex   8.499476e-02 3.966939e-02 1.400000e-02
      vertex   8.499476e-02 3.966939e-02 2.800000e-02
      vertex   8.524540e-02 3.926443e-02 2.800000e-02
    endloop
  endfacet
  facet normal 8.503116e-01 5.262796e-01 0.000000e+00
    outer loop
      vertex   8.499476e-02 3.966939e-02 1.400000e-02
      vertex   8.524540e-02 3.926443e-02 2.800000e-02
      vertex   8.524540e-02 3.926443e-02 1.400000e-02
    endloop
  endfacet
  facet normal 9.083172e-01 4.182820e-01 -0.000000e+00
    outer loop
      vertex   8.524540e-02 3.926443e-02 1.400000e-02
      vertex   8.524540e-02 3.926443e-02 2.800000e-02
      vertex   8.544884e-02 3.882265e-02 2.800000e-02
    endloop
  endfacet
  facet normal 9.083172e-01 4.182820e-01 0.000000e+00
    outer loop
      vertex   8.524540e-02 3.926443e-02 1.400000e-02
      vertex   8.544884e-02 3.882265e-02 2.800000e-02
      vertex   8.544884e-02 3.882265e-02 1.400000e-02
    endloop
  endfacet
  facet normal 5.428790e-02 9.985253e-01 0.000000e+00
    outer loop
      vertex   8.217463e-02 4.085266e-02 2.800000e-02
      vertex   8.272996e-02 4.082247e-02 2.800000e-02
      vertex   8.217463e-02 4.085266e-02 1.400000e-02
    endloop
  endfacet
  facet normal 5.428790e-02 9.985253e-01 0.000000e+00
    outer loop
      vertex   8.217463e-02 4.085266e-02 1.400000e-02
      vertex   8.272996e-02 4.082247e-02 2.800000e-02
      vertex   8.272996e-02 4.082247e-02 1.400000e-02
    endloop
  endfacet
  facet normal 1.533111e-01 9.881780e-01 -0.000000e+00
    outer loop
      vertex   8.272996e-02 4.082247e-02 1.400000e-02
      vertex   8.272996e-02 4.082247e-02 2.800000e-02
      vertex   8.327108e-02 4.073852e-02 2.800000e-02
    endloop
  endfacet
  facet normal 1.533111e-01 9.881780e-01 0.000000e+00
    outer loop
      vertex   8.272996e-02 4.082247e-02 1.400000e-02
      vertex   8.327108e-02 4.073852e-02 2.800000e-02
      vertex   8.327108e-02 4.073852e-02 1.400000e-02
    endloop
  endfacet
  facet normal 3.283287e-01 9.445635e-01 -0.000000e+00
    outer loop
      vertex   8.327108e-02 4.073852e-02 1.400000e-02
      vertex   8.327108e-02 4.073852e-02 2.800000e-02
      vertex   8.378698e-02 4.055919e-02 2.800000e-02
    endloop
  endfacet
  facet normal 3.283287e-01 9.445635e-01 0.000000e+00
    outer loop
      vertex   8.327108e-02 4.073852e-02 1.400000e-02
      vertex   8.378698e-02 4.055919e-02 2.800000e-02
      vertex   8.378698e-02 4.055919e-02 1.400000e-02
    endloop
  endfacet
  facet normal 4.349992e-01 9.004308e-01 -0.000000e+00
    outer loop
      vertex   8.378698e-02 4.055919e-02 1.400000e-02
      vertex   8.378698e-02 4.055919e-02 2.800000e-02
      vertex   8.428650e-02 4.031787e-02 2.800000e-02
    endloop
  endfacet
  facet normal 4.349992e-01 9.004308e-01 0.000000e+00
    outer loop
      vertex   8.378698e-02 4.055919e-02 1.400000e-02
      vertex   8.428650e-02 4.031787e-02 2.800000e-02
      vertex   8.428650e-02 4.031787e-02 1.400000e-02
    endloop
  endfacet
  facet normal -4.151212e-01 9.097661e-01 0.000000e+00
    outer loop
      vertex   8.011187e-02 4.033424e-02 2.800000e-02
      vertex   8.060340e-02 4.055853e-02 2.800000e-02
      vertex   8.011187e-02 4.033424e-02 1.400000e-02
    endloop
  endfacet
  facet normal -4.151212e-01 9.097661e-01 0.000000e+00
    outer loop
      vertex   8.011187e-02 4.033424e-02 1.400000e-02
      vertex   8.060340e-02 4.055853e-02 2.800000e-02
      vertex   8.060340e-02 4.055853e-02 1.400000e-02
    endloop
  endfacet
  facet normal -3.217356e-01 9.468295e-01 0.000000e+00
    outer loop
      vertex   8.060340e-02 4.055853e-02 1.400000e-02
      vertex   8.060340e-02 4.055853e-02 2.800000e-02
      vertex   8.110838e-02 4.073012e-02 2.800000e-02
    endloop
  endfacet
  facet normal -3.217356e-01 9.468295e-01 0.000000e+00
    outer loop
      vertex   8.060340e-02 4.055853e-02 1.400000e-02
      vertex   8.110838e-02 4.073012e-02 2.800000e-02
      vertex   8.110838e-02 4.073012e-02 1.400000e-02
    endloop
  endfacet
  facet normal -1.615499e-01 9.868646e-01 0.000000e+00
    outer loop
      vertex   8.110838e-02 4.073012e-02 1.400000e-02
      vertex   8.110838e-02 4.073012e-02 2.800000e-02
      vertex   8.163514e-02 4.081635e-02 2.800000e-02
    endloop
  endfacet
  facet normal -1.615499e-01 9.868646e-01 0.000000e+00
    outer loop
      vertex   8.110838e-02 4.073012e-02 1.400000e-02
      vertex   8.163514e-02 4.081635e-02 2.800000e-02
      vertex   8.163514e-02 4.081635e-02 1.400000e-02
    endloop
  endfacet
  facet normal -6.715542e-02 9.977425e-01 0.000000e+00
    outer loop
      vertex   8.163514e-02 4.081635e-02 1.400000e-02
      vertex   8.163514e-02 4.081635e-02 2.800000e-02
      vertex   8.217463e-02 4.085266e-02 2.800000e-02
    endloop
  endfacet
  facet normal -6.715542e-02 9.977425e-01 0.000000e+00
    outer loop
      vertex   8.163514e-02 4.081635e-02 1.400000e-02
      vertex   8.217463e-02 4.085266e-02 2.800000e-02
      vertex   8.217463e-02 4.085266e-02 1.400000e-02
    endloop
  endfacet
  facet normal -7.978857e-01 6.028088e-01 0.000000e+00
    outer loop
      vertex   7.866030e-02 3.896453e-02 2.800000e-02
      vertex   7.896528e-02 3.936821e-02 2.800000e-02
      vertex   7.866030e-02 3.896453e-02 1.400000e-02
    endloop
  endfacet
  facet normal -7.978857e-01 6.028088e-01 0.000000e+00
    outer loop
      vertex   7.866030e-02 3.896453e-02 1.400000e-02
      vertex   7.896528e-02 3.936821e-02 2.800000e-02
      vertex   7.896528e-02 3.936821e-02 1.400000e-02
    endloop
  endfacet
  facet normal -7.396043e-01 6.730419e-01 0.000000e+00
    outer loop
      vertex   7.896528e-02 3.936821e-02 1.400000e-02
      vertex   7.896528e-02 3.936821e-02 2.800000e-02
      vertex   7.930204e-02 3.973827e-02 2.800000e-02
    endloop
  endfacet
  facet normal -7.396043e-01 6.730419e-01 0.000000e+00
    outer loop
      vertex   7.896528e-02 3.936821e-02 1.400000e-02
      vertex   7.930204e-02 3.973827e-02 2.800000e-02
      vertex   7.930204e-02 3.973827e-02 1.400000e-02
    endloop
  endfacet
  facet normal -6.284505e-01 7.778496e-01 0.000000e+00
    outer loop
      vertex   7.930204e-02 3.973827e-02 1.400000e-02
      vertex   7.930204e-02 3.973827e-02 2.800000e-02
      vertex   7.969133e-02 4.005279e-02 2.800000e-02
    endloop
  endfacet
  facet normal -6.284505e-01 7.778496e-01 0.000000e+00
    outer loop
      vertex   7.930204e-02 3.973827e-02 1.400000e-02
      vertex   7.969133e-02 4.005279e-02 2.800000e-02
      vertex   7.969133e-02 4.005279e-02 1.400000e-02
    endloop
  endfacet
  facet normal -5.561960e-01 8.310512e-01 0.000000e+00
    outer loop
      vertex   7.969133e-02 4.005279e-02 1.400000e-02
      vertex   7.969133e-02 4.005279e-02 2.800000e-02
      vertex   8.011187e-02 4.033424e-02 2.800000e-02
    endloop
  endfacet
  facet normal -5.561960e-01 8.310512e-01 0.000000e+00
    outer loop
      vertex   7.969133e-02 4.005279e-02 1.400000e-02
      vertex   8.011187e-02 4.033424e-02 2.800000e-02
      vertex   8.011187e-02 4.033424e-02 1.400000e-02
    endloop
  endfacet
  facet normal 1.000000e+00 0.000000e+00 0.000000e+00
    outer loop
      vertex   7.866030e-02 4.059072e-02 2.800000e-02
      vertex   7.866030e-02 3.896453e-02 2.800000e-02
      vertex   7.866030e-02 4.059072e-02 1.400000e-02
    endloop
  endfacet
  facet normal 1.000000e+00 0.000000e+00 0.000000e+00
    outer loop
      vertex   7.866030e-02 4.059072e-02 1.400000e-02
      vertex   7.866030e-02 3.896453e-02 2.800000e-02
      vertex   7.866030e-02 3.896453e-02 1.400000e-02
    endloop
  endfacet
  facet normal -0.000000e+00 1.000000e+00 0.000000e+00
    outer loop
      vertex   7.690314e-02 4.059072e-02 2.800000e-02
      vertex   7.866030e-02 4.059072e-02 2.800000e-02
      vertex   7.690314e-02 4.059072e-02 1.400000e-02
    endloop
  endfacet
  facet normal 0.000000e+00 1.000000e+00 0.000000e+00
    outer loop
      vertex   7.690314e-02 4.059072e-02 1.400000e-02
      vertex   7.866030e-02 4.059072e-02 2.800000e-02
      vertex   7.866030e-02 4.059072e-02 1.400000e-02
    endloop
  endfacet
  facet normal -1.000000e+00 0.000000e+00 0.000000e+00
    outer loop
      vertex   7.690314e-02 2.900000e-02 2.800000e-02
      vertex   7.690314e-02 4.059072e-02 2.800000e-02
      vertex   7.690314e-02 2.900000e-02 1.400000e-02
    endloop
  endfacet
  facet normal -1.000000e+00 0.000000e+00 0.000000e+00
    outer loop
      vertex   7.690314e-02 2.900000e-02 1.400000e-02
      vertex   7.690314e-02 4.059072e-02 2.800000e-02
      vertex   7.690314e-02 4.059072e-02 1.400000e-02
    endloop
  endfacet
  facet normal -0.000000e+00 -1.000000e+00 -0.000000e+00
    outer loop
      vertex   7.886767e-02 2.900000e-02 2.800000e-02
      vertex   7.690314e-02 2.900000e-02 2.800000e-02
      vertex   7.886767e-02 2.900000e-02 1.400000e-02
    endloop
  endfacet
  facet normal 0.000000e+00 -1.000000e+00 0.000000e+00
    outer loop
      vertex   7.886767e-02 2.900000e-02 1.400000e-02
      vertex   7.690314e-02 2.900000e-02 2.800000e-02
      vertex   7.690314e-02 2.900000e-02 1.400000e-02
    endloop
  endfacet
  facet normal 0.000000e+00 -0.000000e+00 1.000000e+00
    outer loop
      vertex   7.886767e-02 2.900000e-02 2.800000e-02
      vertex   7.886767e-02 3.501364e-02 2.800000e-02
      vertex   7.690314e-02 2.900000e-02 2.800000e-02
    endloop
  endfacet
  facet normal 0.000000e+00 0.000000e+00 1.000000e+00
    outer loop
      vertex   7.690314e-02 2.900000e-02 2.800000e-02
      vertex   7.886767e-02 3.501364e-02 2.800000e-02
      vertex   7.690314e-02 4.059072e-02 2.800000e-02
    endloop
  endfacet
  facet normal 0.000000e+00 0.000000e+00 1.000000e+00
    outer loop
      vertex   7.690314e-02 4.059072e-02 2.800000e-02
      vertex   7.886767e-02 3.501364e-02 2.800000e-02
      vertex   7.887847e-02 3.562914e-02 2.800000e-02
    endloop
  endfacet
  facet normal 0.000000e+00 0.000000e+00 1.000000e+00
    outer loop
      vertex   7.690314e-02 4.059072e-02 2.800000e-02
      vertex   7.887847e-02 3.562914e-02 2.800000e-02
      vertex   7.892330e-02 3.623977e-02 2.800000e-02
    endloop
  endfacet
  facet normal 0.000000e+00 -0.000000e+00 1.000000e+00
    outer loop
      vertex   7.892330e-02 3.623977e-02 2.800000e-02
      vertex   7.903128e-02 3.684138e-02 2.800000e-02
      vertex   7.690314e-02 4.059072e-02 2.800000e-02
    endloop
  endfacet
  facet normal 0.000000e+00 0.000000e+00 1.000000e+00
    outer loop
      vertex   7.690314e-02 4.059072e-02 2.800000e-02
      vertex   7.903128e-02 3.684138e-02 2.800000e-02
      vertex   7.866030e-02 3.896453e-02 2.800000e-02
    endloop
  endfacet
  facet normal -0.000000e+00 0.000000e+00 1.000000e+00
    outer loop
      vertex   7.690314e-02 4.059072e-02 2.800000e-02
      vertex   7.866030e-02 3.896453e-02 2.800000e-02
      vertex   7.866030e-02 4.059072e-02 2.800000e-02
    endloop
  endfacet
  facet normal 0.000000e+00 -0.000000e+00 1.000000e+00
    outer loop
      vertex   7.903128e-02 3.684138e-02 2.800000e-02
      vertex   7.918418e-02 3.743656e-02 2.800000e-02
      vertex   7.866030e-02 3.896453e-02 2.800000e-02
    endloop
  endfacet
  facet normal 2.230408e-14 7.647080e-15 1.000000e+00
    outer loop
      vertex   7.866030e-02 3.896453e-02 2.800000e-02
      vertex   7.918418e-02 3.743656e-02 2.800000e-02
      vertex   7.936544e-02 3.781527e-02 2.800000e-02
    endloop
  endfacet
  facet normal -1.117214e-14 -1.289243e-14 1.000000e+00
    outer loop
      vertex   7.866030e-02 3.896453e-02 2.800000e-02
      vertex   7.936544e-02 3.781527e-02 2.800000e-02
      vertex   7.958636e-02 3.816204e-02 2.800000e-02
    endloop
  endfacet
  facet normal -5.543441e-15 -6.397021e-15 1.000000e+00
    outer loop
      vertex   7.958636e-02 3.816204e-02 2.800000e-02
      vertex   7.987478e-02 3.845445e-02 2.800000e-02
      vertex   7.866030e-02 3.896453e-02 2.800000e-02
    endloop
  endfacet
  facet normal -2.168614e-15 1.638405e-15 1.000000e+00
    outer loop
      vertex   7.866030e-02 3.896453e-02 2.800000e-02
      vertex   7.987478e-02 3.845445e-02 2.800000e-02
      vertex   7.896528e-02 3.936821e-02 2.800000e-02
    endloop
  endfacet
  facet normal 4.229766e-15 8.007022e-15 1.000000e+00
    outer loop
      vertex   7.896528e-02 3.936821e-02 2.800000e-02
      vertex   7.987478e-02 3.845445e-02 2.800000e-02
      vertex   8.020464e-02 3.871351e-02 2.800000e-02
    endloop
  endfacet
  facet normal -0.000000e+00 0.000000e+00 1.000000e+00
    outer loop
      vertex   7.896528e-02 3.936821e-02 2.800000e-02
      vertex   8.020464e-02 3.871351e-02 2.800000e-02
      vertex   7.930204e-02 3.973827e-02 2.800000e-02
    endloop
  endfacet
  facet normal 0.000000e+00 0.000000e+00 1.000000e+00
    outer loop
      vertex   7.930204e-02 3.973827e-02 2.800000e-02
      vertex   8.020464e-02 3.871351e-02 2.800000e-02
      vertex   8.056661e-02 3.889774e-02 2.800000e-02
    endloop
  endfacet
  facet normal -0.000000e+00 0.000000e+00 1.000000e+00
    outer loop
      vertex   7.930204e-02 3.973827e-02 2.800000e-02
      vertex   8.056661e-02 3.889774e-02 2.800000e-02
      vertex   7.969133e-02 4.005279e-02 2.800000e-02
    endloop
  endfacet
  facet normal 0.000000e+00 0.000000e+00 1.000000e+00
    outer loop
      vertex   7.969133e-02 4.005279e-02 2.800000e-02
      vertex   8.056661e-02 3.889774e-02 2.800000e-02
      vertex   8.094025e-02 3.904101e-02 2.800000e-02
    endloop
  endfacet
  facet normal -0.000000e+00 0.000000e+00 1.000000e+00
    outer loop
      vertex   7.969133e-02 4.005279e-02 2.800000e-02
      vertex   8.094025e-02 3.904101e-02 2.800000e-02
      vertex   8.011187e-02 4.033424e-02 2.800000e-02
    endloop
  endfacet
  facet normal -5.462008e-15 -3.498676e-15 1.000000e+00
    outer loop
      vertex   8.011187e-02 4.033424e-02 2.800000e-02
      vertex   8.094025e-02 3.904101e-02 2.800000e-02
      vertex   8.060340e-02 4.055853e-02 2.800000e-02
    endloop
  endfacet
  facet normal 4.185090e-16 -2.193364e-15 1.000000e+00
    outer loop
      vertex   8.060340e-02 4.055853e-02 2.800000e-02
      vertex   8.094025e-02 3.904101e-02 2.800000e-02
      vertex   8.133333e-02 3.911601e-02 2.800000e-02
    endloop
  endfacet
  facet normal 6.559871e-15 9.142070e-16 1.000000e+00
    outer loop
      vertex   8.060340e-02 4.055853e-02 2.800000e-02
      vertex   8.133333e-02 3.911601e-02 2.800000e-02
      vertex   8.110838e-02 4.073012e-02 2.800000e-02
    endloop
  endfacet
  facet normal 0.000000e+00 0.000000e+00 1.000000e+00
    outer loop
      vertex   8.110838e-02 4.073012e-02 2.800000e-02
      vertex   8.133333e-02 3.911601e-02 2.800000e-02
      vertex   8.173806e-02 3.915007e-02 2.800000e-02
    endloop
  endfacet
  facet normal 1.236616e-14 4.928172e-15 1.000000e+00
    outer loop
      vertex   8.110838e-02 4.073012e-02 2.800000e-02
      vertex   8.173806e-02 3.915007e-02 2.800000e-02
      vertex   8.163514e-02 4.081635e-02 2.800000e-02
    endloop
  endfacet
  facet normal -1.308779e-14 3.355854e-15 1.000000e+00
    outer loop
      vertex   8.163514e-02 4.081635e-02 2.800000e-02
      vertex   8.173806e-02 3.915007e-02 2.800000e-02
      vertex   8.217463e-02 4.085266e-02 2.800000e-02
    endloop
  endfacet
  facet normal 0.000000e+00 0.000000e+00 1.000000e+00
    outer loop
      vertex   8.217463e-02 4.085266e-02 2.800000e-02
      vertex   8.173806e-02 3.915007e-02 2.800000e-02
      vertex   8.218835e-02 3.911614e-02 2.800000e-02
    endloop
  endfacet
  facet normal 0.000000e+00 0.000000e+00 1.000000e+00
    outer loop
      vertex   8.217463e-02 4.085266e-02 2.800000e-02
      vertex   8.218835e-02 3.911614e-02 2.800000e-02
      vertex   8.272996e-02 4.082247e-02 2.800000e-02
    endloop
  endfacet
  facet normal 0.000000e+00 0.000000e+00 1.000000e+00
    outer loop
      vertex   8.272996e-02 4.082247e-02 2.800000e-02
      vertex   8.218835e-02 3.911614e-02 2.800000e-02
      vertex   8.260911e-02 3.901543e-02 2.800000e-02
    endloop
  endfacet
  facet normal 0.000000e+00 0.000000e+00 1.000000e+00
    outer loop
      vertex   8.272996e-02 4.082247e-02 2.800000e-02
      vertex   8.260911e-02 3.901543e-02 2.800000e-02
      vertex   8.327108e-02 4.073852e-02 2.800000e-02
    endloop
  endfacet
  facet normal -5.932733e-15 2.279216e-15 1.000000e+00
    outer loop
      vertex   8.327108e-02 4.073852e-02 2.800000e-02
      vertex   8.260911e-02 3.901543e-02 2.800000e-02
      vertex   8.378698e-02 4.055919e-02 2.800000e-02
    endloop
  endfacet
  facet normal -8.144758e-16 -1.625970e-15 1.000000e+00
    outer loop
      vertex   8.378698e-02 4.055919e-02 2.800000e-02
      vertex   8.260911e-02 3.901543e-02 2.800000e-02
      vertex   8.279957e-02 3.892003e-02 2.800000e-02
    endloop
  endfacet
  facet normal 4.587932e-15 -4.880310e-15 1.000000e+00
    outer loop
      vertex   8.378698e-02 4.055919e-02 2.800000e-02
      vertex   8.279957e-02 3.892003e-02 2.800000e-02
      vertex   8.428650e-02 4.031787e-02 2.800000e-02
    endloop
  endfacet
  facet normal 0.000000e+00 0.000000e+00 1.000000e+00
    outer loop
      vertex   8.428650e-02 4.031787e-02 2.800000e-02
      vertex   8.279957e-02 3.892003e-02 2.800000e-02
      vertex   8.466469e-02 4.001240e-02 2.800000e-02
    endloop
  endfacet
  facet normal 0.000000e+00 0.000000e+00 1.000000e+00
    outer loop
      vertex   8.466469e-02 4.001240e-02 2.800000e-02
      vertex   8.279957e-02 3.892003e-02 2.800000e-02
      vertex   8.297692e-02 3.879497e-02 2.800000e-02
    endloop
  endfacet
  facet normal -4.306697e-15 5.970513e-15 1.000000e+00
    outer loop
      vertex   8.466469e-02 4.001240e-02 2.800000e-02
      vertex   8.297692e-02 3.879497e-02 2.800000e-02
      vertex   8.499476e-02 3.966939e-02 2.800000e-02
    endloop
  endfacet
  facet normal -1.160899e-15 -1.288787e-15 1.000000e+00
    outer loop
      vertex   8.499476e-02 3.966939e-02 2.800000e-02
      vertex   8.297692e-02 3.879497e-02 2.800000e-02
      vertex   8.330969e-02 3.849522e-02 2.800000e-02
    endloop
  endfacet
  facet normal 2.732407e-15 -6.876135e-15 1.000000e+00
    outer loop
      vertex   8.499476e-02 3.966939e-02 2.800000e-02
      vertex   8.330969e-02 3.849522e-02 2.800000e-02
      vertex   8.524540e-02 3.926443e-02 2.800000e-02
    endloop
  endfacet
  facet normal 0.000000e+00 0.000000e+00 1.000000e+00
    outer loop
      vertex   8.524540e-02 3.926443e-02 2.800000e-02
      vertex   8.330969e-02 3.849522e-02 2.800000e-02
      vertex   8.544884e-02 3.882265e-02 2.800000e-02
    endloop
  endfacet
  facet normal 2.135590e-15 -1.395252e-14 1.000000e+00
    outer loop
      vertex   8.544884e-02 3.882265e-02 2.800000e-02
      vertex   8.330969e-02 3.849522e-02 2.800000e-02
      vertex   8.353820e-02 3.803288e-02 2.800000e-02
    endloop
  endfacet
  facet normal -8.425803e-15 1.159816e-14 1.000000e+00
    outer loop
      vertex   8.544884e-02 3.882265e-02 2.800000e-02
      vertex   8.353820e-02 3.803288e-02 2.800000e-02
      vertex   8.370147e-02 3.755322e-02 2.800000e-02
    endloop
  endfacet
  facet normal -2.773762e-15 -1.413668e-14 1.000000e+00
    outer loop
      vertex   8.377112e-02 3.704871e-02 2.800000e-02
      vertex   8.590474e-02 3.712091e-02 2.800000e-02
      vertex   8.370147e-02 3.755322e-02 2.800000e-02
    endloop
  endfacet
  facet normal 0.000000e+00 0.000000e+00 1.000000e+00
    outer loop
      vertex   8.370147e-02 3.755322e-02 2.800000e-02
      vertex   8.590474e-02 3.712091e-02 2.800000e-02
      vertex   8.602171e-02 3.744089e-02 2.800000e-02
    endloop
  endfacet
  facet normal -0.000000e+00 0.000000e+00 1.000000e+00
    outer loop
      vertex   8.370147e-02 3.755322e-02 2.800000e-02
      vertex   8.602171e-02 3.744089e-02 2.800000e-02
      vertex   8.617911e-02 3.774724e-02 2.800000e-02
    endloop
  endfacet
  facet normal -2.923547e-15 -9.710666e-15 1.000000e+00
    outer loop
      vertex   8.590474e-02 3.712091e-02 2.800000e-02
      vertex   8.377112e-02 3.704871e-02 2.800000e-02
      vertex   8.578696e-02 3.644181e-02 2.800000e-02
    endloop
  endfacet
  facet normal 4.077363e-15 1.354311e-14 1.000000e+00
    outer loop
      vertex   8.578696e-02 3.644181e-02 2.800000e-02
      vertex   8.377112e-02 3.704871e-02 2.800000e-02
      vertex   8.378991e-02 3.653070e-02 2.800000e-02
    endloop
  endfacet
  facet normal 3.902910e-15 9.623599e-15 1.000000e+00
    outer loop
      vertex   8.578696e-02 3.644181e-02 2.800000e-02
      vertex   8.378991e-02 3.653070e-02 2.800000e-02
      vertex   8.575443e-02 3.573397e-02 2.800000e-02
    endloop
  endfacet
  facet normal 0.000000e+00 0.000000e+00 1.000000e+00
    outer loop
      vertex   8.575443e-02 3.573397e-02 2.800000e-02
      vertex   8.378991e-02 3.653070e-02 2.800000e-02
      vertex   8.378991e-02 2.900000e-02 2.800000e-02
    endloop
  endfacet
  facet normal 0.000000e+00 0.000000e+00 1.000000e+00
    outer loop
      vertex   8.575443e-02 3.573397e-02 2.800000e-02
      vertex   8.378991e-02 2.900000e-02 2.800000e-02
      vertex   8.575443e-02 2.900000e-02 2.800000e-02
    endloop
  endfacet
  facet normal 0.000000e+00 0.000000e+00 1.000000e+00
    outer loop
      vertex   8.370147e-02 3.755322e-02 2.800000e-02
      vertex   8.617911e-02 3.774724e-02 2.800000e-02
      vertex   8.544884e-02 3.882265e-02 2.800000e-02
    endloop
  endfacet
  facet normal 0.000000e+00 0.000000e+00 1.000000e+00
    outer loop
      vertex   8.544884e-02 3.882265e-02 2.800000e-02
      vertex   8.617911e-02 3.774724e-02 2.800000e-02
      vertex   8.656208e-02 3.833697e-02 2.800000e-02
    endloop
  endfacet
  facet normal 0.000000e+00 0.000000e+00 1.000000e+00
    outer loop
      vertex   8.544884e-02 3.882265e-02 2.800000e-02
      vertex   8.656208e-02 3.833697e-02 2.800000e-02
      vertex   8.701063e-02 3.868582e-02 2.800000e-02
    endloop
  endfacet
  facet normal -0.000000e+00 0.000000e+00 1.000000e+00
    outer loop
      vertex   8.544884e-02 3.882265e-02 2.800000e-02
      vertex   8.701063e-02 3.868582e-02 2.800000e-02
      vertex   8.616353e-02 3.965435e-02 2.800000e-02
    endloop
  endfacet
  facet normal 0.000000e+00 0.000000e+00 1.000000e+00
    outer loop
      vertex   8.616353e-02 3.965435e-02 2.800000e-02
      vertex   8.701063e-02 3.868582e-02 2.800000e-02
      vertex   8.749178e-02 3.895419e-02 2.800000e-02
    endloop
  endfacet
  facet normal -0.000000e+00 0.000000e+00 1.000000e+00
    outer loop
      vertex   8.616353e-02 3.965435e-02 2.800000e-02
      vertex   8.749178e-02 3.895419e-02 2.800000e-02
      vertex   8.655092e-02 4.001617e-02 2.800000e-02
    endloop
  endfacet
  facet normal -0.000000e+00 0.000000e+00 1.000000e+00
    outer loop
      vertex   8.655092e-02 4.001617e-02 2.800000e-02
      vertex   8.749178e-02 3.895419e-02 2.800000e-02
      vertex   8.697436e-02 4.031315e-02 2.800000e-02
    endloop
  endfacet
  facet normal -5.915449e-15 -2.252267e-15 1.000000e+00
    outer loop
      vertex   8.697436e-02 4.031315e-02 2.800000e-02
      vertex   8.749178e-02 3.895419e-02 2.800000e-02
      vertex   8.802622e-02 3.909094e-02 2.800000e-02
    endloop
  endfacet
  facet normal -9.349833e-16 2.033999e-15 1.000000e+00
    outer loop
      vertex   8.697436e-02 4.031315e-02 2.800000e-02
      vertex   8.802622e-02 3.909094e-02 2.800000e-02
      vertex   8.744312e-02 4.052863e-02 2.800000e-02
    endloop
  endfacet
  facet normal -6.235850e-16 2.160295e-15 1.000000e+00
    outer loop
      vertex   8.744312e-02 4.052863e-02 2.800000e-02
      vertex   8.802622e-02 3.909094e-02 2.800000e-02
      vertex   8.795029e-02 4.067502e-02 2.800000e-02
    endloop
  endfacet
  facet normal 5.872907e-15 2.471698e-15 1.000000e+00
    outer loop
      vertex   8.795029e-02 4.067502e-02 2.800000e-02
      vertex   8.802622e-02 3.909094e-02 2.800000e-02
      vertex   8.859209e-02 3.915007e-02 2.800000e-02
    endloop
  endfacet
  facet normal -0.000000e+00 0.000000e+00 1.000000e+00
    outer loop
      vertex   8.795029e-02 4.067502e-02 2.800000e-02
      vertex   8.859209e-02 3.915007e-02 2.800000e-02
      vertex   8.902865e-02 4.085266e-02 2.800000e-02
    endloop
  endfacet
  facet normal 0.000000e+00 0.000000e+00 1.000000e+00
    outer loop
      vertex   8.902865e-02 4.085266e-02 2.800000e-02
      vertex   8.859209e-02 3.915007e-02 2.800000e-02
      vertex   8.890257e-02 3.912863e-02 2.800000e-02
    endloop
  endfacet
  facet normal 0.000000e+00 0.000000e+00 1.000000e+00
    outer loop
      vertex   8.902865e-02 4.085266e-02 2.800000e-02
      vertex   8.890257e-02 3.912863e-02 2.800000e-02
      vertex   8.976150e-02 4.079901e-02 2.800000e-02
    endloop
  endfacet
  facet normal 0.000000e+00 0.000000e+00 1.000000e+00
    outer loop
      vertex   8.976150e-02 4.079901e-02 2.800000e-02
      vertex   8.890257e-02 3.912863e-02 2.800000e-02
      vertex   8.920464e-02 3.907649e-02 2.800000e-02
    endloop
  endfacet
  facet normal 0.000000e+00 0.000000e+00 1.000000e+00
    outer loop
      vertex   8.976150e-02 4.079901e-02 2.800000e-02
      vertex   8.920464e-02 3.907649e-02 2.800000e-02
      vertex   9.011660e-02 4.074216e-02 2.800000e-02
    endloop
  endfacet
  facet normal 0.000000e+00 0.000000e+00 1.000000e+00
    outer loop
      vertex   9.011660e-02 4.074216e-02 2.800000e-02
      vertex   8.920464e-02 3.907649e-02 2.800000e-02
      vertex   8.949223e-02 3.897148e-02 2.800000e-02
    endloop
  endfacet
  facet normal 0.000000e+00 0.000000e+00 1.000000e+00
    outer loop
      vertex   9.011660e-02 4.074216e-02 2.800000e-02
      vertex   8.949223e-02 3.897148e-02 2.800000e-02
      vertex   9.045811e-02 4.064928e-02 2.800000e-02
    endloop
  endfacet
  facet normal 0.000000e+00 0.000000e+00 1.000000e+00
    outer loop
      vertex   9.045811e-02 4.064928e-02 2.800000e-02
      vertex   8.949223e-02 3.897148e-02 2.800000e-02
      vertex   9.078208e-02 4.050990e-02 2.800000e-02
    endloop
  endfacet
  facet normal 1.508490e-14 -1.264757e-14 1.000000e+00
    outer loop
      vertex   9.078208e-02 4.050990e-02 2.800000e-02
      vertex   8.949223e-02 3.897148e-02 2.800000e-02
      vertex   9.109037e-02 4.032897e-02 2.800000e-02
    endloop
  endfacet
  facet normal 1.598832e-15 3.229299e-15 1.000000e+00
    outer loop
      vertex   9.109037e-02 4.032897e-02 2.800000e-02
      vertex   8.949223e-02 3.897148e-02 2.800000e-02
      vertex   8.977080e-02 3.883356e-02 2.800000e-02
    endloop
  endfacet
  facet normal -5.085276e-15 9.127427e-15 1.000000e+00
    outer loop
      vertex   9.109037e-02 4.032897e-02 2.800000e-02
      vertex   8.977080e-02 3.883356e-02 2.800000e-02
      vertex   9.168077e-02 3.989768e-02 2.800000e-02
    endloop
  endfacet
  facet normal 1.322743e-14 -2.374157e-14 1.000000e+00
    outer loop
      vertex   9.168077e-02 3.989768e-02 2.800000e-02
      vertex   8.977080e-02 3.883356e-02 2.800000e-02
      vertex   8.999267e-02 3.866490e-02 2.800000e-02
    endloop
  endfacet
  facet normal -2.784830e-15 -1.815266e-15 1.000000e+00
    outer loop
      vertex   9.168077e-02 3.989768e-02 2.800000e-02
      vertex   8.999267e-02 3.866490e-02 2.800000e-02
      vertex   9.211528e-02 3.923108e-02 2.800000e-02
    endloop
  endfacet
  facet normal -1.020000e-14 2.598408e-14 1.000000e+00
    outer loop
      vertex   9.211528e-02 3.923108e-02 2.800000e-02
      vertex   8.999267e-02 3.866490e-02 2.800000e-02
      vertex   9.018838e-02 3.847469e-02 2.800000e-02
    endloop
  endfacet
  facet normal 0.000000e+00 0.000000e+00 1.000000e+00
    outer loop
      vertex   9.211528e-02 3.923108e-02 2.800000e-02
      vertex   9.018838e-02 3.847469e-02 2.800000e-02
      vertex   9.229482e-02 3.888499e-02 2.800000e-02
    endloop
  endfacet
  facet normal 0.000000e+00 0.000000e+00 1.000000e+00
    outer loop
      vertex   9.229482e-02 3.888499e-02 2.800000e-02
      vertex   9.018838e-02 3.847469e-02 2.800000e-02
      vertex   9.033971e-02 3.824786e-02 2.800000e-02
    endloop
  endfacet
  facet normal -2.790215e-15 8.562196e-15 1.000000e+00
    outer loop
      vertex   9.229482e-02 3.888499e-02 2.800000e-02
      vertex   9.033971e-02 3.824786e-02 2.800000e-02
      vertex   9.242949e-02 3.852367e-02 2.800000e-02
    endloop
  endfacet
  facet normal -1.557789e-15 -7.759468e-16 1.000000e+00
    outer loop
      vertex   9.242949e-02 3.852367e-02 2.800000e-02
      vertex   9.033971e-02 3.824786e-02 2.800000e-02
      vertex   9.046385e-02 3.799863e-02 2.800000e-02
    endloop
  endfacet
  facet normal 6.499776e-16 -9.041442e-15 1.000000e+00
    outer loop
      vertex   9.242949e-02 3.852367e-02 2.800000e-02
      vertex   9.046385e-02 3.799863e-02 2.800000e-02
      vertex   9.251657e-02 3.814620e-02 2.800000e-02
    endloop
  endfacet
  facet normal 0.000000e+00 0.000000e+00 1.000000e+00
    outer loop
      vertex   9.251657e-02 3.814620e-02 2.800000e-02
      vertex   9.046385e-02 3.799863e-02 2.800000e-02
      vertex   9.056030e-02 3.758056e-02 2.800000e-02
    endloop
  endfacet
  facet normal 0.000000e+00 0.000000e+00 1.000000e+00
    outer loop
      vertex   9.251657e-02 3.814620e-02 2.800000e-02
      vertex   9.056030e-02 3.758056e-02 2.800000e-02
      vertex   9.256736e-02 3.775642e-02 2.800000e-02
    endloop
  endfacet
  facet normal 0.000000e+00 0.000000e+00 1.000000e+00
    outer loop
      vertex   9.256736e-02 3.775642e-02 2.800000e-02
      vertex   9.056030e-02 3.758056e-02 2.800000e-02
      vertex   9.062607e-02 3.715857e-02 2.800000e-02
    endloop
  endfacet
  facet normal 0.000000e+00 0.000000e+00 1.000000e+00
    outer loop
      vertex   9.256736e-02 3.775642e-02 2.800000e-02
      vertex   9.062607e-02 3.715857e-02 2.800000e-02
      vertex   9.260846e-02 3.695634e-02 2.800000e-02
    endloop
  endfacet
  facet normal -1.667080e-15 -1.634178e-14 1.000000e+00
    outer loop
      vertex   9.260846e-02 3.695634e-02 2.800000e-02
      vertex   9.062607e-02 3.715857e-02 2.800000e-02
      vertex   9.065117e-02 3.673140e-02 2.800000e-02
    endloop
  endfacet
  facet normal -5.394785e-15 1.609447e-14 1.000000e+00
    outer loop
      vertex   9.260846e-02 3.695634e-02 2.800000e-02
      vertex   9.065117e-02 3.673140e-02 2.800000e-02
      vertex   9.065484e-02 3.630150e-02 2.800000e-02
    endloop
  endfacet
  facet normal 0.000000e+00 0.000000e+00 1.000000e+00
    outer loop
      vertex   9.065484e-02 2.900000e-02 2.800000e-02
      vertex   9.260846e-02 2.900000e-02 2.800000e-02
      vertex   9.065484e-02 3.630150e-02 2.800000e-02
    endloop
  endfacet
  facet normal -0.000000e+00 0.000000e+00 1.000000e+00
    outer loop
      vertex   9.065484e-02 3.630150e-02 2.800000e-02
      vertex   9.260846e-02 2.900000e-02 2.800000e-02
      vertex   9.260846e-02 3.695634e-02 2.800000e-02
    endloop
  endfacet
  facet normal 0.000000e+00 0.000000e+00 -1.000000e+00
    outer loop
      vertex   7.886767e-02 2.900000e-02 1.400000e-02
      vertex   7.690314e-02 2.900000e-02 1.400000e-02
      vertex   7.886767e-02 3.501364e-02 1.400000e-02
    endloop
  endfacet
  facet normal -0.000000e+00 0.000000e+00 -1.000000e+00
    outer loop
      vertex   7.886767e-02 3.501364e-02 1.400000e-02
      vertex   7.690314e-02 2.900000e-02 1.400000e-02
      vertex   7.690314e-02 4.059072e-02 1.400000e-02
    endloop
  endfacet
  facet normal 0.000000e+00 0.000000e+00 -1.000000e+00
    outer loop
      vertex   7.886767e-02 3.501364e-02 1.400000e-02
      vertex   7.690314e-02 4.059072e-02 1.400000e-02
      vertex   7.887847e-02 3.562914e-02 1.400000e-02
    endloop
  endfacet
  facet normal 0.000000e+00 0.000000e+00 -1.000000e+00
    outer loop
      vertex   7.887847e-02 3.562914e-02 1.400000e-02
      vertex   7.690314e-02 4.059072e-02 1.400000e-02
      vertex   7.892330e-02 3.623977e-02 1.400000e-02
    endloop
  endfacet
  facet normal 0.000000e+00 0.000000e+00 -1.000000e+00
    outer loop
      vertex   7.892330e-02 3.623977e-02 1.400000e-02
      vertex   7.690314e-02 4.059072e-02 1.400000e-02
      vertex   7.903128e-02 3.684138e-02 1.400000e-02
    endloop
  endfacet
  facet normal 0.000000e+00 0.000000e+00 -1.000000e+00
    outer loop
      vertex   7.903128e-02 3.684138e-02 1.400000e-02
      vertex   7.690314e-02 4.059072e-02 1.400000e-02
      vertex   7.866030e-02 3.896453e-02 1.400000e-02
    endloop
  endfacet
  facet normal 0.000000e+00 0.000000e+00 -1.000000e+00
    outer loop
      vertex   7.903128e-02 3.684138e-02 1.400000e-02
      vertex   7.866030e-02 3.896453e-02 1.400000e-02
      vertex   7.918418e-02 3.743656e-02 1.400000e-02
    endloop
  endfacet
  facet normal -1.115204e-14 -3.823540e-15 -1.000000e+00
    outer loop
      vertex   7.918418e-02 3.743656e-02 1.400000e-02
      vertex   7.866030e-02 3.896453e-02 1.400000e-02
      vertex   7.936544e-02 3.781527e-02 1.400000e-02
    endloop
  endfacet
  facet normal 5.586070e-15 6.446215e-15 -1.000000e+00
    outer loop
      vertex   7.936544e-02 3.781527e-02 1.400000e-02
      vertex   7.866030e-02 3.896453e-02 1.400000e-02
      vertex   7.958636e-02 3.816204e-02 1.400000e-02
    endloop
  endfacet
  facet normal 2.771720e-15 3.198511e-15 -1.000000e+00
    outer loop
      vertex   7.958636e-02 3.816204e-02 1.400000e-02
      vertex   7.866030e-02 3.896453e-02 1.400000e-02
      vertex   7.987478e-02 3.845445e-02 1.400000e-02
    endloop
  endfacet
  facet normal 1.084307e-15 -8.192023e-16 -1.000000e+00
    outer loop
      vertex   7.987478e-02 3.845445e-02 1.400000e-02
      vertex   7.866030e-02 3.896453e-02 1.400000e-02
      vertex   7.896528e-02 3.936821e-02 1.400000e-02
    endloop
  endfacet
  facet normal -2.114883e-15 -4.003511e-15 -1.000000e+00
    outer loop
      vertex   7.987478e-02 3.845445e-02 1.400000e-02
      vertex   7.896528e-02 3.936821e-02 1.400000e-02
      vertex   8.020464e-02 3.871351e-02 1.400000e-02
    endloop
  endfacet
  facet normal 0.000000e+00 0.000000e+00 -1.000000e+00
    outer loop
      vertex   8.020464e-02 3.871351e-02 1.400000e-02
      vertex   7.896528e-02 3.936821e-02 1.400000e-02
      vertex   7.930204e-02 3.973827e-02 1.400000e-02
    endloop
  endfacet
  facet normal 0.000000e+00 0.000000e+00 -1.000000e+00
    outer loop
      vertex   8.020464e-02 3.871351e-02 1.400000e-02
      vertex   7.930204e-02 3.973827e-02 1.400000e-02
      vertex   8.056661e-02 3.889774e-02 1.400000e-02
    endloop
  endfacet
  facet normal 0.000000e+00 0.000000e+00 -1.000000e+00
    outer loop
      vertex   8.056661e-02 3.889774e-02 1.400000e-02
      vertex   7.930204e-02 3.973827e-02 1.400000e-02
      vertex   7.969133e-02 4.005279e-02 1.400000e-02
    endloop
  endfacet
  facet normal 0.000000e+00 0.000000e+00 -1.000000e+00
    outer loop
      vertex   8.056661e-02 3.889774e-02 1.400000e-02
      vertex   7.969133e-02 4.005279e-02 1.400000e-02
      vertex   8.094025e-02 3.904101e-02 1.400000e-02
    endloop
  endfacet
  facet normal 0.000000e+00 0.000000e+00 -1.000000e+00
    outer loop
      vertex   8.094025e-02 3.904101e-02 1.400000e-02
      vertex   7.969133e-02 4.005279e-02 1.400000e-02
      vertex   8.011187e-02 4.033424e-02 1.400000e-02
    endloop
  endfacet
  facet normal 2.731004e-15 1.749338e-15 -1.000000e+00
    outer loop
      vertex   8.094025e-02 3.904101e-02 1.400000e-02
      vertex   8.011187e-02 4.033424e-02 1.400000e-02
      vertex   8.060340e-02 4.055853e-02 1.400000e-02
    endloop
  endfacet
  facet normal 0.000000e+00 0.000000e+00 -1.000000e+00
    outer loop
      vertex   7.690314e-02 4.059072e-02 1.400000e-02
      vertex   7.866030e-02 4.059072e-02 1.400000e-02
      vertex   7.866030e-02 3.896453e-02 1.400000e-02
    endloop
  endfacet
  facet normal -2.092545e-16 1.096682e-15 -1.000000e+00
    outer loop
      vertex   8.094025e-02 3.904101e-02 1.400000e-02
      vertex   8.060340e-02 4.055853e-02 1.400000e-02
      vertex   8.133333e-02 3.911601e-02 1.400000e-02
    endloop
  endfacet
  facet normal -3.279936e-15 -4.571035e-16 -1.000000e+00
    outer loop
      vertex   8.133333e-02 3.911601e-02 1.400000e-02
      vertex   8.060340e-02 4.055853e-02 1.400000e-02
      vertex   8.110838e-02 4.073012e-02 1.400000e-02
    endloop
  endfacet
  facet normal 0.000000e+00 0.000000e+00 -1.000000e+00
    outer loop
      vertex   8.133333e-02 3.911601e-02 1.400000e-02
      vertex   8.110838e-02 4.073012e-02 1.400000e-02
      vertex   8.173806e-02 3.915007e-02 1.400000e-02
    endloop
  endfacet
  facet normal -6.183078e-15 -2.464086e-15 -1.000000e+00
    outer loop
      vertex   8.173806e-02 3.915007e-02 1.400000e-02
      vertex   8.110838e-02 4.073012e-02 1.400000e-02
      vertex   8.163514e-02 4.081635e-02 1.400000e-02
    endloop
  endfacet
  facet normal 6.543894e-15 -1.677927e-15 -1.000000e+00
    outer loop
      vertex   8.173806e-02 3.915007e-02 1.400000e-02
      vertex   8.163514e-02 4.081635e-02 1.400000e-02
      vertex   8.217463e-02 4.085266e-02 1.400000e-02
    endloop
  endfacet
  facet normal 0.000000e+00 0.000000e+00 -1.000000e+00
    outer loop
      vertex   8.173806e-02 3.915007e-02 1.400000e-02
      vertex   8.217463e-02 4.085266e-02 1.400000e-02
      vertex   8.218835e-02 3.911614e-02 1.400000e-02
    endloop
  endfacet
  facet normal 0.000000e+00 0.000000e+00 -1.000000e+00
    outer loop
      vertex   8.218835e-02 3.911614e-02 1.400000e-02
      vertex   8.217463e-02 4.085266e-02 1.400000e-02
      vertex   8.272996e-02 4.082247e-02 1.400000e-02
    endloop
  endfacet
  facet normal 0.000000e+00 0.000000e+00 -1.000000e+00
    outer loop
      vertex   8.218835e-02 3.911614e-02 1.400000e-02
      vertex   8.272996e-02 4.082247e-02 1.400000e-02
      vertex   8.260911e-02 3.901543e-02 1.400000e-02
    endloop
  endfacet
  facet normal 0.000000e+00 0.000000e+00 -1.000000e+00
    outer loop
      vertex   8.260911e-02 3.901543e-02 1.400000e-02
      vertex   8.272996e-02 4.082247e-02 1.400000e-02
      vertex   8.327108e-02 4.073852e-02 1.400000e-02
    endloop
  endfacet
  facet normal 2.966366e-15 -1.139608e-15 -1.000000e+00
    outer loop
      vertex   8.260911e-02 3.901543e-02 1.400000e-02
      vertex   8.327108e-02 4.073852e-02 1.400000e-02
      vertex   8.378698e-02 4.055919e-02 1.400000e-02
    endloop
  endfacet
  facet normal 4.072379e-16 8.129850e-16 -1.000000e+00
    outer loop
      vertex   8.260911e-02 3.901543e-02 1.400000e-02
      vertex   8.378698e-02 4.055919e-02 1.400000e-02
      vertex   8.279957e-02 3.892003e-02 1.400000e-02
    endloop
  endfacet
  facet normal -2.293966e-15 2.440155e-15 -1.000000e+00
    outer loop
      vertex   8.279957e-02 3.892003e-02 1.400000e-02
      vertex   8.378698e-02 4.055919e-02 1.400000e-02
      vertex   8.428650e-02 4.031787e-02 1.400000e-02
    endloop
  endfacet
  facet normal 0.000000e+00 0.000000e+00 -1.000000e+00
    outer loop
      vertex   8.279957e-02 3.892003e-02 1.400000e-02
      vertex   8.428650e-02 4.031787e-02 1.400000e-02
      vertex   8.466469e-02 4.001240e-02 1.400000e-02
    endloop
  endfacet
  facet normal 0.000000e+00 0.000000e+00 -1.000000e+00
    outer loop
      vertex   8.279957e-02 3.892003e-02 1.400000e-02
      vertex   8.466469e-02 4.001240e-02 1.400000e-02
      vertex   8.297692e-02 3.879497e-02 1.400000e-02
    endloop
  endfacet
  facet normal 2.153348e-15 -2.985256e-15 -1.000000e+00
    outer loop
      vertex   8.297692e-02 3.879497e-02 1.400000e-02
      vertex   8.466469e-02 4.001240e-02 1.400000e-02
      vertex   8.499476e-02 3.966939e-02 1.400000e-02
    endloop
  endfacet
  facet normal 5.804494e-16 6.443934e-16 -1.000000e+00
    outer loop
      vertex   8.297692e-02 3.879497e-02 1.400000e-02
      vertex   8.499476e-02 3.966939e-02 1.400000e-02
      vertex   8.330969e-02 3.849522e-02 1.400000e-02
    endloop
  endfacet
  facet normal -1.366203e-15 3.438067e-15 -1.000000e+00
    outer loop
      vertex   8.330969e-02 3.849522e-02 1.400000e-02
      vertex   8.499476e-02 3.966939e-02 1.400000e-02
      vertex   8.524540e-02 3.926443e-02 1.400000e-02
    endloop
  endfacet
  facet normal 0.000000e+00 0.000000e+00 -1.000000e+00
    outer loop
      vertex   8.330969e-02 3.849522e-02 1.400000e-02
      vertex   8.524540e-02 3.926443e-02 1.400000e-02
      vertex   8.544884e-02 3.882265e-02 1.400000e-02
    endloop
  endfacet
  facet normal 0.000000e+00 -0.000000e+00 -1.000000e+00
    outer loop
      vertex   8.616353e-02 3.965435e-02 1.400000e-02
      vertex   8.701063e-02 3.868582e-02 1.400000e-02
      vertex   8.544884e-02 3.882265e-02 1.400000e-02
    endloop
  endfacet
  facet normal 0.000000e+00 0.000000e+00 -1.000000e+00
    outer loop
      vertex   8.544884e-02 3.882265e-02 1.400000e-02
      vertex   8.701063e-02 3.868582e-02 1.400000e-02
      vertex   8.656208e-02 3.833697e-02 1.400000e-02
    endloop
  endfacet
  facet normal 0.000000e+00 0.000000e+00 -1.000000e+00
    outer loop
      vertex   8.544884e-02 3.882265e-02 1.400000e-02
      vertex   8.656208e-02 3.833697e-02 1.400000e-02
      vertex   8.617911e-02 3.774724e-02 1.400000e-02
    endloop
  endfacet
  facet normal 0.000000e+00 0.000000e+00 -1.000000e+00
    outer loop
      vertex   8.701063e-02 3.868582e-02 1.400000e-02
      vertex   8.616353e-02 3.965435e-02 1.400000e-02
      vertex   8.749178e-02 3.895419e-02 1.400000e-02
    endloop
  endfacet
  facet normal 0.000000e+00 0.000000e+00 -1.000000e+00
    outer loop
      vertex   8.749178e-02 3.895419e-02 1.400000e-02
      vertex   8.616353e-02 3.965435e-02 1.400000e-02
      vertex   8.655092e-02 4.001617e-02 1.400000e-02
    endloop
  endfacet
  facet normal 0.000000e+00 0.000000e+00 -1.000000e+00
    outer loop
      vertex   8.749178e-02 3.895419e-02 1.400000e-02
      vertex   8.655092e-02 4.001617e-02 1.400000e-02
      vertex   8.697436e-02 4.031315e-02 1.400000e-02
    endloop
  endfacet
  facet normal 2.957724e-15 1.126133e-15 -1.000000e+00
    outer loop
      vertex   8.749178e-02 3.895419e-02 1.400000e-02
      vertex   8.697436e-02 4.031315e-02 1.400000e-02
      vertex   8.802622e-02 3.909094e-02 1.400000e-02
    endloop
  endfacet
  facet normal 4.674917e-16 -1.016999e-15 -1.000000e+00
    outer loop
      vertex   8.802622e-02 3.909094e-02 1.400000e-02
      vertex   8.697436e-02 4.031315e-02 1.400000e-02
      vertex   8.744312e-02 4.052863e-02 1.400000e-02
    endloop
  endfacet
  facet normal 3.117925e-16 -1.080148e-15 -1.000000e+00
    outer loop
      vertex   8.802622e-02 3.909094e-02 1.400000e-02
      vertex   8.744312e-02 4.052863e-02 1.400000e-02
      vertex   8.795029e-02 4.067502e-02 1.400000e-02
    endloop
  endfacet
  facet normal -2.936453e-15 -1.235849e-15 -1.000000e+00
    outer loop
      vertex   8.802622e-02 3.909094e-02 1.400000e-02
      vertex   8.795029e-02 4.067502e-02 1.400000e-02
      vertex   8.859209e-02 3.915007e-02 1.400000e-02
    endloop
  endfacet
  facet normal 0.000000e+00 0.000000e+00 -1.000000e+00
    outer loop
      vertex   8.859209e-02 3.915007e-02 1.400000e-02
      vertex   8.795029e-02 4.067502e-02 1.400000e-02
      vertex   8.902865e-02 4.085266e-02 1.400000e-02
    endloop
  endfacet
  facet normal 0.000000e+00 0.000000e+00 -1.000000e+00
    outer loop
      vertex   8.859209e-02 3.915007e-02 1.400000e-02
      vertex   8.902865e-02 4.085266e-02 1.400000e-02
      vertex   8.890257e-02 3.912863e-02 1.400000e-02
    endloop
  endfacet
  facet normal 0.000000e+00 0.000000e+00 -1.000000e+00
    outer loop
      vertex   8.890257e-02 3.912863e-02 1.400000e-02
      vertex   8.902865e-02 4.085266e-02 1.400000e-02
      vertex   8.976150e-02 4.079901e-02 1.400000e-02
    endloop
  endfacet
  facet normal 0.000000e+00 0.000000e+00 -1.000000e+00
    outer loop
      vertex   8.890257e-02 3.912863e-02 1.400000e-02
      vertex   8.976150e-02 4.079901e-02 1.400000e-02
      vertex   8.920464e-02 3.907649e-02 1.400000e-02
    endloop
  endfacet
  facet normal 0.000000e+00 0.000000e+00 -1.000000e+00
    outer loop
      vertex   8.920464e-02 3.907649e-02 1.400000e-02
      vertex   8.976150e-02 4.079901e-02 1.400000e-02
      vertex   9.011660e-02 4.074216e-02 1.400000e-02
    endloop
  endfacet
  facet normal 0.000000e+00 0.000000e+00 -1.000000e+00
    outer loop
      vertex   8.920464e-02 3.907649e-02 1.400000e-02
      vertex   9.011660e-02 4.074216e-02 1.400000e-02
      vertex   8.949223e-02 3.897148e-02 1.400000e-02
    endloop
  endfacet
  facet normal 0.000000e+00 0.000000e+00 -1.000000e+00
    outer loop
      vertex   8.949223e-02 3.897148e-02 1.400000e-02
      vertex   9.011660e-02 4.074216e-02 1.400000e-02
      vertex   9.045811e-02 4.064928e-02 1.400000e-02
    endloop
  endfacet
  facet normal 0.000000e+00 0.000000e+00 -1.000000e+00
    outer loop
      vertex   8.949223e-02 3.897148e-02 1.400000e-02
      vertex   9.045811e-02 4.064928e-02 1.400000e-02
      vertex   9.078208e-02 4.050990e-02 1.400000e-02
    endloop
  endfacet
  facet normal -7.542450e-15 6.323787e-15 -1.000000e+00
    outer loop
      vertex   9.078208e-02 4.050990e-02 1.400000e-02
      vertex   9.109037e-02 4.032897e-02 1.400000e-02
      vertex   8.949223e-02 3.897148e-02 1.400000e-02
    endloop
  endfacet
  facet normal -7.994159e-16 -1.614649e-15 -1.000000e+00
    outer loop
      vertex   8.949223e-02 3.897148e-02 1.400000e-02
      vertex   9.109037e-02 4.032897e-02 1.400000e-02
      vertex   8.977080e-02 3.883356e-02 1.400000e-02
    endloop
  endfacet
  facet normal 2.542638e-15 -4.563714e-15 -1.000000e+00
    outer loop
      vertex   8.977080e-02 3.883356e-02 1.400000e-02
      vertex   9.109037e-02 4.032897e-02 1.400000e-02
      vertex   9.168077e-02 3.989768e-02 1.400000e-02
    endloop
  endfacet
  facet normal -6.613716e-15 1.187078e-14 -1.000000e+00
    outer loop
      vertex   8.977080e-02 3.883356e-02 1.400000e-02
      vertex   9.168077e-02 3.989768e-02 1.400000e-02
      vertex   8.999267e-02 3.866490e-02 1.400000e-02
    endloop
  endfacet
  facet normal 1.392415e-15 9.076331e-16 -1.000000e+00
    outer loop
      vertex   8.999267e-02 3.866490e-02 1.400000e-02
      vertex   9.168077e-02 3.989768e-02 1.400000e-02
      vertex   9.211528e-02 3.923108e-02 1.400000e-02
    endloop
  endfacet
  facet normal 5.100001e-15 -1.299204e-14 -1.000000e+00
    outer loop
      vertex   8.999267e-02 3.866490e-02 1.400000e-02
      vertex   9.211528e-02 3.923108e-02 1.400000e-02
      vertex   9.018838e-02 3.847469e-02 1.400000e-02
    endloop
  endfacet
  facet normal 0.000000e+00 0.000000e+00 -1.000000e+00
    outer loop
      vertex   9.018838e-02 3.847469e-02 1.400000e-02
      vertex   9.211528e-02 3.923108e-02 1.400000e-02
      vertex   9.229482e-02 3.888499e-02 1.400000e-02
    endloop
  endfacet
  facet normal 0.000000e+00 0.000000e+00 -1.000000e+00
    outer loop
      vertex   9.018838e-02 3.847469e-02 1.400000e-02
      vertex   9.229482e-02 3.888499e-02 1.400000e-02
      vertex   9.033971e-02 3.824786e-02 1.400000e-02
    endloop
  endfacet
  facet normal 1.395108e-15 -4.281098e-15 -1.000000e+00
    outer loop
      vertex   9.033971e-02 3.824786e-02 1.400000e-02
      vertex   9.229482e-02 3.888499e-02 1.400000e-02
      vertex   9.242949e-02 3.852367e-02 1.400000e-02
    endloop
  endfacet
  facet normal 7.788944e-16 3.879734e-16 -1.000000e+00
    outer loop
      vertex   9.033971e-02 3.824786e-02 1.400000e-02
      vertex   9.242949e-02 3.852367e-02 1.400000e-02
      vertex   9.046385e-02 3.799863e-02 1.400000e-02
    endloop
  endfacet
  facet normal -3.249888e-16 4.520721e-15 -1.000000e+00
    outer loop
      vertex   9.046385e-02 3.799863e-02 1.400000e-02
      vertex   9.242949e-02 3.852367e-02 1.400000e-02
      vertex   9.251657e-02 3.814620e-02 1.400000e-02
    endloop
  endfacet
  facet normal 0.000000e+00 0.000000e+00 -1.000000e+00
    outer loop
      vertex   9.046385e-02 3.799863e-02 1.400000e-02
      vertex   9.251657e-02 3.814620e-02 1.400000e-02
      vertex   9.056030e-02 3.758056e-02 1.400000e-02
    endloop
  endfacet
  facet normal 0.000000e+00 0.000000e+00 -1.000000e+00
    outer loop
      vertex   9.056030e-02 3.758056e-02 1.400000e-02
      vertex   9.251657e-02 3.814620e-02 1.400000e-02
      vertex   9.256736e-02 3.775642e-02 1.400000e-02
    endloop
  endfacet
  facet normal 0.000000e+00 0.000000e+00 -1.000000e+00
    outer loop
      vertex   9.056030e-02 3.758056e-02 1.400000e-02
      vertex   9.256736e-02 3.775642e-02 1.400000e-02
      vertex   9.062607e-02 3.715857e-02 1.400000e-02
    endloop
  endfacet
  facet normal 0.000000e+00 0.000000e+00 -1.000000e+00
    outer loop
      vertex   9.062607e-02 3.715857e-02 1.400000e-02
      vertex   9.256736e-02 3.775642e-02 1.400000e-02
      vertex   9.260846e-02 3.695634e-02 1.400000e-02
    endloop
  endfacet
  facet normal 8.335399e-16 8.170890e-15 -1.000000e+00
    outer loop
      vertex   9.062607e-02 3.715857e-02 1.400000e-02
      vertex   9.260846e-02 3.695634e-02 1.400000e-02
      vertex   9.065117e-02 3.673140e-02 1.400000e-02
    endloop
  endfacet
  facet normal 2.697393e-15 -8.047233e-15 -1.000000e+00
    outer loop
      vertex   9.065117e-02 3.673140e-02 1.400000e-02
      vertex   9.260846e-02 3.695634e-02 1.400000e-02
      vertex   9.065484e-02 3.630150e-02 1.400000e-02
    endloop
  endfacet
  facet normal 0.000000e+00 0.000000e+00 -1.000000e+00
    outer loop
      vertex   9.065484e-02 3.630150e-02 1.400000e-02
      vertex   9.260846e-02 3.695634e-02 1.400000e-02
      vertex   9.260846e-02 2.900000e-02 1.400000e-02
    endloop
  endfacet
  facet normal 0.000000e+00 0.000000e+00 -1.000000e+00
    outer loop
      vertex   9.065484e-02 3.630150e-02 1.400000e-02
      vertex   9.260846e-02 2.900000e-02 1.400000e-02
      vertex   9.065484e-02 2.900000e-02 1.400000e-02
    endloop
  endfacet
  facet normal 0.000000e+00 -0.000000e+00 -1.000000e+00
    outer loop
      vertex   8.544884e-02 3.882265e-02 1.400000e-02
      vertex   8.617911e-02 3.774724e-02 1.400000e-02
      vertex   8.370147e-02 3.755322e-02 1.400000e-02
    endloop
  endfacet
  facet normal 0.000000e+00 0.000000e+00 -1.000000e+00
    outer loop
      vertex   8.370147e-02 3.755322e-02 1.400000e-02
      vertex   8.617911e-02 3.774724e-02 1.400000e-02
      vertex   8.602171e-02 3.744089e-02 1.400000e-02
    endloop
  endfacet
  facet normal 0.000000e+00 0.000000e+00 -1.000000e+00
    outer loop
      vertex   8.370147e-02 3.755322e-02 1.400000e-02
      vertex   8.602171e-02 3.744089e-02 1.400000e-02
      vertex   8.590474e-02 3.712091e-02 1.400000e-02
    endloop
  endfacet
  facet normal 1.386881e-15 7.068342e-15 -1.000000e+00
    outer loop
      vertex   8.370147e-02 3.755322e-02 1.400000e-02
      vertex   8.590474e-02 3.712091e-02 1.400000e-02
      vertex   8.377112e-02 3.704871e-02 1.400000e-02
    endloop
  endfacet
  facet normal 1.461774e-15 4.855333e-15 -1.000000e+00
    outer loop
      vertex   8.377112e-02 3.704871e-02 1.400000e-02
      vertex   8.590474e-02 3.712091e-02 1.400000e-02
      vertex   8.578696e-02 3.644181e-02 1.400000e-02
    endloop
  endfacet
  facet normal -2.038682e-15 -6.771553e-15 -1.000000e+00
    outer loop
      vertex   8.377112e-02 3.704871e-02 1.400000e-02
      vertex   8.578696e-02 3.644181e-02 1.400000e-02
      vertex   8.378991e-02 3.653070e-02 1.400000e-02
    endloop
  endfacet
  facet normal -1.951455e-15 -4.811800e-15 -1.000000e+00
    outer loop
      vertex   8.378991e-02 3.653070e-02 1.400000e-02
      vertex   8.578696e-02 3.644181e-02 1.400000e-02
      vertex   8.575443e-02 3.573397e-02 1.400000e-02
    endloop
  endfacet
  facet normal 0.000000e+00 0.000000e+00 -1.000000e+00
    outer loop
      vertex   8.378991e-02 3.653070e-02 1.400000e-02
      vertex   8.575443e-02 3.573397e-02 1.400000e-02
      vertex   8.378991e-02 2.900000e-02 1.400000e-02
    endloop
  endfacet
  facet normal 0.000000e+00 0.000000e+00 -1.000000e+00
    outer loop
      vertex   8.378991e-02 2.900000e-02 1.400000e-02
      vertex   8.575443e-02 3.573397e-02 1.400000e-02
      vertex   8.575443e-02 2.900000e-02 1.400000e-02
    endloop
  endfacet
  facet normal 4.212902e-15 -5.799079e-15 -1.000000e+00
    outer loop
      vertex   8.370147e-02 3.755322e-02 1.400000e-02
      vertex   8.353820e-02 3.803288e-02 1.400000e-02
      vertex   8.544884e-02 3.882265e-02 1.400000e-02
    endloop
  endfacet
  facet normal -1.067795e-15 6.976262e-15 -1.000000e+00
    outer loop
      vertex   8.544884e-02 3.882265e-02 1.400000e-02
      vertex   8.353820e-02 3.803288e-02 1.400000e-02
      vertex   8.330969e-02 3.849522e-02 1.400000e-02
    endloop
  endfacet
endsolid
