solid ASCII
  facet normal 1.000000e+00 0.000000e+00 0.000000e+00
    outer loop
      vertex   3.671460e-02 8.472033e-03 2.800000e-02
      vertex   3.671460e-02 7.200000e-03 2.800000e-02
      vertex   3.671460e-02 8.472033e-03 1.400000e-02
    endloop
  endfacet
  facet normal 1.000000e+00 0.000000e+00 0.000000e+00
    outer loop
      vertex   3.671460e-02 8.472033e-03 1.400000e-02
      vertex   3.671460e-02 7.200000e-03 2.800000e-02
      vertex   3.671460e-02 7.200000e-03 1.400000e-02
    endloop
  endfacet
  facet normal -0.000000e+00 -1.000000e+00 -0.000000e+00
    outer loop
      vertex   3.802865e-02 8.472033e-03 2.800000e-02
      vertex   3.671460e-02 8.472033e-03 2.800000e-02
      vertex   3.802865e-02 8.472033e-03 1.400000e-02
    endloop
  endfacet
  facet normal 0.000000e+00 -1.000000e+00 0.000000e+00
    outer loop
      vertex   3.802865e-02 8.472033e-03 1.400000e-02
      vertex   3.671460e-02 8.472033e-03 2.800000e-02
      vertex   3.671460e-02 8.472033e-03 1.400000e-02
    endloop
  endfacet
  facet normal 1.000000e+00 0.000000e+00 0.000000e+00
    outer loop
      vertex   3.802865e-02 8.802456e-03 2.800000e-02
      vertex   3.802865e-02 8.472033e-03 2.800000e-02
      vertex   3.802865e-02 8.802456e-03 1.400000e-02
    endloop
  endfacet
  facet normal 1.000000e+00 0.000000e+00 0.000000e+00
    outer loop
      vertex   3.802865e-02 8.802456e-03 1.400000e-02
      vertex   3.802865e-02 8.472033e-03 2.800000e-02
      vertex   3.802865e-02 8.472033e-03 1.400000e-02
    endloop
  endfacet
  facet normal -0.000000e+00 1.000000e+00 0.000000e+00
    outer loop
      vertex   3.671460e-02 8.802456e-03 2.800000e-02
      vertex   3.802865e-02 8.802456e-03 2.800000e-02
      vertex   3.671460e-02 8.802456e-03 1.400000e-02
    endloop
  endfacet
  facet normal 0.000000e+00 1.000000e+00 0.000000e+00
    outer loop
      vertex   3.671460e-02 8.802456e-03 1.400000e-02
      vertex   3.802865e-02 8.802456e-03 2.800000e-02
      vertex   3.802865e-02 8.802456e-03 1.400000e-02
    endloop
  endfacet
  facet normal 1.000000e+00 0.000000e+00 0.000000e+00
    outer loop
      vertex   3.671460e-02 9.669577e-03 2.800000e-02
      vertex   3.671460e-02 8.802456e-03 2.800000e-02
      vertex   3.671460e-02 9.669577e-03 1.400000e-02
    endloop
  endfacet
  facet normal 1.000000e+00 0.000000e+00 0.000000e+00
    outer loop
      vertex   3.671460e-02 9.669577e-03 1.400000e-02
      vertex   3.671460e-02 8.802456e-03 2.800000e-02
      vertex   3.671460e-02 8.802456e-03 1.400000e-02
    endloop
  endfacet
  facet normal -0.000000e+00 -1.000000e+00 -0.000000e+00
    outer loop
      vertex   3.823302e-02 9.669577e-03 2.800000e-02
      vertex   3.671460e-02 9.669577e-03 2.800000e-02
      vertex   3.823302e-02 9.669577e-03 1.400000e-02
    endloop
  endfacet
  facet normal 0.000000e+00 -1.000000e+00 0.000000e+00
    outer loop
      vertex   3.823302e-02 9.669577e-03 1.400000e-02
      vertex   3.671460e-02 9.669577e-03 2.800000e-02
      vertex   3.671460e-02 9.669577e-03 1.400000e-02
    endloop
  endfacet
  facet normal 1.000000e+00 0.000000e+00 0.000000e+00
    outer loop
      vertex   3.823302e-02 1.000000e-02 2.800000e-02
      vertex   3.823302e-02 9.669577e-03 2.800000e-02
      vertex   3.823302e-02 1.000000e-02 1.400000e-02
    endloop
  endfacet
  facet normal 1.000000e+00 0.000000e+00 0.000000e+00
    outer loop
      vertex   3.823302e-02 1.000000e-02 1.400000e-02
      vertex   3.823302e-02 9.669577e-03 2.800000e-02
      vertex   3.823302e-02 9.669577e-03 1.400000e-02
    endloop
  endfacet
  facet normal -0.000000e+00 1.000000e+00 0.000000e+00
    outer loop
      vertex   3.634407e-02 1.000000e-02 2.800000e-02
      vertex   3.823302e-02 1.000000e-02 2.800000e-02
      vertex   3.634407e-02 1.000000e-02 1.400000e-02
    endloop
  endfacet
  facet normal 0.000000e+00 1.000000e+00 0.000000e+00
    outer loop
      vertex   3.634407e-02 1.000000e-02 1.400000e-02
      vertex   3.823302e-02 1.000000e-02 2.800000e-02
      vertex   3.823302e-02 1.000000e-02 1.400000e-02
    endloop
  endfacet
  facet normal -1.000000e+00 0.000000e+00 0.000000e+00
    outer loop
      vertex   3.634407e-02 7.200000e-03 2.800000e-02
      vertex   3.634407e-02 1.000000e-02 2.800000e-02
      vertex   3.634407e-02 7.200000e-03 1.400000e-02
    endloop
  endfacet
  facet normal -1.000000e+00 0.000000e+00 0.000000e+00
    outer loop
      vertex   3.634407e-02 7.200000e-03 1.400000e-02
      vertex   3.634407e-02 1.000000e-02 2.800000e-02
      vertex   3.634407e-02 1.000000e-02 1.400000e-02
    endloop
  endfacet
  facet normal -0.000000e+00 -1.000000e+00 -0.000000e+00
    outer loop
      vertex   3.671460e-02 7.200000e-03 2.800000e-02
      vertex   3.634407e-02 7.200000e-03 2.800000e-02
      vertex   3.671460e-02 7.200000e-03 1.400000e-02
    endloop
  endfacet
  facet normal 0.000000e+00 -1.000000e+00 0.000000e+00
    outer loop
      vertex   3.671460e-02 7.200000e-03 1.400000e-02
      vertex   3.634407e-02 7.200000e-03 2.800000e-02
      vertex   3.634407e-02 7.200000e-03 1.400000e-02
    endloop
  endfacet
  facet normal 0.000000e+00 -0.000000e+00 1.000000e+00
    outer loop
      vertex   3.671460e-02 7.200000e-03 2.800000e-02
      vertex   3.671460e-02 8.472033e-03 2.800000e-02
      vertex   3.634407e-02 7.200000e-03 2.800000e-02
    endloop
  endfacet
  facet normal 0.000000e+00 0.000000e+00 1.000000e+00
    outer loop
      vertex   3.634407e-02 7.200000e-03 2.800000e-02
      vertex   3.671460e-02 8.472033e-03 2.800000e-02
      vertex   3.634407e-02 1.000000e-02 2.800000e-02
    endloop
  endfacet
  facet normal 0.000000e+00 0.000000e+00 1.000000e+00
    outer loop
      vertex   3.634407e-02 1.000000e-02 2.800000e-02
      vertex   3.671460e-02 8.472033e-03 2.800000e-02
      vertex   3.671460e-02 8.802456e-03 2.800000e-02
    endloop
  endfacet
  facet normal 0.000000e+00 0.000000e+00 1.000000e+00
    outer loop
      vertex   3.634407e-02 1.000000e-02 2.800000e-02
      vertex   3.671460e-02 8.802456e-03 2.800000e-02
      vertex   3.671460e-02 9.669577e-03 2.800000e-02
    endloop
  endfacet
  facet normal 0.000000e+00 0.000000e+00 1.000000e+00
    outer loop
      vertex   3.671460e-02 8.472033e-03 2.800000e-02
      vertex   3.802865e-02 8.472033e-03 2.800000e-02
      vertex   3.671460e-02 8.802456e-03 2.800000e-02
    endloop
  endfacet
  facet normal -0.000000e+00 0.000000e+00 1.000000e+00
    outer loop
      vertex   3.671460e-02 8.802456e-03 2.800000e-02
      vertex   3.802865e-02 8.472033e-03 2.800000e-02
      vertex   3.802865e-02 8.802456e-03 2.800000e-02
    endloop
  endfacet
  facet normal 0.000000e+00 -0.000000e+00 1.000000e+00
    outer loop
      vertex   3.823302e-02 9.669577e-03 2.800000e-02
      vertex   3.823302e-02 1.000000e-02 2.800000e-02
      vertex   3.671460e-02 9.669577e-03 2.800000e-02
    endloop
  endfacet
  facet normal 0.000000e+00 -0.000000e+00 1.000000e+00
    outer loop
      vertex   3.671460e-02 9.669577e-03 2.800000e-02
      vertex   3.823302e-02 1.000000e-02 2.800000e-02
      vertex   3.634407e-02 1.000000e-02 2.800000e-02
    endloop
  endfacet
  facet normal 0.000000e+00 0.000000e+00 -1.000000e+00
    outer loop
      vertex   3.671460e-02 7.200000e-03 1.400000e-02
      vertex   3.634407e-02 7.200000e-03 1.400000e-02
      vertex   3.671460e-02 8.472033e-03 1.400000e-02
    endloop
  endfacet
  facet normal -0.000000e+00 0.000000e+00 -1.000000e+00
    outer loop
      vertex   3.671460e-02 8.472033e-03 1.400000e-02
      vertex   3.634407e-02 7.200000e-03 1.400000e-02
      vertex   3.634407e-02 1.000000e-02 1.400000e-02
    endloop
  endfacet
  facet normal 0.000000e+00 0.000000e+00 -1.000000e+00
    outer loop
      vertex   3.671460e-02 8.472033e-03 1.400000e-02
      vertex   3.634407e-02 1.000000e-02 1.400000e-02
      vertex   3.671460e-02 8.802456e-03 1.400000e-02
    endloop
  endfacet
  facet normal 0.000000e+00 0.000000e+00 -1.000000e+00
    outer loop
      vertex   3.671460e-02 8.802456e-03 1.400000e-02
      vertex   3.634407e-02 1.000000e-02 1.400000e-02
      vertex   3.671460e-02 9.669577e-03 1.400000e-02
    endloop
  endfacet
  facet normal 0.000000e+00 0.000000e+00 -1.000000e+00
    outer loop
      vertex   3.671460e-02 9.669577e-03 1.400000e-02
      vertex   3.634407e-02 1.000000e-02 1.400000e-02
      vertex   3.823302e-02 1.000000e-02 1.400000e-02
    endloop
  endfacet
  facet normal 0.000000e+00 0.000000e+00 -1.000000e+00
    outer loop
      vertex   3.671460e-02 9.669577e-03 1.400000e-02
      vertex   3.823302e-02 1.000000e-02 1.400000e-02
      vertex   3.823302e-02 9.669577e-03 1.400000e-02
    endloop
  endfacet
  facet normal 0.000000e+00 0.000000e+00 -1.000000e+00
    outer loop
      vertex   3.671460e-02 8.802456e-03 1.400000e-02
      vertex   3.802865e-02 8.802456e-03 1.400000e-02
      vertex   3.671460e-02 8.472033e-03 1.400000e-02
    endloop
  endfacet
  facet normal 0.000000e+00 0.000000e+00 -1.000000e+00
    outer loop
      vertex   3.671460e-02 8.472033e-03 1.400000e-02
      vertex   3.802865e-02 8.802456e-03 1.400000e-02
      vertex   3.802865e-02 8.472033e-03 1.400000e-02
    endloop
  endfacet
endsolid
