solid ASCII
  facet normal 1.000000e+00 0.000000e+00 0.000000e+00
    outer loop
      vertex   1.650818e-02 2.332844e-02 2.800000e-02
      vertex   1.650818e-02 2.210000e-02 2.800000e-02
      vertex   1.650818e-02 2.332844e-02 1.400000e-02
    endloop
  endfacet
  facet normal 1.000000e+00 0.000000e+00 0.000000e+00
    outer loop
      vertex   1.650818e-02 2.332844e-02 1.400000e-02
      vertex   1.650818e-02 2.210000e-02 2.800000e-02
      vertex   1.650818e-02 2.210000e-02 1.400000e-02
    endloop
  endfacet
  facet normal 8.221922e-01 -5.692100e-01 0.000000e+00
    outer loop
      vertex   1.766542e-02 2.500000e-02 2.800000e-02
      vertex   1.650818e-02 2.332844e-02 2.800000e-02
      vertex   1.766542e-02 2.500000e-02 1.400000e-02
    endloop
  endfacet
  facet normal 8.221922e-01 -5.692100e-01 0.000000e+00
    outer loop
      vertex   1.766542e-02 2.500000e-02 1.400000e-02
      vertex   1.650818e-02 2.332844e-02 2.800000e-02
      vertex   1.650818e-02 2.332844e-02 1.400000e-02
    endloop
  endfacet
  facet normal -0.000000e+00 1.000000e+00 0.000000e+00
    outer loop
      vertex   1.721835e-02 2.500000e-02 2.800000e-02
      vertex   1.766542e-02 2.500000e-02 2.800000e-02
      vertex   1.721835e-02 2.500000e-02 1.400000e-02
    endloop
  endfacet
  facet normal 0.000000e+00 1.000000e+00 0.000000e+00
    outer loop
      vertex   1.721835e-02 2.500000e-02 1.400000e-02
      vertex   1.766542e-02 2.500000e-02 2.800000e-02
      vertex   1.766542e-02 2.500000e-02 1.400000e-02
    endloop
  endfacet
  facet normal -8.350187e-01 5.502215e-01 0.000000e+00
    outer loop
      vertex   1.665655e-02 2.414741e-02 2.800000e-02
      vertex   1.721835e-02 2.500000e-02 2.800000e-02
      vertex   1.665655e-02 2.414741e-02 1.400000e-02
    endloop
  endfacet
  facet normal -8.350187e-01 5.502215e-01 0.000000e+00
    outer loop
      vertex   1.665655e-02 2.414741e-02 1.400000e-02
      vertex   1.721835e-02 2.500000e-02 2.800000e-02
      vertex   1.721835e-02 2.500000e-02 1.400000e-02
    endloop
  endfacet
  facet normal -8.609894e-01 5.086228e-01 -3.781371e-16
    outer loop
      vertex   1.641663e-02 2.376471e-02 2.800000e-02
      vertex   1.641663e-02 2.376471e-02 2.333333e-02
      vertex   1.634004e-02 2.363506e-02 2.800000e-02
    endloop
  endfacet
  facet normal -8.609894e-01 5.086228e-01 0.000000e+00
    outer loop
      vertex   1.634004e-02 2.363506e-02 2.800000e-02
      vertex   1.641663e-02 2.376471e-02 2.333333e-02
      vertex   1.641663e-02 2.376471e-02 1.866667e-02
    endloop
  endfacet
  facet normal -8.609894e-01 5.086228e-01 0.000000e+00
    outer loop
      vertex   1.634004e-02 2.363506e-02 2.800000e-02
      vertex   1.641663e-02 2.376471e-02 1.866667e-02
      vertex   1.634004e-02 2.363506e-02 1.400000e-02
    endloop
  endfacet
  facet normal -8.609894e-01 5.086228e-01 3.790295e-16
    outer loop
      vertex   1.634004e-02 2.363506e-02 1.400000e-02
      vertex   1.641663e-02 2.376471e-02 1.866667e-02
      vertex   1.641663e-02 2.376471e-02 1.400000e-02
    endloop
  endfacet
  facet normal -8.551675e-01 5.183518e-01 3.853701e-16
    outer loop
      vertex   1.641663e-02 2.376471e-02 1.400000e-02
      vertex   1.641663e-02 2.376471e-02 1.866667e-02
      vertex   1.649467e-02 2.389347e-02 1.866667e-02
    endloop
  endfacet
  facet normal -8.551675e-01 5.183518e-01 -6.357347e-16
    outer loop
      vertex   1.641663e-02 2.376471e-02 1.400000e-02
      vertex   1.649467e-02 2.389347e-02 1.866667e-02
      vertex   1.649467e-02 2.389347e-02 1.400000e-02
    endloop
  endfacet
  facet normal -8.459164e-01 5.333155e-01 -6.288990e-16
    outer loop
      vertex   1.649467e-02 2.389347e-02 1.400000e-02
      vertex   1.649467e-02 2.389347e-02 1.866667e-02
      vertex   1.657497e-02 2.402083e-02 1.866667e-02
    endloop
  endfacet
  facet normal -8.459164e-01 5.333155e-01 2.330976e-16
    outer loop
      vertex   1.649467e-02 2.389347e-02 1.400000e-02
      vertex   1.657497e-02 2.402083e-02 1.866667e-02
      vertex   1.657497e-02 2.402083e-02 1.400000e-02
    endloop
  endfacet
  facet normal -8.405591e-01 5.417199e-01 2.221729e-16
    outer loop
      vertex   1.657497e-02 2.402083e-02 1.400000e-02
      vertex   1.657497e-02 2.402083e-02 1.866667e-02
      vertex   1.665655e-02 2.414741e-02 1.400000e-02
    endloop
  endfacet
  facet normal -8.405591e-01 5.417199e-01 0.000000e+00
    outer loop
      vertex   1.665655e-02 2.414741e-02 1.400000e-02
      vertex   1.657497e-02 2.402083e-02 1.866667e-02
      vertex   1.657497e-02 2.402083e-02 2.333333e-02
    endloop
  endfacet
  facet normal -8.405591e-01 5.417199e-01 0.000000e+00
    outer loop
      vertex   1.665655e-02 2.414741e-02 1.400000e-02
      vertex   1.657497e-02 2.402083e-02 2.333333e-02
      vertex   1.665655e-02 2.414741e-02 2.800000e-02
    endloop
  endfacet
  facet normal -8.405591e-01 5.417199e-01 -2.236460e-16
    outer loop
      vertex   1.665655e-02 2.414741e-02 2.800000e-02
      vertex   1.657497e-02 2.402083e-02 2.333333e-02
      vertex   1.657497e-02 2.402083e-02 2.800000e-02
    endloop
  endfacet
  facet normal -8.459164e-01 5.333155e-01 -2.324040e-16
    outer loop
      vertex   1.657497e-02 2.402083e-02 2.800000e-02
      vertex   1.657497e-02 2.402083e-02 2.333333e-02
      vertex   1.649467e-02 2.389347e-02 2.333333e-02
    endloop
  endfacet
  facet normal -8.459164e-01 5.333155e-01 6.286571e-16
    outer loop
      vertex   1.657497e-02 2.402083e-02 2.800000e-02
      vertex   1.649467e-02 2.389347e-02 2.333333e-02
      vertex   1.649467e-02 2.389347e-02 2.800000e-02
    endloop
  endfacet
  facet normal -8.551675e-01 5.183518e-01 6.357768e-16
    outer loop
      vertex   1.649467e-02 2.389347e-02 2.800000e-02
      vertex   1.649467e-02 2.389347e-02 2.333333e-02
      vertex   1.641663e-02 2.376471e-02 2.333333e-02
    endloop
  endfacet
  facet normal -8.551675e-01 5.183518e-01 -3.837954e-16
    outer loop
      vertex   1.649467e-02 2.389347e-02 2.800000e-02
      vertex   1.641663e-02 2.376471e-02 2.333333e-02
      vertex   1.641663e-02 2.376471e-02 2.800000e-02
    endloop
  endfacet
  facet normal -8.551675e-01 5.183518e-01 0.000000e+00
    outer loop
      vertex   1.641663e-02 2.376471e-02 1.866667e-02
      vertex   1.641663e-02 2.376471e-02 2.333333e-02
      vertex   1.649467e-02 2.389347e-02 2.333333e-02
    endloop
  endfacet
  facet normal -8.459164e-01 5.333155e-01 0.000000e+00
    outer loop
      vertex   1.657497e-02 2.402083e-02 1.866667e-02
      vertex   1.649467e-02 2.389347e-02 1.866667e-02
      vertex   1.657497e-02 2.402083e-02 2.333333e-02
    endloop
  endfacet
  facet normal -8.459164e-01 5.333155e-01 0.000000e+00
    outer loop
      vertex   1.657497e-02 2.402083e-02 2.333333e-02
      vertex   1.649467e-02 2.389347e-02 1.866667e-02
      vertex   1.649467e-02 2.389347e-02 2.333333e-02
    endloop
  endfacet
  facet normal -8.551675e-01 5.183518e-01 0.000000e+00
    outer loop
      vertex   1.649467e-02 2.389347e-02 1.866667e-02
      vertex   1.641663e-02 2.376471e-02 1.866667e-02
      vertex   1.649467e-02 2.389347e-02 2.333333e-02
    endloop
  endfacet
  facet normal 8.454673e-01 5.340272e-01 0.000000e+00
    outer loop
      vertex   1.612172e-02 2.400465e-02 2.800000e-02
      vertex   1.612172e-02 2.400465e-02 2.450000e-02
      vertex   1.604529e-02 2.412565e-02 2.800000e-02
    endloop
  endfacet
  facet normal 8.454673e-01 5.340272e-01 0.000000e+00
    outer loop
      vertex   1.604529e-02 2.412565e-02 2.800000e-02
      vertex   1.612172e-02 2.400465e-02 2.450000e-02
      vertex   1.612172e-02 2.400465e-02 2.100000e-02
    endloop
  endfacet
  facet normal 8.454673e-01 5.340272e-01 0.000000e+00
    outer loop
      vertex   1.604529e-02 2.412565e-02 2.800000e-02
      vertex   1.612172e-02 2.400465e-02 2.100000e-02
      vertex   1.604529e-02 2.412565e-02 1.400000e-02
    endloop
  endfacet
  facet normal 8.454673e-01 5.340272e-01 0.000000e+00
    outer loop
      vertex   1.604529e-02 2.412565e-02 1.400000e-02
      vertex   1.612172e-02 2.400465e-02 2.100000e-02
      vertex   1.612172e-02 2.400465e-02 1.750000e-02
    endloop
  endfacet
  facet normal 8.454673e-01 5.340272e-01 0.000000e+00
    outer loop
      vertex   1.604529e-02 2.412565e-02 1.400000e-02
      vertex   1.612172e-02 2.400465e-02 1.750000e-02
      vertex   1.612172e-02 2.400465e-02 1.400000e-02
    endloop
  endfacet
  facet normal 8.518672e-01 5.237578e-01 -0.000000e+00
    outer loop
      vertex   1.612172e-02 2.400465e-02 1.400000e-02
      vertex   1.612172e-02 2.400465e-02 1.750000e-02
      vertex   1.619666e-02 2.388276e-02 1.750000e-02
    endloop
  endfacet
  facet normal 8.518672e-01 5.237578e-01 0.000000e+00
    outer loop
      vertex   1.612172e-02 2.400465e-02 1.400000e-02
      vertex   1.619666e-02 2.388276e-02 1.750000e-02
      vertex   1.619666e-02 2.388276e-02 1.400000e-02
    endloop
  endfacet
  facet normal 8.623573e-01 5.063001e-01 -0.000000e+00
    outer loop
      vertex   1.619666e-02 2.388276e-02 1.400000e-02
      vertex   1.619666e-02 2.388276e-02 1.750000e-02
      vertex   1.626911e-02 2.375936e-02 1.750000e-02
    endloop
  endfacet
  facet normal 8.623573e-01 5.063001e-01 -8.555801e-16
    outer loop
      vertex   1.619666e-02 2.388276e-02 1.400000e-02
      vertex   1.626911e-02 2.375936e-02 1.750000e-02
      vertex   1.626911e-02 2.375936e-02 1.400000e-02
    endloop
  endfacet
  facet normal 8.685392e-01 4.956205e-01 -8.609573e-16
    outer loop
      vertex   1.626911e-02 2.375936e-02 1.400000e-02
      vertex   1.626911e-02 2.375936e-02 1.750000e-02
      vertex   1.634004e-02 2.363506e-02 1.400000e-02
    endloop
  endfacet
  facet normal 8.685392e-01 4.956205e-01 0.000000e+00
    outer loop
      vertex   1.634004e-02 2.363506e-02 1.400000e-02
      vertex   1.626911e-02 2.375936e-02 1.750000e-02
      vertex   1.626911e-02 2.375936e-02 2.100000e-02
    endloop
  endfacet
  facet normal 8.685392e-01 4.956205e-01 -0.000000e+00
    outer loop
      vertex   1.634004e-02 2.363506e-02 1.400000e-02
      vertex   1.626911e-02 2.375936e-02 2.100000e-02
      vertex   1.634004e-02 2.363506e-02 2.800000e-02
    endloop
  endfacet
  facet normal 8.685392e-01 4.956205e-01 0.000000e+00
    outer loop
      vertex   1.634004e-02 2.363506e-02 2.800000e-02
      vertex   1.626911e-02 2.375936e-02 2.100000e-02
      vertex   1.626911e-02 2.375936e-02 2.450000e-02
    endloop
  endfacet
  facet normal 8.685392e-01 4.956205e-01 8.620152e-16
    outer loop
      vertex   1.634004e-02 2.363506e-02 2.800000e-02
      vertex   1.626911e-02 2.375936e-02 2.450000e-02
      vertex   1.626911e-02 2.375936e-02 2.800000e-02
    endloop
  endfacet
  facet normal 8.623573e-01 5.063001e-01 8.548294e-16
    outer loop
      vertex   1.626911e-02 2.375936e-02 2.800000e-02
      vertex   1.626911e-02 2.375936e-02 2.450000e-02
      vertex   1.619666e-02 2.388276e-02 2.450000e-02
    endloop
  endfacet
  facet normal 8.623573e-01 5.063001e-01 0.000000e+00
    outer loop
      vertex   1.626911e-02 2.375936e-02 2.800000e-02
      vertex   1.619666e-02 2.388276e-02 2.450000e-02
      vertex   1.619666e-02 2.388276e-02 2.800000e-02
    endloop
  endfacet
  facet normal 8.518672e-01 5.237578e-01 0.000000e+00
    outer loop
      vertex   1.619666e-02 2.388276e-02 2.800000e-02
      vertex   1.619666e-02 2.388276e-02 2.450000e-02
      vertex   1.612172e-02 2.400465e-02 2.450000e-02
    endloop
  endfacet
  facet normal 8.518672e-01 5.237578e-01 0.000000e+00
    outer loop
      vertex   1.619666e-02 2.388276e-02 2.800000e-02
      vertex   1.612172e-02 2.400465e-02 2.450000e-02
      vertex   1.612172e-02 2.400465e-02 2.800000e-02
    endloop
  endfacet
  facet normal 8.518672e-01 5.237578e-01 -0.000000e+00
    outer loop
      vertex   1.612172e-02 2.400465e-02 2.100000e-02
      vertex   1.612172e-02 2.400465e-02 2.450000e-02
      vertex   1.619666e-02 2.388276e-02 2.450000e-02
    endloop
  endfacet
  facet normal 8.623573e-01 5.063001e-01 0.000000e+00
    outer loop
      vertex   1.619666e-02 2.388276e-02 2.450000e-02
      vertex   1.626911e-02 2.375936e-02 2.450000e-02
      vertex   1.619666e-02 2.388276e-02 2.100000e-02
    endloop
  endfacet
  facet normal 8.623573e-01 5.063001e-01 0.000000e+00
    outer loop
      vertex   1.619666e-02 2.388276e-02 2.100000e-02
      vertex   1.626911e-02 2.375936e-02 2.450000e-02
      vertex   1.626911e-02 2.375936e-02 2.100000e-02
    endloop
  endfacet
  facet normal 8.623573e-01 5.063001e-01 0.000000e+00
    outer loop
      vertex   1.619666e-02 2.388276e-02 2.100000e-02
      vertex   1.626911e-02 2.375936e-02 2.100000e-02
      vertex   1.619666e-02 2.388276e-02 1.750000e-02
    endloop
  endfacet
  facet normal 8.623573e-01 5.063001e-01 0.000000e+00
    outer loop
      vertex   1.619666e-02 2.388276e-02 1.750000e-02
      vertex   1.626911e-02 2.375936e-02 2.100000e-02
      vertex   1.626911e-02 2.375936e-02 1.750000e-02
    endloop
  endfacet
  facet normal 8.518672e-01 5.237578e-01 0.000000e+00
    outer loop
      vertex   1.619666e-02 2.388276e-02 2.100000e-02
      vertex   1.619666e-02 2.388276e-02 1.750000e-02
      vertex   1.612172e-02 2.400465e-02 1.750000e-02
    endloop
  endfacet
  facet normal 8.518672e-01 5.237578e-01 -0.000000e+00
    outer loop
      vertex   1.612172e-02 2.400465e-02 1.750000e-02
      vertex   1.612172e-02 2.400465e-02 2.100000e-02
      vertex   1.619666e-02 2.388276e-02 2.100000e-02
    endloop
  endfacet
  facet normal 8.518672e-01 5.237578e-01 -0.000000e+00
    outer loop
      vertex   1.619666e-02 2.388276e-02 2.100000e-02
      vertex   1.612172e-02 2.400465e-02 2.100000e-02
      vertex   1.619666e-02 2.388276e-02 2.450000e-02
    endloop
  endfacet
  facet normal 8.369697e-01 5.472492e-01 0.000000e+00
    outer loop
      vertex   1.547360e-02 2.500000e-02 2.800000e-02
      vertex   1.604529e-02 2.412565e-02 2.800000e-02
      vertex   1.547360e-02 2.500000e-02 1.400000e-02
    endloop
  endfacet
  facet normal 8.369697e-01 5.472492e-01 0.000000e+00
    outer loop
      vertex   1.547360e-02 2.500000e-02 1.400000e-02
      vertex   1.604529e-02 2.412565e-02 2.800000e-02
      vertex   1.604529e-02 2.412565e-02 1.400000e-02
    endloop
  endfacet
  facet normal -0.000000e+00 1.000000e+00 0.000000e+00
    outer loop
      vertex   1.500675e-02 2.500000e-02 2.800000e-02
      vertex   1.547360e-02 2.500000e-02 2.800000e-02
      vertex   1.500675e-02 2.500000e-02 1.400000e-02
    endloop
  endfacet
  facet normal 0.000000e+00 1.000000e+00 0.000000e+00
    outer loop
      vertex   1.500675e-02 2.500000e-02 1.400000e-02
      vertex   1.547360e-02 2.500000e-02 2.800000e-02
      vertex   1.547360e-02 2.500000e-02 1.400000e-02
    endloop
  endfacet
  facet normal -8.312928e-01 -5.558347e-01 -0.000000e+00
    outer loop
      vertex   1.612442e-02 2.332844e-02 2.800000e-02
      vertex   1.500675e-02 2.500000e-02 2.800000e-02
      vertex   1.612442e-02 2.332844e-02 1.400000e-02
    endloop
  endfacet
  facet normal -8.312928e-01 -5.558347e-01 0.000000e+00
    outer loop
      vertex   1.612442e-02 2.332844e-02 1.400000e-02
      vertex   1.500675e-02 2.500000e-02 2.800000e-02
      vertex   1.500675e-02 2.500000e-02 1.400000e-02
    endloop
  endfacet
  facet normal -1.000000e+00 0.000000e+00 0.000000e+00
    outer loop
      vertex   1.612442e-02 2.210000e-02 2.800000e-02
      vertex   1.612442e-02 2.332844e-02 2.800000e-02
      vertex   1.612442e-02 2.210000e-02 1.400000e-02
    endloop
  endfacet
  facet normal -1.000000e+00 0.000000e+00 0.000000e+00
    outer loop
      vertex   1.612442e-02 2.210000e-02 1.400000e-02
      vertex   1.612442e-02 2.332844e-02 2.800000e-02
      vertex   1.612442e-02 2.332844e-02 1.400000e-02
    endloop
  endfacet
  facet normal -0.000000e+00 -1.000000e+00 -0.000000e+00
    outer loop
      vertex   1.650818e-02 2.210000e-02 2.800000e-02
      vertex   1.612442e-02 2.210000e-02 2.800000e-02
      vertex   1.650818e-02 2.210000e-02 1.400000e-02
    endloop
  endfacet
  facet normal 0.000000e+00 -1.000000e+00 0.000000e+00
    outer loop
      vertex   1.650818e-02 2.210000e-02 1.400000e-02
      vertex   1.612442e-02 2.210000e-02 2.800000e-02
      vertex   1.612442e-02 2.210000e-02 1.400000e-02
    endloop
  endfacet
  facet normal 0.000000e+00 0.000000e+00 1.000000e+00
    outer loop
      vertex   1.612442e-02 2.210000e-02 2.800000e-02
      vertex   1.650818e-02 2.210000e-02 2.800000e-02
      vertex   1.612442e-02 2.332844e-02 2.800000e-02
    endloop
  endfacet
  facet normal -0.000000e+00 0.000000e+00 1.000000e+00
    outer loop
      vertex   1.612442e-02 2.332844e-02 2.800000e-02
      vertex   1.650818e-02 2.210000e-02 2.800000e-02
      vertex   1.650818e-02 2.332844e-02 2.800000e-02
    endloop
  endfacet
  facet normal 0.000000e+00 0.000000e+00 1.000000e+00
    outer loop
      vertex   1.612442e-02 2.332844e-02 2.800000e-02
      vertex   1.650818e-02 2.332844e-02 2.800000e-02
      vertex   1.634004e-02 2.363506e-02 2.800000e-02
    endloop
  endfacet
  facet normal -2.349165e-14 -1.288248e-14 1.000000e+00
    outer loop
      vertex   1.634004e-02 2.363506e-02 2.800000e-02
      vertex   1.650818e-02 2.332844e-02 2.800000e-02
      vertex   1.641663e-02 2.376471e-02 2.800000e-02
    endloop
  endfacet
  facet normal 4.276820e-14 1.022665e-15 1.000000e+00
    outer loop
      vertex   1.641663e-02 2.376471e-02 2.800000e-02
      vertex   1.650818e-02 2.332844e-02 2.800000e-02
      vertex   1.649467e-02 2.389347e-02 2.800000e-02
    endloop
  endfacet
  facet normal 8.325645e-14 1.990813e-15 1.000000e+00
    outer loop
      vertex   1.649467e-02 2.389347e-02 2.800000e-02
      vertex   1.650818e-02 2.332844e-02 2.800000e-02
      vertex   1.657497e-02 2.402083e-02 2.800000e-02
    endloop
  endfacet
  facet normal -1.183201e-13 2.143484e-14 1.000000e+00
    outer loop
      vertex   1.657497e-02 2.402083e-02 2.800000e-02
      vertex   1.650818e-02 2.332844e-02 2.800000e-02
      vertex   1.665655e-02 2.414741e-02 2.800000e-02
    endloop
  endfacet
  facet normal -0.000000e+00 0.000000e+00 1.000000e+00
    outer loop
      vertex   1.665655e-02 2.414741e-02 2.800000e-02
      vertex   1.650818e-02 2.332844e-02 2.800000e-02
      vertex   1.766542e-02 2.500000e-02 2.800000e-02
    endloop
  endfacet
  facet normal 0.000000e+00 0.000000e+00 1.000000e+00
    outer loop
      vertex   1.665655e-02 2.414741e-02 2.800000e-02
      vertex   1.766542e-02 2.500000e-02 2.800000e-02
      vertex   1.721835e-02 2.500000e-02 2.800000e-02
    endloop
  endfacet
  facet normal 0.000000e+00 0.000000e+00 1.000000e+00
    outer loop
      vertex   1.634004e-02 2.363506e-02 2.800000e-02
      vertex   1.626911e-02 2.375936e-02 2.800000e-02
      vertex   1.612442e-02 2.332844e-02 2.800000e-02
    endloop
  endfacet
  facet normal 0.000000e+00 0.000000e+00 1.000000e+00
    outer loop
      vertex   1.612442e-02 2.332844e-02 2.800000e-02
      vertex   1.626911e-02 2.375936e-02 2.800000e-02
      vertex   1.619666e-02 2.388276e-02 2.800000e-02
    endloop
  endfacet
  facet normal -7.639434e-14 9.956653e-15 1.000000e+00
    outer loop
      vertex   1.612442e-02 2.332844e-02 2.800000e-02
      vertex   1.619666e-02 2.388276e-02 2.800000e-02
      vertex   1.612172e-02 2.400465e-02 2.800000e-02
    endloop
  endfacet
  facet normal 1.077164e-13 1.069147e-14 1.000000e+00
    outer loop
      vertex   1.612172e-02 2.400465e-02 2.800000e-02
      vertex   1.604529e-02 2.412565e-02 2.800000e-02
      vertex   1.612442e-02 2.332844e-02 2.800000e-02
    endloop
  endfacet
  facet normal 0.000000e+00 0.000000e+00 1.000000e+00
    outer loop
      vertex   1.612442e-02 2.332844e-02 2.800000e-02
      vertex   1.604529e-02 2.412565e-02 2.800000e-02
      vertex   1.500675e-02 2.500000e-02 2.800000e-02
    endloop
  endfacet
  facet normal -0.000000e+00 0.000000e+00 1.000000e+00
    outer loop
      vertex   1.500675e-02 2.500000e-02 2.800000e-02
      vertex   1.604529e-02 2.412565e-02 2.800000e-02
      vertex   1.547360e-02 2.500000e-02 2.800000e-02
    endloop
  endfacet
  facet normal 0.000000e+00 0.000000e+00 -1.000000e+00
    outer loop
      vertex   1.650818e-02 2.210000e-02 1.400000e-02
      vertex   1.612442e-02 2.210000e-02 1.400000e-02
      vertex   1.650818e-02 2.332844e-02 1.400000e-02
    endloop
  endfacet
  facet normal -0.000000e+00 0.000000e+00 -1.000000e+00
    outer loop
      vertex   1.650818e-02 2.332844e-02 1.400000e-02
      vertex   1.612442e-02 2.210000e-02 1.400000e-02
      vertex   1.612442e-02 2.332844e-02 1.400000e-02
    endloop
  endfacet
  facet normal 0.000000e+00 0.000000e+00 -1.000000e+00
    outer loop
      vertex   1.650818e-02 2.332844e-02 1.400000e-02
      vertex   1.612442e-02 2.332844e-02 1.400000e-02
      vertex   1.634004e-02 2.363506e-02 1.400000e-02
    endloop
  endfacet
  facet normal -0.000000e+00 0.000000e+00 -1.000000e+00
    outer loop
      vertex   1.634004e-02 2.363506e-02 1.400000e-02
      vertex   1.612442e-02 2.332844e-02 1.400000e-02
      vertex   1.626911e-02 2.375936e-02 1.400000e-02
    endloop
  endfacet
  facet normal -0.000000e+00 0.000000e+00 -1.000000e+00
    outer loop
      vertex   1.626911e-02 2.375936e-02 1.400000e-02
      vertex   1.612442e-02 2.332844e-02 1.400000e-02
      vertex   1.619666e-02 2.388276e-02 1.400000e-02
    endloop
  endfacet
  facet normal 3.819717e-14 -4.978327e-15 -1.000000e+00
    outer loop
      vertex   1.619666e-02 2.388276e-02 1.400000e-02
      vertex   1.612442e-02 2.332844e-02 1.400000e-02
      vertex   1.612172e-02 2.400465e-02 1.400000e-02
    endloop
  endfacet
  facet normal -5.385822e-14 -5.345734e-15 -1.000000e+00
    outer loop
      vertex   1.612172e-02 2.400465e-02 1.400000e-02
      vertex   1.612442e-02 2.332844e-02 1.400000e-02
      vertex   1.604529e-02 2.412565e-02 1.400000e-02
    endloop
  endfacet
  facet normal -0.000000e+00 -0.000000e+00 -1.000000e+00
    outer loop
      vertex   1.604529e-02 2.412565e-02 1.400000e-02
      vertex   1.612442e-02 2.332844e-02 1.400000e-02
      vertex   1.500675e-02 2.500000e-02 1.400000e-02
    endloop
  endfacet
  facet normal 0.000000e+00 0.000000e+00 -1.000000e+00
    outer loop
      vertex   1.604529e-02 2.412565e-02 1.400000e-02
      vertex   1.500675e-02 2.500000e-02 1.400000e-02
      vertex   1.547360e-02 2.500000e-02 1.400000e-02
    endloop
  endfacet
  facet normal 1.174583e-14 6.441239e-15 -1.000000e+00
    outer loop
      vertex   1.634004e-02 2.363506e-02 1.400000e-02
      vertex   1.641663e-02 2.376471e-02 1.400000e-02
      vertex   1.650818e-02 2.332844e-02 1.400000e-02
    endloop
  endfacet
  facet normal -2.138410e-14 -5.113326e-16 -1.000000e+00
    outer loop
      vertex   1.650818e-02 2.332844e-02 1.400000e-02
      vertex   1.641663e-02 2.376471e-02 1.400000e-02
      vertex   1.649467e-02 2.389347e-02 1.400000e-02
    endloop
  endfacet
  facet normal -4.162823e-14 -9.954065e-16 -1.000000e+00
    outer loop
      vertex   1.650818e-02 2.332844e-02 1.400000e-02
      vertex   1.649467e-02 2.389347e-02 1.400000e-02
      vertex   1.657497e-02 2.402083e-02 1.400000e-02
    endloop
  endfacet
  facet normal 5.916006e-14 -1.071742e-14 -1.000000e+00
    outer loop
      vertex   1.657497e-02 2.402083e-02 1.400000e-02
      vertex   1.665655e-02 2.414741e-02 1.400000e-02
      vertex   1.650818e-02 2.332844e-02 1.400000e-02
    endloop
  endfacet
  facet normal 0.000000e+00 0.000000e+00 -1.000000e+00
    outer loop
      vertex   1.650818e-02 2.332844e-02 1.400000e-02
      vertex   1.665655e-02 2.414741e-02 1.400000e-02
      vertex   1.766542e-02 2.500000e-02 1.400000e-02
    endloop
  endfacet
  facet normal -0.000000e+00 0.000000e+00 -1.000000e+00
    outer loop
      vertex   1.766542e-02 2.500000e-02 1.400000e-02
      vertex   1.665655e-02 2.414741e-02 1.400000e-02
      vertex   1.721835e-02 2.500000e-02 1.400000e-02
    endloop
  endfacet
endsolid
