solid ASCII
  facet normal 1.000000e+00 0.000000e+00 0.000000e+00
    outer loop
      vertex   6.744808e-02 2.244222e-02 2.800000e-02
      vertex   6.744808e-02 2.210000e-02 2.800000e-02
      vertex   6.744808e-02 2.244222e-02 1.400000e-02
    endloop
  endfacet
  facet normal 1.000000e+00 0.000000e+00 0.000000e+00
    outer loop
      vertex   6.744808e-02 2.244222e-02 1.400000e-02
      vertex   6.744808e-02 2.210000e-02 2.800000e-02
      vertex   6.744808e-02 2.210000e-02 1.400000e-02
    endloop
  endfacet
  facet normal -0.000000e+00 1.000000e+00 0.000000e+00
    outer loop
      vertex   6.601984e-02 2.244222e-02 2.800000e-02
      vertex   6.744808e-02 2.244222e-02 2.800000e-02
      vertex   6.601984e-02 2.244222e-02 1.400000e-02
    endloop
  endfacet
  facet normal 0.000000e+00 1.000000e+00 0.000000e+00
    outer loop
      vertex   6.601984e-02 2.244222e-02 1.400000e-02
      vertex   6.744808e-02 2.244222e-02 2.800000e-02
      vertex   6.744808e-02 2.244222e-02 1.400000e-02
    endloop
  endfacet
  facet normal 1.000000e+00 0.000000e+00 0.000000e+00
    outer loop
      vertex   6.601984e-02 2.500000e-02 2.800000e-02
      vertex   6.601984e-02 2.244222e-02 2.800000e-02
      vertex   6.601984e-02 2.500000e-02 1.400000e-02
    endloop
  endfacet
  facet normal 1.000000e+00 0.000000e+00 0.000000e+00
    outer loop
      vertex   6.601984e-02 2.500000e-02 1.400000e-02
      vertex   6.601984e-02 2.244222e-02 2.800000e-02
      vertex   6.601984e-02 2.244222e-02 1.400000e-02
    endloop
  endfacet
  facet normal -0.000000e+00 1.000000e+00 0.000000e+00
    outer loop
      vertex   6.563608e-02 2.500000e-02 2.800000e-02
      vertex   6.601984e-02 2.500000e-02 2.800000e-02
      vertex   6.563608e-02 2.500000e-02 1.400000e-02
    endloop
  endfacet
  facet normal 0.000000e+00 1.000000e+00 0.000000e+00
    outer loop
      vertex   6.563608e-02 2.500000e-02 1.400000e-02
      vertex   6.601984e-02 2.500000e-02 2.800000e-02
      vertex   6.601984e-02 2.500000e-02 1.400000e-02
    endloop
  endfacet
  facet normal -1.000000e+00 0.000000e+00 0.000000e+00
    outer loop
      vertex   6.563608e-02 2.210000e-02 2.800000e-02
      vertex   6.563608e-02 2.500000e-02 2.800000e-02
      vertex   6.563608e-02 2.210000e-02 1.400000e-02
    endloop
  endfacet
  facet normal -1.000000e+00 0.000000e+00 0.000000e+00
    outer loop
      vertex   6.563608e-02 2.210000e-02 1.400000e-02
      vertex   6.563608e-02 2.500000e-02 2.800000e-02
      vertex   6.563608e-02 2.500000e-02 1.400000e-02
    endloop
  endfacet
  facet normal -0.000000e+00 -1.000000e+00 -0.000000e+00
    outer loop
      vertex   6.744808e-02 2.210000e-02 2.800000e-02
      vertex   6.563608e-02 2.210000e-02 2.800000e-02
      vertex   6.744808e-02 2.210000e-02 1.400000e-02
    endloop
  endfacet
  facet normal 0.000000e+00 -1.000000e+00 0.000000e+00
    outer loop
      vertex   6.744808e-02 2.210000e-02 1.400000e-02
      vertex   6.563608e-02 2.210000e-02 2.800000e-02
      vertex   6.563608e-02 2.210000e-02 1.400000e-02
    endloop
  endfacet
  facet normal 0.000000e+00 0.000000e+00 1.000000e+00
    outer loop
      vertex   6.563608e-02 2.500000e-02 2.800000e-02
      vertex   6.563608e-02 2.210000e-02 2.800000e-02
      vertex   6.601984e-02 2.244222e-02 2.800000e-02
    endloop
  endfacet
  facet normal 0.000000e+00 0.000000e+00 1.000000e+00
    outer loop
      vertex   6.601984e-02 2.244222e-02 2.800000e-02
      vertex   6.563608e-02 2.210000e-02 2.800000e-02
      vertex   6.744808e-02 2.210000e-02 2.800000e-02
    endloop
  endfacet
  facet normal -0.000000e+00 0.000000e+00 1.000000e+00
    outer loop
      vertex   6.601984e-02 2.244222e-02 2.800000e-02
      vertex   6.744808e-02 2.210000e-02 2.800000e-02
      vertex   6.744808e-02 2.244222e-02 2.800000e-02
    endloop
  endfacet
  facet normal 0.000000e+00 -0.000000e+00 1.000000e+00
    outer loop
      vertex   6.601984e-02 2.244222e-02 2.800000e-02
      vertex   6.601984e-02 2.500000e-02 2.800000e-02
      vertex   6.563608e-02 2.500000e-02 2.800000e-02
    endloop
  endfacet
  facet normal -0.000000e+00 -0.000000e+00 -1.000000e+00
    outer loop
      vertex   6.744808e-02 2.244222e-02 1.400000e-02
      vertex   6.744808e-02 2.210000e-02 1.400000e-02
      vertex   6.601984e-02 2.244222e-02 1.400000e-02
    endloop
  endfacet
  facet normal 0.000000e+00 -0.000000e+00 -1.000000e+00
    outer loop
      vertex   6.601984e-02 2.244222e-02 1.400000e-02
      vertex   6.744808e-02 2.210000e-02 1.400000e-02
      vertex   6.563608e-02 2.210000e-02 1.400000e-02
    endloop
  endfacet
  facet normal -0.000000e+00 0.000000e+00 -1.000000e+00
    outer loop
      vertex   6.601984e-02 2.244222e-02 1.400000e-02
      vertex   6.563608e-02 2.210000e-02 1.400000e-02
      vertex   6.563608e-02 2.500000e-02 1.400000e-02
    endloop
  endfacet
  facet normal 0.000000e+00 0.000000e+00 -1.000000e+00
    outer loop
      vertex   6.563608e-02 2.500000e-02 1.400000e-02
      vertex   6.601984e-02 2.500000e-02 1.400000e-02
      vertex   6.601984e-02 2.244222e-02 1.400000e-02
    endloop
  endfacet
endsolid
