solid ASCII
  facet normal 1.000000e+00 0.000000e+00 0.000000e+00
    outer loop
      vertex   1.153290e-01 3.578104e-02 2.800000e-02
      vertex   1.153290e-01 3.525000e-02 2.800000e-02
      vertex   1.153290e-01 3.578104e-02 1.400000e-02
    endloop
  endfacet
  facet normal 1.000000e+00 0.000000e+00 0.000000e+00
    outer loop
      vertex   1.153290e-01 3.578104e-02 1.400000e-02
      vertex   1.153290e-01 3.525000e-02 2.800000e-02
      vertex   1.153290e-01 3.525000e-02 1.400000e-02
    endloop
  endfacet
  facet normal -0.000000e+00 1.000000e+00 0.000000e+00
    outer loop
      vertex   1.131127e-01 3.578104e-02 2.800000e-02
      vertex   1.153290e-01 3.578104e-02 2.800000e-02
      vertex   1.131127e-01 3.578104e-02 1.400000e-02
    endloop
  endfacet
  facet normal 0.000000e+00 1.000000e+00 0.000000e+00
    outer loop
      vertex   1.131127e-01 3.578104e-02 1.400000e-02
      vertex   1.153290e-01 3.578104e-02 2.800000e-02
      vertex   1.153290e-01 3.578104e-02 1.400000e-02
    endloop
  endfacet
  facet normal 1.000000e+00 0.000000e+00 0.000000e+00
    outer loop
      vertex   1.131127e-01 3.975000e-02 2.800000e-02
      vertex   1.131127e-01 3.578104e-02 2.800000e-02
      vertex   1.131127e-01 3.975000e-02 1.400000e-02
    endloop
  endfacet
  facet normal 1.000000e+00 0.000000e+00 0.000000e+00
    outer loop
      vertex   1.131127e-01 3.975000e-02 1.400000e-02
      vertex   1.131127e-01 3.578104e-02 2.800000e-02
      vertex   1.131127e-01 3.578104e-02 1.400000e-02
    endloop
  endfacet
  facet normal -0.000000e+00 1.000000e+00 0.000000e+00
    outer loop
      vertex   1.125172e-01 3.975000e-02 2.800000e-02
      vertex   1.131127e-01 3.975000e-02 2.800000e-02
      vertex   1.125172e-01 3.975000e-02 1.400000e-02
    endloop
  endfacet
  facet normal 0.000000e+00 1.000000e+00 0.000000e+00
    outer loop
      vertex   1.125172e-01 3.975000e-02 1.400000e-02
      vertex   1.131127e-01 3.975000e-02 2.800000e-02
      vertex   1.131127e-01 3.975000e-02 1.400000e-02
    endloop
  endfacet
  facet normal -1.000000e+00 0.000000e+00 0.000000e+00
    outer loop
      vertex   1.125172e-01 3.525000e-02 2.800000e-02
      vertex   1.125172e-01 3.975000e-02 2.800000e-02
      vertex   1.125172e-01 3.525000e-02 1.400000e-02
    endloop
  endfacet
  facet normal -1.000000e+00 0.000000e+00 0.000000e+00
    outer loop
      vertex   1.125172e-01 3.525000e-02 1.400000e-02
      vertex   1.125172e-01 3.975000e-02 2.800000e-02
      vertex   1.125172e-01 3.975000e-02 1.400000e-02
    endloop
  endfacet
  facet normal -0.000000e+00 -1.000000e+00 -0.000000e+00
    outer loop
      vertex   1.153290e-01 3.525000e-02 2.800000e-02
      vertex   1.125172e-01 3.525000e-02 2.800000e-02
      vertex   1.153290e-01 3.525000e-02 1.400000e-02
    endloop
  endfacet
  facet normal 0.000000e+00 -1.000000e+00 0.000000e+00
    outer loop
      vertex   1.153290e-01 3.525000e-02 1.400000e-02
      vertex   1.125172e-01 3.525000e-02 2.800000e-02
      vertex   1.125172e-01 3.525000e-02 1.400000e-02
    endloop
  endfacet
  facet normal 0.000000e+00 0.000000e+00 1.000000e+00
    outer loop
      vertex   1.125172e-01 3.975000e-02 2.800000e-02
      vertex   1.125172e-01 3.525000e-02 2.800000e-02
      vertex   1.131127e-01 3.578104e-02 2.800000e-02
    endloop
  endfacet
  facet normal 0.000000e+00 0.000000e+00 1.000000e+00
    outer loop
      vertex   1.131127e-01 3.578104e-02 2.800000e-02
      vertex   1.125172e-01 3.525000e-02 2.800000e-02
      vertex   1.153290e-01 3.525000e-02 2.800000e-02
    endloop
  endfacet
  facet normal -0.000000e+00 0.000000e+00 1.000000e+00
    outer loop
      vertex   1.131127e-01 3.578104e-02 2.800000e-02
      vertex   1.153290e-01 3.525000e-02 2.800000e-02
      vertex   1.153290e-01 3.578104e-02 2.800000e-02
    endloop
  endfacet
  facet normal 0.000000e+00 -0.000000e+00 1.000000e+00
    outer loop
      vertex   1.131127e-01 3.578104e-02 2.800000e-02
      vertex   1.131127e-01 3.975000e-02 2.800000e-02
      vertex   1.125172e-01 3.975000e-02 2.800000e-02
    endloop
  endfacet
  facet normal -0.000000e+00 -0.000000e+00 -1.000000e+00
    outer loop
      vertex   1.153290e-01 3.578104e-02 1.400000e-02
      vertex   1.153290e-01 3.525000e-02 1.400000e-02
      vertex   1.131127e-01 3.578104e-02 1.400000e-02
    endloop
  endfacet
  facet normal 0.000000e+00 -0.000000e+00 -1.000000e+00
    outer loop
      vertex   1.131127e-01 3.578104e-02 1.400000e-02
      vertex   1.153290e-01 3.525000e-02 1.400000e-02
      vertex   1.125172e-01 3.525000e-02 1.400000e-02
    endloop
  endfacet
  facet normal -0.000000e+00 0.000000e+00 -1.000000e+00
    outer loop
      vertex   1.131127e-01 3.578104e-02 1.400000e-02
      vertex   1.125172e-01 3.525000e-02 1.400000e-02
      vertex   1.125172e-01 3.975000e-02 1.400000e-02
    endloop
  endfacet
  facet normal 0.000000e+00 0.000000e+00 -1.000000e+00
    outer loop
      vertex   1.125172e-01 3.975000e-02 1.400000e-02
      vertex   1.131127e-01 3.975000e-02 1.400000e-02
      vertex   1.131127e-01 3.578104e-02 1.400000e-02
    endloop
  endfacet
endsolid
