solid ASCII
  facet normal 9.756038e-01 -2.195387e-01 -5.802524e-15
    outer loop
      vertex   4.275773e-02 9.570145e-03 2.800000e-02
      vertex   4.275773e-02 9.570145e-03 2.450000e-02
      vertex   4.278827e-02 9.705866e-03 2.800000e-02
    endloop
  endfacet
  facet normal 9.756038e-01 -2.195387e-01 0.000000e+00
    outer loop
      vertex   4.278827e-02 9.705866e-03 2.800000e-02
      vertex   4.275773e-02 9.570145e-03 2.450000e-02
      vertex   4.275773e-02 9.570145e-03 2.100000e-02
    endloop
  endfacet
  facet normal 9.756038e-01 -2.195387e-01 0.000000e+00
    outer loop
      vertex   4.278827e-02 9.705866e-03 2.800000e-02
      vertex   4.275773e-02 9.570145e-03 2.100000e-02
      vertex   4.278827e-02 9.705866e-03 1.400000e-02
    endloop
  endfacet
  facet normal 9.756038e-01 -2.195387e-01 0.000000e+00
    outer loop
      vertex   4.278827e-02 9.705866e-03 1.400000e-02
      vertex   4.275773e-02 9.570145e-03 2.100000e-02
      vertex   4.275773e-02 9.570145e-03 1.750000e-02
    endloop
  endfacet
  facet normal 9.756038e-01 -2.195387e-01 5.803323e-15
    outer loop
      vertex   4.278827e-02 9.705866e-03 1.400000e-02
      vertex   4.275773e-02 9.570145e-03 1.750000e-02
      vertex   4.275773e-02 9.570145e-03 1.400000e-02
    endloop
  endfacet
  facet normal 9.687268e-01 -2.481296e-01 5.761622e-15
    outer loop
      vertex   4.275773e-02 9.570145e-03 1.400000e-02
      vertex   4.275773e-02 9.570145e-03 1.750000e-02
      vertex   4.272325e-02 9.435534e-03 1.750000e-02
    endloop
  endfacet
  facet normal 9.687268e-01 -2.481296e-01 -1.920202e-15
    outer loop
      vertex   4.275773e-02 9.570145e-03 1.400000e-02
      vertex   4.272325e-02 9.435534e-03 1.750000e-02
      vertex   4.272325e-02 9.435534e-03 1.400000e-02
    endloop
  endfacet
  facet normal 9.554957e-01 -2.950051e-01 -1.894309e-15
    outer loop
      vertex   4.272325e-02 9.435534e-03 1.400000e-02
      vertex   4.272325e-02 9.435534e-03 1.750000e-02
      vertex   4.268225e-02 9.302759e-03 1.750000e-02
    endloop
  endfacet
  facet normal 9.554957e-01 -2.950051e-01 -2.925317e-16
    outer loop
      vertex   4.272325e-02 9.435534e-03 1.400000e-02
      vertex   4.268225e-02 9.302759e-03 1.750000e-02
      vertex   4.268225e-02 9.302759e-03 1.400000e-02
    endloop
  endfacet
  facet normal 9.465486e-01 -3.225612e-01 -3.197454e-16
    outer loop
      vertex   4.268225e-02 9.302759e-03 1.400000e-02
      vertex   4.268225e-02 9.302759e-03 1.750000e-02
      vertex   4.263738e-02 9.171078e-03 1.400000e-02
    endloop
  endfacet
  facet normal 9.465486e-01 -3.225612e-01 0.000000e+00
    outer loop
      vertex   4.263738e-02 9.171078e-03 1.400000e-02
      vertex   4.268225e-02 9.302759e-03 1.750000e-02
      vertex   4.268225e-02 9.302759e-03 2.100000e-02
    endloop
  endfacet
  facet normal 9.465486e-01 -3.225612e-01 0.000000e+00
    outer loop
      vertex   4.263738e-02 9.171078e-03 1.400000e-02
      vertex   4.268225e-02 9.302759e-03 2.100000e-02
      vertex   4.263738e-02 9.171078e-03 2.800000e-02
    endloop
  endfacet
  facet normal 9.465486e-01 -3.225612e-01 0.000000e+00
    outer loop
      vertex   4.263738e-02 9.171078e-03 2.800000e-02
      vertex   4.268225e-02 9.302759e-03 2.100000e-02
      vertex   4.268225e-02 9.302759e-03 2.450000e-02
    endloop
  endfacet
  facet normal 9.465486e-01 -3.225612e-01 3.193805e-16
    outer loop
      vertex   4.263738e-02 9.171078e-03 2.800000e-02
      vertex   4.268225e-02 9.302759e-03 2.450000e-02
      vertex   4.268225e-02 9.302759e-03 2.800000e-02
    endloop
  endfacet
  facet normal 9.554957e-01 -2.950051e-01 2.924298e-16
    outer loop
      vertex   4.268225e-02 9.302759e-03 2.800000e-02
      vertex   4.268225e-02 9.302759e-03 2.450000e-02
      vertex   4.272325e-02 9.435534e-03 2.450000e-02
    endloop
  endfacet
  facet normal 9.554957e-01 -2.950051e-01 1.894653e-15
    outer loop
      vertex   4.268225e-02 9.302759e-03 2.800000e-02
      vertex   4.272325e-02 9.435534e-03 2.450000e-02
      vertex   4.272325e-02 9.435534e-03 2.800000e-02
    endloop
  endfacet
  facet normal 9.687268e-01 -2.481296e-01 1.920541e-15
    outer loop
      vertex   4.272325e-02 9.435534e-03 2.800000e-02
      vertex   4.272325e-02 9.435534e-03 2.450000e-02
      vertex   4.275773e-02 9.570145e-03 2.450000e-02
    endloop
  endfacet
  facet normal 9.687268e-01 -2.481296e-01 -5.762307e-15
    outer loop
      vertex   4.272325e-02 9.435534e-03 2.800000e-02
      vertex   4.275773e-02 9.570145e-03 2.450000e-02
      vertex   4.275773e-02 9.570145e-03 2.800000e-02
    endloop
  endfacet
  facet normal 9.687268e-01 -2.481296e-01 0.000000e+00
    outer loop
      vertex   4.275773e-02 9.570145e-03 2.100000e-02
      vertex   4.275773e-02 9.570145e-03 2.450000e-02
      vertex   4.272325e-02 9.435534e-03 2.450000e-02
    endloop
  endfacet
  facet normal 9.554957e-01 -2.950051e-01 0.000000e+00
    outer loop
      vertex   4.272325e-02 9.435534e-03 2.450000e-02
      vertex   4.268225e-02 9.302759e-03 2.450000e-02
      vertex   4.272325e-02 9.435534e-03 2.100000e-02
    endloop
  endfacet
  facet normal 9.554957e-01 -2.950051e-01 0.000000e+00
    outer loop
      vertex   4.272325e-02 9.435534e-03 2.100000e-02
      vertex   4.268225e-02 9.302759e-03 2.450000e-02
      vertex   4.268225e-02 9.302759e-03 2.100000e-02
    endloop
  endfacet
  facet normal 9.554957e-01 -2.950051e-01 0.000000e+00
    outer loop
      vertex   4.272325e-02 9.435534e-03 2.100000e-02
      vertex   4.268225e-02 9.302759e-03 2.100000e-02
      vertex   4.272325e-02 9.435534e-03 1.750000e-02
    endloop
  endfacet
  facet normal 9.554957e-01 -2.950051e-01 0.000000e+00
    outer loop
      vertex   4.272325e-02 9.435534e-03 1.750000e-02
      vertex   4.268225e-02 9.302759e-03 2.100000e-02
      vertex   4.268225e-02 9.302759e-03 1.750000e-02
    endloop
  endfacet
  facet normal 9.687268e-01 -2.481296e-01 0.000000e+00
    outer loop
      vertex   4.272325e-02 9.435534e-03 2.100000e-02
      vertex   4.272325e-02 9.435534e-03 1.750000e-02
      vertex   4.275773e-02 9.570145e-03 1.750000e-02
    endloop
  endfacet
  facet normal 9.687268e-01 -2.481296e-01 0.000000e+00
    outer loop
      vertex   4.275773e-02 9.570145e-03 1.750000e-02
      vertex   4.275773e-02 9.570145e-03 2.100000e-02
      vertex   4.272325e-02 9.435534e-03 2.100000e-02
    endloop
  endfacet
  facet normal 9.687268e-01 -2.481296e-01 0.000000e+00
    outer loop
      vertex   4.272325e-02 9.435534e-03 2.100000e-02
      vertex   4.275773e-02 9.570145e-03 2.100000e-02
      vertex   4.272325e-02 9.435534e-03 2.450000e-02
    endloop
  endfacet
  facet normal -9.372076e-01 -3.487719e-01 -0.000000e+00
    outer loop
      vertex   4.293337e-02 9.269082e-03 2.800000e-02
      vertex   4.293337e-02 9.269082e-03 2.333333e-02
      vertex   4.298690e-02 9.125239e-03 2.800000e-02
    endloop
  endfacet
  facet normal -9.372076e-01 -3.487719e-01 0.000000e+00
    outer loop
      vertex   4.298690e-02 9.125239e-03 2.800000e-02
      vertex   4.293337e-02 9.269082e-03 2.333333e-02
      vertex   4.293337e-02 9.269082e-03 1.866667e-02
    endloop
  endfacet
  facet normal -9.372076e-01 -3.487719e-01 -0.000000e+00
    outer loop
      vertex   4.298690e-02 9.125239e-03 2.800000e-02
      vertex   4.293337e-02 9.269082e-03 1.866667e-02
      vertex   4.298690e-02 9.125239e-03 1.400000e-02
    endloop
  endfacet
  facet normal -9.372076e-01 -3.487719e-01 0.000000e+00
    outer loop
      vertex   4.298690e-02 9.125239e-03 1.400000e-02
      vertex   4.293337e-02 9.269082e-03 1.866667e-02
      vertex   4.293337e-02 9.269082e-03 1.400000e-02
    endloop
  endfacet
  facet normal -9.418177e-01 -3.361240e-01 0.000000e+00
    outer loop
      vertex   4.293337e-02 9.269082e-03 1.400000e-02
      vertex   4.293337e-02 9.269082e-03 1.866667e-02
      vertex   4.288180e-02 9.413589e-03 1.866667e-02
    endloop
  endfacet
  facet normal -9.418177e-01 -3.361240e-01 1.247657e-16
    outer loop
      vertex   4.293337e-02 9.269082e-03 1.400000e-02
      vertex   4.288180e-02 9.413589e-03 1.866667e-02
      vertex   4.288180e-02 9.413589e-03 1.400000e-02
    endloop
  endfacet
  facet normal -9.498082e-01 -3.128329e-01 1.162883e-16
    outer loop
      vertex   4.288180e-02 9.413589e-03 1.400000e-02
      vertex   4.288180e-02 9.413589e-03 1.866667e-02
      vertex   4.283381e-02 9.559310e-03 1.866667e-02
    endloop
  endfacet
  facet normal -9.498082e-01 -3.128329e-01 -1.412966e-15
    outer loop
      vertex   4.288180e-02 9.413589e-03 1.400000e-02
      vertex   4.283381e-02 9.559310e-03 1.866667e-02
      vertex   4.283381e-02 9.559310e-03 1.400000e-02
    endloop
  endfacet
  facet normal -9.549623e-01 -2.967271e-01 -1.419939e-15
    outer loop
      vertex   4.283381e-02 9.559310e-03 1.400000e-02
      vertex   4.283381e-02 9.559310e-03 1.866667e-02
      vertex   4.278827e-02 9.705866e-03 1.400000e-02
    endloop
  endfacet
  facet normal -9.549623e-01 -2.967271e-01 0.000000e+00
    outer loop
      vertex   4.278827e-02 9.705866e-03 1.400000e-02
      vertex   4.283381e-02 9.559310e-03 1.866667e-02
      vertex   4.283381e-02 9.559310e-03 2.333333e-02
    endloop
  endfacet
  facet normal -9.549623e-01 -2.967271e-01 0.000000e+00
    outer loop
      vertex   4.278827e-02 9.705866e-03 1.400000e-02
      vertex   4.283381e-02 9.559310e-03 2.333333e-02
      vertex   4.278827e-02 9.705866e-03 2.800000e-02
    endloop
  endfacet
  facet normal -9.549623e-01 -2.967271e-01 1.419476e-15
    outer loop
      vertex   4.278827e-02 9.705866e-03 2.800000e-02
      vertex   4.283381e-02 9.559310e-03 2.333333e-02
      vertex   4.283381e-02 9.559310e-03 2.800000e-02
    endloop
  endfacet
  facet normal -9.498082e-01 -3.128329e-01 1.412275e-15
    outer loop
      vertex   4.283381e-02 9.559310e-03 2.800000e-02
      vertex   4.283381e-02 9.559310e-03 2.333333e-02
      vertex   4.288180e-02 9.413589e-03 2.333333e-02
    endloop
  endfacet
  facet normal -9.498082e-01 -3.128329e-01 0.000000e+00
    outer loop
      vertex   4.283381e-02 9.559310e-03 2.800000e-02
      vertex   4.288180e-02 9.413589e-03 2.333333e-02
      vertex   4.288180e-02 9.413589e-03 2.800000e-02
    endloop
  endfacet
  facet normal -9.418177e-01 -3.361240e-01 -0.000000e+00
    outer loop
      vertex   4.288180e-02 9.413589e-03 2.800000e-02
      vertex   4.288180e-02 9.413589e-03 2.333333e-02
      vertex   4.293337e-02 9.269082e-03 2.333333e-02
    endloop
  endfacet
  facet normal -9.418177e-01 -3.361240e-01 0.000000e+00
    outer loop
      vertex   4.288180e-02 9.413589e-03 2.800000e-02
      vertex   4.293337e-02 9.269082e-03 2.333333e-02
      vertex   4.293337e-02 9.269082e-03 2.800000e-02
    endloop
  endfacet
  facet normal -9.418177e-01 -3.361240e-01 0.000000e+00
    outer loop
      vertex   4.293337e-02 9.269082e-03 1.866667e-02
      vertex   4.293337e-02 9.269082e-03 2.333333e-02
      vertex   4.288180e-02 9.413589e-03 2.333333e-02
    endloop
  endfacet
  facet normal -9.498082e-01 -3.128329e-01 0.000000e+00
    outer loop
      vertex   4.283381e-02 9.559310e-03 1.866667e-02
      vertex   4.288180e-02 9.413589e-03 1.866667e-02
      vertex   4.283381e-02 9.559310e-03 2.333333e-02
    endloop
  endfacet
  facet normal -9.498082e-01 -3.128329e-01 -1.166881e-16
    outer loop
      vertex   4.283381e-02 9.559310e-03 2.333333e-02
      vertex   4.288180e-02 9.413589e-03 1.866667e-02
      vertex   4.288180e-02 9.413589e-03 2.333333e-02
    endloop
  endfacet
  facet normal -9.418177e-01 -3.361240e-01 -1.249462e-16
    outer loop
      vertex   4.288180e-02 9.413589e-03 1.866667e-02
      vertex   4.293337e-02 9.269082e-03 1.866667e-02
      vertex   4.288180e-02 9.413589e-03 2.333333e-02
    endloop
  endfacet
  facet normal -9.357601e-01 -3.526371e-01 -0.000000e+00
    outer loop
      vertex   4.327913e-02 8.349795e-03 2.800000e-02
      vertex   4.298690e-02 9.125239e-03 2.800000e-02
      vertex   4.327913e-02 8.349795e-03 1.400000e-02
    endloop
  endfacet
  facet normal -9.357601e-01 -3.526371e-01 0.000000e+00
    outer loop
      vertex   4.327913e-02 8.349795e-03 1.400000e-02
      vertex   4.298690e-02 9.125239e-03 2.800000e-02
      vertex   4.298690e-02 9.125239e-03 1.400000e-02
    endloop
  endfacet
  facet normal -0.000000e+00 1.000000e+00 0.000000e+00
    outer loop
      vertex   4.232988e-02 8.349795e-03 2.800000e-02
      vertex   4.327913e-02 8.349795e-03 2.800000e-02
      vertex   4.232988e-02 8.349795e-03 1.400000e-02
    endloop
  endfacet
  facet normal 0.000000e+00 1.000000e+00 0.000000e+00
    outer loop
      vertex   4.232988e-02 8.349795e-03 1.400000e-02
      vertex   4.327913e-02 8.349795e-03 2.800000e-02
      vertex   4.327913e-02 8.349795e-03 1.400000e-02
    endloop
  endfacet
  facet normal 9.365083e-01 -3.506454e-01 0.000000e+00
    outer loop
      vertex   4.263738e-02 9.171078e-03 2.800000e-02
      vertex   4.232988e-02 8.349795e-03 2.800000e-02
      vertex   4.263738e-02 9.171078e-03 1.400000e-02
    endloop
  endfacet
  facet normal 9.365083e-01 -3.506454e-01 0.000000e+00
    outer loop
      vertex   4.263738e-02 9.171078e-03 1.400000e-02
      vertex   4.232988e-02 8.349795e-03 2.800000e-02
      vertex   4.232988e-02 8.349795e-03 1.400000e-02
    endloop
  endfacet
  facet normal 9.401024e-01 -3.408923e-01 0.000000e+00
    outer loop
      vertex   4.222292e-02 8.048022e-03 2.800000e-02
      vertex   4.191542e-02 7.200000e-03 2.800000e-02
      vertex   4.222292e-02 8.048022e-03 1.400000e-02
    endloop
  endfacet
  facet normal 9.401024e-01 -3.408923e-01 0.000000e+00
    outer loop
      vertex   4.222292e-02 8.048022e-03 1.400000e-02
      vertex   4.191542e-02 7.200000e-03 2.800000e-02
      vertex   4.191542e-02 7.200000e-03 1.400000e-02
    endloop
  endfacet
  facet normal -0.000000e+00 -1.000000e+00 -0.000000e+00
    outer loop
      vertex   4.339372e-02 8.048022e-03 2.800000e-02
      vertex   4.222292e-02 8.048022e-03 2.800000e-02
      vertex   4.339372e-02 8.048022e-03 1.400000e-02
    endloop
  endfacet
  facet normal 0.000000e+00 -1.000000e+00 0.000000e+00
    outer loop
      vertex   4.339372e-02 8.048022e-03 1.400000e-02
      vertex   4.222292e-02 8.048022e-03 2.800000e-02
      vertex   4.222292e-02 8.048022e-03 1.400000e-02
    endloop
  endfacet
  facet normal -9.331832e-01 -3.594011e-01 -0.000000e+00
    outer loop
      vertex   4.372033e-02 7.200000e-03 2.800000e-02
      vertex   4.339372e-02 8.048022e-03 2.800000e-02
      vertex   4.372033e-02 7.200000e-03 1.400000e-02
    endloop
  endfacet
  facet normal -9.331832e-01 -3.594011e-01 0.000000e+00
    outer loop
      vertex   4.372033e-02 7.200000e-03 1.400000e-02
      vertex   4.339372e-02 8.048022e-03 2.800000e-02
      vertex   4.339372e-02 8.048022e-03 1.400000e-02
    endloop
  endfacet
  facet normal -0.000000e+00 -1.000000e+00 -0.000000e+00
    outer loop
      vertex   4.414243e-02 7.200000e-03 2.800000e-02
      vertex   4.372033e-02 7.200000e-03 2.800000e-02
      vertex   4.414243e-02 7.200000e-03 1.400000e-02
    endloop
  endfacet
  facet normal 0.000000e+00 -1.000000e+00 0.000000e+00
    outer loop
      vertex   4.414243e-02 7.200000e-03 1.400000e-02
      vertex   4.372033e-02 7.200000e-03 2.800000e-02
      vertex   4.372033e-02 7.200000e-03 1.400000e-02
    endloop
  endfacet
  facet normal 9.254866e-01 3.787804e-01 0.000000e+00
    outer loop
      vertex   4.299645e-02 1.000000e-02 2.800000e-02
      vertex   4.414243e-02 7.200000e-03 2.800000e-02
      vertex   4.299645e-02 1.000000e-02 1.400000e-02
    endloop
  endfacet
  facet normal 9.254866e-01 3.787804e-01 0.000000e+00
    outer loop
      vertex   4.299645e-02 1.000000e-02 1.400000e-02
      vertex   4.414243e-02 7.200000e-03 2.800000e-02
      vertex   4.414243e-02 7.200000e-03 1.400000e-02
    endloop
  endfacet
  facet normal -0.000000e+00 1.000000e+00 0.000000e+00
    outer loop
      vertex   4.259727e-02 1.000000e-02 2.800000e-02
      vertex   4.299645e-02 1.000000e-02 2.800000e-02
      vertex   4.259727e-02 1.000000e-02 1.400000e-02
    endloop
  endfacet
  facet normal 0.000000e+00 1.000000e+00 0.000000e+00
    outer loop
      vertex   4.259727e-02 1.000000e-02 1.400000e-02
      vertex   4.299645e-02 1.000000e-02 2.800000e-02
      vertex   4.299645e-02 1.000000e-02 1.400000e-02
    endloop
  endfacet
  facet normal -9.335261e-01 3.585094e-01 0.000000e+00
    outer loop
      vertex   4.152196e-02 7.200000e-03 2.800000e-02
      vertex   4.259727e-02 1.000000e-02 2.800000e-02
      vertex   4.152196e-02 7.200000e-03 1.400000e-02
    endloop
  endfacet
  facet normal -9.335261e-01 3.585094e-01 0.000000e+00
    outer loop
      vertex   4.152196e-02 7.200000e-03 1.400000e-02
      vertex   4.259727e-02 1.000000e-02 2.800000e-02
      vertex   4.259727e-02 1.000000e-02 1.400000e-02
    endloop
  endfacet
  facet normal -0.000000e+00 -1.000000e+00 -0.000000e+00
    outer loop
      vertex   4.191542e-02 7.200000e-03 2.800000e-02
      vertex   4.152196e-02 7.200000e-03 2.800000e-02
      vertex   4.191542e-02 7.200000e-03 1.400000e-02
    endloop
  endfacet
  facet normal 0.000000e+00 -1.000000e+00 0.000000e+00
    outer loop
      vertex   4.191542e-02 7.200000e-03 1.400000e-02
      vertex   4.152196e-02 7.200000e-03 2.800000e-02
      vertex   4.152196e-02 7.200000e-03 1.400000e-02
    endloop
  endfacet
  facet normal 0.000000e+00 -0.000000e+00 1.000000e+00
    outer loop
      vertex   4.191542e-02 7.200000e-03 2.800000e-02
      vertex   4.222292e-02 8.048022e-03 2.800000e-02
      vertex   4.152196e-02 7.200000e-03 2.800000e-02
    endloop
  endfacet
  facet normal 0.000000e+00 0.000000e+00 1.000000e+00
    outer loop
      vertex   4.152196e-02 7.200000e-03 2.800000e-02
      vertex   4.222292e-02 8.048022e-03 2.800000e-02
      vertex   4.232988e-02 8.349795e-03 2.800000e-02
    endloop
  endfacet
  facet normal 0.000000e+00 0.000000e+00 1.000000e+00
    outer loop
      vertex   4.152196e-02 7.200000e-03 2.800000e-02
      vertex   4.232988e-02 8.349795e-03 2.800000e-02
      vertex   4.259727e-02 1.000000e-02 2.800000e-02
    endloop
  endfacet
  facet normal 0.000000e+00 0.000000e+00 1.000000e+00
    outer loop
      vertex   4.259727e-02 1.000000e-02 2.800000e-02
      vertex   4.232988e-02 8.349795e-03 2.800000e-02
      vertex   4.263738e-02 9.171078e-03 2.800000e-02
    endloop
  endfacet
  facet normal 0.000000e+00 0.000000e+00 1.000000e+00
    outer loop
      vertex   4.259727e-02 1.000000e-02 2.800000e-02
      vertex   4.263738e-02 9.171078e-03 2.800000e-02
      vertex   4.268225e-02 9.302759e-03 2.800000e-02
    endloop
  endfacet
  facet normal -0.000000e+00 0.000000e+00 1.000000e+00
    outer loop
      vertex   4.232988e-02 8.349795e-03 2.800000e-02
      vertex   4.222292e-02 8.048022e-03 2.800000e-02
      vertex   4.327913e-02 8.349795e-03 2.800000e-02
    endloop
  endfacet
  facet normal 0.000000e+00 0.000000e+00 1.000000e+00
    outer loop
      vertex   4.327913e-02 8.349795e-03 2.800000e-02
      vertex   4.222292e-02 8.048022e-03 2.800000e-02
      vertex   4.339372e-02 8.048022e-03 2.800000e-02
    endloop
  endfacet
  facet normal 0.000000e+00 0.000000e+00 1.000000e+00
    outer loop
      vertex   4.327913e-02 8.349795e-03 2.800000e-02
      vertex   4.339372e-02 8.048022e-03 2.800000e-02
      vertex   4.414243e-02 7.200000e-03 2.800000e-02
    endloop
  endfacet
  facet normal 0.000000e+00 0.000000e+00 1.000000e+00
    outer loop
      vertex   4.414243e-02 7.200000e-03 2.800000e-02
      vertex   4.339372e-02 8.048022e-03 2.800000e-02
      vertex   4.372033e-02 7.200000e-03 2.800000e-02
    endloop
  endfacet
  facet normal 0.000000e+00 0.000000e+00 1.000000e+00
    outer loop
      vertex   4.414243e-02 7.200000e-03 2.800000e-02
      vertex   4.299645e-02 1.000000e-02 2.800000e-02
      vertex   4.327913e-02 8.349795e-03 2.800000e-02
    endloop
  endfacet
  facet normal 0.000000e+00 0.000000e+00 1.000000e+00
    outer loop
      vertex   4.327913e-02 8.349795e-03 2.800000e-02
      vertex   4.299645e-02 1.000000e-02 2.800000e-02
      vertex   4.298690e-02 9.125239e-03 2.800000e-02
    endloop
  endfacet
  facet normal 0.000000e+00 -0.000000e+00 1.000000e+00
    outer loop
      vertex   4.298690e-02 9.125239e-03 2.800000e-02
      vertex   4.299645e-02 1.000000e-02 2.800000e-02
      vertex   4.293337e-02 9.269082e-03 2.800000e-02
    endloop
  endfacet
  facet normal 0.000000e+00 -0.000000e+00 1.000000e+00
    outer loop
      vertex   4.293337e-02 9.269082e-03 2.800000e-02
      vertex   4.299645e-02 1.000000e-02 2.800000e-02
      vertex   4.288180e-02 9.413589e-03 2.800000e-02
    endloop
  endfacet
  facet normal 0.000000e+00 -0.000000e+00 1.000000e+00
    outer loop
      vertex   4.288180e-02 9.413589e-03 2.800000e-02
      vertex   4.299645e-02 1.000000e-02 2.800000e-02
      vertex   4.283381e-02 9.559310e-03 2.800000e-02
    endloop
  endfacet
  facet normal 0.000000e+00 -0.000000e+00 1.000000e+00
    outer loop
      vertex   4.283381e-02 9.559310e-03 2.800000e-02
      vertex   4.299645e-02 1.000000e-02 2.800000e-02
      vertex   4.278827e-02 9.705866e-03 2.800000e-02
    endloop
  endfacet
  facet normal 0.000000e+00 -0.000000e+00 1.000000e+00
    outer loop
      vertex   4.278827e-02 9.705866e-03 2.800000e-02
      vertex   4.299645e-02 1.000000e-02 2.800000e-02
      vertex   4.259727e-02 1.000000e-02 2.800000e-02
    endloop
  endfacet
  facet normal 2.923557e-14 1.898425e-14 1.000000e+00
    outer loop
      vertex   4.278827e-02 9.705866e-03 2.800000e-02
      vertex   4.259727e-02 1.000000e-02 2.800000e-02
      vertex   4.275773e-02 9.570145e-03 2.800000e-02
    endloop
  endfacet
  facet normal -5.377188e-14 -1.200074e-14 1.000000e+00
    outer loop
      vertex   4.275773e-02 9.570145e-03 2.800000e-02
      vertex   4.259727e-02 1.000000e-02 2.800000e-02
      vertex   4.272325e-02 9.435534e-03 2.800000e-02
    endloop
  endfacet
  facet normal 0.000000e+00 0.000000e+00 1.000000e+00
    outer loop
      vertex   4.272325e-02 9.435534e-03 2.800000e-02
      vertex   4.259727e-02 1.000000e-02 2.800000e-02
      vertex   4.268225e-02 9.302759e-03 2.800000e-02
    endloop
  endfacet
  facet normal 0.000000e+00 0.000000e+00 -1.000000e+00
    outer loop
      vertex   4.191542e-02 7.200000e-03 1.400000e-02
      vertex   4.152196e-02 7.200000e-03 1.400000e-02
      vertex   4.222292e-02 8.048022e-03 1.400000e-02
    endloop
  endfacet
  facet normal -0.000000e+00 0.000000e+00 -1.000000e+00
    outer loop
      vertex   4.222292e-02 8.048022e-03 1.400000e-02
      vertex   4.152196e-02 7.200000e-03 1.400000e-02
      vertex   4.232988e-02 8.349795e-03 1.400000e-02
    endloop
  endfacet
  facet normal 0.000000e+00 0.000000e+00 -1.000000e+00
    outer loop
      vertex   4.222292e-02 8.048022e-03 1.400000e-02
      vertex   4.232988e-02 8.349795e-03 1.400000e-02
      vertex   4.327913e-02 8.349795e-03 1.400000e-02
    endloop
  endfacet
  facet normal 0.000000e+00 0.000000e+00 -1.000000e+00
    outer loop
      vertex   4.152196e-02 7.200000e-03 1.400000e-02
      vertex   4.259727e-02 1.000000e-02 1.400000e-02
      vertex   4.232988e-02 8.349795e-03 1.400000e-02
    endloop
  endfacet
  facet normal 0.000000e+00 0.000000e+00 -1.000000e+00
    outer loop
      vertex   4.232988e-02 8.349795e-03 1.400000e-02
      vertex   4.259727e-02 1.000000e-02 1.400000e-02
      vertex   4.263738e-02 9.171078e-03 1.400000e-02
    endloop
  endfacet
  facet normal 0.000000e+00 0.000000e+00 -1.000000e+00
    outer loop
      vertex   4.263738e-02 9.171078e-03 1.400000e-02
      vertex   4.259727e-02 1.000000e-02 1.400000e-02
      vertex   4.268225e-02 9.302759e-03 1.400000e-02
    endloop
  endfacet
  facet normal 0.000000e+00 0.000000e+00 -1.000000e+00
    outer loop
      vertex   4.268225e-02 9.302759e-03 1.400000e-02
      vertex   4.259727e-02 1.000000e-02 1.400000e-02
      vertex   4.272325e-02 9.435534e-03 1.400000e-02
    endloop
  endfacet
  facet normal 2.688594e-14 6.000371e-15 -1.000000e+00
    outer loop
      vertex   4.272325e-02 9.435534e-03 1.400000e-02
      vertex   4.259727e-02 1.000000e-02 1.400000e-02
      vertex   4.275773e-02 9.570145e-03 1.400000e-02
    endloop
  endfacet
  facet normal -1.461778e-14 -9.492127e-15 -1.000000e+00
    outer loop
      vertex   4.275773e-02 9.570145e-03 1.400000e-02
      vertex   4.259727e-02 1.000000e-02 1.400000e-02
      vertex   4.278827e-02 9.705866e-03 1.400000e-02
    endloop
  endfacet
  facet normal 0.000000e+00 0.000000e+00 -1.000000e+00
    outer loop
      vertex   4.278827e-02 9.705866e-03 1.400000e-02
      vertex   4.259727e-02 1.000000e-02 1.400000e-02
      vertex   4.299645e-02 1.000000e-02 1.400000e-02
    endloop
  endfacet
  facet normal 0.000000e+00 0.000000e+00 -1.000000e+00
    outer loop
      vertex   4.278827e-02 9.705866e-03 1.400000e-02
      vertex   4.299645e-02 1.000000e-02 1.400000e-02
      vertex   4.283381e-02 9.559310e-03 1.400000e-02
    endloop
  endfacet
  facet normal 0.000000e+00 0.000000e+00 -1.000000e+00
    outer loop
      vertex   4.283381e-02 9.559310e-03 1.400000e-02
      vertex   4.299645e-02 1.000000e-02 1.400000e-02
      vertex   4.288180e-02 9.413589e-03 1.400000e-02
    endloop
  endfacet
  facet normal 0.000000e+00 0.000000e+00 -1.000000e+00
    outer loop
      vertex   4.288180e-02 9.413589e-03 1.400000e-02
      vertex   4.299645e-02 1.000000e-02 1.400000e-02
      vertex   4.293337e-02 9.269082e-03 1.400000e-02
    endloop
  endfacet
  facet normal 0.000000e+00 0.000000e+00 -1.000000e+00
    outer loop
      vertex   4.293337e-02 9.269082e-03 1.400000e-02
      vertex   4.299645e-02 1.000000e-02 1.400000e-02
      vertex   4.298690e-02 9.125239e-03 1.400000e-02
    endloop
  endfacet
  facet normal 0.000000e+00 0.000000e+00 -1.000000e+00
    outer loop
      vertex   4.298690e-02 9.125239e-03 1.400000e-02
      vertex   4.299645e-02 1.000000e-02 1.400000e-02
      vertex   4.327913e-02 8.349795e-03 1.400000e-02
    endloop
  endfacet
  facet normal 0.000000e+00 0.000000e+00 -1.000000e+00
    outer loop
      vertex   4.327913e-02 8.349795e-03 1.400000e-02
      vertex   4.299645e-02 1.000000e-02 1.400000e-02
      vertex   4.414243e-02 7.200000e-03 1.400000e-02
    endloop
  endfacet
  facet normal 0.000000e+00 0.000000e+00 -1.000000e+00
    outer loop
      vertex   4.327913e-02 8.349795e-03 1.400000e-02
      vertex   4.414243e-02 7.200000e-03 1.400000e-02
      vertex   4.339372e-02 8.048022e-03 1.400000e-02
    endloop
  endfacet
  facet normal 0.000000e+00 0.000000e+00 -1.000000e+00
    outer loop
      vertex   4.339372e-02 8.048022e-03 1.400000e-02
      vertex   4.414243e-02 7.200000e-03 1.400000e-02
      vertex   4.372033e-02 7.200000e-03 1.400000e-02
    endloop
  endfacet
  facet normal 0.000000e+00 0.000000e+00 -1.000000e+00
    outer loop
      vertex   4.339372e-02 8.048022e-03 1.400000e-02
      vertex   4.222292e-02 8.048022e-03 1.400000e-02
      vertex   4.327913e-02 8.349795e-03 1.400000e-02
    endloop
  endfacet
endsolid
