solid ASCII
  facet normal 1.000000e+00 0.000000e+00 0.000000e+00
    outer loop
      vertex   7.435388e-02 2.244222e-02 2.800000e-02
      vertex   7.435388e-02 2.210000e-02 2.800000e-02
      vertex   7.435388e-02 2.244222e-02 1.400000e-02
    endloop
  endfacet
  facet normal 1.000000e+00 0.000000e+00 0.000000e+00
    outer loop
      vertex   7.435388e-02 2.244222e-02 1.400000e-02
      vertex   7.435388e-02 2.210000e-02 2.800000e-02
      vertex   7.435388e-02 2.210000e-02 1.400000e-02
    endloop
  endfacet
  facet normal -0.000000e+00 1.000000e+00 0.000000e+00
    outer loop
      vertex   7.257353e-02 2.244222e-02 2.800000e-02
      vertex   7.435388e-02 2.244222e-02 2.800000e-02
      vertex   7.257353e-02 2.244222e-02 1.400000e-02
    endloop
  endfacet
  facet normal 0.000000e+00 1.000000e+00 0.000000e+00
    outer loop
      vertex   7.257353e-02 2.244222e-02 1.400000e-02
      vertex   7.435388e-02 2.244222e-02 2.800000e-02
      vertex   7.435388e-02 2.244222e-02 1.400000e-02
    endloop
  endfacet
  facet normal 1.000000e+00 0.000000e+00 0.000000e+00
    outer loop
      vertex   7.257353e-02 2.342933e-02 2.800000e-02
      vertex   7.257353e-02 2.244222e-02 2.800000e-02
      vertex   7.257353e-02 2.342933e-02 1.400000e-02
    endloop
  endfacet
  facet normal 1.000000e+00 0.000000e+00 0.000000e+00
    outer loop
      vertex   7.257353e-02 2.342933e-02 1.400000e-02
      vertex   7.257353e-02 2.244222e-02 2.800000e-02
      vertex   7.257353e-02 2.244222e-02 1.400000e-02
    endloop
  endfacet
  facet normal -0.000000e+00 -1.000000e+00 -0.000000e+00
    outer loop
      vertex   7.417783e-02 2.342933e-02 2.800000e-02
      vertex   7.257353e-02 2.342933e-02 2.800000e-02
      vertex   7.417783e-02 2.342933e-02 1.400000e-02
    endloop
  endfacet
  facet normal 0.000000e+00 -1.000000e+00 0.000000e+00
    outer loop
      vertex   7.417783e-02 2.342933e-02 1.400000e-02
      vertex   7.257353e-02 2.342933e-02 2.800000e-02
      vertex   7.257353e-02 2.342933e-02 1.400000e-02
    endloop
  endfacet
  facet normal 1.000000e+00 0.000000e+00 0.000000e+00
    outer loop
      vertex   7.417783e-02 2.376958e-02 2.800000e-02
      vertex   7.417783e-02 2.342933e-02 2.800000e-02
      vertex   7.417783e-02 2.376958e-02 1.400000e-02
    endloop
  endfacet
  facet normal 1.000000e+00 0.000000e+00 0.000000e+00
    outer loop
      vertex   7.417783e-02 2.376958e-02 1.400000e-02
      vertex   7.417783e-02 2.342933e-02 2.800000e-02
      vertex   7.417783e-02 2.342933e-02 1.400000e-02
    endloop
  endfacet
  facet normal -0.000000e+00 1.000000e+00 0.000000e+00
    outer loop
      vertex   7.257353e-02 2.376958e-02 2.800000e-02
      vertex   7.417783e-02 2.376958e-02 2.800000e-02
      vertex   7.257353e-02 2.376958e-02 1.400000e-02
    endloop
  endfacet
  facet normal 0.000000e+00 1.000000e+00 0.000000e+00
    outer loop
      vertex   7.257353e-02 2.376958e-02 1.400000e-02
      vertex   7.417783e-02 2.376958e-02 2.800000e-02
      vertex   7.417783e-02 2.376958e-02 1.400000e-02
    endloop
  endfacet
  facet normal 1.000000e+00 0.000000e+00 0.000000e+00
    outer loop
      vertex   7.257353e-02 2.465778e-02 2.800000e-02
      vertex   7.257353e-02 2.376958e-02 2.800000e-02
      vertex   7.257353e-02 2.465778e-02 1.400000e-02
    endloop
  endfacet
  facet normal 1.000000e+00 0.000000e+00 0.000000e+00
    outer loop
      vertex   7.257353e-02 2.465778e-02 1.400000e-02
      vertex   7.257353e-02 2.376958e-02 2.800000e-02
      vertex   7.257353e-02 2.376958e-02 1.400000e-02
    endloop
  endfacet
  facet normal -0.000000e+00 -1.000000e+00 -0.000000e+00
    outer loop
      vertex   7.428663e-02 2.465778e-02 2.800000e-02
      vertex   7.257353e-02 2.465778e-02 2.800000e-02
      vertex   7.428663e-02 2.465778e-02 1.400000e-02
    endloop
  endfacet
  facet normal 0.000000e+00 -1.000000e+00 0.000000e+00
    outer loop
      vertex   7.428663e-02 2.465778e-02 1.400000e-02
      vertex   7.257353e-02 2.465778e-02 2.800000e-02
      vertex   7.257353e-02 2.465778e-02 1.400000e-02
    endloop
  endfacet
  facet normal 1.000000e+00 0.000000e+00 0.000000e+00
    outer loop
      vertex   7.428663e-02 2.500000e-02 2.800000e-02
      vertex   7.428663e-02 2.465778e-02 2.800000e-02
      vertex   7.428663e-02 2.500000e-02 1.400000e-02
    endloop
  endfacet
  facet normal 1.000000e+00 0.000000e+00 0.000000e+00
    outer loop
      vertex   7.428663e-02 2.500000e-02 1.400000e-02
      vertex   7.428663e-02 2.465778e-02 2.800000e-02
      vertex   7.428663e-02 2.465778e-02 1.400000e-02
    endloop
  endfacet
  facet normal -0.000000e+00 1.000000e+00 0.000000e+00
    outer loop
      vertex   7.218976e-02 2.500000e-02 2.800000e-02
      vertex   7.428663e-02 2.500000e-02 2.800000e-02
      vertex   7.218976e-02 2.500000e-02 1.400000e-02
    endloop
  endfacet
  facet normal 0.000000e+00 1.000000e+00 0.000000e+00
    outer loop
      vertex   7.218976e-02 2.500000e-02 1.400000e-02
      vertex   7.428663e-02 2.500000e-02 2.800000e-02
      vertex   7.428663e-02 2.500000e-02 1.400000e-02
    endloop
  endfacet
  facet normal -1.000000e+00 0.000000e+00 0.000000e+00
    outer loop
      vertex   7.218976e-02 2.210000e-02 2.800000e-02
      vertex   7.218976e-02 2.500000e-02 2.800000e-02
      vertex   7.218976e-02 2.210000e-02 1.400000e-02
    endloop
  endfacet
  facet normal -1.000000e+00 0.000000e+00 0.000000e+00
    outer loop
      vertex   7.218976e-02 2.210000e-02 1.400000e-02
      vertex   7.218976e-02 2.500000e-02 2.800000e-02
      vertex   7.218976e-02 2.500000e-02 1.400000e-02
    endloop
  endfacet
  facet normal -0.000000e+00 -1.000000e+00 -0.000000e+00
    outer loop
      vertex   7.435388e-02 2.210000e-02 2.800000e-02
      vertex   7.218976e-02 2.210000e-02 2.800000e-02
      vertex   7.435388e-02 2.210000e-02 1.400000e-02
    endloop
  endfacet
  facet normal 0.000000e+00 -1.000000e+00 0.000000e+00
    outer loop
      vertex   7.435388e-02 2.210000e-02 1.400000e-02
      vertex   7.218976e-02 2.210000e-02 2.800000e-02
      vertex   7.218976e-02 2.210000e-02 1.400000e-02
    endloop
  endfacet
  facet normal 0.000000e+00 0.000000e+00 1.000000e+00
    outer loop
      vertex   7.435388e-02 2.210000e-02 2.800000e-02
      vertex   7.257353e-02 2.244222e-02 2.800000e-02
      vertex   7.218976e-02 2.210000e-02 2.800000e-02
    endloop
  endfacet
  facet normal 0.000000e+00 0.000000e+00 1.000000e+00
    outer loop
      vertex   7.218976e-02 2.210000e-02 2.800000e-02
      vertex   7.257353e-02 2.244222e-02 2.800000e-02
      vertex   7.257353e-02 2.342933e-02 2.800000e-02
    endloop
  endfacet
  facet normal 0.000000e+00 0.000000e+00 1.000000e+00
    outer loop
      vertex   7.218976e-02 2.210000e-02 2.800000e-02
      vertex   7.257353e-02 2.342933e-02 2.800000e-02
      vertex   7.218976e-02 2.500000e-02 2.800000e-02
    endloop
  endfacet
  facet normal 0.000000e+00 0.000000e+00 1.000000e+00
    outer loop
      vertex   7.218976e-02 2.500000e-02 2.800000e-02
      vertex   7.257353e-02 2.342933e-02 2.800000e-02
      vertex   7.257353e-02 2.376958e-02 2.800000e-02
    endloop
  endfacet
  facet normal 0.000000e+00 0.000000e+00 1.000000e+00
    outer loop
      vertex   7.218976e-02 2.500000e-02 2.800000e-02
      vertex   7.257353e-02 2.376958e-02 2.800000e-02
      vertex   7.257353e-02 2.465778e-02 2.800000e-02
    endloop
  endfacet
  facet normal 0.000000e+00 -0.000000e+00 1.000000e+00
    outer loop
      vertex   7.435388e-02 2.210000e-02 2.800000e-02
      vertex   7.435388e-02 2.244222e-02 2.800000e-02
      vertex   7.257353e-02 2.244222e-02 2.800000e-02
    endloop
  endfacet
  facet normal 0.000000e+00 0.000000e+00 1.000000e+00
    outer loop
      vertex   7.257353e-02 2.342933e-02 2.800000e-02
      vertex   7.417783e-02 2.342933e-02 2.800000e-02
      vertex   7.257353e-02 2.376958e-02 2.800000e-02
    endloop
  endfacet
  facet normal -0.000000e+00 0.000000e+00 1.000000e+00
    outer loop
      vertex   7.257353e-02 2.376958e-02 2.800000e-02
      vertex   7.417783e-02 2.342933e-02 2.800000e-02
      vertex   7.417783e-02 2.376958e-02 2.800000e-02
    endloop
  endfacet
  facet normal 0.000000e+00 -0.000000e+00 1.000000e+00
    outer loop
      vertex   7.428663e-02 2.465778e-02 2.800000e-02
      vertex   7.428663e-02 2.500000e-02 2.800000e-02
      vertex   7.257353e-02 2.465778e-02 2.800000e-02
    endloop
  endfacet
  facet normal 0.000000e+00 -0.000000e+00 1.000000e+00
    outer loop
      vertex   7.257353e-02 2.465778e-02 2.800000e-02
      vertex   7.428663e-02 2.500000e-02 2.800000e-02
      vertex   7.218976e-02 2.500000e-02 2.800000e-02
    endloop
  endfacet
  facet normal -0.000000e+00 -0.000000e+00 -1.000000e+00
    outer loop
      vertex   7.435388e-02 2.244222e-02 1.400000e-02
      vertex   7.435388e-02 2.210000e-02 1.400000e-02
      vertex   7.257353e-02 2.244222e-02 1.400000e-02
    endloop
  endfacet
  facet normal 0.000000e+00 -0.000000e+00 -1.000000e+00
    outer loop
      vertex   7.257353e-02 2.244222e-02 1.400000e-02
      vertex   7.435388e-02 2.210000e-02 1.400000e-02
      vertex   7.218976e-02 2.210000e-02 1.400000e-02
    endloop
  endfacet
  facet normal -0.000000e+00 0.000000e+00 -1.000000e+00
    outer loop
      vertex   7.257353e-02 2.244222e-02 1.400000e-02
      vertex   7.218976e-02 2.210000e-02 1.400000e-02
      vertex   7.257353e-02 2.342933e-02 1.400000e-02
    endloop
  endfacet
  facet normal -0.000000e+00 0.000000e+00 -1.000000e+00
    outer loop
      vertex   7.257353e-02 2.342933e-02 1.400000e-02
      vertex   7.218976e-02 2.210000e-02 1.400000e-02
      vertex   7.218976e-02 2.500000e-02 1.400000e-02
    endloop
  endfacet
  facet normal 0.000000e+00 0.000000e+00 -1.000000e+00
    outer loop
      vertex   7.257353e-02 2.342933e-02 1.400000e-02
      vertex   7.218976e-02 2.500000e-02 1.400000e-02
      vertex   7.257353e-02 2.376958e-02 1.400000e-02
    endloop
  endfacet
  facet normal 0.000000e+00 0.000000e+00 -1.000000e+00
    outer loop
      vertex   7.257353e-02 2.376958e-02 1.400000e-02
      vertex   7.218976e-02 2.500000e-02 1.400000e-02
      vertex   7.257353e-02 2.465778e-02 1.400000e-02
    endloop
  endfacet
  facet normal 0.000000e+00 0.000000e+00 -1.000000e+00
    outer loop
      vertex   7.257353e-02 2.465778e-02 1.400000e-02
      vertex   7.218976e-02 2.500000e-02 1.400000e-02
      vertex   7.428663e-02 2.500000e-02 1.400000e-02
    endloop
  endfacet
  facet normal 0.000000e+00 0.000000e+00 -1.000000e+00
    outer loop
      vertex   7.257353e-02 2.465778e-02 1.400000e-02
      vertex   7.428663e-02 2.500000e-02 1.400000e-02
      vertex   7.428663e-02 2.465778e-02 1.400000e-02
    endloop
  endfacet
  facet normal 0.000000e+00 0.000000e+00 -1.000000e+00
    outer loop
      vertex   7.257353e-02 2.376958e-02 1.400000e-02
      vertex   7.417783e-02 2.376958e-02 1.400000e-02
      vertex   7.257353e-02 2.342933e-02 1.400000e-02
    endloop
  endfacet
  facet normal 0.000000e+00 0.000000e+00 -1.000000e+00
    outer loop
      vertex   7.257353e-02 2.342933e-02 1.400000e-02
      vertex   7.417783e-02 2.376958e-02 1.400000e-02
      vertex   7.417783e-02 2.342933e-02 1.400000e-02
    endloop
  endfacet
endsolid
