solid ASCII
  facet normal 1.000000e+00 0.000000e+00 0.000000e+00
    outer loop
      vertex   5.844741e-02 2.465778e-02 2.800000e-02
      vertex   5.844741e-02 2.210000e-02 2.800000e-02
      vertex   5.844741e-02 2.465778e-02 1.400000e-02
    endloop
  endfacet
  facet normal 1.000000e+00 0.000000e+00 0.000000e+00
    outer loop
      vertex   5.844741e-02 2.465778e-02 1.400000e-02
      vertex   5.844741e-02 2.210000e-02 2.800000e-02
      vertex   5.844741e-02 2.210000e-02 1.400000e-02
    endloop
  endfacet
  facet normal -0.000000e+00 -1.000000e+00 -0.000000e+00
    outer loop
      vertex   5.940682e-02 2.465778e-02 2.800000e-02
      vertex   5.844741e-02 2.465778e-02 2.800000e-02
      vertex   5.940682e-02 2.465778e-02 1.400000e-02
    endloop
  endfacet
  facet normal 0.000000e+00 -1.000000e+00 0.000000e+00
    outer loop
      vertex   5.940682e-02 2.465778e-02 1.400000e-02
      vertex   5.844741e-02 2.465778e-02 2.800000e-02
      vertex   5.844741e-02 2.465778e-02 1.400000e-02
    endloop
  endfacet
  facet normal 1.000000e+00 0.000000e+00 0.000000e+00
    outer loop
      vertex   5.940682e-02 2.500000e-02 2.800000e-02
      vertex   5.940682e-02 2.465778e-02 2.800000e-02
      vertex   5.940682e-02 2.500000e-02 1.400000e-02
    endloop
  endfacet
  facet normal 1.000000e+00 0.000000e+00 0.000000e+00
    outer loop
      vertex   5.940682e-02 2.500000e-02 1.400000e-02
      vertex   5.940682e-02 2.465778e-02 2.800000e-02
      vertex   5.940682e-02 2.465778e-02 1.400000e-02
    endloop
  endfacet
  facet normal -0.000000e+00 1.000000e+00 0.000000e+00
    outer loop
      vertex   5.710819e-02 2.500000e-02 2.800000e-02
      vertex   5.940682e-02 2.500000e-02 2.800000e-02
      vertex   5.710819e-02 2.500000e-02 1.400000e-02
    endloop
  endfacet
  facet normal 0.000000e+00 1.000000e+00 0.000000e+00
    outer loop
      vertex   5.710819e-02 2.500000e-02 1.400000e-02
      vertex   5.940682e-02 2.500000e-02 2.800000e-02
      vertex   5.940682e-02 2.500000e-02 1.400000e-02
    endloop
  endfacet
  facet normal -1.000000e+00 0.000000e+00 0.000000e+00
    outer loop
      vertex   5.710819e-02 2.465778e-02 2.800000e-02
      vertex   5.710819e-02 2.500000e-02 2.800000e-02
      vertex   5.710819e-02 2.465778e-02 1.400000e-02
    endloop
  endfacet
  facet normal -1.000000e+00 0.000000e+00 0.000000e+00
    outer loop
      vertex   5.710819e-02 2.465778e-02 1.400000e-02
      vertex   5.710819e-02 2.500000e-02 2.800000e-02
      vertex   5.710819e-02 2.500000e-02 1.400000e-02
    endloop
  endfacet
  facet normal -0.000000e+00 -1.000000e+00 -0.000000e+00
    outer loop
      vertex   5.806364e-02 2.465778e-02 2.800000e-02
      vertex   5.710819e-02 2.465778e-02 2.800000e-02
      vertex   5.806364e-02 2.465778e-02 1.400000e-02
    endloop
  endfacet
  facet normal 0.000000e+00 -1.000000e+00 0.000000e+00
    outer loop
      vertex   5.806364e-02 2.465778e-02 1.400000e-02
      vertex   5.710819e-02 2.465778e-02 2.800000e-02
      vertex   5.710819e-02 2.465778e-02 1.400000e-02
    endloop
  endfacet
  facet normal -1.000000e+00 0.000000e+00 0.000000e+00
    outer loop
      vertex   5.806364e-02 2.210000e-02 2.800000e-02
      vertex   5.806364e-02 2.465778e-02 2.800000e-02
      vertex   5.806364e-02 2.210000e-02 1.400000e-02
    endloop
  endfacet
  facet normal -1.000000e+00 0.000000e+00 0.000000e+00
    outer loop
      vertex   5.806364e-02 2.210000e-02 1.400000e-02
      vertex   5.806364e-02 2.465778e-02 2.800000e-02
      vertex   5.806364e-02 2.465778e-02 1.400000e-02
    endloop
  endfacet
  facet normal -0.000000e+00 -1.000000e+00 -0.000000e+00
    outer loop
      vertex   5.844741e-02 2.210000e-02 2.800000e-02
      vertex   5.806364e-02 2.210000e-02 2.800000e-02
      vertex   5.844741e-02 2.210000e-02 1.400000e-02
    endloop
  endfacet
  facet normal 0.000000e+00 -1.000000e+00 0.000000e+00
    outer loop
      vertex   5.844741e-02 2.210000e-02 1.400000e-02
      vertex   5.806364e-02 2.210000e-02 2.800000e-02
      vertex   5.806364e-02 2.210000e-02 1.400000e-02
    endloop
  endfacet
  facet normal 0.000000e+00 0.000000e+00 1.000000e+00
    outer loop
      vertex   5.806364e-02 2.210000e-02 2.800000e-02
      vertex   5.844741e-02 2.210000e-02 2.800000e-02
      vertex   5.806364e-02 2.465778e-02 2.800000e-02
    endloop
  endfacet
  facet normal -0.000000e+00 0.000000e+00 1.000000e+00
    outer loop
      vertex   5.806364e-02 2.465778e-02 2.800000e-02
      vertex   5.844741e-02 2.210000e-02 2.800000e-02
      vertex   5.844741e-02 2.465778e-02 2.800000e-02
    endloop
  endfacet
  facet normal 0.000000e+00 -0.000000e+00 1.000000e+00
    outer loop
      vertex   5.806364e-02 2.465778e-02 2.800000e-02
      vertex   5.844741e-02 2.465778e-02 2.800000e-02
      vertex   5.710819e-02 2.500000e-02 2.800000e-02
    endloop
  endfacet
  facet normal -0.000000e+00 0.000000e+00 1.000000e+00
    outer loop
      vertex   5.710819e-02 2.500000e-02 2.800000e-02
      vertex   5.844741e-02 2.465778e-02 2.800000e-02
      vertex   5.940682e-02 2.500000e-02 2.800000e-02
    endloop
  endfacet
  facet normal 0.000000e+00 0.000000e+00 1.000000e+00
    outer loop
      vertex   5.940682e-02 2.500000e-02 2.800000e-02
      vertex   5.844741e-02 2.465778e-02 2.800000e-02
      vertex   5.940682e-02 2.465778e-02 2.800000e-02
    endloop
  endfacet
  facet normal 0.000000e+00 0.000000e+00 1.000000e+00
    outer loop
      vertex   5.710819e-02 2.500000e-02 2.800000e-02
      vertex   5.710819e-02 2.465778e-02 2.800000e-02
      vertex   5.806364e-02 2.465778e-02 2.800000e-02
    endloop
  endfacet
  facet normal 0.000000e+00 0.000000e+00 -1.000000e+00
    outer loop
      vertex   5.844741e-02 2.210000e-02 1.400000e-02
      vertex   5.806364e-02 2.210000e-02 1.400000e-02
      vertex   5.844741e-02 2.465778e-02 1.400000e-02
    endloop
  endfacet
  facet normal -0.000000e+00 0.000000e+00 -1.000000e+00
    outer loop
      vertex   5.844741e-02 2.465778e-02 1.400000e-02
      vertex   5.806364e-02 2.210000e-02 1.400000e-02
      vertex   5.806364e-02 2.465778e-02 1.400000e-02
    endloop
  endfacet
  facet normal 0.000000e+00 0.000000e+00 -1.000000e+00
    outer loop
      vertex   5.844741e-02 2.465778e-02 1.400000e-02
      vertex   5.806364e-02 2.465778e-02 1.400000e-02
      vertex   5.710819e-02 2.500000e-02 1.400000e-02
    endloop
  endfacet
  facet normal 0.000000e+00 0.000000e+00 -1.000000e+00
    outer loop
      vertex   5.710819e-02 2.500000e-02 1.400000e-02
      vertex   5.806364e-02 2.465778e-02 1.400000e-02
      vertex   5.710819e-02 2.465778e-02 1.400000e-02
    endloop
  endfacet
  facet normal 0.000000e+00 0.000000e+00 -1.000000e+00
    outer loop
      vertex   5.710819e-02 2.500000e-02 1.400000e-02
      vertex   5.940682e-02 2.500000e-02 1.400000e-02
      vertex   5.844741e-02 2.465778e-02 1.400000e-02
    endloop
  endfacet
  facet normal 0.000000e+00 0.000000e+00 -1.000000e+00
    outer loop
      vertex   5.844741e-02 2.465778e-02 1.400000e-02
      vertex   5.940682e-02 2.500000e-02 1.400000e-02
      vertex   5.940682e-02 2.465778e-02 1.400000e-02
    endloop
  endfacet
endsolid
