solid ASCII
  facet normal 1.000000e+00 0.000000e+00 0.000000e+00
    outer loop
      vertex   7.467045e-03 6.040135e-02 2.800000e-02
      vertex   7.467045e-03 5.867256e-02 2.800000e-02
      vertex   7.467045e-03 6.040135e-02 1.400000e-02
    endloop
  endfacet
  facet normal 1.000000e+00 0.000000e+00 0.000000e+00
    outer loop
      vertex   7.467045e-03 6.040135e-02 1.400000e-02
      vertex   7.467045e-03 5.867256e-02 2.800000e-02
      vertex   7.467045e-03 5.867256e-02 1.400000e-02
    endloop
  endfacet
  facet normal -8.313834e-01 -5.556992e-01 -0.000000e+00
    outer loop
      vertex   8.622570e-03 5.867256e-02 2.800000e-02
      vertex   7.467045e-03 6.040135e-02 2.800000e-02
      vertex   8.622570e-03 5.867256e-02 1.400000e-02
    endloop
  endfacet
  facet normal -8.313834e-01 -5.556992e-01 0.000000e+00
    outer loop
      vertex   8.622570e-03 5.867256e-02 1.400000e-02
      vertex   7.467045e-03 6.040135e-02 2.800000e-02
      vertex   7.467045e-03 6.040135e-02 1.400000e-02
    endloop
  endfacet
  facet normal -0.000000e+00 -1.000000e+00 -0.000000e+00
    outer loop
      vertex   8.921206e-03 5.867256e-02 2.800000e-02
      vertex   8.622570e-03 5.867256e-02 2.800000e-02
      vertex   8.921206e-03 5.867256e-02 1.400000e-02
    endloop
  endfacet
  facet normal 0.000000e+00 -1.000000e+00 0.000000e+00
    outer loop
      vertex   8.921206e-03 5.867256e-02 1.400000e-02
      vertex   8.622570e-03 5.867256e-02 2.800000e-02
      vertex   8.622570e-03 5.867256e-02 1.400000e-02
    endloop
  endfacet
  facet normal 1.000000e+00 0.000000e+00 0.000000e+00
    outer loop
      vertex   8.921206e-03 6.087256e-02 2.800000e-02
      vertex   8.921206e-03 5.867256e-02 2.800000e-02
      vertex   8.921206e-03 6.087256e-02 1.400000e-02
    endloop
  endfacet
  facet normal 1.000000e+00 0.000000e+00 0.000000e+00
    outer loop
      vertex   8.921206e-03 6.087256e-02 1.400000e-02
      vertex   8.921206e-03 5.867256e-02 2.800000e-02
      vertex   8.921206e-03 5.867256e-02 1.400000e-02
    endloop
  endfacet
  facet normal -0.000000e+00 1.000000e+00 0.000000e+00
    outer loop
      vertex   8.642079e-03 6.087256e-02 2.800000e-02
      vertex   8.921206e-03 6.087256e-02 2.800000e-02
      vertex   8.642079e-03 6.087256e-02 1.400000e-02
    endloop
  endfacet
  facet normal 0.000000e+00 1.000000e+00 0.000000e+00
    outer loop
      vertex   8.642079e-03 6.087256e-02 1.400000e-02
      vertex   8.921206e-03 6.087256e-02 2.800000e-02
      vertex   8.921206e-03 6.087256e-02 1.400000e-02
    endloop
  endfacet
  facet normal -1.000000e+00 0.000000e+00 0.000000e+00
    outer loop
      vertex   8.642079e-03 5.914528e-02 2.800000e-02
      vertex   8.642079e-03 6.087256e-02 2.800000e-02
      vertex   8.642079e-03 5.914528e-02 1.400000e-02
    endloop
  endfacet
  facet normal -1.000000e+00 0.000000e+00 0.000000e+00
    outer loop
      vertex   8.642079e-03 5.914528e-02 1.400000e-02
      vertex   8.642079e-03 6.087256e-02 2.800000e-02
      vertex   8.642079e-03 6.087256e-02 1.400000e-02
    endloop
  endfacet
  facet normal 8.311605e-01 5.560326e-01 0.000000e+00
    outer loop
      vertex   7.486554e-03 6.087256e-02 2.800000e-02
      vertex   8.642079e-03 5.914528e-02 2.800000e-02
      vertex   7.486554e-03 6.087256e-02 1.400000e-02
    endloop
  endfacet
  facet normal 8.311605e-01 5.560326e-01 0.000000e+00
    outer loop
      vertex   7.486554e-03 6.087256e-02 1.400000e-02
      vertex   8.642079e-03 5.914528e-02 2.800000e-02
      vertex   8.642079e-03 5.914528e-02 1.400000e-02
    endloop
  endfacet
  facet normal -0.000000e+00 1.000000e+00 0.000000e+00
    outer loop
      vertex   7.187918e-03 6.087256e-02 2.800000e-02
      vertex   7.486554e-03 6.087256e-02 2.800000e-02
      vertex   7.187918e-03 6.087256e-02 1.400000e-02
    endloop
  endfacet
  facet normal 0.000000e+00 1.000000e+00 0.000000e+00
    outer loop
      vertex   7.187918e-03 6.087256e-02 1.400000e-02
      vertex   7.486554e-03 6.087256e-02 2.800000e-02
      vertex   7.486554e-03 6.087256e-02 1.400000e-02
    endloop
  endfacet
  facet normal -1.000000e+00 0.000000e+00 0.000000e+00
    outer loop
      vertex   7.187918e-03 5.867256e-02 2.800000e-02
      vertex   7.187918e-03 6.087256e-02 2.800000e-02
      vertex   7.187918e-03 5.867256e-02 1.400000e-02
    endloop
  endfacet
  facet normal -1.000000e+00 0.000000e+00 0.000000e+00
    outer loop
      vertex   7.187918e-03 5.867256e-02 1.400000e-02
      vertex   7.187918e-03 6.087256e-02 2.800000e-02
      vertex   7.187918e-03 6.087256e-02 1.400000e-02
    endloop
  endfacet
  facet normal -0.000000e+00 -1.000000e+00 -0.000000e+00
    outer loop
      vertex   7.467045e-03 5.867256e-02 2.800000e-02
      vertex   7.187918e-03 5.867256e-02 2.800000e-02
      vertex   7.467045e-03 5.867256e-02 1.400000e-02
    endloop
  endfacet
  facet normal 0.000000e+00 -1.000000e+00 0.000000e+00
    outer loop
      vertex   7.467045e-03 5.867256e-02 1.400000e-02
      vertex   7.187918e-03 5.867256e-02 2.800000e-02
      vertex   7.187918e-03 5.867256e-02 1.400000e-02
    endloop
  endfacet
  facet normal 0.000000e+00 -0.000000e+00 1.000000e+00
    outer loop
      vertex   7.467045e-03 5.867256e-02 2.800000e-02
      vertex   7.467045e-03 6.040135e-02 2.800000e-02
      vertex   7.187918e-03 5.867256e-02 2.800000e-02
    endloop
  endfacet
  facet normal 0.000000e+00 0.000000e+00 1.000000e+00
    outer loop
      vertex   7.187918e-03 5.867256e-02 2.800000e-02
      vertex   7.467045e-03 6.040135e-02 2.800000e-02
      vertex   7.187918e-03 6.087256e-02 2.800000e-02
    endloop
  endfacet
  facet normal -0.000000e+00 0.000000e+00 1.000000e+00
    outer loop
      vertex   7.187918e-03 6.087256e-02 2.800000e-02
      vertex   7.467045e-03 6.040135e-02 2.800000e-02
      vertex   7.486554e-03 6.087256e-02 2.800000e-02
    endloop
  endfacet
  facet normal 0.000000e+00 0.000000e+00 1.000000e+00
    outer loop
      vertex   7.486554e-03 6.087256e-02 2.800000e-02
      vertex   7.467045e-03 6.040135e-02 2.800000e-02
      vertex   8.642079e-03 5.914528e-02 2.800000e-02
    endloop
  endfacet
  facet normal 0.000000e+00 0.000000e+00 1.000000e+00
    outer loop
      vertex   8.642079e-03 5.914528e-02 2.800000e-02
      vertex   7.467045e-03 6.040135e-02 2.800000e-02
      vertex   8.622570e-03 5.867256e-02 2.800000e-02
    endloop
  endfacet
  facet normal 0.000000e+00 0.000000e+00 1.000000e+00
    outer loop
      vertex   8.642079e-03 5.914528e-02 2.800000e-02
      vertex   8.622570e-03 5.867256e-02 2.800000e-02
      vertex   8.921206e-03 5.867256e-02 2.800000e-02
    endloop
  endfacet
  facet normal 0.000000e+00 -0.000000e+00 1.000000e+00
    outer loop
      vertex   8.921206e-03 5.867256e-02 2.800000e-02
      vertex   8.921206e-03 6.087256e-02 2.800000e-02
      vertex   8.642079e-03 5.914528e-02 2.800000e-02
    endloop
  endfacet
  facet normal 0.000000e+00 0.000000e+00 1.000000e+00
    outer loop
      vertex   8.642079e-03 5.914528e-02 2.800000e-02
      vertex   8.921206e-03 6.087256e-02 2.800000e-02
      vertex   8.642079e-03 6.087256e-02 2.800000e-02
    endloop
  endfacet
  facet normal 0.000000e+00 0.000000e+00 -1.000000e+00
    outer loop
      vertex   7.467045e-03 5.867256e-02 1.400000e-02
      vertex   7.187918e-03 5.867256e-02 1.400000e-02
      vertex   7.467045e-03 6.040135e-02 1.400000e-02
    endloop
  endfacet
  facet normal -0.000000e+00 0.000000e+00 -1.000000e+00
    outer loop
      vertex   7.467045e-03 6.040135e-02 1.400000e-02
      vertex   7.187918e-03 5.867256e-02 1.400000e-02
      vertex   7.187918e-03 6.087256e-02 1.400000e-02
    endloop
  endfacet
  facet normal 0.000000e+00 0.000000e+00 -1.000000e+00
    outer loop
      vertex   7.467045e-03 6.040135e-02 1.400000e-02
      vertex   7.187918e-03 6.087256e-02 1.400000e-02
      vertex   7.486554e-03 6.087256e-02 1.400000e-02
    endloop
  endfacet
  facet normal 0.000000e+00 -0.000000e+00 -1.000000e+00
    outer loop
      vertex   7.486554e-03 6.087256e-02 1.400000e-02
      vertex   8.642079e-03 5.914528e-02 1.400000e-02
      vertex   7.467045e-03 6.040135e-02 1.400000e-02
    endloop
  endfacet
  facet normal 0.000000e+00 0.000000e+00 -1.000000e+00
    outer loop
      vertex   7.467045e-03 6.040135e-02 1.400000e-02
      vertex   8.642079e-03 5.914528e-02 1.400000e-02
      vertex   8.622570e-03 5.867256e-02 1.400000e-02
    endloop
  endfacet
  facet normal 0.000000e+00 0.000000e+00 -1.000000e+00
    outer loop
      vertex   8.622570e-03 5.867256e-02 1.400000e-02
      vertex   8.642079e-03 5.914528e-02 1.400000e-02
      vertex   8.921206e-03 5.867256e-02 1.400000e-02
    endloop
  endfacet
  facet normal 0.000000e+00 0.000000e+00 -1.000000e+00
    outer loop
      vertex   8.921206e-03 5.867256e-02 1.400000e-02
      vertex   8.642079e-03 5.914528e-02 1.400000e-02
      vertex   8.921206e-03 6.087256e-02 1.400000e-02
    endloop
  endfacet
  facet normal -0.000000e+00 0.000000e+00 -1.000000e+00
    outer loop
      vertex   8.921206e-03 6.087256e-02 1.400000e-02
      vertex   8.642079e-03 5.914528e-02 1.400000e-02
      vertex   8.642079e-03 6.087256e-02 1.400000e-02
    endloop
  endfacet
endsolid
